<?xml version="1.0" encoding="utf-8"?>
<!-- Generator: Adobe Illustrator 16.0.3, SVG Export Plug-In . SVG Version: 6.00 Build 0)  -->
<!DOCTYPE svg PUBLIC "-//W3C//DTD SVG 1.1//EN" "http://www.w3.org/Graphics/SVG/1.1/DTD/svg11.dtd">
<svg version="1.1" id="Ebene_1" xmlns="http://www.w3.org/2000/svg" xmlns:xlink="http://www.w3.org/1999/xlink" x="0px" y="0px"
	 width="35.25px" height="23.917px" viewBox="0 0 35.25 23.917" enable-background="new 0 0 35.25 23.917" xml:space="preserve">
<g>
	<defs>
		<rect id="SVGID_1_" width="35.25" height="5.554"/>
	</defs>
	<clipPath id="SVGID_2_">
		<use xlink:href="#SVGID_1_"  overflow="visible"/>
	</clipPath>
	<path clip-path="url(#SVGID_2_)" fill="#A6C613" d="M35.25,2.777C35.25,1.244,34.006,0,32.473,0H2.777C1.243,0,0,1.244,0,2.777
		c0,1.534,1.243,2.777,2.777,2.777h29.695C34.006,5.554,35.25,4.311,35.25,2.777"/>
</g>
<g>
	<defs>
		<rect id="SVGID_3_" y="9.167" width="35.25" height="5.554"/>
	</defs>
	<clipPath id="SVGID_4_">
		<use xlink:href="#SVGID_3_"  overflow="visible"/>
	</clipPath>
	<path clip-path="url(#SVGID_4_)" fill="#A6C613" d="M35.25,11.944c0-1.533-1.244-2.777-2.777-2.777H2.777
		C1.243,9.167,0,10.411,0,11.944c0,1.534,1.243,2.777,2.777,2.777h29.695C34.006,14.721,35.25,13.478,35.25,11.944"/>
</g>
<g>
	<defs>
		<rect id="SVGID_5_" y="18.363" width="35.25" height="5.554"/>
	</defs>
	<clipPath id="SVGID_6_">
		<use xlink:href="#SVGID_5_"  overflow="visible"/>
	</clipPath>
	<path clip-path="url(#SVGID_6_)" fill="#A6C613" d="M35.25,21.14c0-1.533-1.244-2.777-2.777-2.777H2.777
		C1.243,18.363,0,19.606,0,21.14c0,1.534,1.243,2.777,2.777,2.777h29.695C34.006,23.917,35.25,22.674,35.25,21.14"/>
</g>
</svg>
