<?xml version="1.0" encoding="utf-8"?>
<!-- Generator: Adobe Illustrator 16.0.3, SVG Export Plug-In . SVG Version: 6.00 Build 0)  -->
<!DOCTYPE svg PUBLIC "-//W3C//DTD SVG 1.1//EN" "http://www.w3.org/Graphics/SVG/1.1/DTD/svg11.dtd">
<svg version="1.1" id="Ebene_1" xmlns="http://www.w3.org/2000/svg" xmlns:xlink="http://www.w3.org/1999/xlink" x="0px" y="0px"
	 width="330.5px" height="215px" viewBox="0 0 330.5 215" enable-background="new 0 0 330.5 215" xml:space="preserve">
<path fill="#441F15" d="M100,167.031c-8.109,0.468-16.535-1.761-24.79-1.761c-10.046,0-20.093,0-30.139,0
	c-5.295,0-16.473,2.604-21.445,0.038c-4.307-2.223-2.692-6.996-3.116-11.78c-0.386-4.352-2.127-8.807-0.153-12.972
	c2.84-5.991,10.675-8.237,15.941-8.774c23.806-2.425,48.65,0.029,72.575,0.029c57.503,0,114.704-1.762,172.325-1.762
	c9.422,0,19.092-0.756,28.482-0.009c7.78,0.619,9.225,7.673,11.94,15.864c1.19,3.59,3.461,10.333,1.902,14.251
	c-3.059,7.687-16.977,5.038-22.969,5.572c-66.649,5.942-134.084,4.238-201.054,4.238"/>
<path fill="#F4BD50" d="M2.375,161.458c9.548,12.802,0.25,32.933,16.624,43.931c11.84,7.952,38.578,6.049,50.94,6.09
	c27.611,0.091,55.225-0.021,82.837-0.021c46.5,0,94.628,3.755,140.943-0.182c33.952-2.885,35.252-23.469,33.512-52.786
	c-17.908-1.518-36.812,3.281-54.898,4.063c-27.313,1.183-54.94-0.054-82.288-0.054c-28.561,0-63.17,3.952-91.498,3.047
	C71,164.667,62.452,163.664,43,163.667c-10.836,0.002-30.268,2.65-40.333-2.667"/>
<path fill="#FFEA1F" d="M44.5,131c3.042,5.907,9.961,9.076,14.731,13.35c6.291,5.636,9.959,11.822,12.316,19.915
	c3.078,10.569,5.298,20.813,5.457,31.715c2.625-5.627,3.487-12.159,7.024-17.376c3.296-4.86,8.925-9.68,13.438-13.43
	c11.999-9.971,29.48-13.438,43.98-18.242c11.686-3.872,23.813-6.31,35.45-10.555c6.206-2.264,13.157-2.955,19.104-5.377"/>
<path fill="#3AAA35" d="M116.059,126.207c-2.789,6.893,5.931,6.293,8.233,6.567c0.847,12.651,11.169,12.907,16.081,4.918
	c2.955,4.234,0.864,5.949,5.658,4.115c3.35-1.281,6.009-3.056,8.307-6.823c0.909,3.249,3.69,13.22,6.016,14.364
	c3.755,1.848,6.157-5.245,6.612-9.249c4.717,11.245,6.452-3.5,8.499-8.685c4.911,6.138,6.602,11.143,13.56,12.79
	c2.573,0.609,7.347,1.973,8.112-3.104c4.457,6.206,7.801,6.415,10.983-2.532c3.441,5.682,11.934,13.66,17.393,8.204
	c2.558-2.56,2.977-8.436,3.383-12.665c3.909,13.111,16.17,13.854,18.436-1.278c4.234,9.522,8.809,5.193,14.037,1.145
	c5.238,7.392,7.825,9.614,13.175,1.23c5.111,2.68,9.683,5.922,14.971,3.095c0.091-0.047,4.249-3.628,4.439-3.643
	c2.155-0.158,4.132,2.911,6.29,3.485c3.672,0.974,12.23-6.922,9.379-13.97c-3.195-7.9-12.903-1.071-17.105-0.031
	c-11.51,2.847-23.909-0.285-35.563,0.65c-45.811,3.679-92.182,0.915-138.101,0.915"/>
<path fill="#E6332A" d="M98.446,133.619c4.371-0.807,10.295-2.158,10.333-10.188c-8.559-1.555-13.169-0.691-21.717,3.444
	c-14.346,6.941-28.319,5.24-42.558,3.313c-7.623-1.033-15.251-2.031-22.875-3.066c-3.262-0.442-10.272-3.469-13.389,1.196
	c-2.908,4.352-1.433,10.055,0.998,12.704c6.221,6.781,20.076,4.499,27.949,5.554c8.833,1.183,16.512,0.169,25.5-1.726
	c4.898-1.034,9.705-2.806,14.481-4.635c1.928-0.738,3.854-1.486,5.786-2.203c1.644-0.609,3.383-1.501,5.083-1.395
	c1.621,0.101,3.106-0.96,4.671-1.521C94.597,134.422,96.521,133.975,98.446,133.619z"/>
<path fill="#F4BD50" d="M20.083,132c0-10.021-0.711-17.159,0.476-27.094c1.081-9.048,3.472-18.562,5.444-27.47
	c2.583-11.671,10.156-20.405,16.627-30.302c3.211-4.912,7.416-9.485,10.244-14.579c1.277-2.3,1.551-4.595,3.399-6.278
	c6.797-6.188,19.152-8.151,27.595-11.23c18.113-6.607,36.156-10.145,55.514-10.055c10.197,0.047,20.396,0.026,30.593,0.011
	c15.586-0.022,28.184,3.422,43.113,8.398c34.116,11.369,71.063,28.673,89.285,61.666c6.835,12.374,12.765,25.66,14.12,39.81
	c0.325,3.404,2.716,16.264-0.441,18.179c-1.904,1.155-8.4-2.96-10.247-3.491c-3.942-1.136-7.58-1.077-11.669-1.064
	c-5.023,0.016-10.05,0.037-15.073,0.004c-6.458-0.044-9.74,2.637-15.899,3.456c-15.567,2.072-32.629,0.04-48.385,0.04
	c-20.232,0-40.464,0-60.696,0c-44.695,0-89.39,0-134.084,0"/>
<g>
	<line fill="#CBBBA0" x1="76" y1="61.5" x2="76" y2="62"/>
	<g>
		<path fill="#FFE5B7" d="M73.5,61.5c0,0.167,0,0.333,0,0.5c0,1.363,1.137,2.5,2.5,2.5s2.5-1.137,2.5-2.5c0-0.167,0-0.333,0-0.5
			c0-1.363-1.137-2.5-2.5-2.5S73.5,60.137,73.5,61.5L73.5,61.5z"/>
	</g>
</g>
<g>
	<line fill="#CBBBA0" x1="76" y1="84.5" x2="76" y2="85"/>
	<g>
		<path fill="#FFE5B7" d="M73.5,84.5c0,0.167,0,0.333,0,0.5c0,1.363,1.137,2.5,2.5,2.5s2.5-1.137,2.5-2.5c0-0.167,0-0.333,0-0.5
			c0-1.363-1.137-2.5-2.5-2.5S73.5,83.137,73.5,84.5L73.5,84.5z"/>
	</g>
</g>
<g>
	<path fill="#CBBBA0" d="M104.5,64c0.5,2,0.5,4.5,0.5,6.5"/>
	<g>
		<path fill="#FFE5B7" d="M102.089,64.665c0.439,1.911,0.41,3.885,0.411,5.835c0.001,3.224,5.001,3.225,5,0
			c-0.001-2.401-0.048-4.813-0.589-7.165C106.188,60.194,101.367,61.526,102.089,64.665L102.089,64.665z"/>
	</g>
</g>
<g>
	<path fill="#CBBBA0" d="M165.167,54.333c0.5,2,0.5,4.5,0.5,6.5"/>
	<g>
		<path fill="#FFE5B7" d="M162.756,54.998c0.439,1.911,0.41,3.885,0.411,5.835c0.001,3.224,5.001,3.225,5,0
			c0-2.401-0.048-4.813-0.589-7.165C166.854,50.527,162.034,51.86,162.756,54.998L162.756,54.998z"/>
	</g>
</g>
<g>
	<path fill="#CBBBA0" d="M134,74c1,1,1.5,2,2.5,3.5"/>
	<g>
		<path fill="#FFE5B7" d="M132.232,75.768c0.19,0.195,0.372,0.396,0.548,0.604c-0.396-0.469,0.226,0.327,0.311,0.453
			c0.43,0.637,0.826,1.296,1.25,1.938c0.75,1.134,2.196,1.614,3.42,0.897c1.126-0.66,1.649-2.283,0.897-3.42
			c-0.91-1.376-1.731-2.816-2.891-4.006c-0.951-0.976-2.581-0.955-3.535,0C131.26,73.205,131.281,74.793,132.232,75.768
			L132.232,75.768z"/>
	</g>
</g>
<g>
	<path fill="#CBBBA0" d="M179,74c1,1,2,2.5,2.5,4"/>
	<g>
		<path fill="#FFE5B7" d="M177.232,75.768c0.777,0.801,1.515,1.927,1.856,2.897c0.453,1.284,1.691,2.127,3.076,1.746
			c1.243-0.342,2.199-1.79,1.746-3.075c-0.677-1.917-1.725-3.642-3.144-5.103c-0.949-0.978-2.583-0.953-3.535,0
			C176.259,73.206,176.283,74.791,177.232,75.768L177.232,75.768z"/>
	</g>
</g>
<g>
	<path fill="#CBBBA0" d="M224,80"/>
	<g>
		<path fill="#FFE5B7" d="M224,82.5c3.225,0,3.225-5,0-5S220.775,82.5,224,82.5L224,82.5z"/>
	</g>
</g>
<g>
	<path fill="#CBBBA0" d="M220.333,114.666"/>
	<g>
		<path fill="#FFE5B7" d="M220.333,117.166c3.225,0,3.225-5,0-5S217.108,117.166,220.333,117.166L220.333,117.166z"/>
	</g>
</g>
<g>
	<path fill="#CBBBA0" d="M290.999,88.999"/>
	<g>
		<path fill="#FFE5B7" d="M290.999,91.499c3.225,0,3.225-5,0-5S287.774,91.499,290.999,91.499L290.999,91.499z"/>
	</g>
</g>
<g>
	<path fill="#CBBBA0" d="M211.332,55.666"/>
	<g>
		<path fill="#FFE5B7" d="M211.332,58.166c3.225,0,3.225-5,0-5S208.107,58.166,211.332,58.166L211.332,58.166z"/>
	</g>
</g>
<g>
	<path fill="#CBBBA0" d="M193.5,99.5c0,1-0.5,2-1,3"/>
	<g>
		<path fill="#FFE5B7" d="M191,99.5c-0.024,0.697,0.13-0.5-0.021,0.192c-0.048,0.22-0.127,0.433-0.202,0.643
			c0.177-0.496-0.097,0.214-0.118,0.261c-0.102,0.216-0.21,0.429-0.316,0.643c-0.609,1.219-0.336,2.698,0.896,3.42
			c1.116,0.654,2.813,0.322,3.42-0.896c0.683-1.367,1.288-2.71,1.342-4.262c0.048-1.363-1.173-2.5-2.5-2.5
			C192.102,97,191.048,98.139,191,99.5L191,99.5z"/>
	</g>
</g>
<g>
	<path fill="#CBBBA0" d="M131.5,105.5c-0.5,1-1,2-2,3"/>
	<g>
		<path fill="#FFE5B7" d="M129.341,104.238c-0.226,0.451-0.455,0.898-0.71,1.333c-0.135,0.229-0.285,0.449-0.438,0.667
			c0.183-0.229,0.183-0.23,0-0.006c-0.144,0.175-0.303,0.338-0.46,0.5c-0.95,0.976-0.973,2.563,0,3.535
			c0.953,0.953,2.585,0.977,3.535,0c1.006-1.034,1.75-2.224,2.391-3.506c0.61-1.219,0.334-2.699-0.897-3.42
			C131.644,102.687,129.951,103.021,129.341,104.238L129.341,104.238z"/>
	</g>
</g>
<g>
	<path fill="#CBBBA0" d="M92,110"/>
	<g>
		<path fill="#FFE5B7" d="M92,112.5c3.224,0,3.224-5,0-5S88.776,112.5,92,112.5L92,112.5z"/>
	</g>
</g>
<g>
	<path fill="#CBBBA0" d="M140,22c0,1,0,2.5,0,3.5"/>
	<g>
		<path fill="#FFE5B7" d="M137.5,22c0,1.167,0,2.333,0,3.5c0,1.363,1.137,2.5,2.5,2.5s2.5-1.137,2.5-2.5c0-1.167,0-2.333,0-3.5
			c0-1.363-1.137-2.5-2.5-2.5S137.5,20.637,137.5,22L137.5,22z"/>
	</g>
</g>
<g>
	<path fill="#CBBBA0" d="M188,28.5c0,1.5,0.5,3,0.5,4.5"/>
	<g>
		<path fill="#FFE5B7" d="M185.5,28.5c0.035,1.539,0.467,3.02,0.5,4.5c0.031,1.362,1.114,2.5,2.5,2.5c1.34,0,2.531-1.137,2.5-2.5
			c-0.035-1.539-0.467-3.02-0.5-4.5c-0.031-1.362-1.114-2.5-2.5-2.5C186.66,26,185.469,27.137,185.5,28.5L185.5,28.5z"/>
	</g>
</g>
<g>
	<path fill="#CBBBA0" d="M96.5,24.5c-0.5,1-0.5,2-1,3"/>
	<g>
		<path fill="#FFE5B7" d="M94.341,23.238c-0.287,0.615-0.526,1.228-0.698,1.883c-0.056,0.214-0.108,0.429-0.164,0.643
			c-0.026,0.1-0.342,0.912-0.138,0.474c-0.576,1.235-0.359,2.685,0.897,3.42c1.093,0.64,2.845,0.338,3.42-0.897
			c0.287-0.615,0.526-1.228,0.698-1.883c0.056-0.214,0.108-0.429,0.164-0.643c0.026-0.1,0.342-0.912,0.138-0.474
			c0.576-1.235,0.359-2.685-0.897-3.42C96.669,21.701,94.917,22.003,94.341,23.238L94.341,23.238z"/>
	</g>
</g>
<g>
	<path fill="#CBBBA0" d="M261,67c0,2,0,3.5,0,5.5"/>
	<g>
		<path fill="#FFE5B7" d="M258.5,67c0,1.833,0,3.667,0,5.5c0,3.224,5,3.224,5,0c0-1.833,0-3.667,0-5.5
			C263.5,63.776,258.5,63.776,258.5,67L258.5,67z"/>
	</g>
</g>
<g>
	<path fill="#CBBBA0" d="M263.667,115.334c0,2,0,3.5,0,5.5"/>
	<g>
		<path fill="#FFE5B7" d="M261.167,115.334c0,1.833,0,3.666,0,5.5c0,3.224,5,3.224,5,0c0-1.834,0-3.667,0-5.5
			C266.167,112.109,261.167,112.109,261.167,115.334L261.167,115.334z"/>
	</g>
</g>
<g>
	<path fill="#CBBBA0" d="M45.333,97.668c0,2,0,3.5,0,5.5"/>
	<g>
		<path fill="#FFE5B7" d="M42.833,97.668c0,1.833,0,3.666,0,5.5c0,3.224,5,3.224,5,0c0-1.834,0-3.667,0-5.5
			C47.833,94.443,42.833,94.443,42.833,97.668L42.833,97.668z"/>
	</g>
</g>
<g>
	<path fill="#CBBBA0" d="M237,38c0,1.5-0.5,3.5-0.5,5"/>
	<g>
		<path fill="#FFE5B7" d="M234.5,38c-0.033,1.678-0.467,3.295-0.5,5c-0.063,3.226,4.937,3.22,5,0c0.033-1.678,0.467-3.295,0.5-5
			C239.563,34.774,234.563,34.78,234.5,38L234.5,38z"/>
	</g>
</g>
</svg>
