<?xml version="1.0" encoding="utf-8"?>
<!-- Generator: Adobe Illustrator 16.0.3, SVG Export Plug-In . SVG Version: 6.00 Build 0)  -->
<!DOCTYPE svg PUBLIC "-//W3C//DTD SVG 1.1//EN" "http://www.w3.org/Graphics/SVG/1.1/DTD/svg11.dtd">
<svg version="1.1" id="Ebene_1" xmlns="http://www.w3.org/2000/svg" xmlns:xlink="http://www.w3.org/1999/xlink" x="0px" y="0px"
	 width="35.917px" height="26.75px" viewBox="0 0 35.917 26.75" enable-background="new 0 0 35.917 26.75" xml:space="preserve">
<path fill="#95C11F" d="M18.766,21.751c0.975,0.01,1.928-0.07,2.916-0.053c2.164,0.037,4.327,0.075,6.492,0.11
	c1.886,0.033,6.265-0.498,6.992,1.516c0.181,0.5,0.423,1.628-0.004,2.083c-0.271,0.287-1.201,0.502-1.625,0.651
	c-0.349,0.123-0.82,0.159-1.248,0.205c-0.661,0.072-1.377,0.074-2.071,0.092c-1.001,0.026-1.981,0.176-2.998,0.156
	c-2.419-0.048-4.837-0.136-7.259-0.177c-3.312-0.058-6.599,0.091-9.903,0.034c-2.17-0.037-4.573,0.341-6.673-0.14
	c-0.513-0.118-1.266-0.238-1.74-0.42c-0.724-0.283-0.717-0.952-0.832-1.507c-0.136-0.658-0.177-1.258,0.539-1.717
	c1.062-0.68,2.626-0.911,3.93-0.889c1.719,0.032,3.438,0.06,5.157,0.09c1.539,0.026,3.075-0.051,4.613-0.031
	c0.634,0.007,1.214-0.094,1.838-0.102C17.518,21.646,18.14,21.743,18.766,21.751z"/>
<path fill="#95C11F" d="M2.104,15.188c0.792,0.569,1.881,0.473,2.848,0.6c1.016,0.133,2.313,0.079,3.322,0.065
	c1.268-0.015,2.535-0.057,3.807-0.057c2.675,0,5.339,0.104,8.02,0.104c2.629,0,5.514,0.297,8.102-0.041
	c0.654-0.086,1.224-0.225,1.892-0.219c0.795,0.007,1.616,0.052,2.404-0.047c0.835-0.104,1.486-0.119,1.849-0.688
	c0.662-1.04,0.618-1.765-0.047-2.879c-0.888-1.487-4.346-1.216-5.934-1.111c-1.17,0.076-2.319,0.347-3.498,0.366
	c-2.922,0.049-5.822-0.254-8.729-0.26c-2.607-0.006-5.217-0.053-7.819-0.051c-1.716,0.001-3.687-0.266-5.368,0.021
	c-0.556,0.097-1.219,0.475-1.556,0.862c-0.283,0.326-0.417,1.089-0.417,1.521C0.979,13.375,1.103,14.468,2.104,15.188z"/>
<path fill="#95C11F" d="M1.671,4.613C2.397,5.14,3.64,5.06,4.497,5.06c2.599,0,5.197-0.032,7.792-0.032
	c6.608,0,11.722,0.485,18.303,0.231c0.674-0.025,2.901-0.377,3.489-0.679c0.46-0.236,0.575-0.741,0.565-1.174
	c-0.011-0.398,0.059-0.874-0.126-1.245c-0.18-0.358-0.599-0.813-0.914-1.095c-0.837-0.746-2.451-0.434-3.62-0.434
	c-4.197,0-8.311-0.32-12.508-0.32c-4.488-0.001-9.082,0.219-13.56,0.32c-0.86,0.019-1.637,0.284-2.326,0.675
	c0,0-1.083,0.679-0.907,1.729C0.687,3.037,0.682,3.897,1.671,4.613z"/>
</svg>
