<?xml version="1.0" encoding="utf-8"?>
<!-- Generator: Adobe Illustrator 16.0.3, SVG Export Plug-In . SVG Version: 6.00 Build 0)  -->
<!DOCTYPE svg PUBLIC "-//W3C//DTD SVG 1.1//EN" "http://www.w3.org/Graphics/SVG/1.1/DTD/svg11.dtd">
<svg version="1.1" id="Ebene_1" xmlns="http://www.w3.org/2000/svg" xmlns:xlink="http://www.w3.org/1999/xlink" x="0px" y="0px"
	 width="35.25px" height="23.917px" viewBox="0 0 35.25 23.917" enable-background="new 0 0 35.25 23.917" xml:space="preserve">
<g>
	<g>
		<defs>
			<rect id="SVGID_1_" y="9.806" width="35.25" height="4.305"/>
		</defs>
		<clipPath id="SVGID_2_">
			<use xlink:href="#SVGID_1_"  overflow="visible"/>
		</clipPath>
		<path clip-path="url(#SVGID_2_)" fill="#A6C613" d="M35.25,11.958c0-1.188-1.244-2.152-2.777-2.152H2.777
			C1.243,9.806,0,10.771,0,11.958c0,1.19,1.243,2.153,2.777,2.153h29.696C34.006,14.111,35.25,13.148,35.25,11.958"/>
	</g>
</g>
<g>
	<g>
		<defs>
			<rect id="SVGID_3_" width="35.25" height="4.304"/>
		</defs>
		<clipPath id="SVGID_4_">
			<use xlink:href="#SVGID_3_"  overflow="visible"/>
		</clipPath>
		<path clip-path="url(#SVGID_4_)" fill="#A6C613" d="M35.25,2.152C35.25,0.964,34.006,0,32.473,0H2.777C1.243,0,0,0.964,0,2.152
			c0,1.189,1.243,2.152,2.777,2.152h29.696C34.006,4.304,35.25,3.341,35.25,2.152"/>
	</g>
</g>
<g>
	<g>
		<defs>
			<rect id="SVGID_5_" y="19.613" width="35.25" height="4.305"/>
		</defs>
		<clipPath id="SVGID_6_">
			<use xlink:href="#SVGID_5_"  overflow="visible"/>
		</clipPath>
		<path clip-path="url(#SVGID_6_)" fill="#A6C613" d="M35.25,21.765c0-1.188-1.244-2.152-2.777-2.152H2.777
			C1.243,19.613,0,20.578,0,21.765c0,1.189,1.243,2.152,2.777,2.152h29.696C34.006,23.917,35.25,22.955,35.25,21.765"/>
	</g>
</g>
</svg>
