<?xml version="1.0" encoding="utf-8"?>
<!-- Generator: Adobe Illustrator 16.0.3, SVG Export Plug-In . SVG Version: 6.00 Build 0)  -->
<!DOCTYPE svg PUBLIC "-//W3C//DTD SVG 1.1//EN" "http://www.w3.org/Graphics/SVG/1.1/DTD/svg11.dtd">
<svg version="1.1" id="Ebene_1" xmlns="http://www.w3.org/2000/svg" xmlns:xlink="http://www.w3.org/1999/xlink" x="0px" y="0px"
	 width="479.977px" height="151.493px" viewBox="0 0 479.977 151.493" enable-background="new 0 0 479.977 151.493"
	 xml:space="preserve">
<path fill="#A8C813" stroke="#A8C813" stroke-width="2.0442" stroke-miterlimit="10" d="M219.834,81.32
	c-0.435-9.739-1.314-19.729-5.266-28.767c-2.28-5.213-4.269-10.657-6.976-15.632c-3.642-6.691-13.395-13.355-20.061-16.58
	c-4.317-2.088-9.07-3.431-13.603-5.03c-4.344-1.532-9.634-4.593-14.145-5.2c-21.717-2.924-43.292,1.426-55.788,20.53
	c-5.944,6.095-10.642,13.263-13.914,21.037c-3.299,5.134-5.585,10.622-5.108,19.079c0.018,0.336,0.054,0.667,0.078,1.002
	c-0.184,2.016-0.295,4.044-0.295,6.081c0,14.867,4.815,28.605,12.958,39.761l-0.733-0.494c-2.925,4.72-4.379,10.015-7.255,14.728
	c-1.807,2.962-3.146,5.214-3.897,8.613c8.815-1.837,17.579-5.16,26.043-8.498c9.589,7.171,21.147,11.854,33.72,13.091
	c4.94,1.033,9.978,1.248,14.873,0.229c1.049-0.222,2.131-0.517,3.239-0.876c13.266-2.255,25.21-8.376,34.64-17.167
	c4.4-2.692,8.38-5.88,11.794-10.392c7.243-9.572,10.271-20.893,9.81-32.791C219.913,83.139,219.875,82.231,219.834,81.32z"/>
<path fill="#3C3C3B" stroke="#3C3C3B" stroke-width="2.5" stroke-miterlimit="10" d="M16.396,35.035
	c-0.363,9.142-0.634,23.418-0.814,42.83c-0.182,19.413-0.498,34.143-0.95,44.188c0,0.454-0.183,0.86-0.543,1.222
	c-0.363,0.362-0.793,0.521-1.29,0.475c-0.499-0.044-0.93-0.248-1.291-0.61c-0.363-0.36-0.498-0.814-0.407-1.357
	c0.452-9.955,0.768-24.64,0.95-44.053c0.181-19.413,0.452-33.735,0.814-42.966c0-0.452,0.181-0.859,0.543-1.222
	c0.361-0.361,0.792-0.52,1.291-0.475c0.496,0.046,0.927,0.249,1.29,0.61C16.35,34.04,16.485,34.492,16.396,35.035z"/>
<path fill="#3C3C3B" stroke="#3C3C3B" stroke-width="2.5" stroke-miterlimit="10" d="M50.741,51.19
	c0.452-6.334-0.407-10.906-2.579-13.712c-1.629-2.081-3.801-2.804-6.516-2.172c-2.715,0.543-4.979,2.172-6.788,4.887
	c-1.812,2.715-2.263,5.702-1.358,8.959c0.452,1.812,1.063,3.53,1.833,5.159c0.768,1.629,1.833,3.417,3.19,5.362
	c1.358,1.948,2.376,3.349,3.055,4.209c0.679,0.86,2.058,2.511,4.141,4.954l3.937,4.48c4.072,4.887,7.239,9.57,9.503,14.05
	c2.261,4.479,3.393,9.617,3.393,15.408c0,0.454,0.022,1.289,0.068,2.512c0.045,1.222,0.068,2.218,0.068,2.985
	c0,0.771-0.068,1.722-0.203,2.852c-0.136,1.133-0.34,2.104-0.611,2.919c-1.992,5.521-5.206,9.007-9.638,10.452
	c-4.073,1.267-8.281,0.68-12.625-1.764c-4.255-2.353-7.466-6.018-9.638-10.996c-2.172-4.977-2.535-10.362-1.086-16.155
	c0.272-1.175,0.995-1.629,2.172-1.357c1.175,0.271,1.629,0.997,1.357,2.172c-1.268,5.07-0.974,9.706,0.883,13.915
	c1.854,4.208,4.547,7.31,8.077,9.3c3.438,1.991,6.697,2.489,9.774,1.492c3.346-1.086,5.746-3.801,7.194-8.145
	c0.361-0.995,0.587-1.922,0.679-2.783c0.088-0.859,0.112-2.193,0.067-4.005c-0.046-1.81-0.067-2.939-0.067-3.394
	c0-5.159-1.042-9.818-3.123-13.983c-2.083-4.161-5.069-8.552-8.96-13.167c-0.363-0.452-1.629-1.901-3.801-4.344
	c-2.172-2.444-3.621-4.162-4.344-5.159l-3.258-4.479c-1.449-2.081-2.602-4.026-3.461-5.838c-0.862-1.809-1.561-3.665-2.104-5.565
	c-1.177-4.344-0.566-8.326,1.833-11.947c2.396-3.619,5.451-5.837,9.163-6.651c4.162-0.814,7.511,0.407,10.046,3.665
	c2.804,3.529,3.891,8.916,3.258,16.155c0,0.542-0.204,0.973-0.611,1.29c-0.407,0.317-0.86,0.454-1.357,0.407
	c-0.498-0.044-0.906-0.271-1.222-0.679C50.762,52.072,50.65,51.644,50.741,51.19z"/>
<path fill="#3C3C3B" stroke="#3C3C3B" stroke-width="2.5" stroke-miterlimit="10" d="M262.57,51.19
	c0.451-6.334-0.408-10.906-2.58-13.712c-1.629-2.081-3.801-2.804-6.516-2.172c-2.715,0.543-4.979,2.172-6.787,4.887
	c-1.813,2.715-2.264,5.702-1.359,8.959c0.453,1.812,1.064,3.53,1.834,5.159c0.768,1.629,1.832,3.417,3.189,5.362
	c1.357,1.948,2.377,3.349,3.055,4.209c0.68,0.86,2.059,2.511,4.141,4.954l3.938,4.48c4.072,4.887,7.238,9.57,9.502,14.05
	c2.262,4.479,3.393,9.617,3.393,15.408c0,0.454,0.023,1.289,0.068,2.512c0.045,1.222,0.068,2.218,0.068,2.985
	c0,0.771-0.068,1.722-0.203,2.852c-0.137,1.133-0.34,2.104-0.611,2.919c-1.992,5.521-5.205,9.007-9.639,10.452
	c-4.072,1.267-8.281,0.68-12.625-1.764c-4.254-2.353-7.467-6.018-9.639-10.996c-2.172-4.977-2.535-10.362-1.086-16.155
	c0.271-1.175,0.996-1.629,2.172-1.357s1.629,0.997,1.357,2.172c-1.268,5.07-0.973,9.706,0.883,13.915
	c1.854,4.208,4.549,7.31,8.078,9.3c3.438,1.991,6.697,2.489,9.773,1.492c3.348-1.086,5.746-3.801,7.195-8.145
	c0.361-0.995,0.588-1.922,0.68-2.783c0.088-0.859,0.111-2.193,0.066-4.005c-0.045-1.81-0.066-2.939-0.066-3.394
	c0-5.159-1.043-9.818-3.123-13.983c-2.084-4.161-5.07-8.552-8.961-13.167c-0.361-0.452-1.629-1.901-3.801-4.344
	c-2.172-2.444-3.621-4.162-4.344-5.159l-3.258-4.479c-1.449-2.081-2.602-4.026-3.461-5.838c-0.863-1.809-1.563-3.665-2.105-5.565
	c-1.176-4.344-0.566-8.326,1.832-11.947c2.398-3.619,5.453-5.837,9.164-6.651c4.162-0.814,7.512,0.407,10.047,3.665
	c2.803,3.529,3.889,8.916,3.258,16.155c0,0.542-0.203,0.973-0.611,1.29c-0.406,0.317-0.861,0.454-1.357,0.407
	c-0.498-0.044-0.906-0.271-1.223-0.679C262.59,52.072,262.479,51.644,262.57,51.19z"/>
<path fill="#3C3C3B" stroke="#3C3C3B" stroke-width="2.5" stroke-miterlimit="10" d="M278.996,31.913
	c3.438,0,8.529-0.089,15.271-0.271c6.74-0.181,11.787-0.271,15.137-0.271c0.543,0,0.971,0.159,1.289,0.475
	c0.316,0.319,0.475,0.747,0.475,1.29s-0.158,0.974-0.475,1.29c-0.318,0.318-0.746,0.476-1.289,0.476
	c-3.35,0-7.875,0.091-13.576,0.272c0.09,1.357,0.045,3.078-0.135,5.159c-0.092,3.258-0.137,5.43-0.137,6.516
	c0.543,9.957,0.994,24.119,1.357,42.49l0.68,34.482c0,0.451-0.16,0.858-0.475,1.221c-0.318,0.361-0.727,0.543-1.223,0.543
	c-0.5,0-0.93-0.158-1.289-0.475c-0.363-0.317-0.543-0.746-0.543-1.289c-0.184-4.525-0.455-15.973-0.814-34.346
	c-0.363-18.372-0.771-32.49-1.223-42.355c-0.092-1.267-0.047-3.575,0.137-6.924c0.088-2.081,0.088-3.71,0-4.887
	c-5.521,0.091-9.912,0.136-13.168,0.136c-0.543,0-0.973-0.158-1.291-0.476c-0.316-0.315-0.475-0.747-0.475-1.29
	s0.158-0.971,0.475-1.289C278.023,32.072,278.453,31.913,278.996,31.913z"/>
<path fill="#3C3C3B" stroke="#3C3C3B" stroke-width="2.5" stroke-miterlimit="10" d="M323.248,122.868
	c-0.363-7.603-0.271-22.309,0.271-44.12c0.451-18.372,0.18-32.942-0.814-43.713c-0.092-0.724,0.18-1.267,0.814-1.629V33.27
	c0-0.452,0.158-0.859,0.477-1.222c0.314-0.361,0.746-0.543,1.289-0.543c0.633-0.089,1.719-0.204,3.258-0.339
	c1.537-0.136,2.668-0.204,3.393-0.204c3.26-0.181,5.748-0.044,7.467,0.408c1.902,0.543,3.803,1.652,5.703,3.325
	c1.9,1.676,3.346,3.508,4.344,5.499c1.174,2.354,1.445,4.526,0.814,6.516c-0.814,2.354-2.762,3.983-5.838,4.887
	c-2.082,0.634-4.799,0.861-8.145,0.678c1.266,2.987,2.668,7.693,4.209,14.119c0.451,1.992,1.129,5.227,2.035,9.706
	c0.904,4.481,1.582,7.49,2.037,9.028c0.359,1.54,2.26,7.559,5.701,18.056c2.443,7.513,4.072,13.711,4.887,18.599
	c0.088,0.454,0,0.882-0.271,1.289s-0.658,0.657-1.154,0.747c-0.498,0.089-0.949,0-1.357-0.271s-0.658-0.679-0.746-1.222
	c-0.727-4.162-2.355-10.183-4.887-18.056c-3.078-9.592-4.979-15.701-5.701-18.327c-0.363-1.538-0.998-4.568-1.902-9.095
	l-2.172-9.639c-1.811-7.69-3.439-12.805-4.887-15.34l-4.887-0.678c0.18,7.15,0.18,16.381,0,27.693
	c-0.363,25.341-0.5,39.912-0.408,43.713c0.09,0.543-0.045,0.997-0.406,1.356c-0.363,0.361-0.793,0.565-1.289,0.611
	c-0.5,0.045-0.93-0.114-1.291-0.475C323.428,123.728,323.248,123.322,323.248,122.868z M326.234,35.035
	c0.361,3.983,0.633,8.145,0.814,12.489c0.543,0.091,1.402,0.228,2.58,0.408c1.176,0.182,2.125,0.271,2.85,0.271
	c0.543-0.18,1.041-0.089,1.494,0.271c4.162,0.363,7.285,0.227,9.367-0.408c1.9-0.543,3.076-1.357,3.529-2.443
	c0.361-1.086,0.137-2.353-0.678-3.801c-0.727-1.538-1.857-2.987-3.395-4.344c-1.539-1.357-3.033-2.216-4.48-2.579
	c-1.268-0.36-3.305-0.452-6.109-0.271c-0.725,0-1.764,0.067-3.121,0.204C327.729,34.966,326.777,35.035,326.234,35.035z"/>
<path fill="#3C3C3B" stroke="#3C3C3B" stroke-width="2.5" stroke-miterlimit="10" d="M437.471,30.827
	c4.797-0.089,8.01-0.136,9.639-0.136s4.797,0.115,9.504,0.339c4.703,0.228,7.873,0.386,9.502,0.475c0.543,0,0.973,0.182,1.289,0.543
	c0.316,0.363,0.477,0.793,0.477,1.29c0,0.499-0.184,0.906-0.543,1.222c-0.363,0.318-0.771,0.475-1.223,0.475
	c-1.811,0-4.639-0.089-8.484-0.271c-3.848-0.181-7.219-0.316-10.113-0.407c-2.898-0.089-5.701-0.089-8.418,0v14.119
	c1.447,0.091,4.346,0.135,8.689,0.135c0.543,0,0.971,0.159,1.289,0.475c0.316,0.318,0.475,0.747,0.475,1.291
	c0,0.543-0.158,0.973-0.475,1.289c-0.318,0.318-0.746,0.475-1.289,0.475c-4.256,0-7.15-0.044-8.689-0.136v69.235
	c1.447,0,3.643-0.022,6.586-0.068c2.939-0.045,5.18-0.112,6.719-0.203c5.973,0,10.996,0.227,15.068,0.678
	c0.543,0,0.973,0.204,1.289,0.611s0.453,0.86,0.408,1.357c-0.047,0.496-0.271,0.904-0.68,1.222c-0.406,0.316-0.838,0.429-1.289,0.34
	c-4.072-0.363-9.006-0.543-14.797-0.543c-1.539,0-3.848,0.021-6.924,0.067c-3.078,0.045-5.342,0.067-6.787,0.067
	c-0.363,0.361-0.814,0.543-1.357,0.543s-0.975-0.158-1.291-0.475c-0.316-0.317-0.475-0.746-0.475-1.289V32.862
	c0-0.543,0.225-0.995,0.68-1.357C436.521,31.053,436.928,30.827,437.471,30.827z"/>
<path fill="#3C3C3B" stroke="#3C3C3B" stroke-width="2.5" stroke-miterlimit="10" d="M375.502,35.035
	c-0.363,9.142-0.635,23.418-0.814,42.83c-0.184,19.413-0.498,34.143-0.951,44.188c0,0.454-0.182,0.86-0.543,1.222
	c-0.361,0.362-0.793,0.521-1.289,0.475c-0.498-0.044-0.93-0.248-1.289-0.61c-0.363-0.36-0.498-0.814-0.408-1.357
	c0.453-9.955,0.768-24.64,0.951-44.053c0.18-19.413,0.451-33.735,0.814-42.966c0-0.452,0.18-0.859,0.543-1.222
	c0.359-0.361,0.791-0.52,1.289-0.475c0.496,0.046,0.928,0.249,1.289,0.61C375.455,34.04,375.59,34.492,375.502,35.035z"/>
<path fill="#3C3C3B" stroke="#3C3C3B" stroke-width="2.5" stroke-miterlimit="10" d="M400.48,47.252l-5.023,3.938
	c-0.092,0-0.182,0.046-0.271,0.135c0,31.767,0.361,56.158,1.086,73.17c0.09,0.543-0.045,0.995-0.406,1.357
	c-0.363,0.361-0.793,0.565-1.289,0.611c-0.5,0.045-0.93-0.114-1.291-0.475c-0.363-0.363-0.543-0.771-0.543-1.223
	c-0.271-5.79-0.498-11.606-0.678-17.443c-0.184-5.837-0.295-12.511-0.34-20.024c-0.047-7.511-0.092-13.076-0.137-16.697
	c-0.047-3.619-0.047-10.294,0-20.024c0.045-9.728,0.068-15.544,0.068-17.445c0-0.543,0.156-0.971,0.475-1.29
	c0.316-0.315,0.748-0.475,1.291-0.475s0.971,0.159,1.289,0.475c0.316,0.319,0.475,0.747,0.475,1.29v13.576
	c1.266-0.904,3.123-2.353,5.566-4.344l6.381-5.159c1.9-1.447,3.754-2.804,5.566-4.073c0.994-0.723,1.854-0.587,2.578,0.408
	c0.723,0.997,0.588,1.855-0.406,2.579c-2.807,1.9-6.652,4.843-11.541,8.824c0.361,0.543,0.68,1.177,0.951,1.901
	c0.543,1.449,1.131,3.44,1.766,5.972l1.221,6.245c0.361,2.355,0.633,3.801,0.814,4.344c1.086,4.255,4.027,13.938,8.824,29.052
	c3.982,12.489,6.652,22.219,8.01,29.187c0.088,0.543,0,1.019-0.271,1.426s-0.658,0.657-1.154,0.747
	c-0.498,0.089-0.951,0-1.357-0.271c-0.408-0.271-0.658-0.633-0.746-1.087c-1.449-7.059-4.072-16.697-7.873-28.915
	c-4.707-14.39-7.693-24.165-8.961-29.323c-0.182-0.543-0.453-2.036-0.814-4.479c-0.543-2.624-0.951-4.66-1.223-6.109
	c-0.543-2.352-1.086-4.161-1.629-5.429C400.797,47.842,400.66,47.524,400.48,47.252z"/>
<g>
	<path fill="#FFFFFF" d="M154.945,126.989c-2.236,0-3.948-1.019-4.821-2.869l-0.784-1.709c-0.701-1.484-0.427-2.644-0.071-3.351
		c0.616-1.225,1.884-2.015,3.877-2.415c0.658-0.132,1.283-0.199,1.859-0.199c2.237,0,3.949,1.018,4.822,2.866l0.785,1.708
		c0.702,1.491,0.425,2.651,0.069,3.358c-0.616,1.224-1.883,2.013-3.874,2.411C156.147,126.922,155.521,126.989,154.945,126.989z
		 M152.123,105.079c-0.142,0-0.286-0.004-0.433-0.013c-1.313-0.078-2.481-0.447-3.473-1.099c-1.327-0.855-1.957-2.199-1.713-3.63
		c0.004-1.69,0.05-4.689,0.134-8.703c0.083-4.358,0.303-8.312,0.656-11.745c0.355-3.502,0.993-6.763,1.893-9.692
		c0.588-1.919,1.616-3.845,3.054-5.722c1.324-1.729,3.022-3.711,5.048-5.893c2.403-2.594,3.3-3.65,3.63-4.08
		c3.626-4.436,4.161-8.225,1.721-11.972c-1.096-1.607-3.062-2.936-5.819-3.911c-2.436-0.855-4.987-1.29-7.577-1.29
		c-0.521,0-1.045,0.017-1.572,0.051c-3.232,0.215-6.291,0.879-9.089,1.975c-2.593,1.014-4.453,2.569-5.687,4.753
		c-1.174,2.071-1.25,4.5-0.235,7.429c0.525,1.485,0.163,2.588-0.234,3.25c-0.7,1.167-2.009,1.879-4.001,2.179
		c-0.521,0.079-1.019,0.118-1.48,0.118c-3.31,0-4.506-1.981-4.925-3.162c-1.753-4.966-1.484-9.522,0.798-13.544
		c2.215-3.901,5.666-6.767,10.255-8.518c4.3-1.636,8.978-2.674,13.904-3.087c1.001-0.083,2.007-0.125,2.994-0.125
		c3.968,0,7.872,0.678,11.603,2.016c4.813,1.723,8.428,4.384,10.747,7.911c3.098,4.48,5.255,11.749-2.214,20.709
		c-0.856,1.123-2.214,2.67-4.097,4.663c-1.756,1.855-3.139,3.466-4.111,4.788c-0.913,1.243-1.602,2.512-2.046,3.772
		c-0.8,2.497-1.381,5.289-1.708,8.241c-0.337,3.016-0.508,6.634-0.508,10.758c0,4.296-0.085,7.4-0.261,9.486
		c-0.027,0.895-0.405,2.131-1.977,3.15C154.45,104.762,153.346,105.079,152.123,105.079z"/>
	<path fill="#FFFFFF" d="M149.972,30.72c3.745,0,7.382,0.631,10.905,1.894c4.404,1.577,7.641,3.944,9.715,7.099
		c3.97,5.742,3.276,11.828-2.075,18.246c-0.865,1.131-2.201,2.651-4.012,4.566c-1.816,1.918-3.24,3.577-4.274,4.985
		c-1.037,1.411-1.814,2.845-2.33,4.309c-0.867,2.703-1.471,5.606-1.813,8.702c-0.347,3.101-0.521,6.761-0.521,10.985
		c0,4.226-0.085,7.353-0.26,9.379c0,0.567-0.346,1.074-1.035,1.521c-0.613,0.4-1.333,0.604-2.149,0.604
		c-0.102,0-0.204-0.004-0.309-0.01c-0.954-0.057-1.774-0.312-2.461-0.763c-0.692-0.446-0.951-1.014-0.779-1.689
		c0-1.576,0.043-4.534,0.134-8.869c0.082-4.337,0.298-8.2,0.645-11.578c0.344-3.383,0.947-6.48,1.813-9.294
		c0.518-1.689,1.425-3.382,2.719-5.072c1.294-1.689,2.935-3.603,4.922-5.743c1.982-2.14,3.235-3.551,3.754-4.226
		c4.145-5.068,4.748-9.858,1.815-14.363c-1.383-2.03-3.67-3.604-6.863-4.733c-2.668-0.937-5.423-1.408-8.267-1.408
		c-0.565,0-1.134,0.019-1.707,0.056c-3.455,0.229-6.692,0.932-9.709,2.113c-3.024,1.183-5.271,3.071-6.734,5.662
		c-1.471,2.594-1.599,5.635-0.389,9.125c0.518,1.464-0.347,2.367-2.588,2.704c-0.421,0.063-0.812,0.095-1.172,0.095
		c-1.563,0-2.553-0.595-2.975-1.784c-1.552-4.396-1.333-8.338,0.648-11.83c1.982-3.49,5.052-6.025,9.193-7.605
		c4.144-1.576,8.589-2.56,13.338-2.958C148.098,30.759,149.038,30.72,149.972,30.72 M155.005,118.516c1.437,0,2.421,0.56,2.95,1.68
		l0.776,1.688c0.69,1.469-0.09,2.427-2.331,2.876c-0.528,0.105-1.013,0.159-1.455,0.159c-1.438,0-2.419-0.561-2.949-1.683
		l-0.775-1.689c-0.69-1.462,0.085-2.422,2.332-2.873C154.08,118.569,154.564,118.516,155.005,118.516 M149.972,26.58
		c-1.043,0-2.107,0.044-3.163,0.132c-5.123,0.429-9.989,1.511-14.468,3.214c-5.055,1.929-8.862,5.102-11.321,9.43
		c-2.592,4.568-2.912,9.699-0.952,15.253c1.011,2.849,3.582,4.546,6.879,4.546c0.564,0,1.165-0.047,1.788-0.141
		c2.605-0.393,4.445-1.456,5.469-3.161c0.885-1.475,1.03-3.257,0.406-5.018c-0.8-2.309-0.774-4.182,0.088-5.702
		c0.993-1.758,2.51-3.015,4.641-3.848c2.602-1.02,5.453-1.638,8.476-1.838c0.475-0.031,0.959-0.047,1.433-0.047
		c2.355,0,4.676,0.396,6.896,1.174c2.303,0.815,3.918,1.868,4.791,3.125c1.345,2.084,2.19,4.839-1.576,9.443l-0.04,0.048
		l-0.038,0.05c-0.248,0.323-1.034,1.264-3.509,3.936c-2.067,2.227-3.808,4.259-5.171,6.039c-1.588,2.075-2.729,4.22-3.39,6.376
		c-0.939,3.055-1.604,6.451-1.974,10.089c-0.357,3.487-0.582,7.498-0.665,11.919c-0.082,3.896-0.128,6.847-0.135,8.576
		c-0.299,2.179,0.688,4.258,2.675,5.54c1.271,0.834,2.78,1.316,4.46,1.416c0.186,0.011,0.371,0.017,0.554,0.017
		c1.632,0,3.117-0.43,4.414-1.277c2.367-1.534,2.852-3.549,2.905-4.75c0.178-2.144,0.265-5.291,0.265-9.615
		c0-4.047,0.167-7.589,0.495-10.525c0.31-2.797,0.855-5.432,1.623-7.838c0.377-1.051,0.963-2.121,1.743-3.182
		c0.921-1.253,2.249-2.798,3.945-4.59c1.899-2.009,3.287-3.588,4.24-4.828c8.215-9.903,5.783-18.044,2.271-23.146
		c-2.571-3.89-6.525-6.81-11.752-8.682C158.317,27.298,154.178,26.58,149.972,26.58L149.972,26.58z M155.005,114.375
		c-0.712,0-1.474,0.081-2.265,0.239c-2.623,0.527-4.413,1.71-5.32,3.516c-0.46,0.916-1.064,2.807,0.059,5.185l0.755,1.647
		c1.235,2.618,3.674,4.097,6.712,4.097c0.712,0,1.476-0.08,2.269-0.239c2.619-0.525,4.407-1.706,5.315-3.51
		c0.461-0.915,1.068-2.806-0.052-5.188l-0.761-1.655C160.482,115.853,158.042,114.375,155.005,114.375L155.005,114.375z"/>
</g>
</svg>
