<?xml version="1.0" encoding="utf-8"?>
<!-- Generator: Adobe Illustrator 16.0.3, SVG Export Plug-In . SVG Version: 6.00 Build 0)  -->
<!DOCTYPE svg PUBLIC "-//W3C//DTD SVG 1.1//EN" "http://www.w3.org/Graphics/SVG/1.1/DTD/svg11.dtd">
<svg version="1.1" id="Ebene_1" xmlns="http://www.w3.org/2000/svg" xmlns:xlink="http://www.w3.org/1999/xlink" x="0px" y="0px"
	 width="697.465px" height="155.992px" viewBox="0 0 697.465 155.992" enable-background="new 0 0 697.465 155.992"
	 xml:space="preserve">
<path fill="#383330" stroke="#3C3C3B" stroke-width="2.4295" stroke-miterlimit="10" d="M64.416,51.612
	c-3.034-7.919-6.932-13.331-11.686-16.228c-4.514-2.704-10.459-3.573-17.84-2.609c-7.464,1.066-13.328,4.735-17.592,11.013
	c-3.117,4.734-5.413,10.192-6.89,16.373c-1.476,6.182-2.194,12.269-2.152,18.256c0.04,5.99,0.634,12.171,1.783,18.545
	c0.165,0.871,0.369,1.764,0.615,2.682c0.247,0.919,0.472,1.691,0.678,2.318c0.204,0.629,0.553,1.473,1.045,2.535
	s0.841,1.789,1.045,2.174c0.204,0.387,0.615,1.23,1.231,2.534c0.615,1.306,1.004,2.103,1.168,2.392
	c3.033,5.989,6.848,10.214,11.441,12.678c4.591,2.464,9.35,3.166,14.27,2.102c4.922-1.063,9.391-3.67,13.409-7.824
	c4.019-4.152,6.89-9.419,8.612-15.793c0.572-2.125,1.107-6.231,1.6-12.315c0-0.579,0.184-1.038,0.555-1.378
	c0.368-0.336,0.776-0.48,1.229-0.434c0.449,0.049,0.818,0.289,1.107,0.724c0.286,0.437,0.389,0.895,0.308,1.378
	c-0.411,6.373-0.943,10.771-1.599,13.184c-1.969,7.052-5.188,12.873-9.658,17.459c-4.471,4.59-9.453,7.511-14.947,8.768
	c-5.577,1.158-10.992,0.361-16.238-2.392c-5.249-2.753-9.515-7.462-12.794-14.128c-0.165-0.385-0.575-1.205-1.23-2.463
	c-0.657-1.254-1.067-2.123-1.23-2.607l-1.23-2.317c-0.491-1.16-0.86-2.102-1.105-2.826c-0.246-0.724-0.515-1.593-0.8-2.608
	c-0.289-1.014-0.514-2.004-0.678-2.969C5.693,91.072,5.078,84.6,4.997,78.417c-0.083-6.278,0.675-12.75,2.275-19.416
	c1.6-6.666,4.121-12.509,7.567-17.531c4.754-7.148,11.273-11.302,19.559-12.462c8.119-1.159,14.763-0.145,19.929,3.042
	c5.331,3.286,9.677,9.226,13.042,17.824c0.491,1.254,0.225,2.149-0.8,2.679C65.543,53.086,64.825,52.77,64.416,51.612z"/>
<path fill="#383330" stroke="#3C3C3B" stroke-width="2.4708" stroke-miterlimit="10" d="M85.82,36.39l-6.52,15.735l-1.107,2.396
	l-0.123,0.15c0,0.102-0.021,0.177-0.061,0.227c-0.042,0.05-0.063,0.125-0.063,0.224c-0.165,0.202-0.369,0.351-0.615,0.45
	c-0.658,0.399-1.273,0.299-1.845-0.3c-0.329-0.399-0.492-0.9-0.492-1.5c0-0.098,0.04-0.248,0.123-0.45v-0.299
	c0.081-0.098,0.204-0.35,0.369-0.75l5.288-13.038c0.082-0.2,0.204-0.397,0.369-0.599l1.723-4.046c0.492-1.201,1.23-1.5,2.215-0.9
	C86.066,34.292,86.313,35.191,85.82,36.39z"/>
<path fill="#383330" stroke="#3C3C3B" stroke-width="2.4295" stroke-miterlimit="10" d="M102.299,28.863
	c2.625,0,5.353,0.098,8.182,0.292c2.83,0.193,6.029,0.458,9.596,0.796c3.568,0.341,6.292,0.604,8.181,0.796
	c0.411,0,0.78,0.195,1.107,0.58c0.327,0.388,0.472,0.847,0.43,1.375c-0.042,0.533-0.226,0.994-0.553,1.377
	c-0.327,0.387-0.738,0.531-1.23,0.435c-1.804-0.094-4.471-0.312-7.995-0.651c-3.527-0.338-6.705-0.628-9.535-0.871
	c-2.829-0.24-5.518-0.362-8.059-0.362c-0.165,4.928-0.288,9.903-0.369,14.925c1.313,0.098,3.938,0.144,7.875,0.144
	c0.492,0,0.879,0.171,1.168,0.507c0.287,0.339,0.431,0.796,0.431,1.377c0,0.58-0.144,1.038-0.431,1.375
	c-0.289,0.341-0.676,0.508-1.168,0.508c-3.938,0-6.604-0.049-7.998-0.146c-0.327,22.7-0.164,47.38,0.492,74.039
	c1.313,0,3.362-0.047,6.152-0.145c2.787-0.095,4.922-0.145,6.396-0.145c5.576,0,10.334,0.242,14.271,0.724
	c0.492,0,0.882,0.22,1.17,0.653c0.284,0.436,0.407,0.92,0.368,1.449c-0.041,0.529-0.245,0.964-0.616,1.303
	c-0.369,0.338-0.759,0.457-1.168,0.361c-3.854-0.385-8.53-0.578-14.024-0.578c-1.475,0-3.711,0.022-6.705,0.072
	c-2.994,0.049-5.27,0.072-6.826,0.072c-0.166,0.095-0.369,0.145-0.615,0.145c-0.492,0-0.904-0.193-1.23-0.578
	c-0.33-0.387-0.492-0.869-0.492-1.449c0-0.193,0.039-0.435,0.123-0.725c-0.904-35.158-0.904-67.133,0-95.917
	c0-0.58,0.162-1.037,0.492-1.376c0.326-0.338,0.695-0.508,1.107-0.508c0.326,0,0.615,0.098,0.861,0.29
	C101.849,28.914,102.053,28.863,102.299,28.863z M108.574,11.042c2.049,2.126,4.592,5.024,7.626,8.693
	c0.739,0.87,0.718,1.764-0.062,2.681c-0.779,0.919-1.58,0.895-2.398-0.073c-2.951-3.573-5.412-6.375-7.38-8.403
	c-0.821-0.869-0.862-1.786-0.123-2.753C106.975,10.224,107.753,10.174,108.574,11.042z"/>
<path fill="#383330" stroke="#3C3C3B" stroke-width="2.3231" stroke-miterlimit="10" d="M335.863,52.242
	c0.383-6.6-0.345-11.363-2.189-14.287c-1.382-2.167-3.225-2.921-5.529-2.262c-2.305,0.566-4.227,2.262-5.762,5.092
	c-1.537,2.829-1.92,5.94-1.152,9.335c0.384,1.888,0.901,3.677,1.557,5.375c0.65,1.697,1.555,3.56,2.707,5.586
	c1.152,2.028,2.017,3.489,2.593,4.385c0.577,0.897,1.746,2.617,3.515,5.162l3.34,4.669c3.459,5.092,6.145,9.971,8.066,14.638
	c1.919,4.669,2.879,10.021,2.879,16.054c0,0.473,0.019,1.346,0.059,2.617c0.039,1.273,0.059,2.313,0.059,3.112
	c0,0.803-0.059,1.792-0.174,2.97c-0.115,1.181-0.287,2.192-0.518,3.041c-1.691,5.752-4.419,9.385-8.182,10.892
	c-3.457,1.319-7.027,0.706-10.715-1.839c-3.611-2.45-6.338-6.27-8.182-11.456c-1.843-5.187-2.15-10.796-0.921-16.832
	c0.229-1.226,0.845-1.698,1.844-1.415c0.997,0.283,1.382,1.039,1.151,2.264c-1.076,5.281-0.826,10.112,0.748,14.496
	c1.574,4.387,3.863,7.616,6.857,9.69c2.918,2.075,5.684,2.594,8.295,1.556c2.842-1.132,4.877-3.961,6.106-8.487
	c0.308-1.036,0.499-2.001,0.577-2.899c0.074-0.895,0.097-2.285,0.057-4.173c-0.039-1.885-0.057-3.063-0.057-3.536
	c0-5.374-0.884-10.23-2.65-14.567c-1.768-4.335-4.303-8.912-7.604-13.721c-0.309-0.469-1.384-1.979-3.226-4.526
	c-1.844-2.546-3.074-4.336-3.688-5.374l-2.765-4.668c-1.23-2.169-2.209-4.196-2.938-6.083c-0.731-1.885-1.324-3.819-1.787-5.798
	c-0.998-4.527-0.48-8.675,1.557-12.448c2.035-3.771,4.626-6.081,7.777-6.929c3.532-0.85,6.374,0.423,8.525,3.818
	c2.381,3.677,3.302,9.288,2.766,16.832c0,0.566-0.173,1.015-0.52,1.343c-0.344,0.331-0.729,0.472-1.151,0.424
	c-0.423-0.045-0.767-0.283-1.036-0.708C335.882,53.161,335.787,52.715,335.863,52.242z"/>
<path fill="#383330" stroke="#3C3C3B" stroke-width="2.3231" stroke-miterlimit="10" d="M412.564,53.374
	c-2.842-7.731-6.492-13.013-10.945-15.842c-4.226-2.64-9.794-3.487-16.707-2.547c-6.991,1.04-12.483,4.622-16.478,10.75
	c-2.919,4.622-5.069,9.95-6.452,15.983c-1.381,6.036-2.056,11.977-2.016,17.822c0.037,5.847,0.594,11.881,1.67,18.104
	c0.153,0.85,0.346,1.722,0.576,2.617c0.232,0.897,0.441,1.651,0.635,2.264c0.191,0.614,0.518,1.437,0.979,2.475
	s0.787,1.747,0.979,2.122c0.19,0.377,0.576,1.201,1.154,2.475c0.576,1.273,0.939,2.051,1.094,2.334
	c2.842,5.848,6.414,9.971,10.716,12.376c4.301,2.405,8.756,3.09,13.364,2.052c4.611-1.037,8.795-3.584,12.559-7.638
	s6.453-9.195,8.066-15.418c0.536-2.073,1.037-6.083,1.498-12.022c0-0.565,0.173-1.013,0.52-1.345
	c0.346-0.327,0.729-0.47,1.152-0.424c0.42,0.048,0.766,0.282,1.036,0.707c0.269,0.426,0.363,0.873,0.287,1.345
	c-0.384,6.223-0.883,10.514-1.497,12.871c-1.844,6.883-4.859,12.565-9.045,17.043c-4.188,4.48-8.854,7.332-13.998,8.559
	c-5.226,1.131-10.295,0.354-15.21-2.334c-4.917-2.688-8.913-7.285-11.983-13.791c-0.154-0.377-0.537-1.178-1.152-2.405
	c-0.614-1.225-0.998-2.073-1.152-2.546l-1.152-2.262c-0.459-1.133-0.805-2.053-1.035-2.759c-0.23-0.707-0.482-1.556-0.75-2.547
	c-0.27-0.989-0.48-1.956-0.634-2.898c-1.077-6.6-1.653-12.917-1.729-18.954c-0.076-6.128,0.635-12.446,2.133-18.953
	c1.498-6.507,3.86-12.211,7.088-17.114c4.451-6.979,10.559-11.033,18.318-12.166c7.604-1.131,13.826-0.141,18.665,2.97
	c4.993,3.208,9.063,9.006,12.214,17.399c0.461,1.225,0.213,2.099-0.748,2.616C413.621,54.812,412.949,54.504,412.564,53.374z"/>
<path fill="#383330" stroke="#3C3C3B" stroke-width="2.3231" stroke-miterlimit="10" d="M436.335,35.411
	c-0.307,9.525-0.538,24.399-0.69,44.625c-0.154,20.226-0.424,35.573-0.806,46.04c0,0.474-0.154,0.896-0.464,1.273
	c-0.305,0.377-0.672,0.543-1.092,0.494c-0.424-0.047-0.789-0.26-1.095-0.637c-0.308-0.375-0.423-0.848-0.346-1.415
	c0.383-10.372,0.651-25.671,0.806-45.897c0.152-20.226,0.383-35.148,0.692-44.768c0-0.469,0.153-0.894,0.46-1.273
	c0.307-0.375,0.672-0.542,1.096-0.494c0.421,0.049,0.785,0.261,1.094,0.636C436.296,34.374,436.411,34.844,436.335,35.411z"/>
<path fill="#383330" stroke="#3C3C3B" stroke-width="2.3231" stroke-miterlimit="10" d="M476.741,33.713
	c4.148-0.376,7.181-0.376,9.103,0c1.767,0.282,4.033,1.555,6.797,3.819l2.074,1.555c0.998,0.662,1.785,1.252,2.362,1.769
	c0.577,0.518,1.267,1.202,2.075,2.05c0.807,0.85,1.477,1.698,2.016,2.546c2.994,5.091,5.128,11.364,6.394,18.812
	c1.269,7.45,1.595,14.947,0.98,22.49c-0.692,7.92-2.421,15.11-5.186,21.568c-2.765,6.46-6.567,11.294-11.406,14.5
	c-0.231,0.093-0.864,0.518-1.901,1.271c-1.037,0.756-1.787,1.272-2.246,1.556l-2.189,1.132c-0.924,0.566-1.808,0.968-2.65,1.202
	c-0.846,0.233-1.69,0.4-2.535,0.495c-9.832,0.941-17.168-1.461-22.006-7.214c-5.607-6.599-8.949-16.69-10.024-30.269
	c-0.921-12.352,0.153-23.196,3.226-32.532c1.843-5.563,4.74-10.629,8.699-15.204c3.955-4.573,8.238-7.709,12.847-9.408
	C474.091,33.571,475.282,33.526,476.741,33.713z M480.197,37.955c-0.385,0-0.961-0.045-1.729-0.141
	c-1.076-0.187-1.652-0.283-1.728-0.283l-0.116-0.142l-1.383,0.142c-0.307,0-0.576-0.046-0.805-0.142
	c-0.155,0-0.271,0.049-0.347,0.142c-4.226,1.509-8.143,4.339-11.753,8.486c-3.611,4.15-6.262,8.769-7.949,13.863
	c-2.844,8.769-3.803,19.047-2.881,30.834c0.997,12.541,3.992,21.781,8.987,27.723c4.223,4.999,10.79,7.119,19.702,6.364
	c0.692-0.094,1.362-0.234,2.016-0.424c0.652-0.188,1.363-0.518,2.133-0.99l1.842-1.131c0.462-0.188,1.23-0.66,2.305-1.416
	c1.075-0.754,1.766-1.224,2.074-1.413c4.225-2.83,7.605-7.166,10.141-13.013c2.534-5.941,4.109-12.635,4.725-20.086
	c0.612-7.164,0.345-14.236-0.809-21.216c-1.227-6.977-3.226-12.777-5.99-17.396c-0.537-0.942-1.135-1.744-1.786-2.406
	c-0.653-0.658-1.729-1.531-3.226-2.616c-1.5-1.083-2.363-1.768-2.594-2.051c-2.459-1.885-4.34-2.971-5.646-3.253
	c-0.999-0.188-2.267-0.234-3.802-0.142C481.272,37.814,480.812,38.052,480.197,37.955z"/>
<path fill="#383330" stroke="#3C3C3B" stroke-width="2.3231" stroke-miterlimit="10" d="M522.102,31.733
	c0.538-0.095,1.459-0.212,2.767-0.355c1.304-0.142,2.265-0.212,2.88-0.212c2.766-0.187,4.877-0.046,6.338,0.425
	c1.613,0.565,3.242,1.72,4.896,3.464c1.65,1.748,2.898,3.656,3.745,5.729c1.075,2.452,1.304,4.716,0.689,6.79
	c-0.614,2.453-2.265,4.151-4.954,5.091c-2.689,0.944-7.566,0.849-14.632-0.282c0.152,7.355,0.152,16.926,0,28.712
	c-0.307,26.403-0.423,41.584-0.347,45.545c0.076,0.564-0.039,1.039-0.346,1.413c-0.308,0.376-0.672,0.588-1.094,0.637
	c-0.423,0.048-0.789-0.12-1.096-0.495s-0.459-0.8-0.459-1.271c-0.311-7.922-0.23-23.244,0.23-45.97
	c0.384-19.141,0.153-34.322-0.691-45.544c-0.079-0.66,0.113-1.178,0.574-1.557v-0.282c0-0.472,0.134-0.896,0.404-1.273
	C521.275,31.923,521.641,31.733,522.102,31.733z M523.023,35.411c0.307,4.151,0.537,8.535,0.691,13.153
	c0.307,0,0.979,0.095,2.018,0.283c1.037,0.19,1.765,0.306,2.189,0.354c0.421,0.049,1.094,0.119,2.016,0.212
	c0.921,0.096,1.632,0.166,2.133,0.211c0.497,0.049,1.111,0.049,1.843,0c0.728-0.045,1.401-0.116,2.016-0.211
	c0.614-0.093,1.151-0.234,1.613-0.425c1.688-0.565,2.688-1.414,2.995-2.546c0.307-1.036,0.115-2.354-0.576-3.96
	c-0.689-1.603-1.689-3.111-2.996-4.527c-1.307-1.413-2.574-2.308-3.8-2.687c-1.078-0.376-2.808-0.517-5.188-0.424
	c-0.614,0.096-1.479,0.212-2.591,0.353C524.272,35.339,523.484,35.411,523.023,35.411z"/>
<path fill="#383330" stroke="#3C3C3B" stroke-width="2.3231" stroke-miterlimit="10" d="M555.936,31.025
	c4.071-0.093,6.798-0.142,8.178-0.142c1.385,0,4.072,0.12,8.068,0.354c3.992,0.237,6.682,0.402,8.064,0.497
	c0.462,0,0.824,0.19,1.096,0.565c0.267,0.377,0.402,0.827,0.402,1.344c0,0.52-0.156,0.944-0.461,1.271
	c-0.309,0.332-0.653,0.497-1.037,0.497c-1.537,0-3.937-0.094-7.2-0.284c-3.267-0.187-6.128-0.328-8.583-0.424
	c-2.461-0.093-4.842-0.093-7.146,0v14.71c1.228,0.096,3.687,0.141,7.375,0.141c0.46,0,0.823,0.167,1.095,0.495
	c0.268,0.332,0.402,0.778,0.402,1.345c0,0.565-0.135,1.013-0.402,1.343c-0.271,0.332-0.635,0.495-1.095,0.495
	c-3.612,0-6.071-0.048-7.375-0.141v72.135c1.228,0,3.093-0.021,5.587-0.07c2.497-0.046,4.397-0.116,5.705-0.213
	c5.068,0,9.333,0.238,12.789,0.708c0.461,0,0.824,0.212,1.094,0.638c0.271,0.424,0.385,0.896,0.346,1.414
	c-0.04,0.516-0.23,0.94-0.576,1.271c-0.344,0.33-0.711,0.447-1.095,0.354c-3.456-0.377-7.644-0.564-12.558-0.564
	c-1.308,0-3.266,0.021-5.876,0.069c-2.612,0.048-4.532,0.071-5.761,0.071c-0.307,0.375-0.691,0.566-1.152,0.566
	s-0.828-0.166-1.096-0.496c-0.271-0.331-0.402-0.777-0.402-1.343V33.147c0-0.565,0.189-1.037,0.576-1.414
	C555.129,31.262,555.475,31.025,555.936,31.025z"/>
<path fill="#383330" stroke="#3C3C3B" stroke-width="2.3231" stroke-miterlimit="10" d="M594.57,126.925
	c-0.309-7.922-0.229-23.244,0.23-45.97c0.385-19.141,0.154-34.322-0.69-45.544c-0.079-0.753,0.151-1.32,0.69-1.698v-0.142
	c0-0.472,0.134-0.896,0.402-1.273c0.27-0.375,0.635-0.565,1.096-0.565c0.537-0.095,1.459-0.212,2.766-0.355
	c1.303-0.142,2.264-0.212,2.88-0.212c2.766-0.187,4.878-0.046,6.337,0.425c1.613,0.565,3.228,1.72,4.841,3.464
	c1.611,1.748,2.841,3.656,3.685,5.729c1,2.452,1.229,4.716,0.692,6.79c-0.692,2.453-2.343,4.151-4.954,5.091
	c-1.769,0.662-4.072,0.897-6.914,0.708c1.076,3.112,2.266,8.016,3.573,14.71c0.384,2.075,0.959,5.444,1.728,10.112
	c0.768,4.668,1.344,7.804,1.729,9.407c0.307,1.604,1.919,7.873,4.839,18.812c2.075,7.826,3.458,14.284,4.147,19.376
	c0.077,0.475,0,0.921-0.23,1.345c-0.23,0.425-0.558,0.686-0.979,0.778c-0.422,0.093-0.807,0-1.151-0.283
	c-0.347-0.282-0.559-0.706-0.634-1.272c-0.617-4.337-2-10.609-4.149-18.813c-2.611-9.994-4.225-16.357-4.839-19.094
	c-0.308-1.604-0.845-4.761-1.613-9.477l-1.843-10.043c-1.537-8.014-2.92-13.342-4.148-15.983l-4.146-0.707
	c0.152,7.449,0.152,17.068,0,28.854c-0.31,26.403-0.423,41.584-0.347,45.545c0.076,0.564-0.039,1.039-0.346,1.413
	c-0.309,0.376-0.672,0.588-1.094,0.637c-0.423,0.048-0.79-0.12-1.096-0.495C594.725,127.821,594.57,127.396,594.57,126.925z
	 M597.105,35.411c0.307,4.151,0.537,8.487,0.691,13.013c0.461,0.094,1.191,0.235,2.189,0.424c0.997,0.19,1.803,0.283,2.419,0.283
	c0.462-0.188,0.883-0.093,1.268,0.283c3.532,0.378,6.183,0.237,7.95-0.425c1.614-0.565,2.611-1.414,2.995-2.546
	c0.306-1.131,0.115-2.45-0.575-3.96c-0.615-1.603-1.574-3.111-2.881-4.527c-1.307-1.413-2.576-2.308-3.802-2.687
	c-1.076-0.376-2.806-0.469-5.186-0.283c-0.616,0-1.497,0.071-2.649,0.212C598.373,35.339,597.566,35.411,597.105,35.411z"/>
<path fill="#383330" stroke="#3C3C3B" stroke-width="2.3231" stroke-miterlimit="10" d="M662.054,33.713
	c4.146-0.376,7.181-0.376,9.103,0c1.767,0.282,4.031,1.555,6.797,3.819l2.073,1.555c0.999,0.662,1.788,1.252,2.363,1.769
	c0.575,0.518,1.266,1.202,2.073,2.05c0.807,0.85,1.479,1.698,2.016,2.546c2.997,5.091,5.128,11.364,6.396,18.812
	c1.268,7.45,1.592,14.947,0.98,22.49c-0.693,7.92-2.42,15.11-5.186,21.568c-2.766,6.46-6.568,11.294-11.408,14.5
	c-0.23,0.093-0.864,0.518-1.901,1.271c-1.036,0.756-1.786,1.272-2.247,1.556l-2.189,1.132c-0.92,0.566-1.805,0.968-2.648,1.202
	c-0.847,0.233-1.691,0.4-2.535,0.495c-9.834,0.941-17.169-1.461-22.008-7.214c-5.607-6.599-8.948-16.69-10.023-30.269
	c-0.922-12.352,0.154-23.196,3.227-32.532c1.842-5.563,4.74-10.629,8.699-15.204c3.955-4.573,8.237-7.709,12.848-9.408
	C659.402,33.571,660.593,33.526,662.054,33.713z M665.51,37.955c-0.385,0-0.961-0.045-1.729-0.141
	c-1.075-0.187-1.652-0.283-1.727-0.283l-0.116-0.142l-1.382,0.142c-0.308,0-0.577-0.046-0.809-0.142
	c-0.154,0-0.27,0.049-0.345,0.142c-4.225,1.509-8.143,4.339-11.752,8.486c-3.611,4.15-6.262,8.769-7.951,13.863
	c-2.844,8.769-3.8,19.047-2.879,30.834c0.996,12.541,3.992,21.781,8.986,27.723c4.224,4.999,10.792,7.119,19.703,6.364
	c0.69-0.094,1.363-0.234,2.016-0.424c0.653-0.188,1.363-0.518,2.133-0.99l1.844-1.131c0.46-0.188,1.227-0.66,2.303-1.416
	c1.075-0.754,1.766-1.224,2.075-1.413c4.222-2.83,7.604-7.166,10.14-13.013c2.533-5.941,4.107-12.635,4.724-20.086
	c0.613-7.164,0.346-14.236-0.807-21.216c-1.229-6.977-3.227-12.777-5.991-17.396c-0.539-0.942-1.135-1.744-1.786-2.406
	c-0.653-0.658-1.729-1.531-3.228-2.616c-1.498-1.083-2.361-1.768-2.59-2.051c-2.461-1.885-4.343-2.971-5.648-3.253
	c-0.998-0.188-2.266-0.234-3.803-0.142C666.584,37.814,666.123,38.052,665.51,37.955z"/>
<path fill="#A6C613" stroke="#A6C613" stroke-width="2.169" stroke-miterlimit="10" d="M296.611,83.176
	c0.061-1.225,0.093-2.457,0.093-3.695c0-25.908-14.434-50.311-37.125-62.811c-11.576-6.375-23.021-10.021-35.583-9.773
	c-11.666,0.229-16.98-1.16-29.357,4.061c-9.899,4.174-15.665,10.527-20.842,18.443c-6.307,6.467-11.292,14.072-14.764,22.32
	c-3.5,5.447-5.926,11.271-5.42,20.244c0.02,0.357,0.058,0.709,0.083,1.064c-0.195,2.139-0.313,4.291-0.313,6.451
	c0,15.776,5.109,30.352,13.749,42.19l-0.777-0.525c-3.104,5.008-4.646,10.627-7.698,15.627c-1.917,3.143-3.338,5.533-4.135,9.139
	c9.354-1.949,18.651-5.475,27.633-9.016c10.175,7.607,22.438,12.576,35.778,13.889c5.241,1.098,10.587,1.324,15.78,0.244
	c1.113-0.234,2.262-0.549,3.437-0.93c14.075-2.393,26.749-8.887,36.754-18.215c4.669-2.857,8.892-6.238,12.515-11.025
	C295.396,108.995,297.853,96.187,296.611,83.176z"/>
<g>
	<path fill="#FFFFFF" d="M227.854,131.63c-2.372,0-4.188-1.081-5.113-3.043l-0.833-1.814c-0.744-1.575-0.452-2.805-0.075-3.556
		c0.653-1.3,1.999-2.138,4.114-2.563c0.698-0.141,1.361-0.211,1.972-0.211c2.374,0,4.191,1.08,5.116,3.042l0.833,1.812
		c0.744,1.583,0.451,2.813,0.073,3.563c-0.654,1.298-1.999,2.135-4.11,2.558C229.131,131.559,228.465,131.63,227.854,131.63z
		 M224.855,108.383c-0.148,0-0.298-0.005-0.451-0.014c-1.395-0.083-2.635-0.476-3.688-1.166c-1.408-0.906-2.077-2.331-1.819-3.851
		c0.004-1.785,0.053-4.967,0.143-9.235c0.087-4.625,0.321-8.819,0.695-12.464c0.377-3.714,1.053-7.174,2.008-10.283
		c0.625-2.037,1.716-4.08,3.241-6.071c1.407-1.838,3.209-3.941,5.357-6.253c2.557-2.762,3.506-3.878,3.851-4.328
		c3.849-4.708,4.416-8.728,1.827-12.703c-1.164-1.707-3.25-3.116-6.174-4.149c-2.586-0.908-5.294-1.369-8.043-1.369
		c-0.552,0-1.107,0.018-1.666,0.055c-3.431,0.229-6.677,0.934-9.643,2.095c-2.752,1.077-4.726,2.727-6.035,5.043
		c-1.246,2.197-1.327,4.774-0.25,7.882c0.558,1.577,0.173,2.747-0.249,3.449c-0.743,1.237-2.132,1.994-4.246,2.311
		c-0.552,0.083-1.081,0.125-1.571,0.125c-3.51,0-4.78-2.101-5.225-3.353c-1.86-5.271-1.574-10.105,0.847-14.372
		c2.351-4.138,6.012-7.179,10.882-9.038c4.566-1.737,9.529-2.838,14.752-3.276c1.062-0.088,2.131-0.133,3.178-0.133
		c4.21,0,8.352,0.72,12.31,2.139c5.106,1.829,8.943,4.653,11.403,8.394c3.287,4.753,5.576,12.465-2.35,21.972
		c-0.904,1.186-2.345,2.828-4.347,4.948c-1.863,1.968-3.33,3.677-4.362,5.081c-0.969,1.318-1.7,2.664-2.171,4.002
		c-0.85,2.651-1.466,5.613-1.813,8.744c-0.358,3.201-0.54,7.041-0.54,11.416c0,4.56-0.09,7.854-0.277,10.064
		c-0.029,0.95-0.431,2.265-2.099,3.344C227.331,108.047,226.157,108.383,224.855,108.383z"/>
	<path fill="#FFFFFF" d="M222.58,29.483c3.973,0,7.832,0.67,11.568,2.01c4.673,1.674,8.107,4.186,10.309,7.533
		c4.212,6.092,3.477,12.549-2.201,19.359c-0.918,1.201-2.336,2.813-4.257,4.846c-1.927,2.035-3.438,3.795-4.535,5.289
		c-1.101,1.496-1.925,3.018-2.473,4.572c-0.92,2.867-1.561,5.947-1.924,9.232c-0.368,3.291-0.553,7.174-0.553,11.657
		c0,4.484-0.09,7.801-0.275,9.951c0,0.602-0.367,1.141-1.098,1.613c-0.652,0.427-1.418,0.641-2.286,0.641
		c-0.106,0-0.213-0.003-0.322-0.01c-1.012-0.061-1.882-0.332-2.611-0.811c-0.734-0.473-1.009-1.074-0.827-1.791
		c0-1.674,0.046-4.813,0.143-9.412c0.087-4.602,0.316-8.7,0.685-12.286c0.364-3.588,1.005-6.875,1.923-9.861
		c0.55-1.791,1.512-3.588,2.885-5.381s3.114-3.824,5.223-6.094c2.103-2.271,3.433-3.768,3.983-4.484
		c4.397-5.377,5.038-10.461,1.926-15.24c-1.468-2.154-3.895-3.824-7.282-5.021c-2.832-0.994-5.756-1.495-8.775-1.495
		c-0.599,0-1.202,0.02-1.808,0.059c-3.666,0.244-7.101,0.988-10.302,2.242c-3.209,1.256-5.593,3.26-7.146,6.008
		c-1.561,2.752-1.696,5.979-0.413,9.682c0.55,1.555-0.368,2.512-2.746,2.869c-0.447,0.067-0.862,0.101-1.244,0.101
		c-1.657,0-2.708-0.632-3.155-1.892c-1.646-4.666-1.415-8.848,0.688-12.553c2.104-3.703,5.36-6.393,9.755-8.07
		c4.396-1.672,9.113-2.717,14.152-3.139C220.59,29.524,221.589,29.483,222.58,29.483 M227.919,122.64
		c1.524,0,2.569,0.594,3.13,1.783l0.823,1.791c0.732,1.559-0.096,2.574-2.473,3.051c-0.561,0.112-1.077,0.169-1.546,0.169
		c-1.524,0-2.565-0.594-3.126-1.784l-0.822-1.793c-0.732-1.551,0.091-2.57,2.475-3.049
		C226.938,122.695,227.451,122.64,227.919,122.64 M222.58,25.09c-1.108,0-2.238,0.047-3.358,0.14
		c-5.431,0.455-10.595,1.602-15.351,3.411c-5.364,2.048-9.404,5.414-12.013,10.006c-2.75,4.847-3.09,10.292-1.01,16.185
		c1.074,3.023,3.801,4.823,7.298,4.823c0.599,0,1.238-0.051,1.899-0.15c2.762-0.415,4.714-1.543,5.801-3.352
		c0.94-1.565,1.093-3.456,0.432-5.326c-0.849-2.45-0.822-4.438,0.093-6.05c1.054-1.865,2.664-3.199,4.925-4.084
		c2.757-1.08,5.783-1.736,8.993-1.95c0.502-0.033,1.014-0.05,1.516-0.05c2.501,0,4.963,0.419,7.32,1.247
		c2.445,0.864,4.157,1.98,5.083,3.315c1.428,2.211,2.325,5.134-1.672,10.02l-0.042,0.052l-0.041,0.053
		c-0.26,0.338-1.089,1.331-3.724,4.177c-2.189,2.356-4.037,4.514-5.487,6.407c-1.684,2.199-2.894,4.475-3.596,6.763
		c-0.998,3.245-1.702,6.847-2.094,10.707c-0.38,3.7-0.618,7.957-0.706,12.646c-0.088,4.206-0.136,7.266-0.143,9.102
		c-0.318,2.313,0.731,4.521,2.842,5.879c1.346,0.883,2.947,1.395,4.727,1.501c0.202,0.012,0.395,0.018,0.584,0.018
		c1.736,0,3.314-0.457,4.691-1.357c2.509-1.623,3.024-3.762,3.08-5.038c0.189-2.272,0.281-5.612,0.281-10.202
		c0-4.294,0.177-8.051,0.525-11.168c0.328-2.967,0.907-5.762,1.721-8.316c0.4-1.115,1.022-2.25,1.849-3.374
		c0.979-1.333,2.387-2.972,4.187-4.872c2.02-2.138,3.492-3.814,4.5-5.123c8.717-10.508,6.136-19.145,2.411-24.558
		c-2.728-4.126-6.923-7.226-12.469-9.213C231.434,25.853,227.042,25.09,222.58,25.09L222.58,25.09z M227.919,118.247
		c-0.755,0-1.564,0.085-2.403,0.253c-2.783,0.56-4.682,1.814-5.646,3.73c-0.488,0.972-1.129,2.979,0.062,5.502l0.801,1.748
		c1.311,2.777,3.898,4.346,7.12,4.346c0.757,0,1.568-0.085,2.411-0.255c2.776-0.557,4.674-1.809,5.638-3.723
		c0.489-0.971,1.133-2.977-0.055-5.503l-0.808-1.758C233.732,119.814,231.144,118.247,227.919,118.247L227.919,118.247z"/>
</g>
</svg>
