<?xml version="1.0" encoding="UTF-8" standalone="no"?>
<!-- Created with Inkscape (http://www.inkscape.org/) -->

<svg
   xmlns:dc="http://purl.org/dc/elements/1.1/"
   xmlns:cc="http://creativecommons.org/ns#"
   xmlns:rdf="http://www.w3.org/1999/02/22-rdf-syntax-ns#"
   xmlns:svg="http://www.w3.org/2000/svg"
   xmlns="http://www.w3.org/2000/svg"
   version="1.1"
   width="1024"
   height="355"
   id="svg4036">
  <defs
     id="defs4038" />
  <metadata
     id="metadata4041">
    <rdf:RDF>
      <cc:Work
         rdf:about="">
        <dc:format>image/svg+xml</dc:format>
        <dc:type
           rdf:resource="http://purl.org/dc/dcmitype/StillImage" />
        <dc:title></dc:title>
      </cc:Work>
    </rdf:RDF>
  </metadata>
  <g
     transform="translate(0,-413)"
     id="layer1">
    <g
       transform="matrix(1.2591308,0,0,1.2591308,-107.49239,191.59639)"
       id="g4673">
      <path
         d="m 122.7713,445.48874 c -2.895,5.7975 -9,9.3075 -16.1175,9.3075 -10.725,0 -18.2025,-7.68 -18.2025,-18.7575 0,-11.145 7.53,-18.87 18.4575,-18.87 4.575,0 8.895,1.4175 11.9475,3.9075 1.575,1.275 2.235,2.04 3.8175,4.275 l -6.36,3.7125 c -1.32,-1.7325 -2.0325,-2.34 -3.66,-3.2475 -1.725,-0.9675 -3.555,-1.425 -5.5425,-1.425 -6.4575,0 -10.98,4.8225 -10.98,11.7375 0,6.81 4.575,11.6925 10.9275,11.6925 3.2025,0 6.3075,-1.365 7.8825,-3.5625 0.765,-1.0575 1.02,-1.725 1.3725,-3.3975 l -9.405,0 0,-6.6675 18,0 0,0.3675 c 0,4.6725 -0.6075,7.9275 -2.1375,10.9275"
         id="path3039"
         style="fill:#006464;fill-opacity:1;fill-rule:nonzero;stroke:none" />
      <path
         d="m 141.7838,424.39124 -2.64,0 0,9.4575 2.7975,0 c 2.1375,0 4.1175,-0.21 5.34,-2.2425 0.4575,-0.7575 0.66,-1.68 0.66,-2.5425 0,-3.66 -3,-4.6725 -6.1575,-4.6725 z m 6.8175,29.6325 -9.51,-15.15 0,15.15 -7.575,0 0,-35.8875 10.065,0 c 4.6275,0 9.5625,0.36 12.3075,4.6275 1.1175,1.7775 1.68,3.9075 1.68,5.9925 0,3.3075 -1.275,6.765 -4.1175,8.5875 -1.17,0.7725 -2.595,1.125 -3.9675,1.4325 l 10.3725,15.2475 -9.255,0"
         id="path3041"
         style="fill:#006464;fill-opacity:1;fill-rule:nonzero;stroke:none" />
      <path
         d="m 188.3588,449.44874 c -2.745,3.9675 -7.32,5.5425 -12,5.5425 -5.535,0 -11.3325,-2.4375 -13.4175,-7.875 -0.8175,-2.085 -0.9675,-4.32 -0.9675,-6.5625 l 0,-22.4175 7.6275,0 0,22.1625 c 0,1.935 0.0525,3.5625 1.2675,5.19 1.32,1.785 3.6675,2.4975 5.7975,2.4975 4.7775,0 6.6075,-3.015 6.6075,-7.4325 l 0,-22.4175 7.6275,0 0,19.98 c 0,3.915 -0.2025,7.98 -2.5425,11.3325"
         id="path3043"
         style="fill:#006464;fill-opacity:1;fill-rule:nonzero;stroke:none" />
      <path
         d="m 212.3588,424.84874 c -0.81,-0.2175 -1.6275,-0.2175 -2.4375,-0.2175 l -3.255,0 0,9.1575 3.405,0 c 3,0 5.3925,-1.215 5.3925,-4.5225 0,-2.0325 -1.02,-3.915 -3.105,-4.4175 z m 7.425,12.705 c -2.49,2.445 -6.0525,2.8425 -9.4575,2.8425 l -3.7125,0 0,13.6275 -7.7775,0 0,-35.8875 10.47,0 c 0.7125,0 1.4775,0 2.19,0.0525 3.8625,0.195 7.215,1.17 9.6075,4.425 1.425,1.9275 1.98,4.3725 1.98,6.705 0,3.0975 -1.065,6.045 -3.3,8.235"
         id="path3045"
         style="fill:#006464;fill-opacity:1;fill-rule:nonzero;stroke:none" />
      <path
         d="m 241.9013,424.84874 c -0.8175,-0.2175 -1.6275,-0.2175 -2.445,-0.2175 l -3.255,0 0,9.1575 3.405,0 c 3,0 5.3925,-1.215 5.3925,-4.5225 0,-2.0325 -1.0125,-3.915 -3.0975,-4.4175 z m 7.4175,12.705 c -2.49,2.445 -6.045,2.8425 -9.45,2.8425 l -3.72,0 0,13.6275 -7.7775,0 0,-35.8875 10.4775,0 c 0.7125,0 1.47,0 2.1825,0.0525 3.87,0.195 7.2225,1.17 9.615,4.425 1.425,1.9275 1.98,4.3725 1.98,6.705 0,3.0975 -1.065,6.045 -3.3075,8.235"
         id="path3047"
         style="fill:#006464;fill-opacity:1;fill-rule:nonzero;stroke:none" />
      <path
         d="m 274.8488,424.69874 c -6.36,0 -11.2875,5.0775 -11.2875,11.535 0,6.51 4.9275,11.3925 11.49,11.3925 6.0975,0 10.7775,-4.935 10.7775,-11.3925 0,-6.6075 -4.68,-11.535 -10.98,-11.535 z m 0.0975,30.2475 c -11.385,0 -19.32,-7.6275 -19.32,-18.5025 0,-11.145 7.98,-19.23 18.9675,-19.23 11.0325,0 19.2675,8.085 19.2675,18.915 0,11.085 -7.7775,18.8175 -18.915,18.8175"
         id="path3049"
         style="fill:#006464;fill-opacity:1;fill-rule:nonzero;stroke:none" />
      <path
         d="m 324.2663,438.97874 0,15.045 -7.83,0 0,-35.8875 20.85,0 0,6.81 -13.02,0 0,7.0125 13.02,0 0,7.02 -13.02,0"
         id="path3051"
         style="fill:#006464;fill-opacity:1;fill-rule:nonzero;stroke:none" />
      <path
         d="m 350.3438,425.10374 0,7.1175 12.3075,0 0,6.96 -12.3075,0 0,7.68 12.5625,0 0,7.1625 -20.34,0 0,-35.8875 20.3925,0 0,6.9675 -12.615,0"
         id="path3053"
         style="fill:#006464;fill-opacity:1;fill-rule:nonzero;stroke:none" />
      <path
         d="m 380.0888,424.39124 -2.64,0 0,9.4575 2.7975,0 c 2.13,0 4.1175,-0.21 5.3325,-2.2425 0.465,-0.7575 0.6675,-1.68 0.6675,-2.5425 0,-3.66 -3,-4.6725 -6.1575,-4.6725 z m 6.8175,29.6325 -9.51,-15.15 0,15.15 -7.575,0 0,-35.8875 10.065,0 c 4.6275,0 9.5625,0.36 12.3075,4.6275 1.1175,1.7775 1.68,3.9075 1.68,5.9925 0,3.3075 -1.275,6.765 -4.125,8.5875 -1.17,0.7725 -2.5875,1.125 -3.96,1.4325 l 10.3725,15.2475 -9.255,0"
         id="path3055"
         style="fill:#006464;fill-opacity:1;fill-rule:nonzero;stroke:none" />
      <path
         d="m 410.4938,424.39124 -2.64,0 0,9.4575 2.7975,0 c 2.1375,0 4.1175,-0.21 5.34,-2.2425 0.4575,-0.7575 0.66,-1.68 0.66,-2.5425 0,-3.66 -3,-4.6725 -6.1575,-4.6725 z m 6.8175,29.6325 -9.51,-15.15 0,15.15 -7.575,0 0,-35.8875 10.065,0 c 4.6275,0 9.5625,0.36 12.3075,4.6275 1.1175,1.7775 1.6725,3.9075 1.6725,5.9925 0,3.3075 -1.2675,6.765 -4.1175,8.5875 -1.1625,0.7725 -2.5875,1.125 -3.96,1.4325 l 10.3725,15.2475 -9.255,0"
         id="path3057"
         style="fill:#006464;fill-opacity:1;fill-rule:nonzero;stroke:none" />
      <path
         d="m 448.8863,424.69874 c -6.36,0 -11.2875,5.0775 -11.2875,11.535 0,6.51 4.9275,11.3925 11.49,11.3925 6.105,0 10.7775,-4.935 10.7775,-11.3925 0,-6.6075 -4.6725,-11.535 -10.98,-11.535 z m 0.105,30.2475 c -11.3925,0 -19.3275,-7.6275 -19.3275,-18.5025 0,-11.145 7.9875,-19.23 18.9675,-19.23 11.0325,0 19.2675,8.085 19.2675,18.915 0,11.085 -7.7775,18.8175 -18.9075,18.8175"
         id="path3059"
         style="fill:#006464;fill-opacity:1;fill-rule:nonzero;stroke:none" />
      <path
         d="m 491.3888,454.02374 -7.5225,0 -13.425,-35.8875 8.5425,0 9,25.62 9,-25.62 8.4375,0 -14.0325,35.8875"
         id="path3061"
         style="fill:#006464;fill-opacity:1;fill-rule:nonzero;stroke:none" />
      <path
         d="m 510.1013,454.02374 7.8285,0 0,-35.892 -7.8285,0 0,35.892 z"
         id="path3063"
         style="fill:#006464;fill-opacity:1;fill-rule:nonzero;stroke:none" />
      <path
         d="m 534.8588,425.10374 0,7.1175 12.3075,0 0,6.96 -12.3075,0 0,7.68 12.5625,0 0,7.1625 -20.3325,0 0,-35.8875 20.385,0 0,6.9675 -12.615,0"
         id="path3065"
         style="fill:#006464;fill-opacity:1;fill-rule:nonzero;stroke:none" />
      <path
         d="m 588.8588,426.52124 c -2.34,-1.89 -5.5425,-2.13 -8.445,-2.13 l -1.065,0 0,23.3325 2.1375,0 c 7.4775,0 11.235,-4.6275 11.235,-11.8425 0,-3.465 -1.065,-7.125 -3.8625,-9.36 z m 5.0325,24.0975 c -4.2225,3.2025 -8.895,3.405 -13.98,3.405 l -8.3925,0 0,-35.8875 7.275,0 c 7.575,0 14.6925,0.6075 18.915,7.8225 1.7775,3.0525 2.64,6.15 2.64,9.7125 0,5.3925 -2.0325,11.6025 -6.4575,14.9475"
         id="path3067"
         style="fill:#006464;fill-opacity:1;fill-rule:nonzero;stroke:none" />
      <path
         d="m 614.9438,425.10374 0,7.1175 12.3,0 0,6.96 -12.3,0 0,7.68 12.555,0 0,7.1625 -20.3325,0 0,-35.8875 20.385,0 0,6.9675 -12.6075,0"
         id="path3069"
         style="fill:#006464;fill-opacity:1;fill-rule:nonzero;stroke:none" />
      <path
         d="m 634.4663,454.02374 0,-35.8875 7.83,0 0,28.8225 12.255,0 0,7.065 -20.085,0"
         id="path3071"
         style="fill:#006464;fill-opacity:1;fill-rule:nonzero;stroke:none" />
      <path
         d="m 660.6488,454.02374 0,-35.8875 7.83,0 0,28.8225 12.255,0 0,7.065 -20.085,0"
         id="path3073"
         style="fill:#006464;fill-opacity:1;fill-rule:nonzero;stroke:none" />
      <path
         d="m 703.6688,424.69874 c -6.36,0 -11.295,5.0775 -11.295,11.535 0,6.51 4.935,11.3925 11.49,11.3925 6.1125,0 10.785,-4.935 10.785,-11.3925 0,-6.6075 -4.6725,-11.535 -10.98,-11.535 z m 0.0975,30.2475 c -11.3925,0 -19.32,-7.6275 -19.32,-18.5025 0,-11.145 7.9875,-19.23 18.9675,-19.23 11.0325,0 19.2675,8.085 19.2675,18.915 0,11.085 -7.7775,18.8175 -18.915,18.8175"
         id="path3075"
         style="fill:#006464;fill-opacity:1;fill-rule:nonzero;stroke:none" />
      <path
         d="m 754.0988,454.84124 c -4.6275,0 -8.235,-1.98 -11.49,-5.13 l 5.085,-5.595 c 1.8375,2.0775 3.8175,4.065 6.765,4.065 2.445,0 4.53,-1.725 4.53,-4.2675 0,-1.2675 -0.5175,-2.235 -1.4325,-3.0525 -0.9075,-0.8175 -2.1375,-1.3725 -3.2475,-1.8825 -4.89,-2.34 -9.7125,-5.2875 -9.7125,-11.385 0,-6.465 5.4375,-10.425 11.5425,-10.425 4.575,0 7.2675,1.6725 10.32,4.83 l -4.9875,5.595 c -1.365,-1.8375 -2.895,-3.4125 -5.3325,-3.4125 -1.83,0 -3.4125,1.275 -3.4125,3.15 0,5.595 14.445,4.53 14.445,15.72 0,7.5225 -5.955,11.79 -13.0725,11.79"
         id="path3077"
         style="fill:#006464;fill-opacity:1;fill-rule:nonzero;stroke:none" />
      <path
         d="m 786.5888,425.04374 0,28.98 -7.77,0 0,-28.875 -7.6875,0 0,-7.0125 23.1375,0 0,6.9075 -7.68,0"
         id="path3079"
         style="fill:#006464;fill-opacity:1;fill-rule:nonzero;stroke:none" />
      <path
         d="m 812.6213,425.81624 -4.83,14.1825 9.8625,0 -5.0325,-14.1825 z m 10.425,28.2075 -2.7975,-7.2675 -14.895,0 -2.6475,7.2675 -8.34,0 14.0925,-35.8875 8.2875,0 14.7375,35.8875 -8.4375,0"
         id="path3081"
         style="fill:#006464;fill-opacity:1;fill-rule:nonzero;stroke:none" />
      <path
         d="m 846.7913,425.04374 0,28.98 -7.7775,0 0,-28.875 -7.68,0 0,-7.0125 23.13,0 0,6.9075 -7.6725,0"
         id="path3083"
         style="fill:#006464;fill-opacity:1;fill-rule:nonzero;stroke:none" />
      <path
         d="m 876.4838,424.69874 c -6.3525,0 -11.2875,5.0775 -11.2875,11.535 0,6.51 4.935,11.3925 11.49,11.3925 6.105,0 10.785,-4.935 10.785,-11.3925 0,-6.6075 -4.68,-11.535 -10.9875,-11.535 z m 0.105,30.2475 c -11.3925,0 -19.3275,-7.6275 -19.3275,-18.5025 0,-11.145 7.9875,-19.23 18.9675,-19.23 11.0325,0 19.275,8.085 19.275,18.915 0,11.085 -7.785,18.8175 -18.915,18.8175"
         id="path3085"
         style="fill:#006464;fill-opacity:1;fill-rule:nonzero;stroke:none" />
      <path
         d="m 347.5388,319.78874 59.0625,0 -5.61,11.595 c -0.63,-1.35 -1.8225,-2.2575 -3.1875,-2.2575 l -15.6075,0 -24.03,49.2675 -15.2775,0 24.03,-49.2825 -19.4175,0 c -1.8075,0 -3.9825,1.035 -5.6025,2.2725 l 5.64,-11.595"
         id="path3087"
         style="fill:#006464;fill-opacity:1;fill-rule:nonzero;stroke:none" />
      <path
         d="m 522.9788,367.18874 -5.46,11.205 -57.0825,0 26.5875,-54.5925 c 0.2775,-0.645 0.4575,-1.3725 0.4575,-2.145 0,-0.72 -0.15,-1.4025 -0.3975,-2.0025 l 50.895,0 -5.625,11.5425 c -0.63,-1.335 -1.8225,-2.2575 -3.195,-2.2575 l -29.3325,0 -6.825,14.0175 29.6625,0 -5.6175,11.55 c -0.6225,-1.35 -1.8225,-2.25 -3.195,-2.25 l -25.3725,0 -8.2125,16.86 36.885,0.007 c 1.47,0 4.6575,-0.81 5.8275,-1.935"
         id="path3089"
         style="fill:#006464;fill-opacity:1;fill-rule:nonzero;stroke:none" />
      <path
         d="m 804.8513,367.18874 -5.4675,11.205 -43.3425,0 26.5875,-54.5925 c 0.285,-0.645 0.45,-1.3725 0.45,-2.145 0,-0.72 -0.135,-1.4025 -0.39,-2.0025 l 17.175,0 -23.9925,49.4625 23.1525,0.007 c 1.4775,0 4.665,-0.81 5.8275,-1.935"
         id="path3091"
         style="fill:#006464;fill-opacity:1;fill-rule:nonzero;stroke:none" />
      <path
         d="m 389.2838,378.39374 26.4675,-54.4425 c 0.2925,-0.645 0.4575,-1.3725 0.4575,-2.1525 0,-0.7275 -0.1125,-1.41 -0.3675,-2.0175 l 30.525,0 c 5.9025,0 17.085,-0.1575 17.085,13.7475 0,12.45 -12.0375,19.7325 -17.1225,20.4525 l 4.4475,20.16 c 0.48,2.16 1.785,3.66 2.775,4.2525 l -16.4025,0 -4.8525,-24.255 -15.96,0 -11.79,24.255 -15.27,0 m 59.5275,-44.865 c 0,-1.815 -1.4475,-4.44 -5.025,-4.44 l -15.2175,0 -7.7175,15.795 14.28,0 c 8.145,0 13.68,-5.2425 13.68,-11.355"
         id="path3093"
         style="fill:#006464;fill-opacity:1;fill-rule:nonzero;stroke:none" />
      <path
         d="m 626.8163,319.66874 c 0.2475,0.6075 0.405,1.2975 0.405,2.025 0,0.78 -0.1725,1.515 -0.465,2.1525 l -26.5425,54.5475 15.3075,0 28.605,-58.725 -17.31,0"
         id="path3095"
         style="fill:#006464;fill-opacity:1;fill-rule:nonzero;stroke:none" />
      <path
         d="m 833.1938,319.66874 c 0.255,0.6075 0.3975,1.2975 0.3975,2.025 0,0.78 -0.165,1.515 -0.4575,2.1525 l -26.5425,54.5475 15.3075,0 28.605,-58.725 -17.31,0"
         id="path3097"
         style="fill:#006464;fill-opacity:1;fill-rule:nonzero;stroke:none" />
      <path
         d="m 654.9488,319.78874 59.07,0 -5.6175,11.595 c -0.63,-1.35 -1.8225,-2.2575 -3.18,-2.2575 l -15.615,-0.015 -24.0375,49.2825 -15.2625,0 24.0225,-49.2825 -19.4175,0 c -1.8075,0 -3.9825,1.035 -5.6025,2.2725 l 5.64,-11.595"
         id="path3099"
         style="fill:#006464;fill-opacity:1;fill-rule:nonzero;stroke:none" />
      <path
         d="m 730.7888,319.86374 c 0,1.425 -0.525,3.0675 -1.9425,4.74 l -46.4625,53.895 13.38,0 11.01,-13.35 28.485,0 0.285,13.35 14.0175,0 -3.0075,-58.6425 -15.765,0.007 m -16.155,35.7525 19.9425,-24.0675 0.4725,24.0675 -20.415,0"
         id="path3101"
         style="fill:#006464;fill-opacity:1;fill-rule:nonzero;stroke:none" />
      <path
         d="m 877.2263,319.87124 c 0,1.4325 -0.525,3.0825 -1.95,4.7475 l -46.605,54.0675 13.4025,0 11.0625,-13.3875 28.56,0 0.2925,13.3875 14.055,0 -3.015,-58.8225 -15.8025,0.007 m -16.2,35.8575 19.9875,-24.135 0.48,24.135 -20.4675,0"
         id="path3103"
         style="fill:#006464;fill-opacity:1;fill-rule:nonzero;stroke:none" />
      <path
         d="m 551.3813,327.86624 1.8825,-3.8775 c 0.315,-0.63 0.4875,-1.3575 0.4875,-2.1375 0,-0.7125 -0.15,-1.3875 -0.4125,-1.98 l 15.21,0 14.265,40.755 17.82,-36.6375 c 0.3075,-0.63 0.4875,-1.3575 0.4875,-2.1375 0,-0.7125 -0.15,-1.3875 -0.42,-1.9875 l 12.5475,0 -28.5375,58.665 -10.95,0 -15.195,-43.6425 -21.2025,43.6425 -10.6275,0 24.645,-50.6625"
         id="path3105"
         style="fill:#006464;fill-opacity:1;fill-rule:nonzero;stroke:none" />
      <path
         d="m 204.9413,267.95624 -64.3425,6.5175 -44.25,87.435 c 34.29,0 52.7925,-4.815 72.8475,-33.405 8.4675,-12.225 23.4825,-36.57 35.745,-60.5475"
         id="path3107"
         style="fill:#006464;fill-opacity:1;fill-rule:nonzero;stroke:none" />
      <path
         d="m 378.7013,191.04374 5.0625,-10.035 c 0,0 -92.0775,0 -134.505,0 -45.6075,0 -68.8725,14.9925 -83.025,42.7875 -11.085,21.75 -11.055,21.765 -11.055,21.765 l 61.11,0 c 21.72,-40.4775 48.0375,-53.6625 112.7775,-54.5175 l 49.635,0"
         id="path3109"
         style="fill:#006464;fill-opacity:1;fill-rule:nonzero;stroke:none" />
      <path
         d="m 375.3413,197.63624 c -82.4775,0.7125 -96.3975,14.1375 -115.5525,47.925 l 91.245,0.0375 24.3075,-47.9625"
         id="path3111"
         style="fill:#006464;fill-opacity:1;fill-rule:nonzero;stroke:none" />
      <path
         d="m 326.6813,263.56874 15.705,-0.9 4.845,-9.5775 -96.8625,10.08 c -18.15,33.225 -25.56,54.3375 -48.9375,81.1125 -16.8975,19.3575 -43.38,24.27 -63.63,24.27 l -44.985,0 -4.86,10.08 114.39,0 c 31.695,-0.99 50.775,-8.13 64.8975,-20.1675 21.63,-18.4425 22.05,-44.9025 22.05,-51.615 0,-23.115 10.14,-41.7225 37.3875,-43.2825"
         id="path3113"
         style="fill:#db142d;fill-opacity:1;fill-rule:nonzero;stroke:none" />
    </g>
  </g>
</svg>
