<?xml version="1.0" encoding="utf-8"?>
<!-- Generator: Adobe Illustrator 16.0.3, SVG Export Plug-In . SVG Version: 6.00 Build 0)  -->
<!DOCTYPE svg PUBLIC "-//W3C//DTD SVG 1.1//EN" "http://www.w3.org/Graphics/SVG/1.1/DTD/svg11.dtd">
<svg version="1.1" id="Ebene_1" xmlns="http://www.w3.org/2000/svg" xmlns:xlink="http://www.w3.org/1999/xlink" x="0px" y="0px"
	 width="56.693px" height="56.693px" viewBox="0 0 56.693 56.693" enable-background="new 0 0 56.693 56.693" xml:space="preserve">
<ellipse fill="#FFFFFF" cx="29.034" cy="30.596" rx="21.188" ry="18.5"/>
<path fill="#878787" d="M54.211,29.461c-0.021-0.368-0.055-0.739-0.099-1.118c-0.495-4.305-3.187-9.424-5.771-12.856
	c-0.646-0.857-1.478-1.776-2.286-2.503c-1.872-1.685-4.083-3.137-6.099-4.676c-2.085-1.593-4.306-2.6-6.903-3.052
	C27.44,4.279,20.425,5.248,15.653,8.527c-3.857,2.649-8.447,4.607-10.422,9.104c-1.866,4.25-1.726,8.633-1.734,13.15
	c-0.006,3.104,0.866,6.844,2.27,9.551c1.601,3.089,2.57,5.831,5.615,7.896c6.567,4.452,13.828,7.238,21.813,5.417
	c2.708-0.618,5.415-1.414,7.921-2.624c1.971-0.951,4.347-2.193,5.756-3.907c1.249-1.519,2.857-2.741,4.007-4.349
	c1.754-2.45,1.949-5.259,2.764-8.029C54.161,32.971,54.318,31.263,54.211,29.461z M46.917,39.063
	c-0.88,0.908-2.301,1.203-3.359-0.038c-2.583-2.47-5.179-4.929-7.787-7.373c-2.23-2.088-4.638-5.019-7.255-6.944
	c-0.521,0.559-1.04,1.116-1.561,1.673c-0.578,0.619-1.157,1.236-1.734,1.854c-3.138,4.104-6.909,7.866-10.429,11.125
	c-2.365,2.19-5.747-1.18-3.535-3.535c3.03-3.228,6.06-6.457,9.085-9.689c0.584-0.623,1.475-1.834,2.509-3.081
	c1.318-1.937,2.423-3.911,3.153-5.875c0.595-1.6,2.858-2.669,4.179-1.104c5.531,6.56,11.323,12.873,16.909,19.414
	C48.323,36.667,47.914,38.198,46.917,39.063z"/>
</svg>
