<?xml version="1.0" encoding="UTF-8" standalone="no"?>
<!-- Generator: Adobe Illustrator 16.0.3, SVG Export Plug-In . SVG Version: 6.00 Build 0)  -->

<svg
   xmlns:dc="http://purl.org/dc/elements/1.1/"
   xmlns:cc="http://creativecommons.org/ns#"
   xmlns:rdf="http://www.w3.org/1999/02/22-rdf-syntax-ns#"
   xmlns:svg="http://www.w3.org/2000/svg"
   xmlns="http://www.w3.org/2000/svg"
   xmlns:sodipodi="http://sodipodi.sourceforge.net/DTD/sodipodi-0.dtd"
   xmlns:inkscape="http://www.inkscape.org/namespaces/inkscape"
   version="1.1"
   id="Ebene_1"
   x="0px"
   y="0px"
   width="357.28003"
   height="571.89001"
   viewBox="0 0 357.28 571.89"
   enable-background="new 0 0 595.28 841.89"
   xml:space="preserve"
   inkscape:version="0.91 r13725"
   sodipodi:docname="bg_description.svg"><metadata
     id="metadata9"><rdf:RDF><cc:Work
         rdf:about=""><dc:format>image/svg+xml</dc:format><dc:type
           rdf:resource="http://purl.org/dc/dcmitype/StillImage" /><dc:title></dc:title></cc:Work></rdf:RDF></metadata><defs
     id="defs7" /><sodipodi:namedview
     pagecolor="#ffffff"
     bordercolor="#666666"
     borderopacity="1"
     objecttolerance="10"
     gridtolerance="10"
     guidetolerance="10"
     inkscape:pageopacity="0"
     inkscape:pageshadow="2"
     inkscape:window-width="1218"
     inkscape:window-height="1001"
     id="namedview5"
     showgrid="false"
     inkscape:zoom="0.79286936"
     inkscape:cx="245.50971"
     inkscape:cy="481.57856"
     inkscape:window-x="54"
     inkscape:window-y="-8"
     inkscape:window-maximized="1"
     inkscape:current-layer="Ebene_1" /><path
     d="m 9.4335435,562.12063 c 1.0030005,1.551 2.3130005,2.889 4.0140005,3.929 10.019,6.122 31.73,0.054 43.178,0.567 17.414,0.782 34.237,3.075 51.711996,3.075 31.259,0 62.518,0.003 93.777,0 34.002,-0.003 67.591,-2.097 101.737,-2 11.032,0.031 26.317,-1.519 36.13,-6.829 12.724,-6.885 8.056,-21.559 9.28,-34.432 3.91,-41.105 0.854,-83.73 1.873,-125.378 0.789,-32.236 1.701,-64.472 2.182,-96.715 0.413,-27.782 -3.875,-53.904 -4.88,-81.593 -1.138,-31.365 0.728,-62.66713 -0.781,-93.96628 -0.712,-14.77108 -4.523,-27.02914 -2.953,-41.95434 2.034,-19.345085 5.76,-38.69518 5.081,-58.22728 -0.839,-24.1551176 -9.162,-21.9061084 -30.683,-21.9061084 -19.344,0 -37.26,4.0360184 -56.346,5.0910234 -18.641,1.030005 -33.785,-5.7650234 -51.721,-7.8610372 -17.384,-2.0320092 -35.261,0.5930046 -52.329,1.8450092 -28.201,2.0690092 -56.505,1.7710092 -84.753996,1.1570046 -13.775,-0.299 -27.549,-0.705 -41.325,-0.9580046 C 6.2845435,5.480617 4.6225435,8.8416308 4.6905435,34.90476 c 0.067,25.45113 0.235,50.902245 0.453,76.3525 0.426,49.76925 1.051,99.53537 1.495,149.30337 0.237,26.549 3.032,53.513 3.02,80.614 -0.014,29.554 -2.199,58.681 -3,88.398 -0.547,20.302 0.942,40.711 0.023,60.996 -0.589,13.01 -5.658,26.268 -3.425,39.342 1.548,9.052 1.201,24.519 6.177,32.21 z"
     id="path3"
     inkscape:connector-curvature="0"
     style="fill:#eeefed" /></svg>