<?xml version="1.0" encoding="utf-8"?>
<!-- Generator: Adobe Illustrator 16.0.3, SVG Export Plug-In . SVG Version: 6.00 Build 0)  -->
<!DOCTYPE svg PUBLIC "-//W3C//DTD SVG 1.1//EN" "http://www.w3.org/Graphics/SVG/1.1/DTD/svg11.dtd">
<svg version="1.1" id="Ebene_1" xmlns="http://www.w3.org/2000/svg" xmlns:xlink="http://www.w3.org/1999/xlink" x="0px" y="0px"
	 width="595.28px" height="841.89px" viewBox="0 0 595.28 841.89" enable-background="new 0 0 595.28 841.89" xml:space="preserve">
<path fill="#EEEFED" d="M131.774,698.429c1.003,1.551,2.313,2.889,4.014,3.929c10.019,6.122,31.73,0.054,43.178,0.567
	c17.414,0.782,34.237,3.075,51.712,3.075c31.259,0,62.518,0.003,93.777,0c34.002-0.003,67.591-2.097,101.737-2
	c11.032,0.031,26.317-1.519,36.13-6.829c12.724-6.885,8.056-21.559,9.28-34.432c3.91-41.105,0.854-83.73,1.873-125.378
	c0.789-32.236,1.701-64.472,2.182-96.715c0.413-27.782-3.875-53.904-4.88-81.593c-1.138-31.365,0.728-62.667-0.781-93.966
	c-0.712-14.771-4.523-27.029-2.953-41.954c2.034-19.345,5.76-38.695,5.081-58.227C471.285,140.751,462.962,143,441.441,143
	c-19.344,0-37.26,4.036-56.346,5.091c-18.641,1.03-33.785-5.765-51.721-7.861c-17.384-2.032-35.261,0.593-52.329,1.845
	c-28.201,2.069-56.505,1.771-84.754,1.157c-13.775-0.299-27.549-0.705-41.325-0.958c-26.341-0.484-28.003,2.877-27.935,28.94
	c0.067,25.451,0.235,50.902,0.453,76.352c0.426,49.769,1.051,99.535,1.495,149.303c0.237,26.549,3.032,53.513,3.02,80.614
	c-0.014,29.554-2.199,58.681-3,88.398c-0.547,20.302,0.942,40.711,0.023,60.996c-0.589,13.01-5.658,26.268-3.425,39.342
	C127.145,675.271,126.798,690.738,131.774,698.429z"/>
</svg>
