<?xml version="1.0" encoding="UTF-8" standalone="no"?>
<!-- Generator: Adobe Illustrator 16.0.3, SVG Export Plug-In . SVG Version: 6.00 Build 0)  -->

<svg
   xmlns:dc="http://purl.org/dc/elements/1.1/"
   xmlns:cc="http://creativecommons.org/ns#"
   xmlns:rdf="http://www.w3.org/1999/02/22-rdf-syntax-ns#"
   xmlns:svg="http://www.w3.org/2000/svg"
   xmlns="http://www.w3.org/2000/svg"
   xmlns:sodipodi="http://sodipodi.sourceforge.net/DTD/sodipodi-0.dtd"
   xmlns:inkscape="http://www.inkscape.org/namespaces/inkscape"
   version="1.1"
   id="Ebene_1"
   x="0px"
   y="0px"
   width="357.28003"
   height="234.89001"
   viewBox="0 0 357.28 234.89"
   enable-background="new 0 0 595.28 841.89"
   xml:space="preserve"
   inkscape:version="0.91 r13725"
   sodipodi:docname="bg_description_rot.svg"><metadata
     id="metadata9"><rdf:RDF><cc:Work
         rdf:about=""><dc:format>image/svg+xml</dc:format><dc:type
           rdf:resource="http://purl.org/dc/dcmitype/StillImage" /><dc:title></dc:title></cc:Work></rdf:RDF></metadata><defs
     id="defs7" /><sodipodi:namedview
     pagecolor="#ffffff"
     bordercolor="#666666"
     borderopacity="1"
     objecttolerance="10"
     gridtolerance="10"
     guidetolerance="10"
     inkscape:pageopacity="0"
     inkscape:pageshadow="2"
     inkscape:window-width="1218"
     inkscape:window-height="1001"
     id="namedview5"
     showgrid="false"
     inkscape:zoom="0.79286936"
     inkscape:cx="39.927292"
     inkscape:cy="431.12889"
     inkscape:window-x="54"
     inkscape:window-y="-8"
     inkscape:window-maximized="1"
     inkscape:current-layer="Ebene_1" /><path
     d="m 350.1668,227.49363 c 0.95919,-0.64945 1.7867,-1.4977 2.42984,-2.5991 3.78624,-6.48739 0.0337,-20.54548 0.35069,-27.95824 0.48353,-11.27572 1.90177,-22.16871 1.90177,-33.48393 0,-20.2405 0.002,-40.481 0,-60.7215 -0.002,-22.01672 -1.29688,-43.76603 -1.23696,-65.87599 0.019,-7.143365 -0.93938,-17.040595 -4.22338,-23.394635 C 345.13074,5.2212875 336.05563,8.243881 328.09437,7.4513265 302.67301,4.919543 276.31165,6.898272 250.55449,6.238522 230.61823,5.7276475 210.68189,5.1371175 190.74122,4.825643 173.55946,4.558223 157.40432,7.3347665 140.28012,7.9855065 120.88251,8.722391 101.52371,7.5141165 82.166819,8.491221 73.03166,8.952251 65.45068,11.419915 56.220209,10.40333 44.256269,9.0862955 32.289226,6.673652 20.209621,7.1133265 5.2709203,7.6565865 6.6618187,13.045825 6.6618187,26.98094 c 0,12.525495 2.4960725,24.126335 3.1485388,36.484755 0.6370085,12.07022 -3.5653729,21.87623 -4.8616473,33.490005 -1.2566941,11.25633 0.3667397,22.83186 1.1410437,33.88354 1.2795769,18.26042 1.0952792,36.58753 0.7155454,54.87906 -0.1849158,8.91941 -0.4360061,17.83829 -0.5924737,26.75829 -0.2993297,17.05605 1.7792842,18.13221 17.8979934,18.08818 15.740214,-0.0434 31.480427,-0.15216 47.220107,-0.29341 30.779754,-0.27575 61.557554,-0.68043 92.336524,-0.96793 16.41912,-0.15349 33.09499,-1.96326 49.85555,-1.9555 18.27768,0.009 36.29125,1.42388 54.66962,1.94252 12.55579,0.35428 25.17768,-0.60993 37.72294,-0.0149 8.04603,0.38138 16.24542,3.66361 24.33098,2.21772 5.59818,-1.00235 15.16375,-0.77766 19.92026,-3.99967 z"
     id="path3"
     inkscape:connector-curvature="0"
     style="fill:#eeefed" /></svg>