<?xml version="1.0" encoding="utf-8"?>
<!-- Generator: Adobe Illustrator 16.0.3, SVG Export Plug-In . SVG Version: 6.00 Build 0)  -->
<!DOCTYPE svg PUBLIC "-//W3C//DTD SVG 1.1//EN" "http://www.w3.org/Graphics/SVG/1.1/DTD/svg11.dtd">
<svg version="1.1" id="Ebene_1" xmlns="http://www.w3.org/2000/svg" xmlns:xlink="http://www.w3.org/1999/xlink" x="0px" y="0px"
	 width="170.707px" height="172.727px" viewBox="0 0 170.707 172.727" enable-background="new 0 0 170.707 172.727"
	 xml:space="preserve">
<path fill="#A6C718" d="M38.87,145.833c10.785,8.063,23.788,13.332,37.931,14.729c5.567,1.161,11.237,1.407,16.742,0.257
	c1.181-0.246,2.394-0.575,3.646-0.986c14.924-2.537,28.368-9.429,38.979-19.31c4.94-3.029,9.419-6.614,13.261-11.698
	c9.531-12.582,12.129-26.171,10.814-39.955c0.063-1.304,0.093-2.608,0.093-3.923c0-27.476-15.304-53.349-39.369-66.608
	c-12.274-6.758-24.403-10.62-37.726-10.363C70.865,8.221,65.236,6.752,52.11,12.279c-10.497,4.427-16.619,11.175-22.104,19.566
	c-6.697,6.86-11.976,14.924-15.653,23.664c-3.718,5.772-6.286,11.956-5.751,21.467c0.021,0.38,0.062,0.76,0.092,1.13
	c-0.206,2.27-0.339,4.55-0.339,6.841c0,16.731,5.423,32.189,14.585,44.74l-0.822-0.555C22.118,129.132,32.266,142.967,38.87,145.833
	z"/>
<g>
	<g>
		<path fill="#FFFFFF" d="M30.436,106.402c8.315,7.558,18.149,13.872,22.827,24.481c2.172,4.928,10.768,4.895,12.952,0
			c14.306-32.063,37.951-57.652,61.494-83.148c6.55-7.093-4.032-17.727-10.607-10.606C92.769,63.48,68.048,90.176,53.263,123.313
			c4.317,0,8.635,0,12.952,0c-5.224-11.85-15.899-19.089-25.173-27.519C33.902,89.306,23.263,99.882,30.436,106.402L30.436,106.402z
			"/>
	</g>
</g>
</svg>
