<?xml version="1.0" encoding="utf-8"?>
<!-- Generator: Adobe Illustrator 16.0.3, SVG Export Plug-In . SVG Version: 6.00 Build 0)  -->
<!DOCTYPE svg PUBLIC "-//W3C//DTD SVG 1.1//EN" "http://www.w3.org/Graphics/SVG/1.1/DTD/svg11.dtd">
<svg version="1.1" id="Ebene_1" xmlns="http://www.w3.org/2000/svg" xmlns:xlink="http://www.w3.org/1999/xlink" x="0px" y="0px"
	 width="170.707px" height="172.727px" viewBox="0 0 170.707 172.727" enable-background="new 0 0 170.707 172.727"
	 xml:space="preserve">
<path fill="#E88706" d="M39.194,146.773c10.784,8.063,23.787,13.332,37.931,14.729c5.567,1.162,11.237,1.408,16.741,0.258
	c1.182-0.246,2.395-0.576,3.646-0.986c14.924-2.537,28.369-9.43,38.979-19.311c4.941-3.029,9.42-6.613,13.261-11.697
	c9.531-12.582,12.13-26.172,10.815-39.955c0.062-1.305,0.092-2.609,0.092-3.924c0-27.475-15.303-53.348-39.369-66.608
	c-12.273-6.758-24.403-10.62-37.725-10.363C71.188,9.161,65.56,7.692,52.434,13.219C41.937,17.646,35.815,24.394,30.33,32.785
	c-6.696,6.86-11.976,14.924-15.653,23.664c-3.718,5.772-6.285,11.956-5.752,21.467c0.021,0.38,0.063,0.76,0.093,1.13
	c-0.206,2.27-0.339,4.55-0.339,6.84c0,16.732,5.423,32.189,14.585,44.74l-0.821-0.555C22.442,130.072,32.59,143.908,39.194,146.773z
	"/>
<g>
	<g>
		<path fill="#FFFFFF" d="M46.68,97.019c1.539-5.529,1.505-11.325,3.062-16.839c1.605-5.685,9.741-3.508,13.523-1.854
			c11.205,4.901,19.163,14.973,29.376,21.471c10.027,6.38,22.273,7.682,31.549-0.593c7.806-6.963,9.74-18.822,13.157-28.186
			c3.323-9.108-11.177-12.998-14.465-3.987c-2.588,7.092-3.947,18.825-11.186,22.815c-3.833,2.112-9.69-1.86-12.705-3.778
			c-5.096-3.242-9.505-7.506-14.095-11.399c-9.706-8.235-21.403-14.507-34.439-12.553c-6.897,1.033-12.47,6.476-14.745,12.853
			c-2.076,5.819-1.846,12.128-3.498,18.062C29.618,102.368,44.09,106.325,46.68,97.019L46.68,97.019z"/>
	</g>
</g>
</svg>
