<?xml version="1.0" encoding="utf-8"?>
<!-- Generator: Adobe Illustrator 16.0.3, SVG Export Plug-In . SVG Version: 6.00 Build 0)  -->
<!DOCTYPE svg PUBLIC "-//W3C//DTD SVG 1.1//EN" "http://www.w3.org/Graphics/SVG/1.1/DTD/svg11.dtd">
<svg version="1.1" id="Ebene_1" xmlns="http://www.w3.org/2000/svg" xmlns:xlink="http://www.w3.org/1999/xlink" x="0px" y="0px"
	 width="170.707px" height="172.727px" viewBox="0 0 170.707 172.727" enable-background="new 0 0 170.707 172.727"
	 xml:space="preserve">
<path fill="#71112E" d="M38.964,146.773c10.784,8.063,23.787,13.332,37.931,14.729c5.567,1.162,11.237,1.408,16.742,0.258
	c1.182-0.246,2.395-0.576,3.646-0.986c14.924-2.537,28.368-9.43,38.979-19.311c4.94-3.029,9.42-6.613,13.26-11.697
	c9.531-12.582,12.131-26.172,10.815-39.955c0.062-1.305,0.093-2.608,0.093-3.924c0-27.475-15.304-53.348-39.369-66.608
	C108.787,12.521,96.657,8.659,83.335,8.916C70.958,9.162,65.329,7.693,52.203,13.22C41.706,17.646,35.585,24.394,30.1,32.785
	c-6.696,6.859-11.976,14.924-15.653,23.664c-3.718,5.771-6.285,11.956-5.752,21.467c0.021,0.38,0.063,0.76,0.093,1.13
	c-0.206,2.27-0.339,4.55-0.339,6.84c0,16.732,5.423,32.189,14.585,44.74l-0.821-0.555C22.212,130.073,32.359,143.908,38.964,146.773
	z"/>
<g>
	<g>
		<g>
			<path fill="#FFFFFF" d="M65.911,131.869c6.223-15.492,12.676-29.825,23.432-42.785c11.261-13.566,24.353-25.53,37.808-36.868
				c7.406-6.241-3.26-16.797-10.606-10.606c-13.935,11.742-27.271,24.174-38.925,38.216c-12.08,14.554-19.187,30.667-26.171,48.056
				c-1.526,3.8,1.633,8.234,5.238,9.227C60.965,138.284,64.388,135.659,65.911,131.869L65.911,131.869z"/>
		</g>
	</g>
	<g>
		<g>
			<path fill="#FFFFFF" d="M37.196,47.98c23.482,33.827,52.734,63.216,82.634,91.337c7.039,6.619,17.666-3.968,10.607-10.606
				c-28.935-27.21-57.564-55.563-80.291-88.301C44.674,32.523,31.664,40.011,37.196,47.98L37.196,47.98z"/>
		</g>
	</g>
</g>
</svg>
