<?xml version="1.0" encoding="utf-8"?>
<!-- Generator: Adobe Illustrator 16.0.3, SVG Export Plug-In . SVG Version: 6.00 Build 0)  -->
<!DOCTYPE svg PUBLIC "-//W3C//DTD SVG 1.1//EN" "http://www.w3.org/Graphics/SVG/1.1/DTD/svg11.dtd">
<svg version="1.1" id="Ebene_1" xmlns="http://www.w3.org/2000/svg" xmlns:xlink="http://www.w3.org/1999/xlink" x="0px" y="0px"
	 width="141.73px" height="141.73px" viewBox="0 0 141.73 141.73" enable-background="new 0 0 141.73 141.73" xml:space="preserve">
<g>
	<path fill="#E88707" d="M61.271,130.531c-7.812,0.368-15.607,0.583-23.427,0.483c-4.165-0.049-8.32-0.115-12.484-0.131
		c-4.861-0.024-10.615,0.606-15.214-1.205c-1.123-0.434-2.369-0.868-2.803-1.877c-0.599-1.377,0.532-4.295,1.115-5.614
		c1.811-4.074,2.787-8.361,4.655-12.41c2.91-6.313,5.23-10.017,7.976-14.714c3.156-5.401,6.254-10.828,9.328-16.271
		c6.09-10.754,12.106-21.546,18.377-32.198c7.18-12.197,16.771-35.792,21.582-36.738c6.729-0.976,16.435,18.66,22.148,27.283
		c11.688,17.619,22.729,35.247,30.804,54.735c2.704,6.525,14.532,28.279,10.335,35.73
		C129.263,135.425,70.058,130.113,61.271,130.531z"/>
	<path fill="#FFFFFF" d="M67.655,77.717c0,1.033,0.003,2.065,0.018,3.104c0.053,4.407,0.276,8.83,1.092,13.175
		c0.208,1.099,0.453,2.194,0.734,3.276c0.213,0.82,0.33,1.478,1.044,2.015c1.12,0.849,2.749,0.841,4.075,0.647
		c0.968-0.143,2.185-0.379,2.934-1.129c1.131-1.131,0.768-2.367,1.131-3.676c0.793-2.82,0.614-6.072,0.757-9.014
		c0.229-4.857-0.021-9.787-0.021-14.657c0-8.102,0.067-16.21,0.021-24.319c-0.023-4.073-0.487-8.102-2.263-11.828
		c-0.646-1.357-2.053-4.482-3.506-5.168c-4.97-2.333-5.733,4.857-5.999,7.83C66.518,50.993,67.651,64.669,67.655,77.717z"/>
	<path fill="#FFFFFF" d="M80.784,114.621c0.268,1.619-0.446,3.383-1.118,4.864c-0.382,0.84-0.93,1.428-1.965,2.084
		c-1.16,0.735-3.461,1.146-4.863,1.037c-1.139-0.089-4.218-0.775-5.126-1.771c-0.76-0.838-1.194-3.04-1.481-4.126
		c-0.487-1.862-0.789-5.454,0.919-6.776c1.346-1.046,2.714-2.793,4.425-2.8c1.862-0.013,3.81-0.841,5.608,0.612
		c0.658,0.526,1.094,0.838,1.57,1.549c0.877,1.308,1.592,3.248,1.927,4.796C80.717,114.25,80.752,114.43,80.784,114.621z"/>
</g>
</svg>
