<?xml version="1.0" encoding="utf-8"?>
<!-- Generator: Adobe Illustrator 16.0.3, SVG Export Plug-In . SVG Version: 6.00 Build 0)  -->
<!DOCTYPE svg PUBLIC "-//W3C//DTD SVG 1.1//EN" "http://www.w3.org/Graphics/SVG/1.1/DTD/svg11.dtd">
<svg version="1.1" id="Ebene_1" xmlns="http://www.w3.org/2000/svg" xmlns:xlink="http://www.w3.org/1999/xlink" x="0px" y="0px"
	 width="509.975px" height="218.989px" viewBox="0 0 509.975 218.989" enable-background="new 0 0 509.975 218.989"
	 xml:space="preserve">
<g>
	<path fill-rule="evenodd" clip-rule="evenodd" fill="#FFFFFF" d="M64.584,128.471c-15.376,0-30.752,0.03-46.128-0.04
		c-1.827-0.008-2.212,0.554-1.875,2.225c1.088,5.389,2.424,10.714,4.324,15.869c16.211,43.985,60.18,70.139,104.56,64.559
		c13.08-1.645,25.427-5.48,36.805-12.075c26.457-15.334,42.771-38.07,48.987-68.031c0.306-1.477,0.023-2.552-1.304-3.532
		c-2.73-2.017-5.262-4.299-7.958-6.364c-4.366-3.346-8.743-6.778-14.081-8.413c-5.1-1.562-10.143-1.513-14.844,1.626
		c-4.071,2.719-7.524,6.105-10.955,9.543c-4.626,4.634-9.041,9.474-14.093,13.687c-6.639,5.538-13.527,6.204-21.026,1.879
		c-4.724-2.725-8.977-6.059-13.078-9.598c-1.129-0.974-2.228-1.363-3.691-1.359C95.013,128.486,79.798,128.47,64.584,128.471z
		 M298.259,37.646c0,0.029,0,0.058,0,0.086c-3.316,0-6.636,0.071-9.949-0.031c-1.597-0.048-2.407,0.378-2.969,2.027
		c-2.857,8.396-5.896,16.729-8.843,25.095c-7.691,21.83-15.352,43.669-23.083,65.485c-0.572,1.613-0.448,2.064,1.379,2.039
		c5.985-0.083,11.972-0.058,17.957,0.05c1.549,0.028,2.234-0.458,2.757-1.93c2.022-5.7,4.23-11.334,6.31-17.015
		c0.462-1.264,0.983-1.953,2.543-1.94c9.464,0.074,18.929,0.054,28.393-0.027c1.407-0.012,1.96,0.5,2.367,1.755
		c1.842,5.676,3.813,11.312,5.639,16.993c0.415,1.291,0.994,1.79,2.38,1.774c6.065-0.066,12.134-0.056,18.2,0
		c1.496,0.015,1.815-0.413,1.322-1.834c-1.356-3.908-2.628-7.846-3.889-11.785c-8.508-26.585-18.397-52.686-27.687-78.997
		c-0.506-1.433-1.225-1.813-2.637-1.776C305.055,37.707,301.656,37.646,298.259,37.646z M395.775,87.567c0,0.006,0,0.013,0,0.019
		c2.348,0,4.703-0.121,7.039,0.038c1.896,0.129,2.038-0.795,1.646-2.176c-0.691-2.434-1.549-4.792-2.512-7.154
		c-2.846-6.978-7.127-12.51-13.731-16.269c-4.197-2.388-8.9-2.978-13.436-3.323c-12.33-0.94-26.186,3.569-33.281,16.909
		c-5.858,11.013-6.807,22.741-3.623,34.796c2.45,9.274,7.828,16.175,16.503,20.437c7.303,3.587,14.996,4.878,23.043,3.884
		c14.137-1.746,24.443-11.882,26.558-25.932c0.239-1.586,0.077-2.366-1.854-2.271c-3.634,0.18-7.291,0.293-10.919,0.083
		c-3.311-0.192-5.228,0.675-6.707,4.037c-2.119,4.813-5.78,8.366-11.638,8.561c-5.902,0.196-10.31-2.349-13.311-7.3
		c-5.161-8.516-4.253-21.271,1.501-29.421c5.456-7.729,17.905-7.519,22.456-0.131c2.935,4.762,6.473,5.768,11.295,5.219
		C395.125,87.536,395.452,87.567,395.775,87.567z M405.875,80.098c-0.029,0-0.059,0-0.088,0c0,12.701,0.047,25.403-0.028,38.104
		c-0.023,3.851,1.269,6.921,4.345,9.241c1.633,1.23,3.468,2.062,5.368,2.766c6.883,2.548,14.056,1.604,21.138,1.754
		c1.308,0.027,1.069-0.936,1.073-1.701c0.018-3.884-0.066-7.77,0.057-11.65c0.054-1.711-0.49-2.209-2.181-2.188
		c-2.982,0.036-6.013,0.013-8.647-1.765c-0.879-0.594-1.652-1.188-1.648-2.469c0.036-12.541,0.036-25.082,0.01-37.623
		c-0.003-1.178,0.43-1.529,1.563-1.506c2.911,0.059,5.825-0.016,8.737,0.04c1.107,0.021,1.598-0.271,1.569-1.483
		c-0.07-2.992-0.071-5.988,0-8.98c0.031-1.29-0.452-1.701-1.698-1.664c-2.345,0.069-4.716-0.19-7.032,0.075
		c-2.612,0.299-3.046-0.764-2.976-3.089c0.165-5.416-0.003-10.841,0.09-16.261c0.027-1.616-0.294-2.27-2.092-2.227
		c-5.176,0.121-10.356,0.093-15.533,0.008c-1.561-0.026-2.069,0.403-2.062,2.025C405.902,54.368,405.875,67.233,405.875,80.098z"/>
	<path fill-rule="evenodd" clip-rule="evenodd" fill="#FFFFFF" d="M15.539,91.519c1.86-2.445,1.856-5.521,2.729-8.291
		c8.984-28.49,27.162-48.927,54.109-61.517c16.549-7.732,34.126-10.663,52.202-8.273c37.222,4.922,63.85,24.74,79.933,58.642
		c3.296,6.948,5.266,14.369,6.74,21.909c0.075,0.382,0.01,0.791,0.01,1.655c-2.895-2.31-5.509-4.398-8.124-6.485
		c-4.237-3.381-8.614-6.516-13.575-8.812c-6.676-3.089-12.795-2.336-18.583,2.125c-5.019,3.868-9.317,8.481-13.701,13.01
		c-3.09,3.193-6.234,6.322-9.719,9.1c-6.836,5.448-12.952,6.043-20.629,1.899c-4.648-2.508-8.812-5.705-12.725-9.218
		c-1.532-1.376-3.124-1.929-5.218-1.924c-31.15,0.073-62.3,0.059-93.45,0.066C15.539,94.11,15.539,92.814,15.539,91.519z"/>
	<path fill-rule="evenodd" clip-rule="evenodd" fill="#FFFFFF" d="M501.226,65.292c-2.113,4.969-3.293,10.236-4.851,15.379
		c-4.958,16.373-9.834,32.771-14.717,49.166c-0.307,1.032-0.644,1.627-1.923,1.596c-5.5-0.135-11.004-0.184-16.506-0.182
		c-1.353,0.001-1.975-0.479-2.398-1.779c-7.258-22.241-14.545-44.473-21.904-66.68c-0.576-1.738-0.043-1.877,1.425-1.859
		c4.612,0.057,9.229,0.119,13.837-0.027c1.882-0.06,2.671,0.571,3.206,2.35c4.092,13.599,8.278,27.168,12.464,40.739
		c0.251,0.812,0.243,1.779,1.337,2.568c1.29-4.16,2.553-8.209,3.801-12.264c3.228-10.49,6.476-20.973,9.639-31.482
		c0.423-1.406,1.03-1.917,2.511-1.892c4.692,0.079,9.387,0.009,14.08-0.003C501.226,62.378,501.226,63.835,501.226,65.292z"/>
	<path fill-rule="evenodd" clip-rule="evenodd" fill="#FFFFFF" d="M64.584,128.47c15.214,0,30.428,0.016,45.642-0.025
		c1.463-0.004,2.562,0.386,3.691,1.359c4.102,3.539,8.354,6.873,13.078,9.598c7.499,4.325,14.387,3.659,21.026-1.879
		c5.052-4.213,9.467-9.053,14.093-13.687c3.431-3.438,6.884-6.824,10.955-9.543c4.702-3.139,9.745-3.188,14.844-1.626
		c5.338,1.635,9.715,5.067,14.081,8.413c2.696,2.065,5.228,4.348,7.958,6.364c1.328,0.98,1.61,2.056,1.304,3.532
		c-6.216,29.961-22.53,52.697-48.987,68.031c-11.378,6.595-23.725,10.431-36.805,12.075c-44.379,5.58-88.348-20.573-104.56-64.559
		c-1.9-5.155-3.236-10.48-4.324-15.869c-0.337-1.671,0.048-2.232,1.875-2.225C33.833,128.501,49.208,128.471,64.584,128.47z"/>
	<path fill-rule="evenodd" clip-rule="evenodd" fill="#FFFFFF" d="M298.259,37.646c3.397,0,6.796,0.061,10.19-0.029
		c1.412-0.037,2.131,0.343,2.637,1.776c9.289,26.311,19.179,52.411,27.687,78.997c1.261,3.939,2.532,7.877,3.889,11.785
		c0.493,1.421,0.174,1.849-1.322,1.834c-6.066-0.056-12.135-0.066-18.2,0c-1.386,0.016-1.965-0.483-2.38-1.774
		c-1.826-5.682-3.797-11.317-5.639-16.993c-0.407-1.255-0.96-1.768-2.367-1.755c-9.464,0.081-18.929,0.101-28.393,0.027
		c-1.56-0.012-2.081,0.676-2.543,1.94c-2.079,5.681-4.287,11.314-6.31,17.015c-0.522,1.472-1.208,1.958-2.757,1.93
		c-5.984-0.107-11.972-0.133-17.957-0.05c-1.828,0.025-1.952-0.426-1.379-2.039c7.731-21.815,15.392-43.655,23.083-65.485
		c2.947-8.365,5.985-16.699,8.843-25.095c0.562-1.649,1.372-2.075,2.969-2.027c3.313,0.102,6.633,0.031,9.949,0.031
		C298.259,37.704,298.259,37.675,298.259,37.646z M298.484,60.396c-0.379,0.098-0.507,0.101-0.519,0.139
		c-3.312,10.86-6.599,21.729-9.938,32.581c-0.493,1.603,0.38,1.507,1.455,1.5c6.222-0.046,12.444-0.121,18.666-0.045
		c1.851,0.022,1.692-0.615,1.238-1.971c-2.278-6.797-4.431-13.637-6.707-20.435C301.363,68.234,300.494,64.134,298.484,60.396z"/>
	<path fill-rule="evenodd" clip-rule="evenodd" fill="#FFFFFF" d="M395.775,87.567c-0.323,0-0.65-0.031-0.971,0.005
		c-4.822,0.549-8.36-0.457-11.295-5.219c-4.551-7.388-17-7.597-22.456,0.131c-5.754,8.15-6.662,20.905-1.501,29.421
		c3.001,4.952,7.408,7.497,13.311,7.3c5.857-0.194,9.519-3.747,11.638-8.561c1.479-3.361,3.396-4.229,6.707-4.037
		c3.628,0.21,7.285,0.096,10.919-0.083c1.932-0.096,2.094,0.684,1.854,2.271c-2.114,14.05-12.421,24.186-26.558,25.932
		c-8.047,0.994-15.74-0.297-23.043-3.884c-8.675-4.262-14.053-11.162-16.503-20.437c-3.184-12.056-2.235-23.783,3.623-34.796
		c7.096-13.34,20.951-17.849,33.281-16.909c4.535,0.346,9.238,0.935,13.436,3.323c6.604,3.759,10.886,9.291,13.731,16.269
		c0.963,2.362,1.82,4.72,2.512,7.154c0.392,1.381,0.249,2.305-1.646,2.176c-2.336-0.159-4.691-0.038-7.039-0.038
		C395.775,87.58,395.775,87.574,395.775,87.567z"/>
	<path fill-rule="evenodd" clip-rule="evenodd" fill="#FFFFFF" d="M405.875,80.098c0-12.865,0.027-25.729-0.036-38.594
		c-0.008-1.622,0.501-2.051,2.062-2.025c5.177,0.085,10.357,0.113,15.533-0.008c1.798-0.042,2.119,0.611,2.092,2.227
		c-0.093,5.419,0.075,10.845-0.09,16.261c-0.07,2.325,0.363,3.388,2.976,3.089c2.316-0.265,4.688-0.005,7.032-0.075
		c1.246-0.037,1.729,0.374,1.698,1.664c-0.071,2.992-0.07,5.988,0,8.98c0.028,1.212-0.462,1.504-1.569,1.483
		c-2.912-0.056-5.826,0.02-8.737-0.04c-1.133-0.023-1.565,0.328-1.563,1.506c0.026,12.541,0.026,25.082-0.01,37.623
		c-0.004,1.281,0.77,1.875,1.648,2.469c2.635,1.777,5.665,1.801,8.647,1.765c1.69-0.021,2.234,0.478,2.181,2.188
		c-0.123,3.881-0.039,7.767-0.057,11.65c-0.004,0.766,0.234,1.729-1.073,1.701c-7.082-0.15-14.255,0.794-21.138-1.754
		c-1.9-0.704-3.735-1.535-5.368-2.766c-3.076-2.32-4.368-5.391-4.345-9.241c0.075-12.701,0.028-25.403,0.028-38.104
		C405.816,80.098,405.846,80.098,405.875,80.098z"/>
</g>
</svg>
