<?xml version="1.0" encoding="utf-8"?>
<!-- Generator: Adobe Illustrator 19.0.0, SVG Export Plug-In . SVG Version: 6.00 Build 0)  -->
<svg version="1.1" id="Ebene_1" xmlns="http://www.w3.org/2000/svg" xmlns:xlink="http://www.w3.org/1999/xlink" x="0px" y="0px"
	 viewBox="0 0 501.6 215.9" style="enable-background:new 0 0 501.6 215.9;" xml:space="preserve">
<style type="text/css">
	.st0{fill-rule:evenodd;clip-rule:evenodd;fill:#FFFFFF;}
</style>
<path class="st0" d="M8.5,87.7c1.9-2.4,1.9-5.5,2.7-8.3c9-28.5,27.2-48.9,54.1-61.5c16.5-7.7,34.1-10.7,52.2-8.3
	c37.2,4.9,63.9,24.7,79.9,58.6c3.3,6.9,5.3,14.4,6.7,21.9c0.1,0.4,0,0.8,0,1.7c-2.9-2.3-5.5-4.4-8.1-6.5c-4.2-3.4-8.6-6.5-13.6-8.8
	c-6.7-3.1-12.8-2.3-18.6,2.1c-5,3.9-9.3,8.5-13.7,13c-3.1,3.2-6.2,6.3-9.7,9.1c-6.8,5.4-13,6-20.6,1.9c-4.6-2.5-8.8-5.7-12.7-9.2
	c-1.5-1.4-3.1-1.9-5.2-1.9c-31.1,0.1-62.3,0.1-93.4,0.1C8.5,90.3,8.5,89,8.5,87.7z"/>
<path class="st0" d="M494.2,61.5c-2.1,5-3.3,10.2-4.9,15.4c-5,16.4-9.8,32.8-14.7,49.2c-0.3,1-0.6,1.6-1.9,1.6
	c-5.5-0.1-11-0.2-16.5-0.2c-1.4,0-2-0.5-2.4-1.8c-7.3-22.2-14.5-44.5-21.9-66.7c-0.6-1.7,0-1.9,1.4-1.9c4.6,0.1,9.2,0.1,13.8,0
	c1.9-0.1,2.7,0.6,3.2,2.3c4.1,13.6,8.3,27.2,12.5,40.7c0.3,0.8,0.2,1.8,1.3,2.6c1.3-4.2,2.6-8.2,3.8-12.3c3.2-10.5,6.5-21,9.6-31.5
	c0.4-1.4,1-1.9,2.5-1.9c4.7,0.1,9.4,0,14.1,0C494.2,58.6,494.2,60,494.2,61.5z"/>
<path class="st0" d="M57.6,124.7c15.2,0,30.4,0,45.6,0c1.5,0,2.6,0.4,3.7,1.4c4.1,3.5,8.4,6.9,13.1,9.6c7.5,4.3,14.4,3.7,21-1.9
	c5.1-4.2,9.5-9.1,14.1-13.7c3.4-3.4,6.9-6.8,11-9.5c4.7-3.1,9.7-3.2,14.8-1.6c5.3,1.6,9.7,5.1,14.1,8.4c2.7,2.1,5.2,4.3,8,6.4
	c1.3,1,1.6,2.1,1.3,3.5c-6.2,30-22.5,52.7-49,68c-11.4,6.6-23.7,10.4-36.8,12.1c-44.4,5.6-88.3-20.6-104.6-64.6
	c-1.9-5.2-3.2-10.5-4.3-15.9c-0.3-1.7,0-2.2,1.9-2.2C26.8,124.7,42.2,124.7,57.6,124.7z"/>
<path class="st0" d="M333.6,126.4c-1.4-3.9-2.6-7.8-3.9-11.8c-8.5-26.6-18.4-52.7-27.7-79c-0.5-1.4-1.2-1.8-2.6-1.8
	c-3.4,0.1-6.8,0-10.2,0c0,0,0,0.1,0,0.1c-3.3,0-6.6,0.1-9.9,0c-1.6,0-2.4,0.4-3,2c-2.9,8.4-5.9,16.7-8.8,25.1
	c-7.7,21.8-15.4,43.7-23.1,65.5c-0.6,1.6-0.4,2.1,1.4,2c6-0.1,12-0.1,18,0c1.5,0,2.2-0.5,2.8-1.9c2-5.7,4.2-11.3,6.3-17
	c0.5-1.3,1-2,2.5-1.9c9.5,0.1,18.9,0.1,28.4,0c1.4,0,2,0.5,2.4,1.8c1.8,5.7,3.8,11.3,5.6,17c0.4,1.3,1,1.8,2.4,1.8
	c6.1-0.1,12.1-0.1,18.2,0C333.8,128.2,334.1,127.8,333.6,126.4z M299.1,90.8c-6.2-0.1-12.4,0-18.7,0c-1.1,0-1.9,0.1-1.5-1.5
	c3.3-10.8,6.6-21.7,9.9-32.6c0,0,0.1,0,0.5-0.1c2,3.7,2.9,7.8,4.2,11.8c2.3,6.8,4.4,13.6,6.7,20.4C300.8,90.2,301,90.8,299.1,90.8z"
	/>
<path class="st0" d="M388.8,83.8c-0.3,0-0.7,0-1,0c-4.8,0.5-8.4-0.5-11.3-5.2c-4.6-7.4-17-7.6-22.5,0.1c-5.8,8.2-6.7,20.9-1.5,29.4
	c3,5,7.4,7.5,13.3,7.3c5.9-0.2,9.5-3.7,11.6-8.6c1.5-3.4,3.4-4.2,6.7-4c3.6,0.2,7.3,0.1,10.9-0.1c1.9-0.1,2.1,0.7,1.9,2.3
	c-2.1,14-12.4,24.2-26.6,25.9c-8,1-15.7-0.3-23-3.9c-8.7-4.3-14.1-11.2-16.5-20.4c-3.2-12.1-2.2-23.8,3.6-34.8
	c7.1-13.3,21-17.8,33.3-16.9c4.5,0.3,9.2,0.9,13.4,3.3c6.6,3.8,10.9,9.3,13.7,16.3c1,2.4,1.8,4.7,2.5,7.2c0.4,1.4,0.2,2.3-1.6,2.2
	C393.5,83.7,391.1,83.8,388.8,83.8C388.8,83.8,388.8,83.8,388.8,83.8z"/>
<path class="st0" d="M398.9,76.3c0-12.9,0-25.7,0-38.6c0-1.6,0.5-2.1,2.1-2c5.2,0.1,10.4,0.1,15.5,0c1.8,0,2.1,0.6,2.1,2.2
	c-0.1,5.4,0.1,10.8-0.1,16.3c-0.1,2.3,0.4,3.4,3,3.1c2.3-0.3,4.7,0,7-0.1c1.2,0,1.7,0.4,1.7,1.7c-0.1,3-0.1,6,0,9
	c0,1.2-0.5,1.5-1.6,1.5c-2.9-0.1-5.8,0-8.7,0c-1.1,0-1.6,0.3-1.6,1.5c0,12.5,0,25.1,0,37.6c0,1.3,0.8,1.9,1.6,2.5
	c2.6,1.8,5.7,1.8,8.6,1.8c1.7,0,2.2,0.5,2.2,2.2c-0.1,3.9,0,7.8-0.1,11.7c0,0.8,0.2,1.7-1.1,1.7c-7.1-0.2-14.3,0.8-21.1-1.8
	c-1.9-0.7-3.7-1.5-5.4-2.8c-3.1-2.3-4.4-5.4-4.3-9.2C398.8,101.7,398.8,89,398.9,76.3C398.8,76.3,398.8,76.3,398.9,76.3z"/>
</svg>
