<?xml version="1.0" encoding="utf-8"?>
<!-- Generator: Adobe Illustrator 16.0.3, SVG Export Plug-In . SVG Version: 6.00 Build 0)  -->
<!DOCTYPE svg PUBLIC "-//W3C//DTD SVG 1.1//EN" "http://www.w3.org/Graphics/SVG/1.1/DTD/svg11.dtd">
<svg version="1.1" id="Ebene_1" xmlns="http://www.w3.org/2000/svg" xmlns:xlink="http://www.w3.org/1999/xlink" x="0px" y="0px"
	 width="257.5px" height="52px" viewBox="0 0 257.5 52" enable-background="new 0 0 257.5 52" xml:space="preserve">
<path fill-rule="evenodd" clip-rule="evenodd" fill="#FFFFFF" d="M64.124,31.156c-0.449,7.879-4.067,12.299-9.091,15.757
	c-5.177,3.563-10.093,3.689-14.732-0.212c-4.17-3.508-7.775-7.702-11.53-11.688c-2.62-2.779-4.95-5.84-7.632-8.555
	c-3.434-3.478-7.583-5.272-12.636-4.621c-1.274,0.165-2.621-0.233-4.51-0.433C17.672,6.918,33.557,7.021,42.089,21.297
	c1.517,2.538,3.57,4.81,5.635,6.955C51.917,32.607,56.69,35.221,64.124,31.156z"/>
<path fill-rule="evenodd" clip-rule="evenodd" fill="#FFFFFF" d="M102.193,32.926c-1.739,7.232-5.257,11.979-11.022,14.793
	c-5.125,2.5-9.868,0.889-13.604-3.011c-4.928-5.143-9.576-10.558-14.25-15.938c-4.372-5.033-9.398-8.381-16.468-7.31
	c-0.695,0.105-1.471-0.327-2.339-0.542c8.277-11.936,25.648-12.887,34.279-2.13c1.972,2.457,3.594,5.199,5.624,7.602
	C88.821,31.613,93.611,36.18,102.193,32.926z"/>
<path fill-rule="evenodd" clip-rule="evenodd" fill="#FFFFFF" d="M109.625,10.938l-15.188-0.063l-0.063,3.063L109.896,14
	c0,0,0.604,0.563,0.542,3l-12.313,0.063c0,0-4,0-4.188,3.75v5c0,0,0.042,4.25,4.5,4.188h14.938V15.25
	C113.375,15.25,113.5,10.938,109.625,10.938z M110.534,21.052v5.583c-0.19,1.552-1.583,1.375-1.583,1.375H98.759
	c0,0-1.625,0.167-1.583-1.375v-5.583c0,0-0.375-1.833,1.542-2.125l5.018,0.026h0.238l5.018-0.026
	C110.909,19.219,110.534,21.052,110.534,21.052z"/>
<path fill-rule="evenodd" clip-rule="evenodd" fill="#FFFFFF" d="M173.958,10.938l-15.188-0.063l-0.063,3.063L174.229,14
	c0,0,0.604,0.563,0.542,3l-12.313,0.063c0,0-4,0-4.188,3.75v5c0,0,0.042,4.25,4.5,4.188h14.938V15.25
	C177.708,15.25,177.833,10.938,173.958,10.938z M174.867,21.052v5.583c-0.19,1.552-1.583,1.375-1.583,1.375h-10.191
	c0,0-1.625,0.167-1.583-1.375v-5.583c0,0-0.375-1.833,1.542-2.125l5.018,0.026h0.238l5.018-0.026
	C175.242,19.219,174.867,21.052,174.867,21.052z"/>
<path fill-rule="evenodd" clip-rule="evenodd" fill="#FFFFFF" d="M132.563,5.016c0.002,0.233,0.005,5.863,0,6.125l-12.313,0.091
	c0,0-4,0-4.188,5.464v7.286c0,0,0.042,6.193,4.5,6.102H135.5V5L132.563,5.016z M132.659,17.045v8.135
	c-0.19,2.262-1.583,2.004-1.583,2.004h-10.191c0,0-1.625,0.242-1.583-2.004v-8.135c0,0-0.375-2.671,1.542-3.097l5.018,0.038h0.238
	l5.018-0.038C133.034,14.374,132.659,17.045,132.659,17.045z"/>
<rect x="151.625" y="11.875" fill-rule="evenodd" clip-rule="evenodd" fill="#FFFFFF" width="3.375" height="18.063"/>
<rect x="151.625" y="6.313" fill-rule="evenodd" clip-rule="evenodd" fill="#FFFFFF" width="3.375" height="3.563"/>
<path fill-rule="evenodd" clip-rule="evenodd" fill="#FFFFFF" d="M142.938,11.938c-0.843,0.037-1.229,0.463-1.354,0.64v-0.702
	h-3.375v18.063h3.375V14.465c0.216-0.317,1.073-0.465,1.073-0.465l7.313,0.031l0.031-2L142.938,11.938z"/>
<path fill-rule="evenodd" clip-rule="evenodd" fill="#FFFFFF" d="M200.25,11.521l-8.75-0.063c-1.39,0-2.309,0.332-2.917,0.74V4.167
	h-9V30.25h9v-1.214c0.936,1.38,1.713,1.282,1.713,1.282l10.891,0.016c2.938,0,3.313-4.125,3.313-4.125v-9.688
	C204.5,11.521,200.25,11.521,200.25,11.521z M196.083,24.104v1.463c0,0-0.13,1.141-2.099,1.141h-4.031c0,0-1.135-0.063-1.036-2.188
	v-8.5c0,0-0.167-1.375,2.25-1.375h2.667c0,0,2.26-0.094,2.25,1.542V24.104z"/>
<path fill-rule="evenodd" clip-rule="evenodd" fill="#FFFFFF" d="M206.438,10.625h9.5v13.25c0,0,0.125,2.813,3.063,2.813
	c0,0,3.438,0.219,3.438-2.813V10.688h8.896v19.229h-7.25v-2.292c0,0-1.291,1.979-3.708,2.333c0,0-7.688,1.021-11.938-1.458
	c0,0-1.854-0.813-1.854-3.417L206.438,10.625z"/>
<path fill-rule="evenodd" clip-rule="evenodd" fill="#FFFFFF" d="M256.042,14.094v-3.219h-16.834c0,0-5.208-0.188-5.458,6.292
	c0,0-0.5,6.802,3.844,6.75h9.781c0,0,1.234-0.089,1.234,1.13c0,0,0.016,1.099-1.13,1.099h-13.636v3.885h17.063c0,0,6,0,6-4.75
	v-5.156c0,0,0.406-3.875-5.875-3.875h-7.969c0,0-1.297,0.141-1.297-1.109c0,0,0.063-1,0.953-1.047h12.469H256.042z"/>
</svg>
