<?xml version="1.0" encoding="utf-8"?>
<!-- Generator: Adobe Illustrator 16.0.3, SVG Export Plug-In . SVG Version: 6.00 Build 0)  -->
<!DOCTYPE svg PUBLIC "-//W3C//DTD SVG 1.1//EN" "http://www.w3.org/Graphics/SVG/1.1/DTD/svg11.dtd">
<svg version="1.1" id="Ebene_1" xmlns="http://www.w3.org/2000/svg" xmlns:xlink="http://www.w3.org/1999/xlink" x="0px" y="0px"
	 width="160.668px" height="62.574px" viewBox="0 0 160.668 62.574" enable-background="new 0 0 160.668 62.574"
	 xml:space="preserve">
<rect x="59.418" y="15.625" fill-rule="evenodd" clip-rule="evenodd" fill="#FFFFFF" width="17" height="45.875"/>
<polygon fill-rule="evenodd" clip-rule="evenodd" fill="#FFFFFF" points="71.971,0.458 71.971,3.625 70.313,3.625 70.313,0.438 
	65.334,0.438 65.334,3.625 63.689,3.625 63.689,0.458 59.314,0.458 59.314,13.625 60.23,13.625 63.689,13.625 71.971,13.625 
	74.762,13.625 76.346,13.625 76.346,0.458 "/>
<g>
	<path fill="#FFFFFF" d="M93.309,20.596c2.025-2.992,5.944-7.43,14.045-7.43c6.074,0,10.896,3.086,12.923,8.011h0.192
		c1.74-2.411,3.861-4.343,6.079-5.694c2.604-1.539,5.497-2.317,8.969-2.317c9.065,0,15.915,6.37,15.915,20.45v27.778h-14.274V35.737
		c0-6.849-2.218-10.799-6.946-10.799c-3.373,0-5.788,2.31-6.75,5.113c-0.384,1.06-0.577,2.6-0.577,3.762v27.581h-14.278V34.967
		c0-5.976-2.119-10.028-6.75-10.028c-3.761,0-5.979,2.891-6.848,5.302c-0.481,1.162-0.577,2.506-0.577,3.667v27.487H79.668V29.274
		c0-5.883,0-10.815,0-15.047h13.625L93.309,20.596z"/>
</g>
<g>
	<path fill="#FFFFFF" d="M20.75,29.453L7.67,29.49c0.078-4.708,0.857-11.001,7.3-14.99c3.614-2.237,9.218-3.023,16.296-3.023
		c6.429,0,11.217,0.682,14.364,2.045c3.146,1.363,5.361,3.094,6.643,5.192c1.283,2.099,1.924,5.951,1.924,11.557l-0.154,15.071
		c0,4.288,0.23,7.45,0.693,9.488c0.461,2.036,1.325,4.219,2.59,6.547H43.065c-0.376-0.857-0.838-2.129-1.385-3.813
		c-0.24-0.766-0.41-1.271-0.513-1.517c-2.461,2.144-5.095,3.752-7.899,4.825c-2.805,1.072-5.797,1.608-8.978,1.608
		c-5.608,0-10.028-1.363-13.261-4.09c-3.232-2.727-4.847-6.173-4.847-10.339c0-2.757,0.735-5.215,2.206-7.375
		c1.471-2.159,3.531-3.813,6.181-4.962c2.651-1.148,6.473-2.152,11.465-3.011c6.738-1.133,11.405-2.188,14.005-3.169v-1.288
		c0-2.48-0.684-4.249-2.052-5.306c-1.369-1.056-3.95-1.584-7.746-1.584c-2.564,0-4.925,0.277-6.257,1.3
		C21.052,24.906,21.64,27.187,20.75,29.453z M40.039,37.943c-1.847,0.551-4.771,1.211-8.772,1.977
		c-4.001,0.766-6.617,1.516-7.848,2.251c-1.881,1.195-2.821,2.711-2.821,4.549c0,1.807,0.752,3.369,2.257,4.688
		c1.505,1.316,3.42,1.974,5.745,1.974c2.6,0,5.079-0.765,7.438-2.296c1.744-1.163,2.89-2.589,3.437-4.274
		c0.376-1.101,0.564-3.199,0.564-6.293V37.943z"/>
</g>
</svg>
