<?xml version="1.0" encoding="utf-8"?>
<!-- Generator: Adobe Illustrator 16.0.3, SVG Export Plug-In . SVG Version: 6.00 Build 0)  -->
<!DOCTYPE svg PUBLIC "-//W3C//DTD SVG 1.1//EN" "http://www.w3.org/Graphics/SVG/1.1/DTD/svg11.dtd">
<svg version="1.1" id="Ebene_1" xmlns="http://www.w3.org/2000/svg" xmlns:xlink="http://www.w3.org/1999/xlink" x="0px" y="0px"
	 width="470.667px" height="244.487px" viewBox="0 0 470.667 244.487" enable-background="new 0 0 470.667 244.487"
	 xml:space="preserve">
<path fill="none" stroke="#FFFFFF" stroke-width="3" stroke-miterlimit="10" d="M80.076,87.784L56.576,7.61
	c0,0,64,13.979,81.5,45.773c0,0,37.5,25.539,111.5,18.242c0,0,41-4.69,49.75,16.158c0,0,3,5.473-2.875,8.73
	c0,0,135.125,51.731,170.625,47.562c0,0,5.5,76.619-194,72.449c0,0-62.75-3.859-75.75,20.352c0,0-7.25-13.576-69.75-18.788
	c0,0-113.499-5.733-124-5.212v-16.158h35.5L80.076,87.784z"/>
<path fill="#FFFFFF" stroke="#FFFFFF" stroke-width="3" stroke-miterlimit="10" d="M99.482,84.069c0,0-13.375,0.625-17.125,15
	l-36.125,98.75c0,0-0.25,4.167-10.417,4.25l-24,0.25v5.333h54c0,0,11.333,1.668,17.333-18.666l14.583-40.417h8.5l-23.5,59.116h33
	l45-123.616H99.482z M109.982,139.819l-1.063,2.25l-9.059-0.375l13.872-38.125c0,0,1.563-4.75,6.944-2.587
	c0,0,3.431,0.837,1.743,6.587L109.982,139.819z"/>
<path fill="#FFFFFF" stroke="#FFFFFF" stroke-width="3" stroke-miterlimit="10" d="M273.315,168.819c0,0-5.666-14.667-14-21.167
	c0,0,9.918-8.47,14.168-22.276l13.75-40.057l-59.5-1.25c0,0-12.583-1.833-19.417,23.75l-34.083,88c0,0-3.5,6.751-11.75,5.583
	l-4.417-1l44.167-116.333h-26.75l-46.5,122.25l63,1.366c0,0,14.75,0.134,18.75-17.616c0,0,12.469-44.438,19.25-43
	c0,0,2.375-0.806,10.125,16.75l18.207,44.667h30.334h2L273.315,168.819z M246.883,105.288l-8.543,25.866c0,0-1.57,5.965-4.303,6.957
	c0,0-6.033,1.393-4.114-4.84l9.399-30.524c0,0,1.031-3.793,5.697-2.463C245.02,100.284,247.961,100.711,246.883,105.288z"/>
</svg>
