<?xml version="1.0" encoding="utf-8"?>
<!-- Generator: Adobe Illustrator 16.0.3, SVG Export Plug-In . SVG Version: 6.00 Build 0)  -->
<!DOCTYPE svg PUBLIC "-//W3C//DTD SVG 1.1//EN" "http://www.w3.org/Graphics/SVG/1.1/DTD/svg11.dtd">
<svg version="1.1" id="Ebene_1" xmlns="http://www.w3.org/2000/svg" xmlns:xlink="http://www.w3.org/1999/xlink" x="0px" y="0px"
	 width="391.5px" height="106.5px" viewBox="0 0 391.5 106.5" enable-background="new 0 0 391.5 106.5" xml:space="preserve">
<g>
	<path fill-rule="evenodd" clip-rule="evenodd" fill="#FFFFFF" d="M267.485,103.52c-12.536,0-24.31,0-36.664,0
		c-0.104-1.999-0.287-3.922-0.29-5.845c-0.022-15.832,0.02-31.664-0.046-47.495c-0.01-2.478,0.123-5.236-0.891-7.347
		c-0.923-1.92-3.244-4.238-5.077-4.354c-1.895-0.119-4.749,1.767-5.724,3.566c-1.262,2.33-1.438,5.439-1.459,8.219
		c-0.121,15.831-0.056,31.663-0.055,47.495c0,1.792,0,3.585,0,5.685c-12.431,0-24.358,0-36.838,0
		c-0.145-1.869-0.418-3.789-0.422-5.71c-0.035-15.831-0.019-31.663-0.021-47.495c0-1.166,0.015-2.335-0.044-3.499
		c-0.292-5.813-2.357-8.637-6.252-8.589c-3.714,0.045-6.424,3.177-6.486,8.619c-0.196,16.829-0.119,33.661-0.147,50.492
		c-0.003,1.955-0.001,3.909-0.001,6.176c-12.565,0-24.495,0-36.863,0c-0.139-1.139-0.423-2.394-0.425-3.648
		c-0.025-19.498-0.199-38.998,0.037-58.494c0.256-21.013,14.486-37.114,34.958-39.628c10.82-1.329,20.356,2.223,28.718,9.07
		c1.786,1.462,3.511,3,5.373,4.596c2.136-1.713,4.057-3.288,6.014-4.816c12.175-9.512,25.576-11.921,39.885-5.913
		c13.962,5.861,21.375,17.309,22.138,31.922c1.007,19.282,0.463,38.645,0.58,57.973C267.5,97.314,267.485,100.132,267.485,103.52z"
		/>
	<path fill-rule="evenodd" clip-rule="evenodd" fill="#FFFFFF" d="M106.514,103.49c-12.084,0-24.005,0-36.43,0
		c-0.085-1.9-0.23-3.673-0.233-5.446c-0.021-12.994,0.048-25.989-0.06-38.982c-0.024-2.965-0.221-6.042-1.037-8.865
		c-2.437-8.42-9.792-12.467-17.831-10.156c-7.604,2.187-12.406,10.793-10.385,18.61c2.009,7.772,9.739,12.128,17.981,10.119
		c1.424-0.348,2.832-0.754,4.709-1.257c0,11.858,0.092,23.334-0.143,34.803c-0.023,1.142-1.945,3.117-3.133,3.235
		C29.549,108.589,6.445,88.103,2.862,62.231C-1.063,33.877,15.8,8.621,42.713,2.741c13.066-2.854,25.965-1.695,38.021,4.213
		c18.357,8.995,25.509,25.138,26.189,44.465c0.58,16.473,0.133,32.981,0.107,49.475C107.029,101.686,106.724,102.477,106.514,103.49
		z"/>
	<path fill-rule="evenodd" clip-rule="evenodd" fill="#FFFFFF" d="M389.603,103.494c-12.54,0-24.313,0-36.69,0
		c-0.1-1.742-0.283-3.493-0.287-5.245c-0.024-13.161,0.055-26.323-0.063-39.483c-0.027-2.965-0.316-6.038-1.152-8.863
		c-2.364-7.992-9.748-12.016-17.601-9.933c-7.671,2.034-12.463,10.389-10.579,18.44c1.795,7.667,9.227,12.229,17.264,10.536
		c1.591-0.335,3.131-0.911,5.074-1.488c0.188,1.325,0.472,2.409,0.476,3.493c0.035,9.996-0.058,19.993,0.071,29.987
		c0.039,3.001-0.706,4.485-4.029,4.851c-27.495,3.023-53.315-16.853-56.471-43.628c-3.641-30.886,15.172-56.838,44.253-59.933
		c8.108-0.863,16.736-0.28,24.69,1.541c19.103,4.373,31.775,19.906,34.489,40.716c0.536,4.111,0.517,8.313,0.532,12.473
		C389.637,72.27,389.603,87.581,389.603,103.494z"/>
</g>
</svg>
