<?xml version="1.0" encoding="utf-8"?>
<!-- Generator: Adobe Illustrator 16.0.3, SVG Export Plug-In . SVG Version: 6.00 Build 0)  -->
<!DOCTYPE svg PUBLIC "-//W3C//DTD SVG 1.1//EN" "http://www.w3.org/Graphics/SVG/1.1/DTD/svg11.dtd">
<svg version="1.1" id="Ebene_1" xmlns="http://www.w3.org/2000/svg" xmlns:xlink="http://www.w3.org/1999/xlink" x="0px" y="0px"
	 width="268px" height="93.5px" viewBox="0 0 268 93.5" enable-background="new 0 0 268 93.5" xml:space="preserve">
<path fill="#FFFFFF" stroke="#FFFFFF" stroke-miterlimit="10" d="M77,2.083h-8.875l-11.5,32h8.5l1.375-4h11l1.625,4h8.75L77,2.083z
	 M68.584,22.083L72.25,11.5l3.833,10.583H68.584z"/>
<path fill="#FFFFFF" stroke="#FFFFFF" stroke-miterlimit="10" d="M144.022,2.083h-8.875l-11.5,32h8.5l1.375-4h11l1.625,4h8.751
	L144.022,2.083z M135.606,22.083l3.667-10.583l3.833,10.583H135.606z"/>
<path fill="#FFFFFF" stroke="#FFFFFF" stroke-width="1.0518" stroke-miterlimit="10" d="M190.584,1.417
	c-8.698,0-15.75,7.313-15.75,16.333s7.052,16.333,15.75,16.333s15.75-7.313,15.75-16.333S199.282,1.417,190.584,1.417z
	 M190.584,26.521c-4.671,0-8.458-3.927-8.458-8.771s3.787-8.771,8.458-8.771s8.458,3.927,8.458,8.771S195.255,26.521,190.584,26.521
	z"/>
<polygon fill="#FFFFFF" stroke="#FFFFFF" stroke-width="1.0518" stroke-miterlimit="10" points="89.5,34.083 93.375,1.75 
	99.75,1.75 105.625,17.75 111.375,1.75 117.625,1.75 122.25,34.083 114.25,34.083 112.5,17.917 105.875,34.083 98.875,19 
	97.5,34.083 "/>
<path fill="#FFFFFF" stroke="#FFFFFF" stroke-width="1.0518" stroke-miterlimit="10" d="M173.478,26.341
	c-0.993,0.327-2.06,0.514-3.174,0.514c-5.238,0-9.485-3.927-9.485-8.771s4.247-8.771,9.485-8.771c1.114,0,2.181,0.187,3.174,0.514
	V2.027c-1.032-0.173-2.089-0.277-3.174-0.277c-9.755,0-17.663,7.313-17.663,16.333s7.908,16.333,17.663,16.333
	c1.085,0,2.142-0.104,3.174-0.277V26.341z"/>
<g>
	<g>
		<path fill="#FFFFFF" d="M4.606,38.717c0.111,4.761,0.895,9.442,1.344,14.176c0.299,3.148-0.055,6.39,1.026,9.418
			c1.423,3.986,6.33,3.765,9.756,4.464c2.36,0.482,3.366-3.132,0.997-3.615c-4.209-0.859-7.356-0.17-7.808-5.255
			c-0.564-6.343-1.417-12.821-1.565-19.188C8.3,36.303,4.55,36.297,4.606,38.717L4.606,38.717z"/>
	</g>
</g>
<g>
	<g>
		<path fill="#FFFFFF" d="M22.106,65.967c0.198-5.548,3.546-7.131,7.351-10.378c4.583-3.912,7.624-8.051,14.177-8.506
			c10.873-0.755,15.855,11.922,16.725,20.615c0.373,3.725-0.063,7.106-2.907,9.739c-3.905,3.615-11.35,4.955-16.437,5.631
			c-2.704,0.358-5.461,0.269-8.182,0.358c-4.427,0.145-6.67-1.969-8.792-5.52c-2.663-4.455-3.353-10.108-3.436-15.19
			c-0.039-2.416-3.79-2.42-3.75,0c0.104,6.416,1.34,12.72,4.661,18.276c4.111,6.879,10.744,6.366,17.876,5.977
			c11.241-0.616,25.11-4.903,24.795-18.069C63.911,57.303,57.472,44.76,44.928,43.36c-7.094-0.792-12.485,4.017-17.1,8.613
			c-4.853,4.833-9.202,6.455-9.472,13.994C18.27,68.386,22.02,68.378,22.106,65.967L22.106,65.967z"/>
	</g>
</g>
<g>
	<g>
		<path fill="#FFFFFF" d="M36.146,50.722c1.916-0.32,4.246-0.541,6.029,0.386c2.856,1.486,5.385-2.829,2.523-4.316
			c-3.086-1.606-6.544-1.448-9.882-0.891C31.642,46.43,32.993,51.247,36.146,50.722L36.146,50.722z"/>
	</g>
</g>
<g>
	<g>
		<path fill="#FFFFFF" d="M42.39,87.822c4.22-0.334,8.494-1.157,11.818-3.943c2.475-2.073-1.082-5.592-3.535-3.535
			c-2.194,1.838-5.534,2.261-8.283,2.479C39.198,83.075,39.173,88.077,42.39,87.822L42.39,87.822z"/>
	</g>
</g>
<g>
	<g>
		<path fill="#FFFFFF" d="M43.981,63.092c-3.431,0.151-5.847,3.867-5.058,7.123c0.262,1.082,1.79,1.85,2.754,1.121
			c0.993-0.75,1.52-1.644,2.173-2.673c1.3-2.048-1.947-3.928-3.238-1.893c-0.24,0.378-0.466,1.055-0.827,1.327
			c0.918,0.374,1.836,0.747,2.754,1.121c-0.151-0.625,0.544-2.337,1.442-2.377C46.39,66.735,46.4,62.984,43.981,63.092
			L43.981,63.092z"/>
	</g>
</g>
<g>
	<g>
		<path fill="#FFFFFF" d="M62.481,78.092c22.25,0.043,44.547,0.811,66.791,1.337c10.96,0.26,21.786,0.626,32.732-0.305
			c9.685-0.824,18.036-5.27,27.476-6.85c2.382-0.398,1.368-4.012-0.996-3.615c-4.501,0.753-8.704,2.325-12.977,3.88
			c-4.97,1.808-10.072,2.543-15.328,2.99c-10.957,0.932-21.875,0.363-32.842,0.104c-21.598-0.511-43.25-1.249-64.855-1.291
			C60.063,74.337,60.063,78.087,62.481,78.092L62.481,78.092z"/>
	</g>
</g>
<g>
	<g>
		<path fill="#FFFFFF" d="M190.856,70.467c-0.54-5.53,4.211-11.141,7.246-15.52c1.783-2.571,1.583-1.854,3.963-1.854
			c1.425,0,2.72-0.756,3.54-1.86c3.943-5.313,15.749-4.748,20.992-2.252c4.846,2.307,6.83,8.922,7.988,13.702
			c1.15,4.75,1.207,9.813-0.061,14.536c-1.907,7.104-8.287,9.629-15.044,10.429c-6.703,0.793-13.825-1.066-20.176-3.069
			c-6.32-1.994-8.562-5.851-8.699-12.361c-0.051-2.415-3.802-2.42-3.75,0c0.127,5.973,1.605,11.015,7.003,14.138
			c7.151,4.138,17.525,5.551,25.622,5.043c15.721-0.987,21.292-13.273,19.16-27.469c-0.872-5.804-3.219-12.203-7.514-16.344
			c-6.028-5.812-16.107-4.345-23.325-2.247c-1.344,0.391-2.491,0.875-3.639,1.655c-1.07,0.728-1.335,2.666-2.562,1.986
			c-2.007-1.111-3.785,0.344-5.04,1.816c-4.262,5-10.124,12.83-9.456,19.671C187.339,72.851,191.092,72.873,190.856,70.467
			L190.856,70.467z"/>
	</g>
</g>
<g>
	<g>
		<path fill="#FFFFFF" d="M213.155,66.891c-1.447,1.49-2.311,3.221-1.981,5.324c0.124,0.799,1.048,1.394,1.808,1.377
			c1.72-0.038,3.476-0.674,4.576-2.049c0.638-0.798,0.782-1.87,0-2.652c-0.663-0.662-2.013-0.799-2.652,0
			c-0.341,0.428-0.492,0.539-0.873,0.744c0.139-0.044,0.099-0.027-0.12,0.047c-0.131,0.044-0.264,0.081-0.398,0.111
			c-0.232,0.043-0.271,0.053-0.116,0.03c-0.139,0.013-0.277,0.019-0.416,0.019c0.603,0.459,1.205,0.918,1.808,1.377
			c0.047,0.298,0.058-0.346,0.008-0.04c0.049-0.302,0.083-0.356,0.185-0.556c0.223-0.441,0.483-0.728,0.826-1.08
			C217.493,67.809,214.844,65.154,213.155,66.891L213.155,66.891z"/>
	</g>
</g>
<g>
	<g>
		<path fill="#FFFFFF" d="M217.243,91.125c2.745-1.56,5.266-4.284,8.403-4.997c3.144-0.716,1.81-5.536-1.33-4.822
			c-3.652,0.831-6.424,3.699-9.597,5.503C211.918,88.401,214.436,92.721,217.243,91.125L217.243,91.125z"/>
	</g>
</g>
<g>
	<g>
		<path fill="#FFFFFF" d="M114.917,80.205c4.737,1.383,9.694,0.946,14.553,0.623c7.367-0.488,14.766-1.465,22.154-1.413
			c12.104,0.085,25.944-0.079,36.506-6.836c1.354-0.865,0.101-3.03-1.262-2.158c-9.988,6.389-23.734,7.017-35.244,6.494
			c-11.632-0.529-24.641,4.208-36.042,0.88C114.031,77.342,113.374,79.755,114.917,80.205L114.917,80.205z"/>
	</g>
</g>
<g>
	<g>
		<path fill="#FFFFFF" d="M238.613,73.119c7.168-3.714,16.635,0.505,23.813-3.534c3.438-1.934,1.962-7.362,1.929-10.466
			c-0.072-6.873,0.168-13.746,0.187-20.619c0.007-2.418-3.743-2.418-3.75,0c-0.015,5.357-0.14,10.714-0.184,16.071
			c-0.024,2.919-0.004,5.837,0.073,8.755c0.068,2.529,0.303,3.142-2.246,3.797c-6.985,1.794-15.117-0.661-21.715,2.758
			C234.573,70.994,236.47,74.229,238.613,73.119L238.613,73.119z"/>
	</g>
</g>
</svg>
