<?xml version="1.0" encoding="utf-8"?>
<!-- Generator: Adobe Illustrator 16.0.3, SVG Export Plug-In . SVG Version: 6.00 Build 0)  -->
<!DOCTYPE svg PUBLIC "-//W3C//DTD SVG 1.1//EN" "http://www.w3.org/Graphics/SVG/1.1/DTD/svg11.dtd">
<svg version="1.1" xmlns="http://www.w3.org/2000/svg" xmlns:xlink="http://www.w3.org/1999/xlink" x="0px" y="0px" width="282px"
	 height="63px" viewBox="0 0 282 63" enable-background="new 0 0 282 63" xml:space="preserve">
<g id="Ebene_1" display="none">
	
		<image display="inline" overflow="visible" width="280" height="100" xlink:href="../../../../../Desktop/oö.png"  transform="matrix(1 0 0 1 1.333 -7)">
	</image>
</g>
<g id="Ebene_2">
	<path fill="none" stroke="#FFFFFF" stroke-miterlimit="10" d="M187.666,25.667c0,0,63.501,24.667,25.667,24
		c0,0-142,3.667-210.667-40.667c0,0,83,62.334,239.167,47.5C241.833,56.5,331.665,48,187.666,25.667z"/>
	<polygon fill="#FFFFFF" points="58.5,62.167 91.167,8.167 88.5,6.333 107.5,6.333 110.167,61.5 111.667,62.167 97.833,62.167 
		95.833,19 72.333,60.833 74.5,62.167 	"/>
	<polygon fill="#FFFFFF" points="186.167,62.167 218.833,8.167 216.167,6.333 235.167,6.333 237.833,61.5 239.333,62.167 
		225.5,62.167 223.5,19 200,60.833 202.167,62.167 	"/>
	<path fill="#FFFFFF" d="M251.208,16.125c0,0,12.125,1.625,14.375-9h5l-2.5,8.25h13.25c0,0-1.25,6.75-5.75,9.5h-9.875l-5.625,26.875
		h13c0,0,1.25,9.084-4.5,10.417l-16.416,0.083c0,0-5.416-1.25-3.833-10l1.5-8.166l0.874-4.209l3.25-14.75h-4.625
		C249.333,25.125,250.583,22.375,251.208,16.125z"/>
	<path fill="#FFFFFF" d="M163.916,23.167c0,0,4.667-9.75,16.417-5.167c0,0,7.333,2.25,4.333,15l-6.75,27.834l1.584,1.333H166
		l6.833-28.276c0,0,1.875-5.579-2.25-7.141c0,0-7.75-2.135-9.75,7.141l-5.583,26.776l2.25,1.5h-14.833l7.666-29.833
		c0,0,1.438-5.479-4.771-5.854c0,0-5.229-0.812-7.146,4.354L131.5,60.25l2.917,1.917H119.5l9.583-39.417l0.833-3.583l-3.875-2.208
		h4.667c0,0,10.625-1.333,10.625,5.417c0,0,3.813-5.688,11.375-5.625C152.708,16.75,159.624,15.709,163.916,23.167z"/>
</g>
</svg>
