<?xml version="1.0" encoding="utf-8"?>
<!-- Generator: Adobe Illustrator 16.0.3, SVG Export Plug-In . SVG Version: 6.00 Build 0)  -->
<!DOCTYPE svg PUBLIC "-//W3C//DTD SVG 1.1//EN" "http://www.w3.org/Graphics/SVG/1.1/DTD/svg11.dtd">
<svg version="1.1" xmlns="http://www.w3.org/2000/svg" xmlns:xlink="http://www.w3.org/1999/xlink" x="0px" y="0px" width="189.5px"
	 height="115.167px" viewBox="0 0 189.5 115.167" enable-background="new 0 0 189.5 115.167" xml:space="preserve">
<g id="Ebene_1">
</g>
<g id="Ebene_2">
	<path fill="#FFFFFF" d="M91.5,68.334L78,93.834l-0.833-25.5h-51.5L3.333,113.001H20l3.5-6h15.167l0.5,6H60l6.333-23.334l3,23.334
		h8.5L92,89.667l-4.833,23.334H109l2.833-5.667H126.5v5.667h15.333V82.667h10.834L146,113.001h15.833l7-29.5h15.834l3.833-15.167
		H91.5z M36.375,97.584H25.792L36.375,78.5V97.584z M128.346,97.584h-10.584L128.346,78.5V97.584z"/>
	<g>
		<path fill="#FFFFFF" d="M89.771,33.434c-6.35-5.854-16.702-2.558-23.07,1.963l-1.826,8.27h25.479
			C92.336,40.096,92.909,36.328,89.771,33.434z"/>
		<path fill="#FFFFFF" d="M110.646,31.142c1.014-0.707,2.328-1.455,3.83-2.165c-8.066-0.303-16.131-0.633-24.036,0.915
			c1.048,1.356,1.69,3.214,1.74,5.713c0.058,2.916-0.262,5.586-0.957,8.062h9.93C102.727,38.748,105.816,34.514,110.646,31.142z"/>
		<path fill="#FFFFFF" d="M102.389,43.667h26.652l3.063-13.143c-1.84-0.949-3.871-1.378-5.973-1.396
			c-0.002,0.03-0.006,0.048-0.01,0.048c-0.549,0.012-1.098,0.014-1.646,0.017c-5.031,0.431-10.227,2.91-13.828,5.699
			C108.344,36.677,104.73,40.005,102.389,43.667z"/>
		<path fill="#FFFFFF" d="M86.564,27.323c12.918-3.653,26.342-1.354,39.557-1.647c0,0,0,0.013,0.002,0.02
			c1.693-0.122,3.316-0.032,4.773,0.329c0.016-0.058,0.033-0.101,0.061-0.107c0.783-0.184,1.564-0.367,2.346-0.546l5.404-23.204
			H74.041l-6.408,29.015C72.56,28.41,80.976,25.638,86.564,27.323z"/>
	</g>
	<g>
		<path fill="#FFFFFF" d="M161.738,22.777c-7.181-2.339-15.475-5.501-23.125-5.519c-0.025,0-0.031,3.75,0,3.75
			c3.619,0.008,7.383,0.724,11.104,1.72c-5.549,0.306-10.969,1.377-16.383,2.617l-1.2,5.153c0.886,0.457,1.731,1.024,2.511,1.743
			c6.726,6.202-3.587,16.424-8.332,20.1c-6.52,4.55-17.107,8.947-23.966,2.625c-3.46-3.191-2.406-7.445,0.074-11.325h-1.236
			c-0.906,2.835-1.313,5.896-1.248,9.153c0.284,14.326,19.767,7.91,26.376,3.297c7.421-5.749,10.924-12.517,10.742-21.678
			c-0.05-2.524-0.705-4.393-1.771-5.753c5.25-1.157,10.521-2.084,15.923-2.242c-2.636,1.249-5.063,2.875-7.108,5.212
			c-0.632,0.722,0.606,3.057,0,3.75c4.594-5.25,11.098-6.92,17.613-8.751c0.169-0.047,0.105-0.9,0.027-1.78
			C161.837,23.882,161.949,22.846,161.738,22.777z M151.881,26.11c0.001-0.018,0.002-0.032,0.002-0.051
			c0.018,0.009,0.037,0.017,0.055,0.025C151.919,26.092,151.9,26.102,151.881,26.11z"/>
		<path fill="#FFFFFF" d="M90.384,43.641c-2.269,4.083-6.383,7.906-8.913,9.867c-6.521,4.551-17.109,8.947-23.967,2.624
			c-6.725-6.203,3.586-16.424,8.332-20.1c0.288-0.223,0.59-0.443,0.896-0.662l0.932-4.215c-0.576,0.324-1.116,0.648-1.587,0.965
			c-4.577,2.154-11.404,3.456-13.313,8.678c-0.379,1.037,0.373,2.48,0,3.5c1.11-3.038,3.888-4.748,6.917-6.071
			c-3.253,4.456-4.705,9.765-4.588,15.732c0.285,14.326,19.767,7.911,26.377,3.298c5.059-3.919,8.293-8.314,9.784-13.617H90.384z"/>
	</g>
</g>
</svg>
