<?xml version="1.0" encoding="utf-8"?>
<!-- Generator: Adobe Illustrator 16.0.3, SVG Export Plug-In . SVG Version: 6.00 Build 0)  -->
<!DOCTYPE svg PUBLIC "-//W3C//DTD SVG 1.1//EN" "http://www.w3.org/Graphics/SVG/1.1/DTD/svg11.dtd">
<svg version="1.1" id="Ebene_1" xmlns="http://www.w3.org/2000/svg" xmlns:xlink="http://www.w3.org/1999/xlink" x="0px" y="0px"
	 width="353.333px" height="115.542px" viewBox="0 0 353.333 115.542" enable-background="new 0 0 353.333 115.542"
	 xml:space="preserve">
<path fill-rule="evenodd" clip-rule="evenodd" fill="#FFFFFF" d="M345.493,93.958c-2.811,4.378-5.869,9.33-9.156,14.125
	c-0.83,1.212-2.402,2.733-3.629,2.729c-11.975-0.037-24.08,0.686-35.895-0.813c-34.277-4.348-45.094-36.135-36.814-61.083
	c7.859-23.685,25.049-36.638,48.838-41.287c8.719-1.704,17.732-1.89,27.533-2.859c-1.389,8.903-2.449,16.586-3.953,24.181
	c-0.184,0.929-2.756,1.996-4.199,1.965c-8.41-0.175-16.656,0.417-24.369,4.127c-9.672,4.652-16.92,11.467-18.072,22.734
	c-1.533,14.981,7.879,26.483,23.029,27.569c11.441,0.82,22.961,0.528,34.447,0.719c1.949,0.033,3.902,0.006,6.383,0.006
	c-0.688,2.066-1.133,3.403-1.656,4.973"/>
<path fill-rule="evenodd" clip-rule="evenodd" fill="#FFFFFF" d="M112.508,112.814c1.709-11.312,3.247-21.794,4.885-32.261
	c1.823-11.646,4.06-23.237,5.541-34.925c2.687-21.202,15.902-32.842,34.938-39.198c10.942-3.653,21.379-2.426,30.5,5.198
	c2.676,2.237,4.918,2.053,7.51-0.067c9.15-7.486,19.598-8.465,30.65-5.703c16.705,4.175,26.188,17.182,24.436,34.979
	c-1.725,17.509-4.418,34.924-6.758,52.369c-0.729,5.43-1.557,10.856-2.648,16.221c-0.252,1.241-1.787,3.182-2.717,3.174
	c-7.443-0.068-14.885-0.527-23.012-0.898c0.912-7.465,1.719-14.51,2.645-21.537c1.891-14.325,3.947-28.629,5.734-42.965
	c1.088-8.712-2.092-14.216-8.303-15.173c-6.455-0.996-13.68,4.263-15.184,11.686c-2.209,10.899-4.029,21.878-5.91,32.841
	c-1.797,10.473-3.521,20.96-5.141,31.461c-0.456,2.955-1.598,4.329-4.826,4.226c-6.633-0.213-13.275-0.063-20.737-0.063
	c0.792-6.479,1.431-12.315,2.233-18.129c2.18-15.795,4.455-31.576,6.645-47.371c1.082-7.812-2.335-13.727-8.4-14.751
	c-7.303-1.233-14.52,3.999-15.799,11.892c-3.135,19.343-5.865,38.752-9.149,58.068c-1.042,6.135-0.771,8.856-1.695,10.047
	c-1.008,1.3-3.44,0.772-10.561,0.868C122.617,112.868,117.847,112.814,112.508,112.814z"/>
<path fill-rule="evenodd" clip-rule="evenodd" d="M58.49,64.305"/>
<path fill-rule="evenodd" clip-rule="evenodd" fill="#FFFFFF" d="M54.549,71.958c-1.015,0.053-3.541,0.037-4.25,0.031
	c-2.933-0.024-3.719,0.031-6.705,0.034c-2.128,0.002-4.325-0.108-6.483,0.03c-3.682,0.237-6.009,2.253-6.118,5.946
	c-0.109,3.692,1.633,6.942,5.565,7.07c11.813,0.382,23.643,0.378,35.461,0.203c1.021-0.015,2.687-2.29,2.905-3.694
	c2.881-18.543,5.541-37.122,8.292-55.686c0.973-6.558,2.044-13.102,3.114-19.929c15.184,4.445,23.428,16.291,21.196,31.77
	c-3.508,24.32-7.856,48.52-11.858,72.768c-0.052,0.315-0.231,0.609-0.543,1.4c-1.737,0.076-3.686,0.223-5.637,0.24
	c-14.155,0.123-28.357-0.461-42.454,0.51c-15.056,1.037-27.573-12.493-29.074-27.133C15.996,66.35,29.158,52.791,44.886,48.546
	c8.241-2.224,16.944-2.736,25.439-4.021"/>
<path fill-rule="evenodd" clip-rule="evenodd" fill="#FFFFFF" d="M16.22,43.938c0.448-2.771,0.736-5.58,1.372-8.307
	c2.358-10.125,7.208-13.946,17.6-13.965c13.289-0.025,26.577-0.006,40.78-0.006c-0.932,5.29-1.406,9.52-2.584,13.543
	c-0.284,0.969-2.896,1.746-4.451,1.772c-9.992,0.171-19.991,0.245-29.983,0.083c-8.253-0.134-16.517-0.69-21.913,7.865
	C16.767,44.594,16.494,44.266,16.22,43.938z"/>
<path fill-rule="evenodd" clip-rule="evenodd" fill="#FFFFFF" d="M37.176,16.625c2.416-7.993,6.255-11.084,13.296-11.108
	c9.463-0.033,18.925-0.008,29.12-0.008c-0.783,3.885-1.479,7.346-2.239,11.117C64.031,16.625,50.834,16.625,37.176,16.625z"/>
<path fill-rule="evenodd" clip-rule="evenodd" fill="none" d="M56.931,46.262c0,0-26.425-2.813-37.925,12.361
	c0,0-15.5,14.841-6.833,34.841c0,0,7.276,18.514,28.942,18.847c0,0-25.275-8.389-23.109-33.284
	C18.006,79.027,16.764,53.429,56.931,46.262z"/>
<path fill-rule="evenodd" clip-rule="evenodd" fill="#FFFFFF" d="M45.083,46.402c0,0-29.583-3.527-40.1,22.391
	c0,0-14.452,42.018,36.131,43.518c0,0-42.115-6.354-28.836-43.879C12.279,68.432,18.167,51.971,45.083,46.402z"/>
</svg>
