<?xml version="1.0" encoding="utf-8"?>
<!-- Generator: Adobe Illustrator 16.0.3, SVG Export Plug-In . SVG Version: 6.00 Build 0)  -->
<!DOCTYPE svg PUBLIC "-//W3C//DTD SVG 1.1//EN" "http://www.w3.org/Graphics/SVG/1.1/DTD/svg11.dtd">
<svg version="1.1" id="Ebene_1" xmlns="http://www.w3.org/2000/svg" xmlns:xlink="http://www.w3.org/1999/xlink" x="0px" y="0px"
	 width="424.479px" height="65.996px" viewBox="0 0 424.479 65.996" enable-background="new 0 0 424.479 65.996"
	 xml:space="preserve">
<path fill-rule="evenodd" clip-rule="evenodd" fill="#FFFFFF" d="M217.402,59.063c5.57-2.216,7.829-4.576,8.083-9.083
	c0.15-2.662,0.007-3.26-0.099-5.922c-0.182-4.63,0.624-10.651-2.151-13.495c-3.027-3.101-7.814-0.733-12.581-1.029
	c-3.637-0.226-7,0.555-7.154,4.973c-0.165,4.723,3.354,4.988,6.953,4.936c1.221-0.018,2.924-0.729,3.598,0.729
	c0.677,1.466-0.371,2.931-1.194,4.145c-4.476,6.603-16.638,5.304-20.034-2.41c-2.786-6.324-2.831-13.062,0.244-19.371
	c3.328-6.827,13.152-9.091,18.209-3.534c4.215,4.632,7.011,2.798,10.804,0.369c2.416-1.547,2.853-2.69,0.757-4.92
	c-6.535-6.953-14.51-10.076-23.868-8.562c-16.126,2.609-23.655,17.152-19.909,35.344c1.978,9.6,9.261,16.498,17.344,18.165
	C196.402,59.396,209.235,62.313,217.402,59.063z"/>
<path fill-rule="evenodd" clip-rule="evenodd" fill="#FFFFFF" d="M242.402,59.396c-13.917-4.583-16.852-15.699-12.477-28.23
	c2.924-8.379,9.262-12.324,19.072-11.875c8.383,0.384,14.334,5.305,16.336,13.508c2.063,8.452,1.948,8.604-6.583,8.601
	c-5.483-0.002-10.976,0.151-16.448-0.095c-2.727-0.122-2.58,0.916-2.002,2.861c1.975,6.654,10.316,8.906,14.496,3.224
	c3.397-4.619,5.51-2.391,8.356-0.661c2.125,1.292,1.442,3.156,0.813,4.266C256.781,63.678,242.402,59.396,242.402,59.396z
	 M247.371,34.646c0.658,0,1.278-0.015,1.906-0.063c2.047-0.156,4.25,0.813,4.889-1.617c0.687-2.612-1.834-4.459-4.385-5.246
	c-2.111-0.651-4.246-0.586-6.105,0.846c-1.589,1.223-3.54,2.74-3.035,4.73c0.588,2.321,3.126,1.203,4.715,1.317
	C245.99,34.661,246.712,34.646,247.371,34.646z"/>
<g>
	<path fill="#FFFFFF" d="M327.242,19.092c0.102,0.001,0.203,0.011,0.305,0.014c0.102-0.002,0.203-0.013,0.305-0.014H327.242z"/>
	<path fill="#FFFFFF" d="M346.691,37.085c-0.335-8.332-5.091-14.542-13.021-17.003c-1.982-0.615-4.055-0.927-6.123-0.976
		c-2.068,0.049-4.141,0.36-6.123,0.976c-7.931,2.461-12.687,8.672-13.021,17.003c-0.428,10.663,3.2,16.966,11.687,20.409
		c0,0,2.082,0.845,5.748,1.76c1.073-4.084,2.594-8.044-2.974-10.814c-3.709-1.846-4.953-8.406-3.567-13.543
		c1.071-3.972,3.16-6.782,7.499-7.069c0.286-0.019,0.566-0.026,0.842-0.022c-0.005,0-0.011,0-0.016,0h0.031
		c-0.005,0-0.011,0-0.016,0c0.275-0.003,0.556,0.003,0.842,0.022c4.339,0.288,6.428,3.097,7.499,7.069
		c1.386,5.138,0.142,11.697-3.567,13.543c-5.588,2.781-4.036,6.76-2.962,10.86c3.624-0.472,5.557-1.806,5.557-1.806
		C343.491,54.051,347.119,47.748,346.691,37.085z"/>
</g>
<path fill-rule="evenodd" clip-rule="evenodd" fill="#FFFFFF" d="M399.402,59.396c4.944-1.9,8.054-4.916,5.771-10.771
	c-0.313-0.032-0.67-0.068-0.9,0.06c-2.85,1.578-6.266,3.529-8.091-0.495c-1.924-4.242,2.327-4.981,5.102-6.191
	c1.061-0.462,2.218-0.702,3.287-1.147c3.005-1.25,3.867,0.025,3.734,2.907c-0.129,2.818,0.045,5.65-0.046,8.471
	c-0.086,2.692,0.326,5.167,3.301,5.936c3.025,0.781,5.164-0.514,6.11-3.572c-0.061-9.091-0.12-18.182-0.181-27.273
	c-0.503-5.007-4.695-6.327-8.776-7.159c-7.216-1.472-14.313-1.646-20.132,3.942c-1.579,1.516-3.032,3.842-2.053,5.89
	c0.791,1.654,3.113,1.406,4.77,1.55c2.946,0.256,5.896-0.5,7.707-3.206c0.85-1.27,2.626-1.226,4.143-1.179
	c2.193,0.069,3.261,1.219,3.498,3.408c0.247,2.273-0.989,2.774-2.882,3.084c-2.616,0.429-5.188,1.13-7.772,1.745
	c-5.741,1.365-10.404,4.22-11.317,10.471c-0.925,6.324,2.522,10.372,8.192,12.747C392.866,58.613,395.996,60.115,399.402,59.396z"/>
<path fill-rule="evenodd" clip-rule="evenodd" fill="#FFFFFF" d="M108.056,58.515c-4.821,0.193-7-1.231-8.138-6.097
	c-2.341-10.01-5.409-19.851-8.173-29.743c0,10.828-0.252,21.484,0.083,32.128c0.067,2.135-0.912,3.401-3.662,3.49
	c-1.292,0.042-2.192,0.073-3.469,0.08c-3.836,0.022-5.196-0.739-5.074-4.847c0.31-10.489,0.014-20.995,0.145-31.491
	c0.058-4.607-1.175-14.533,2.835-14.596c2.667-0.042,6.785-0.081,11.511-0.073c3.118,0.005,4.289,1.229,5.027,4.242
	c2.446,9.983,5.261,19.875,8.121,30.498h-0.165c2.86-10.622,5.675-20.515,8.121-30.498c0.738-3.014,1.909-4.237,5.027-4.242
	c4.726-0.008,8.844,0.031,11.511,0.073c4.01,0.063,2.778,9.989,2.835,14.596c0.131,10.497-0.165,21.002,0.145,31.491
	c0.122,4.108-1.238,4.869-5.074,4.847c-1.276-0.007-2.177-0.039-3.469-0.08c-2.75-0.088-3.729-1.354-3.662-3.49
	c0.336-10.644,0.083-21.3,0.083-32.128c-2.764,9.892-5.832,19.733-8.173,29.743c-1.138,4.865-3.316,6.29-8.138,6.097H108.056z"/>
<path fill-rule="evenodd" clip-rule="evenodd" fill="#FFFFFF" d="M53.178,20.463c-2.212,7.501-3.987,13.517-5.877,19.927
	c2.438,0,4.428,0.083,6.409-0.023c2.054-0.111,3.19,0.363,3.943,2.66c2.16,6.592,2.329,6.537-4.677,6.538
	c-1.667,0-3.341,0.101-4.998-0.023c-2.426-0.182-4,0.317-4.726,3.1c-1.107,4.244-4.181,5.919-8.43,4.667
	c-3.556-1.048-4.906-4.675-3.283-9.146c4.596-12.659,9.393-25.245,13.981-37.906c0.817-2.255,2.015-2.891,4.345-2.93
	c9.972-0.167,9.991-0.259,13.461,9.136c4.607,12.477,9.09,25.001,13.826,37.428c1.267,3.324,0.742,4.194-2.897,4.163
	c-9.351-0.079-9.336,0.078-12.065-8.726C59.35,40.166,56.474,31.015,53.178,20.463z"/>
<path fill-rule="evenodd" clip-rule="evenodd" fill="#FFFFFF" d="M150.554,37.466c0-5.499-0.147-11.002,0.06-16.493
	c0.108-2.866-0.672-3.355-3.524-3.295c-1.5,0.031-2.438,0.063-3.688,0c-4.808-0.24-6.438-1.131-5.985-6.092
	c0.278-3.043,0.687-4.365,4.139-4.278c9.491,0.239,18.993,0.137,28.491,0.055c3.656-0.031,6.391,0.93,6.313,5.148
	c-0.078,4.274-3.058,5.364-6.555,4.827c-5.489-0.843-6.535,1.568-6.347,6.546c0.377,9.983-0.039,19.994,0.195,29.986
	c0.079,3.417-1.104,4.177-4.269,4.172c-8.83-0.014-8.831,0.117-8.831-8.578C150.554,45.464,150.554,41.465,150.554,37.466z"/>
<path fill-rule="evenodd" clip-rule="evenodd" fill="#FFFFFF" d="M270.402,39.396c0-4.829,0.277-9.678-0.086-14.479
	c-0.299-3.937,1.085-4.853,4.711-4.927c2.725-0.056,5.025-0.844,6.958,1.916c0.553,0.789,1.733-0.492,2.62-0.855
	c3.617-1.479,7.277-2.093,11.191-1.098c4.658,1.184,7.314,4.161,7.479,8.79c0.274,7.816,0.169,15.649,0.082,23.473
	c-0.037,3.303-1.83,5.344-5.256,5.411c-3.646,0.071-5.59-1.958-5.66-5.524c-0.111-5.659-0.076-11.322-0.027-16.983
	c0.031-3.645-1.255-6.367-5.203-6.565c-4.069-0.204-5.535,2.658-5.637,6.161c-0.189,6.488-0.158,12.99-0.081,19.472
	c0.05,4.21-2.544,4.023-5.466,4.085c-2.531,0.054-5.984,0.547-5.691-3.894C270.644,49.402,270.403,44.392,270.402,39.396z"/>
<path fill-rule="evenodd" clip-rule="evenodd" fill="#FFFFFF" d="M366.272,44.872c1.846-7.483,3.387-13.827,4.989-20.155
	c0.419-1.654,0.467-4.173,2.995-4.32c2.964-0.173,5.211-0.045,8.146,0.354c1.116,0.152,0.816,1.71,0.533,2.593
	c-3.454,10.742-6.973,21.462-10.385,32.217c-1.232,3.294-4.605,2.54-7.107,2.711c-2.255,0.154-5.291-0.042-6.136-2.788
	c-2.829-9.197-5.939-18.308-8.751-27.51c-1.088-3.56-0.383-6.89,3.777-7.875c3.798-0.899,5.946,1.491,6.868,4.883
	C362.882,31.168,364.38,37.404,366.272,44.872z"/>
<path fill-rule="evenodd" clip-rule="evenodd" fill="#FFFFFF" d="M17.243,7.828l-0.504,7.588c-0.042,4.197-1.731,1.907-1.731,1.907
	l-3.996-4.077l-0.266-0.218L6.75,8.951c0,0-2.255-1.735,1.942-1.692l7.597-0.351C16.289,6.908,17.25,6.855,17.243,7.828z"/>
<path fill-rule="evenodd" clip-rule="evenodd" fill="#FFFFFF" d="M30.993,22.911L30.488,30.5c-0.042,4.197-1.731,1.907-1.731,1.907
	l-3.996-4.077l-0.266-0.218L20.5,24.034c0,0-2.255-1.735,1.942-1.692l7.597-0.351C30.039,21.991,31,21.938,30.993,22.911z"/>
<path fill-rule="evenodd" clip-rule="evenodd" fill="#FFFFFF" d="M30.826,7.745l-0.504,7.588c-0.042,4.197-1.731,1.907-1.731,1.907
	l-3.996-4.077l-0.266-0.218l-3.996-4.078c0,0-2.255-1.735,1.942-1.692l7.597-0.351C29.873,6.825,30.833,6.772,30.826,7.745z"/>
</svg>
