<?xml version="1.0" encoding="utf-8"?>
<!-- Generator: Adobe Illustrator 19.0.0, SVG Export Plug-In . SVG Version: 6.00 Build 0)  -->
<svg version="1.1" id="Ebene_1" xmlns="http://www.w3.org/2000/svg" xmlns:xlink="http://www.w3.org/1999/xlink" x="0px" y="0px"
	 viewBox="0 0 275.4 111.7" style="enable-background:new 0 0 275.4 111.7;" xml:space="preserve">
<style type="text/css">
	.st0{fill-rule:evenodd;clip-rule:evenodd;fill:#FFFFFF;}
</style>
<path class="st0" d="M13.3,83.8c1.1-3.6,2.2-7.1,3.3-10.7c1.4,0.4,2.8,0.8,4.2,1.1c10.8,2.9,21.7,5.7,32.7,7.9
	c5.7,1.1,11.5,2.2,17.2,3.2c4.3,0.7,8.6,1.3,12.9,1.8c3.9,0.5,7.9,0.8,11.9,1.1c7.4,0.6,14.7,0.8,22.1,0.7c4.3-0.1,8.5-0.3,12.8-0.6
	c3.4-0.2,6.8-0.5,10.2-0.9c4.4-0.5,8.7-1.1,13.1-1.8c5.7-0.9,11.3-1.9,17-3.1c7.1-1.5,14.2-3.2,21.3-5c17.7-4.5,35.1-9.9,52.4-15.6
	c7.2-2.4,14.4-5,21.6-7.5c0.2-0.1,0.3-0.1,0.6-0.2C259.4,67,252.2,79.6,245,92.4c-2.6-7.2-5.1-14.2-7.7-21.3c-1.3,0.5-2.6,1-3.8,1.4
	c-16.2,6-32.5,11.7-49,16.7c-9.9,3-19.9,5.7-30.1,7.7c-4.9,1-9.8,1.8-14.8,2.6c-3.6,0.5-7.2,1-10.7,1.3c-8.1,0.8-16.3,1-24.4,0.7
	c-3.9-0.1-7.8-0.3-11.7-0.7c-5.6-0.6-11.2-1.3-16.8-2.1c-8.7-1.3-17.2-3.1-25.8-5.1c-12.2-2.8-24.2-6.1-36.2-9.5
	C13.7,83.9,13.5,83.8,13.3,83.8z"/>
<path class="st0" d="M224.6,36.1c2.6,7.1,5.1,14,7.6,21c-14.7,3.2-29.3,6.3-44.1,8.9c0-9.4,0-18.8,0-28.2c6.3,2.2,12.6,4.5,18.9,6.7
	c0-0.2,0.1-0.4,0.1-0.6c0-4.6,0-9.1,0-13.7c0-0.4-0.2-0.6-0.5-0.7c-15.5-5.5-31-11-46.5-16.5c-0.8-0.3-1.7-0.6-2.6-0.9
	c0,0.3,0,0.5,0,0.7c0,4.4,0,8.9,0,13.3c0,0.5,0.2,0.8,0.7,0.9c5.3,1.9,10.7,3.8,16,5.7c0.5,0.2,0.7,0.4,0.7,1c0,11.2,0,22.4,0,33.6
	c0,0.1,0,0.3,0,0.4c-0.1,0.2-0.2,0.4-0.4,0.4c-3.3,0.5-6.5,1-9.8,1.4c-3.1,0.4-6.3,0.8-9.4,1.2c-0.8,0.1-1.6,0.2-2.5,0.3
	c0-0.4,0-0.7,0-0.9c0-19.6,0-39.2,0-58.7c0-0.6-0.2-0.8-0.7-1c-3.6-0.8-7.1-1.7-10.7-2.6c-0.7-0.2-1.2,0-1.7,0.4
	C131,14.8,122.5,21.4,114,28c-0.5,0.4-0.9,0.4-1.4,0C104,21.3,95.3,14.7,86.7,8.1c-0.3-0.2-0.7-0.4-1-0.3c-3.7,0.8-7.4,1.6-11.1,2.4
	c-0.8,0.2-0.8,0.2-0.8,1.1c0,19.5,0,39,0,58.6c0,0.3,0,0.5,0,0.9c-0.6-0.1-1.1-0.2-1.7-0.2c-0.5,0-0.8-0.2-0.9-0.7
	c-5.4-17.2-10.7-34.4-16.1-51.6c-0.2-0.7-0.5-1.4-0.7-2.2c-0.2,0.1-0.4,0.1-0.6,0.2c-7.1,2.5-14.1,5.1-21.2,7.6
	c-0.4,0.1-0.6,0.4-0.7,0.8c-3.8,12.1-7.6,24.2-11.4,36.3c-0.8,2.5-1.6,5.1-2.4,7.7c0.2,0.1,0.3,0.1,0.4,0.1
	c7.4,1.8,14.7,3.6,22.1,5.3c10.1,2.3,20.2,4.3,30.5,5.8c5.1,0.8,10.2,1.4,15.3,2c4,0.4,8,0.8,12,1c3.7,0.2,7.4,0.4,11.1,0.5
	c9.8,0.2,19.5-0.1,29.2-1c3.5-0.3,7-0.7,10.5-1.1c4.7-0.6,9.4-1.3,14.1-2.1c6.7-1.2,13.3-2.5,20-3.9c12.7-2.7,25.3-6.1,37.9-9.5
	c14.7-4,29.2-8.5,43.7-13c0.2-0.1,0.4-0.1,0.7-0.2C251.9,46.9,238.3,41.5,224.6,36.1z M44.2,28.3c0.1,0,0.1,0,0.2,0
	c1.9,6.2,3.9,12.4,5.8,18.6c-4,0-7.9,0-11.9,0C40.3,40.7,42.2,34.5,44.2,28.3z M56.9,68.6c-8.1-1.3-16.1-2.7-24.2-4
	c0.2-0.8,0.4-1.4,0.6-2c0.5-1.6,1-3.3,1.6-4.9c0.1-0.3,0.2-0.5,0.6-0.5c5.8,0,11.6,0,17.5,0c0.2,0,0.5,0.2,0.6,0.4
	c1.1,3.6,2.2,7.1,3.4,10.7C56.9,68.3,56.9,68.3,56.9,68.6z M138.7,72.3c-5.1,0.2-10.3,0.5-15.4,0.7c-4.6,0.1-9.2,0.2-13.7,0.1
	c-4.4-0.1-8.9-0.3-13.3-0.5c-2.9-0.1-5.7-0.4-8.5-0.6c-0.6,0-0.6-0.3-0.6-0.8c0-8.7,0-17.5,0-26.2c0-6.4,0-12.7,0-19.1
	c0-0.2,0-0.5,0-0.9c0.4,0.3,0.6,0.4,0.8,0.6c8.3,6.4,16.6,12.7,24.8,19.1c0.4,0.3,0.7,0.3,1.1,0c8.3-6.4,16.5-12.7,24.8-19.1
	c0.2-0.2,0.5-0.4,0.8-0.6c0,0.3,0,0.5,0,0.7c0,15.2,0,30.5,0,45.7C139.5,72.2,139.3,72.3,138.7,72.3z"/>
</svg>
