<?xml version="1.0" encoding="utf-8"?>
<!-- Generator: Adobe Illustrator 16.0.3, SVG Export Plug-In . SVG Version: 6.00 Build 0)  -->
<!DOCTYPE svg PUBLIC "-//W3C//DTD SVG 1.1//EN" "http://www.w3.org/Graphics/SVG/1.1/DTD/svg11.dtd">
<svg version="1.1" id="Ebene_2" xmlns="http://www.w3.org/2000/svg" xmlns:xlink="http://www.w3.org/1999/xlink" x="0px" y="0px"
	 width="261px" height="68px" viewBox="0 0 261 68" enable-background="new 0 0 261 68" xml:space="preserve">
<polygon fill="#FFFFFF" points="50.875,60 58.083,60 58.083,22.313 69.875,60 82.688,21.875 82.688,60.063 88.313,60.063 
	88.313,5.917 81.25,5.917 69.833,43 57.75,5.917 51.083,5.917 "/>
<polygon fill="#FFFFFF" points="126,5.75 96,5.75 96,13.875 107.875,13.875 107.875,60.125 114.25,60.125 114.25,13.875 126,13.875 
	"/>
<g>
	<path fill="#FFFFFF" d="M158.082,54.248c-0.744,0.093-1.498,0.157-2.27,0.157c-9.354,0-16.938-7.037-16.938-15.717
		c0-4.919,2.438-9.306,6.25-12.188v-6.454c-7.351,3.546-12.375,10.673-12.375,18.893c0,11.755,10.269,21.285,22.938,21.285
		c2.015,0,3.968-0.243,5.829-0.695L158.082,54.248z"/>
	<path fill="#FFFFFF" d="M155.688,22.976"/>
</g>
<path fill="#FFFFFF" d="M164.083,48.083c0,0-6.708,2.104-2.666,7.917c0,0,2.083,3.25,8.25-0.167l35.249-15.667
	c0,0,4.916-2.083,7-6.583C211.916,33.583,166.75,47.5,164.083,48.083z"/>
<path fill="#FFFFFF" d="M160.375,39.125c0,0-6.458,1.083-3.375,6.5c0,0,1.334,2.75,6.875,0.75l72.25-22.125c0,0,8.25-3.125,9-4.375
	C245.125,19.875,161.875,38.625,160.375,39.125z"/>
<path fill="#FFFFFF" d="M155.875,29.375c0,0-6.375,1.292-3.666,6.25c0,0,1.541,3.333,6.666,2l81.875-18.75c0,0,9.25-2.75,11-5.5
	C251.75,13.375,157.75,28.875,155.875,29.375z"/>
<path fill="#FFFFFF" d="M154.5,15c0,0-8.875,0.917-6.625,8.5c0,0,0.834,5.375,10.625,3.625L249.083,11.5c0,0,6.542-1.104,7.042-4.25
	c0,0-0.104-1.75-11.875-1L154.5,15z"/>
<g id="Ebene_1">
	<path fill="#FFFFFF" d="M29.25,5.625h-7L6.781,59.969l7.802-0.01L17.75,46.5h15.375l3.75,13.5h7.5L29.25,5.625z M18.813,40.5
		l6.625-24.938L31.924,40.5H18.813z"/>
</g>
</svg>
