<?xml version="1.0" encoding="utf-8"?>
<!-- Generator: Adobe Illustrator 16.0.3, SVG Export Plug-In . SVG Version: 6.00 Build 0)  -->
<!DOCTYPE svg PUBLIC "-//W3C//DTD SVG 1.1//EN" "http://www.w3.org/Graphics/SVG/1.1/DTD/svg11.dtd">
<svg version="1.1" id="Ebene_1" xmlns="http://www.w3.org/2000/svg" xmlns:xlink="http://www.w3.org/1999/xlink" x="0px" y="0px"
	 width="279.999px" height="93.586px" viewBox="0 0 279.999 93.586" enable-background="new 0 0 279.999 93.586"
	 xml:space="preserve">
<path fill-rule="evenodd" clip-rule="evenodd" fill="#FFFFFF" d="M61.874,58.869c-0.815-14.254-8.138-23.038-20.588-25.148
	c-5.005-0.849-10.291-0.923-15.351-0.398c-12.854,1.333-20.658,8.869-22.432,21.57c-0.636,4.559-0.7,9.361-0.021,13.904
	c1.572,10.52,6.939,18.319,17.855,20.984c10.33,2.522,19.963,2.375,26.18-8.316c0.096-0.165,0.589-0.099,1.277-0.191
	c0,3.084,0,6.145,0,9.482c4.453,0,8.531,0,13.196,0C61.991,79.81,62.47,69.308,61.874,58.869z M46.754,73.081
	c-2.711,7.883-8.708,11.835-16.252,11.136c-8.207-0.76-12.373-4.748-13.901-13.658c-0.502-2.926-0.493-5.939-0.71-8.82
	c0.227-2.927,0.222-5.773,0.703-8.535c1.734-9.952,6.772-13.918,16.916-13.557c7.859,0.278,12.395,3.711,14.25,11.375
	C49.551,58.417,49.233,65.875,46.754,73.081z"/>
<polygon fill="#FFFFFF" points="210.499,33.291 210.499,4.041 197.999,4.041 197.999,33.291 183.749,33.291 183.749,39.541 
	197.999,39.541 197.999,91.291 210.499,91.291 210.499,39.541 224.249,39.541 224.249,33.291 "/>
<path fill="#FFFFFF" stroke="#FFFFFF" stroke-miterlimit="10" d="M126.938,41.553c10.582-10.315,25.4-8.151,25.4-8.151
	c29.203,2.012,26.416,24.75,26.416,24.75v32.75h-13.75v-34.75c0,0,0.875-15.25-14.374-16.25c0,0-14.75-2-16.125,15.25v35.75h-7.567
	h-7.567v-35.75c-1.375-17.25-16.125-15.25-16.125-15.25c-15.25,1-14.375,16.25-14.375,16.25v34.75H75.12v-32.75
	c0,0-2.787-22.738,26.417-24.75C101.537,33.402,116.355,31.238,126.938,41.553z"/>
<g>
	<path fill="#FFFFFF" stroke="#FFFFFF" d="M233.423,81.102c3.762,2.114,10.426,4.372,16.805,4.372
		c9.272,0,13.611-3.997,13.611-8.999c0-5.246-3.621-8.114-13.032-11.112c-12.608-3.863-18.54-9.862-18.54-17.102
		c0-9.74,9.504-16.317,24.566-16.388c8.167-0.038,13.667,2.75,16.785,5.175l-0.118,7.909c-2.747-1.495-10.817-6.192-17.34-6.192
		c-7.524,0-11.723,3.752-11.723,8.245c0,4.993,4.198,7.24,13.316,10.238c12.171,3.996,18.398,9.243,18.398,18.23
		c0,10.614-9.554,18.107-26.22,18.107c-7.676,0-10.851-1.129-15.976-2.754L233.423,81.102z"/>
</g>
</svg>
