<?xml version="1.0" encoding="utf-8"?>
<!-- Generator: Adobe Illustrator 16.0.3, SVG Export Plug-In . SVG Version: 6.00 Build 0)  -->
<!DOCTYPE svg PUBLIC "-//W3C//DTD SVG 1.1//EN" "http://www.w3.org/Graphics/SVG/1.1/DTD/svg11.dtd">
<svg version="1.1" id="Ebene_1" xmlns="http://www.w3.org/2000/svg" xmlns:xlink="http://www.w3.org/1999/xlink" x="0px" y="0px"
	 width="490.91px" height="197.979px" viewBox="0 0 490.91 197.979" enable-background="new 0 0 490.91 197.979"
	 xml:space="preserve">
<path fill-rule="evenodd" clip-rule="evenodd" fill="#FFFFFF" d="M477.102,4.494C338.319,4.496,199.537,4.498,60.754,4.5
	c-1.52,0-3.046,0.082-4.558-0.027c-1.376-0.099-1.998,0.433-2.313,1.758c-1.069,4.499-2.239,8.974-3.361,13.46
	c-4.679,18.717-9.345,37.437-14.034,56.15c-2.983,11.905-6.013,23.798-8.996,35.704c-3.758,14.998-7.486,30.003-11.235,45.004
	c-2.973,11.897-5.956,23.792-9.04,36.111c1.241,0,2.19,0,3.14,0c139.022-0.004,278.045-0.008,417.068-0.012
	c1.52,0,3.046-0.082,4.557,0.031c1.5,0.113,2.063-0.526,2.414-1.937c7.36-29.576,14.759-59.143,22.167-88.706
	c6.944-27.713,13.909-55.42,20.857-83.132c1.177-4.695,2.312-9.402,3.541-14.412C479.477,4.494,478.29,4.494,477.102,4.494z
	 M147.008,158.372c-6.674,1.972-13.225,3.022-19.514-1.222c-3.255-2.197-4.688-5.515-5.893-9.014
	c-0.154-0.448-0.232-0.923-0.377-1.375c-0.045-0.139-0.197-0.244-0.602-0.715c-1.052,0.793-2.169,1.581-3.226,2.441
	c-6.242,5.081-12.97,9.262-20.96,10.955c-12.661,2.684-26.726-3.11-31.706-13.396c-4.614-9.531-3.847-19.123,2.131-27.904
	c4.989-7.328,12.285-11.426,20.778-13.81c9.043-2.537,18.242-2.916,27.515-2.957c3.333-0.016,3.481-0.105,3.388-3.326
	c-0.134-4.628-0.207-9.274-0.685-13.874c-0.592-5.693-4.15-9.277-9.699-10.704c-8.033-2.065-15.859-0.862-23.534,1.539
	c-4.818,1.507-9.458,3.586-14.341,5.473c0-4.155-0.066-8.293,0.068-12.425c0.021-0.651,0.814-1.605,1.469-1.86
	c11.091-4.321,22.538-6.912,34.51-6.483c4.95,0.177,9.807,1.07,14.428,2.985c9.626,3.991,14.21,11.469,14.567,21.606
	c0.312,8.867,0.297,17.747,0.363,26.622c0.066,9.118-0.039,18.238,0.151,27.354c0.041,1.98,0.682,4.122,1.631,5.873
	c1.944,3.586,4.835,4.53,10.642,3.958c0.363,2.331,0.675,4.533,1.055,6.725C149.489,156.683,148.957,157.796,147.008,158.372z
	 M249.91,156.021c0,0.549-0.099,1.096-0.167,1.802c-5.623,0-11.169,0-16.961,0c0-0.68,0-1.373,0-2.066
	c0-19.84,0.044-39.68-0.038-59.519c-0.016-3.906-0.371-7.827-0.837-11.709c-0.633-5.268-6.227-9.939-11.814-10.065
	c-9.658-0.217-17.359,3.938-23.841,10.77c-0.438,0.462-0.837,0.962-1.255,1.444c-6.793,7.835-6.793,7.835-6.793,18.14
	c0,16.56,0.003,33.12-0.007,49.68c0,1.093-0.109,2.187-0.173,3.379c-5.704,0-11.183,0-17.006,0c0-1.113,0-2.128,0-3.143
	c-0.006-29.999,0.013-59.999-0.067-89.998c-0.007-2.398,0.6-3.234,3.082-3.097c3.828,0.212,7.682,0.167,11.515,0.004
	c2.184-0.093,2.757,0.759,2.716,2.782c-0.1,4.864-0.032,9.73-0.032,14.596c0.175,0.087,0.351,0.175,0.526,0.263
	c0.789-0.962,1.591-1.915,2.365-2.889c5.207-6.557,11.49-11.772,19.415-14.626c13.035-4.695,28.885-2.17,36.055,11.756
	c2.545,4.944,3.262,10.344,3.285,15.779C249.969,111.543,249.917,133.782,249.91,156.021z M420.016,155.874c0,0.628,0,1.255,0,2.037
	c-5.808,0-11.313,0-17.151,0c0-1.011,0-1.938,0-2.867c-0.01-22.398,0.018-44.798-0.049-67.196
	c-0.025-8.678-5.878-14.406-14.18-13.772c-2.813,0.214-5.666,0.981-8.319,1.978c-6.648,2.498-11.193,7.696-15.863,12.76
	c-2.712,2.941-3.688,6.065-3.641,10.1c0.216,18.557,0.095,37.117,0.095,55.676c0,1.026,0,2.054,0,3.239c-5.772,0-11.313,0-17.098,0
	c-0.067-1.143-0.187-2.232-0.188-3.323c-0.01-19.519,0.057-39.038-0.052-58.556c-0.023-4.358-0.397-8.75-1.056-13.058
	c-0.958-6.277-7.585-9.271-13.457-8.97c-7.876,0.403-14.006,4.383-19.329,9.838c-1.723,1.766-3.164,3.82-4.968,5.49
	c-2.833,2.623-3.398,5.766-3.371,9.476c0.14,18.558,0.064,37.117,0.064,55.677c0,1.099,0,2.198,0,3.445c-5.801,0-11.284,0-17.047,0
	c-0.053-0.877-0.155-1.805-0.155-2.732c-0.01-30.158,0.015-60.317-0.057-90.475c-0.006-2.288,0.613-3.114,2.945-3.015
	c3.913,0.167,7.841,0.168,11.756,0.033c2.061-0.071,2.598,0.717,2.56,2.641c-0.1,5.001-0.033,10.007-0.033,15.751
	c1.345-1.789,2.239-3.042,3.198-4.244c5.624-7.051,12.218-12.896,21.204-15.049c11.189-2.681,21.548-1.167,29.379,8.132
	c2.292,2.722,3.501,6.356,5.203,9.574c0.175,0.331,0.328,0.672,0.648,1.333c0.896-1.233,1.608-2.24,2.348-3.227
	c4.75-6.343,10.282-11.844,17.805-14.727c9.961-3.817,19.699-3.246,28.814,2.631c7.015,4.523,9.688,11.479,9.88,19.406
	c0.249,10.394,0.102,20.797,0.108,31.197C420.021,128.676,420.015,142.274,420.016,155.874z"/>
<path fill-rule="evenodd" clip-rule="evenodd" fill="#FFFFFF" d="M118.554,124.124c0.001,3.354,0.145,6.718-0.077,10.058
	c-0.077,1.161-0.777,2.619-1.676,3.331c-5.561,4.405-11.717,7.508-18.889,8.501c-8.619,1.193-16.271-3.433-18.417-11.854
	c-1.355-5.321,0.312-10.078,4.212-13.957c4.76-4.733,10.813-7.042,17.196-8.139c4.996-0.858,10.159-0.74,15.244-1.096
	c1.766-0.123,2.444,0.655,2.42,2.375C118.517,116.936,118.553,120.53,118.554,124.124z"/>
</svg>
