<?xml version="1.0" encoding="utf-8"?>
<!-- Generator: Adobe Illustrator 19.0.0, SVG Export Plug-In . SVG Version: 6.00 Build 0)  -->
<svg version="1.1" xmlns="http://www.w3.org/2000/svg" xmlns:xlink="http://www.w3.org/1999/xlink" x="0px" y="0px"
	 viewBox="0 0 196.5 196.5" style="enable-background:new 0 0 196.5 196.5;" xml:space="preserve">
<style type="text/css">
	.st0{fill:#FFFFFF;}
	.st1{display:none;}
</style>
<g id="Ebene_2">
	<g>
		<polygon class="st0" points="102.2,102.9 112.4,102.9 107.3,86.8 		"/>
		<path class="st0" d="M77.9,85.9h-8.1v12.9h8.6c4.9-0.6,4.6-6.8,4.6-6.8C83,86.6,77.9,85.9,77.9,85.9z"/>
		<path class="st0" d="M97.2,8.6C47.3,8.6,6.9,49,6.9,98.8c0,49.8,40.4,90.2,90.2,90.2s90.2-40.4,90.2-90.2
			C187.4,49,147,8.6,97.2,8.6z M50.4,117.7l-3.2-9.2H33.9l-2.8,9.2h-7.8L36.4,80h7.8L58,117.7H50.4z M81.3,105l-11.3,0.1v12.6h-7.2
			V80h16.2c0,0,10-0.8,11.1,11.2C90,91.3,90.9,104.9,81.3,105z M117.3,117.7l-3.2-9.2h-13.3l-2.8,9.2h-7.8L103.3,80h7.8l13.8,37.7
			H117.3z M159.9,92l-8,19.9H146l-8.8-21.4l-1.5,27.2h-7l2.4-37.7h8l9.5,24.1l9.5-24.1h8.1l2.9,37.7h-7.9L159.9,92z"/>
		<polygon class="st0" points="35.3,102.9 45.4,102.9 40.4,86.8 		"/>
	</g>
</g>
<g id="Ebene_1" class="st1">
</g>
</svg>
