<?xml version="1.0" encoding="utf-8"?>
<!-- Generator: Adobe Illustrator 16.0.3, SVG Export Plug-In . SVG Version: 6.00 Build 0)  -->
<!DOCTYPE svg PUBLIC "-//W3C//DTD SVG 1.1//EN" "http://www.w3.org/Graphics/SVG/1.1/DTD/svg11.dtd">
<svg version="1.1" id="Ebene_1" xmlns="http://www.w3.org/2000/svg" xmlns:xlink="http://www.w3.org/1999/xlink" x="0px" y="0px"
	 width="355.482px" height="355.482px" viewBox="0 0 355.482 355.482" enable-background="new 0 0 355.482 355.482"
	 xml:space="preserve">
<path fill-rule="evenodd" clip-rule="evenodd" fill="#F3F3F3" d="M162.25,260.232c-1.858-0.187-3.357-1.079-3.433-3.313
	c-0.068-2.031,0.759-3.729,3.002-3.822c2.266-0.095,3.871,1.133,3.953,3.539C165.844,258.782,164.561,259.979,162.25,260.232z"/>
<path fill-rule="evenodd" clip-rule="evenodd" fill="#FFFFFF" d="M184.392,175.553c-5.497,0-10.998-0.114-16.49,0.047
	c-2.941,0.086-4.241-0.784-4.056-3.944c0.233-3.984,0.251-8.005-0.005-11.986c-0.209-3.245,1.195-3.859,4.077-3.821
	c10.493,0.135,20.99-0.065,31.481,0.092c8.861,0.133,13.359,8.615,8.803,16.226c-1.567,2.619-4.052,3.326-6.819,3.354
	c-5.663,0.057-11.327,0.018-16.99,0.018C184.392,175.542,184.392,175.548,184.392,175.553z"/>
<path fill-rule="evenodd" clip-rule="evenodd" fill="#FFFFFF" d="M79.046,155.132c4.924,9.276,9.177,17.376,13.526,25.425
	c1.235,2.286,1.501,3.536-1.849,3.475c-7.663-0.14-15.33-0.023-22.994-0.068c-1.374-0.009-3.557,0.316-2.259-2.264
	C69.782,173.124,74.197,164.6,79.046,155.132z"/>
<g>
	<path fill-rule="evenodd" clip-rule="evenodd" fill="#FFFFFF" d="M209.614,312.425c3.335,3.584,7.841,3.061,12.096,2.251
		c3.835-0.73,7.306-2.321,8.72-6.453c0.277-0.811,0.271-1.607-0.082-2.322h-20.999C208.089,308.09,207.787,310.461,209.614,312.425z
		"/>
	<path fill-rule="evenodd" clip-rule="evenodd" fill="#FFFFFF" d="M233.766,305.901c0.01,0.381,0.018,0.769,0.018,1.183
		c-2.344,10.916-20.267,12.929-27.37,8.001c-3.277-2.274-3.362-5.461-2.655-8.902c0.015-0.097,0.024-0.188,0.037-0.281H10.234
		v38.667h337v-38.667H233.766z"/>
</g>
<path fill-rule="evenodd" clip-rule="evenodd" fill="#FFFFFF" d="M10.234,10.234v255.334h18.825c0.51-1.954,1.009-3.911,1.581-5.847
	c0.959-3.25,2.101-6.523-3.839-6.385c3.465-1.982,6.9-1.561,10.117-1.861c2.147-0.201,1.328,1.729,1.048,2.939
	c-0.861,3.721-1.747,7.437-2.626,11.153h64c1.14-3.65,2.276-7.293,3.377-10.819c-1.762-1.537-3.95-0.104-6.216-2.392
	c4.263-0.399,7.846-1.048,11.407-0.948c2.032,0.058,0.958,2.14,0.704,3.23c-0.857,3.668-1.913,7.29-2.896,10.929h31.503
	c0.179-0.56,0.357-1.12,0.534-1.681c0.131-0.415,0.255-0.833,0.381-1.249c0.102-0.337,0.208-0.674,0.304-1.012
	c1.062-3.716,4.174-8.205-3.3-9.341c3.182-0.32,6.363-0.648,9.546-0.955c0.151-0.015,0.293-0.022,0.425-0.023
	c1.975-0.023,1.872,1.369,1.474,2.895c-0.919,3.526-1.87,7.045-2.807,10.566c-0.077,0.267-0.154,0.533-0.231,0.8h203.69V10.234
	H10.234z M233.21,181.114c-2.701,9.572-10.044,14.614-20.218,14.673c-14.83,0.085-29.664,0.155-44.491-0.065
	c-3.824-0.057-5.192,1.15-4.611,4.807c0.077,0.488,0.045,1.001,0.004,1.498c-0.364,4.426,1.862,13.289-2.161,13.625
	c-3.242,0.271-7.43,0.08-11.888,0.123c-8.667,0.085-17.335,0.069-26.003,0.03c-4.433,0.168-8.841,0.219-12.901,0.43
	c-1.581-2.732-3.219-6.684-4.447-9.567c-1.568-3.685-3.799-5.063-7.956-4.968c-13.155,0.303-26.323,0.229-39.482,0.031
	c-3.354-0.05-5.408,0.905-6.354,4.114c-3.147,10.682-6.97,10.022-6.97,10.022H24.487c-4.199,0.278-4.394-1.03-2.558-4.367
	c8.583-15.599,17.015-31.281,25.495-46.937c4.517-8.34,9.129-16.632,13.47-25.063c1.414-2.747,3.126-3.75,6.209-3.669
	c8.158,0.212,16.326,0.097,24.489,0.055c2.056-0.011,3.766,0.05,4.975,2.281c13.654,25.206,28.762,50.548,42.496,75.718
	c0.113-2.605,0.035-3.52,0.042-5.294c0.079-22.495,0.154-44.992-0.04-67.486c-0.036-4.144,1.096-5.338,5.279-5.298
	c21.661,0.21,43.325,0.009,64.986,0.143c12.385,0.077,20.886,5.169,23.729,14.621C236.089,160.638,236.058,171.022,233.21,181.114z
	 M339.48,199.579c-1.584,10.49-7.309,14.973-19.485,16.286c-10.802,1.165-21.624,0.875-33.725,0.956
	c-8.864-0.334-19.026,0.525-29.161-0.891c-14.297-1.996-18.732-9.409-18.113-24.227c0.101-2.422,1.641-2.533,3.403-2.533
	c5.998-0.001,11.999,0.088,17.993-0.051c2.468-0.057,3.557,0.768,3.865,3.271c0.479,3.881,2.863,5.631,6.833,5.805
	c12.153,0.531,24.298,0.656,36.443-0.082c3.964-0.242,6.611-1.777,6.654-6.365c0.043-4.522-2.81-5.521-6.399-6.008
	c-11.447-1.553-22.955-0.744-34.438-0.908c-6.34-0.092-12.662-0.389-18.867-1.686c-10.771-2.25-14.105-5.869-15.145-16.724
	c-0.458-4.788-0.329-9.619,0.297-14.449c1.023-7.896,5.493-12.646,12.875-14.85c5.125-1.531,10.402-2.261,15.771-2.152
	c16.969,0.344,33.999-1.327,50.9,1.022c12.512,1.739,17.727,8.528,17.521,21.294c-0.05,3.149-0.875,4.575-4.247,4.405
	c-4.32-0.218-8.662-0.112-12.993-0.03c-3.936,0.074-7.934,0.779-8.605-5.076c-0.242-2.106-2.71-2.757-4.793-2.904
	c-11.975-0.842-23.961-0.572-35.938-0.144c-3.564,0.127-6.097,2.263-6.062,6.021c0.036,3.869,2.755,5.238,6.331,5.664
	c11.962,1.425,23.965,0.337,35.943,0.731c6.169,0.203,12.274,0.674,18.344,1.859c8.558,1.672,13.571,6.689,14.768,15.318
	C340.21,188.596,340.301,194.139,339.48,199.579z"/>
<g>
	<path fill-rule="evenodd" clip-rule="evenodd" fill="#FFFFFF" d="M216.217,302.118c-2.726-0.757-4.851,0.271-6.144,2.85
		c-0.58,0.84-1.028,1.719-1.284,2.601h22.004c0.193-0.979-0.045-1.917-0.861-2.687C225.92,301.223,220.729,303.37,216.217,302.118z"
		/>
	<path fill-rule="evenodd" clip-rule="evenodd" fill="#FFFFFF" d="M143.682,264.901c-2.869,9.952-5.758,19.9-8.58,29.867
		c-0.349,1.232-0.762,2.801,0.811,3.516c1.481,0.672,2.582-0.5,3.37-1.51c1.587-2.031,2.975-4.218,5.04-6.002
		c-0.159,4.164-2.064,7.506-5.494,9.803c-2.845,1.907-6.049,2.318-8.517-0.684c-1.352-1.645-2.182-0.738-3.282-0.004
		c-3.993,2.665-8.15,3.064-12.066,0.123c-4.076-3.061-4.672-7.496-3.685-12.17c1.622-7.679,8.896-15.247,15.353-16.101
		c1.141-0.15,2.502-0.433,3.446,0.013c5.592,2.643,6.321-0.928,6.724-5.045c0.188-0.604,0.382-1.205,0.575-1.807h-31.478
		c-0.073,0.266-0.146,0.531-0.218,0.797c-2.781,9.569-5.575,19.135-8.329,28.713c-0.404,1.404-1.099,3.159,0.715,3.951
		c1.611,0.704,2.695-0.788,3.798-1.771c1.771-1.58,2.233-4.332,5.457-6.182c-1.36,5.611-3.724,9.166-8.033,11.121
		c-2.169,0.984-4.621,1.001-6.617-0.675c-1.941-1.63-1.73-3.79-1.125-5.983c2.255-8.178,4.502-16.359,6.724-24.547
		c0.302-1.114,0.438-2.273,0.651-3.412c0.21-0.673,0.418-1.34,0.628-2.012H35.472c-0.153,0.647-0.305,1.295-0.458,1.942
		c-0.699,2.669-1.397,5.337-2.285,8.729c3.707-1.554,6.15-3.729,9.478-3.813c5.381-0.137,7.919,2.406,6.835,7.682
		c-1.003,4.885-2.506,9.666-3.745,14.505c-0.365,1.424-1.132,3.271,0.358,4.152c1.869,1.104,2.879-0.862,4.011-2.008
		c1.469-1.486,1.747-3.972,4.014-4.903c0.19,5.141-4.45,10.572-9.147,10.836c-4.065,0.229-6.203-2.181-5.243-6.34
		c1.235-5.352,2.781-10.631,4.162-15.949c0.415-1.599,1.077-3.409-0.691-4.537c-1.503-0.959-3.275-0.65-4.78,0.188
		c-4.166,2.321-6.601,6.027-7.882,10.51c-1.052,3.681-2.041,7.386-2.862,11.123c-0.623,2.835-1.883,4.899-5.037,3.89
		c-2.996-0.959-1.157-3.377-0.761-5.031c2.329-9.715,4.827-19.387,7.268-29.074c0.169-0.633,0.333-1.268,0.498-1.902H10.234v42.667
		h193.5c0.063-0.505,0.147-1.016,0.254-1.534c0.496-3.382-0.171-4.799,3.469-9.454c0.292-0.373-0.004-1.538,0.396-1.868
		c4.651-3.83,4.31-9.029,5.105-14.404c1.135-7.664,11.503-11.146,17.963-6.653c2.469,1.718,3.745,2.151,5.262-0.713
		c0.412-0.778,1.459-1.446,2.348-1.699c1.633-0.466,3.034,0.19,3.488,1.917c0.459,1.738-0.418,3.44-2.135,3.096
		c-3.941-0.793-3.881,2.133-4.624,4.341c-3.333,9.911-7.479,12.497-17.53,10.649c-2.214-0.407-4.342-0.489-4.611,2.142
		c-0.26,2.528,2.162,2.517,3.936,2.72c2.475,0.285,4.966,0.438,7.451,0.637c7.82,0.627,9.508,2.434,9.508,10.192
		c-0.047,0.217-0.109,0.423-0.168,0.633h113.389v-42.667H143.682z M71.437,301.888c-8.894,1.411-14.509-3.862-13.682-12.849
		c0.816-8.878,9.498-17.334,17.749-17.287c5.607,0.031,9.554,3.165,10.724,8.513C88.223,289.387,80.675,300.422,71.437,301.888z
		 M154.172,301.997c-3.681-0.505-4.678-2.992-3.966-6.178c1.125-5.036,2.443-10.035,3.862-14.998
		c0.954-3.336,2.17-6.562-3.638-6.948c0.897-0.983,0.99-1.185,1.118-1.21c10.583-2.108,11.11-1.563,8.307,8.582
		c-1.242,4.496-2.516,8.982-3.702,13.493c-0.331,1.257-0.788,2.794,0.705,3.586c1.471,0.779,2.566-0.413,3.408-1.381
		c1.591-1.831,3.007-3.814,4.755-6.069C165.315,296.908,159.358,302.708,154.172,301.997z M195.667,301.789
		c-5.245,1.381-8.183-1.337-6.912-6.67c1.233-5.177,2.846-10.263,4.218-15.407c0.42-1.576,1.096-3.375-0.555-4.631
		c-1.713-1.305-3.563-0.609-5.156,0.334c-3.938,2.334-6.15,6.018-7.419,10.281c-1.187,3.986-2.253,8.012-3.268,12.045
		c-0.629,2.501-1.994,3.844-4.631,3.218c-3.151-0.747-1.3-2.958-0.967-4.409c1.267-5.514,2.663-11.003,4.238-16.436
		c0.936-3.227,1.733-6.061-3.483-6.842c4.073-0.195,7.974-3.389,11.463,0.654c1.143,1.324,2.096,0.035,2.992-0.479
		c1.771-1.014,3.618-1.656,5.668-1.723c5.791-0.189,8.381,2.748,7.027,8.43c-1.194,5.013-2.815,9.923-4.161,14.902
		c-0.312,1.152-1.413,2.664,0.401,3.473c1.457,0.648,2.602-0.441,3.417-1.461c1.502-1.879,2.816-3.908,4.57-6.386
		C202.943,296.209,199.697,300.727,195.667,301.789z"/>
	
		<ellipse transform="matrix(0.4826 0.8758 -0.8758 0.4826 362.0788 -50.1976)" fill-rule="evenodd" clip-rule="evenodd" fill="#FFFFFF" cx="223.526" cy="281.359" rx="5.355" ry="5.582"/>
	
		<ellipse transform="matrix(0.5074 -0.8617 0.8617 0.5074 -186.4213 248.0816)" fill-rule="evenodd" clip-rule="evenodd" fill="#FFFFFF" cx="123.767" cy="287.089" rx="8.846" ry="7.086"/>
</g>
<ellipse transform="matrix(0.5074 -0.8617 0.8617 0.5074 -211.9148 203.4872)" fill-rule="evenodd" clip-rule="evenodd" fill="#FFFFFF" cx="72.017" cy="287.089" rx="8.846" ry="7.086"/>
</svg>
