<?xml version="1.0" encoding="utf-8"?>
<!-- Generator: Adobe Illustrator 19.0.0, SVG Export Plug-In . SVG Version: 6.00 Build 0)  -->
<svg version="1.1" id="Ebene_1" xmlns="http://www.w3.org/2000/svg" xmlns:xlink="http://www.w3.org/1999/xlink" x="0px" y="0px"
	 viewBox="0 0 546 154" style="enable-background:new 0 0 546 154;" xml:space="preserve">
<style type="text/css">
	.st0{fill-rule:evenodd;clip-rule:evenodd;fill:#FFFFFF;}
</style>
<g>
	<path class="st0" d="M389.4,80.5c0.7,0,1.2,0.1,1.7,0.1c45.8,0,91.7,0,137.5,0c1.5,0,2.3-0.5,3-1.7c2.9-4.9,4.2-10.3,4.7-15.9
		c0.8-8.8,0.8-17.6-1.3-26.2c-2-8.2-5.4-15.6-11.7-21.5c-1-1-2.1-1.4-3.5-1.4c-45.8,0-91.7,0-137.5,0c-0.5,0-1,0-2,0
		c9.5,8.9,13.7,19.8,15.4,31.9C397.2,58,396,69.7,389.4,80.5z M235.5,80.6c0.6,0,1,0,1.4,0c41.8,0,83.6,0,125.5,0
		c0.7,0,1.6-0.1,2.1-0.4c2.3-1.5,4.9-2.7,6.7-4.7c6.7-7.4,9.2-16.2,8.1-26.1c-1-8.7-3.7-16.6-9.8-23c-7.2-7.6-16.1-12.1-26.5-12.2
		C308,13.8,272.9,14,237.8,14c-0.7,0-1.5,0-2.3,0C235.5,36.3,235.5,58.3,235.5,80.6z M190.3,96.6c-0.5,0-1-0.1-1.4-0.1
		c-41.2,0-82.4,0-123.6,0c-0.8,0-1.8,0.4-2.4,0.9c-13.7,11.4-28.2,21.6-43.4,31c-3.1,1.9-6.2,3.8-9.3,5.7c0,0.1,0.1,0.3,0.1,0.4
		c1.3,0,2.6,0,3.9,0c31.3,0,62.6-0.1,93.9,0c1.7,0,2.8-0.5,3.8-1.8c5.9-7.9,11.9-15.7,17.9-23.6c1.2-1.6,2.4-3.2,3.5-4.7
		c0.2,0,0.3,0.1,0.5,0.1c0,10,0,20,0,30c19.1,0,37.8,0,56.6,0C190.3,121.8,190.3,109.3,190.3,96.6z M81.8,80.5
		c36.2,0,72.3,0,108.6,0c0-22.2,0-44.2,0-66.5c-0.8,0-1.5,0-2.3,0c-16.9,0-33.8,0.1-50.7-0.1c-2.9,0-4.5,0.7-6,3.4
		c-8.3,15.2-18.9,28.9-30.3,42C94.8,66.5,88.3,73.4,81.8,80.5z M235.5,134.6c0.5,0,0.9,0.1,1.3,0.1c21.6,0,43.2,0,64.8,0
		c1.5,0,1.8-0.5,1.8-1.9c0-11.4,0-22.8,0-34.1c0-1.7-0.4-2.2-2.2-2.2c-21.3,0.1-42.5,0-63.8,0c-0.6,0-1.2,0-1.9,0
		C235.5,109.2,235.5,121.8,235.5,134.6z M422.6,134.6c22.6,0,45.1,0,67.7,0c0-12.7,0-25.3,0-38c-22.7,0-45.2,0-67.7,0
		C422.6,109.3,422.6,121.9,422.6,134.6z M214.8,119.3c3.1-0.1,5,1.1,5.8,3.5c1,2.7,0.1,5.9-2,7.5c-3,2.2-8.9,2.2-11.9,0
		c-3.3-2.4-3.2-8.2,0.2-10.1c1.8-1,2.1-1.7,1.3-3.9c-2.1,0.3-3.5,1-4.8,2.7c-3,3.9-2.5,10.4,1.2,13.6c3.8,3.2,8.1,3.5,12.6,2
		c4-1.4,6.2-4.3,6.6-8.6c0.2-2.9-0.6-5.3-2.9-7.2c2.6-1.1,2.6-1.1,2.1-2.9c-3.5,0-7.1,0-10.7,0c0,3,0,5.8,0,8.7c0.8,0,1.5,0,2.5,0
		C214.8,122.9,214.8,121.1,214.8,119.3z M202.1,43.3c0,5.3,0,10.6,0,15.9c1,0,1.8,0,3,0c0-3.8,0-7.4,0-11.5c1.2,1,2,1.6,2.8,2.3
		c3.9,3.2,7.7,6.5,11.7,9.6c0.8,0.6,2.1,0.6,3.2,0.6c0.2,0,0.6-1.4,0.6-2.2c0.1-4.4,0-8.7,0-13.1c0-0.7-0.1-1.3-0.1-2
		c-1.1,0-1.9,0-3,0c0,4.2,0,8.4,0,12.8c-0.7-0.5-1-0.7-1.4-1c-4.2-3.4-8.4-6.8-12.5-10.2C205,43.3,203.8,42.8,202.1,43.3z M202,67.1
		c6.3,0,12.4,0,18.6,0c2.9,0,3-0.1,2.6-3c0-0.2-0.1-0.3-0.2-0.6c-7,0-13.9,0-21,0C202,64.8,202,65.8,202,67.1z M202,39.4
		c0.4,0.1,0.8,0.2,1.1,0.2c6.2,0,12.4,0,18.6,0c1.5,0,1.6-0.7,1.7-1.9c0.1-1.3-0.5-1.6-1.7-1.6c-6.1,0.1-12.2,0-18.2,0
		c-0.4,0-0.9,0.1-1.4,0.1C202,37.3,202,38.3,202,39.4z"/>
	<path class="st0" d="M389.4,80.5c6.7-10.8,7.8-22.5,6.2-34.6c-1.6-12.1-5.9-23-15.4-31.9c1,0,1.5,0,2,0c45.8,0,91.7,0,137.5,0
		c1.4,0,2.5,0.4,3.5,1.4c6.2,5.9,9.6,13.3,11.7,21.5c2.1,8.7,2.1,17.4,1.3,26.2c-0.5,5.5-1.8,11-4.7,15.9c-0.7,1.2-1.5,1.7-3,1.7
		c-45.8,0-91.7,0-137.5,0C390.5,80.6,390,80.6,389.4,80.5z"/>
	<path class="st0" d="M235.5,80.6c0-22.3,0-44.3,0-66.6c0.8,0,1.5,0,2.3,0c35.1,0,70.2-0.2,105.3,0.1c10.4,0.1,19.3,4.6,26.5,12.2
		c6.1,6.4,8.8,14.3,9.8,23c1.1,9.9-1.4,18.7-8.1,26.1c-1.8,2-4.4,3.2-6.7,4.7c-0.6,0.4-1.4,0.4-2.1,0.4c-41.8,0-83.6,0-125.5,0
		C236.5,80.6,236.1,80.6,235.5,80.6z"/>
	<path class="st0" d="M190.3,96.6c0,12.7,0,25.2,0,38c-18.8,0-37.5,0-56.6,0c0-10,0-20,0-30c-0.2,0-0.3-0.1-0.5-0.1
		c-1.2,1.6-2.4,3.2-3.5,4.7c-6,7.9-11.9,15.7-17.9,23.6c-1,1.3-2.1,1.8-3.8,1.8c-31.3,0-62.6,0-93.9,0c-1.3,0-2.6,0-3.9,0
		c0-0.1-0.1-0.3-0.1-0.4c3.1-1.9,6.2-3.8,9.3-5.7c15.1-9.4,29.7-19.6,43.4-31c0.6-0.5,1.6-0.9,2.4-0.9c41.2,0,82.4,0,123.6,0
		C189.4,96.5,189.8,96.6,190.3,96.6z"/>
	<path class="st0" d="M81.8,80.5c6.5-7.1,13.1-14,19.3-21.2c11.4-13,21.9-26.7,30.3-42c1.5-2.7,3.1-3.4,6-3.4
		c16.9,0.1,33.8,0.1,50.7,0.1c0.7,0,1.5,0,2.3,0c0,22.3,0,44.3,0,66.5C154.1,80.5,117.9,80.5,81.8,80.5z"/>
	<path class="st0" d="M235.5,134.6c0-12.8,0-25.3,0-38.1c0.7,0,1.3,0,1.9,0c21.3,0,42.5,0,63.8,0c1.8,0,2.2,0.6,2.2,2.2
		c-0.1,11.4-0.1,22.8,0,34.1c0,1.4-0.3,1.9-1.8,1.9c-21.6,0-43.2,0-64.8,0C236.4,134.7,236,134.6,235.5,134.6z"/>
	<path class="st0" d="M422.6,134.6c0-12.7,0-25.2,0-38c22.6,0,45.1,0,67.7,0c0,12.6,0,25.2,0,38
		C467.7,134.6,445.2,134.6,422.6,134.6z"/>
	<path class="st0" d="M202,88.4c0-3.9-0.1-7.7,0-11.6c0.1-2.5,1.2-4.6,3.9-5.3c3-0.8,5.1,0.1,7.3,3c1-2.5,3-2.8,5.3-2.9
		c1.5,0,3.1-0.4,4.7-0.6c0.1,0.3,0.1,0.7,0.2,1.1c0.1,2.5,0,2.6-2.5,2.7c-0.2,0-0.3,0-0.5,0c-4.5,0.4-6,0.6-5.7,5.9
		c0.1,1.3,0,2.6,0,4.1c3,0,5.7,0,8.6,0c0,1.3,0,2.3,0,3.5C216.2,88.4,209.2,88.4,202,88.4z M204.9,84.7c2.4,0,4.6,0,6.7,0
		c0-2.5,0.1-4.9,0-7.3c-0.1-1.8-1.8-2.8-3.7-2.6c-1.9,0.2-3,1.2-3,3.1C204.9,80.1,204.9,82.3,204.9,84.7z"/>
	<path class="st0" d="M214.8,119.3c0,1.8,0,3.6,0,5.4c-0.9,0-1.6,0-2.5,0c0-2.9,0-5.8,0-8.7c3.6,0,7.2,0,10.7,0
		c0.5,1.8,0.5,1.8-2.1,2.9c2.3,1.9,3.1,4.4,2.9,7.2c-0.3,4.3-2.6,7.2-6.6,8.6c-4.5,1.5-8.9,1.2-12.6-2c-3.7-3.2-4.3-9.7-1.2-13.6
		c1.3-1.6,2.7-2.4,4.8-2.7c0.8,2.1,0.5,2.8-1.3,3.9c-3.4,1.9-3.4,7.6-0.2,10.1c3,2.2,8.9,2.2,11.9,0c2.1-1.6,3-4.7,2-7.5
		C219.8,120.4,217.9,119.2,214.8,119.3z"/>
	<path class="st0" d="M202.1,43.3c1.7-0.5,2.9,0,4.2,1.1c4.1,3.5,8.3,6.8,12.5,10.2c0.3,0.3,0.7,0.5,1.4,1c0-4.4,0-8.6,0-12.8
		c1.1,0,1.9,0,3,0c0,0.6,0.1,1.3,0.1,2c0,4.4,0,8.7,0,13.1c0,0.8-0.3,2.2-0.6,2.2c-1.1,0-2.4,0-3.2-0.6c-4-3.1-7.8-6.4-11.7-9.6
		c-0.8-0.7-1.6-1.3-2.8-2.3c0,4.1,0,7.7,0,11.5c-1.1,0-2,0-3,0C202.1,53.9,202.1,48.6,202.1,43.3z"/>
	<path class="st0" d="M223.1,33.6c-4.5-1.7-8.9-3.4-13.3-5.1c-2.1-0.8-4.3-1.7-6.4-2.4c-0.9-0.3-1.6-0.7-1.3-1.8
		c0.2-1.1-0.7-2.4,1.2-3.1c6.1-2.2,12.2-4.7,18.3-7c0.5-0.2,1.1-0.4,1.6-0.5c0.8,3.3,0.6,3.5-2.4,4.6c-3,1.1-3,1.1-3,4.3
		c0,1.5-0.1,3,0,4.5c0,0.5,0.6,1.1,1,1.4c0.6,0.4,1.4,0.6,2.1,0.8C223.7,30.1,223.8,30.3,223.1,33.6z M214.9,27c0-2.4,0-4.5,0-6.8
		c-3.2,1.1-6.1,2.2-9.1,3.2c0,0.1,0,0.3,0,0.4C208.8,24.8,211.7,25.9,214.9,27z"/>
	<path class="st0" d="M202,67.1c0-1.3,0-2.4,0-3.5c7.1,0,14,0,21,0c0.1,0.2,0.2,0.4,0.2,0.6c0.3,2.9,0.3,3-2.6,3
		C214.5,67.1,208.4,67.1,202,67.1z"/>
	<path class="st0" d="M202,39.4c0-1.1,0-2.1,0-3.2c0.5-0.1,0.9-0.1,1.4-0.1c6.1,0,12.2,0,18.2,0c1.2,0,1.8,0.3,1.7,1.6
		c-0.1,1.2-0.1,1.9-1.7,1.9c-6.2-0.1-12.4,0-18.6,0C202.8,39.6,202.5,39.5,202,39.4z"/>
	<path class="st0" d="M212.6,92.1c-6.8,0.1-11.4,4.5-11.1,10.3c-0.3,6.2,4.9,10.3,11.3,10.2c6.5-0.1,11-4.3,11-10.3
		C223.8,96.3,219.2,92.1,212.6,92.1z M215,108.9c-0.8,0.1-1.6,0.1-2.4,0.2c-2.5,0.1-4.8-0.6-6.6-2.3c-3-2.9-2-8.1,1.9-10
		c2.7-1.3,5.5-1.3,8.2-0.5c3.6,1.1,5.1,3.5,4.8,7C220.7,106.1,218.3,108.3,215,108.9z"/>
</g>
</svg>
