<?xml version="1.0" encoding="utf-8"?>
<!-- Generator: Adobe Illustrator 16.0.3, SVG Export Plug-In . SVG Version: 6.00 Build 0)  -->
<!DOCTYPE svg PUBLIC "-//W3C//DTD SVG 1.1//EN" "http://www.w3.org/Graphics/SVG/1.1/DTD/svg11.dtd">
<svg version="1.1" id="Ebene_1" xmlns="http://www.w3.org/2000/svg" xmlns:xlink="http://www.w3.org/1999/xlink" x="0px" y="0px"
	 width="273.418px" height="54.25px" viewBox="0 0 273.418 54.25" enable-background="new 0 0 273.418 54.25" xml:space="preserve">
<path fill-rule="evenodd" clip-rule="evenodd" fill="#FFFFFF" d="M121.401,51.307c0.6-2.824,1.53-3.186,4.042-3.166
	c12.203,0.093,24.587,0.002,36.853-0.003c1.361-1.054,2.649-2.052,2.842-2.201l2.633,2.203c0.556,0.002,1.117-0.001,1.673,0.001
	c9.063,0.03,18.138-0.017,27.207-0.02c1.353-1.048,2.628-2.036,2.82-2.185l2.623,2.194c1.422,0.004,2.845,0.003,4.267,0.01
	c3.934,0.02,7.769,0.027,11.644,0.029c1.376-1.066,2.688-2.082,2.883-2.233l2.665,2.23c3.452-0.004,6.987-0.014,10.703-0.026h15.286
	c1.362-1.055,2.652-2.055,2.846-2.204l2.634,2.204h10.693c6.223,0.191,6.771-0.533,7.704-7.363c-3.881,0-7.698,0.016-11.516-0.004
	c-6.762-0.035-6.9-0.286-4.281-6.337c2.309-5.334,4.53-10.706,7.012-16.586c-1.99,0-3.943-0.015-5.878-0.032
	c-1.021,0.828-1.873,1.517-2.025,1.641l-2.096-1.677c-6.341-0.057-12.453-0.076-18.535,0.314c-2.272,0.145-5.048,2.928-6.367,5.208
	c-2.45,4.234-3.903,9.036-5.985,13.502l-0.929,3.868h-23.187c0.484-0.885,0.876-1.708,0.899-2.09h-8.031c0,0-0.258,1.063-0.758,2.09
	h-16.673c-0.222-3.662,2.431-4.68,4.724-4.658c6.131,0.055,12.266,0.146,18.392-0.018c1.361-0.037,3.373-0.693,3.918-1.697
	c1.771-3.26,3.238-6.738,4.374-10.275c1.176-3.664-0.274-6.257-3.752-6.385c-7.042-0.259-14.111-0.225-21.15,0.091
	c-4.047,0.182-6.759,2.579-8.192,6.568c-1.439,4.006-3.45,7.806-4.932,11.799c-1.146,3.089-3.026,4.263-6.327,4.206
	c-11.06-0.191-22.125-0.133-33.188-0.205c-1.104-0.006-2.206-0.256-3.379-0.401c1.858-6.756,1.858-6.759,8.129-6.741
	c3.999,0.012,7.998,0.04,11.997,0.052c5.831,0.017,6.739-0.85,7.439-7.541c-3.476,0-6.905,0-10.335,0c-3.542,0-7.085,0-11.731,0
	c2.651-5.841,4.013-11.535,7.46-15.341c1.829-2.019,7.275-0.78,11.091-0.969c1.196-0.059,2.398,0.042,3.598,0.035
	c2.674-0.015,3.252,1.168,2.224,3.551c-1.022,2.367-1.863,4.813-2.818,7.313c7.465,1.283,7.474,1.286,10.074-4.824
	c0.887-2.084,1.833-4.153,2.553-6.297c1.516-4.516-0.123-7.101-4.894-7.241c-7.591-0.222-15.191-0.155-22.788-0.175
	c-3.469-0.009-5.638,1.655-6.9,4.966c-2.041,5.352-4.463,10.558-6.537,15.898c-0.857,2.207-2.105,2.999-4.472,2.986
	c-6.543-0.033-6.742,0.242-8.125,7.269c2.472,0.19,4.905,0.377,7.368,0.567c-1.205,6.445-1.574,6.797-7.306,6.773
	c-8.93-0.037-17.86-0.096-26.79-0.18c-0.978-0.01-1.954-0.25-3.378-0.445c1.473-3.611,2.766-6.791,4.067-9.967
	c2.237-5.461,4.642-6.392,10.628-3.917c-0.354,1.086-0.705,2.198-1.077,3.302c-0.394,1.167-0.807,2.326-1.244,3.58
	c7.554,1.161,7.563,1.158,10.088-4.919c0.358-0.861,0.731-1.719,1.039-2.599c1.774-5.088,0.026-7.717-5.395-7.823
	c-7.195-0.141-14.393-0.142-21.59-0.161c-5.852-0.016-6.852,0.99-7.317,7.363c2.595,0.129,5.186,0.257,8.587,0.427
	c-2.061,4.954-3.782,9.375-5.792,13.661c-0.369,0.785-1.907,1.414-2.921,1.438c-5.861,0.138-11.73,0.176-17.591,0.037
	c-3.693-0.086-4.351-1.289-2.926-4.916c2.046-5.209,4.182-10.384,6.296-15.566c1.589-3.895,3.306-8.086,5.345-13.03
	c-4.088,0-6.036,0.023-8.26,0.011c-1.217,0.986-2.308,1.87-2.483,2.011l-2.551-2.042c-9.497-0.054-19.229,0.068-28.582,0.02
	c-3.548-0.018-5.929,2.241-7.285,5.655c-3.345,8.421-6.88,16.768-10.197,25.201c-2.725,6.928-0.733,10.99,6.607,11.02
	c9.67,0.038,19.383,0.01,29.083-0.004c1.643-1.193,3.368-2.447,3.6-2.616l3.327,2.612c2.832,0,5.664,0,8.49,0.008
	c18.394,0.051,36.147-0.066,54.542,0c1.408,0.004,3.918,0,5.729,0c-0.52,2.107-1.033,2.881-1.556,5h9.051L121.401,51.307z
	 M185.734,23.663l7.333-0.002c0,0,6.084-0.29,6.292,2.293c0,0-0.167,2.875-2.167,3.417h-18.25
	C178.942,29.371,180.443,23.538,185.734,23.663z M48.175,18.943c-2.244,5.834-4.421,11.738-7.309,17.256
	c-0.928,1.773-3.886,3.047-6.113,3.443c-3.225,0.576-6.629,0.147-9.958,0.147c0-0.015,0-0.03,0-0.045
	c-3.461,0-6.925,0.081-10.383-0.024c-3.169-0.096-4.373-1.818-3.209-4.791c2.182-5.576,4.254-11.22,6.906-16.571
	c0.814-1.643,3.32-3.341,5.135-3.438c7.301-0.391,14.635-0.172,21.957-0.165C48.13,14.758,49.14,16.434,48.175,18.943z
	 M247.104,38.785c-0.508,0.984-2.423,1.602-3.752,1.727c-2.905,0.273-5.851,0.109-8.78,0.148c-2.855,0.039-3.531-1.252-2.425-3.779
	c1.388-3.171,2.545-6.458,4.147-9.513c0.651-1.241,2.149-2.748,3.37-2.85c4.191-0.352,8.432-0.135,13.921-0.135
	C251.139,29.941,249.33,34.471,247.104,38.785z"/>
</svg>
