<?xml version="1.0" encoding="utf-8"?>
<!-- Generator: Adobe Illustrator 19.0.0, SVG Export Plug-In . SVG Version: 6.00 Build 0)  -->
<svg version="1.1" id="Ebene_1" xmlns="http://www.w3.org/2000/svg" xmlns:xlink="http://www.w3.org/1999/xlink" x="0px" y="0px"
	 viewBox="0 0 515.9 157.8" style="enable-background:new 0 0 515.9 157.8;" xml:space="preserve">
<style type="text/css">
	.st0{fill:#FFFFFF;stroke:#FFFFFF;stroke-miterlimit:10;}
</style>
<polygon class="st0" points="97.4,149 168.2,81.2 218.4,81.2 203.4,96.2 174.4,96.2 120.9,149 "/>
<polygon class="st0" points="153.2,34.5 179.2,61.2 239.2,61.2 224.4,74.7 170.9,74.7 142.9,44.2 "/>
<polygon class="st0" points="136.8,48.4 163.5,75.4 87.5,149 66.2,149 142.9,75.9 126.7,59.2 "/>
<polygon class="st0" points="122.7,85.6 133.4,74.7 117.6,58.2 175.1,4.9 153.6,4.9 97.4,58.7 "/>
<polygon class="st0" points="91.3,63.2 117.3,90.7 108.3,100 85.9,77.6 18.6,77.6 5.4,63.2 "/>
<polygon class="st0" points="5.4,54.9 91.4,54.9 142.9,3.5 123.1,3.5 83.8,41.7 19.1,41.7 "/>
<path class="st0" d="M277.6,32.6l-62.5,64h35.2l17.2-17.8l18,16.8h24v-63H277.6z M288.5,76.1h-18.2l18.2-18.3V76.1z"/>
<path class="st0" d="M480.6,32.6l-62.5,64h35.2l17.2-17.8l18,16.8h24v-63H480.6z M491.5,76.1h-18.2l18.2-18.3V76.1z"/>
<path class="st0" d="M444.1,48.1c-1.8-14.5-16.2-15.5-16.2-15.5h-45.7V92l-19.1-19.3c16.2-5.1,14.5-21.8,14.5-21.8
	c-0.8-17.8-17.8-18.2-17.8-18.2h-44.8v64h22.6V73.8l22.5,22.3H404V73.6l23.9-0.5C446.6,72.1,444.1,48.1,444.1,48.1z M356.4,60
	c-1.4,7.4-8.4,7.1-8.4,7.1h-10.2V48.3h12.4C358.5,48.9,356.4,60,356.4,60z M422.5,60c-1.4,7.4-8.4,7.1-8.4,7.1H404V48.3h12.4
	C424.6,48.9,422.5,60,422.5,60z"/>
</svg>
