<?xml version="1.0" encoding="utf-8"?>
<!-- Generator: Adobe Illustrator 16.0.3, SVG Export Plug-In . SVG Version: 6.00 Build 0)  -->
<!DOCTYPE svg PUBLIC "-//W3C//DTD SVG 1.1//EN" "http://www.w3.org/Graphics/SVG/1.1/DTD/svg11.dtd">
<svg version="1.1" id="Ebene_1" xmlns="http://www.w3.org/2000/svg" xmlns:xlink="http://www.w3.org/1999/xlink" x="0px" y="0px"
	 width="516px" height="155px" viewBox="0 0 516 155" enable-background="new 0 0 516 155" xml:space="preserve">
<polygon fill="#FFFFFF" stroke="#FFFFFF" stroke-miterlimit="10" points="96.75,150.25 167.5,82.5 217.75,82.5 202.75,97.5 
	173.75,97.5 120.25,150.25 "/>
<polygon fill="#FFFFFF" stroke="#FFFFFF" stroke-miterlimit="10" points="152.5,35.75 178.5,62.5 238.5,62.5 223.75,76 170.25,76 
	142.25,45.5 "/>
<polygon fill="#FFFFFF" stroke="#FFFFFF" stroke-miterlimit="10" points="136.167,49.667 162.833,76.667 86.833,150.25 65.5,150.25 
	142.25,77.167 126,60.5 "/>
<polygon fill="#FFFFFF" stroke="#FFFFFF" stroke-miterlimit="10" points="122,86.875 132.75,76 116.875,59.5 174.375,6.125 
	152.875,6.125 96.75,60 "/>
<polygon fill="#FFFFFF" stroke="#FFFFFF" stroke-miterlimit="10" points="90.625,64.5 116.625,92 107.625,101.25 85.25,78.875 
	17.875,78.875 4.75,64.5 "/>
<polygon fill="#FFFFFF" stroke="#FFFFFF" stroke-miterlimit="10" points="4.75,56.125 90.75,56.125 142.25,4.75 122.375,4.75 
	83.125,43 18.375,43 "/>
<polygon fill="#FFFFFF" stroke="#FFFFFF" stroke-miterlimit="10" points="214.465,97.902 276.965,33.902 308.965,33.902 
	308.965,96.902 284.965,96.902 266.965,80.152 249.715,97.902 "/>
<polygon fill="none" stroke="#FFFFFF" stroke-miterlimit="10" points="269.632,77.319 287.799,58.986 287.799,77.319 "/>
<polygon fill="#FFFFFF" stroke="#FFFFFF" stroke-miterlimit="10" points="417.447,97.902 479.947,33.902 511.947,33.902 
	511.947,96.902 487.947,96.902 469.947,80.152 452.697,97.902 "/>
<polygon fill="none" stroke="#FFFFFF" stroke-miterlimit="10" points="472.614,77.319 490.781,58.986 490.781,77.319 "/>
<path fill="#FFFFFF" stroke="#FFFFFF" stroke-miterlimit="10" d="M314.465,97.902v-64h44.75c0,0,16.938,0.438,17.75,18.25
	c0,0,1.75,16.688-14.5,21.813l19.084,19.271V33.902h45.667c0,0,14.374,1,16.167,15.5c0,0,2.52,23.938-16.167,24.917l-23.917,0.5
	v22.584h-43.75l-22.5-22.333v22.832H314.465z"/>
<path fill="none" stroke="#FFFFFF" stroke-miterlimit="10" d="M337.152,49.59v18.75h10.188c0,0,7,0.313,8.375-7.063
	c0,0,2.125-11.063-6.188-11.688H337.152z"/>
<path fill="none" stroke="#FFFFFF" stroke-miterlimit="10" d="M403.277,49.59v18.75h10.188c0,0,7,0.313,8.375-7.063
	c0,0,2.125-11.063-6.188-11.688H403.277z"/>
</svg>
