<?xml version="1.0" encoding="utf-8"?>
<!-- Generator: Adobe Illustrator 16.0.3, SVG Export Plug-In . SVG Version: 6.00 Build 0)  -->
<!DOCTYPE svg PUBLIC "-//W3C//DTD SVG 1.1//EN" "http://www.w3.org/Graphics/SVG/1.1/DTD/svg11.dtd">
<svg version="1.1" id="Ebene_1" xmlns="http://www.w3.org/2000/svg" xmlns:xlink="http://www.w3.org/1999/xlink" x="0px" y="0px"
	 width="475px" height="101px" viewBox="0 0 475 101" enable-background="new 0 0 475 101" xml:space="preserve">
<g>
	<path fill-rule="evenodd" clip-rule="evenodd" fill="#FFFFFF" d="M428.166,10.333c-20.862,0-38.232,14.918-42.046,34.667h-40.453
		V8.333H259V45h-42.121c-3.813-19.749-21.184-34.667-42.046-34.667c-20.862,0-38.232,14.918-42.046,34.667H91.212
		c-3.813-19.749-21.184-34.667-42.046-34.667c-23.656,0-42.833,19.177-42.833,42.833C6.333,76.822,25.51,96,49.166,96
		c21.849,0,39.864-16.363,42.491-37.5h40.685C134.97,79.637,152.984,96,174.833,96c21.849,0,39.864-16.363,42.491-37.5H259v36.167
		h86.667V58.5h40.009c2.627,21.137,20.642,37.5,42.49,37.5C451.822,96,471,76.822,471,53.167
		C471,29.51,451.822,10.333,428.166,10.333z M61.107,73.191c-3.025-0.167-7.212,1.438-6.036-5.197
		c-5.953,5.817-12.146,7.592-19.195,4.738c-4.586-1.856-6.901-5.238-7.044-10.389c-0.147-5.281,1.696-9.008,6.616-11.093
		c4.041-1.712,8.27-2.26,12.632-2.318c2.27-0.03,5.709,1.227,6.054-2.331c0.287-2.958-1.795-5.218-5.1-5.691
		C45.5,40.313,42.016,40,38.708,41.771c-1.854,0.917-3.271,1.875-4.917,2.938c-1.665-8.477-1.586-9.335,6.432-10.994
		c3.803-0.787,7.525-0.824,11.344-0.271c6.438,0.932,11.683,4.588,12.109,10.722c0.158,4.937,0.315,9.875,0.474,14.813
		c-0.048,2.991,0.15,5.945,0.1,8.928C64.211,70.209,65.702,73.444,61.107,73.191z M189.042,39.708
		c-0.04,1.736-2.57,1.379-3.919,1.562c-4.548,0.617-7.029,3.25-8.135,7.509c-1.529,5.886-1.174,11.886-0.975,17.836
		c0.07,2.094,1.195,5.719-1.763,6.219c-3.276,0.554-8.375,0.375-8.332-1.607c-0.026-9.316-0.053-18.633-0.08-27.95
		c0.024-1.987,0.078-3.651,0.021-5.955c-0.095-3.813,0.566-4.963,4.668-5.162c6.828-0.331,3.671,4.591,4.793,7.673
		c1.262-2.166,2.287-3.482,3.859-4.712c1.287-1.006,2.664-2.077,4.179-2.56c1.672-0.534,4.095-1.146,5.184,0.199
		C190.146,34.739,189.097,37.288,189.042,39.708z M310.912,69.33c-6.725,4.545-14.323,4.445-21.58,1.761
		c-3.837-1.419-2.747-4.466-1.164-8.549c4.889,2.466,8.385,2.78,12.6,2.183c1.865-0.264,3.611-0.906,4.184-2.987
		c0.648-2.356-1.162-3.335-2.733-4.173c-2.776-1.482-5.75-2.6-8.511-4.109c-4.079-2.229-6.705-5.647-6.4-10.452
		c0.303-4.75,3.09-7.856,7.547-9.577c5.297-2.046,10.604-1.985,16.139-1.023c3.7,0.644,2.831,2.803,2.618,5.083
		c-0.242,2.595-1.341,3.473-3.834,2.285c-3.232-1.541-6.525-1.187-9.65-0.062c-0.925,0.333-1.953,1.392-2.3,2.692
		c-0.505,1.9,0.67,2.936,1.983,3.571c3.126,1.511,6.289,3.036,9.585,4.089C317.947,52.793,316.694,65.937,310.912,69.33z
		 M440.601,76.434c-7.361,3.852-15.427,0.143-17.638-8.018c-1.69-6.237-0.448-12.537-0.797-18.833
		c-0.12-2.186,1.071-4.509-3.874-4.083c-3.875,0.333-3.678-2.353-3.542-4.958c0.112-2.143-0.25-3.125,3.188-3.099l3.499,0.057
		l-0.125-7.063l10.563-3.875l0.063,11.063l5.647-0.192c3.291-0.141,3.415,0.984,3.598,3.625c0.164,2.368,0.692,4.838-3.433,4.983
		c-1.781,0.063-3.649,0.022-5.564,0.022c0,5.336-0.16,10.831,0.052,16.309c0.161,4.145,1.925,7.086,6.812,6.469
		c1.319-0.166,2.626-0.663,2.807,1.466C442.041,72.5,443.395,74.972,440.601,76.434z"/>
	<path fill-rule="evenodd" clip-rule="evenodd" fill="#FFFFFF" d="M51.149,55.099c-8.41,0.026-12.337,2.176-12.167,6.64
		c0.157,4.095,2.908,5.272,6.422,5.287c4.753,0.021,8.765-4.265,9.185-9.417C54.852,54.403,52.573,55.323,51.149,55.099z"/>
</g>
</svg>
