<?xml version="1.0" encoding="utf-8"?>
<!-- Generator: Adobe Illustrator 16.0.3, SVG Export Plug-In . SVG Version: 6.00 Build 0)  -->
<!DOCTYPE svg PUBLIC "-//W3C//DTD SVG 1.1//EN" "http://www.w3.org/Graphics/SVG/1.1/DTD/svg11.dtd">
<svg version="1.1" id="Ebene_1" xmlns="http://www.w3.org/2000/svg" xmlns:xlink="http://www.w3.org/1999/xlink" x="0px" y="0px"
	 width="328.484px" height="326.984px" viewBox="0 0 328.484 326.984" enable-background="new 0 0 328.484 326.984"
	 xml:space="preserve">
<g>
	<path fill="#FFFFFF" d="M91.684,108.682c-2.469,0.625-5.948,9.052-5.948,9.052l-22.25,58.5l41.417,3.667l-6.25-61.75
		C97.559,105.932,91.684,108.682,91.684,108.682z"/>
	<path fill="#FFFFFF" d="M35.268,256.786c4.304,5.909,9.009,11.507,14.08,16.75l62.056-19.164l-5.334-51.638l-49.333-4.333
		L35.268,256.786z"/>
	<path fill="#FFFFFF" d="M187.07,136.067c-6-29,22.333-32,22.333-32l88.553-16.867c-3.604-6.311-7.637-12.343-12.054-18.065
		l-93.499,17.265c0,0-28.666,5.667-24.666,25.333l21.666,109c0,0,6.333,25.334-12,40c0,0-15.667,9.833-24.667,13.333l-1.442,0.458
		l8.104,46.723c0.834,0.013,1.666,0.031,2.502,0.031c22.493,0,43.874-4.753,63.206-13.294L187.07,136.067z"/>
	<path fill="#FFFFFF" d="M258.07,183.068c-23.333,2-17,20.5-17,20.5l17.19,84.548c35.306-27.608,58.452-70.038,60.099-117.929
		L258.07,183.068z"/>
	<path fill="#FFFFFF" d="M15.903,220.401l67-165c0,0,5.833-18.333,17.333-18.333c0,0,8.167-0.167,13.167,19l32.376,186.662
		c4.73-3.052,9.378-8.253,8.874-16.828l-10-103.25c0,0-4.125-31,10-42.25c0,0,9.917-8.333,38.75-17.75l63.65-22.266
		C230.679,20.17,197.696,8.147,161.899,8.147C75.43,8.147,5.333,78.244,5.333,164.713c0,19.689,3.645,38.524,10.279,55.881
		L15.903,220.401z"/>
	<path fill="#FFFFFF" d="M317.417,146.611c-1.258-10.928-3.635-21.514-7.024-31.638l-76.322,14.094c-11.333,2.667-6.667,20-6.667,20
		c2,15.333,14.667,12.667,14.667,12.667L317.417,146.611z"/>
	<path fill="#FFFFFF" d="M117.57,314.068l-2.884-27.921l-35.758,11.352c11.874,7.436,24.815,13.32,38.543,17.376L117.57,314.068z"/>
</g>
</svg>
