<?xml version="1.0" encoding="utf-8"?>
<!-- Generator: Adobe Illustrator 16.0.3, SVG Export Plug-In . SVG Version: 6.00 Build 0)  -->
<!DOCTYPE svg PUBLIC "-//W3C//DTD SVG 1.1//EN" "http://www.w3.org/Graphics/SVG/1.1/DTD/svg11.dtd">
<svg version="1.1" id="Ebene_1" xmlns="http://www.w3.org/2000/svg" xmlns:xlink="http://www.w3.org/1999/xlink" x="0px" y="0px"
	 width="386.981px" height="124.494px" viewBox="0 0 386.981 124.494" enable-background="new 0 0 386.981 124.494"
	 xml:space="preserve">
<g>
	<path fill-rule="evenodd" clip-rule="evenodd" fill="#FFFFFF" d="M276.896,118.811c5.046-7.665,9.543-14.495,14.539-22.083
		c-2.637,1.515-4.509,2.858-6.581,3.725c-3.875,1.619-7.939,2.264-12.201,2.214c-11.928-0.141-23.858,0.014-35.787-0.089
		c-2.429-0.021-3.946,0.654-5.223,2.83c-2.302,3.924-5.031,7.597-7.461,11.45c-0.824,1.306-1.684,2.033-3.31,2.014
		c-5.962-0.073-11.927-0.103-17.888-0.012c-2.565,0.039-2.083-1.068-1.151-2.461c2.459-3.679,4.959-7.329,7.419-11.007
		c0.467-0.699,1.409-1.338,0.905-2.31c-0.413-0.798-1.351-0.469-2.074-0.472c-5.711-0.016-11.422-0.009-17.132-0.014
		c-1.293-0.001-2.585,0.003-3.29,1.376c-2.004,3.903-5.499,6.828-7.13,10.985c-1.13,2.881-3.04,4.152-6.424,3.961
		c-6.055-0.343-12.143-0.097-19.009-0.097c3.136-4.787,5.919-9.053,8.725-13.304c0.476-0.72,1.416-1.327,1.045-2.28
		c-0.423-1.088-1.54-0.602-2.357-0.607c-4.441-0.033-8.884-0.067-13.324,0.024c-2.209,0.046-2.923-0.508-1.429-2.474
		c0.154-0.202,0.347-0.386,0.452-0.611c3.118-6.697,8.292-9.401,15.552-7.949c6.542,1.308,10.505-1.425,13.937-7.084
		c7.346-12.114,15.429-23.78,23.19-35.643c4.444-6.793,11.018-10.371,18.704-11.87c14.018-2.733,28.073-4.272,42.092,0.256
		c1.988,0.642,3.897,1.688,4.831,3.19c1.676,2.693,2.794,1.938,4.901,0.574c14.018-9.072,29.762-12.995,46.143-12.942
		c9.647,0.03,19.304,2.518,28.794,4.918c7.304,1.847,14.373,4.212,20.772,8.167c6.897,4.262,12.685,9.301,11.704,18.726
		c-0.59,5.681-4.165,9.627-7.689,13.213c-8.227,8.374-18.205,14.313-29.182,18.543c-8.762,3.377-17.887,5.393-27.066,7.136
		c-1.956,0.372-3.173,1.082-4.218,2.699c-3.201,4.956-6.63,9.767-9.751,14.771c-1.136,1.822-2.252,2.659-4.495,2.596
		C290.238,118.696,284.039,118.811,276.896,118.811z M296.298,88.772c1.383-1.726,2.15-2.538,2.753-3.458
		c5.597-8.559,11.153-17.143,16.746-25.704c4.842-7.412,9.727-14.794,14.555-22.216c0.513-0.79,1.597-1.624,0.839-2.685
		c-0.722-1.011-1.589,0.118-2.39,0.226c-8.668,1.172-17.021,3.717-25.325,6.297c-6.148,1.91-12.18,4.425-16.931,9.021
		c-3.38,3.269-3.944,6.201-2.069,9.125c1.086,1.694,2.238,3.414,3.669,4.805C294.832,70.683,299.105,78.004,296.298,88.772z
		 M207.528,91.635c0-0.004,0-0.009,0-0.014c2.284,0,4.591-0.2,6.847,0.05c2.932,0.324,4.495-0.883,6.045-3.345
		c5.108-8.116,10.557-16.019,15.848-24.02c3.011-4.553,6.027-9.105,8.925-13.731c1.206-1.925,2.021-3.923-1.04-5.229
		c-6.784-2.894-18.013,0.202-22.107,6.352c-8.275,12.432-16.443,24.936-24.71,37.375c-1.36,2.048-0.831,2.639,1.438,2.58
		C201.69,91.58,204.61,91.635,207.528,91.635z M319.644,88.135c11.325-2.237,27.526-9.934,35.989-20.328
		c5.421-6.657,5.353-12.853-1.184-18.422c-1.244-1.06-2.729-1.832-4.015-2.85c-1.921-1.521-3.158-1.243-4.512,0.911
		c-7.459,11.879-15.139,23.616-23.272,35.051C321.465,84.165,320.699,86.129,319.644,88.135z M261.43,59.816
		c-6.98,10.704-13.72,21.037-20.754,31.823c9.706,0,18.703-0.079,27.698,0.039c3.481,0.046,5.888-1.38,7.312-4.406
		c1.373-2.917,0.156-5.317-1.726-7.648c-2.709-3.355-5.695-6.462-8.35-9.884C263.357,66.835,263.086,63.331,261.43,59.816z"/>
	<path fill-rule="evenodd" clip-rule="evenodd" fill="#FFFFFF" d="M205.017,9.997c-3.335,4.896-6.708,9.765-9.994,14.693
		c-4.82,7.232-9.562,14.518-14.367,21.76c-7.891,11.896-15.822,23.764-23.707,35.664c-6.316,9.531-12.555,19.115-18.91,28.62
		c-1.355,2.028-2.593,5.718-4.757,5.168c-2.125-0.54-0.805-4.233-0.744-6.47c0.539-19.587-0.935-39.022-4.141-58.333
		c-0.621-3.74-1.396-7.484-2.489-11.109c-0.912-3.022,0.11-4.128,2.979-4.503c9.578-1.254,18.88-3.729,28.078-6.606
		c14.863-4.648,29.43-10.063,43.372-17.056c1.447-0.726,2.842-1.557,4.261-2.339C204.739,9.656,204.878,9.827,205.017,9.997z"/>
	<path fill-rule="evenodd" clip-rule="evenodd" fill="#FFFFFF" d="M123.706,13.521c-2.57,4.057-5.132,8.119-7.715,12.167
		c-0.692,1.085-1.545,1.842-2.93,2.187c-6.516,1.623-12.96,3.494-19.59,4.699c-3.133,0.569-6.106,1.989-9.362,2.229
		c-2.026,0.149-1.2,1.688-0.902,2.56c2.836,8.301,3.772,16.984,5.232,25.559c0.371,2.182-0.131,4.126-1.409,6.051
		c-6.717,10.122-13.297,20.334-19.961,30.491c-3.721,5.671-7.497,11.307-11.292,16.928c-0.652,0.967-1.032,2.703-2.694,2.066
		c-1.372-0.525-0.763-2.048-0.639-3.041c1.479-11.904,0.744-23.794-0.12-35.684c-1.002-13.799-2.962-27.464-6.248-40.909
		c-0.501-2.051-0.52-3.05,1.822-3.421c25.711-4.08,49.905-12.893,73.458-23.655C122.132,12.343,122.918,12.932,123.706,13.521z"/>
	<path fill-rule="evenodd" clip-rule="evenodd" fill="#FFFFFF" d="M165.164,10.6c-3.548,5.158-7.135,10.292-10.613,15.497
		c-0.729,1.091-1.647,1.334-2.787,1.639c-8.695,2.318-17.408,4.58-26.301,5.983c-2.913,0.459-3.445,1.666-2.747,4.339
		c2.238,8.566,3.872,17.258,5.04,26.04c0.197,1.479-0.081,2.621-0.918,3.885c-5.578,8.413-11.039,16.902-16.572,25.345
		c-5.126,7.82-10.306,15.606-15.433,23.427c-0.563,0.858-0.985,2.005-2.212,1.572c-0.807-0.284-0.528-1.315-0.436-2.031
		c1.168-9.067,1.031-18.193,0.587-27.265c-0.837-17.089-2.686-34.091-6.89-50.731c-0.648-2.567,0.795-2.385,2.264-2.607
		c15.329-2.32,30.093-6.742,44.606-12.063C143.559,19.667,154.243,15.395,165.164,10.6z"/>
	<path fill-rule="evenodd" clip-rule="evenodd" fill="#FFFFFF" d="M86.497,10.933c-3.548,5.158-7.135,10.292-10.613,15.497
		c-0.729,1.091-1.647,1.334-2.787,1.639c-8.695,2.318-17.408,4.58-26.301,5.983c-2.913,0.459-3.445,1.666-2.747,4.339
		c2.238,8.566,3.872,17.258,5.04,26.04c0.197,1.479-0.081,2.622-0.918,3.885c-5.578,8.412-11.039,16.902-16.572,25.344
		c-5.126,7.82-10.306,15.607-15.433,23.428c-0.563,0.857-0.985,2.004-2.212,1.572c-0.807-0.285-0.528-1.316-0.436-2.031
		c1.168-9.068,1.031-18.193,0.587-27.266c-0.837-17.088-2.686-34.09-6.89-50.73c-0.648-2.567,0.795-2.385,2.264-2.607
		c15.329-2.32,30.093-6.742,44.606-12.063C64.892,20,75.576,15.727,86.497,10.933z"/>
	<path fill-rule="evenodd" clip-rule="evenodd" fill="#FFFFFF" d="M123.706,13.521c-0.787-0.589-1.573-1.179-2.351-1.772
		c1.542-0.812,2.891-1.996,4.785-2.238C125.761,11.121,124.599,12.243,123.706,13.521z"/>
</g>
</svg>
