<?xml version="1.0" encoding="utf-8"?>
<!-- Generator: Adobe Illustrator 19.0.0, SVG Export Plug-In . SVG Version: 6.00 Build 0)  -->
<svg version="1.1" id="Ebene_1" xmlns="http://www.w3.org/2000/svg" xmlns:xlink="http://www.w3.org/1999/xlink" x="0px" y="0px"
	 viewBox="0 0 382 350" style="enable-background:new 0 0 382 350;" xml:space="preserve">
<style type="text/css">
	.st0{fill-rule:evenodd;clip-rule:evenodd;fill:#79C6BA;}
	.st1{fill-rule:evenodd;clip-rule:evenodd;fill:#2E2E6C;}
	.st2{fill-rule:evenodd;clip-rule:evenodd;fill:#2E2D6C;}
	.st3{fill-rule:evenodd;clip-rule:evenodd;fill:#7AC6BA;}
	.st4{fill-rule:evenodd;clip-rule:evenodd;fill:#7CC7BB;}
	.st5{fill-rule:evenodd;clip-rule:evenodd;fill:#4B477F;}
</style>
<g>
	<path class="st0" d="M204.8,343.6c-42.5-0.4-80.1-14.1-112.4-41.8C65.9,279,48,250.5,38.6,216.7c-1.5-5.4,1.3-10.9,6.4-12.2
		c5.4-1.5,10.6,1.5,12.1,7.1c2.9,11.2,6.9,21.9,12.2,32.2c14.8,28.6,36.3,50.6,64.5,65.9c19.1,10.4,39.6,16.5,61.3,18.1
		c41.7,3.1,79-8.3,111.4-34.6c29.4-23.8,47.8-54.6,55.3-91.7c3.2-15.9,3.8-31.9,2-48c-3.6-32.6-16.3-61.3-37.4-86.3
		c-2.6-3-5.4-5.9-8.1-8.8c-2.3-2.4-2.5-4.6-0.5-6.4c1.8-1.7,4.1-1.5,6.3,0.7c18.6,18.2,32.5,39.5,41.4,64.1
		c7.7,21.4,11,43.5,9.7,66.2c-2.1,36.9-14.9,69.8-38.3,98.4c-15.5,19-34.3,33.9-56.3,44.8c-17.8,8.8-36.6,14.4-56.5,16.5
		C217.7,343.2,211.3,343.6,204.8,343.6z"/>
	<path class="st1" d="M299.1,210.6c-28.2-0.2-47.7-21-48.2-47.5c-0.5-26.9,19.6-48.3,46.4-48.9c27.5-0.6,48.8,19.6,49.4,46.8
		C347.2,189,327.2,209.9,299.1,210.6z M267.9,162.8c0.1,1,0.1,2.9,0.4,4.7c1.9,12.1,7.8,21.3,19.6,25.5c11.6,4.2,22.7,2.5,31.9-6.2
		c9.2-8.7,11.4-19.9,9.2-32c-3.6-19.3-22.4-30-40.9-23.5C275.8,135.7,268.1,147.5,267.9,162.8z"/>
	<path class="st1" d="M134.5,114.1c9.2,0.2,17.7,2.2,24.4,9.1c2.7,2.8,2.7,3.4-0.1,6c-2.6,2.3-5.1,4.6-7.7,7
		c-1.6,1.5-2.8,1.4-4.2-0.3c-5.4-6.4-15-8.2-22.4-4.4c-3.7,1.9-5.8,4.9-5.9,9.1c-0.2,4.1,1.7,7.1,5.2,9.2c4.1,2.5,8.8,3.7,13.3,5.1
		c2.7,0.9,5.4,1.8,8,2.8c16.8,6.5,18.7,20.4,15.4,32.2c-2.2,8.1-7.6,13.6-15.1,17.2c-13.3,6.3-32.1,3.8-42.5-5.7
		c-5.1-4.6-5-5.2,0.1-9.7c1.9-1.6,3.7-3.3,5.6-4.9c2.2-1.9,2.9-1.8,4.7,0.5c5.4,6.9,15.1,9.5,23.2,6.2c2.4-1,4.5-2.4,6.1-4.5
		c3.8-5,2.7-11.2-2.7-14.4c-4.2-2.5-9-3.7-13.6-5.2c-4.8-1.6-9.6-3.3-13.8-6.2c-15.5-10.7-14.5-34.4,1.8-44.3
		C120.6,115.3,127.4,114,134.5,114.1z"/>
	<path class="st2" d="M215.7,116.6c10.7,0.5,19.8,4.2,24.2,14.6c4.5,10.5,3.6,20.8-4,29.9c-4.6,5.4-11,7.5-17.9,8.3
		c-6.7,0.7-13.4,0.4-20.2,0.3c-2,0-2.5,0.5-2.5,2.5c0.1,10.7,0.1,21.4,0,32.1c0,3.8-0.2,4-3.8,4c-2.9,0-5.8,0-8.8,0
		c-3.2,0-3.6-0.4-3.6-3.5c0-5.7,0-11.3,0-17c0-22.5,0-45,0-67.4c0-1.3-0.5-2.9,1.3-3.7c0.8,0.8,1.8,0.5,2.8,0.5c7.7,0,15.3,0,23,0
		C209.4,117.1,212.5,117.5,215.7,116.6z M195.3,142.9c0,3.3,0.1,6.5,0,9.8c-0.1,1.9,0.6,2.4,2.4,2.3c4-0.1,8,0,11.9-0.1
		c3.3,0,6.5-0.3,9.6-1.6c2.9-1.2,4.9-3.2,5.7-6.2c2.4-8.3-1.5-14.5-10.1-15.7c-6-0.9-12-0.2-18-0.4c-1.5-0.1-1.5,0.7-1.5,1.8
		C195.3,136.2,195.3,139.6,195.3,142.9z"/>
	<path class="st1" d="M46.1,137.6c-2.8,7-5.4,13.4-7.9,19.9c-6,15.3-12.1,30.6-18.1,45.9c-2,5-6.6,7.3-11.3,5.4
		c-4.6-1.8-6.5-6.8-4.4-11.7c11-25.2,22.1-50.4,33.2-75.5c1.8-4,4.7-6.4,9.3-6.3c4.4,0.1,7.2,2.4,8.9,6.4
		c10.7,24.9,21.4,49.9,32.1,74.9c2.3,5.4,0.6,10.3-4.1,12.2c-4.8,2-9.5-0.4-11.7-6c-8.4-21.1-16.7-42.2-25.1-63.4
		C46.8,139,46.6,138.6,46.1,137.6z"/>
	<path class="st3" d="M69,92.7c-5,0.1-9.5-4.4-9.5-9.4c0-4.9,4.2-9.1,9.2-9.1c5.3-0.1,9.7,4.1,9.7,9.2C78.2,88.3,74,92.6,69,92.7z"
		/>
	<path class="st3" d="M121.5,37.5c-0.1,4.6-3.9,8.1-8.5,7.9c-4.4-0.2-8-4-7.9-8.4c0.1-4.7,3.8-8.2,8.6-8.1
		C118.3,29.1,121.7,32.7,121.5,37.5z"/>
	<path class="st3" d="M170,19.5c-4,0-7.3-3.2-7.4-7c-0.1-3.8,3.3-7.3,7.2-7.3c4.1,0,7.4,3.4,7.4,7.4C177.1,16.5,174,19.5,170,19.5z"
		/>
	<path class="st4" d="M231.3,4.1c3.3-0.1,6.3,2.8,6.4,6.1c0.1,3.3-2.8,6.3-6.1,6.4c-3.3,0.1-6.5-3.1-6.4-6.4
		C225.2,7.2,228.2,4.2,231.3,4.1z"/>
	<path class="st4" d="M291.4,27.4c2.9,0,5.3,2.4,5.2,5.2c-0.1,2.7-2.4,4.9-5.2,5c-3,0-5.2-2.2-5.2-5.1
		C286.2,29.5,288.4,27.4,291.4,27.4z"/>
	<path class="st5" d="M215.7,116.6c-3.1,0.9-6.3,0.5-9.5,0.6c-7.7,0-15.3,0-23,0c-0.9,0-2,0.3-2.8-0.5c0.4-0.4,0.9-0.4,1.5-0.4
		c10.5,0,21,0,31.4,0C214.1,116.3,214.9,116.5,215.7,116.6z"/>
</g>
</svg>
