<?xml version="1.0" encoding="utf-8"?>
<!-- Generator: Adobe Illustrator 16.0.3, SVG Export Plug-In . SVG Version: 6.00 Build 0)  -->
<!DOCTYPE svg PUBLIC "-//W3C//DTD SVG 1.1//EN" "http://www.w3.org/Graphics/SVG/1.1/DTD/svg11.dtd">
<svg version="1.1" xmlns="http://www.w3.org/2000/svg" xmlns:xlink="http://www.w3.org/1999/xlink" x="0px" y="0px"
	 width="254.987px" height="205.49px" viewBox="0 0 254.987 205.49" enable-background="new 0 0 254.987 205.49"
	 xml:space="preserve">
<g id="Ebene_1" display="none">
	<g display="inline">
		<path fill-rule="evenodd" clip-rule="evenodd" fill="#FDFCFC" d="M116.404,0.904c45.166,0,90.334,0.037,135.5-0.083
			c2.982-0.008,3.588,0.601,3.582,3.583c-0.107,66-0.107,132,0,198c0.006,2.981-0.6,3.585-3.582,3.582
			c-90.333-0.101-180.667-0.101-271,0c-2.981,0.003-3.588-0.598-3.583-3.582c0.108-66,0.108-132,0-198
			c-0.005-2.982,0.6-3.591,3.583-3.583C26.07,0.941,71.237,0.904,116.404,0.904z M50.674,28.008l-0.187-0.11l0.034,0.212
			c-0.358,0.269-0.716,0.538-1.074,0.808c-1.703,0.084-2.708,1.07-3.315,2.568c-0.41,0.378-0.819,0.755-1.229,1.133
			c-1.778-0.1-2.699,0.908-3.192,2.468c-0.871,0.709-1.741,1.417-2.611,2.126c-0.599-0.69-0.792-0.429-0.771,0.329
			c-1.27,0.342-2.838,0.135-3.375,1.83l-0.287,0.113l0.304,0.028c0.676,0.335,1.353,0.67,2.029,1.006
			c1.988,0.885,3.988,0.555,5.99,0.063c3.871-0.058,7.742-0.115,11.612-0.173c0.54,0.605,1.069,0.567,1.589-0.025
			c1.453,0.027,2.906,0.054,4.358,0.081c1.905,1.688,0.329,2.517-0.729,3.756c-2.594,3.039-6.738,4.432-8.591,8.214
			c-0.337,0.176-0.674,0.353-1.012,0.529c-0.597-0.373-0.795-0.129-0.753,0.487c-1.432,0.627-3.265,0.679-3.954,2.914
			c2.18,1.267,4.511,0.681,6.723,0.643c19.969-0.344,39.744,0.554,58.425,8.775c1.271,0.559,2.581,0.484,3.886,0.085
			c0.999,1.875,2.316,3.428,3.943,4.854c6.248,5.475,5.225,14.037-1.98,18.076c-6.928,3.884-14.472,6.196-21.921,8.76l0.144,0.112
			c-1.118,0.221-2.236,0.442-3.354,0.663c-4.408,0.55-8.911,0.624-13.793,2.366c4.872,3.157,9.507,2.427,14.075,2.17
			c4.152-0.179,8.304-0.357,12.456-0.536c4.685,0.537,9.284,0.091,13.812-1.196c17.631-1.213,34.968-4.132,52.23-7.971
			c10.383-2.309,20.803-3.934,29.985-9.798c5.638-3.602,11.626-6.676,17.138-10.452c7.837-5.369,10.023-15.755,5.496-24.252
			c-1.495-2.806-3.34-5.373-5.819-7.423c-1.345-1.201-2.566-2.589-4.056-3.573c-17.547-11.602-37.18-17.436-57.762-20.354
			c-27.609-3.916-55.343-4.185-83.144-2.427c-6.839,0.433-12.426,2.397-15.847,8.697c-0.349,0.316-0.697,0.632-1.046,0.948
			l-0.235-0.191l0.109,0.286c-0.34,0.26-0.68,0.521-1.02,0.781c-1.342-0.161-1.994,0.558-2.257,1.771
			C51.358,27.455,51.016,27.731,50.674,28.008z M210.81,180.887c-0.066-1.217-0.131-2.433-0.197-3.648
			c2.76-3.283,3.844-7.158,4.012-11.357c-0.043-0.924-0.086-1.848-0.129-2.771c4.15-3.649,3.584-8.95,3.973-13.515
			c1.113-13.053,3.602-15.847,16.289-15.859c8.746-0.008,8.656-0.021,9.918-8.941c0.338-2.389,1.273-4.729,2.178-6.992
			c1.47-3.675,0.623-4.959-3.558-4.902c-15.157,0.201-30.335-0.355-45.473,0.23c-8.205,0.317-16.823-2.832-24.676,2.084
			c-0.173,0.108-0.686-0.42-1.073-0.55c-5.141-1.718-10.609-2.354-15.842-2.354c-19.289,0.007-33.111,9.378-41.987,26.322
			c-3.967,8.989-1.606,15.867,7.301,21.271c1.188,0.779,1.938,2.353,3.723,2.047c1.959,0.896,3.031,3.428,5.67,3.07
			c2.856,2.674,7.458,4.74,3.43,9.819c-1.337,1.066-2.674,2.133-4.01,3.199c-1.66-0.032-3.328-0.192-4.978-0.074
			c-6.741,0.48-11.975-2.928-16.931-6.733c-3.646-2.801-1.434-7.145-2.105-10.748c-0.365-1.957-0.119-4.051-0.633-5.952
			c-2.168-8.025-0.738-16.315-1.953-24.45c-0.617-4.133-0.399-8.598-0.311-12.904c0.068-3.331-0.923-4.721-4.541-4.658
			c-11.493,0.201-22.993,0.133-34.488,0.023c-2.502-0.023-3.814,0.922-5.081,3.055c-4.796,8.077-8.937,16.527-14.17,24.364
			c-2.686,4.022-5.394,8.138-6.759,12.899c-3.677,5.544-7.893,10.82-10.828,16.732c-1.723,3.471-5.047,6.111-5.437,10.246
			c-2.94,2.338-4.309,5.675-5.72,8.985c-0.859,2.745-4.573,4.695-2.315,8.31c0.388,0.285,0.773,0.817,1.165,0.822
			c8.442,0.102,16.884,0.184,25.327,0.168c2.022-0.004,3.303-1.26,3.868-3.203c1.676-2.322,3.353-4.646,5.029-6.968
			c5.812-0.016,11.641,0.241,17.428-0.136c4.525-0.293,6.152,1.336,5.212,5.65c-0.82,3.762,0.602,4.896,4.409,4.793
			c9.292-0.252,18.596-0.059,27.895-0.102c1.383-0.007,3.083,0.631,3.891-1.27c0.706-0.273,1.413-0.545,2.119-0.818l0.442,0.098
			c1.303,0.977,2.815,0.855,4.311,0.822c7.646,2.148,15.285,2.797,22.907-0.111c0.497-0.089,0.994-0.178,1.491-0.267
			c6.702-0.772,12.877-2.753,17.733-7.751c0.741-0.559,1.483-1.117,2.226-1.676c3.383-1.479,6.317-3.371,6.894-7.449
			c3.201-2.887,3.331-6.939,4.079-10.757c2.406-4.962,1.6-9.504-1.984-13.538c-4.234-4.769-9.25-8.402-15.26-10.777
			c-2.814-1.111-6.127-2.695-5.248-6.67c0.777-3.523,3.939-4.195,7.045-4.316c5.236-0.203,10.169,0.777,14.756,3.576
			c4.201,2.564,5.868,1.693,6.818-3.063c1.32-0.071,2.64-0.168,3.961-0.211c7.709-0.248,7.709-0.243,5.746,6.918
			c-0.384,1.907-0.836,3.804-1.136,5.725c-0.644,4.129-3.274,7.814-2.708,12.208c-0.121,0.952-0.242,1.903-0.363,2.854
			c-3.128,2.283-2.398,6.15-3.758,9.159c0.959,3.659-2.078,6.323-2.396,9.808c-0.378,4.137-1.252,8.381-3.107,12.238
			c-1.818,3.78-0.623,6.085,3.387,6.107c8.136,0.044,16.271-0.012,24.406,0.019c3.354,0.013,5.783-1.001,5.976-4.839
			C209.081,190.07,210.589,185.679,210.81,180.887z"/>
		<path fill-rule="evenodd" clip-rule="evenodd" fill="#BC2A18" d="M60.55,40.464c-1.453-0.027-2.906-0.054-4.348-0.08
			c-0.533-0.391-1.069-0.405-1.6,0.025c-3.871,0.058-7.741,0.115-11.595,0.171c-1.984-0.625-3.997-0.223-6.007-0.061
			c-0.676-0.335-1.353-0.67-2.028-1.005c0,0.001-0.018-0.142-0.018-0.142c0.537-1.695,2.104-1.488,3.367-1.831
			c0.255-0.11,0.517-0.219,0.779-0.328c0.87-0.709,1.74-1.417,2.604-2.121c1.96,0.339,2.692-0.921,3.199-2.474
			c0.41-0.377,0.819-0.755,1.223-1.126c1.814,0.063,3.122-0.542,3.321-2.575c0.358-0.27,0.716-0.539,1.073-0.806
			c-0.001,0.002,0.229,0.151,0.229,0.151l-0.076-0.254c0.342-0.277,0.684-0.554,1.019-0.825c1.463,0.32,2.155-0.356,2.263-1.776
			c0.34-0.261,0.68-0.521,1.019-0.78c-0.001,0,0.127-0.096,0.127-0.096c0.349-0.316,0.697-0.632,1.039-0.943
			c1.925,0.654,2.522-1.165,3.65-1.987c1.991-1.451,3.757-3.283,6.27-3.861c13.581-3.124,27.413-1.95,41.147-2.267
			c7.143-0.165,14.474-0.549,21.41,0.782c9.264,1.777,18.646,1.85,27.917,3.359c15.11,2.459,29.548,6.741,43.55,12.82
			c5.852,2.541,10.383,7.542,16.872,8.807c2.479,2.051,4.324,4.618,5.819,7.423c4.527,8.497,2.341,18.883-5.496,24.252
			c-5.512,3.776-11.5,6.85-17.138,10.452c-9.183,5.865-19.603,7.49-29.985,9.798c-17.263,3.838-34.6,6.757-52.231,7.971
			c-4.641-0.038-9.342-0.759-13.811,1.196c-4.152,0.178-8.304,0.357-12.459,0.536c-1.466-1.059-3.17-0.43-4.746-0.688
			c-1.032-0.169-2.614,0.179-2.531-1.487c0.061-1.219,1.47-0.875,2.318-1.17c1.528-0.531,3.468,0.559,4.68-1.191
			c1.118-0.221,2.235-0.442,3.35-0.663c0.252,0.844,0.943,0.292,1.415,0.441c9.124-0.391,18.233-0.981,27.271-2.332
			c16.241-2.428,32.26-5.475,46.764-13.933c13.281-7.744,13.863-20.44,1.011-28.784c-1.111-0.722-2.3-1.327-3.465-1.964
			c-14.07-7.697-29.405-10.615-45.147-12.319C101.8,36.53,81.086,34.702,60.55,40.464z"/>
		<path fill-rule="evenodd" clip-rule="evenodd" fill="#1E91D0" d="M170.537,168.981c-0.748,3.817-0.878,7.87-4.08,10.76
			c-2.904,1.921-5.846,3.808-6.893,7.446c-0.742,0.559-1.484,1.117-2.226,1.677c-6.421,1.419-12.294,4.089-17.733,7.75
			c-0.497,0.089-0.994,0.178-1.488,0.267c-7.635,0.037-15.272,0.074-22.91,0.111c-1.496,0.033-3.008,0.154-4.309-0.824
			c0.532-0.219,1.063-0.436,1.593-0.652c-0.072-0.135-0.122-0.361-0.221-0.387c-0.869-0.216-1.47,0.131-1.816,0.943
			c-0.707,0.273-1.413,0.545-2.119,0.818c-10.269,0.003-20.538-0.018-30.807,0.025c-2.344,0.01-4.335-0.021-4.103-3.305
			c0.472-6.685,0.405-6.67-6.204-6.714c-3.308-0.022-6.708,0.325-9.895-0.329c-2.992-0.615-5.389-0.043-7.827,1.386
			c-1.676,2.322-3.353,4.646-5.029,6.967c-4.707,2.618-9.854,1.921-14.902,1.989c-5.153,0.068-10.305,0.148-15.458,0.225
			c-2.257-3.614,1.456-5.564,2.315-8.309c3.532-1.063,6.654-5.969,5.72-8.986c0.389-4.135,3.714-6.775,5.437-10.246
			c2.935-5.912,7.15-11.188,10.828-16.731c5.852-1.247,11.652-0.739,17.213,1.2c1.977,0.688,3.037,0.943,4.224-0.971
			c0.53-0.854,1.436-2.236,2.725-1.556c1.438,0.759,0.996,2.518,0.576,3.565c-0.905,2.256-2.473,4.277-1.668,6.929v-0.081
			c-1.619,0.102-2.604,0.494-0.963,2.096c0.013,0.287-0.045,0.561-0.174,0.818c-2.292,0.266-2.999,1.71-2.868,3.811
			c0.084,1.364,0.738,2.166,2.137,2.172c3.952,0.018,7.904,0.045,11.854-0.022c1.848-0.031,1.886-1.487,1.934-2.845
			c0.359-4.301,0.718-8.6,1.077-12.9c0.343-0.057,0.686-0.113,1.028-0.171c2.647-0.073,5.243-0.137,7.904-0.704
			c3.461-0.736,7.437-1.589,9.105,3.495c1.434-2.174,1.919-4.407,4.086-5.344c1.291,1.416,0.475,3.985,2.965,4.373
			c2.195,0.342,1.271-2.179,2.544-2.775c0.758,3.324,2.476,6.677,2.042,9.723c-1.421,9.995,4.737,13.761,12.463,16.121
			c4.625,1.413,9.723,3.097,13.744-1.756c1.336-1.066,2.673-2.133,4.01-3.198c4.402,0.154,3.077-3.216,2.922-5.311
			c-0.277-3.725-2.885-4.898-6.352-4.51c-2.639,0.357-3.711-2.174-5.668-3.071c0.553-2.94,0.862-6.952,5.006-5.734
			c5.002,1.47,10.119,1.479,14.657,0.36c4.82-1.189,10.02,3.566,14.329-1.383c0.608-0.699,1.648,0.549,2.494,1.039
			C166.735,159.115,169.224,163.622,170.537,168.981z"/>
		<path fill-rule="evenodd" clip-rule="evenodd" fill="#1260A7" d="M170.537,168.981c-1.313-5.359-3.802-9.866-8.779-12.749
			c-0.846-0.49-1.886-1.738-2.494-1.039c-4.31,4.949-9.509,0.193-14.329,1.383c-4.538,1.119-9.655,1.109-14.657-0.36
			c-4.144-1.218-4.453,2.794-5.006,5.734c-1.786,0.307-2.537-1.267-3.727-2.046c-0.078-0.492,0.008-1.108-0.256-1.457
			c-4.236-5.586-8.92-10.99-6.75-18.875c0.073-0.266-0.188-0.623-0.293-0.938c8.875-16.944,22.698-26.315,41.987-26.322
			c5.232-0.001,10.701,0.636,15.842,2.354c0.388,0.13,0.9,0.658,1.073,0.55c7.853-4.916,16.471-1.767,24.676-2.084
			c15.138-0.586,30.315-0.029,45.473-0.23c4.181-0.057,5.027,1.228,3.558,4.902c-0.904,2.264-1.84,4.604-2.178,6.992
			c-1.262,8.92-1.172,8.934-9.918,8.941c-12.688,0.013-15.176,2.807-16.289,15.859c-0.389,4.564,0.178,9.865-3.973,13.515
			c-0.701-3.454-1.254-7.766-5.957-6.916c-5.619,1.015-11.161,0.413-16.729,0.651c-3.238,0.138-6.529-0.293-9.283,1.987
			c-0.566-4.394,2.064-8.079,2.708-12.208c0.3-1.921,0.752-3.817,1.136-5.725c3.271-0.166,2.787-2.559,2.775-4.674
			c-0.008-1.328,0.126-3.082-1.633-3.071c-3.629,0.022-7.445-1.405-10.85,1.038c-0.95,4.756-2.617,5.627-6.818,3.063
			c-4.587-2.799-9.52-3.779-14.756-3.576c-3.105,0.121-6.268,0.793-7.045,4.316c-0.879,3.975,2.434,5.559,5.248,6.67
			c6.01,2.375,11.025,6.009,15.26,10.777C172.136,159.478,172.943,164.02,170.537,168.981z"/>
		<path fill-rule="evenodd" clip-rule="evenodd" fill="#F29A18" d="M60.55,40.464c20.536-5.762,41.25-3.935,62.025-1.686
			c15.742,1.704,31.077,4.622,45.147,12.319c1.165,0.637,2.354,1.242,3.465,1.964c12.853,8.344,12.271,21.04-1.011,28.784
			c-14.504,8.458-30.522,11.504-46.764,13.933c-9.037,1.351-18.147,1.941-27.265,2.332c-0.517-0.185-1.039-0.369-1.56-0.553
			c7.449-2.564,14.993-4.876,21.921-8.76c7.205-4.039,8.229-12.601,1.98-18.076c-1.627-1.427-2.944-2.979-3.944-4.854
			c-0.38-1.242-1.331-1.843-2.481-2.238c-6.187-2.128-12.008-4.901-18.655-6.189c-12.771-2.474-25.469-4.277-38.469-3.832
			c-1.359,0.046-2.652-0.216-3.71-1.172c1.853-3.783,5.997-5.176,8.591-8.214C60.879,42.981,62.456,42.152,60.55,40.464z"/>
		<path fill-rule="evenodd" clip-rule="evenodd" fill="#1260A7" d="M61.479,162.03c-0.805-2.651,0.763-4.673,1.668-6.929
			c0.42-1.048,0.862-2.807-0.576-3.565c-1.289-0.681-2.195,0.702-2.725,1.556c-1.187,1.914-2.247,1.659-4.224,0.971
			c-5.562-1.939-11.361-2.447-17.213-1.2c1.366-4.763,4.073-8.878,6.759-12.9c5.234-7.837,9.374-16.287,14.17-24.364
			c1.267-2.133,2.579-3.078,5.081-3.055c11.496,0.109,22.995,0.178,34.488-0.023c3.618-0.063,4.609,1.327,4.541,4.658
			c-0.088,4.307-0.306,8.771,0.311,12.904c1.214,8.135-0.216,16.425,1.953,24.45c0.514,1.901,0.268,3.995,0.633,5.952
			c0.671,3.604-1.541,7.947,2.105,10.748c4.956,3.806,10.189,7.214,16.931,6.733c1.649-0.118,3.317,0.042,4.978,0.074
			c-4.021,4.853-9.119,3.169-13.744,1.756c-7.727-2.36-13.884-6.126-12.463-16.121c0.433-3.046-1.284-6.398-2.042-9.723
			c-1.273,0.597-0.349,3.117-2.544,2.775c-2.49-0.388-1.674-2.957-2.965-4.373c-2.167,0.937-2.652,3.17-4.086,5.344
			c-1.668-5.084-5.644-4.231-9.105-3.495c-2.662,0.567-5.257,0.631-7.905,0.704c-0.685-5.331,1.143-10.499,1.011-15.793
			c-0.029-1.169-0.121-2.642-1.556-2.644c-1.51-0.002-1.509,1.464-1.474,2.66c-0.279,2.512-3.53,2.873-3.847,5.416
			C68.801,151.24,65.458,156.789,61.479,162.03z"/>
		<path fill-rule="evenodd" clip-rule="evenodd" fill="#1E91D0" d="M182.527,158.833c2.754-2.28,6.045-1.85,9.283-1.987
			c5.567-0.238,11.109,0.363,16.729-0.651c4.703-0.85,5.256,3.462,5.957,6.916c0.043,0.923,0.086,1.847,0.128,2.769
			c-2.935,1.287-5.181,7.65-4.011,11.359c0.066,1.216,0.131,2.432,0.194,3.648c-3.444,0.895-6.012,9.15-4.137,13.293
			c-0.192,3.838-2.622,4.852-5.976,4.839c-8.135-0.03-16.271,0.025-24.406-0.019c-4.01-0.022-5.205-2.327-3.387-6.107
			c1.855-3.857,2.729-8.102,3.107-12.238c0.318-3.484,3.355-6.148,2.396-9.807c2.803-0.976,4.803-5.849,3.758-9.16
			C182.285,160.736,182.406,159.785,182.527,158.833z"/>
		<path fill-rule="evenodd" clip-rule="evenodd" fill="#F29A18" d="M216.958,41.241c-6.489-1.265-11.021-6.267-16.872-8.807
			c-14.002-6.079-28.439-10.36-43.55-12.82c-9.271-1.509-18.653-1.583-27.917-3.359c-6.936-1.331-14.267-0.946-21.41-0.782
			c-13.734,0.316-27.566-0.857-41.147,2.267c-2.513,0.578-4.279,2.411-6.27,3.861c-1.128,0.822-1.726,2.641-3.65,1.987
			c3.428-6.304,9.016-8.269,15.854-8.701c27.801-1.758,55.535-1.489,83.144,2.427c20.582,2.919,40.215,8.753,57.762,20.354
			C214.391,38.652,215.613,40.04,216.958,41.241z"/>
		<path fill-rule="evenodd" clip-rule="evenodd" fill="#BC2A18" d="M51.231,52.435c1.058,0.956,2.351,1.219,3.71,1.172
			c13-0.445,25.699,1.358,38.469,3.832c6.646,1.288,12.468,4.062,18.655,6.189c1.15,0.396,2.101,0.997,2.481,2.238
			c-1.304,0.399-2.615,0.474-3.885-0.085c-18.681-8.221-38.457-9.119-58.425-8.775c-2.212,0.038-4.542,0.625-6.723-0.643
			c0.689-2.235,2.522-2.286,3.951-2.912c0.503,0.229,0.79,0.118,0.756-0.489C50.557,52.787,50.894,52.611,51.231,52.435z"/>
		<path fill-rule="evenodd" clip-rule="evenodd" fill="#4295B6" d="M49.499,187.954c2.438-1.429,4.835-2.001,7.827-1.386
			c3.187,0.654,6.587,0.307,9.895,0.329c6.608,0.044,6.676,0.029,6.204,6.714c-0.232,3.283,1.759,3.314,4.103,3.305
			c10.269-0.043,20.538-0.022,30.807-0.025c-0.809,1.9-2.509,1.263-3.892,1.27c-9.299,0.043-18.603-0.15-27.895,0.102
			c-3.807,0.104-5.229-1.031-4.409-4.793c0.94-4.314-0.687-5.943-5.212-5.65C61.14,188.195,55.311,187.938,49.499,187.954z"/>
		<path fill-rule="evenodd" clip-rule="evenodd" fill="#4295B6" d="M114.245,138.634c0.105,0.315,0.366,0.673,0.293,0.938
			c-2.17,7.885,2.514,13.289,6.75,18.875c0.264,0.349,0.178,0.965,0.256,1.457C112.639,154.501,110.278,147.623,114.245,138.634z"/>
		<path fill-rule="evenodd" clip-rule="evenodd" fill="#4295B6" d="M139.605,196.614c5.439-3.661,11.313-6.331,17.733-7.75
			C152.482,193.861,146.307,195.842,139.605,196.614z"/>
		<path fill-rule="evenodd" clip-rule="evenodd" fill="#4295B6" d="M91.378,98.332c-1.212,1.75-3.151,0.661-4.68,1.191
			c-0.848,0.294-2.257-0.049-2.318,1.17c-0.083,1.666,1.499,1.317,2.531,1.487c1.576,0.259,3.28-0.37,4.746,0.688
			c-4.564,0.256-9.2,0.987-14.072-2.17C82.467,98.956,86.971,98.882,91.378,98.332z"/>
		<path fill-rule="evenodd" clip-rule="evenodd" fill="#4295B6" d="M115.207,196.992c7.638-0.037,15.275-0.074,22.91-0.111
			C130.492,199.789,122.853,199.141,115.207,196.992z"/>
		<path fill-rule="evenodd" clip-rule="evenodd" fill="#4295B6" d="M206.67,194.18c-1.875-4.143,0.692-12.398,4.137-13.293
			C210.589,185.679,209.081,190.07,206.67,194.18z"/>
		<path fill-rule="evenodd" clip-rule="evenodd" fill="#4295B6" d="M14.11,197.135c5.152-0.076,10.305-0.156,15.458-0.225
			c5.047-0.068,10.195,0.629,14.902-1.989c-0.565,1.944-1.845,3.2-3.868,3.204c-8.442,0.016-16.885-0.066-25.327-0.168
			C14.884,197.952,14.499,197.42,14.11,197.135z"/>
		<path fill-rule="evenodd" clip-rule="evenodd" fill="#1260A7" d="M210.613,177.238c-1.17-3.709,1.076-10.072,4.011-11.359
			C214.457,170.08,213.373,173.955,210.613,177.238z"/>
		<path fill-rule="evenodd" clip-rule="evenodd" fill="#4295B6" d="M176.664,134.193c3.404-2.443,7.221-1.016,10.85-1.038
			c1.759-0.011,1.625,1.743,1.633,3.071c0.012,2.115,0.495,4.508-2.775,4.674c1.963-7.161,1.963-7.166-5.746-6.918
			C179.303,134.025,177.984,134.122,176.664,134.193z"/>
		<path fill-rule="evenodd" clip-rule="evenodd" fill="#4295B6" d="M22.146,179.84c0.934,3.018-2.188,7.924-5.72,8.986
			C17.836,185.515,19.206,182.178,22.146,179.84z"/>
		<path fill-rule="evenodd" clip-rule="evenodd" fill="#4295B6" d="M182.164,161.688c1.045,3.312-0.955,8.185-3.758,9.16
			C179.765,167.838,179.036,163.971,182.164,161.688z"/>
		<path fill-rule="evenodd" clip-rule="evenodd" fill="#4295B6" d="M130.939,165.021c3.467-0.389,6.074,0.785,6.352,4.51
			c0.155,2.095,1.48,5.465-2.922,5.311C138.397,169.762,133.795,167.695,130.939,165.021z"/>
		<path fill-rule="evenodd" clip-rule="evenodd" fill="#4295B6" d="M104.116,102.333c4.469-1.955,9.169-1.234,13.811-1.196
			C113.4,102.424,108.8,102.87,104.116,102.333z"/>
		<path fill-rule="evenodd" clip-rule="evenodd" fill="#4295B6" d="M159.564,187.188c1.047-3.639,3.988-5.525,6.893-7.446
			C165.881,183.816,162.947,185.709,159.564,187.188z"/>
		<path fill-rule="evenodd" clip-rule="evenodd" fill="#F29A18" d="M44.904,32.619c-0.506,1.553-1.239,2.813-3.199,2.474
			C42.205,33.527,43.126,32.519,44.904,32.619z"/>
		<path fill-rule="evenodd" clip-rule="evenodd" fill="#F29A18" d="M49.448,28.918c-0.199,2.033-1.507,2.637-3.321,2.575
			C46.74,29.988,47.745,29.002,49.448,28.918z"/>
		<path fill-rule="evenodd" clip-rule="evenodd" fill="#F29A18" d="M37,40.52c2.01-0.162,4.023-0.564,6.007,0.061
			C40.988,41.075,38.988,41.405,37,40.52z"/>
		<path fill-rule="evenodd" clip-rule="evenodd" fill="#F29A18" d="M53.957,25.407c-0.108,1.42-0.8,2.096-2.263,1.776
			C51.963,25.965,52.615,25.246,53.957,25.407z"/>
		<path fill-rule="evenodd" clip-rule="evenodd" fill="#F29A18" d="M54.603,40.409c0.53-0.43,1.067-0.416,1.6-0.025
			C55.671,40.976,55.142,41.015,54.603,40.409z"/>
		<path fill-rule="evenodd" clip-rule="evenodd" fill="#4295B6" d="M94.588,97.557c0.521,0.184,1.043,0.368,1.56,0.553
			c-0.477-0.149-1.167,0.403-1.42-0.441C94.732,97.669,94.588,97.557,94.588,97.557z"/>
		<path fill-rule="evenodd" clip-rule="evenodd" fill="#F29A18" d="M39.101,37.214c-0.262,0.109-0.524,0.218-0.779,0.328
			C38.309,36.785,38.502,36.523,39.101,37.214z"/>
		<path fill-rule="evenodd" clip-rule="evenodd" fill="#4295B6" d="M110.453,196.072c0.347-0.813,0.948-1.159,1.816-0.943
			c0.1,0.025,0.149,0.252,0.221,0.387c-0.53,0.217-1.061,0.434-1.593,0.652C110.896,196.17,110.453,196.072,110.453,196.072z"/>
		<polygon fill-rule="evenodd" clip-rule="evenodd" fill="#F29A18" points="55.103,24.531 54.976,24.626 54.868,24.34 		"/>
		<polygon fill-rule="evenodd" clip-rule="evenodd" fill="#F29A18" points="50.674,28.008 50.75,28.263 50.521,28.112 
			50.488,27.898 		"/>
		<path fill-rule="evenodd" clip-rule="evenodd" fill="#F29A18" d="M50.219,52.963c0.034,0.607-0.252,0.719-0.756,0.489
			C49.424,52.834,49.622,52.591,50.219,52.963z"/>
		<polygon fill-rule="evenodd" clip-rule="evenodd" fill="#F29A18" points="34.955,39.373 34.972,39.515 34.668,39.486 		"/>
		<path fill-rule="evenodd" clip-rule="evenodd" fill="#FDFCFC" d="M61.479,162.03c3.979-5.241,7.321-10.79,8.158-17.483
			c0.317-2.543,3.568-2.904,3.848-5.416c1.862,0.838,1.073,2.502,1.088,3.825c0.044,4.04-0.054,8.081-0.097,12.122
			c-0.359,4.301-0.718,8.6-1.076,12.899c-3.278-0.042-6.562-0.213-9.833-0.079c-2.309,0.096-3.361-0.732-3.225-3.035
			c0.128-0.258,0.187-0.531,0.174-0.818c0.936-0.418,0.835-1.31,0.963-2.096V162.03z"/>
		<path fill-rule="evenodd" clip-rule="evenodd" fill="#4295B6" d="M60.342,164.863c-0.136,2.303,0.916,3.131,3.225,3.035
			c3.271-0.134,6.555,0.037,9.833,0.079c-0.048,1.358-0.086,2.814-1.934,2.846c-3.951,0.067-7.903,0.04-11.854,0.022
			c-1.399-0.006-2.053-0.808-2.137-2.172C57.344,166.573,58.051,165.129,60.342,164.863z"/>
		<path fill-rule="evenodd" clip-rule="evenodd" fill="#4295B6" d="M74.476,155.078c0.043-4.041,0.141-8.082,0.097-12.122
			c-0.015-1.323,0.774-2.987-1.088-3.825c-0.035-1.196-0.037-2.662,1.474-2.66c1.435,0.002,1.527,1.475,1.556,2.644
			c0.132,5.294-1.695,10.462-1.011,15.793C75.162,154.965,74.819,155.021,74.476,155.078z"/>
		<path fill-rule="evenodd" clip-rule="evenodd" fill="#1260A7" d="M61.479,161.949c-0.128,0.786-0.028,1.678-0.963,2.096
			C58.875,162.443,59.86,162.051,61.479,161.949z"/>
	</g>
</g>
<g id="Ebene_2">
	<path fill-rule="evenodd" clip-rule="evenodd" fill="#FFFFFF" d="M173.147,115.215c-25.257-11.564-48.493,6.689-48.493,6.689
		c-27,21.875-5.668,36.268-5.668,36.268c8.293,6.482,15.293,12.232,15.293,12.232c6.813,7.188-9.25,8.125-9.25,8.125
		c-19.25-0.375-18.56-16.842-18.56-16.842l-4.315-49.376H61.479l-51.326,84.212l-0.833,1.336h0.833h31.915l7.43-10.672H73.4
		l-1.038,11.081h35.972v-2.101c40.431,10.597,58.652-15.264,58.652-15.264c15.333-21.666-5.65-31.924-5.65-31.924
		c-18.067-5.674-13.119-11.612-13.119-11.612c5.73-9.536,24.854,1.953,24.854,1.953l3.593-6.561l10.85,0.395l-16.977,63.979h35.502
		l14.99-64.374h26.494v-17.546H173.147z M74.727,167.978l-17.267-0.112l19.062-32.211L74.727,167.978z"/>
	<path fill-rule="evenodd" clip-rule="evenodd" fill="none" stroke="#FFFFFF" stroke-miterlimit="10" d="M34.668,39.486
		l27.986-27.332c0,0,127.111-13.267,157.931,32.992c0,0,22.159,31.444-48.511,47.601c0,0-53.808,10.245-94.489,7.951
		c0,0,102.727-3.995,102.898-33.02c0,0,4.628-18.556-49.101-27.79C131.382,39.889,65.182,31.067,34.668,39.486z"/>
	<path fill-rule="evenodd" clip-rule="evenodd" fill="none" stroke="#FFFFFF" stroke-miterlimit="10" d="M77.585,100.698
		c47.181-2.456,46.319-23.044,46.319-23.044c2-27.25-80.6-20.5-80.6-20.5L75.028,35.86"/>
</g>
</svg>
