<?xml version="1.0" encoding="utf-8"?>
<!-- Generator: Adobe Illustrator 16.0.3, SVG Export Plug-In . SVG Version: 6.00 Build 0)  -->
<!DOCTYPE svg PUBLIC "-//W3C//DTD SVG 1.1//EN" "http://www.w3.org/Graphics/SVG/1.1/DTD/svg11.dtd">
<svg version="1.1" id="Ebene_1" xmlns="http://www.w3.org/2000/svg" xmlns:xlink="http://www.w3.org/1999/xlink" x="0px" y="0px"
	 width="322px" height="161px" viewBox="0 0 322 161" enable-background="new 0 0 322 161" xml:space="preserve">
<g>
	<path fill-rule="evenodd" clip-rule="evenodd" fill="#FFFFFF" d="M161,155.52c-3.352-1.375-6.693-2.776-10.057-4.121
		c-33.054-13.214-66.111-26.418-99.167-39.627c-15.033-6.007-30.061-12.024-45.103-18.007c-0.9-0.358-1.246-0.791-1.241-1.804
		c0.047-8.56,0.027-17.119,0.027-25.679c0-0.429,0-0.857,0-1.354c103.955,0,207.772,0,311.674,0c0,9.394,0,18.764,0,28.283
		c-79.964,0-159.884,0-239.805,0c-0.014,0.078-0.027,0.155-0.041,0.232c0.305,0.14,0.604,0.293,0.916,0.417
		c27.087,10.824,54.178,21.639,81.259,32.477c2.257,0.903,1.849,0.246,1.855,2.792c0.021,8.279,0.009,16.559,0.004,24.839
		c0,0.517-0.054,1.034-0.083,1.551C161.16,155.52,161.08,155.52,161,155.52z"/>
	<path fill-rule="evenodd" clip-rule="evenodd" fill="#FFFFFF" d="M114.048,29.259c-0.08-1.374-0.032-2.746-0.26-4.069
		c-0.657-3.811-3.182-5.781-7.077-5.701c-3.564,0.074-6.832,1.115-9.995,3.076c-0.739-1.426-1.458-2.814-2.228-4.299
		c5.282-2.992,10.716-4.854,16.773-3.492c5.657,1.272,9.111,5.789,9.149,11.766c0.029,4.398,0.004,8.797,0.006,13.195
		c0.002,3.788,0.437,4.674,3.489,6.97c-0.486,1.162-0.954,2.378-1.524,3.545c-0.094,0.192-0.669,0.293-0.967,0.218
		c-3-0.762-4.936-2.661-5.829-5.744c-0.27,0.316-0.479,0.536-0.661,0.776c-3.692,4.901-11.038,6.917-16.719,4.584
		c-6.491-2.665-7.497-11.594-1.808-16.241c2.814-2.299,6.184-3.297,9.693-3.805C108.651,29.668,111.243,29.525,114.048,29.259z
		 M113.975,33.67c-2.819,0.335-5.444,0.538-8.025,0.988c-2.058,0.359-4,1.144-5.432,2.806c-2.611,3.034-1.142,7.654,2.763,8.426
		c4.553,0.901,8.344-1.568,10.551-4.865c0.083-0.124,0.137-0.294,0.138-0.444C113.978,38.392,113.975,36.201,113.975,33.67z"/>
	<path fill-rule="evenodd" clip-rule="evenodd" fill="#FFFFFF" d="M51.203,29.258c-0.075-1.435,0.006-2.853-0.249-4.207
		c-0.706-3.739-3.212-5.64-7.077-5.563c-3.563,0.071-6.825,1.13-9.965,3.066c-0.735-1.401-1.447-2.758-2.302-4.386
		c1.889-0.846,3.68-1.771,5.557-2.464c3.822-1.411,7.751-1.882,11.755-0.811c5.075,1.357,8.475,5.56,8.607,10.816
		c0.105,4.154,0.033,8.313,0.04,12.471c0,0.399,0.003,0.799,0,1.199c-0.022,3.001,0.354,5.813,3.576,7.234
		c-0.508,1.206-0.997,2.293-1.422,3.406c-0.225,0.586-0.537,0.652-1.105,0.495c-2.968-0.822-4.938-2.665-5.807-5.694
		c-1.02,1.071-1.849,2.211-2.925,3.025c-4.613,3.492-9.764,4.208-15.022,1.944c-5.999-2.584-6.714-11.403-1.476-15.788
		c2.859-2.393,6.286-3.432,9.874-3.96C45.817,29.665,48.408,29.525,51.203,29.258z M51.129,33.869
		c-3.733,0.104-7.318,0.19-10.677,1.656c-0.859,0.375-1.689,0.932-2.372,1.575c-1.681,1.584-2.008,3.588-1.329,5.724
		c0.643,2.021,2.255,2.915,4.237,3.21c3.587,0.535,8.137-1.7,9.922-4.845c0.096-0.169,0.208-0.363,0.209-0.545
		C51.134,38.421,51.129,36.199,51.129,33.869z"/>
	<path fill-rule="evenodd" clip-rule="evenodd" fill="#FFFFFF" d="M157.335,22.763c-0.654-0.317-1.179-0.449-1.54-0.767
		c-3.508-3.081-12.627-4.385-17.066,0.623c-2.815,3.175-3.667,6.982-3.299,11.041c0.184,2.028,0.66,4.141,1.519,5.975
		c2.208,4.713,6.603,6.307,10.935,6.05c2.917-0.173,5.805-0.852,8.803-1.319c0.125,0.663,0.223,1.701,0.536,2.669
		c0.297,0.917-0.09,1.279-0.807,1.663c-3.455,1.85-7.172,2.447-11.02,2.226c-10.206-0.588-16.825-8.066-16.518-18.557
		c0.13-4.462,1.115-8.632,4.078-12.131c2.943-3.475,6.823-5.183,11.237-5.788c3.965-0.544,7.801-0.075,11.451,1.668
		c1.182,0.564,1.93,1.246,1.724,2.736C157.206,20.026,157.335,21.239,157.335,22.763z"/>
	<path fill-rule="evenodd" clip-rule="evenodd" fill="#FFFFFF" d="M87.076,46.017c0.22,1.222,0.458,2.541,0.723,4.009
		c-4.224,1.036-8.369,1.7-12.412-0.339c-3.214-1.621-4.592-4.537-5.072-7.937c-0.178-1.259-0.198-2.548-0.202-3.823
		c-0.02-5.871-0.009-11.743-0.009-17.763c-2.044,0-4.019,0-6.05,0c0-1.558,0-2.966,0-4.48c2.034,0,3.979,0,6.147,0
		c0-1.673,0-3.25,0-4.828c0.001-2.404,0.001-2.402,2.304-3.124c1.286-0.403,2.57-0.815,3.986-1.265c0,3.09,0,6.065,0,9.149
		c3.204,0,6.303,0,9.503,0c0,1.52,0,2.931,0,4.483c-3.09,0-6.222,0-9.498,0c0,0.562,0,0.987,0,1.412
		c0,5.875-0.001,11.751,0.002,17.626c0,0.479-0.005,0.961,0.04,1.438c0.357,3.851,2.509,5.84,6.364,5.792
		C84.249,46.352,85.592,46.148,87.076,46.017z"/>
</g>
</svg>
