<?xml version="1.0" encoding="utf-8"?>
<!-- Generator: Adobe Illustrator 16.0.3, SVG Export Plug-In . SVG Version: 6.00 Build 0)  -->
<!DOCTYPE svg PUBLIC "-//W3C//DTD SVG 1.1//EN" "http://www.w3.org/Graphics/SVG/1.1/DTD/svg11.dtd">
<svg version="1.1" id="Ebene_1" xmlns="http://www.w3.org/2000/svg" xmlns:xlink="http://www.w3.org/1999/xlink" x="0px" y="0px"
	 width="222.091px" height="55.427px" viewBox="0 0 222.091 55.427" enable-background="new 0 0 222.091 55.427"
	 xml:space="preserve">
<polygon fill="#FFFFFF" points="65.25,23.333 22.5,23.333 37.25,5.333 80,5.333 "/>
<polygon fill="#FFFFFF" points="47,46.583 4.25,46.583 19,28.583 61.75,28.583 "/>
<polygon fill="#FFFFFF" points="208.083,12.5 78.25,12.5 84.333,5.333 212.667,5.333 "/>
<path fill="#FFFFFF" stroke="#FFFFFF" stroke-miterlimit="10" d="M165.75,40.583H55.958l-6.083,6H174.25h1.833
	c0,0,3.824,0.016,6.667-2.5c0,0,7.542-4.75,23.083-27.417h-6.083l-16.625,19.75c0,0-3.708,3.833-10.792,4L165.75,40.583z"/>
<polygon fill="#FFFFFF" stroke="#FFFFFF" stroke-miterlimit="10" points="59.25,37.583 69.167,37.583 82.333,21.583 84.25,21.583 
	84.25,27.833 79.25,27.833 75.167,32.333 84.25,32.333 84.25,37.583 90.833,37.583 90.833,32.333 96.417,26.5 90.75,26.5 
	90.75,15.167 80,15.167 "/>
<polygon fill="#FFFFFF" stroke="#FFFFFF" stroke-miterlimit="10" points="119.514,37.583 129.431,37.583 142.598,21.583 
	144.514,21.583 144.514,27.833 139.514,27.833 135.431,32.333 144.514,32.333 144.514,37.583 151.098,37.583 151.098,32.333 
	156.681,26.5 151.014,26.5 151.014,15.167 140.264,15.167 "/>
<polygon fill="#FFFFFF" stroke="#FFFFFF" stroke-miterlimit="10" points="99.667,15.167 94.25,21.25 108.833,21.25 94.25,36.417 
	103.667,36.417 117.083,21.083 130.583,21.083 136,15.167 "/>
<polygon fill="#FFFFFF" stroke="#FFFFFF" stroke-miterlimit="10" points="173.417,15.167 196.583,15.167 190.75,21.417 
	177.583,21.417 172.417,26.833 182.917,26.833 177.667,32.5 168.167,32.5 164.083,37.333 153.833,37.333 158,32.583 155.25,32.583 
	160.083,26.667 163.917,26.667 "/>
</svg>
