<?xml version="1.0" encoding="utf-8"?>
<!-- Generator: Adobe Illustrator 16.0.3, SVG Export Plug-In . SVG Version: 6.00 Build 0)  -->
<!DOCTYPE svg PUBLIC "-//W3C//DTD SVG 1.1//EN" "http://www.w3.org/Graphics/SVG/1.1/DTD/svg11.dtd">
<svg version="1.1" id="Ebene_1" xmlns="http://www.w3.org/2000/svg" xmlns:xlink="http://www.w3.org/1999/xlink" x="0px" y="0px"
	 width="337.483px" height="200.99px" viewBox="0 0 337.483 200.99" enable-background="new 0 0 337.483 200.99"
	 xml:space="preserve">
<path fill-rule="evenodd" clip-rule="evenodd" fill="#FFFFFF" d="M308.894,45.023c3.375-18.875,23.5-10.25,23.5-10.25l4-23.5
	c-20-5.75-35.125,2.5-35.125,2.5c-15.25,7.5-17.688,39.875-17.688,39.875c-0.563,5.438-3.895,4.917-3.895,4.917l-12.25-0.25
	c-3.207,0-3.25,1.208-3.25,1.208l-2.416,15.417c-0.791,4.542,0.457,4.25,0.457,4.25l15.084,0.542c1.666,0.042,0.75,5.667,0.75,5.667
	l-11.5,75.75c-1.5,9.75-11.834,9.043-11.834,9.043c-7.291-0.334-6.271-4.021-6.271-4.021l10.553-73.667
	c1.461-10.667-1.137-17.5-1.137-17.5c-9.416-27-48.865-18.5-48.865-18.5c-32.307,5.5-37.99,42.083-37.99,42.083h22.404
	c0,0,4.061-19.75,25.65-20.083c0,0,30.035,0.499,12.664,27.833c0,0-0.648,4.5-27.762,7.333c0,0-33.279,3.153-41.398,21.32
	c0,0-2.148,4.479-3.57,10.332c-1.316,5.418-2.184,12.168-1.744,19.041l-0.117-0.215c-2.625,6.625-13.125,5.625-13.125,5.625
	c-8.25-1-5.375-18.125-5.375-18.125l10.584-68.333c0.5-4.75,5.334-4.167,5.334-4.167l11.832,0.333c4.334,0,5-3.5,5-3.5l2.25-14.5
	c0.5-3-2.5-3-2.5-3l-12.582,0.25c-5.416-0.083-4.584-3.167-4.584-3.167l6.604-45.604c0.875-4-3.563-3.313-3.563-3.313l-19.75,0.25
	l-6.75,47.375c-0.938,4.688-3.916,4.167-3.916,4.167h-3c-4.334-0.667-4.791,1.25-4.791,1.25l-2.793,15.083
	c-0.833,5.167,0.334,4.417,0.334,4.417l5.822,0.146c4.906-0.125,3.469,4.563,3.469,4.563l-12.438,82.625c-0.5,4-6.062,3.5-6.062,3.5
	c-7.625,0.375-6.25-3.791-6.25-3.791l10.833-73.667c1.5-10.667-1.167-17.5-1.167-17.5c-9.667-27-50.167-18.5-50.167-18.5
	c-33.167,5.5-39,42.083-39,42.083h23c0,0,4.167-19.75,26.333-20.083c0,0,30.833,0.499,13,27.833c0,0-0.667,4.5-28.5,7.333
	c0,0-32.333,3.667-40.5,21.834c0,0-24.167,49.666,21.833,57.5c0,0,26.5,1.666,40.333-15.334c0,0-3.167,22,36.333,13.334
	c0,0,7.979-5.105,16.666,0.707c0,0,11.875,5.875,28-1c0,0,6.602-3.348,12.336-1.953c3.977,2.268,9.072,3.771,15.563,4.184
	c0,0,25.813,1.666,39.287-15.334c0,0-3.717,20.771,35.232,14.563c4.576-0.729,13.416-5.416,13.416-5.416
	c10.916-5.5,15.334-18.75,15.334-18.75c3.334-7,13.25-84.167,13.25-84.167c0.418-5.333,3.416-4.417,3.416-4.417l12.334,0.083
	c6.25,0.333,6.084-2.5,6.084-2.5l1.748-13.042c0.75-5.625-2.125-5.125-2.125-5.125l-13.25-0.625c-4.875-0.25-3.75-2.25-3.75-2.25
	L308.894,45.023z M54.561,168.897c0,0-18.167,3.334-22-15.332c0,0-3.5-16.002,18.667-20.668c0,0,27.5-2.332,30.833-6.332
	C82.061,126.565,84.561,164.897,54.561,168.897z M203.429,170.21c0,0-18.168,3.334-22-15.332c0,0-3.5-16.002,18.666-20.668
	c0,0,27.5-2.332,30.834-6.332C230.929,127.878,233.429,166.21,203.429,170.21z"/>
</svg>
