<?xml version="1.0" encoding="utf-8"?>
<!-- Generator: Adobe Illustrator 16.0.3, SVG Export Plug-In . SVG Version: 6.00 Build 0)  -->
<!DOCTYPE svg PUBLIC "-//W3C//DTD SVG 1.1//EN" "http://www.w3.org/Graphics/SVG/1.1/DTD/svg11.dtd">
<svg version="1.1" id="Ebene_1" xmlns="http://www.w3.org/2000/svg" xmlns:xlink="http://www.w3.org/1999/xlink" x="0px" y="0px"
	 width="530px" height="152.375px" viewBox="0 0 530 152.375" enable-background="new 0 0 530 152.375" xml:space="preserve">
<path fill="#FFFFFF" d="M13,150.709L57.667,20.043c0,0,8.5-20.918,30.5-17.168c0,0,19.5,2.25,28,31.25l20,61.5l17.75,55.084h-48.5
	l-33.5-106.334l-35.5,106.334H13z"/>
<path fill="#FFFFFF" d="M206.181,150.709l44.666-130.666c0,0,8.5-20.918,30.5-17.168c0,0,19.5,2.25,28,31.25l20,61.5l17.75,55.084
	h-48.5l-33.5-106.334l-35.5,106.334H206.181z"/>
<rect x="3" y="88.041" fill="#FFFFFF" width="524.667" height="36"/>
<polygon fill="#FFFFFF" points="116,2.426 116,29.709 156,29.709 156,150.709 204,150.709 204,29.042 243.667,29.042 243.667,2.426 
	"/>
<path fill="#FFFFFF" d="M348.667,150.709V23.375c0,0,0-23.4,35.25-20.949c0,0,15.166,0.366,21.5,17.949l22,49.75l22-55
	c0,0,5.875-15.18,24.625-15.125c0,0,27.375-0.193,28.375,19.125v131.584h-48.5V51.625l-38.5,99.084h-4l-40-101.084v101.084H348.667z
	"/>
</svg>
