<?xml version="1.0" encoding="utf-8"?>
<!-- Generator: Adobe Illustrator 16.0.3, SVG Export Plug-In . SVG Version: 6.00 Build 0)  -->
<!DOCTYPE svg PUBLIC "-//W3C//DTD SVG 1.1//EN" "http://www.w3.org/Graphics/SVG/1.1/DTD/svg11.dtd">
<svg version="1.1" id="Ebene_1" xmlns="http://www.w3.org/2000/svg" xmlns:xlink="http://www.w3.org/1999/xlink" x="0px" y="0px"
	 width="290.667px" height="92.667px" viewBox="0 0 290.667 92.667" enable-background="new 0 0 290.667 92.667"
	 xml:space="preserve">
<g>
	<path fill-rule="evenodd" clip-rule="evenodd" fill="#FFFFFF" d="M193.029,18.701c8.759,0,17.518,0,26.276,0
		c2.556,0,5.11-0.007,7.666-0.001c1.899,0.004,2.144,0.405,1.283,2.121c-4.185,8.344-8.387,16.678-12.556,25.029
		c-3.101,6.21-6.193,12.425-9.213,18.674c-0.723,1.497-1.553,2.251-3.363,2.166c-3.512-0.164-7.036-0.036-10.556-0.038
		c-1.984,0-2.185-0.35-1.272-2.178c2.244-4.496,4.508-8.984,6.732-13.491c3.281-6.648,6.528-13.313,9.807-19.963
		c0.708-1.437,0.521-1.773-1.168-1.774c-10.52-0.006-21.038-0.002-31.557-0.006c-2.439-0.001-4.88-0.006-7.318-0.042
		c-2.959-0.043-5.221,1.261-6.621,3.775c-2.289,4.11-4.435,8.303-6.576,12.493c-1.049,2.054-2.059,4.14-2.889,6.287
		c-0.575,1.487-0.153,2.036,1.429,2.053c5.518,0.061,11.036,0.046,16.555,0.054c6.677,0.01,13.354,0.004,20.032,0.028
		c1.189,0.005,1.383,0.31,0.897,1.382c-1.526,3.379-3.101,6.736-4.63,10.113c-0.437,0.965-1.103,1.295-2.166,1.293
		c-13.838-0.031-27.677,0.003-41.515-0.071c-1.064-0.006-2.262-0.511-3.164-1.126c-2.847-1.942-5.307-5.779-2.936-10.58
		c4.928-9.978,9.665-20.049,14.647-29.998c2.099-4.191,5.897-6.089,10.498-6.176c5.518-0.104,11.038-0.023,16.558-0.023
		C182.95,18.702,187.989,18.701,193.029,18.701z"/>
	<path fill-rule="evenodd" clip-rule="evenodd" fill="#FFFFFF" d="M58.21,65.302c0.228-0.668,0.349-1.204,0.584-1.684
		c4.104-8.385,8.216-16.766,12.341-25.141c1.393-2.827,2.845-5.625,4.234-8.454c0.7-1.425,0.5-1.799-1.035-1.885
		c-1.233-0.069-2.474,0.016-3.711,0.016c-10.919,0.002-21.837,0.001-32.756,0c-1.237,0-2.475-0.026-3.711-0.004
		c-2.593,0.044-4.433,1.459-5.562,3.596c-3.149,5.963-6.146,12.008-9.202,18.02c-0.018,0.035-0.027,0.076-0.043,0.112
		c-1.032,2.353-0.653,2.948,1.874,2.945c11.558-0.013,23.117-0.028,34.675-0.038c2.741-0.002,2.812,0.127,1.642,2.621
		c-1.389,2.962-2.786,5.92-4.127,8.902c-0.429,0.954-1.14,1.292-2.086,1.283c-1.878-0.02-3.757-0.1-5.635-0.102
		c-11.599-0.008-23.197-0.018-34.795,0.014c-2.16,0.006-4.061-0.434-5.725-1.945c-2.352-2.139-3.041-6.418-1.532-9.535
		c4.813-9.948,9.45-19.985,14.499-29.812c1.939-3.774,5.431-6.382,9.904-6.408c20.716-0.117,41.434-0.063,62.151-0.07
		c1.56,0,3.119-0.014,4.679,0.005c1.245,0.015,1.495,0.454,0.944,1.548c-2.906,5.767-5.828,11.526-8.708,17.306
		c-4.52,9.07-9.017,18.151-13.502,27.239c-0.519,1.053-1.16,1.767-2.438,1.747c-3.955-0.06-7.909-0.081-11.863-0.126
		C59.035,65.451,58.763,65.38,58.21,65.302z"/>
	<path fill-rule="evenodd" clip-rule="evenodd" fill="#FFFFFF" d="M258.489,18.652c7.438,0,14.876-0.053,22.312,0.025
		c3.143,0.033,5.984,2.31,6.57,5.163c0.403,1.967,0.384,3.96-0.568,5.846c-4.764,9.437-9.568,18.855-14.239,28.337
		c-1.896,3.848-4.618,6.564-8.817,7.639c-0.836,0.215-1.731,0.268-2.601,0.27c-10.238,0.018-20.478,0.011-30.717,0.014
		c-2.271,0.002-2.435-0.276-1.406-2.259c1.286-2.479,2.587-4.954,3.771-7.481c0.601-1.281,1.371-1.83,2.849-1.813
		c7.078,0.079,14.157,0.021,21.235,0.058c4.029,0.021,6.779-2.05,8.469-5.439c2.292-4.6,4.333-9.328,6.424-14.026
		c1.179-2.649,0.02-4.718-2.897-5.087c-1.572-0.199-3.185-0.096-4.779-0.102c-6.957-0.024-13.914,0.009-20.87-0.089
		c-1.745-0.024-2.563,0.788-3.255,2.221c-4.398,9.126-8.842,18.232-13.289,27.335c-4.866,9.962-9.761,19.91-14.614,29.879
		c-0.452,0.93-1.088,1.27-2.075,1.258c-3.319-0.035-6.64-0.021-9.959-0.043c-1.686-0.012-1.935-0.383-1.168-1.933
		c2.174-4.396,4.404-8.763,6.584-13.155c3.9-7.86,7.76-15.742,11.675-23.596c4.77-9.57,9.58-19.119,14.366-28.68
		c0.518-1.033,0.994-2.087,1.497-3.127c0.378-0.782,0.968-1.254,1.877-1.248c1.916,0.013,3.832,0.029,5.749,0.03
		c5.959,0.004,11.919,0.001,17.878,0.001C258.489,18.649,258.489,18.65,258.489,18.652z"/>
	<path fill-rule="evenodd" clip-rule="evenodd" fill="#FFFFFF" d="M131.161,54.478c-0.959,2.219-1.786,4.197-2.666,6.15
		c-0.688,1.525-1.493,3-2.15,4.537c-0.402,0.941-0.964,1.289-2.004,1.285c-11.836-0.039-23.673-0.033-35.509-0.033
		c-1.238-0.001-2.48,0.104-3.713,0.035c-4.409-0.246-6.544-3.736-4.641-7.728c1.784-3.739,3.733-7.4,5.62-11.091
		c2.594-5.078,5.188-10.156,7.8-15.225c4.988-9.68,9.998-19.348,14.974-29.034c0.503-0.979,1.165-1.357,2.27-1.335
		c3.358,0.068,6.719,0.032,10.077,0.053c1.548,0.01,1.754,0.324,1.086,1.659c-1.82,3.638-3.651,7.271-5.491,10.899
		c-0.751,1.479-0.585,1.825,1.103,1.822c9.678-0.016,19.355-0.037,29.033-0.103c2.66-0.018,2.875,0.218,1.814,2.627
		c-1.301,2.955-2.627,5.899-3.895,8.869c-0.417,0.977-1.037,1.378-2.109,1.373c-9.918-0.042-19.839,0.072-29.754-0.114
		c-4.828-0.091-4.052,0.197-5.693,3.527c-2.593,5.257-5.135,10.54-7.654,15.832c-0.369,0.775-0.676,1.659-0.702,2.502
		c-0.05,1.668,1.222,3.073,2.93,3.194c1.944,0.138,3.905,0.071,5.858,0.067c7.158-0.015,14.316-0.047,21.476-0.051
		C129.796,54.199,130.374,54.36,131.161,54.478z"/>
</g>
</svg>
