<?xml version="1.0" encoding="utf-8"?>
<!-- Generator: Adobe Illustrator 16.0.3, SVG Export Plug-In . SVG Version: 6.00 Build 0)  -->
<!DOCTYPE svg PUBLIC "-//W3C//DTD SVG 1.1//EN" "http://www.w3.org/Graphics/SVG/1.1/DTD/svg11.dtd">
<svg version="1.1" id="Ebene_1" xmlns="http://www.w3.org/2000/svg" xmlns:xlink="http://www.w3.org/1999/xlink" x="0px" y="0px"
	 width="199px" height="147px" viewBox="0 0 199 147" enable-background="new 0 0 199 147" xml:space="preserve">
<g>
	<path fill-rule="evenodd" clip-rule="evenodd" fill="#FFFFFF" d="M193.596,59.423c-3.314-7.773-9.19-12.586-17.299-14.533
		c-10.744-2.58-21.692-3.858-32.707-4.648c-6.449-0.462-12.934-0.302-19.357-1.148c0.724-1.427,2.104-2.079,3.392-2.818
		c3.161-1.818,6.346-3.597,9.521-5.392c4.322-1.757,8.644-3.514,12.966-5.271c0.319-0.073,0.639-0.146,0.959-0.219
		c0.175-0.086,0.349-0.172,0.523-0.258c1.15-0.183,2.264-0.483,3.283-1.069c0.354-0.106,0.707-0.212,1.062-0.318l0.187,0.07
		l0.121-0.176c4.277-0.979,8.563-1.928,12.831-2.947c2.682-0.64,3.682-2.958,2.314-5.326c-1.212-2.098-3.165-3.014-5.473-2.598
		c-3.604,0.65-7.217,1.349-10.646,2.718l-0.146-0.086l-0.099,0.155c-0.386,0.101-0.771,0.203-1.158,0.304
		c-0.313-0.215-0.527-0.114-0.671,0.211c-0.39,0.146-0.78,0.291-1.171,0.437c-1.585,0.018-2.942,0.75-4.333,1.378
		c-5.965,2-11.752,4.41-17.238,7.508c-2.518,0.854-4.821,2.129-7.034,3.58c-3.528,1.993-6.906,4.218-10.278,6.461
		c-2.082,1.384-3.794,3.434-6.462,3.849c-0.795-0.026-1.594-0.092-2.39-0.071c-5.501,0.141-11.002,0.3-16.503,0.453
		c0.158-1.369,1.326-1.914,2.221-2.652c4.722-3.891,9.895-7.143,14.967-10.54c-0.039-0.739,0.329-1.454,0.272-2.205
		c0.057,0.751-0.311,1.466-0.272,2.205c3.679-1.9,7.358-3.8,11.038-5.699c5.14-2.029,10.279-4.059,15.419-6.088
		c2.603-0.692,5.193-1.431,7.811-2.059c1.76-0.422,3.249-1.024,3.139-3.192c-0.085-1.666-2.026-3.483-3.979-3.484
		c-2.536,0-5.006,0.543-7.309,1.684c-5.457,0.774-10.504,2.82-15.504,5.008c-0.968,0.357-1.951,0.677-2.9,1.078
		c-5.588,2.361-11.023,5.02-16.083,8.396c-6.669,3.558-12.511,8.266-18.253,13.114c-1.949,1.646-3.962,3.246-4.188,6.078
		c-6.621,0.482-13.162,1.556-19.7,2.657c-12.427,2.092-24.4,5.675-35.991,10.633c-7.836,3.352-13.648,12.203-9.513,21.314
		c0.792,1.746,1.678,3.45,2.538,5.166c0.197,0.46,4.205,9.565,15.402,14.709c0,0,9.678,5.291,6.263-2.43
		c0,0-7.455-12.554-8.812-15.474c-0.795-2.847-1.728-5.663-2.358-8.546c-1.41-6.459,2.211-13.397,8.176-15.709
		c4.705-1.824,9.582-3.091,14.544-4.009c9.261-1.713,18.563-1.322,27.937-1.095c28.925,0.702,57.856,1.204,86.768,2.375
		c5.448,0.221,10.93-0.09,16.191,2.444c8.61,4.148,12.348,14.985,7.391,23.121c-1.316,2.16-3.021,4.104-4.683,6.029
		c-4.856,5.627-10.773,9.943-17.095,13.78c-2.331,1.414-2.861,3.813-1.694,6.017c1.211,2.287,4.061,3.581,6.287,2.582
		c16.774-7.529,26.937-20.023,28.828-38.665C194.889,63.857,194.527,61.607,193.596,59.423z"/>
	<path fill-rule="evenodd" clip-rule="evenodd" fill="#FFFFFF" d="M71.39,61.561c-2.184-5.687-2.191-5.684-8.298-5.511
		c-1.517,0-3.036,0.041-4.551-0.01c-2.006-0.067-3.035,0.79-3.798,2.747c-4.604,11.813-9.361,23.567-14.11,35.323
		c-0.468,1.159-0.144,1.411,0.958,1.396c1.998-0.025,3.996,0.027,5.994,0.028c4.982,0.003,5.033,0.014,6.42-4.766
		c0.426-1.468,1.089-2.103,2.671-2.034c2.633,0.114,5.274,0.027,7.913,0.025c4.786-0.002,4.853-0.019,6.069,4.716
		c0.398,1.551,1.144,2.088,2.671,2.021c2.951-0.13,5.91-0.245,8.861-0.18c1.721,0.038,2.038-0.378,1.408-1.999
		C79.489,82.748,75.456,72.148,71.39,61.561z M65.437,79.742c-2.155,0.014-4.31,0.023-6.464,0.014
		c-0.677-0.002-1.1-0.324-0.86-1.054c1.276-3.893,2.576-7.777,3.867-11.665c0.186,0.005,0.372,0.01,0.557,0.015
		c1.257,3.823,2.509,7.648,3.776,11.467C66.593,79.366,66.267,79.736,65.437,79.742z"/>
	<path fill-rule="evenodd" clip-rule="evenodd" fill="#FFFFFF" d="M140.94,63.587c3.976-0.383,6.888,1.183,8.447,4.785
		c0.509,1.175,1.063,1.366,2.169,1.024c2.518-0.776,5.045-1.524,7.594-2.192c1.635-0.429,1.814-1.216,0.989-2.578
		c-2.499-4.119-5.396-7.672-10.436-8.881c-1.957-0.469-3.91-0.716-5.889-0.936c-8.209-0.911-15.433,1.219-20.217,8.15
		c-5.021,7.276-4.796,15.227-0.682,22.926c4.616,8.639,14.688,11.38,23.271,10.417c6.903-0.773,12.197-3.95,15.257-10.434
		c0.689-1.461,0.485-2.113-1.117-2.507c-2.557-0.628-5.104-1.332-7.598-2.17c-1.609-0.541-2.518-0.573-3.12,1.411
		c-0.796,2.624-2.729,4.227-5.61,4.505c-5.254,0.506-8.827-2.067-9.847-7.235c-0.293-1.481-0.385-3.002-0.568-4.505
		c0.004-1.941,0.187-3.843,0.674-5.713C135.309,65.623,137.15,63.952,140.94,63.587z"/>
	<path fill-rule="evenodd" clip-rule="evenodd" fill="#FFFFFF" d="M117.959,64.034c-0.082-1.997-0.181-4.005-0.057-5.995
		c0.116-1.849-0.634-2.289-2.363-2.277c-11.355,0.079-22.712,0.107-34.067,0.043c-1.998-0.011-2.235,1.044-2.2,2.528
		c0.045,1.916,0.223,3.832,0.175,5.744c-0.035,1.394,0.501,1.801,1.827,1.769c2.638-0.066,5.292,0.166,7.914-0.04
		c2.32-0.182,2.89,0.779,2.838,2.869c-0.1,3.996-0.029,7.997-0.029,11.995c0.019,0,0.037,0,0.056,0c0,4.159,0.065,8.32-0.031,12.477
		c-0.04,1.696,0.55,2.238,2.215,2.165c3.033-0.133,6.078-0.201,9.109-0.072c1.963,0.083,2.607-0.466,2.546-2.522
		c-0.233-7.91-0.293-15.826-0.386-23.74c-0.036-3.079,0.001-3.094,3.173-3.166c2.558-0.058,5.119-0.143,7.675-0.081
		C117.673,65.763,118.008,65.225,117.959,64.034z"/>
	<path fill-rule="evenodd" clip-rule="evenodd" fill="#FFFFFF" d="M58.467,100.822c-4.509-0.968-9.183,3.131-8.606,7.672
		c0.309,2.43,0.813,4.842,1.557,7.187l-0.003,0.014c0,0,1.275,6.478,3.936,9.489c0.027,0.037,0.053,0.075,0.081,0.112
		c0.237,0.317,0.551,0.565,0.894,0.774c0.082,0.058,0.167,0.107,0.251,0.158c0.017,0.008,0.03,0.02,0.047,0.028
		c0.552,0.317,1.147,0.481,1.79,0.423c0,0,0.107,0,0.277-0.012c0.959-0.018,1.942-0.288,2.747-0.855
		c0.039-0.027,0.068-0.06,0.106-0.088c0.359-0.247,0.698-0.557,0.985-0.95c0.564-0.722,0.842-1.54,0.824-2.394
		c0.003-0.046,0.014-0.084,0.016-0.131c0,0-0.32-3.938-3.574-10.615c-0.095-0.4-0.074-0.79,0.324-1.112
		c0.619-0.5,1.208-0.06,1.745,0.274c1.801,1.118,3.004,2.811,4.248,4.463c0,0,1.688,3.776,1.663,6.207
		c-0.003,0.003-0.006,0.005-0.009,0.009c-0.005,2.787-0.562,5.404-2.438,7.585c-2.002,2.327-4.918,2.808-7.288,1.258
		c-6.771-4.432-11.56-10.438-14.343-18.037c-1.175-3.206-3.57-4.595-6.205-3.583c-2.863,1.1-3.591,3.189-2.212,6.681
		c3.116,7.893,8.109,14.424,14.503,19.946c3.445,2.977,7.235,5.241,11.758,6.121c4.749,0.924,8.846-0.385,11.731-4.221
		c4.991-6.64,6.588-14.165,3.383-21.922C73.356,107.32,66.84,102.62,58.467,100.822z"/>
	<path fill-rule="evenodd" clip-rule="evenodd" fill="#FFFFFF" d="M139.152,100.822c-4.509-0.968-9.182,3.131-8.605,7.672
		c0.309,2.43,0.813,4.842,1.557,7.187l-0.002,0.014c0,0,2.244,11.415,6.998,10.985c0,0,4.699,0.07,4.955-4.43
		c0,0-0.32-3.938-3.573-10.615c-0.095-0.4-0.074-0.79,0.324-1.112c0.618-0.5,1.208-0.06,1.745,0.274
		c1.801,1.118,3.004,2.811,4.248,4.463c0,0,1.688,3.776,1.662,6.207c-0.002,0.003-0.006,0.005-0.009,0.009
		c-0.005,2.787-0.562,5.404-2.438,7.585c-2.002,2.327-4.918,2.808-7.287,1.258c-6.771-4.432-11.561-10.438-14.344-18.037
		c-1.175-3.206-3.57-4.595-6.205-3.583c-2.863,1.1-3.591,3.189-2.212,6.681c3.116,7.893,8.109,14.424,14.503,19.946
		c3.445,2.977,7.234,5.241,11.758,6.121c4.748,0.924,8.846-0.385,11.73-4.221c4.992-6.64,6.588-14.165,3.383-21.922
		C154.043,107.32,147.525,102.62,139.152,100.822z"/>
</g>
</svg>
