<?xml version="1.0" encoding="utf-8"?>
<!-- Generator: Adobe Illustrator 16.0.3, SVG Export Plug-In . SVG Version: 6.00 Build 0)  -->
<!DOCTYPE svg PUBLIC "-//W3C//DTD SVG 1.1//EN" "http://www.w3.org/Graphics/SVG/1.1/DTD/svg11.dtd">
<svg version="1.1" xmlns="http://www.w3.org/2000/svg" xmlns:xlink="http://www.w3.org/1999/xlink" x="0px" y="0px" width="335px"
	 height="89px" viewBox="0 0 335 89" enable-background="new 0 0 335 89" xml:space="preserve">
<g id="Ebene_1">
</g>
<g id="Ebene_2">
	<polyline fill="none" stroke="#FFFFFF" stroke-width="8" stroke-miterlimit="10" points="234.833,84 234.833,30.833 
		238.167,30.833 266.125,80 274.875,80 304.833,30 308,30 308.25,80 327.833,80 327.833,9.25 290.833,9.25 270.5,44.625 250.5,9.25 
		215.833,9.25 215.833,80 173.333,80 173.333,28.5 195.75,28.5 195.75,9.25 127.5,9.25 127.5,28.5 150.75,28.5 150.75,80 109.25,80 
		109.25,9.25 75,9.25 8.25,76 8.25,80 71.875,80 71.875,55.75 60.667,55.75 60.667,53.5 89.667,27 89.667,84 	"/>
</g>
</svg>
