<?xml version="1.0" encoding="utf-8"?>
<!-- Generator: Adobe Illustrator 16.0.3, SVG Export Plug-In . SVG Version: 6.00 Build 0)  -->
<!DOCTYPE svg PUBLIC "-//W3C//DTD SVG 1.1//EN" "http://www.w3.org/Graphics/SVG/1.1/DTD/svg11.dtd">
<svg version="1.1" id="Ebene_1" xmlns="http://www.w3.org/2000/svg" xmlns:xlink="http://www.w3.org/1999/xlink" x="0px" y="0px"
	 width="247px" height="243px" viewBox="0 0 247 243" enable-background="new 0 0 247 243" xml:space="preserve">
<g>
	<path fill-rule="evenodd" clip-rule="evenodd" fill="#FFFFFF" d="M53.956,183.742c-9.99-30.496-10.444-60.016,9.177-88.736
		c1.667,4.02-0.29,5.748-1.232,7.652c-21.549,43.553-1.817,85.578,37.288,101.758c7.756,3.209,15.939,4.639,24.447,2.846
		c2.496-0.525,5.895-1.322,7.039,1.854c1.146,3.178-1.656,5.271-4.026,6.736c-10.103,6.24-21.095,10.532-32.377,14.078
		c-22.963,7.215-46.452,9.939-70.465,7.994c-3.637-0.295-3.641-0.251-7.014-2.21c1.827-1.888,4.205-1.581,6.37-1.817
		c13.053-1.426,26.212-2.126,38.945-5.711c3.354-0.944,7.175-1.656,8.035-5.748c0.896-4.263-2.286-6.855-5.16-9.016
		c-8.533-6.41-16.661-13.212-24.149-20.861C13.463,164.601,3.918,130.639,6.548,92.449c0.71-10.311,2.083-20.52,4.459-30.584
		c0.268-1.133,0.59-2.253,0.93-3.365c0.309-1.012,0.893-1.942,2.072-1.641c1.352,0.345,0.951,1.583,0.785,2.498
		c-2.156,11.82-2.662,23.792-3.373,35.748c-1.524,25.665,2.937,49.411,21.497,68.825c5.632,5.891,10.942,12.09,16.495,18.059
		C50.455,183.108,51.633,184.553,53.956,183.742z"/>
	<path fill-rule="evenodd" clip-rule="evenodd" fill="#FFFFFF" d="M171.396,6.033c-2.012,3.065-4.758,4.357-7.243,5.932
		c-10.407,6.593-20.994,12.955-30.122,21.32c-8.031,7.36-6.922,12.488,3.645,15.676c10.68,3.223,21.311,6.517,31.506,11.066
		c23.881,10.655,45.404,24.491,61.161,45.948c4.24,5.775,8.156,11.771,10.116,18.795c0.303,1.087,0.857,2.162-0.381,4.162
		c-17.967-30.686-41.611-53.669-78.251-61.062c1.001,3.44,2.929,4.859,4.483,6.497c16.872,17.773,27.187,38.469,28.18,63.281
		c0.14,3.476-0.314,6.975-0.482,10.463c-0.065,1.363-0.186,3.133-1.797,3.033c-1.863-0.115-1.238-2.094-1.179-3.252
		c0.683-13.279-2.298-25.777-7.944-37.705c-14.328-30.266-52.437-46.851-83.275-36.285c-3.97,1.359-7.579,3.334-11.012,5.746
		c-2.102,1.478-4.69,3.963-7.115,1.795c-2.673-2.391-1.013-5.672,0.543-8.229c5.044-8.288,11.329-15.641,18.024-22.607
		c18.121-18.854,39.229-33.4,63.473-43.291C165.934,6.417,168.16,5.014,171.396,6.033z"/>
	<path fill-rule="evenodd" clip-rule="evenodd" fill="#FFFFFF" d="M174.988,178.113c0-2.83-0.137-5.668,0.049-8.485
		c0.123-1.851-1.008-5.122,0.959-5.255c2.904-0.197,6.813-2.585,9.027,1.607c0.721,1.365,1.26,0.449,1.811,0.072
		c5.395-3.695,10.682-4.572,15.633,0.688c1.36,1.445,1.901,0.152,2.686-0.524c3.761-3.249,8.033-4.091,12.525-2.029
		c4.664,2.141,5.124,6.575,5.168,11.026c0.045,4.493-0.104,8.991,0.053,13.479c0.087,2.506-0.611,3.464-3.313,3.552
		c-7.602,0.246-7.596,0.383-7.598-7.122c0-2.829,0.002-5.659-0.004-8.488c-0.005-2.347-0.52-4.452-3.328-4.687
		c-3.078-0.258-4.15,2.018-4.324,4.428c-0.289,3.975-0.435,8.01-0.082,11.969c0.436,4.887-2.83,3.778-5.449,3.813
		c-2.703,0.036-5.88,0.937-5.458-3.877c0.347-3.963,0.099-7.982,0.046-11.977c-0.031-2.342-0.596-4.473-3.541-4.375
		c-2.644,0.088-3.816,1.872-3.891,4.306c-0.121,3.991-0.25,7.995-0.045,11.978c0.154,2.969-0.684,4.057-3.848,4.043
		c-7.074-0.029-7.075,0.151-7.076-7.15C174.988,182.773,174.988,180.443,174.988,178.113z"/>
	<path fill-rule="evenodd" clip-rule="evenodd" fill="#FFFFFF" d="M132.418,163.136c12.646,0.111,15.541,3.105,15.622,14.88
		c0.026,3.979-0.581,8.012,0.476,11.928c0.406,1.505,0.175,2.26-1.422,2.338c-3.066,0.15-6.633,1.743-9.093-2.021
		c-1.116-1.709-1.853,0.303-2.602,0.707c-4.016,2.166-8.198,2.729-12.536,1.43c-3.746-1.121-5.848-3.705-5.856-7.723
		c-0.009-3.855,2.092-6.295,5.622-7.328c3.818-1.118,7.759-1.809,11.596-2.866c1.255-0.347,3.32-0.378,2.697-2.705
		c-0.498-1.864-2.094-1.979-3.617-1.877c-1.133,0.076-2.781,0.054-3.277,0.742c-2.542,3.521-5.825,2.048-9.023,1.815
		c-4.146-0.299-3.126-2.457-1.65-4.524C122.848,163.036,128.27,163.482,132.418,163.136z M134.15,180.143
		c-1.671,0.842-5.836-0.051-6.169,4.234c-0.179,2.3,1.952,2.84,3.892,2.563c3.084-0.44,5.098-2.093,5.236-5.444
		C137.167,180.094,136.656,179.813,134.15,180.143z"/>
	<path fill-rule="evenodd" clip-rule="evenodd" fill="#FFFFFF" d="M165.159,152.932c0,3.256,0.098,5.082-0.023,6.893
		c-0.175,2.619,0.016,4.679,3.561,4.193c3.057-0.418,2.554,2.15,2.658,3.837c0.104,1.666,1.052,4.45-2.496,4.087
		c-3.943-0.405-3.851,1.898-3.716,4.576c0.092,1.828-0.009,3.666,0.046,5.498c0.048,1.604,0.462,3.301,2.445,3.014
		c4.432-0.641,3.199,2.619,3.502,4.789c0.448,3.207-2.104,2.842-3.941,3.057c-9.67,1.129-12.686-1.603-12.808-11.488
		c-0.026-2.166,0.042-4.335-0.029-6.499c-0.036-1.07,0.194-2.083-1.271-2.859c-3.92-2.077-3.844-5.908,0.029-8.068
		c0.623-0.347,1.193-0.583,1.197-1.325C154.346,155.435,161.278,157.047,165.159,152.932z"/>
</g>
</svg>
