<?xml version="1.0" encoding="UTF-8" standalone="no"?>
<!-- Generator: Adobe Illustrator 16.0.3, SVG Export Plug-In . SVG Version: 6.00 Build 0)  -->

<svg
   xmlns:dc="http://purl.org/dc/elements/1.1/"
   xmlns:cc="http://creativecommons.org/ns#"
   xmlns:rdf="http://www.w3.org/1999/02/22-rdf-syntax-ns#"
   xmlns:svg="http://www.w3.org/2000/svg"
   xmlns="http://www.w3.org/2000/svg"
   xmlns:sodipodi="http://sodipodi.sourceforge.net/DTD/sodipodi-0.dtd"
   xmlns:inkscape="http://www.inkscape.org/namespaces/inkscape"
   version="1.1"
   id="Ebene_1"
   x="0px"
   y="0px"
   width="484px"
   height="126px"
   viewBox="0 0 484 126"
   enable-background="new 0 0 484 126"
   xml:space="preserve"
   inkscape:version="0.91 r13725"
   sodipodi:docname="atm di milano.svg"><metadata
     id="metadata15"><rdf:RDF><cc:Work
         rdf:about=""><dc:format>image/svg+xml</dc:format><dc:type
           rdf:resource="http://purl.org/dc/dcmitype/StillImage" /></cc:Work></rdf:RDF></metadata><defs
     id="defs13" /><sodipodi:namedview
     pagecolor="#ffffff"
     bordercolor="#666666"
     borderopacity="1"
     objecttolerance="10"
     gridtolerance="10"
     guidetolerance="10"
     inkscape:pageopacity="0"
     inkscape:pageshadow="2"
     inkscape:window-width="1218"
     inkscape:window-height="1001"
     id="namedview11"
     showgrid="false"
     inkscape:zoom="1.5702479"
     inkscape:cx="251.62047"
     inkscape:cy="46.359465"
     inkscape:window-x="54"
     inkscape:window-y="-8"
     inkscape:window-maximized="1"
     inkscape:current-layer="Ebene_1" /><path
     fill-rule="evenodd"
     clip-rule="evenodd"
     fill="#FFFFFF"
     d="M60.76,87.299c0.409-0.244,0.889-0.417,1.215-0.743  c21.558-21.547,43.1-43.11,64.65-64.665c6.073-6.074,13.456-9.716,21.83-11.225c3.715-0.669,7.546-0.966,11.325-0.968  c105.748-0.05,211.496-0.04,317.244-0.04c0.51,0,1.021,0,1.72,0c-0.294,0.35-0.465,0.588-0.67,0.793  c-7.31,7.32-14.63,14.63-21.923,21.966c-0.606,0.61-1.202,0.874-2.071,0.873c-88.466-0.024-176.933-0.026-265.399-0.037  c-9.512-0.001-19.023-0.091-28.535-0.047c-2.759,0.013-5.547,0.153-8.268,0.582c-3.496,0.55-6.455,2.381-8.938,4.861  c-16.037,16.025-32.049,32.075-48.048,48.139c-0.725,0.728-1.435,1.065-2.479,1.062c-10.028-0.036-20.056-0.021-30.083-0.021  c-0.393,0-0.785,0-1.178,0C61.022,87.651,60.891,87.475,60.76,87.299z"
     id="path3" /><path
     fill-rule="evenodd"
     clip-rule="evenodd"
     fill="#FFFFFF"
     d="M7.609,120.291c0.351-0.258,0.743-0.474,1.048-0.778  c7.125-7.113,14.252-14.225,21.341-21.374c0.762-0.769,1.515-1.056,2.589-1.056c98.62,0.028,197.24,0.025,295.86,0.052  c5.07,0.001,9.746-1.025,13.743-4.319c0.457-0.377,0.902-0.773,1.321-1.193c16.05-16.07,32.101-32.14,48.129-48.232  c0.666-0.668,1.311-0.974,2.267-0.971c10.147,0.033,20.295,0.021,30.442,0.021c0.395,0,0.79,0,1.382,0  c-0.268,0.339-0.422,0.578-0.618,0.774c-21.938,21.954-43.848,43.938-65.844,65.834c-6.018,5.99-13.49,9.371-21.795,10.813  c-3.222,0.56-6.531,0.852-9.802,0.853c-106.192,0.043-212.385,0.035-318.577,0.035c-0.421,0-0.842,0-1.263,0  C7.758,120.596,7.684,120.443,7.609,120.291z"
     id="path5" /><path
     fill-rule="evenodd"
     clip-rule="evenodd"
     fill="#FFFFFF"
     d="M270.571,47.634c0,0.371,0,0.742,0,1.112  c0.001,10.94,0,21.88,0.001,32.82c0,2.324,1.026,3.377,3.392,3.423c1.579,0.031,3.158,0.006,4.819,0.006c0,1.898,0,3.702,0,5.646  c-33.36,0-66.735,0-100.175,0c0-1.848,0-3.655,0-5.643c1.76,0,3.526,0.001,5.292,0c3.324-0.001,3.627-0.424,2.59-3.604  c-0.674-2.067-1.366-4.13-2.015-6.205c-0.199-0.637-0.459-0.948-1.217-0.942c-5.232,0.039-10.464,0.025-15.696,0.013  c-0.553-0.001-0.96,0.031-1.164,0.69c-0.783,2.53-1.653,5.033-2.428,7.565c-0.508,1.661,0.043,2.42,1.786,2.463  c2.13,0.053,4.263,0.013,6.468,0.013c0,1.924,0,3.728,0,5.632c-7.989,0-15.964,0-24.014,0c0-1.824,0-3.63,0-5.526  c0.923-0.088,1.853-0.187,2.783-0.265c2.809-0.238,4.514-1.766,5.441-4.397c3.14-8.912,6.336-17.805,9.513-26.704  c1.568-4.394,3.168-8.776,4.687-13.188c0.288-0.838,0.689-1.058,1.52-1.044c2.853,0.047,5.708,0.061,8.561-0.006  c0.923-0.021,1.296,0.328,1.599,1.144c4.874,13.121,9.842,26.207,14.63,39.358c1.244,3.417,3.486,4.944,6.938,4.979  c4.083,0.041,8.166,0.042,12.248,0.005c1.827-0.017,2.631-0.785,2.634-2.491c0.02-12.248,0.013-24.496,0.012-36.744  c0-0.114-0.04-0.227-0.06-0.335c-6.125-1.367-12.182,3.231-12.58,9.596c-0.114,1.808-0.018,3.629-0.018,5.531  c-2.057,0-3.889,0-5.797,0c0-6.98,0-13.896,0-20.916c15.914,0,31.817,0,47.796,0c0,6.932,0,13.852,0,20.89c-1.813,0-3.643,0-5.66,0  c0-0.691,0.041-1.39-0.008-2.083c-0.129-1.813-0.106-3.666-0.49-5.426c-0.933-4.277-4.089-6.9-8.741-7.504  c-1.128-0.146-2.267-0.209-3.569-0.326c0,0.575,0,0.996,0,1.417c0,11.693-0.001,23.386,0.001,35.08  c0.001,2.709,0.626,3.33,3.38,3.331c8.641,0.005,17.282,0.003,25.923-0.001c0.475,0,0.957,0.004,1.421-0.077  c1.542-0.27,2.135-0.933,2.137-2.5c0.013-11.495,0.013-22.99,0.001-34.484c-0.002-1.695-0.924-2.625-2.662-2.679  c-1.661-0.052-3.325-0.011-5.088-0.011c0-1.89,0-3.724,0-5.728c0.402,0,0.821,0,1.24,0c7.214,0,14.428,0.024,21.642-0.027  c1.032-0.007,1.413,0.343,1.703,1.287c3.158,10.278,6.362,20.543,9.559,30.81c0.123,0.396,0.282,0.783,0.529,1.462  c1.32-3.75,2.538-7.2,3.749-10.652c2.552-7.275,5.104-14.55,7.645-21.828c0.219-0.625,0.403-1.079,1.263-1.074  c7.214,0.041,14.428,0.023,21.642,0.026c0.23,0,0.461,0.037,0.757,0.063c0,1.851,0,3.658,0,5.651c-1.518,0-3.046-0.02-4.574,0.009  c-0.626,0.012-1.268,0.06-1.872,0.212c-0.989,0.248-1.526,0.944-1.6,1.968c-0.034,0.474-0.042,0.95-0.042,1.425  c-0.003,10.504-0.003,21.008,0,31.512c0,0.516,0.005,1.031,0.041,1.545c0.144,2.057,1.206,3.061,3.294,3.089  c1.543,0.021,3.087,0.004,4.728,0.004c0,1.888,0,3.723,0,5.642c-8.854,0-17.712,0-26.653,0c0-1.836,0-3.671,0-5.641  c1.606,0,3.18,0.007,4.754-0.002c2.653-0.015,3.577-0.932,3.578-3.558c0.002-10.821,0.001-21.642-0.002-32.463  c0-0.376-0.031-0.752-0.285-1.166c-0.41,1.171-0.831,2.337-1.229,3.512c-4.313,12.73-8.636,25.458-12.905,38.204  c-0.332,0.989-0.8,1.272-1.771,1.216c-1.304-0.077-2.619-0.082-3.922,0.002c-0.915,0.06-1.305-0.26-1.585-1.13  c-3.876-12.04-7.79-24.069-11.696-36.1c-0.641-1.974-1.291-3.944-1.937-5.917C270.732,47.609,270.652,47.622,270.571,47.634z   M181.893,68.497c-2.251-6.233-4.457-12.342-6.769-18.745c-2.133,6.434-4.156,12.534-6.216,18.745  C173.295,68.497,177.517,68.497,181.893,68.497z"
     id="path7" /><path
     d="m 168.908,68.497 c -112.605333,38.33533 -56.30267,19.167667 0,0 z"
     id="path9"
     inkscape:connector-curvature="0"
     style="clip-rule:evenodd;fill:#ffffff;fill-rule:evenodd"
     sodipodi:nodetypes="cc" /></svg>