<?xml version="1.0" encoding="utf-8"?>
<!-- Generator: Adobe Illustrator 16.0.3, SVG Export Plug-In . SVG Version: 6.00 Build 0)  -->
<!DOCTYPE svg PUBLIC "-//W3C//DTD SVG 1.1//EN" "http://www.w3.org/Graphics/SVG/1.1/DTD/svg11.dtd">
<svg version="1.1" xmlns="http://www.w3.org/2000/svg" xmlns:xlink="http://www.w3.org/1999/xlink" x="0px" y="0px"
	 width="212.989px" height="118.494px" viewBox="0 0 212.989 118.494" enable-background="new 0 0 212.989 118.494"
	 xml:space="preserve">
<g id="Ebene_1">
</g>
<g id="Ebene_2">
	<path fill="#FFFFFF" d="M77.071,42.731l-6.667,14.5c0,0-11.083-9.084-23.667-2.5c0,0-18.25,6.5-23.083,25c0,0-2.5,10.584,6.167,14
		c0,0,8.916,3.417,17.583,0.25c0,0,13.417-3.751,22.417-19c0,0,11.417-25.417,14.083-35.5h15.333c0,0-10.958,25.167-13.833,32.917
		c0,0-3.375,7.292-4.875,11.917c0,0-3.625,7.75,3.75,10.125c0,0,3.125,0.375,11.125,0.5c0,0-5.25-2.375-3.125-9.5
		c0,0,5.25-13,21.5-53.375h-13.375l6.5-15h12.5l4.125-9.875h15.375l-4.625,10.5h25l-5.75,14.5h-24.5l-19.125,45.375
		c0,0-5.75,10.875-2,14.625c0,0,1.25,2.75,7.375,2.875h52.125c0,0,7.668,0.668,15.501-12.166l10.833-26.834
		c0,0,1.635-3.135-1.115-3.385c0,0-2.281-0.802-4.781,3.76c0,0-6.604,20.042-10.854,24.792c0,0-5.251,8.333-16.917,8.333
		c0,0-10.229,0.146-13.479-7.104c0,0-0.938-3.875-0.25-8.125c0,0,1.125-4.125,3.75-10.75c0,0,3.438-6.609,2.516-9.469
		c0,0-0.744-2.677-4.411,0.115c0,0-2.583,1.625-5.75,10.667l-10.042,24.75h-15.083l14.583-35.25c0,0,4.749-12.583,15.916-14.417
		c0,0,13.333-2.5,17.5,4c0,0,4.584,5.75,0.584,14.75l-4.667,12.333c0,0-2.001,3.667,0.083,5.083c0,0,3.334,1.083,5.417-3.25
		l4.833-13.5c0,0,4.918-14.833,14.334-17.583c0,0,13.167-5.25,22.25,3.917c0,0,3.916,3.583,0.583,11.5l-14.75,34.917
		c0,0-3.583,12.667-20.333,16.333H129.07l-50,0.916c0,0-11.667,1.917-15.583-9.083c0,0-18.167,13.75-35.167,8.667
		c0,0-18.583-3.999-20.25-22.583c0,0-2.042-18.25,13.208-31.25c0,0,11.5-12.75,32.375-16.333
		C53.654,38.814,69.57,36.732,77.071,42.731z"/>
</g>
</svg>
