<?xml version="1.0" encoding="utf-8"?>
<!-- Generator: Adobe Illustrator 16.0.3, SVG Export Plug-In . SVG Version: 6.00 Build 0)  -->
<!DOCTYPE svg PUBLIC "-//W3C//DTD SVG 1.1//EN" "http://www.w3.org/Graphics/SVG/1.1/DTD/svg11.dtd">
<svg version="1.1" id="Ebene_1" xmlns="http://www.w3.org/2000/svg" xmlns:xlink="http://www.w3.org/1999/xlink" x="0px" y="0px"
	 width="158.833px" height="53.833px" viewBox="0 0 158.833 53.833" enable-background="new 0 0 158.833 53.833"
	 xml:space="preserve">
<path fill="#FFFFFF" d="M144.896,47.417h7.25c0,0,4.125-24.833,4.25-26.083c0,0,1.563-6.458-0.938-9.104
	c0,0-3.063-4.75-15.063-0.813c0,0-4.5,1.208-7,2.771c0,0-3.104-4.396-8.479-4.396c0,0-8.084-0.708-16.417,4.125
	c0,0-1.792-5.958-9.792-4.375c0,0-6.958,1.625-21,6.813l1.875-13.625l-7.75-1.563L68.75,19.833L20.083,37.917
	c0,0-3.094,1.198-3.583,0.5c0,0-1.833-1.292,2.208-3.708l27.375-16.542c0,0,2.833-2.125,5.583-1.75c0,0,2.375,0.583,1.875,4.667
	l-5.125,26.5h7.833l5.333-29.417c0,0,1.958-9.125-8.542-9.583c0,0-5.708-0.542-12.646,3.146c0,0-28.312,17.521-36.229,25.521
	c0,0-6.021,5.364,2.333,10.833c0,0,2.24,1.718,8.417-0.667l51.917-18.5c0,0-3.083,13.917-2.083,17.667c0,0,0.834,5.417,10.167,4.917
	c0,0,10.917-0.959,16.917-5.667l-2.563-7.417c0,0-5.479,4.125-12.5,5.125c0,0-3.646,0.583-2.938-3.021c0,0,0.625-6.354,2.5-15.625
	l19.833-6.979c0,0,5.792-2.188,4.542,4.75l-5.25,25h8.375l4-23.375c0,0-0.25-3.375,10.688-6.25c0,0,7.875-2.75,6.75,3.5L120,47.583
	h7.25l4.333-23.333c0,0,0.406-3.417,7.969-5.323c0,0,11.406-3.063,10.594,0.74L144.896,47.417z"/>
</svg>
