<?xml version="1.0" encoding="utf-8"?>
<!-- Generator: Adobe Illustrator 16.0.3, SVG Export Plug-In . SVG Version: 6.00 Build 0)  -->
<!DOCTYPE svg PUBLIC "-//W3C//DTD SVG 1.1//EN" "http://www.w3.org/Graphics/SVG/1.1/DTD/svg11.dtd">
<svg version="1.1" id="Ebene_1" xmlns="http://www.w3.org/2000/svg" xmlns:xlink="http://www.w3.org/1999/xlink" x="0px" y="0px"
	 width="595.28px" height="235px" viewBox="0 0 595.28 235" enable-background="new 0 0 595.28 235" xml:space="preserve">
<g>
	<path fill-rule="evenodd" clip-rule="evenodd" fill="#FFFFFF" d="M13,193c22.658-0.085,45.315-0.172,67.973-0.254
		c3.798-0.014,7.597-0.002,12.667-0.002c-10.022,13.152-19.383,25.436-28.743,37.718c-0.341-0.108-0.682-0.218-1.023-0.325
		c0-5.554,0-11.106,0-17.137c-17.331,0-34.103,0-50.874,0C13,206.334,13,199.666,13,193z"/>
	<path fill-rule="evenodd" clip-rule="evenodd" fill="#FFFFFF" d="M582.751,68.042c0-5.323,0-10.542,0-16.073c0-8,0-15.938,0-23.938
		c0-4.667-3.804-9.959-6.416-12.534c-11.97-13.116-34.439-12.161-45.433,1.77c-12.484,15.818-24.633,31.901-36.937,47.862
		c-4.709,6.108-10.077,12.69-14.799,18.788c-0.657-2.736-0.531-5.412-0.529-7.676c0.013-14.833-0.02-29.666,0.061-44.498
		c0.033-6.3-1.87-11.759-6.28-16.309c-12.816-13.221-35.434-12.125-46.741,2.407c-9.204,11.829-18.211,23.811-27.32,35.714
		c-2.767,3.616-5.582,7.195-8.601,11.082c-12.098-15.799-23.84-30.917-35.325-46.228c-5.369-7.158-12.3-11.005-21.109-11.637
		c-2.988-0.214-5.991-0.332-8.987-0.332C270.503,6.447,216.673,6.505,162.842,6.48c-10.567-0.005-18.725,3.98-25.26,12.53
		C110.177,54.863,82.486,90.496,54.91,126.218c-1.267,1.64-2.433,3.358-4.104,5.677c14.576,0,28.203,0.065,41.826-0.104
		c1.353-0.017,3.031-1.178,3.971-2.3c3.741-4.467,7.1-9.259,10.929-13.642c1.228-1.406,3.46-2.689,5.257-2.722
		c12.829-0.233,25.665-0.055,38.496-0.186c3.069-0.031,4.127,1.063,4.025,4.06c-0.164,4.788-0.044,9.585-0.044,14.491
		c12.544,0,24.575,0,36.439,0c0-16.625,0-32.854,0-49.656c-19.464,0-38.494,0-58.682,0c7.531-9.522,14.325-18.112,21.119-26.702
		c0.428,0.158,0.856,0.315,1.284,0.473c0,4.367,0,8.733,0,12.953c12.592,0,24.513,0,36.69,0c0-8.833,0.208-17.329-0.088-25.806
		c-0.149-4.26,1.404-5.419,5.446-5.283c7.657,0.258,15.331,0.056,22.997,0.048c3.082-0.003,6.164,0,9.741,0
		c0,31.978,0,63.054,0,94.208c12.446,0,24.357,0,36.813,0c0-31.373,0-62.447,0-93.869c11.442,0,22.337,0,34.021,0
		c0,31.491,0,62.684,0,93.884c12.561,0,24.329,0,36.663,0c0-12.884,0-25.509,0-38.134c0-12.751,0-25.502,0-39.518
		c1.889,2.348,3.013,3.684,4.071,5.071c9.089,11.914,18.747,23.446,27.086,35.864c8.583,12.781,33.034,13.187,42.007-0.217
		c8.691-12.981,18.813-25.005,28.335-37.428c0.613-0.8,1.468-1.416,3.067-2.928c0,26.55,0.016,52.209,0.016,77.898
		c12.523,0,24.376,0.112,36.417,0.108c6.188-0.002,10.903-1.086,14.005-7.012c1.751-3.345,4.293-6.39,6.958-9.098
		c1.531-1.557,3.983-2.979,6.083-3.072c8.151-0.362,16.326-0.17,24.493-0.179c5.26-0.005,10.52-0.001,16.513-0.001
		c0,6.761,0,12.804,0,18.903c12.579,0,24.16,0,35.99,0c0-9,0-17.953,0-26.953c0-7.531,0-14.25,0-22.886c-18.757,0-38.345,0-58.485,0
		c7.595-9.667,14.374-18.326,21.739-27.7c0,4.992,0,9.1,0,13.573C558.215,68.034,570.788,68.042,582.751,68.042z"/>
	<path fill-rule="evenodd" clip-rule="evenodd" fill="#FFFFFF" d="M43.909,141.094c0,5.611,0,11.221,0,17.365
		c16.704,0,33.101,0,49.749,0c0,6.94,0,13.342,0,20.062c-26.275,0-52.452,0-79.588,0c9.845-12.936,19.319-25.384,28.793-37.831
		C43.212,140.824,43.56,140.959,43.909,141.094z"/>
</g>
</svg>
