<?xml version="1.0" encoding="utf-8"?>
<!-- Generator: Adobe Illustrator 19.0.0, SVG Export Plug-In . SVG Version: 6.00 Build 0)  -->
<svg version="1.1" id="Ebene_1" xmlns="http://www.w3.org/2000/svg" xmlns:xlink="http://www.w3.org/1999/xlink" x="0px" y="0px"
	 viewBox="0 0 217.5 132" style="enable-background:new 0 0 217.5 132;" xml:space="preserve">
<style type="text/css">
	.st0{fill:#FFFFFF;}
</style>
<path id="XMLID_352_" class="st0" d="M196.8,40.1H24.1c-6.2,0-11.3-5.1-11.3-11.3v-3.6c0-6.2,5.1-11.3,11.3-11.3h172.7
	c6.2,0,11.3,5.1,11.3,11.3v3.6C208.1,35,203,40.1,196.8,40.1z"/>
<path id="XMLID_3_" class="st0" d="M194.6,41C194.6,41,194.6,41,194.6,41c-5.8-2-11.9-0.2-11.9-0.2l-0.2,0.1
	c-11,2.6-22.9,5.3-33.2,11.7c-21.8,13.5-35.2,32.7-40.1,57.9c-0.2,1.2,0,2.7-0.9,3.7c-0.9-1-0.6-2.5-0.9-3.7
	c-4.8-25.2-18.3-44.4-40.1-57.9c-10.3-6.4-22.2-9.1-33.2-11.7L34,40.8c0,0-6.1-1.8-11.9,0.2c0,0,0,0,0,0C13,45,9.5,50,10.8,57.2
	c1.3,7.3,6.4,11,14.6,11.4c24.8,1.1,45,15.9,52.8,38.7c1.6,4.6,2.4,9.4,2.8,14.2c0.1,1,0.2,1.6,0.7,2.6h53.5c0.5-1,0.6-1.6,0.7-2.6
	c0.4-4.8,1.2-9.6,2.8-14.2c7.8-22.8,28-37.6,52.8-38.7c8.2-0.4,13.2-4.2,14.6-11.4C207.2,50,203.7,45,194.6,41z"/>
</svg>
