<?xml version="1.0" encoding="utf-8"?>
<!-- Generator: Adobe Illustrator 16.0.3, SVG Export Plug-In . SVG Version: 6.00 Build 0)  -->
<!DOCTYPE svg PUBLIC "-//W3C//DTD SVG 1.1//EN" "http://www.w3.org/Graphics/SVG/1.1/DTD/svg11.dtd">
<svg version="1.1" id="Ebene_1" xmlns="http://www.w3.org/2000/svg" xmlns:xlink="http://www.w3.org/1999/xlink" x="0px" y="0px"
	 width="339.584px" height="173.958px" viewBox="0 0 339.584 173.958" enable-background="new 0 0 339.584 173.958"
	 xml:space="preserve">
<path fill="none" stroke="#000000" stroke-miterlimit="10" d="M139.868,82.193"/>
<g>
	<path fill="#FFFFFF" d="M334.834,55.018c-7.755-40.082-87.747-58.321-178.674-40.734C65.237,31.872-2.187,78.625,5.568,118.708
		c7.752,40.084,87.747,58.32,178.672,40.732C275.159,141.856,342.582,95.103,334.834,55.018z M41.772,106.04l24.569-58.17h49.5
		l-24.75,58.17H41.772z M182.36,98.181l-1.664,7.858h-22.854l1.717-7.768l12.18-30.16l-6.313-0.027
		c-0.089,0.811-0.222,1.649-0.448,2.546l-13.91,35.409h-19.15l0.542-6.686c0,0-4.877,7.949-20.956,8.129
		c0,0-14.994-0.838-9.755-17.038c0,0,6.323-19.814,41.912-17.104c0,0,3.432-8.309-1.807-8.49c0,0-6.323-1.626-10.297,6.504H112.59
		c0,0,5.781-19.33,28.905-18.969c0,0,19.382-0.73,23.334,9.948l5.371-9.958h7.896l4.227-10.467h22.221l-4.126,10.467h7.106
		l-6.91,15.863l-6.438-0.028L182.36,98.181z M223.512,75.147l-12.827,30.892h-24.151l23.429-53.665h22.583l-5.602,9.044
		c0,0,8.854-10.5,24.208-9.044l-8.13,18.438C243.021,70.812,226.763,68.463,223.512,75.147z M281.865,106.04h-49.32l24.568-58.17
		h49.5L281.865,106.04z"/>
	<path fill="#FFFFFF" d="M138.817,83.295c-4.089-2.844-12.025,2.995-12.025,2.995c-5.476,3.599-3.296,6.539-3.296,6.539
		c2.27,2.979,8.422-0.338,8.422-0.338C143.672,86.972,138.817,83.295,138.817,83.295z"/>
</g>
</svg>
