<?xml version="1.0" encoding="utf-8"?>
<!-- Generator: Adobe Illustrator 16.0.3, SVG Export Plug-In . SVG Version: 6.00 Build 0)  -->
<!DOCTYPE svg PUBLIC "-//W3C//DTD SVG 1.1//EN" "http://www.w3.org/Graphics/SVG/1.1/DTD/svg11.dtd">
<svg version="1.1" id="Ebene_1" xmlns="http://www.w3.org/2000/svg" xmlns:xlink="http://www.w3.org/1999/xlink" x="0px" y="0px"
	 width="331px" height="173px" viewBox="0 0 331 173" enable-background="new 0 0 331 173" xml:space="preserve">
<g>
	<path fill-rule="evenodd" clip-rule="evenodd" fill="#FFFFFF" d="M258.468,18.182c0,8.696,0.299,16.862-0.116,24.991
		c-0.236,4.626,1.397,5.803,5.639,5.374c3.297-0.334,6.662,0.073,9.983-0.108c2.827-0.154,3.297,0.961,2.913,3.545
		c-1.448,9.77-1.373,9.781-11.481,9.782c-6.938,0-6.938,0-6.938,6.786c0.002,10.159-0.038,20.319,0.022,30.477
		c0.044,7.591,1.193,14.921,5.543,21.423c1.497,2.237,3.428,4.03,5.326,5.906c2.059,2.036,7.004,1.946,6.581,4.883
		c-0.693,4.814-3.103,9.432-5.134,13.978c-0.85,1.899-2.669,0.532-3.951,0.046c-14.257-5.409-21.752-16.366-24.809-30.763
		c-0.719-3.388-0.879-6.938-0.915-10.416c-0.112-10.824-0.032-21.65-0.049-32.475c-0.004-2.993,0.947-6.626-0.405-8.81
		c-1.569-2.533-5.502-0.82-8.388-0.971c-2.137-0.112-3.075-0.831-2.909-2.958c0.052-0.663,0.011-1.332,0.006-1.998
		c-0.056-8.169-0.056-8.332,7.885-8.313c3.096,0.007,4.309-0.912,3.829-3.955c-0.077-0.487-0.012-0.998-0.011-1.497
		C241.126,25.787,241.464,25.292,258.468,18.182z"/>
	<path fill-rule="evenodd" clip-rule="evenodd" fill="#FFFFFF" d="M214.669,121.877c-14.797,12.116-30.725,10.413-39.17-4.344
		c-6.223-10.87-6.933-22.522-2.459-34.168c3.581-9.324,10.331-15.865,20.558-16.738c9.754-0.833,19.623-0.315,29.44-0.394
		c3.384-0.027,2.427,2.545,2.436,4.31c0.063,12.655-0.008,25.31,0.054,37.965c0.023,4.809-0.369,9.724,1.711,14.256
		c0.701,1.527,0.085,2.129-1.006,2.758C217.683,130.456,219.043,132.143,214.669,121.877z M212.731,89.8
		c-0.073-12.077-0.073-12.077-12.192-12c-9.209,0.059-13.709,3.544-15.914,12.47c-1.346,5.447-1.098,10.883,0.723,16.185
		c2.25,6.554,7.297,10.463,13.13,10.351c5.728-0.109,10.335-3.882,12.681-10.261C213.164,101.091,212.723,95.43,212.731,89.8z"/>
	<path fill-rule="evenodd" clip-rule="evenodd" fill="#FFFFFF" d="M158.148,67.989c-0.052-0.341-0.103-0.682-0.154-1.023
		c0.205-1.003-0.296-2.218,0.876-2.932c0.365,1.327,0.731,2.655,1.097,3.982c-0.104,1.093-0.193,2.182,0.803,2.978
		c9.962,43.893-19.95,88.648-64.059,95.852C51.158,174.283,9.098,141.814,4.8,95.896C0.385,48.723,34.483,9.516,81.847,7.403
		c5.58-0.249,11.107,0.502,17.399,2.261c-4.916,2.223-8.717,4.213-13.674,4.235c-51,0.236-91.414,50.338-74.679,100.079
		c12.045,35.802,51.242,55.604,89.796,45.537c33.957-8.866,62.123-40.727,59.269-81.475c0.039-1.73,0.587-3.538-0.779-5.051
		c-0.079-0.64-0.157-1.279-0.235-1.919C159.098,69.935,159.182,68.817,158.148,67.989z"/>
	<path fill-rule="evenodd" clip-rule="evenodd" fill="#FFFFFF" d="M300.066,102.765c4.171-11.007,8.21-20.769,11.51-30.775
		c1.518-4.598,3.686-6.545,8.448-5.811c1.932,0.298,3.948,0.049,5.968,0.049c0.336,2.789-1.131,4.751-1.955,6.863
		c-6.898,17.644-13.839,35.271-20.831,52.877c-0.67,1.687-0.665,3.979-3.553,4.07c-3.264,0.103-3.099-2.471-3.779-4.319
		c-6.772-18.401-13.381-36.863-20.313-55.205c-1.44-3.813-0.592-4.407,3.101-4.357c9.208,0.123,9.195-0.017,12.111,8.775
		C293.734,83.857,296.729,92.772,300.066,102.765z"/>
	<path fill-rule="evenodd" clip-rule="evenodd" fill="#FFFFFF" d="M54.102,117.943C37.4,81.495,54.538,34.653,91.378,16.065
		c42.451-21.419,93.8-0.997,109.9,43.728c0.529,1.467,1.617,2.892,0.878,4.642c-2.01,0.042-1.938-1.541-2.346-2.721
		C185.47,20.096,137.387,1.594,96.598,20.747C65.14,35.52,48.055,65.068,50.927,98.527c0.517,6.023,2.502,11.675,4.074,17.437
		C54.701,116.624,54.401,117.283,54.102,117.943z"/>
	<path fill-rule="evenodd" clip-rule="evenodd" fill="#FFFFFF" d="M112.113,165.591c5.024-2.86,9.816-3.701,15.131-3.964
		c22.88-1.134,42.038-10.553,57.21-27.719c2.55-2.885,4.743-4.213,8.229-2.122C180.224,156.939,137.782,174.852,112.113,165.591z"/>
	<path fill-rule="evenodd" clip-rule="evenodd" fill="#FFFFFF" d="M59.917,126.022c9.542,14.914,23.027,24.684,40.304,30.405
		c-3.451,1.924-6.449,2.589-9.562,0.919c-13.323-7.149-24.353-16.746-31.807-30.107C59.208,126.834,59.563,126.428,59.917,126.022z"
		/>
	<path fill-rule="evenodd" clip-rule="evenodd" fill="#FFFFFF" d="M109.983,19.765c5.288-2.692,9.235-1.484,13.369,1.028
		c8.035,4.882,15.277,10.628,21.375,17.78c1.225,1.437,3.108,2.738,1.936,5.418C137.297,31.999,124.866,24.73,109.983,19.765z"/>
	<path fill-rule="evenodd" clip-rule="evenodd" fill="#FFFFFF" d="M158.87,64.034c-1.172,0.714-0.671,1.929-0.876,2.932
		c-2.521-6.433-4.519-13.108-8.516-18.865c-0.681-0.98-0.104-1.9-0.25-2.834c0.626,0.589,1.425,1.075,1.853,1.784
		C154.318,52.414,157.343,57.883,158.87,64.034z"/>
	<path fill-rule="evenodd" clip-rule="evenodd" fill="#FFFFFF" d="M59.917,126.022c-0.355,0.405-0.71,0.812-1.064,1.217
		c-2.244-2.761-3.694-5.928-4.751-9.296c0.299-0.66,0.599-1.319,0.898-1.979C56.64,119.316,58.278,122.67,59.917,126.022z"/>
	<path fill-rule="evenodd" clip-rule="evenodd" fill="#FFFFFF" d="M159.179,72.99c1.366,1.513,0.818,3.321,0.779,5.051
		C159.698,76.357,159.438,74.674,159.179,72.99z"/>
	<path fill-rule="evenodd" clip-rule="evenodd" fill="#FFFFFF" d="M158.148,67.989c1.034,0.828,0.95,1.945,0.795,3.082
		C158.679,70.043,158.414,69.016,158.148,67.989z"/>
	<path fill-rule="evenodd" clip-rule="evenodd" fill="#FFFFFF" d="M160.77,70.994c-0.996-0.796-0.907-1.885-0.803-2.978
		C160.234,69.009,160.502,70.001,160.77,70.994z"/>
	<path fill-rule="evenodd" clip-rule="evenodd" fill="#FFFFFF" d="M196.98,114.543c4.622-10.456,6.694-21.148,6.397-32.294
		c-0.03-1.147-0.325-2.689,1.269-2.743c1.644-0.056,1.353,1.58,1.422,2.67c0.638,10.073-0.563,19.931-3.389,29.619
		C201.857,114.612,200.267,115.568,196.98,114.543z"/>
</g>
</svg>
