<?xml version="1.0" encoding="utf-8"?>
<!-- Generator: Adobe Illustrator 19.0.0, SVG Export Plug-In . SVG Version: 6.00 Build 0)  -->
<svg version="1.1" id="Ebene_1" xmlns="http://www.w3.org/2000/svg" xmlns:xlink="http://www.w3.org/1999/xlink" x="0px" y="0px"
	 viewBox="0 0 340.6 180.5" style="enable-background:new 0 0 340.6 180.5;" xml:space="preserve">
<style type="text/css">
	.st0{fill-rule:evenodd;clip-rule:evenodd;fill:#FFFFFF;}
</style>
<g>
	<path class="st0" d="M264,21.9c0,8.7,0.3,16.9-0.1,25c-0.2,4.6,1.4,5.8,5.6,5.4c3.3-0.3,6.7,0.1,10-0.1c2.8-0.2,3.3,1,2.9,3.5
		c-1.4,9.8-1.4,9.8-11.5,9.8c-6.9,0-6.9,0-6.9,6.8c0,10.2,0,20.3,0,30.5c0,7.6,1.2,14.9,5.5,21.4c1.5,2.2,3.4,4,5.3,5.9
		c2.1,2,7,1.9,6.6,4.9c-0.7,4.8-3.1,9.4-5.1,14c-0.8,1.9-2.7,0.5-4,0c-14.3-5.4-21.8-16.4-24.8-30.8c-0.7-3.4-0.9-6.9-0.9-10.4
		c-0.1-10.8,0-21.6,0-32.5c0-3,0.9-6.6-0.4-8.8c-1.6-2.5-5.5-0.8-8.4-1c-2.1-0.1-3.1-0.8-2.9-3c0.1-0.7,0-1.3,0-2
		c-0.1-8.2-0.1-8.3,7.9-8.3c3.1,0,4.3-0.9,3.8-4c-0.1-0.5,0-1,0-1.5C246.7,29.5,247,29,264,21.9z"/>
	<path class="st0" d="M220.2,125.6c-14.8,12.1-30.7,10.4-39.2-4.3c-6.2-10.9-6.9-22.5-2.5-34.2c3.6-9.3,10.3-15.9,20.6-16.7
		c9.8-0.8,19.6-0.3,29.4-0.4c3.4,0,2.4,2.5,2.4,4.3c0.1,12.7,0,25.3,0.1,38c0,4.8-0.4,9.7,1.7,14.3c0.7,1.5,0.1,2.1-1,2.8
		C223.2,134.2,224.6,135.8,220.2,125.6z M218.3,93.5c-0.1-12.1-0.1-12.1-12.2-12c-9.2,0.1-13.7,3.5-15.9,12.5
		c-1.3,5.4-1.1,10.9,0.7,16.2c2.2,6.6,7.3,10.5,13.1,10.4c5.7-0.1,10.3-3.9,12.7-10.3C218.7,104.8,218.3,99.1,218.3,93.5z"/>
	<path class="st0" d="M163.7,71.7c-0.1-0.3-0.1-0.7-0.2-1c0.2-1-0.3-2.2,0.9-2.9c0.4,1.3,0.7,2.7,1.1,4c-0.1,1.1-0.2,2.2,0.8,3
		c10,43.9-19.9,88.6-64.1,95.9c-45.6,7.4-87.6-25-91.9-71C5.9,52.4,40,13.2,87.4,11.1c5.6-0.2,11.1,0.5,17.4,2.3
		c-4.9,2.2-8.7,4.2-13.7,4.2c-51,0.2-91.4,50.3-74.7,100.1c12,35.8,51.2,55.6,89.8,45.5c34-8.9,62.1-40.7,59.3-81.5
		c0-1.7,0.6-3.5-0.8-5.1c-0.1-0.6-0.2-1.3-0.2-1.9C164.7,73.6,164.7,72.5,163.7,71.7z"/>
	<path class="st0" d="M305.6,106.5c4.2-11,8.2-20.8,11.5-30.8c1.5-4.6,3.7-6.5,8.4-5.8c1.9,0.3,3.9,0,6,0c0.3,2.8-1.1,4.8-2,6.9
		c-6.9,17.6-13.8,35.3-20.8,52.9c-0.7,1.7-0.7,4-3.6,4.1c-3.3,0.1-3.1-2.5-3.8-4.3c-6.8-18.4-13.4-36.9-20.3-55.2
		c-1.4-3.8-0.6-4.4,3.1-4.4c9.2,0.1,9.2,0,12.1,8.8C299.3,87.6,302.3,96.5,305.6,106.5z"/>
	<path class="st0" d="M59.7,121.6C43,85.2,60.1,38.4,96.9,19.8c42.5-21.4,93.8-1,109.9,43.7c0.5,1.5,1.6,2.9,0.9,4.6
		c-2,0-1.9-1.5-2.3-2.7c-14.3-41.6-62.4-60.1-103.2-41c-31.5,14.8-48.5,44.3-45.7,77.8c0.5,6,2.5,11.7,4.1,17.4
		C60.3,120.3,60,121,59.7,121.6z"/>
	<path class="st0" d="M117.7,169.3c5-2.9,9.8-3.7,15.1-4c22.9-1.1,42-10.6,57.2-27.7c2.5-2.9,4.7-4.2,8.2-2.1
		C185.8,160.6,143.3,178.5,117.7,169.3z"/>
	<path class="st0" d="M65.5,129.7c9.5,14.9,23,24.7,40.3,30.4c-3.5,1.9-6.4,2.6-9.6,0.9c-13.3-7.1-24.4-16.7-31.8-30.1
		C64.8,130.5,65.1,130.1,65.5,129.7z"/>
	<path class="st0" d="M154.6,51.9c4.1,5.7,6.4,12.3,8.9,18.8c0.2-1-0.3-2.2,0.9-2.9c-1.5-6.2-4.6-11.6-7.8-17s-6.4-8.5-6.4-8.5
		c-6.1-7.2-13.9-12.9-21.9-17.8c-4.1-2.5-7.5-3.7-12.8-1c11.7,3.9,23.5,11.5,32.6,20.3C148.1,43.8,150.2,45.7,154.6,51.9z"/>
	<path class="st0" d="M65.5,129.7c-0.4,0.4-0.7,0.8-1.1,1.2c-2.2-2.8-3.7-5.9-4.8-9.3c0.3-0.7,0.6-1.3,0.9-2
		C62.2,123,63.8,126.4,65.5,129.7z"/>
	<path class="st0" d="M164.7,76.7c1.4,1.5,0.8,3.3,0.8,5.1C165.3,80.1,165,78.4,164.7,76.7z"/>
	<path class="st0" d="M163.7,71.7c1,0.8,0.9,1.9,0.8,3.1C164.2,73.7,164,72.7,163.7,71.7z"/>
	<path class="st0" d="M166.3,74.7c-1-0.8-0.9-1.9-0.8-3C165.8,72.7,166.1,73.7,166.3,74.7z"/>
	<path class="st0" d="M202.5,118.2c4.6-10.5,6.7-21.1,6.4-32.3c0-1.1-0.3-2.7,1.3-2.7c1.6-0.1,1.4,1.6,1.4,2.7
		c0.6,10.1-0.6,19.9-3.4,29.6C207.4,118.3,205.8,119.3,202.5,118.2z"/>
</g>
</svg>
