<?xml version="1.0" encoding="utf-8"?>
<!-- Generator: Adobe Illustrator 16.0.3, SVG Export Plug-In . SVG Version: 6.00 Build 0)  -->
<!DOCTYPE svg PUBLIC "-//W3C//DTD SVG 1.1//EN" "http://www.w3.org/Graphics/SVG/1.1/DTD/svg11.dtd">
<svg version="1.1" id="Ebene_1" xmlns="http://www.w3.org/2000/svg" xmlns:xlink="http://www.w3.org/1999/xlink" x="0px" y="0px"
	 width="595.28px" height="281.042px" viewBox="0 0 595.28 281.042" enable-background="new 0 0 595.28 281.042"
	 xml:space="preserve">
<g>
	<path fill-rule="evenodd" clip-rule="evenodd" fill="#FFFFFF" d="M220.927,35.109c0,51.657,0,102.466,0,153.678
		c-7.744,0-15.307,0-23.474,0c0-50.966,0-102.024,0-153.586c-17.663,0-34.741,0-52.116,0c0-6.408,0-12.314,0-18.64
		c1.661-0.08,3.27-0.225,4.878-0.226c39.159-0.013,78.319,0.045,117.478-0.098c3.804-0.014,5.368,1.24,6.721,4.759
		c17.063,44.376,34.32,88.677,51.534,132.996c0.653,1.683,1.363,3.345,2.423,5.937c1.672-4.141,3.04-7.397,4.309-10.693
		c16.426-42.66,32.893-85.306,49.155-128.028c1.412-3.71,3.02-5.24,7.104-4.985c6.298,0.392,12.638,0.103,19.716,0.103
		c-0.764,2.243-1.302,4.067-1.996,5.829c-21.265,53.979-42.605,107.929-63.709,161.971c-1.697,4.345-3.826,5.855-8.326,5.477
		c-4.799-0.404-9.674-0.331-14.485-0.011c-3.477,0.231-4.904-1.19-6.117-4.28c-18.945-48.283-38.083-96.491-56.939-144.808
		c-1.686-4.319-3.736-5.702-8.262-5.509C239.717,35.381,230.585,35.109,220.927,35.109z"/>
	<path fill-rule="evenodd" clip-rule="evenodd" fill="#FFFFFF" d="M480.069,198.757c-52.164,0.217-91.895-39.004-92.012-90.83
		c-0.118-51.797,39.142-91.506,90.661-91.701c52.989-0.2,93.025,38.493,93.249,90.12
		C572.196,159.392,533.27,198.537,480.069,198.757z M411.692,107.59c-0.126,39.144,29.39,69.234,68.038,69.359
		c38.672,0.126,68.272-29.756,68.353-69c0.079-39.425-29.06-69.387-67.728-69.639C441.609,38.059,411.82,68.115,411.692,107.59z"/>
	<path fill-rule="evenodd" clip-rule="evenodd" fill="#FFFFFF" d="M25.458,189.509c0.826-2.368,1.306-3.917,1.899-5.421
		c21.46-54.411,42.976-108.8,64.298-163.265c1.413-3.609,3.126-4.797,6.852-4.581c5.478,0.318,11.001-0.123,16.477,0.217
		c1.515,0.094,3.742,1.489,4.274,2.83c22.259,56.059,44.363,112.179,66.472,168.298c0.111,0.28,0.014,0.644,0.014,1.829
		c-7.632,0-15.329,0.157-23.003-0.186c-1.04-0.046-2.302-2.469-2.898-4.009c-13.323-34.396-26.565-68.826-39.828-103.246
		c-4.459-11.573-8.937-23.138-13.824-35.789c-1.083,2.446-1.772,3.849-2.335,5.3c-17.249,44.459-34.538,88.903-51.622,133.426
		c-1.375,3.583-3.04,4.853-6.794,4.678C39.025,189.294,32.588,189.509,25.458,189.509z"/>
	<path fill-rule="evenodd" clip-rule="evenodd" fill="#FFFFFF" d="M414.913,255.227c-10.797-0.009-18.794-7.86-18.812-18.468
		c-0.018-10.443,8.208-18.527,18.85-18.525c10.58,0.002,18.866,8.169,18.838,18.568
		C433.762,247.365,425.696,255.237,414.913,255.227z M425.157,236.968c0.088-6.186-4.024-10.695-9.894-10.848
		c-6.11-0.159-10.653,4.386-10.653,10.656c0,6.049,4.318,10.521,10.211,10.575C420.778,247.406,425.069,243.095,425.157,236.968z"/>
	<path fill-rule="evenodd" clip-rule="evenodd" fill="#FFFFFF" d="M540.688,255.232c-10.826,0.008-18.685-7.738-18.705-18.439
		c-0.021-10.649,7.91-18.54,18.654-18.558c10.706-0.018,18.733,7.915,18.737,18.515
		C559.377,247.416,551.483,255.222,540.688,255.232z M551.016,236.966c0.108-5.992-4.24-10.699-10.016-10.846
		c-5.976-0.15-10.804,4.612-10.807,10.66c-0.004,5.828,4.606,10.528,10.374,10.578C546.459,247.41,550.908,242.984,551.016,236.966z
		"/>
	<path fill-rule="evenodd" clip-rule="evenodd" fill="#FFFFFF" d="M141.738,225.347c0.166-1.959,0.289-3.412,0.559-6.59
		c2.014,1.83,4.092,2.84,4.098,3.861c0.064,10.811,0.225,21.653-0.52,32.426c-0.522,7.554-7.836,13.393-15.906,14.083
		c-8.301,0.712-15.277-3.366-18.308-11.797c2.778,1.155,5.057,1.504,6.474,2.798c5.375,4.908,10.358,6.273,15.822,3.799
		c5.506-2.494,8.137-7.577,7.615-15.572c-4.693,5.432-10.384,8.24-16.939,6.479c-3.794-1.019-7.774-3.267-10.459-6.106
		c-6.25-6.613-5.453-18.025,0.969-24.523C122.118,217.148,131.825,217.466,141.738,225.347z M114.829,236.963
		c-0.054,8.071,5.821,14.046,13.734,13.966c7.517-0.074,13.496-6.258,13.424-13.882c-0.072-7.657-6.106-13.747-13.591-13.72
		C120.663,223.356,114.88,229.167,114.829,236.963z"/>
	<path fill-rule="evenodd" clip-rule="evenodd" fill="#FFFFFF" d="M182.792,248.685c-10.842,8.496-20.726,8.502-27.631,0.379
		c-6.03-7.092-5.531-18.526,1.092-25.039c7.097-6.979,17.579-6.513,26.216,1.54c0.265-1.783,0.488-3.282,0.976-6.565
		c1.782,1.756,3.81,2.822,3.823,3.912c0.127,10.48,0.282,20.986-0.322,31.442c-0.447,7.739-7.169,13.64-15.325,14.716
		c-8.185,1.081-15.589-2.982-19.082-11.551c2.764,1.012,5.156,1.192,6.43,2.48c4.56,4.607,9.643,6.661,15.755,3.932
		C180.962,261.144,183.11,255.812,182.792,248.685z M155.786,237.003c-0.038,8.086,5.853,14.039,13.772,13.922
		c7.529-0.112,13.5-6.313,13.402-13.919c-0.098-7.644-6.165-13.726-13.648-13.683C161.583,223.368,155.822,229.195,155.786,237.003z
		"/>
	<path fill-rule="evenodd" clip-rule="evenodd" fill="#FFFFFF" d="M393.757,231.986c-3.896,0.21-7.404,1.115-10.517-3.01
		c-3.27-4.335-10.525-3.929-14.304-0.092c-3.913,3.973-3.981,11.43-0.141,15.508c3.659,3.886,10.976,4.523,14.345,0.354
		c3.17-3.923,6.581-3.458,10.56-3.026c-2.118,9.396-10.299,14.67-20.435,13.43c-8.924-1.092-15.694-9.057-15.677-18.439
		c0.019-9.594,6.987-17.501,16.253-18.441C383.448,217.294,391.632,222.833,393.757,231.986z"/>
	<path fill-rule="evenodd" clip-rule="evenodd" fill="#FFFFFF" d="M445.995,254.002c-2.839,0-5.118,0-7.857,0
		c0-11.353,0-22.72,0-34.46c2.812,0.212,6.37-2.512,7.702,2.287c2.63-1.195,5.034-2.837,7.666-3.381
		c8.625-1.785,15.105,3.055,16.295,11.812c0.178,1.313,0.156,2.659,0.159,3.99c0.015,6.463,0.007,12.925,0.007,19.677
		c-2.795,0-5.193,0-8.449,0c0-6.707,0.162-13.309-0.057-19.896c-0.146-4.388-1.871-7.787-7.075-7.922
		c-5.16-0.135-8.196,2.686-8.35,8.341C445.861,240.894,445.995,247.345,445.995,254.002z"/>
	<path fill-rule="evenodd" clip-rule="evenodd" fill="#FFFFFF" d="M298.271,253.958c-1.294,0-2.544,0-3.842,0
		c-0.159-0.573-0.399-1.041-0.402-1.51c-0.041-5.829,0.028-11.659-0.083-17.486c-0.143-7.533-3.628-11.729-9.481-11.635
		c-6.02,0.096-9.427,4.229-9.484,11.626c-0.048,6.149-0.01,12.301-0.01,18.894c-1.537,0.12-2.891,0.227-4.843,0.381
		c0-6.854,0.048-13.309-0.013-19.762c-0.066-6.965-3.146-10.793-8.803-11.12c-5.336-0.31-9.433,3.546-9.878,10.286
		c-0.437,6.607-0.095,13.266-0.095,19.855c-2.904,1.133-4.664,1.219-4.653-2.19c0.031-10.14,0.011-20.28,0.011-32.211
		c2.521,1.737,4.007,2.761,5.664,3.901c8.286-6.196,14.644-5.572,20.631,2.118c3.062-1.933,5.824-4.581,9.088-5.562
		c8.206-2.463,15.293,2.219,16.053,10.85C298.799,237.971,298.271,245.654,298.271,253.958z"/>
	<path fill-rule="evenodd" clip-rule="evenodd" fill="#FFFFFF" d="M489.084,219.365c2.967,0,5.447,0,8.522,0
		c2.643,7.458,5.357,15.123,8.546,24.123c2.313-6.696,4.142-11.957,5.949-17.225c2.517-7.334,2.511-7.336,10.941-6.761
		c-1.68,4.562-3.302,8.966-4.921,13.369c-2.062,5.606-4.218,11.18-6.141,16.833c-0.983,2.889-2.001,4.728-5.764,4.695
		c-3.597-0.03-4.863-1.475-5.927-4.488C496.716,239.776,492.906,229.723,489.084,219.365z"/>
	<path fill-rule="evenodd" clip-rule="evenodd" fill="#FFFFFF" d="M234.971,225.455c0.118-1.914,0.199-3.23,0.306-4.979
		c1.37-0.129,2.755-0.258,4.422-0.415c0,11.454,0,22.555,0,33.899c-1.4,0-2.657,0-4.302,0c-0.154-1.582-0.307-3.152-0.525-5.401
		c-4.435,5.025-9.688,7.759-15.723,6.398c-3.995-0.899-8.354-2.835-11.196-5.665c-6.739-6.715-6.021-18.677,0.702-25.312
		C215.635,217.093,225.924,217.515,234.971,225.455z M235.214,237.077c0.065-7.723-5.759-13.698-13.441-13.793
		c-7.484-0.092-13.677,6.009-13.779,13.575c-0.106,7.885,6.021,14.135,13.779,14.057
		C229.387,250.839,235.148,244.908,235.214,237.077z"/>
	<path fill-rule="evenodd" clip-rule="evenodd" fill="#FFFFFF" d="M101.113,253.773c-0.123-1.428-0.248-2.896-0.292-3.41
		c-4.772,1.58-9.584,3.955-14.625,4.635c-5.781,0.778-10.579-2.301-13.984-7.088c-5.082-7.145-4.182-17.779,1.927-23.859
		c6.912-6.879,16.158-6.511,26.508,1.258c0.178-1.725,0.338-3.275,0.491-4.756c3.344-1.193,4.357,0.085,4.323,3.195
		c-0.1,8.978-0.111,17.957,0.003,26.934C105.504,253.953,104.254,254.9,101.113,253.773z M100.957,236.705
		c-0.124-7.444-6.474-13.545-13.971-13.422c-7.618,0.125-13.388,6.169-13.316,13.95c0.072,7.821,5.883,13.685,13.563,13.685
		C94.909,250.917,101.087,244.52,100.957,236.705z"/>
	<path fill-rule="evenodd" clip-rule="evenodd" fill="#FFFFFF" d="M321.155,255.166c-10.296-0.014-18.044-7.652-18.122-17.866
		c-0.079-10.472,7.684-18.198,18.263-18.175c10.44,0.022,17.977,7.441,18.094,17.811
		C339.507,247.412,331.736,255.181,321.155,255.166z M307.79,237.308c0.062,7.739,5.935,13.67,13.481,13.613
		c7.494-0.055,13.503-6.139,13.553-13.721c0.05-7.703-6.345-14.082-13.905-13.87C313.322,223.543,307.729,229.499,307.79,237.308z"
		/>
	<path fill-rule="evenodd" clip-rule="evenodd" fill="#FFFFFF" d="M25.279,220.626c3.696-1.287,5.092,0.035,6.142,2.914
		c2.872,7.879,6.046,15.65,9.612,24.773c3.551-9.131,6.714-16.897,9.563-24.778c1.048-2.897,2.453-4.185,6.119-2.921
		c-4.228,10.719-8.4,21.446-12.774,32.092c-0.33,0.803-2.188,1.55-3.161,1.371c-1.167-0.215-2.689-1.229-3.121-2.281
		C33.439,241.5,29.416,231.125,25.279,220.626z"/>
	<path fill-rule="evenodd" clip-rule="evenodd" fill="#FFFFFF" d="M563.601,219.474c2.823,0,5.253,0,7.932,0
		c0,11.588,0,22.93,0,34.51c-2.714,0-5.146,0-7.932,0C563.601,242.564,563.601,231.223,563.601,219.474z"/>
	<path fill-rule="evenodd" clip-rule="evenodd" fill="#FFFFFF" d="M194.318,220.169c1.529,0.069,2.789,0.126,4.294,0.193
		c0,11.135,0,22.025,0,33.402c-1.243,0.164-2.601,0.343-4.294,0.565C194.318,242.923,194.318,231.88,194.318,220.169z"/>
	<path fill-rule="evenodd" clip-rule="evenodd" fill="#FFFFFF" d="M64,220.47c0,11.137,0,22.031,0,33.146
		c-2.636,1.091-4.286,0.965-4.255-2.621c0.079-9.284,0.086-18.57-0.003-27.854C59.709,219.773,61.426,219.869,64,220.47z"/>
	<path fill-rule="evenodd" clip-rule="evenodd" fill="#FFFFFF" d="M563.638,207.419c2.823,0,5.257,0,7.93,0c0,2.223,0,4.159,0,6.554
		c-2.55,0-5.088,0-7.93,0C563.638,211.787,563.638,209.597,563.638,207.419z"/>
	<path fill-rule="evenodd" clip-rule="evenodd" fill="#FFFFFF" d="M198.685,207.388c0,2.095,0,3.708,0,5.762
		c-1.511,0.065-2.865,0.125-4.434,0.193c0-2.196,0-3.957,0-5.955C195.719,207.388,196.975,207.388,198.685,207.388z"/>
</g>
</svg>
