<?xml version="1.0" encoding="utf-8"?>
<!-- Generator: Adobe Illustrator 19.0.0, SVG Export Plug-In . SVG Version: 6.00 Build 0)  -->
<svg version="1.1" id="Ebene_1" xmlns="http://www.w3.org/2000/svg" xmlns:xlink="http://www.w3.org/1999/xlink" x="0px" y="0px"
	 viewBox="0 0 300.4 300.4" style="enable-background:new 0 0 300.4 300.4;" xml:space="preserve">
<style type="text/css">
	.st0{fill:none;stroke:#FFFFFF;stroke-width:2;stroke-linecap:round;stroke-linejoin:round;stroke-miterlimit:10;}
	.st1{fill:none;stroke:#FFFFFF;stroke-width:1.9818;stroke-miterlimit:10;}
</style>
<g>
	<path class="st0" d="M130.7,157.1c-31.8,20.8-69.3,7.3-69.3,7.3C18.2,148.7,2.6,105.7,20.7,63.1c16-37.4,70-54.9,107.6-33.8
		l9.4-18.2l13.8,40.9l-38,12.9l8.1-17.7c-7.1-5.5-22-8.7-22-8.7c-28.3-5.1-56.3,11.2-65.1,38.2c-8.6,26.8,4,54.9,28.5,69.3
		c18.7,11,36,8.6,53.9-0.3"/>
	<path class="st0" d="M181.1,135.8c2.7,0.9,8.2,4.8,8.2,4.8c0.8,0.6,1.5,1.1,2.4,1.6c36,23.5,38.9,54.9,28.6,87.9
		c-9.3,29.7-40.6,53.4-78.3,49.7c-33.2-3.3-60.4-26.3-67.6-57.2c0,0-3-12.9-2-22.7"/>
	<path class="st0" d="M241.7,150.5c22.1-14.8,33-35.5,28.2-60.4c-4.5-23.9-19.8-40.6-45.4-46.4C194,36.9,158,61.4,155.5,92"/>
	<path class="st0" d="M248.7,164.5c26.3-17.4,41.7-34.5,40.8-66.7c-0.8-29.5-15.7-51.2-41.9-65.4c-26.7-14.5-52.4-11.5-76.7,4.2
		c-16.4,10.6-27,25.4-31.4,45.8c0,0-1.2,5,0,10.3"/>
	<path class="st0" d="M224.5,176.5"/>
	<path class="st0" d="M173.3,150.5c18.7,14.8,34,29.6,32.3,56.7c-1.4,22.3-16.2,43.7-38.7,51.8c-19.3,7-48.3-1.7-61.6-17.1
		c-6.6-7.7-11.5-16.4-14.6-25.3c0,0-4.5-12.5-1.9-18.4"/>
	<path class="st0" d="M218.7,163"/>
</g>
<circle class="st1" cx="147.5" cy="126.5" r="34.9"/>
<polyline class="st0" points="72.3,199.9 49.3,202 77.5,169.4 108.5,195.4 88.7,198.1 "/>
<polyline class="st0" points="248.7,164.5 258.6,185.4 218.3,170 232.1,132 241.7,150.5 "/>
</svg>
