<?xml version="1.0" encoding="utf-8"?>
<!-- Generator: Adobe Illustrator 16.0.3, SVG Export Plug-In . SVG Version: 6.00 Build 0)  -->
<!DOCTYPE svg PUBLIC "-//W3C//DTD SVG 1.1//EN" "http://www.w3.org/Graphics/SVG/1.1/DTD/svg11.dtd">
<svg version="1.1" id="Ebene_1" xmlns="http://www.w3.org/2000/svg" xmlns:xlink="http://www.w3.org/1999/xlink" x="0px" y="0px"
	 width="309px" height="301px" viewBox="0 0 309 301" enable-background="new 0 0 309 301" xml:space="preserve">
<circle fill="none" stroke="#FFFFFF" stroke-width="2" stroke-miterlimit="10" cx="149.475" cy="137.122" r="31.697"/>
<path fill="none" stroke="#FFFFFF" stroke-width="2" stroke-miterlimit="10" d="M142.904,106.108c0,0-10.846-37.962,25.557-65.462
	c0,0,43.055-33.293,92.582-5.889c0,0,46.835,24.475,40.148,73.907c0,0-4.705,46.402-45.564,64.385l13.868,21.13l-44.243-17.83
	l12.877-45.233l10.564,28.065c0,0,39.951-28.396,33.348-66.037c0,0-5.859-35.893-42.593-45.234c0,0-31.697-7.924-53.489,6.934
	c0,0-26.449,15.304-26.126,52.313"/>
<path fill="none" stroke="#FFFFFF" stroke-width="2" stroke-miterlimit="10" d="M127.967,160.401c0,0-28.095,27.171-69.968,9.059
	c0,0-50.193-21.045-50.768-77.645c0,0-1.796-52.814,44.507-71.368c0,0,42.691-18.783,78.48,7.9l11.546-22.483l6.3,47.283
	l-45.703,11.097l19.209-23.027c0,0-44.401-20.759-73.894,3.543c0,0-28.338,22.794-18.356,59.357c0,0,8.733,31.484,32.404,43.119
	c0,0,24.865,15.873,56.905-2.654"/>
<path fill="none" stroke="#FFFFFF" stroke-width="2" stroke-miterlimit="10" d="M180.678,142.713
	c1.589,0.182,5.738,1.623,5.738,1.623s36.519,9.43,41.854,54.741c0,0,6.971,53.976-41.702,82.864c0,0-44.789,28.049-84.066-2.702
	c0,0-37.663-27.509-32.533-71.853l-25.241,1.287l37.745-29.168l32.523,33.973l-29.556-5.067c0,0,4.314,48.824,40.132,62.146
	c0,0,33.933,13.082,60.556-13.895c0,0,22.856-23.347,21.049-49.66c0,0,1.258-29.472-30.84-47.898l-2.962-1.165"/>
</svg>
