<?xml version="1.0" encoding="utf-8"?>
<!-- Generator: Adobe Illustrator 16.0.3, SVG Export Plug-In . SVG Version: 6.00 Build 0)  -->
<!DOCTYPE svg PUBLIC "-//W3C//DTD SVG 1.1//EN" "http://www.w3.org/Graphics/SVG/1.1/DTD/svg11.dtd">
<svg version="1.1" id="Ebene_1" xmlns="http://www.w3.org/2000/svg" xmlns:xlink="http://www.w3.org/1999/xlink" x="0px" y="0px"
	 width="234px" height="134px" viewBox="0 0 234 134" enable-background="new 0 0 234 134" xml:space="preserve">
<g>
	<path fill-rule="evenodd" clip-rule="evenodd" fill="#FFFFFF" d="M137.277,82.763c0.252-9.343,2.4-18.319,5.274-27.16
		c0.331-1.018,0.998-1.271,1.93-1.465c3.988-0.829,7.921-1.871,11.696-3.431c1.553-0.642,3.052-1.398,4.313-2.538
		c1.973-1.782,1.994-3.531-0.042-5.247c-2.564-2.161-5.711-3.174-8.852-4.077c-1.57-0.451-2.079-0.83-1.207-2.5
		c4.631-8.882,9.622-17.505,16.798-24.64c2.163-2.151,4.525-4.051,7.414-5.178c4.096-1.598,7.28-0.276,8.913,3.808
		c2.059,5.147,1.868,10.554,1.106,15.841c-3.119,21.65-11.229,41.314-24.136,58.979c-2.41,3.3-5.207,6.267-8.452,8.782
		c-0.441,0.342-0.894,0.674-1.362,0.977c-6.627,4.285-11.613,2.081-12.899-5.702C137.421,87.078,137.154,84.938,137.277,82.763z"/>
	<path fill-rule="evenodd" clip-rule="evenodd" fill="#FFFFFF" d="M114.324,20.471c-0.017,8.474-2.046,16.588-4.424,24.642
		c-0.262,0.889-0.764,1.246-1.706,1.329c-10.655,0.938-21.305,1.929-31.959,2.865c-0.85,0.075-2.346,0.66-1.513-1.396
		c5.188-12.796,11.396-24.984,20.872-35.229c2.177-2.354,4.616-4.429,7.545-5.822c4.687-2.229,8.335-0.718,10.077,4.148
		C114.312,14.073,114.417,17.259,114.324,20.471z"/>
	<path fill-rule="evenodd" clip-rule="evenodd" fill="#FFFFFF" d="M141.722,54.868c-3.284,8.469-7.188,16.367-11.972,23.827
		c-3.374,5.262-7.116,10.222-11.873,14.341c-1.519,1.314-3.158,2.458-4.997,3.259c-4.436,1.93-7.861,0.493-9.575-4.037
		c-1.325-3.502-1.475-7.188-1.311-10.864c0.298-6.643,1.62-13.124,3.313-19.543c0.358-1.357,0.941-1.875,2.381-2.073
		C118.958,58.219,130.211,56.543,141.722,54.868z"/>
	<path fill-rule="evenodd" clip-rule="evenodd" fill="#FFFFFF" d="M104.132,60.569c-5.798,12.244-11.84,24.162-22.352,33.08
		c-1.894,1.606-3.994,2.898-6.532,3.31c-2.787,0.451-4.802-0.418-6.301-2.811c-1.439-2.298-1.931-4.896-2.136-7.521
		c-0.528-6.75,0.555-13.359,1.999-19.921c0.167-0.761,0.379-1.406,1.464-1.558c10.975-1.528,21.938-3.135,32.906-4.709
		C103.4,60.407,103.638,60.497,104.132,60.569z"/>
	<path fill-rule="evenodd" clip-rule="evenodd" fill="#FFFFFF" d="M116.878,32.933c5.166-9.257,10.467-18.133,18.988-24.551
		c0.509-0.382,1.067-0.702,1.622-1.016c5.483-3.109,9.737-1.391,11.321,4.663c1.919,7.337,0.656,14.604-0.713,21.841
		c-0.702,3.714-0.785,3.741-4.429,2.958c-8.368-1.797-16.863-2.711-25.351-3.681C117.932,33.104,117.55,33.034,116.878,32.933z"/>
	<path fill-rule="evenodd" clip-rule="evenodd" fill="#FFFFFF" d="M127.555,121.156c-1.217,2.348-2.163,4.169-3.106,5.992
		c-0.783,1.514-2.851,2.295-4.347,1.706c-0.601-0.236-0.497-0.689-0.602-1.142c-0.426-1.856-0.568-3.735-0.431-6.161
		c-1.225,2.033-1.258,3.905-1.854,5.585c-0.486,1.37-3.778,2.518-4.847,1.619c-0.503-0.424-0.142-0.912-0.022-1.306
		c1.572-5.178,3.231-10.329,4.755-15.521c0.495-1.687,1.729-1.095,2.716-1.114c3.463-0.068,3.469-0.03,3.492,3.382
		c0.012,1.753,0.002,3.506,0.364,5.381c1.2-2.535,2.384-5.079,3.606-7.604c0.507-1.047,5.349-1.813,5.983-0.923
		c0.229,0.321,0.173,0.91,0.119,1.362c-0.606,5.065-1.16,10.14-1.895,15.188c-0.353,2.417-2.4,1.03-3.653,1.213
		c-1.365,0.199-0.792-0.899-0.757-1.649C127.164,125.34,127.926,123.583,127.555,121.156z"/>
	<path fill-rule="evenodd" clip-rule="evenodd" fill="#FFFFFF" d="M156.886,128.878c-4.427,0.003-4.416,0.005-3.472-4.354
		c0.86-3.97,1.801-7.927,2.488-11.927c0.273-1.592,0.96-1.91,2.368-1.83c1.751,0.101,3.513,0.05,5.269,0.018
		c1.854-0.034,3.701,0.198,4.359,2.176c0.673,2.02,0.189,4.003-1.548,5.405c-0.762,0.615-1.189,0.727-0.226,1.747
		c2.199,2.327,0.707,6.561-2.64,8.002C161.365,129.028,159.115,128.884,156.886,128.878z M161.747,122.905
		c0.065-1.18-0.62-1.375-1.512-1.471c-1.714-0.185-1.617,1.099-1.863,2.151c-0.232,0.995,0.218,1.223,1.122,1.218
		C160.873,124.795,161.482,124.023,161.747,122.905z M163.188,115.736c-0.237-1.001-1.029-1.002-1.848-1.015
		c-1.427-0.021-1.368,1.095-1.488,1.99c-0.174,1.29,0.868,0.834,1.455,0.852C162.479,117.6,162.938,116.783,163.188,115.736z"/>
	<path fill-rule="evenodd" clip-rule="evenodd" fill="#FFFFFF" d="M8.538,128.88c-4.93,0-4.919,0.003-3.968-4.355
		c0.882-4.043,1.823-8.077,2.558-12.147c0.249-1.378,0.827-1.656,2.05-1.605c1.912,0.078,3.829,0.038,5.744,0.016
		c1.776-0.02,3.471,0.279,4.143,2.144c0.666,1.852,0.363,3.819-1.186,5.042c-1.357,1.07-0.98,1.527-0.15,2.688
		c1.779,2.485-0.305,6.668-3.718,7.728C12.082,128.986,10.074,128.927,8.538,128.88z M9.601,123.235
		c-0.098,0.827-0.328,1.543,0.86,1.57c1.318,0.03,2.142-0.506,2.433-1.761c0.231-0.997-0.333-1.448-1.267-1.597
		C10.108,121.207,9.664,122.08,9.601,123.235z M12.219,117.583c1.284,0.089,1.969-0.609,2.047-1.788
		c0.065-0.976-0.747-1.012-1.496-1.079c-1.507-0.137-1.616,0.909-1.762,1.966C10.863,117.736,11.616,117.557,12.219,117.583z"/>
	<path fill-rule="evenodd" clip-rule="evenodd" fill="#FFFFFF" d="M151.804,117.349c-0.07,5.732-2.896,10.089-7.384,11.381
		c-6.586,1.897-10.641-1.851-9.237-8.538c1.186-5.655,4.009-8.767,8.675-9.561C149.033,109.751,151.868,112.147,151.804,117.349z
		 M146.559,117.208c-0.173-0.847,0.456-2.298-1.13-2.797c-1.543-0.485-2.567,0.408-3.354,1.62c-1.202,1.849-1.603,3.964-1.868,6.089
		c-0.146,1.165-0.238,2.557,1.213,3.027c1.49,0.484,2.616-0.282,3.371-1.569C145.896,121.693,146.391,119.626,146.559,117.208z"/>
	<path fill-rule="evenodd" clip-rule="evenodd" fill="#FFFFFF" d="M26.354,121.454c-0.532,2.33-0.985,4.164-1.363,6.014
		c-0.537,2.625-2.57,1.247-3.884,1.328c-1.751,0.107-0.864-1.341-0.711-2.093c0.968-4.765,2.082-9.5,3.001-14.273
		c0.251-1.304,0.72-1.733,2.007-1.662c1.913,0.107,3.838-0.025,5.75,0.089c2.039,0.122,4.078,0.485,4.772,2.837
		c0.649,2.199-0.461,5.034-2.383,6.362c-0.584,0.403-1.235,0.708-1.908,1.088c1.082,1.979,1.51,4.16,2.067,6.307
		c0.271,1.043,0.107,1.519-1.044,1.437c-0.557-0.04-1.13-0.081-1.675,0.008c-1.853,0.303-2.724-0.354-2.949-2.313
		C27.853,124.991,27.914,123.23,26.354,121.454z M30.688,115.972c-0.018-0.911-0.692-1.144-1.545-1.249
		c-1.845-0.229-1.622,1.194-1.928,2.274c-0.269,0.95,0.18,1.067,0.926,1.064C29.501,118.055,30.357,117.429,30.688,115.972z"/>
	<path fill-rule="evenodd" clip-rule="evenodd" fill="#FFFFFF" d="M211.572,128.759c3.058-5.742,5.958-11.217,8.895-16.672
		c0.496-0.919,0.983-1.759,0.272-2.774c-0.583-0.832-0.161-1.236,0.631-1.602c1.445-0.665,2.862-1.396,4.265-2.149
		c0.854-0.46,1.339-0.278,1.516,0.676c0.146,0.791,1.373,1.688-0.232,2.31c-1.608,0.622-3.211,1.257-4.937,1.934
		c0.258,0.169,0.354,0.286,0.453,0.289c3.653,0.089,3.668,0.086,4.004,3.778c0.376,4.13,0.739,8.262,1.069,12.396
		c0.07,0.88,0.427,2.206-1.192,1.892c-1.319-0.257-3.596,1.319-3.691-1.705c-0.023-0.737,0.157-1.814-1.05-1.757
		c-1.123,0.053-2.384-0.583-3.354,0.567C215.625,129.016,215.615,129.007,211.572,128.759z M222.146,117.998
		c-0.997,1.479-1.596,2.411-1.568,3.604c0.001,0.048,0.87,0.262,1.086,0.088C222.759,120.812,222.141,119.694,222.146,117.998z"/>
	<path fill-rule="evenodd" clip-rule="evenodd" fill="#FFFFFF" d="M55.791,129.124c-0.95-0.102-1.921-0.107-2.846-0.319
		c-3.427-0.786-3.633-1.496-1.519-4.21c0.596-0.765,1.034-0.702,1.77-0.344c1.451,0.708,2.983,1.191,4.623,0.834
		c0.796-0.173,1.561-0.547,1.691-1.479c0.156-1.12-0.784-1.225-1.522-1.481c-0.301-0.104-0.605-0.208-0.915-0.277
		c-1.971-0.439-3.759-1.241-4.19-3.409c-0.458-2.3,0.509-4.24,2.215-5.772c2.705-2.429,7.903-2.937,11.074-1.17
		c0.742,0.414,1.205,0.772,0.402,1.572c-1.192,1.187-1.962,3.352-4.295,1.643c-0.34-0.249-0.931-0.214-1.405-0.211
		c-0.959,0.006-2.087-0.035-2.284,1.203c-0.193,1.218,0.947,1.269,1.748,1.548c0.226,0.079,0.453,0.157,0.685,0.216
		c1.817,0.459,3.728,0.968,4.184,3.072c0.535,2.469-0.488,4.588-2.308,6.218C60.904,128.543,58.471,129.231,55.791,129.124z"/>
	<path fill-rule="evenodd" clip-rule="evenodd" fill="#FFFFFF" d="M100.114,110.86c2.137-0.552,2.657,0.408,2.768,2.443
		c0.246,4.53,0.826,9.042,1.21,13.566c0.071,0.829,0.536,2.27-1.109,1.946c-1.306-0.256-3.574,1.479-3.789-1.585
		c-0.052-0.754,0.152-1.972-1.229-1.879c-1.245,0.084-2.718-0.624-3.521,1.166c-0.411,0.915-0.506,2.378-2.02,2.335
		c-1.314-0.037-3.05,0.635-3.816-0.359c-0.542-0.704,0.773-2.06,1.315-3.091c2.182-4.156,4.454-8.267,6.586-12.447
		C97.306,111.394,98.17,110.273,100.114,110.86z M98.866,118.191c-0.151-0.049-0.301-0.099-0.452-0.148
		c-0.375,0.839-0.748,1.678-1.124,2.515c-0.226,0.504-0.613,1.062,0.367,1.179c0.703,0.084,1.263-0.001,1.217-0.942
		C98.833,119.929,98.866,119.06,98.866,118.191z"/>
	<path fill-rule="evenodd" clip-rule="evenodd" fill="#FFFFFF" d="M50.724,110.792c-0.827,3.935-0.827,3.915-4.479,3.99
		c-0.665,0.014-1.544-0.392-1.957,0.39c-0.321,0.607-0.602,1.452-0.424,2.05c0.2,0.67,1.143,0.153,1.691,0.367
		c0.792,0.309,2.395-0.916,2.316,0.949c-0.063,1.493-0.188,3.262-2.652,2.887c-0.77-0.117-1.908-0.62-2.492,0.615
		c-0.989,2.095-0.591,2.719,1.788,2.728c0.399,0.002,0.831-0.1,1.189,0.021c0.797,0.268,2.42-0.825,2.242,1.044
		c-0.133,1.396,0.107,3.323-2.478,3.091c-2.294-0.205-4.624-0.103-6.934-0.022c-1.5,0.052-2.113-0.15-1.678-1.958
		c1.153-4.794,2.076-9.644,3.046-14.48c0.233-1.162,0.633-1.766,2.005-1.707C44.771,110.878,47.642,110.792,50.724,110.792z"/>
	<path fill-rule="evenodd" clip-rule="evenodd" fill="#FFFFFF" d="M82.431,111.89c-1.173,1.705-1.954,3.642-4.758,2.438
		c-1.38-0.593-2.688,0.651-3.427,2.015c-0.965,1.782-1.412,3.709-1.448,5.729c-0.05,2.828,1.321,3.842,3.943,2.645
		c1.403-0.64,1.838-0.307,2.4,0.962c0.584,1.318,0.356,1.964-0.951,2.541c-2.136,0.943-4.352,1.091-6.553,0.665
		c-1.872-0.362-3.282-1.521-3.979-3.425c-2.235-6.103,2.753-14.319,9.165-14.938C78.796,110.33,80.8,110.442,82.431,111.89z"/>
	<path fill-rule="evenodd" clip-rule="evenodd" fill="#FFFFFF" d="M215.486,110.792c-0.451,2.533-0.933,4.601-3.989,3.99
		c-1.34-0.268-1.529,0.764-1.736,1.745c-0.759,3.589-1.624,7.157-2.285,10.763c-0.521,2.832-2.642,1.483-3.985,1.491
		c-1.835,0.012-0.808-1.501-0.649-2.321c0.619-3.209,1.339-6.399,2.052-9.59c0.313-1.395,0.235-2.32-1.624-2.153
		c-0.648,0.059-2.158,0.629-1.852-0.828c0.233-1.106-0.501-3.163,1.957-3.116C207.364,110.848,211.356,110.792,215.486,110.792z"/>
	<path fill-rule="evenodd" clip-rule="evenodd" fill="#FFFFFF" d="M183.008,128.88c-5.148,0.001-5.14,0.003-4.046-5.067
		c0.823-3.813,1.623-7.631,2.43-11.446c0.14-0.665-0.034-1.565,1.044-1.557c1.266,0.011,2.571-0.077,3.774,0.222
		c0.477,0.119,0.034,1.152-0.084,1.729c-0.667,3.275-1.324,6.556-2.146,9.793c-0.465,1.829,0.003,2.531,1.882,2.221
		c0.232-0.038,0.502-0.071,0.713,0.007c0.887,0.325,2.691-0.731,2.57,0.71c-0.119,1.409-0.395,3.701-3.027,3.408
		C185.094,128.785,184.045,128.88,183.008,128.88z"/>
	<path fill-rule="evenodd" clip-rule="evenodd" fill="#FFFFFF" d="M110.736,46.087c1.149-2.607,2.177-4.924,3.191-7.249
		c0.286-0.655,0.669-1.001,1.465-0.864c3.611,0.624,7.289,0.942,10.741,2.291c0.717,0.28,1.656,0.53,1.693,1.491
		c0.042,1.105-0.978,1.41-1.769,1.677C121.194,45.075,116.146,45.644,110.736,46.087z"/>
	<path fill-rule="evenodd" clip-rule="evenodd" fill="#FFFFFF" d="M87.678,110.815c2.133-0.493,2.474,0.37,2.036,2.249
		c-1.066,4.576-1.978,9.188-2.968,13.781c-0.374,1.734-3.403,2.914-4.82,1.905c-0.616-0.438-0.311-1.03-0.208-1.524
		c1.063-5.067,2.232-10.114,3.214-15.197C85.325,110.002,86.778,111.128,87.678,110.815z"/>
	<path fill-rule="evenodd" clip-rule="evenodd" fill="#FFFFFF" d="M175.086,110.855c2.197-0.582,2.359,0.489,1.968,2.23
		c-1.031,4.584-1.972,9.189-2.965,13.782c-0.374,1.728-3.468,2.923-4.819,1.862c-0.642-0.503-0.271-1.18-0.147-1.764
		c0.967-4.598,2.055-9.172,2.902-13.791C172.379,111.244,173.104,110.321,175.086,110.855z"/>
	<path fill-rule="evenodd" clip-rule="evenodd" fill="#FFFFFF" d="M197.356,110.793c1.888-0.504,2.17,0.422,1.748,2.247
		c-1.076,4.658-2.013,9.349-3.045,14.018c-0.406,1.837-1.9,2.478-4.251,1.788c-1.707-0.5-0.596-1.718-0.437-2.544
		c0.824-4.305,1.761-8.589,2.653-12.881C194.573,110.788,194.569,110.787,197.356,110.793z"/>
</g>
</svg>
