<?xml version="1.0" encoding="utf-8"?>
<!-- Generator: Adobe Illustrator 16.0.3, SVG Export Plug-In . SVG Version: 6.00 Build 0)  -->
<!DOCTYPE svg PUBLIC "-//W3C//DTD SVG 1.1//EN" "http://www.w3.org/Graphics/SVG/1.1/DTD/svg11.dtd">
<svg version="1.1" id="Ebene_1" xmlns="http://www.w3.org/2000/svg" xmlns:xlink="http://www.w3.org/1999/xlink" x="0px" y="0px"
	 width="228px" height="54px" viewBox="0 0 228 54" enable-background="new 0 0 228 54" xml:space="preserve">
<path fill-rule="evenodd" clip-rule="evenodd" fill="#FFFFFF" d="M66.136,20.074c-0.369,0.729-0.68,1.392-1.044,2.024
	c-0.08,0.138-0.344,0.224-0.531,0.237c-1.253,0.092-2.508,0.159-3.763,0.233c-4.458,0.261-7.614,3.067-8.326,7.483
	c-0.194,1.202-0.235,2.434-0.29,3.654c-0.205,4.527-1.691,8.482-5.146,11.554c-2.477,2.202-5.423,3.458-8.626,4.16
	c-2.898,0.636-5.837,0.825-8.801,0.816c-8.376-0.022-16.753-0.007-25.13-0.007c-0.211,0-0.422,0-0.731,0
	c0.378-0.784,0.711-1.515,1.094-2.221c0.058-0.107,0.339-0.129,0.518-0.13c3.282-0.007,6.564-0.013,9.846-0.003
	c3.29,0.01,6.503-0.411,9.596-1.587c3.015-1.146,5.386-3.101,7.395-5.6c2.892-3.598,5.16-7.566,7.241-11.661
	c1.042-2.05,2.126-4.078,3.179-6.122c0.157-0.306,0.352-0.458,0.704-0.493c5.178-0.524,10.354-1.059,15.53-1.596
	c2.336-0.242,4.671-0.495,7.007-0.742C65.923,20.068,65.988,20.074,66.136,20.074z"/>
<path fill-rule="evenodd" clip-rule="evenodd" fill="#FFFFFF" d="M20.021,18.124c0.051-0.128,0.087-0.25,0.145-0.361
	c0.842-1.657,1.691-3.311,2.531-4.969c2.703-5.335,7.08-8.392,12.9-9.49c2.415-0.455,4.852-0.603,7.305-0.601
	C53.372,2.711,63.84,2.707,74.309,2.707c0.176,0,0.352,0,0.619,0c-0.394,0.778-0.735,1.494-1.125,2.182
	C73.74,5,73.463,5.028,73.285,5.028C69.61,5.036,65.935,5.012,62.26,5.04c-3.511,0.027-7.015,0.191-10.486,0.769
	c-2.714,0.452-5.349,1.155-7.817,2.41c-3.342,1.7-5.85,4.282-7.844,7.406c-0.465,0.729-0.872,1.494-1.333,2.224
	c-0.093,0.147-0.313,0.304-0.475,0.304c-4.704,0.016-9.407,0.012-14.111,0.01C20.148,18.162,20.102,18.143,20.021,18.124z"/>
<path fill-rule="evenodd" clip-rule="evenodd" fill="#FFFFFF" d="M5.805,46.165c0.261-0.52,0.487-0.968,0.713-1.417
	c3.218-6.357,6.438-12.713,9.645-19.075c0.175-0.346,0.381-0.492,0.776-0.529c2.759-0.262,5.516-0.556,8.274-0.837
	c2.012-0.206,4.023-0.41,6.036-0.611c0.157-0.015,0.317-0.002,0.524-0.002c-0.053,0.132-0.08,0.222-0.123,0.304
	c-2.658,5.058-5.49,10.013-8.784,14.689c-1.584,2.25-3.47,4.202-5.93,5.523c-1.942,1.043-4.041,1.562-6.214,1.759
	c-1.493,0.135-2.997,0.153-4.496,0.221C6.116,46.197,6.003,46.178,5.805,46.165z"/>
<path fill-rule="evenodd" clip-rule="evenodd" fill="#FFFFFF" d="M45.211,18.136c1.946-3.508,4.114-6.692,7.796-8.5
	c2.1-1.031,4.331-1.623,6.62-2.004c4.245-0.707,8.532-0.874,12.826-0.908c0.112-0.001,0.223,0.014,0.382,0.025
	c-0.054,0.144-0.085,0.266-0.141,0.374c-1.806,3.564-3.616,7.124-5.414,10.692c-0.139,0.275-0.302,0.367-0.602,0.367
	c-7.021-0.009-14.042-0.009-21.063-0.013C45.506,18.169,45.396,18.152,45.211,18.136z"/>
<path fill-rule="evenodd" clip-rule="evenodd" fill="#FFFFFF" d="M216.909,20.314c1.354,0,2.856,0,4.423,0
	c0.076,1.255,0.163,2.487,0.226,3.719c0.219,4.35,0.419,8.7,0.656,13.048c0.033,0.607-0.099,0.828-0.744,0.796
	c-1.094-0.054-2.19-0.015-3.409-0.015c0-1.115,0.009-2.166-0.003-3.217c-0.008-0.791-0.02-0.792-0.829-0.793
	c-2.423-0.001-4.845,0.007-7.269-0.006c-0.4-0.003-0.681,0.112-0.938,0.434c-0.85,1.065-1.715,2.121-2.615,3.145
	c-0.196,0.223-0.559,0.403-0.854,0.417c-1.071,0.049-2.146,0.02-3.382,0.02c0.269-0.322,0.441-0.535,0.62-0.742
	c4.319-5.009,8.647-10.014,12.954-15.036C216.17,21.59,216.471,20.99,216.909,20.314z M217.85,31.026c0-2.414,0-4.771,0-7.128
	c-0.06-0.018-0.12-0.035-0.181-0.053c-1.954,2.36-3.909,4.72-5.947,7.181C213.882,31.026,215.868,31.026,217.85,31.026z"/>
<path fill-rule="evenodd" clip-rule="evenodd" fill="#FFFFFF" d="M170.896,20.314c1.363,0,2.864,0,4.427,0
	c0.3,5.824,0.599,11.625,0.9,17.469c-1.392,0-2.706,0-4.156,0c0-1.29,0-2.599,0-3.983c-0.352,0-0.57,0-0.789,0
	c-2.422,0-4.845,0.012-7.267-0.011c-0.459-0.004-0.751,0.147-1.027,0.498c-0.73,0.928-1.541,1.795-2.23,2.75
	c-0.461,0.635-0.979,0.859-1.742,0.802c-0.888-0.065-1.784-0.014-2.789-0.014c0.172-0.229,0.277-0.388,0.402-0.532
	c4.373-5.073,8.752-10.139,13.113-15.222C170.161,21.577,170.463,20.979,170.896,20.314z M171.84,23.917
	c-0.063-0.028-0.127-0.055-0.19-0.083c-1.954,2.358-3.907,4.717-5.968,7.204c2.029,0,3.841-0.019,5.651,0.012
	c0.532,0.009,0.646-0.184,0.63-0.672c-0.061-1.872-0.085-3.746-0.122-5.619C171.835,24.478,171.84,24.197,171.84,23.917z"/>
<path fill-rule="evenodd" clip-rule="evenodd" fill="#FFFFFF" d="M152.737,22.961c-2.552,0.231-4.974-0.31-7.375,0.388
	c0.447-0.915,0.905-1.877,1.392-2.824c0.063-0.123,0.282-0.235,0.431-0.235c5.7-0.009,11.4-0.004,17.102,0.001
	c0.034,0,0.069,0.031,0.177,0.083c-0.499,1.035-0.997,2.068-1.547,3.206c-0.489-0.707-1.181-0.57-1.835-0.573
	c-1.099-0.006-2.199,0.02-3.298-0.012c-0.437-0.013-0.643,0.15-0.828,0.533c-2.217,4.573-4.459,9.134-6.675,13.708
	c-0.206,0.425-0.425,0.605-0.914,0.585c-1.057-0.043-2.117-0.012-3.176-0.015c-0.195-0.001-0.391-0.019-0.676-0.034
	C147.916,32.851,150.28,28.001,152.737,22.961z"/>
<path fill-rule="evenodd" clip-rule="evenodd" fill="#FFFFFF" d="M184.103,35.12c2.939-0.189,5.728,0.238,8.563-0.301
	c-0.333,0.686-0.733,1.377-1.01,2.114c-0.26,0.697-0.65,0.907-1.399,0.898c-3.724-0.046-7.45-0.021-11.176-0.021
	c-0.222,0-0.443,0-0.771,0c0.124-0.287,0.209-0.501,0.312-0.708c2.464-5.061,4.938-10.118,7.39-15.186
	c0.23-0.478,0.328-1.021,0.515-1.62c1.451,0,3.047,0,4.762,0C188.903,25.216,186.543,30.084,184.103,35.12z"/>
<path fill-rule="evenodd" clip-rule="evenodd" fill="#FFFFFF" d="M193.479,37.811c0.611-1.266,1.165-2.416,1.723-3.564
	c1.914-3.931,3.836-7.856,5.732-11.795c0.318-0.66,0.533-1.371,0.834-2.158c1.43,0,3.028,0,4.709,0
	c-0.095,0.225-0.168,0.425-0.261,0.616c-2.645,5.429-5.298,10.854-7.926,16.291c-0.23,0.477-0.495,0.64-1.018,0.622
	C196.054,37.782,194.833,37.811,193.479,37.811z"/>
<path fill-rule="evenodd" clip-rule="evenodd" fill="#FFFFFF" d="M143.454,20.294c-0.117,0.264-0.192,0.448-0.278,0.626
	c-2.643,5.426-5.295,10.848-7.918,16.283c-0.233,0.482-0.498,0.636-1.016,0.62c-1.217-0.039-2.435-0.012-3.779-0.012
	c0.145-0.315,0.243-0.545,0.353-0.771c2.455-5.042,4.916-10.082,7.354-15.132c0.229-0.473,0.312-1.017,0.488-1.613
	C140.127,20.294,141.742,20.294,143.454,20.294z"/>
<g>
	<path fill="#FFFFFF" d="M91.018,24.17c0.157-2.083-0.55-3.538-2.461-3.988c-0.461-0.108-0.944-0.147-1.418-0.149
		c-2.629-0.014-5.258-0.007-7.888-0.006c-0.154,0-0.308,0.018-0.327,0.019c-0.162,0.584-0.242,1.112-0.448,1.574
		c-2.028,4.559-4.076,9.106-6.118,13.657c-0.001,0-0.015,0.001-0.015,0.001l-1.156,2.473h14.344c0,0,4.531-0.068,4.719-4.777
		c0,0,0.292-2.563-1.833-4.031C89.771,28.018,90.869,26.158,91.018,24.17z M81.203,24.208c0.418-1.341,1.134-1.89,2.448-1.672
		c0.776,0.129,1.583,0.004,2.374,0.055c0.977,0.064,1.434,0.77,1.217,1.811c-0.314,1.509-1.283,2.4-2.598,2.56
		c-1.508,0.184-3.049,0.043-4.672,0.043C80.397,26.057,80.903,25.17,81.203,24.208z M82.906,35.107c0,0-4.273,0.056-6.598,0.071
		c0.753-1.704,1.519-3.401,2.271-5.104c0.138-0.311,0.298-0.462,0.638-0.456c1.111,0.023,2.223,0.019,3.335,0.003
		c0,0,1.061,0.032,2.239,0.005c0.833,0.376,1.371,1.395,1.396,2.432C86.188,32.059,86.875,34.633,82.906,35.107z"/>
</g>
<path fill="#FFFFFF" d="M99.188,20.25h3.938c0,0-6.313,9.813-5.75,12.813c0,0,0.25,1.875,3.125,2.125c0,0,2.75-0.063,4.813-3.063
	c0,0,5.688-8.5,6.438-12h4.375c0,0-6.594,15.375-11.375,17.063c0,0-4.438,2.25-9.063-0.688c0,0-3.188-1.875-1.531-6.5
	C94.156,30,96.469,24.031,99.188,20.25z"/>
<g>
	<path fill="#FFFFFF" d="M114.764,33.866c1.053,0.588,3.01,1.33,4.872,1.504c2.678,0.251,4.515-0.835,4.654-2.323
		c0.124-1.315-0.613-2.188-2.912-3.38c-2.577-1.324-3.918-2.952-3.759-4.647c0.275-2.942,3.974-4.865,8.848-4.408
		c2.104,0.197,3.929,0.786,4.75,1.282l-1.303,2.079c-0.782-0.423-2.223-0.978-3.943-1.139c-2.39-0.224-4.212,0.688-4.349,2.141
		c-0.113,1.212,0.915,2.076,2.891,3.1c2.482,1.314,4.114,2.935,3.939,4.803c-0.332,3.532-4.483,5.133-9.357,4.676
		c-2.487-0.233-4.634-0.994-5.629-1.681L114.764,33.866z"/>
</g>
</svg>
