<?xml version="1.0" encoding="utf-8"?>
<!-- Generator: Adobe Illustrator 16.0.3, SVG Export Plug-In . SVG Version: 6.00 Build 0)  -->
<!DOCTYPE svg PUBLIC "-//W3C//DTD SVG 1.1//EN" "http://www.w3.org/Graphics/SVG/1.1/DTD/svg11.dtd">
<svg version="1.1" id="Ebene_1" xmlns="http://www.w3.org/2000/svg" xmlns:xlink="http://www.w3.org/1999/xlink" x="0px" y="0px"
	 width="161.992px" height="70.497px" viewBox="0 0 161.992 70.497" enable-background="new 0 0 161.992 70.497"
	 xml:space="preserve">
<path fill-rule="evenodd" clip-rule="evenodd" fill="#FFFFFF" d="M32.826,65.482C45.765,61.666,53.38,52.668,57.264,40.14
	c0.673-2.171,1.75-4.427,0.557-7.028C51.103,47.73,43.667,50.865,33.461,53.134c-12.383,2.753-19.485-2.659-20.542-14.911
	c-9.774,6.883-8.923,21.174,1.548,26.514C14.467,64.736,21.523,68.369,32.826,65.482z"/>
<path fill-rule="evenodd" clip-rule="evenodd" fill="#FFFFFF" d="M46.601,21.604c-11.21-2.973-20.433,0.954-28.56,8.621
	c-1.033-8.428,4.368-16.727,12.922-20.337c8.749-3.692,18.016-1.811,23.129,4.727c1.887,2.412,2.974,5.16,3.204,8.227
	c0.948,12.677-12.494,24.515-24.976,21.997c-7.451-1.502-9.61-7.418-4.735-13.268c3.519-4.222,8.296-6.533,13.42-8.2
	C42.865,22.765,44.735,22.191,46.601,21.604z"/>
<path fill-rule="evenodd" clip-rule="evenodd" fill="#FFFFFF" d="M72.878,37.346c-0.196,5.434,0.495,10.406,2.499,15.098
	c1.508,3.529,3.92,5.721,8.087,5.191c4.128-0.525,5.319-3.523,5.77-6.984c0.457-3.513,1.225-4.426,4.436-3.908
	c3.162,0.51,2.644,3.117,2.443,4.838c-0.746,6.391-4.858,10.926-10.338,11.947c-7.391,1.379-13.999-0.826-16.722-6.878
	c-5.727-12.729-5.828-25.86,0.074-38.561c2.89-6.22,9.719-8.546,16.603-6.915c6.235,1.478,10.11,6.126,10.542,12.844
	c0.12,1.87,0.759,4.208-2.453,4.385c-2.437,0.134-4.242-0.215-4.409-3.26c-0.24-4.376-1.892-8.116-6.84-8.289
	c-5.16-0.181-6.861,3.957-8.125,8.064C73.157,29.102,72.669,33.412,72.878,37.346z"/>
<path fill-rule="evenodd" clip-rule="evenodd" fill="#FFFFFF" d="M112.982,50.597c-5.438,0.021-6.948,2.062-7.8,6.636
	c-0.24,1.289-0.583,2.592-0.969,3.863c-0.83,2.74-3.143,2.107-4.998,1.904c-2.674-0.294-1.745-2.189-1.341-3.791
	c3.658-14.504,7.318-29.007,10.931-43.523c0.601-2.414,1.23-4.323,4.438-4.245c3.187,0.078,3.681,1.992,4.287,4.426
	c3.533,14.193,7.224,28.347,10.722,42.549c0.38,1.544,2.344,4.087-1.278,4.638c-2.463,0.375-4.743,0.146-5.148-3.09
	c-0.082-0.654-0.337-1.307-0.476-1.933C120.199,52.859,118.712,50.367,112.982,50.597z M113.682,27.495
	c-0.116-0.258-0.317-1.974-0.476-1.993c-0.157-0.019-0.281,1.156-0.47,1.882c-1.305,5.119-2.576,10.247-3.936,15.351
	c-0.375,1.406-0.55,2.93,0.906,3.443c2.194,0.771,4.646,0.721,6.856,0.055c1.539-0.464,1.255-2.07,0.917-3.419
	C116.2,37.711,114.946,32.602,113.682,27.495z"/>
<path fill-rule="evenodd" clip-rule="evenodd" fill="#FFFFFF" d="M132.131,37.424c0-7.319,0.094-14.641-0.044-21.958
	c-0.058-3.031,1.029-4.183,4.083-3.999c3.481,0.21,6.985,0.015,10.478,0.064c5.094,0.073,8.518,2.654,10.139,7.376
	c1.788,5.208,1.639,10.498-0.519,15.582c-2.24,5.278-6.578,7.354-12.069,6.858c-4.011-0.363-5.343,1.164-5.082,5.092
	c0.286,4.307-0.028,8.649,0.096,12.971c0.082,2.871-1.24,3.738-3.928,3.762c-2.84,0.023-3.213-1.457-3.186-3.788
	C132.186,52.064,132.13,44.744,132.131,37.424z M138.899,26.033c0,1.995,0.15,3.815,0.249,5.986c0.126,2.795,0.605,3.713,3.53,3.744
	c4.312,0.045,6.448-2.188,7.501-5.877c1.438-5.041-0.132-10.53-3.298-12.147c-4.62-2.36-8.032-0.458-8.044,4.794
	C138.834,23.697,138.898,24.87,138.899,26.033z"/>
</svg>
