<?xml version="1.0" encoding="utf-8"?>
<!-- Generator: Adobe Illustrator 16.0.3, SVG Export Plug-In . SVG Version: 6.00 Build 0)  -->
<!DOCTYPE svg PUBLIC "-//W3C//DTD SVG 1.1//EN" "http://www.w3.org/Graphics/SVG/1.1/DTD/svg11.dtd">
<svg version="1.1" id="Ebene_1" xmlns="http://www.w3.org/2000/svg" xmlns:xlink="http://www.w3.org/1999/xlink" x="0px" y="0px"
	 width="284.986px" height="155.991px" viewBox="0 0 284.986 155.991" enable-background="new 0 0 284.986 155.991"
	 xml:space="preserve">
<g>
	<path fill="#FFFFFF" d="M177.281,22.159c21.551,0,39.084,17.533,39.084,39.084s-17.533,39.084-39.084,39.084
		s-39.084-17.533-39.084-39.084S155.73,22.159,177.281,22.159 M177.281,13.159c-26.556,0-48.084,21.528-48.084,48.084
		s21.528,48.084,48.084,48.084s48.084-21.528,48.084-48.084S203.836,13.159,177.281,13.159L177.281,13.159z"/>
</g>
<rect x="6.406" y="57.91" fill="#FFFFFF" width="213.333" height="6.667"/>
<circle fill="#FFFFFF" cx="35.281" cy="61.244" r="15.125"/>
<circle fill="#FFFFFF" cx="89.281" cy="61.244" r="15.125"/>
<circle fill="#FFFFFF" cx="177.281" cy="61.244" r="15.125"/>
<g>
	<path fill-rule="evenodd" clip-rule="evenodd" fill="#FFFFFF" d="M233.878,127.514c6.68-3.145,10.732-0.609,11.158,6.342
		c0.179,2.91-0.397,5.592-1.603,8.174c-1.183,2.537-4.586,3.349-7.862,1.988c-0.573-0.238-0.779-1.041-1.803-0.652
		c-4.386,1.664-4.406,1.599-4.398-3.021c0.01-6.482,0.048-12.966-0.006-19.448c-0.016-1.819,0.113-3.143,2.487-3.133
		c2.455,0.01,2.024,1.613,2.026,3.071C233.881,122.953,233.878,125.07,233.878,127.514z M240.492,135.877
		c0-0.887,0.016-1.386-0.004-1.884c-0.082-2.207-0.332-4.501-3.145-4.632c-2.749-0.129-2.881,2.229-3.239,4.189
		c-0.09,0.489-0.135,0.99-0.157,1.487c-0.182,3.97,1.227,6.649,3.537,6.313C241.008,140.838,240.319,137.881,240.492,135.877z"/>
	<path fill-rule="evenodd" clip-rule="evenodd" fill="#FFFFFF" d="M130.937,132.082c-0.004,6.909,3.024,9.586,9.763,8.471
		c1.063-0.176,1.864-0.688,1.928,0.94c0.047,1.195,0.61,2.369-1.19,2.999c-6.338,2.219-13.295-1.457-14.994-7.959
		c-0.811-3.104-0.777-6.149,0.058-9.215c1.731-6.361,8.728-9.879,14.835-7.559c1.64,0.623,1.421,1.697,1.29,2.998
		c-0.212,2.115-1.298,1.017-2.303,0.797C134.291,122.238,130.941,125.305,130.937,132.082z"/>
	<path fill-rule="evenodd" clip-rule="evenodd" fill="#FFFFFF" d="M163.265,135.435c-0.001-2.247,0.229-4.523-0.059-6.733
		c-0.367-2.826,1.915-3.361,2.969-2.387c2.037,1.884,3.124,0.313,4.658-0.248c2.914-1.063,6.024,0.511,6.628,3.598
		c0.864,4.422,0.309,8.938,0.377,13.414c0.028,1.85-1.405,1.31-2.427,1.393c-1.234,0.101-2.199-0.025-2.159-1.703
		c0.076-3.243,0.085-6.491-0.013-9.733c-0.049-1.602-0.122-3.513-2.454-3.428c-1.966,0.071-2.813,1.592-2.9,3.303
		c-0.159,3.112-0.193,6.243-0.047,9.355c0.089,1.896-0.636,2.239-2.352,2.27c-1.858,0.034-2.36-0.608-2.255-2.362
		C163.369,139.934,163.265,137.682,163.265,135.435z"/>
	<path fill-rule="evenodd" clip-rule="evenodd" fill="#FFFFFF" d="M160.386,135.279c0.017,6.264-2.666,9.465-7.965,9.504
		c-5.291,0.039-8.055-3.188-8.05-9.402c0.005-6.156,2.821-9.563,7.962-9.635C157.402,125.677,160.369,129.189,160.386,135.279z
		 M155.708,136.031c0-1.497,0.097-2.137-0.019-2.734c-0.377-1.963-0.684-4.139-3.388-4.057c-2.655,0.08-2.906,2.262-3.262,4.222
		c-0.109,0.603-0.077,1.241-0.039,1.858c0.158,2.539-0.338,5.965,3.265,6.012C156.175,141.381,155.453,137.736,155.708,136.031z"/>
	<path fill-rule="evenodd" clip-rule="evenodd" fill="#FFFFFF" d="M225.696,135.275c-0.011,5.707-2.129,8.769-6.478,9.365
		c-5.494,0.755-9.08-2.021-9.521-7.371c-0.584-7.077,2.111-11.182,7.558-11.512C222.442,125.444,225.708,129.127,225.696,135.275z
		 M220.994,135.301c0.022,0,0.045-0.001,0.067-0.001c-0.045-0.866,0.026-1.757-0.157-2.593c-0.384-1.732-0.914-3.464-3.165-3.501
		c-2.245-0.036-2.957,1.663-3.265,3.391c-0.277,1.563-0.316,3.233-0.09,4.804c0.281,1.954,0.764,4.168,3.423,4.041
		c2.585-0.123,2.924-2.264,3.175-4.283C221.057,136.548,220.994,135.921,220.994,135.301z"/>
	<path fill-rule="evenodd" clip-rule="evenodd" fill="#FFFFFF" d="M194.417,140.432c0.881,2.643,0.021,3.687-2.382,4.088
		c-4.759,0.796-8.241-0.355-10.102-3.659c-2.166-3.847-1.521-9.946,1.444-12.903c2.508-2.499,5.441-2.842,8.546-1.267
		c2.431,1.232,4.367,6.218,3.697,8.823c-0.314,1.221-1.101,1.116-1.976,1.115c-2.115-0.005-4.233,0.089-6.345-0.006
		c-2.87-0.131-2.539,1.422-1.429,2.926C188.293,142.829,191.392,141.297,194.417,140.432z M188.216,134.018
		c1-0.156,2.897,0.848,2.876-1.75c-0.016-1.861-0.931-3.32-2.792-3.302c-2.059,0.022-3.043,1.773-3.065,3.604
		C185.208,134.69,186.904,133.893,188.216,134.018z"/>
	<path fill-rule="evenodd" clip-rule="evenodd" fill="#FFFFFF" d="M262.458,135.711c0,1.994,0.005,3.988-0.001,5.982
		c-0.008,2.731-1.837,4.036-3.728,2.292c-1.407-1.298-1.946-0.718-3.044-0.12c-3.654,1.988-7.276,0.278-7.587-3.809
		c-0.302-3.967-0.042-7.975-0.174-11.959c-0.063-1.91,1.01-1.846,2.363-1.898c1.63-0.064,2.209,0.58,2.172,2.169
		c-0.072,3.114-0.112,6.235,0.01,9.348c0.053,1.357-0.356,3.528,1.742,3.472c1.808-0.047,3.511-1.271,3.611-3.471
		c0.132-2.862,0.11-5.732,0.107-8.599c0-1.56-0.129-2.923,2.207-2.951c2.26-0.026,2.337,1.161,2.287,2.815
		c-0.066,2.24-0.017,4.485-0.017,6.729C262.425,135.711,262.442,135.711,262.458,135.711z"/>
	<path fill-rule="evenodd" clip-rule="evenodd" fill="#FFFFFF" d="M269.274,144.648c-0.693-0.064-1.563-0.123-2.427-0.23
		c-1.763-0.219-1.779-1.492-1.564-2.788c0.277-1.672,1.389-0.899,2.285-0.688c0.601,0.143,1.192,0.386,1.8,0.429
		c1.241,0.089,2.635,0.219,3.146-1.287c0.458-1.354-0.65-2.006-1.581-2.629c-1.237-0.83-2.577-1.523-3.74-2.441
		c-2.234-1.766-2.771-5.418-1.182-7.275c1.698-1.984,7.276-2.566,8.948-0.889c0.4,0.402,0.947,1.117,0.824,1.488
		c-0.281,0.848-1.047,1.161-2.067,1.16c-1.595-0.003-3.971-1.021-4.472,1.176c-0.468,2.051,1.811,2.594,3.389,3.475
		c2.432,1.355,5.138,2.896,4.244,6.434C275.893,144.477,272.673,144.649,269.274,144.648z"/>
	<path fill-rule="evenodd" clip-rule="evenodd" fill="#FFFFFF" d="M198.522,135.431c0-2.374,0.14-4.759-0.034-7.12
		c-0.239-3.246,2.945-2.541,3.285-1.938c1.267,2.24,2.033,1.003,3.227,0.171c0.773-0.539,1.895-1.205,2.777-0.52
		c0.838,0.65,0.385,1.875,0.428,2.85c0.059,1.299-0.87,1.179-1.775,1.264c-2.533,0.238-3.235,2.096-3.332,4.222
		c-0.112,2.494-0.074,4.999-0.006,7.497c0.046,1.661-0.02,2.727-2.305,2.711c-2.301-0.016-2.316-1.129-2.268-2.763
		c0.065-2.122,0.017-4.249,0.017-6.373C198.531,135.431,198.527,135.431,198.522,135.431z"/>
</g>
</svg>
