<?xml version="1.0" encoding="utf-8"?>
<!-- Generator: Adobe Illustrator 16.0.3, SVG Export Plug-In . SVG Version: 6.00 Build 0)  -->
<!DOCTYPE svg PUBLIC "-//W3C//DTD SVG 1.1//EN" "http://www.w3.org/Graphics/SVG/1.1/DTD/svg11.dtd">
<svg version="1.1" id="Ebene_1" xmlns="http://www.w3.org/2000/svg" xmlns:xlink="http://www.w3.org/1999/xlink" x="0px" y="0px"
	 width="344.667px" height="59.334px" viewBox="0 0 344.667 59.334" enable-background="new 0 0 344.667 59.334"
	 xml:space="preserve">
<path fill-rule="evenodd" clip-rule="evenodd" fill="#FFFFFF" d="M4.026,26.56c0.09-0.03,0.182-0.036,0.275-0.019
	c0.001,2.171,0.002,4.342,0.003,6.514l-0.14,0.008L4.026,33.04C4.026,30.88,4.026,28.72,4.026,26.56z"/>
<path fill-rule="evenodd" clip-rule="evenodd" fill="#FFFFFF" d="M158.645,56.089c-0.998-1.367-1.977-2.746-2.718-4.276
	c0.194-1.3-1.181-2.299-0.702-3.654c0.23-0.033,0.497-0.028,0.538-0.336c0.008-0.061-0.14-0.208-0.2-0.199
	c-0.307,0.042-0.302,0.308-0.335,0.538c-0.598-0.048-0.736,0.584-1.165,0.786c-0.095-0.144-0.19-0.287-0.285-0.43
	c0.064-1.176-0.042-2.242-1.539-2.427h0.011c0.156-0.832,0.245-1.618-1.007-1.51l0.008,0.002c-0.086-0.119-0.173-0.239-0.259-0.358
	c-0.099-0.042-0.138-0.115-0.12-0.221c0.084-1.143-0.094-2.117-1.485-2.311c-4.702-7.221-9.405-14.44-14.104-21.663
	c-1.021-1.569-2.021-3.15-3.303-5.153c0,2.844-0.026,5.145,0.004,7.444c0.145,10.91,0.306,21.82,0.454,32.731
	c0.005,0.354-0.066,0.711-0.103,1.067c-0.101,0.148-0.213,0.431-0.302,0.424c-1.83-0.141-3.615,0.388-5.457,0.297
	c-1.271-0.063-1.611-0.447-1.609-1.675c0.04-17.439,0.037-34.88,0.044-52.32c0.598-0.021,1.197-0.08,1.792-0.058
	c1.968,0.075,4.408-0.776,5.771,0.318c1.307,1.05,2.269,2.968,3.299,4.564c7.228,11.2,14.522,22.357,21.79,33.531
	c0.422,0.649,0.796,1.33,1.192,1.996c1.44,0.69,0.662-0.688,0.663-0.872c0.043-10.282,0.01-20.565,0.044-30.847
	c0.004-1.22-0.451-1.529-1.568-1.517c-4.005,0.041-8.011,0.014-12.016,0.012c-0.772-2.138-0.192-4.346-0.328-6.517
	c-0.043-0.688,0.525-0.674,1.017-0.674c6.354,0,12.708,0.027,19.063-0.023c1.297-0.01,1.077,0.777,1.077,1.53
	c0.003,9.292,0.015,18.583,0.002,27.874c-0.011,7.971-0.052,15.941-0.079,23.912C164.038,57.262,161.342,57.107,158.645,56.089z"/>
<path fill-rule="evenodd" clip-rule="evenodd" fill="#FFFFFF" d="M95.038,2.066c2.716,0.161,5.253,0.935,7.638,2.231
	c0.942,1.717,2.75,2.446,4.251,3.431c0.851,0.558,1.432,1.862,2.794,1.554c4.034,3.755,6.474,8.359,7.34,13.798
	c0.006,3.32,0.013,6.64,0.019,9.96c-0.363,3.92-1.65,7.518-3.781,10.819c-1.605,0.303-1.829,1.563-1.989,2.867l0.004-0.006
	c-0.51,0.008-0.741,0.264-0.688,0.773l0.018-0.017c-1.646,0.744-3.244,1.529-4.319,3.099c-0.348,0.508-0.766,1.102-1.479,1.167
	c-1.2,0.108-0.82,0.861-0.679,1.533c0,0,0.01-0.017,0.009-0.017c-1.154-0.192-1.902,0.265-2.231,1.394
	c-5.052,2.928-10.528,3.937-16.292,3.496c-11.246-0.859-20.949-9.465-23.181-20.521c-0.094-0.466-0.093-0.951-0.137-1.427
	c-0.003-3.213-0.006-6.426-0.009-9.64c0.852-6.976,4.332-12.547,9.381-17.209c4.311-3.98,9.311-6.63,15.238-7.274
	C89.643,2.075,92.34,2.07,95.038,2.066z M65.944,27.278c1.354-0.769,0.584-1.708,0.364-2.603c-0.527,0.836-0.291,1.734-0.36,2.607
	c-0.893,0.166-0.742,0.662-0.477,1.3C66.157,28.241,65.849,27.696,65.944,27.278z M79.603,48.161
	c4.794,2.259,9.723,3.049,14.898,1.441c12.849-3.993,18.511-19.562,12.554-30.153c-2.992-5.321-7.515-8.576-13.514-9.763
	c0.041-0.044,0.096-0.082,0.116-0.134c0.016-0.042-0.011-0.145-0.02-0.145c-2.118-0.035-4.237-0.076-6.354-0.043
	c-0.095,0.001,0.232,0.24,0.402,0.324c-8.593,1.9-14.135,7.125-16.833,15.449c-0.445,0.03-0.616-0.74-1.044-0.474
	c-0.468,0.292-0.26,0.876-0.201,1.324c0.076,0.574,0.816,0.899,0.655,1.591c-0.572,5.606,0.304,10.878,3.594,15.595
	C74.18,45.301,77.419,48.111,79.603,48.161z M65.208,34.808c0.335,1.265,0.671,2.528,1.092,4.119
	C67.09,37.057,66.341,35.884,65.208,34.808z"/>
<path fill-rule="evenodd" clip-rule="evenodd" fill="#FFFFFF" d="M29.305,9.666c-7.862,1.518-13.181,6.092-15.725,13.627
	c-3.471,10.282,1.23,22.041,12.009,25.964c7.203,2.621,15.122,0.792,20.189-4.837c0.444-0.493,0.829-0.963,1.615-0.952
	c2.867,0.039,5.735,0.016,8.854,0.016c-1.508,3.266-3.478,5.93-6.005,8.146c-3.596,3.154-7.755,5.153-12.475,6.151
	C22.666,60.975,7.403,50.742,4.752,35.533c-0.041-0.232-0.012-0.477-0.016-0.715c0.003-3.335,0.007-6.67,0.01-10.006
	c0.897-6.381,4.091-11.513,8.692-15.857c3.627-3.425,7.893-5.669,12.79-6.671c0.639-0.131,1.3-0.156,1.951-0.23
	c2.725,0.004,5.451,0.009,8.177,0.013c8.084,1.196,14.523,4.877,18.515,12.255c0.332,0.613,0.656,1.23,0.983,1.845
	c-0.493,0.501-1.125,0.301-1.7,0.306c-2.448,0.022-4.896,0.013-7.344,0.015c-1.76-1.996-3.712-3.763-6.049-5.071
	c0.105-1.015-0.268-1.519-1.369-1.428c-0.864,0.071-1.739,0.018-2.609,0.02c-0.649-0.019-1.306,0.009-1.898-0.333
	c0.135-0.078,0.271-0.154,0.402-0.24c0.006-0.004-0.038-0.125-0.059-0.125c-2.071-0.007-4.143-0.022-6.213,0.014
	c-0.175,0.003-0.045,0.238,0.119,0.297C29.188,9.643,29.248,9.651,29.305,9.666z"/>
<path fill-rule="evenodd" clip-rule="evenodd" fill="#FFFFFF" d="M269.085,30.889c-1.889-4.815-3.778-9.63-5.666-14.446
	c-1.602-4.086-3.212-8.169-4.795-12.263c-0.45-1.165,0.142-1.418,1.223-1.414c7.428,0.031,14.854,0.012,22.282,0.019
	c1.136,0,2.271,0.046,3.408,0.071c0.002,9.769,0.005,19.537,0.006,29.306c0.002,7.671-0.021,15.343,0.026,23.013
	c0.008,1.218-0.288,1.738-1.594,1.655c-1.612-0.102-3.235-0.024-4.853-0.024c-2.99-7.528-6.018-15.042-8.729-22.678
	C270.441,32.853,270.721,31.483,269.085,30.889z"/>
<path fill-rule="evenodd" clip-rule="evenodd" fill="#FFFFFF" d="M221.472,47.425c-2.606-3.622-5.212-7.245-7.949-11.051
	c3.126-0.295,5.921-1,8.383-2.654c3.883-2.609,6.165-6.234,6.819-10.876c0.049-0.349,0.175-0.688,0.265-1.03
	c0.038,0.231,0.183,0.539,0.086,0.674c-0.109,0.151,0.292,0.279,0.168,0.009c0-1.583,0-3.215,0-4.847
	c-0.05,0.002-0.102,0.005-0.152,0.008c-0.035,0.232-0.07,0.464-0.105,0.696c-0.268-1.344-0.448-2.712-0.818-4.028
	c-1.622-5.77-5.54-9.202-11.194-10.819c-0.345-0.099-0.693-0.191-1.043-0.271c-0.275-0.062-0.556-0.099-0.816-0.356
	c11.624,0,23.248,0,35.065,0c-1.315,3.429-2.483,6.816-3.902,10.094c-2.031,4.688-3.592,9.55-5.507,14.28
	c-2.136,5.275-4.191,10.582-6.282,15.876c-1.438,0.877-1.608,2.251-1.465,3.746c-1.208,3.221-2.429,6.438-3.616,9.665
	c-0.334,0.909-0.712,0.595-1.098,0.096c-0.872-1.131-1.719-2.28-2.576-3.422c-0.931-1.754-2.028-3.385-3.519-4.721l0.004,0.008
	c-0.006-0.294-0.134-0.503-0.418-0.604c0,0-0.053-0.094-0.053-0.093C221.656,47.678,221.564,47.551,221.472,47.425z"/>
<path fill-rule="evenodd" clip-rule="evenodd" fill="#FFFFFF" d="M188.311,9.925c0-1.906,0.076-3.816-0.028-5.716
	c-0.067-1.229,0.402-1.553,1.523-1.443c0.944,0.092,1.901,0.06,2.852,0.082c0.002,2.874,0.006,5.747,0.006,8.62
	c-0.001,14.487-0.001,28.974-0.006,43.46c0,0.922,0.285,1.926-1.32,1.896c-4.847-0.089-9.696-0.059-14.544-0.074
	c-1.91-1.821-1.926-2.092,0.035-3.457c-1.097,0.134-1.502-0.143-1.499-1.17c0.044-13.308,0.042-26.616,0.01-39.924
	c-0.003-1.198,0.418-1.548,1.57-1.528c3.296,0.058,6.593,0.034,9.89,0.009C187.39,10.677,188.215,10.982,188.311,9.925z"/>
<path fill-rule="evenodd" clip-rule="evenodd" fill="#FFFFFF" d="M237.95,56.317c1.765-4.664,3.529-9.328,5.293-13.991
	c1.209,0.484,2.088-0.65,3.212-0.646c5.203,0.016,10.405,0.017,15.607-0.004c0.857-0.004,1.714,0.864,2.571,0.011l0.026,0.04
	c0.105,0.477-0.248,1.154,0.578,1.314c1.577,4.215,3.155,8.43,4.734,12.645c-0.299,0.938-0.944,1.142-1.895,1.138
	c-9.439-0.04-18.879-0.027-28.318-0.039C239.125,56.783,238.421,56.979,237.95,56.317z"/>
<path fill-rule="evenodd" clip-rule="evenodd" fill="#FFFFFF" d="M201.351,10.002c2.994-0.231,6.014-0.271,8.967,0.114
	c1.479,0.192,3.027,0.377,4.488,0.809c4.595,1.358,6.876,5.306,6.361,10.513c-0.475,4.798-4.317,8.183-9.65,9.072
	c-3.378,0.563-6.793,0.599-10.209,0.386C201.323,23.931,201.337,16.967,201.351,10.002z"/>
<path fill-rule="evenodd" clip-rule="evenodd" fill="#FFFFFF" d="M202.105,33.7c5.169,6.991,10.189,14.088,15.071,21.283
	c-0.112,0.792,0.34,1.854-1.194,1.831c-4.995-0.073-9.991-0.065-14.986-0.09c-0.001-0.199-0.002-0.398-0.003-0.599
	c0.506-0.493,0.308-1.119,0.309-1.699c0.012-6.339,0.012-12.679,0.03-19.018C201.333,34.745,201.025,33.896,202.105,33.7z"/>
<path fill-rule="evenodd" clip-rule="evenodd" fill="#FFFFFF" d="M261.844,33.676c-5.247,0-10.26,0-15.5,0
	c2.567-6.869,5.089-13.618,7.805-20.886C256.807,20.005,259.301,26.775,261.844,33.676z"/>
<path fill-rule="evenodd" clip-rule="evenodd" fill="#FFFFFF" d="M188.311,9.925c-0.096,1.057-0.921,0.751-1.511,0.756
	c-3.297,0.025-6.594,0.049-9.89-0.009c-1.152-0.02-1.573,0.33-1.57,1.528c0.032,13.308,0.034,26.616-0.01,39.924
	c-0.003,1.027,0.402,1.304,1.499,1.17c-1.961,1.365-1.945,1.636-0.035,3.458c0.005,0.134,0.01,0.267,0.014,0.4
	c-1.459,0.335-2.113,0.017-2.105-1.74c0.069-14.578,0.056-29.156,0.004-43.734c-0.005-1.38,0.403-1.714,1.732-1.694
	C180.396,10.042,184.354,9.955,188.311,9.925z"/>
<path fill-rule="evenodd" clip-rule="evenodd" fill="#FFFFFF" d="M176.808,57.152c-0.004-0.134-0.009-0.267-0.014-0.4
	c4.848,0.015,9.697-0.016,14.544,0.073c1.604,0.029,1.32-0.975,1.32-1.896c0.005-14.486,0.005-28.974,0.006-43.46
	c0-2.873-0.004-5.746-0.006-8.62c0.717,0.288,0.388,0.917,0.389,1.376c0.02,17.124,0.005,34.248,0.043,51.372
	c0.002,1.211-0.248,1.651-1.555,1.627C186.627,57.133,181.717,57.166,176.808,57.152z"/>
<path fill-rule="evenodd" clip-rule="evenodd" fill="#FFFFFF" d="M125.013,2.847c-0.007,17.44-0.004,34.881-0.044,52.32
	c-0.002,1.228,0.338,1.612,1.609,1.675c1.842,0.091,3.627-0.438,5.457-0.297c0.089,0.007,0.201-0.275,0.302-0.424
	c0.312,0.807-0.022,1.088-0.822,1.08c-1.979-0.02-3.958-0.032-5.936,0.005c-0.777,0.015-1.082-0.259-1.037-1.04
	c0.047-0.836,0.013-1.678,0.013-2.518c0-16.309-0.005-32.618,0.027-48.927C124.583,4.108,124.111,3.289,125.013,2.847z"/>
<path fill-rule="evenodd" clip-rule="evenodd" fill="#FFFFFF" d="M279.124,56.805c1.617,0,3.24-0.077,4.853,0.024
	c1.306,0.083,1.602-0.438,1.594-1.655c-0.048-7.67-0.024-15.342-0.026-23.013c-0.001-9.769-0.004-19.537-0.006-29.306
	c0.742,0.377,0.37,1.058,0.37,1.584c0.022,16.961-0.008,33.922,0.066,50.883c0.007,1.673-0.515,2.132-2.023,1.9
	C282.352,56.978,280.669,57.688,279.124,56.805z"/>
<path fill-rule="evenodd" clip-rule="evenodd" fill="#FFFFFF" d="M145.98,9.974c4.005,0.001,8.011,0.028,12.016-0.012
	c1.117-0.012,1.572,0.297,1.568,1.517c-0.035,10.282-0.001,20.565-0.044,30.847c0,0.185,0.778,1.563-0.663,0.872
	c0.712-0.276,0.466-0.897,0.462-1.393c-0.067-10.018-0.168-20.035-0.202-30.053c-0.004-1.261-0.408-1.646-1.651-1.652
	C153.638,10.083,149.805,10.333,145.98,9.974z"/>
<path fill-rule="evenodd" clip-rule="evenodd" fill="#FFFFFF" d="M237.95,56.317c0.472,0.661,1.176,0.466,1.81,0.467
	c9.439,0.012,18.879-0.001,28.318,0.039c0.95,0.004,1.596-0.199,1.895-1.138c0.554,0.99,0.661,1.545-0.872,1.536
	c-10.074-0.058-20.149-0.026-30.224-0.056C238.454,57.165,237.257,57.673,237.95,56.317z"/>
<path fill-rule="evenodd" clip-rule="evenodd" fill="#FFFFFF" d="M264.633,41.687c-0.857,0.854-1.714-0.015-2.571-0.011
	c-5.202,0.021-10.404,0.02-15.607,0.004c-1.124-0.004-2.003,1.131-3.212,0.646c0.065-0.75,0.492-0.976,1.214-0.974
	c6.533,0.02,13.066,0.013,19.6,0.014C264.308,41.366,264.521,41.434,264.633,41.687z"/>
<path fill-rule="evenodd" clip-rule="evenodd" fill="#FFFFFF" d="M202.105,33.7c-1.08,0.195-0.772,1.045-0.774,1.709
	c-0.019,6.339-0.019,12.679-0.03,19.018c-0.001,0.58,0.197,1.206-0.309,1.699c0-7.863,0-15.728,0-23.747
	C201.667,32.666,201.871,33.197,202.105,33.7z"/>
<path fill-rule="evenodd" clip-rule="evenodd" fill="#FFFFFF" d="M104.167,53.277c-0.141-0.672-0.521-1.425,0.679-1.533
	c0.712-0.065,1.131-0.659,1.479-1.167c1.075-1.569,2.673-2.354,4.319-3.099C108.842,49.811,106.75,51.818,104.167,53.277z"/>
<path fill-rule="evenodd" clip-rule="evenodd" fill="#FFFFFF" d="M200.995,56.725c4.996,0.024,9.992,0.017,14.986,0.09
	c1.535,0.022,1.082-1.039,1.194-1.831c0.586,0.571,1.063,1.213,1.532,2.209c-3.944,0-7.667,0-11.39,0
	c-1.727,0-3.454,0.02-5.181-0.017C201.737,57.167,201.133,57.475,200.995,56.725z"/>
<path fill-rule="evenodd" clip-rule="evenodd" fill="#FFFFFF" d="M201.351,10.002c-0.014,6.964-0.028,13.929-0.043,20.893
	c-0.553-0.204-0.372-0.688-0.373-1.067c-0.011-6.208-0.013-12.417,0.006-18.625C200.943,10.79,200.667,10.211,201.351,10.002z"/>
<path fill-rule="evenodd" clip-rule="evenodd" fill="#FFFFFF" d="M109.721,9.283c-1.362,0.308-1.943-0.996-2.794-1.554
	c-1.502-0.985-3.309-1.714-4.251-3.431C105.433,5.381,107.734,7.11,109.721,9.283z"/>
<path fill-rule="evenodd" clip-rule="evenodd" fill="#FFFFFF" d="M117.08,33.041c-0.006-3.32-0.013-6.64-0.019-9.96
	C117.76,26.4,117.808,29.72,117.08,33.041z"/>
<path fill-rule="evenodd" clip-rule="evenodd" fill="#FFFFFF" d="M62.327,26.563c0.003,3.214,0.006,6.427,0.009,9.64
	C61.651,32.99,61.653,29.777,62.327,26.563z"/>
<path fill-rule="evenodd" clip-rule="evenodd" fill="#FFFFFF" d="M158.645,56.089c2.697,1.019,5.393,1.173,8.086-0.013
	c0.171,0.698,0.054,1.141-0.82,1.127c-1.958-0.029-3.918-0.04-5.876,0.004C159.196,57.226,158.909,56.709,158.645,56.089z"/>
<path fill-rule="evenodd" clip-rule="evenodd" fill="#FFFFFF" d="M4.746,24.812c-0.003,3.336-0.006,6.671-0.01,10.006
	c-0.144-0.588-0.288-1.176-0.431-1.763c-0.001-2.172-0.002-4.343-0.003-6.514C4.45,25.965,4.598,25.389,4.746,24.812z"/>
<path fill-rule="evenodd" clip-rule="evenodd" fill="#FFFFFF" d="M46.81,16.488c2.448-0.002,4.896,0.007,7.344-0.015
	c0.575-0.005,1.207,0.195,1.7-0.306c0.213,0.212,0.458,0.636,0.025,0.625C52.856,16.717,49.805,17.344,46.81,16.488z"/>
<path fill-rule="evenodd" clip-rule="evenodd" fill="#FFFFFF" d="M36.783,10.009c0.87-0.002,1.745,0.051,2.609-0.02
	c1.101-0.09,1.474,0.414,1.369,1.428C39.435,10.948,38.109,10.479,36.783,10.009z"/>
<path fill-rule="evenodd" clip-rule="evenodd" fill="#FFFFFF" d="M36.355,2.067c-2.726-0.004-5.452-0.009-8.177-0.013
	C30.905,1.419,33.63,1.478,36.355,2.067z"/>
<path fill-rule="evenodd" clip-rule="evenodd" fill="#FFFFFF" d="M95.038,2.066C92.34,2.07,89.643,2.075,86.947,2.08
	C89.644,1.453,92.34,1.444,95.038,2.066z"/>
<path fill-rule="evenodd" clip-rule="evenodd" fill="#FFFFFF" d="M155.225,48.158c-0.479,1.355,0.896,2.354,0.702,3.654
	c-0.787-0.848-1.391-1.814-1.864-2.865c0.429-0.202,0.567-0.834,1.165-0.786L155.225,48.158z"/>
<path fill-rule="evenodd" clip-rule="evenodd" fill="#FFFFFF" d="M29.305,9.666c-0.057-0.014-0.117-0.023-0.172-0.043
	c-0.164-0.059-0.294-0.294-0.119-0.297c2.07-0.036,4.142-0.021,6.213-0.014c0.021,0,0.065,0.121,0.059,0.125
	c-0.13,0.085-0.267,0.162-0.402,0.24C33.024,9.672,31.165,9.669,29.305,9.666z"/>
<path fill-rule="evenodd" clip-rule="evenodd" fill="#FFFFFF" d="M233.024,46.875c-0.143-1.495,0.027-2.869,1.465-3.746
	C234.2,44.455,233.698,45.699,233.024,46.875z"/>
<path fill-rule="evenodd" clip-rule="evenodd" fill="#FFFFFF" d="M111.31,46.728c0.16-1.305,0.384-2.564,1.989-2.867
	C112.821,44.945,112.184,45.92,111.31,46.728z"/>
<path fill-rule="evenodd" clip-rule="evenodd" fill="#FFFFFF" d="M269.085,30.889c1.636,0.595,1.355,1.964,1.31,3.238
	C269.743,33.135,269.398,32.019,269.085,30.889z"/>
<path fill-rule="evenodd" clip-rule="evenodd" fill="#FFFFFF" d="M326.53,9.921c-0.338,0.719-0.675,1.438-1.013,2.156
	c-0.549-1.272-0.471-2.31,1.051-2.808C326.555,9.487,326.542,9.704,326.53,9.921z"/>
<path fill-rule="evenodd" clip-rule="evenodd" fill="#FFFFFF" d="M152.24,46.091c1.497,0.185,1.603,1.251,1.539,2.427
	C153.131,47.794,152.534,47.038,152.24,46.091z"/>
<path fill-rule="evenodd" clip-rule="evenodd" fill="#FFFFFF" d="M228.987,18.353c0.035-0.232,0.07-0.464,0.105-0.696
	c0.05-0.003,0.102-0.005,0.152-0.008c0,1.631,0,3.263,0,4.847c0.124,0.27-0.277,0.142-0.168-0.009
	c0.097-0.135-0.048-0.442-0.086-0.674C228.989,20.66,228.988,19.506,228.987,18.353z"/>
<path fill-rule="evenodd" clip-rule="evenodd" fill="#FFFFFF" d="M149.387,41.693c1.391,0.193,1.569,1.168,1.485,2.311
	C150.188,43.355,149.743,42.553,149.387,41.693z"/>
<path fill-rule="evenodd" clip-rule="evenodd" fill="#FFFFFF" d="M101.946,54.654c0.329-1.129,1.077-1.586,2.231-1.394
	C103.547,53.907,102.808,54.38,101.946,54.654z"/>
<path fill-rule="evenodd" clip-rule="evenodd" fill="#FFFFFF" d="M151.244,44.581c1.252-0.108,1.164,0.678,1.007,1.51
	C151.726,45.714,151.423,45.188,151.244,44.581z"/>
<path fill-rule="evenodd" clip-rule="evenodd" fill="#FFFFFF" d="M265.238,43.041c-0.826-0.16-0.473-0.838-0.578-1.314
	C265.144,42.037,265.139,42.562,265.238,43.041z"/>
<path fill-rule="evenodd" clip-rule="evenodd" fill="#FFFFFF" d="M110.626,47.495c-0.054-0.51,0.178-0.766,0.688-0.773
	C111.229,47.108,110.992,47.358,110.626,47.495z"/>
<path fill-rule="evenodd" clip-rule="evenodd" fill="#F5F9FA" d="M302.112,15.043c0.229,0.181,0.315,0.417,0.272,0.704
	C302.293,15.512,302.203,15.278,302.112,15.043z"/>
<path fill-rule="evenodd" clip-rule="evenodd" fill="#F9FBFC" d="M329.387,21.531c-0.081,0.148-0.161,0.297-0.242,0.446
	C329.226,21.829,329.306,21.68,329.387,21.531z"/>
<path fill-rule="evenodd" clip-rule="evenodd" fill="#F5F9FA" d="M298.186,4.519c0.08,0.145,0.159,0.289,0.239,0.433
	C298.345,4.808,298.266,4.664,298.186,4.519z"/>
<path fill-rule="evenodd" clip-rule="evenodd" fill="#E5F0F6" d="M221.472,47.425c0.092,0.126,0.184,0.253,0.275,0.379
	C221.655,47.677,221.563,47.551,221.472,47.425z"/>
<path fill-rule="evenodd" clip-rule="evenodd" fill="#FFFFFF" d="M150.992,44.225c0.086,0.119,0.173,0.239,0.259,0.358
	C151.165,44.464,151.079,44.344,150.992,44.225z"/>
<path fill-rule="evenodd" clip-rule="evenodd" fill="#F9FBFC" d="M326.711,9.287c0.072-0.121,0.145-0.241,0.218-0.362
	C326.856,9.046,326.784,9.166,326.711,9.287z"/>
<path fill-rule="evenodd" clip-rule="evenodd" fill="#FFFFFF" d="M155.228,48.161c0.033-0.23,0.028-0.496,0.335-0.538
	c0.06-0.009,0.208,0.139,0.2,0.199c-0.041,0.308-0.307,0.303-0.538,0.336L155.228,48.161z"/>
<path fill-rule="evenodd" clip-rule="evenodd" fill="#FFFFFF" d="M73.855,43.174c1.679,1.936,3.628,3.56,5.748,4.987
	C77.419,48.111,74.18,45.301,73.855,43.174z"/>
<path fill-rule="evenodd" clip-rule="evenodd" fill="#FFFFFF" d="M65.208,34.808c1.133,1.076,1.883,2.249,1.092,4.119
	C65.878,37.336,65.543,36.072,65.208,34.808z"/>
<path fill-rule="evenodd" clip-rule="evenodd" fill="#FFFFFF" d="M70.851,25.138c-0.197,0.813-0.121,1.693-0.59,2.441
	c0.161-0.692-0.579-1.017-0.655-1.591c-0.059-0.448-0.267-1.032,0.201-1.324C70.235,24.397,70.406,25.167,70.851,25.138z"/>
<path fill-rule="evenodd" clip-rule="evenodd" fill="#FFFFFF" d="M93.541,9.687c-1.952,0.001-3.905,0.001-5.856,0.002
	c-0.17-0.084-0.497-0.323-0.402-0.324c2.118-0.033,4.236,0.008,6.354,0.043c0.009,0,0.036,0.103,0.02,0.145
	C93.637,9.604,93.581,9.643,93.541,9.687z"/>
<path fill-rule="evenodd" clip-rule="evenodd" fill="#FFFFFF" d="M65.948,27.282c0.069-0.873-0.167-1.771,0.36-2.607
	c0.221,0.895,0.99,1.834-0.364,2.603L65.948,27.282z"/>
<path fill-rule="evenodd" clip-rule="evenodd" fill="#FFFFFF" d="M65.944,27.278c-0.096,0.418,0.213,0.963-0.473,1.304
	c-0.265-0.639-0.416-1.134,0.477-1.3L65.944,27.278z"/>
<path fill-rule="evenodd" clip-rule="evenodd" fill="#FFFFFF" d="M320.692,25.136c-0.303,1.129-0.62,2.252-1.261,3.25
	C319.368,27.115,319.082,25.758,320.692,25.136z"/>
<polygon fill-rule="evenodd" clip-rule="evenodd" fill="#FFFFFF" points="297.666,3.083 329.166,3.083 313.5,44.749 "/>
<polygon fill-rule="evenodd" clip-rule="evenodd" fill="#FFFFFF" points="316.667,57.501 333.833,57.501 333.833,10.167 "/>
<polygon fill-rule="evenodd" clip-rule="evenodd" fill="#FFFFFF" points="310.333,57.501 293.167,57.501 293.167,10.167 "/>
</svg>
