<?xml version="1.0" encoding="utf-8"?>
<!-- Generator: Adobe Illustrator 16.0.3, SVG Export Plug-In . SVG Version: 6.00 Build 0)  -->
<!DOCTYPE svg PUBLIC "-//W3C//DTD SVG 1.1//EN" "http://www.w3.org/Graphics/SVG/1.1/DTD/svg11.dtd">
<svg version="1.1" id="Ebene_1" xmlns="http://www.w3.org/2000/svg" xmlns:xlink="http://www.w3.org/1999/xlink" x="0px" y="0px"
	 width="194.919px" height="64.333px" viewBox="0 0 194.919 64.333" enable-background="new 0 0 194.919 64.333"
	 xml:space="preserve">
<g>
	<path fill-rule="evenodd" clip-rule="evenodd" fill="#FFFFFF" d="M98.177,38.513c1.918,0,3.5,0.013,5.081-0.003
		c4.784-0.047,8.388-3.194,8.431-7.351c0.041-3.851-3.526-7.326-7.63-7.434c-4.321-0.113-7.895,3.455-7.937,8.183
		c-0.079,8.716-0.024,17.433-0.025,26.15c0,1.435,0,2.868,0,4.493c-3.274,0-6.416,0-9.791,0c-0.043-0.848-0.124-1.699-0.124-2.55
		c-0.009-9.517-0.02-19.033-0.002-28.549c0.018-9.434,6.333-16.93,15.026-17.876c10.367-1.129,18.395,4.343,20.573,14.025
		c2.271,10.089-5.602,20.652-16.215,21.708c-1.746,0.174-3.512,0.128-5.266,0.236c-1.467,0.091-2.21-0.357-2.15-2.012
		C98.252,44.665,98.177,41.789,98.177,38.513z"/>
	<path fill-rule="evenodd" clip-rule="evenodd" fill="#FFFFFF" d="M65.163,13.075c10.216,0.003,18.543,8.129,18.346,18.417
		c-0.217,11.361-9.183,18.368-18.49,18.353C53.575,49.827,46.443,39.638,46.733,31.34C47.097,20.985,54.764,13.072,65.163,13.075z
		 M72.343,31.37c-0.013-3.973-3.382-7.393-7.252-7.361c-3.894,0.033-7.345,3.461-7.378,7.331c-0.035,4.018,3.47,7.506,7.471,7.434
		C69.219,38.701,72.356,35.456,72.343,31.37z"/>
	<path fill-rule="evenodd" clip-rule="evenodd" fill="#FFFFFF" d="M42.52,18.301c0.026,5.558,0.026,5.558-5.437,5.566
		c-5.114,0.008-8.204,2.729-8.21,7.23c-0.006,4.472,3.188,7.377,8.152,7.416c5.521,0.042,5.571,0.042,5.509,5.524
		c-0.072,6.358,1.013,5.494-5.627,5.479c-8.625-0.02-15.451-4.864-17.92-12.512c-2.585-8.006,0.032-16.129,6.72-21.059
		c4.78-3.523,10.27-3.546,15.811-3.266c0.355,0.018,0.914,0.831,0.957,1.312C42.603,15.417,42.52,16.863,42.52,18.301z"/>
	<path fill-rule="evenodd" clip-rule="evenodd" fill="#FFFFFF" d="M153.688,17.919c4.193,0,7.999,0,11.827,0
		c0.149,0.491,0.288,0.779,0.322,1.079c0.479,4.302,0.372,4.418-3.93,4.418c-1.838,0-3.692,0.156-5.51-0.039
		c-2.323-0.248-2.981,0.75-2.725,2.858c0.106,0.866,0.018,1.756,0.018,2.635c0,6.545,2.908,9.809,9.431,9.973
		c2.484,0.063,2.965,0.974,2.804,3.106c-0.145,1.907,0.098,3.85-0.12,5.742c-0.072,0.619-1.019,1.576-1.629,1.628
		c-12.396,1.062-20.795-6.689-20.798-19.086c-0.001-6.792,0.066-13.586-0.043-20.377c-0.03-1.853,0.611-2.38,2.336-2.291
		c2.073,0.108,4.155,0.066,6.231,0.019c1.319-0.031,1.848,0.472,1.809,1.834C153.634,12.119,153.688,14.823,153.688,17.919z"/>
	<path fill-rule="evenodd" clip-rule="evenodd" fill="#FFFFFF" d="M83.79,62.36c-0.773,0.046-1.546,0.133-2.319,0.133
		c-15.997,0.008-31.994,0.056-47.991-0.01c-14.453-0.06-26.792-9.702-29.784-23.124C0.174,23.551,10.039,7.724,25.835,4.046
		C28.61,3.4,31.519,3.044,34.366,3.04c42.632-0.063,85.264-0.062,127.896-0.033c15.466,0.011,28.357,11.426,30.254,26.657
		c1.814,14.562-8.771,29.017-23.614,32.098c-2.404,0.498-4.909,0.7-7.37,0.707c-20.156,0.055-40.312,0.033-60.468,0.026
		c-0.845-0.001-1.689-0.081-2.534-0.124c-0.015-0.22-0.029-0.438-0.044-0.658c0.854-0.054,1.708-0.153,2.563-0.154
		c20.236-0.009,40.473-0.002,60.708-0.008c16.011-0.006,28.575-11.602,29.832-27.516c1.049-13.29-9.526-26.626-23.331-29.298
		c-2.416-0.467-4.908-0.756-7.365-0.759C119.06,3.932,77.228,3.94,35.396,3.948C23.173,3.95,13.413,8.662,7.375,19.539
		C-1.538,35.59,7.563,55.715,25.751,60.478c2.594,0.68,5.351,1.012,8.035,1.027c15.836,0.094,31.674,0.046,47.511,0.046
		c0.828,0,1.655,0,2.483,0C83.783,61.821,83.787,62.091,83.79,62.36z"/>
	<path fill-rule="evenodd" clip-rule="evenodd" fill="#FFFFFF" d="M135.213,12.096c-2.286,0-4.576-0.078-6.858,0.023
		c-2.109,0.093-1.985-1.254-2.024-2.677c-0.038-1.433,0.29-2.23,1.986-2.157c2.771,0.12,5.552,0.032,8.479,0.032
		c0,14.061,0,27.855,0,41.997c-3.128,0-6.215,0.053-9.295-0.066c-0.396-0.015-1.086-0.924-1.086-1.419
		c-0.004-6.953-0.297-13.939,0.285-20.849c0.436-5.172,3.879-9.172,7.396-12.857c0.427-0.447,1.076-0.681,1.622-1.013
		C135.55,12.771,135.382,12.434,135.213,12.096z"/>
</g>
</svg>
