<?xml version="1.0" encoding="utf-8"?>
<!-- Generator: Adobe Illustrator 16.0.3, SVG Export Plug-In . SVG Version: 6.00 Build 0)  -->
<!DOCTYPE svg PUBLIC "-//W3C//DTD SVG 1.1//EN" "http://www.w3.org/Graphics/SVG/1.1/DTD/svg11.dtd">
<svg version="1.1" id="Ebene_1" xmlns="http://www.w3.org/2000/svg" xmlns:xlink="http://www.w3.org/1999/xlink" x="0px" y="0px"
	 width="505.501px" height="142.493px" viewBox="0 0 505.501 142.493" enable-background="new 0 0 505.501 142.493"
	 xml:space="preserve">
<g>
	<path fill="#FFFFFF" d="M157.334,9.174c-22.096-1.692-40.197,6.705-54.613,23.163c-5.689,6.495-9.356,14.255-11.646,22.614
		c-1.44,4.533-2.144,9.198-2.308,13.932c-0.127,3.694-0.148,7.385-1.063,10.999c-4.256,16.807-21.335,27.933-38.961,23.785
		c-8.721-2.053-15.569-6.958-20.158-14.467c-8.587-14.052-5.845-30.859,6.416-41.716c3.017-2.671,6.366-5.063,10.184-6.28
		c2.454-0.782,5.114-1.31,7.777-1.474c3.22-0.199,3.263-0.292,3.271-3.405c0.01-3.762-0.103-7.525,0.014-11.283
		c0.061-1.953-0.716-2.442-2.53-2.395c-10.041,0.26-19.043,3.785-27.167,9.308c-8.135,5.531-13.745,13.341-17.118,22.56
		C4.552,67.858,4.939,81.167,11.37,93.894c8.747,17.312,23.095,26.756,42.423,27.958c13.222,0.823,24.991-3.489,35.08-12.148
		c1.258-1.08,2.71-2.021,3.45-3.614c1.474-1.002,2.402-2.517,3.443-3.881c6.655-8.719,10.083-18.58,10.188-29.569
		c0.046-4.818,0.53-9.585,2.102-14.161c4.765-13.875,13.454-23.975,27.553-29.148c13.25-4.861,26.222-3.993,38.535,2.288
		c17.291,8.82,26.699,28.051,23.564,47.384c-2.792,17.221-12.455,29.542-28.659,35.856c-18.029,7.025-34.449,3.276-48.838-9.555
		c-1.735-1.547-2.138-1.591-3.871,0.003c-2.384,2.192-4.751,4.401-7.134,6.595c-3.732,3.435-3.809,3.595,0.058,6.917
		c19.954,17.146,42.543,21.805,66.902,11.83c24.589-10.069,37.766-29.415,39.36-55.89c1.039-17.244-4.516-32.578-16.585-45.334
		C187.588,17.427,173.768,10.433,157.334,9.174z"/>
	<path fill="#FFFFFF" d="M260.208,42.999c5.056,0.047,10.113-0.057,15.169,0.026c1.863,0.031,2.61-0.684,2.585-2.491
		c-0.042-3.046-0.003-6.094-0.023-9.141c-0.016-2.33-0.57-2.883-2.858-2.887c-4.862-0.009-9.726-0.057-14.586,0.028
		c-1.426,0.025-1.894-0.319-1.863-1.817c0.094-4.73-0.008-9.464,0.032-14.196c0.014-1.663-0.686-2.317-2.332-2.294
		c-3.889,0.056-7.779,0.024-11.668,0.018c-2.688-0.004-3.15,0.442-3.151,3.125c-0.001,14.716-0.001,29.432-0.001,44.147
		c-0.002,0-0.005,0-0.008,0c0,13.549-0.007,27.098,0.002,40.647c0.006,9.29,2.935,17.528,9.13,24.484
		c6.432,7.221,14.5,11.326,24.173,12.131c2.496,0.208,3.137-0.455,3.143-2.96c0.008-3.889-0.013-7.779,0.008-11.668
		c0.009-1.565-0.654-2.316-2.273-2.517c-9.587-1.187-16.837-8.849-16.937-18.473c-0.188-18.215-0.063-36.433-0.107-54.649
		C258.639,43.297,259.042,42.988,260.208,42.999z"/>
	<path fill="#FFFFFF" d="M501.655,117.578c-8.62-1.624-14.388-7.432-16.004-16.054c-0.531-2.836-0.272-5.688-0.274-8.53
		c-0.028-26.522-0.016-53.044-0.014-79.566c0-2.92-0.293-3.203-3.233-3.198c-3.631,0.006-7.263-0.011-10.894-0.003
		c-2.794,0.006-3.006,0.227-3.006,2.961c0.001,14.59,0.001,29.181,0.001,43.771c0.001,13.683,0.021,27.365-0.005,41.048
		c-0.023,12.375,4.849,22.357,14.681,29.828c5.587,4.246,11.948,6.646,19.005,6.979c2.203,0.104,2.641-0.374,2.651-2.544
		c0.018-3.761,0.011-7.521,0.012-11.283C504.576,118.446,504.25,118.067,501.655,117.578z"/>
	<path fill="#FFFFFF" d="M177.601,72.301c0.153-13.5-10.89-25.854-25.568-25.558c-13.798-0.206-25.332,11.242-25.252,25.439
		c0.078,14.103,11.1,24.466,23.796,25.211C165.967,98.297,177.445,86.031,177.601,72.301z"/>
	<path fill="#FFFFFF" d="M342.647,26.368c-6,0.254-11.74,1.911-16.753,4.958c-11.433,6.948-17.094,17.55-17.47,30.844
		c-0.237,8.419-0.044,16.851-0.044,25.278c0.021,0,0.043,0,0.064,0c0,8.492-0.007,16.984,0.005,25.476
		c0.003,2.257,0.483,2.732,2.731,2.742c3.695,0.018,7.391,0,11.085,0.009c3.148,0.008,3.337-0.151,3.338-3.246
		c0.004-16.401,0.001-32.803-0.001-49.204c0-1.579-0.088-3.083,0.352-4.719c2.325-8.662,7.663-13.842,16.592-15.223
		c1.331-0.206,2.334-0.861,2.339-2.383c0.014-4.148,0.022-8.298-0.02-12.446C344.853,27.067,344.114,26.306,342.647,26.368z"/>
	<path fill="#FFFFFF" d="M420.067,31.971c-2.188-1.385-4.698-1.988-7.098-2.818c-4.774-1.653-9.667-2.688-14.787-2.647
		c-1.945,0.016-2.348,0.827-2.339,2.422c0.017,3.368,0.006,6.735,0.005,10.103c-0.001,3.877,0.157,3.89,3.941,4.343
		c7.676,0.919,14.357,3.694,18.563,10.699c1.08,2.411,1.733,4.928,1.843,7.575c0.019,0.441,0.361,1.14-0.618,0.948
		c-4.526-3.25-9.699-5.059-15.084-5.915c-11.208-1.782-21.587,0.645-30.519,7.741c-16.729,13.291-20.133,35.916-7.953,53.538
		c6.981,10.102,16.902,15.566,29.202,16.536c2.228,0.176,2.949-0.545,2.955-2.743c0.011-3.63,0.019-7.26,0.017-10.889
		c-0.002-2.883-0.122-3.128-2.93-3.474c-3.777-0.464-7.103-1.89-10.205-4.056c-7.68-5.362-10.944-15.352-8.038-24.879
		c2.636-8.636,11.429-15.167,20.421-15.237c9.584-0.075,16.344,4.429,20.828,12.694c0.129,0.207,0.258,0.414,0.387,0.621
		c1.416,3.953,1.803,8.024,1.711,12.211c-0.114,5.218,0.023,10.44,0.053,15.663c0.122,1.449,1.252,1.271,2.18,1.277
		c3.888,0.029,7.775,0.011,11.663,0.011c2.839-0.001,3.19-0.35,3.191-3.268c0.004-15.42,0.006-30.841,0.004-46.261
		c-0.001-4.067-0.155-8.092-0.988-12.124C434.414,44.087,428.883,36.839,420.067,31.971z"/>
</g>
</svg>
