<?xml version="1.0" encoding="utf-8"?>
<!-- Generator: Adobe Illustrator 16.0.3, SVG Export Plug-In . SVG Version: 6.00 Build 0)  -->
<!DOCTYPE svg PUBLIC "-//W3C//DTD SVG 1.1//EN" "http://www.w3.org/Graphics/SVG/1.1/DTD/svg11.dtd">
<svg version="1.1" id="Ebene_1" xmlns="http://www.w3.org/2000/svg" xmlns:xlink="http://www.w3.org/1999/xlink" x="0px" y="0px"
	 width="278.125px" height="175px" viewBox="0 0 278.125 175" enable-background="new 0 0 278.125 175" xml:space="preserve">
<g>
	<path fill-rule="evenodd" clip-rule="evenodd" fill="#FFFFFF" d="M214.125,95.981c-7.053,12.612-14.109,25.221-21.155,37.837
		c-5.037,9.019-10.222,17.962-14.996,27.118c-1.661,3.184-3.69,4.089-7.067,3.989c-8.16-0.241-16.34-0.389-24.492-0.063
		c-4.314,0.172-4.458-1.329-3.653-4.863c4.257-18.678,8.301-37.403,12.425-56.111c0.42-1.906,1.127-3.795,0.354-5.826
		c-2.132,0.052-2.259,1.878-2.922,3.042c-11.381,19.979-22.767,39.955-33.998,60.018c-1.575,2.813-3.276,4.017-6.613,3.916
		c-8.659-0.264-17.332-0.188-25.996-0.036c-2.954,0.052-3.809-0.79-3.119-3.728c4.881-20.754,9.71-41.521,14.428-62.314
		c0.591-2.603,1.987-3.015,4.243-2.974c5.332,0.098,10.667,0.08,15.999,0.021c10.064-0.113,17.595-5.344,20.91-14.833
		c2.086-5.971,3.602-12.141,5.667-18.12c1.142-3.308-0.288-3.606-2.972-3.584c-9.999,0.08-20.002-0.111-29.997,0.102
		c-3.875,0.083-5.352-0.621-4.342-4.954c3.364-14.434,6.463-28.933,9.464-43.448c0.645-3.118,1.722-4.349,5.148-4.333
		c27.331,0.126,54.663-0.032,81.994,0.037c10.747,0.027,21.202,1.979,31.322,5.667c24.934,9.088,38.029,28.333,37.246,54.851
		c-0.695,23.553-8.016,45.48-16.631,67.065c-3.707,9.286-7.982,18.321-12.463,27.265c-1.225,2.445-2.682,3.32-5.39,3.285
		c-10.831-0.143-21.67-0.249-32.495,0.036c-4.307,0.113-4.433-1.35-3.617-4.921c4.449-19.487,8.668-39.027,12.949-58.552
		c0.381-1.739,0.643-3.504,0.96-5.257C214.92,96.203,214.523,96.092,214.125,95.981z"/>
	<path fill-rule="evenodd" clip-rule="evenodd" fill="#FFFFFF" d="M17.426,60.528c0.545,2.167,2.558,2.51,4.056,3.345
		c11.784,6.577,23.535,13.219,35.46,19.533c3.295,1.745,3.92,3.456,3.038,7.021c-2.799,11.315-5.267,22.718-7.622,34.136
		c-2.626,12.731,2.564,18.422,15.456,17.379c4.5-0.363,8.718-1.943,13.802-3.157c-1.724,7.868-3.342,15.26-4.962,22.651
		c-0.407,1.857-1.877,2.084-3.42,2.297c-11.005,1.512-21.948,1.44-32.728-1.518c-20.703-5.681-31.707-19.806-34.758-40.566
		c-2.75-18.711,0.782-36.851,5.627-54.797c2.91-10.779,5.95-21.545,12.051-31.1C35.378,17.031,52.557,7.45,74.675,6.879
		c10.493-0.271,21.004,0.162,31.495-0.151c4.261-0.127,4.614,1.287,3.652,4.833c-1.481,5.461-2.756,10.997-3.738,16.567
		c-0.537,3.046-1.688,4.151-4.874,4.053c-7.659-0.237-15.333,0.046-22.996-0.129c-3.608-0.083-5.51,1.184-6.229,4.828
		c-1.225,6.208-2.988,12.312-4.123,18.534c-0.599,3.283-1.956,4.313-5.268,4.269c-13.331-0.179-26.665-0.105-39.998-0.034
		C20.896,59.658,18.955,58.911,17.426,60.528z"/>
</g>
</svg>
