<?xml version="1.0" encoding="utf-8"?>
<!-- Generator: Adobe Illustrator 16.0.3, SVG Export Plug-In . SVG Version: 6.00 Build 0)  -->
<!DOCTYPE svg PUBLIC "-//W3C//DTD SVG 1.1//EN" "http://www.w3.org/Graphics/SVG/1.1/DTD/svg11.dtd">
<svg version="1.1" id="Ebene_1" xmlns="http://www.w3.org/2000/svg" xmlns:xlink="http://www.w3.org/1999/xlink" x="0px" y="0px"
	 width="249px" height="61px" viewBox="0 0 249 61" enable-background="new 0 0 249 61" xml:space="preserve">
<path fill="#FFFFFF" stroke="#FFFFFF" stroke-miterlimit="10" d="M67.093,21.813h6.324L75.542,14H68.98l2.687-11.125h-14L55.105,14
	h-5.376l-2.375,7.813h5.953L50.042,36c-3.219,12.531,5.563,11.833,5.563,11.833h11.813l1.625-9.583C62.292,39,63.667,36,63.667,36
	L67.093,21.813z"/>
<path fill="#FFFFFF" stroke="#FFFFFF" stroke-miterlimit="10" d="M28.604,26.875h14.125c0,0,0.958-15.042-14.979-14.917
	c0,0-14.833-0.958-21.458,10.479c0,0-10.75,16.938,2.875,24.688c0,0,10.667,5.125,20.854,0c0,0,9.197-4.625,10.958-12.688H27.292
	c0,0-2.563,6.688-9.625,4.25c0,0-6.125-2.563,0.938-13.625c0,0,3.375-5.375,8.438-2.813C27.042,22.25,29.948,23.906,28.604,26.875z"
	/>
<path fill="#FFFFFF" stroke="#FFFFFF" stroke-miterlimit="10" d="M109.989,12.767c-5.664-2.413-12.62,0.614-17.251,6.916
	l1.556-7.205H82.459L71.793,58.811h12.5l4.215-19.533c1.047,3.833,3.314,6.887,6.645,8.305c7.025,2.992,16.041-2.373,20.137-11.988
	C119.387,25.979,117.012,15.759,109.989,12.767z M103.742,32.878c-1.904,4.474-6.065,6.983-9.293,5.608
	c-3.229-1.376-4.301-6.116-2.396-10.588c1.905-4.472,6.066-6.98,9.296-5.605C104.575,23.668,105.648,28.408,103.742,32.878z"/>
<polygon fill="#FFFFFF" stroke="#FFFFFF" stroke-miterlimit="10" points="123.917,25.357 158.167,11.939 205.667,21.917 
	247.667,16.5 247.667,19.167 200.833,28.583 155.542,21.917 123.917,26.75 "/>
<polygon fill="#FFFFFF" stroke="#FFFFFF" stroke-miterlimit="10" points="120.672,35.986 154.922,22.568 202.422,32.546 
	244.422,27.129 244.422,29.796 197.589,39.212 152.297,32.546 120.672,37.379 "/>
<polygon fill="#FFFFFF" stroke="#FFFFFF" stroke-miterlimit="10" points="119.228,46.746 153.478,33.327 200.978,43.306 
	242.978,37.889 242.978,40.556 196.145,49.972 150.853,43.306 119.228,48.139 "/>
</svg>
