<?xml version="1.0" encoding="utf-8"?>
<!-- Generator: Adobe Illustrator 16.0.3, SVG Export Plug-In . SVG Version: 6.00 Build 0)  -->
<!DOCTYPE svg PUBLIC "-//W3C//DTD SVG 1.1//EN" "http://www.w3.org/Graphics/SVG/1.1/DTD/svg11.dtd">
<svg version="1.1" id="Ebene_1" xmlns="http://www.w3.org/2000/svg" xmlns:xlink="http://www.w3.org/1999/xlink" x="0px" y="0px"
	 width="485px" height="417px" viewBox="0 0 485 417" enable-background="new 0 0 485 417" xml:space="preserve">
<path fill-rule="evenodd" clip-rule="evenodd" fill="#FFFFFF" d="M158.96,263.821c0.128,12.688,0.757,25.305,6.504,36.986
	c4.372,8.886,11.423,13.7,21.53,13.161c9.489-0.506,14.608-6.634,18.489-14.541c1.703-3.469,1.126-8.994,4.773-10.175
	c3.128-1.013,7.337,1.214,11.044,2.108c6.623,1.6,13.211,3.343,19.848,4.88c2.496,0.578,3.657,1.539,2.913,4.323
	c-7.286,27.25-23.221,45.734-55.204,45.63c-24.817-0.081-45.259-8.412-58.661-30.3c-7.441-12.151-10.662-25.664-11.729-39.736
	c-1.476-19.465-0.263-38.629,8.262-56.57c10.847-22.831,29.267-35.213,54.292-37.572c16.107-1.518,31.203,1.288,43.87,12.348
	c9.781,8.541,15.301,19.496,18.112,31.981c0.436,1.936,0.453,3.344-2.222,3.889c-10.094,2.059-20.137,4.367-30.185,6.645
	c-1.905,0.432-2.808-0.133-2.979-2.078c-0.071-0.816-0.397-1.609-0.601-2.416c-2.828-11.182-9.208-17.573-18.349-18.379
	c-10.292-0.907-19.013,4.497-23.75,14.731C159.753,239.891,158.9,251.776,158.96,263.821z"/>
<path fill-rule="evenodd" clip-rule="evenodd" fill="#FFFFFF" d="M144.109,49.867c30.217-0.817,53.652,25.671,53.063,54.734
	c-0.516,25.451-23.393,53.074-55.912,51.674c-29.139-1.254-51.358-25.427-50.802-54.871
	C90.979,73.833,115.804,48.541,144.109,49.867z"/>
<path fill-rule="evenodd" clip-rule="evenodd" fill="#FFFFFF" d="M322.209,280.777c0,18.998-0.087,37.996,0.077,56.992
	c0.031,3.531-0.557,5.005-4.555,4.879c-9.823-0.309-19.665-0.259-29.491-0.019c-3.885,0.095-5.054-0.993-5.037-5.021
	c0.159-37.661-0.029-75.324,0.225-112.985c0.035-5.212-1.386-6.451-6.361-6.2c-8.811,0.445-17.658,0.107-26.488,0.221
	c-2.652,0.035-3.77-0.613-3.689-3.625c0.234-8.66,0.157-17.33,0.047-25.994c-0.031-2.559,0.279-3.849,3.438-3.838
	c34.995,0.118,69.991,0.103,104.987,0.019c2.812-0.007,3.734,0.756,3.674,3.645c-0.182,8.662-0.18,17.332-0.003,25.994
	c0.059,2.845-0.817,3.748-3.632,3.712c-9.497-0.117-19.002,0.152-28.494-0.092c-3.796-0.099-4.788,1.123-4.756,4.82
	c0.17,19.162,0.079,38.328,0.079,57.492C322.222,280.777,322.216,280.777,322.209,280.777z"/>
<path fill-rule="evenodd" clip-rule="evenodd" fill="#FFFFFF" d="M443.209,280.777c0,18.998-0.087,37.996,0.077,56.992
	c0.031,3.531-0.557,5.005-4.555,4.879c-9.823-0.309-19.665-0.259-29.491-0.019c-3.885,0.095-5.054-0.993-5.037-5.021
	c0.159-37.661-0.029-75.324,0.225-112.985c0.035-5.212-1.386-6.451-6.361-6.2c-8.811,0.445-17.658,0.107-26.488,0.221
	c-2.652,0.035-3.77-0.613-3.689-3.625c0.234-8.66,0.157-17.33,0.047-25.994c-0.031-2.559,0.279-3.849,3.438-3.838
	c34.995,0.118,69.991,0.103,104.987,0.019c2.812-0.007,3.734,0.756,3.674,3.645c-0.182,8.662-0.18,17.332-0.003,25.994
	c0.059,2.845-0.817,3.748-3.632,3.712c-9.497-0.117-19.002,0.152-28.494-0.092c-3.796-0.099-4.788,1.123-4.756,4.82
	c0.17,19.162,0.079,38.328,0.079,57.492C443.222,280.777,443.216,280.777,443.209,280.777z"/>
<path fill-rule="evenodd" clip-rule="evenodd" fill="#FFFFFF" d="M53.976,142.95c25.366-1.176,46.002,21.17,46.518,45.144
	c0.58,26.93-21.59,47.756-46.609,47.795c-25.5,0.039-46.178-21.63-46.164-46.424C7.737,163.267,28.189,142.432,53.976,142.95z"/>
<path fill-rule="evenodd" clip-rule="evenodd" fill="#FFFFFF" d="M50.857,261.908c21.277-1.11,39.244,16.492,39.352,39.453
	c0.104,22.084-19.517,39.352-39.634,38.789c-21.181-0.594-38.452-17.793-38.686-38.971
	C11.654,279.947,30.453,260.389,50.857,261.908z"/>
<path fill-rule="evenodd" clip-rule="evenodd" fill="#FFFFFF" d="M74.923,374.344c0.132-16.693,14.537-30.572,31.699-30.184
	c15.63,0.354,30.174,11.914,29.887,31.869c-0.24,16.787-13.646,30.246-31.289,29.904C88.291,405.606,74.786,391.737,74.923,374.344z
	"/>
<path fill-rule="evenodd" clip-rule="evenodd" fill="#FFFFFF" d="M180.429,411.789c-13.616,0.922-20.867-10.878-21.066-22.209
	c-0.208-11.852,10.432-21.459,22.912-21.285c10.322,0.143,20.333,10.365,20.464,20.895
	C202.904,402.522,193.695,411.851,180.429,411.789z"/>
<path fill-rule="evenodd" clip-rule="evenodd" fill="#FFFFFF" d="M239.278,359.992c8.905,0.092,16.625,7.352,16.521,15.865
	c-0.144,11.756-6.626,16.66-16.358,17.184c-8.356,0.448-17.359-6.196-16.633-16.852
	C223.447,366.836,229.993,359.896,239.278,359.992z"/>
<path fill-rule="evenodd" clip-rule="evenodd" fill="#FFFFFF" d="M356.174,69.341c-1.15-35.306-31.02-65.119-66.897-64.663
	c-38.115,0.188-67.194,29.505-67.316,67.316c-0.124,38.386,30.573,65.535,63.578,67.044
	C326.506,140.911,357.412,107.346,356.174,69.341z M261.767,85.71c-1.9,0.24-3.158-0.312-4.102-1.988
	c-2.734-4.86-5.152-9.932-9.706-13.809c0,3.658,0.18,7.329-0.078,10.968c-0.125,1.78,1.321,4.876-2.416,4.807
	c-3.259-0.061-2.223-2.837-2.275-4.545c-0.182-5.985-0.19-11.98-0.08-17.968c0.031-1.624-0.842-3.985,1.82-4.525
	c2.38-0.483,4.113,0.636,5.301,2.737c2.595,4.588,5.238,9.149,8.889,13.611c0-4.184,0.018-8.368-0.008-12.552
	c-0.012-1.838,0.25-3.349,2.633-3.265c2.209,0.079,2.219,1.712,2.21,3.189c-0.04,6.653-0.132,13.306-0.28,19.958
	C263.643,83.702,264.084,85.417,261.767,85.71z M273.717,84.866c-0.452-0.192-1.018-0.178-1.41-0.439
	c-4.541-3.017-5.615-15.007-2.096-21.325c2.613-4.691,8.299-6.538,14.826-3.405c4.711,2.261,5.034,7.775,5.011,12.714
	C290.745,84.318,281.834,88.308,273.717,84.866z M312.732,85.461c-1.837,0.851-3.97,0.376-5.031-1.866
	c-0.991-2.096-1.906-4.229-2.912-6.317c-0.688-1.427-1.651-2.569-3.477-2.169c-1.737,0.38-1.596,1.981-1.819,3.204
	c-0.3,1.63-0.383,3.306-0.471,4.967c-0.103,1.93-1.181,2.597-2.954,2.481c-1.998-0.13-2.641-1.786-2.354-3.131
	c1.129-5.289,0.244-10.591,0.369-15.872c0.201-8.486-1.063-7.368,8.222-7.854c0.649,0.032,1.646,0.097,2.644,0.125
	c3.255,0.091,6.826,0.36,7.779,3.992c0.889,3.387,1.657,7.357-2.211,9.894c-1.52,0.997-1.314,2.007-0.576,3.353
	c0.954,1.741,1.889,3.519,2.558,5.38C312.936,82.859,314.772,84.516,312.732,85.461z M337.661,81.18
	c-2.69,3.645-11.532,6.011-16.513,4.632c-2.04-0.565-1.969-2.013-1.997-3.459c-0.068-3.484-0.022-6.97-0.022-10.456
	c-0.01,0-0.021,0-0.031,0c0-2.988,0.164-5.987-0.048-8.959c-0.196-2.767,0.78-4.038,3.589-3.96c2.651,0.073,5.307-0.026,7.959,0.024
	c3.544,0.067,5.748,2.362,7.508,5.003C340.658,67.834,340.278,77.635,337.661,81.18z"/>
<path fill-rule="evenodd" clip-rule="evenodd" fill="#FFFFFF" d="M302.2,70.195c-2.161,0.298-3.763-1.405-3.858-3.957
	c-0.13-3.511,3.07-2.928,5.146-3.143c2.544-0.262,4.711,0.671,4.601,3.813C307.966,70.372,305.239,69.916,302.2,70.195z"/>
<path fill-rule="evenodd" clip-rule="evenodd" fill="#FFFFFF" d="M334.827,70.957c0.124,6.23-2.356,9.65-6.757,9.958
	c-3.063,0.215-4.293-1.159-4.238-3.997c0.057-2.97,0.224-5.938,0.313-8.907c0.151-5.025,1.757-5.979,6.398-4.072
	C333.898,65.318,334.22,68.287,334.827,70.957z"/>
<path fill-rule="evenodd" clip-rule="evenodd" fill="#FFFFFF" d="M284.926,72.226c0,1.324,0.142,2.667-0.028,3.969
	c-0.392,2.994-2.39,4.817-5.167,5.166c-2.883,0.363-5.08-1.102-6.075-4.04c-1.048-3.092-0.871-6.234-0.224-9.319
	c0.63-3.004,2.336-5.289,5.756-5.043c3.43,0.247,5.297,2.443,5.732,5.792c0.147,1.14,0.023,2.315,0.023,3.475
	C284.938,72.226,284.932,72.226,284.926,72.226z"/>
</svg>
