<?xml version="1.0" encoding="utf-8"?>
<!-- Generator: Adobe Illustrator 16.0.3, SVG Export Plug-In . SVG Version: 6.00 Build 0)  -->
<!DOCTYPE svg PUBLIC "-//W3C//DTD SVG 1.1//EN" "http://www.w3.org/Graphics/SVG/1.1/DTD/svg11.dtd">
<svg version="1.1" id="Ebene_1" xmlns="http://www.w3.org/2000/svg" xmlns:xlink="http://www.w3.org/1999/xlink" x="0px" y="0px"
	 width="322px" height="53px" viewBox="0 0 322 53" enable-background="new 0 0 322 53" xml:space="preserve">
<path fill-rule="evenodd" clip-rule="evenodd" fill="#FFFFFF" d="M317.666,24.195c-3.242,0.84-6.75,1.746-10.598,2.744
	c1.961,1.965,3.678,3.844,5.57,5.527c1.189,1.061,1.258,1.791,0.557,3.309c-1.449,3.139-3.588,4.729-7.004,5.41
	c-5.547,1.109-10.998,2.709-16.477,4.156c-1.004,0.266-1.645,0.072-2.369-0.686c-2.332-2.439-4.756-4.793-7.43-7.463
	c-0.074,0.23-0.135,0.432-0.205,0.629c-1.049,3-3.289,4.189-6.33,4.729c-3.939,0.701-7.809,1.824-11.686,2.85
	c-0.914,0.24-1.438,0.07-2.064-0.625c-2.293-2.551-4.686-5.01-6.998-7.541c-0.686-0.75-1.182-1.031-1.643,0.137
	c-0.277,0.707-0.801,1.051-1.549,1.23c-9.154,2.189-18.295,4.439-27.459,6.592c-2.039,0.479-4.168,0.096-6.252,0.164
	c-0.525,0.016-0.725-0.43-1-0.719c-1.105-1.166-2.172-2.367-3.307-3.617c-0.361,0.506-0.582,0.699-0.662,0.941
	c-1.031,3.064-3.25,3.631-6.225,3.416c-3.559-0.258-7.15-0.061-10.996-0.061c3.82-6.443,7.545-12.727,11.279-19.023
	c-2.381-0.686-2.883-0.508-4.01,1.406c-3.205,5.445-6.439,10.875-9.576,16.359c-0.594,1.041-1.232,1.35-2.387,1.332
	c-4.5-0.072-9.002-0.029-13.797-0.029c3.795-6.482,7.482-12.783,11.184-19.105c-2.781-0.621-2.955-0.547-4.246,1.658
	c-3.197,5.451-6.404,10.895-9.592,16.352c-0.393,0.674-0.746,1.131-1.693,1.125c-8.205-0.051-16.41-0.029-24.617-0.033
	c-0.197,0-0.396-0.039-0.83-0.086c1.979-3.418,3.883-6.703,5.785-9.99c-0.072-0.078-0.146-0.156-0.221-0.234
	c-1.642,0.721-3.337,1.346-4.912,2.195c-1.326,0.715-2.348,0.725-3.271-0.539c-0.839-1.148-1.394-0.754-1.984,0.303
	c-1.385,2.475-2.861,4.898-4.273,7.359c-0.371,0.646-0.75,1.033-1.604,1.02c-3.754-0.055-7.51-0.051-11.264-0.006
	c-1.141,0.014-1.157-0.352-0.629-1.17c0.518-0.807,0.977-1.652,1.639-2.783c-2.659,0.65-5.012,1.215-7.36,1.807
	c-2.697,0.68-5.398,1.352-8.078,2.092c-1.01,0.279-1.703,0.055-2.393-0.729c-1.836-2.094-3.74-4.125-5.838-6.424
	c-1.459,2.484-2.596,4.387-3.693,6.313c-0.309,0.541-0.583,0.898-1.317,0.896c-8.521-0.031-17.041-0.02-25.781-0.02
	c0.742-1.326,1.404-2.51,2.254-4.025c-2.709,0.689-5.109,1.293-7.506,1.91c-2.744,0.707-5.494,1.393-8.221,2.162
	c-0.842,0.24-1.359,0.053-1.959-0.557c-2.373-2.402-4.811-4.74-7.211-7.115c-0.576-0.57-1.102-1.162-1.596,0.043
	c-0.246,0.598-0.803,0.66-1.309,0.785c-8.879,2.189-17.752,4.396-26.643,6.533c-2.311,0.557-4.699,0.105-7.049,0.217
	c-0.494,0.023-0.766-0.344-1.059-0.645c-1.646-1.688-3.248-3.42-4.938-5.064c-0.732-0.715-0.289-1.213,0.061-1.811
	c3.516-6.008,7.025-12.018,10.535-18.029c0.188-0.32,0.355-0.652,0.658-1.211c-2.939,0-5.727,0-8.883,0
	c1.615-2.609,3.219-4.816,4.404-7.227c1.174-2.388,2.758-3.116,5.395-3.022c6.213,0.221,12.439,0.086,18.66,0.059
	c0.947-0.006,1.764,0.193,2.578,0.686c5.498,3.327,11.021,6.612,16.518,9.94c0.826,0.5,1.564,0.684,2.555,0.42
	c5.162-1.377,10.355-2.648,15.525-4.006c0.916-0.24,1.525-0.148,2.229,0.588c2.145,2.248,4.465,4.332,6.584,6.604
	c0.979,1.049,1.324,0.691,1.867-0.303c1.051-1.926,2.193-3.801,3.281-5.705c0.303-0.531,0.58-0.932,1.324-0.926
	c4.605,0.037,9.211,0.02,14.174,0.02c-3.809,6.504-7.487,12.783-11.309,19.311c1.85,0,3.385-0.012,4.92,0.008
	c0.432,0.004,0.592-0.16,0.813-0.547c2.44-4.277,4.942-8.52,7.387-12.795c0.4-0.701,0.881-1.102,1.668-1.301
	c6.529-1.662,13.056-3.33,19.564-5.076c0.926-0.248,1.389,0.09,1.926,0.66c2.455,2.607,4.924,5.203,7.527,7.951
	c1.723-2.92,3.184-5.395,4.717-7.99c2.795,2.6,5.544,5.063,8.17,7.652c0.855,0.842,1.48,0.842,2.494,0.379
	c5.644-2.578,11.333-5.059,16.982-7.629c1.246-0.568,2.469-0.869,3.848-0.863c16.838,0.066,33.676,0.08,50.514,0.164
	c1.244,0.006,1.949-0.346,2.512-1.443c0.828-1.617,1.861-3.127,2.729-4.725c0.402-0.745,0.85-1.091,1.742-1.081
	c4.344,0.047,8.688,0.039,13.031,0.014c0.684-0.004,1.244,0.203,1.809,0.535c4.248,2.497,8.49,5.005,12.764,7.456
	c0.818,0.469,1.092,0.826,0.469,1.678c-0.629,0.861-1.146,1.813-1.637,2.764c-1.094,2.127-2.361,4.068-4.721,4.998
	c-0.852,0.334-0.777,0.736-0.203,1.385c2.398,2.709,2.365,2.721,4.188-0.41c1.967-3.377,3.975-6.73,5.926-10.117
	c0.383-0.664,0.766-1.012,1.605-1.002c4.236,0.047,8.475,0.055,12.711,0c1.291-0.018,1.152,0.402,0.645,1.254
	c-2.662,4.459-5.295,8.938-7.938,13.41c-0.32,0.541-0.754,1.002-0.105,1.691c0.572,0.605,1.047,0.854,1.93,0.688
	c1.439-0.273,2.285-1.008,3.002-2.287c2.586-4.625,5.328-9.164,7.955-13.768c0.48-0.844,0.979-1.225,1.99-1.207
	c3.582,0.066,7.164,0.027,11.064,0.027c-1.059,1.793-1.992,3.385-2.934,4.971c-1.094,1.842-2.166,3.697-3.301,5.512
	c-0.449,0.717-0.406,1.189,0.229,1.781c1.449,1.354,2.826,2.787,4.223,4.195c0.346,0.35,0.674,0.719,1.234,0.545
	c0.352-0.107,0.85-0.152,1.004-0.4c0.246-0.393-0.277-0.615-0.516-0.861c-1.084-1.115-2.146-2.256-3.305-3.289
	c-0.717-0.641-0.689-1.131-0.209-1.9c1.1-1.773,2.205-3.559,3.1-5.438c0.783-1.643,1.93-2.467,3.693-2.852
	c3.814-0.828,7.588-1.84,11.373-2.793c0.59-0.148,1.104-0.287,1.611,0.256C311.994,18.201,314.828,21.188,317.666,24.195z
	 M12.562,15.811c2.318,0,4.502-0.008,6.684,0.004c1.91,0.01,1.916,0.021,0.99,1.607c-3.74,6.416-7.48,12.83-11.229,19.242
	c-1.184,2.027-1.258,2.098,0.559,3.646c0.918,0.781,1.416,2.242,2.742,2.32c1.912,0.111,3.861,0.271,5.764-0.197
	c8.297-2.039,16.59-4.098,24.889-6.129c0.785-0.193,1.281-0.576,1.688-1.301c2.451-4.385,4.924-8.758,7.477-13.086
	c0.584-0.992,0.398-1.408-0.523-1.947c-4.707-2.76-9.387-5.566-14.063-8.379c-0.723-0.434-1.467-0.574-2.295-0.572
	c-4.986,0.018-9.998,0.311-14.953-0.092c-3.779-0.309-6.213,0.783-7.559,4.289C12.695,15.314,12.675,15.416,12.562,15.811z
	 M236.564,11.061c-2.619,0-4.387,0.033-6.154-0.014c-0.842-0.021-1.328,0.252-1.773,1.02c-4.734,8.184-9.518,16.336-14.287,24.498
	c-1.322,2.262-1.336,2.279,0.574,4.08c0.795,0.748,1.314,1.955,2.535,2.055c1.756,0.143,3.533,0.148,5.27-0.277
	c7.717-1.893,15.404-3.912,23.162-5.613c2.35-0.516,3.768-1.574,4.775-3.635c0.408-0.84,0.361-1.314-0.252-1.943
	c-1.381-1.414-2.689-2.9-4.064-4.324c-0.799-0.828-0.906-1.295,0.305-1.949c2.592-1.404,5.303-2.721,6.469-5.811
	c0.336-0.893,0.547-1.338-0.473-1.863c-1.75-0.898-3.475-1.879-5.098-2.99C243.963,11.836,240.211,10.129,236.564,11.061z
	 M158.238,28.918c-0.408,0.766-0.572,1.1-0.76,1.418c-2.111,3.596-4.236,7.184-6.336,10.787c-0.833,1.434-0.76,1.539,0.877,1.539
	c1.822,0,3.645-0.051,5.465,0.014c0.816,0.029,1.264-0.287,1.654-0.949c4.143-7.051,8.314-14.084,12.443-21.143
	c0.408-0.699,1.535-1.598,0.98-2.127c-0.627-0.598-1.932-0.234-2.934-0.055c-0.307,0.055-0.588,0.246-0.881,0.377
	c-6.434,2.852-12.873,5.686-19.289,8.578c-0.727,0.326-1.125,0.217-1.664-0.291c-2.141-2.016-4.358-3.951-6.475-5.99
	c-0.762-0.736-1.068-0.486-1.504,0.266c-1.596,2.773-3.232,5.525-4.855,8.283c-2.271,3.865-4.531,7.736-6.822,11.59
	c-0.592,0.994-0.652,1.541,0.785,1.467c1.443-0.072,2.895-0.07,4.338,0.004c0.936,0.047,1.436-0.324,1.887-1.119
	c1.789-3.152,3.662-6.258,5.477-9.395c0.348-0.602,0.658-0.785,1.209-0.242c0.675,0.666,1.457,1.24,2.062,1.963
	c0.684,0.816,1.344,0.811,2.242,0.4c2.145-0.982,4.207-2.139,6.447-2.932C154.38,30.727,156.089,29.857,158.238,28.918z
	 M56.861,42.639c0.365-0.096,0.521-0.139,0.676-0.18c5.471-1.41,10.943-2.822,16.416-4.227c0.559-0.143,0.916-0.457,1.205-0.959
	c1.955-3.381,3.916-6.758,5.924-10.109c0.432-0.723,0.43-1.252-0.174-1.84c-2.225-2.162-4.455-4.318-6.623-6.535
	c-0.584-0.6-1.119-0.643-1.848-0.453c-5.506,1.436-11.018,2.844-16.527,4.262c-0.898,0.23-1.561,0.652-2.057,1.549
	c-1.701,3.082-3.498,6.113-5.328,9.119c-0.445,0.732-0.457,1.148,0.186,1.756c2.418,2.279,4.777,4.619,7.156,6.939
	C56.208,42.295,56.498,42.713,56.861,42.639z M125.459,18.123c-0.15,0.055-0.297,0.123-0.451,0.164
	c-5.79,1.488-11.575,2.992-17.373,4.441c-0.73,0.184-1.059,0.633-1.387,1.193c-1.807,3.092-3.578,6.205-5.461,9.252
	c-0.527,0.854-0.311,1.326,0.295,1.91c2.381,2.293,4.752,4.596,7.105,6.914c0.459,0.451,0.871,0.621,1.551,0.443
	c5.375-1.402,10.763-2.754,16.15-4.113c0.602-0.15,1.027-0.441,1.355-1.004c2.053-3.502,4.131-6.99,6.227-10.467
	c0.363-0.602,0.35-1.023-0.178-1.531c-2.309-2.229-4.586-4.494-6.877-6.742C126.152,18.326,125.898,18.023,125.459,18.123z
	 M271.291,18.324c-2.832,0-5.348,0.027-7.859-0.018c-0.76-0.014-0.986,0.451-1.289,0.969c-2.617,4.467-5.229,8.938-7.893,13.377
	c-0.541,0.902-0.441,1.551,0.252,2.275c2.18,2.277,4.348,4.564,6.477,6.889c0.594,0.648,1.17,0.738,1.992,0.525
	c3.918-1.012,7.838-2.02,11.785-2.902c1.074-0.24,1.703-0.824,2.195-1.652c1.307-2.203,2.551-4.443,3.85-6.65
	c2.299-3.912,4.627-7.809,6.922-11.723c0.193-0.33,0.846-1.006,0.047-1.086c-1.695-0.172-3.422-0.031-5.137-0.014
	c-0.352,0.004-0.35,0.313-0.479,0.535c-2.221,3.836-4.578,7.598-6.646,11.512c-1.396,2.646-2.805,4.688-6.189,5.203
	c-1.563,0.238-2.281,0.342-3.297-0.869c-2.531-3.014-2.59-2.959-0.633-6.285C267.303,25.15,269.207,21.885,271.291,18.324z
	 M313.125,22.662c-1.6-1.578-3.027-2.941-4.398-4.359c-0.561-0.578-1.154-0.447-1.773-0.293c-2.023,0.5-4.016,1.293-6.064,1.477
	c-3.912,0.348-6.205,2.424-7.646,5.904c-0.393,0.947-0.469,1.494,0.264,2.215c1.709,1.686,3.311,3.484,5.059,5.129
	c0.85,0.799,0.443,0.996-0.318,1.197c-1.705,0.451-3.426,0.844-5.119,1.328c-1.324,0.381-2.346,0.17-3.242-0.982
	c-0.748-0.963-1.713-1.758-2.578-2.629c-2.189-2.201-2.189-2.201-3.74,0.396c-0.385,0.645-0.764,1.291-1.15,1.934
	c-0.375,0.625-0.357,1.143,0.213,1.701c2.141,2.1,4.24,4.24,6.35,6.373c0.367,0.369,0.738,0.525,1.281,0.385
	c6.102-1.578,12.215-3.109,18.307-4.719c1.432-0.379,1.57-1.932,2.141-3.01c0.367-0.693-0.576-1.15-1.033-1.611
	c-2.176-2.203-4.396-4.363-6.582-6.557c-0.281-0.281-0.801-0.559-0.635-0.988c0.092-0.24,0.619-0.357,0.973-0.447
	C306.568,24.303,309.711,23.52,313.125,22.662z M191.181,23.363c0.088,0.623-0.256,0.932-0.463,1.285
	c-3.264,5.578-6.537,11.152-9.816,16.721c-0.465,0.789-0.75,1.342,0.633,1.297c2.248-0.074,4.5-0.014,6.75-0.021
	c0.609-0.002,1-0.203,1.363-0.832c3.359-5.82,6.805-11.594,10.182-17.404c0.467-0.805,1.012-1.1,1.92-1.082
	c2.41,0.049,4.821,0.018,7.233,0.006c0.467-0.002,1.033,0.162,1.338-0.324c0.918-1.467,1.789-2.965,2.816-4.678
	c-0.688,0-1.002,0-1.316,0c-7.608-0.018-15.221,0.158-22.817-0.141c-3.188-0.125-5.295,0.576-6.314,3.684
	c-0.141,0.434-0.764,0.768-0.494,1.25c0.273,0.492,0.887,0.225,1.342,0.229C186.089,23.375,188.644,23.363,191.181,23.363z
	 M97.863,18.332c-2.86,0-5.42,0.016-7.983-0.012c-0.514-0.006-0.729,0.223-0.969,0.629c-0.758,1.287-1.658,2.494-2.352,3.813
	c-3.258,6.199-7.055,12.088-10.438,18.213c-0.264,0.477-1.004,0.916-0.621,1.508c0.287,0.441,0.998,0.182,1.516,0.182
	c4.826,0.016,9.666-0.205,14.477,0.086c2.916,0.178,4.793-0.598,5.766-3.363c0.186-0.531,0.955-0.971,0.582-1.541
	c-0.281-0.432-1-0.164-1.522-0.166c-3.184-0.014-6.365-0.008-9.807-0.008C90.349,31.137,94.021,24.881,97.863,18.332z
	 M217.521,25.672c-2.746,0-5.197,0.053-7.643-0.027c-0.895-0.029-1.334,0.291-1.76,1.02c-2.92,4.984-5.868,9.953-8.84,14.904
	c-0.551,0.918-0.234,1.088,0.652,1.08c2.092-0.021,4.184-0.068,6.272,0.021c0.953,0.041,1.447-0.344,1.889-1.096
	c2.135-3.646,4.297-7.275,6.451-10.91C215.484,29.078,216.434,27.498,217.521,25.672z M175.849,25.682
	c-1.07,0-2.143-0.006-3.213,0.002c-0.484,0.004-0.863,0.061-1.174,0.596c-2.973,5.123-5.977,10.229-9.014,15.314
	c-0.57,0.955-0.188,1.086,0.66,1.08c1.928-0.014,3.859-0.072,5.785,0.01c1.178,0.051,1.811-0.42,2.385-1.42
	c2.762-4.813,5.59-9.586,8.43-14.352c0.527-0.885,0.629-1.326-0.645-1.246C177.996,25.734,176.921,25.68,175.849,25.682z
	 M216.809,23.334c0.83-0.16,1.953,0.451,2.609-0.783c0.623-1.174,1.334-2.301,2.004-3.451c0.186-0.314,0.496-0.791-0.145-0.816
	c-1.539-0.064-3.115-0.174-4.615,0.09c-0.842,0.148-1.082,1.344-1.527,2.104C213.471,23.32,213.482,23.326,216.809,23.334z
	 M181.57,18.275c-1.783,0-3.271,0.023-4.758-0.014c-0.531-0.014-0.752,0.26-0.975,0.654c-0.654,1.16-1.287,2.336-2.014,3.451
	c-0.477,0.732-0.24,0.963,0.496,0.973c1.174,0.016,2.35-0.01,3.523,0c0.531,0.004,0.889-0.195,1.158-0.674
	C179.785,21.283,180.603,19.92,181.57,18.275z"/>
<path fill-rule="evenodd" clip-rule="evenodd" fill="none" d="M236.564,11.061c3.646-0.932,7.398,0.775,10.988,3.232
	c1.623,1.111,3.348,2.092,5.098,2.99c1.02,0.525,0.809,0.971,0.473,1.863c-1.166,3.09-3.877,4.406-6.469,5.811
	c-1.211,0.654-1.104,1.121-0.305,1.949c1.375,1.424,2.684,2.91,4.064,4.324c0.613,0.629,0.66,1.104,0.252,1.943
	c-1.008,2.061-2.426,3.119-4.775,3.635c-7.758,1.701-15.445,3.721-23.162,5.613c-1.736,0.426-3.514,0.42-5.27,0.277
	c-1.221-0.1-1.74-1.307-2.535-2.055c-1.91-1.801-1.896-1.818-0.574-4.08c4.77-8.162,9.553-16.314,14.287-24.498
	c0.445-0.768,0.932-1.041,1.773-1.02C232.178,11.094,233.945,11.061,236.564,11.061z M223.875,35.268
	c0.092,0.139,0.184,0.277,0.277,0.414c2.459-1.021,5.109-1.115,7.643-1.879c3.354-1.008,6.793-1.732,10.213-2.506
	c1.094-0.25,1.086-0.48,0.334-1.23c-1.438-1.436-2.723-3.023-4.172-4.445c-0.963-0.945-0.725-1.357,0.352-1.941
	c2.029-1.098,3.979-2.342,6.131-3.625c-2.279-1.398-4.283-2.713-6.371-3.877c-1.182-0.66-3.34-0.023-3.941,1.006
	c-1.748,2.986-3.479,5.982-5.211,8.977C227.375,29.195,225.625,32.232,223.875,35.268z"/>
<path fill-rule="evenodd" clip-rule="evenodd" fill="none" d="M158.238,28.918c-2.148,0.939-3.857,1.809-5.652,2.443
	c-2.24,0.793-4.302,1.949-6.447,2.932c-0.898,0.41-1.559,0.416-2.242-0.4c-0.605-0.723-1.387-1.297-2.062-1.963
	c-0.551-0.543-0.861-0.359-1.209,0.242c-1.814,3.137-3.688,6.242-5.477,9.395c-0.451,0.795-0.951,1.166-1.887,1.119
	c-1.443-0.074-2.895-0.076-4.338-0.004c-1.438,0.074-1.377-0.473-0.785-1.467c2.291-3.854,4.551-7.725,6.822-11.59
	c1.623-2.758,3.26-5.51,4.855-8.283c0.436-0.752,0.742-1.002,1.504-0.266c2.117,2.039,4.333,3.975,6.475,5.99
	c0.539,0.508,0.938,0.617,1.664,0.291c6.416-2.893,12.855-5.727,19.289-8.578c0.293-0.131,0.574-0.322,0.881-0.377
	c1.002-0.18,2.307-0.543,2.934,0.055c0.555,0.529-0.572,1.428-0.98,2.127c-4.129,7.059-8.301,14.092-12.443,21.143
	c-0.391,0.662-0.838,0.979-1.654,0.949c-1.82-0.064-3.643-0.014-5.465-0.014c-1.637,0-1.71-0.105-0.877-1.539
	c2.1-3.604,4.225-7.191,6.336-10.787C157.666,30.018,157.83,29.684,158.238,28.918z"/>
<path fill-rule="evenodd" clip-rule="evenodd" fill="none" d="M125.459,18.121c0.439-0.098,0.693,0.205,0.957,0.463
	c2.291,2.248,4.568,4.514,6.877,6.742c0.527,0.508,0.541,0.93,0.178,1.531c-2.096,3.477-4.174,6.965-6.227,10.467
	c-0.328,0.563-0.754,0.854-1.355,1.004c-5.387,1.359-10.776,2.711-16.15,4.113c-0.68,0.178-1.092,0.008-1.551-0.443
	c-2.354-2.318-4.725-4.621-7.105-6.914c-0.605-0.584-0.822-1.057-0.295-1.91c1.883-3.047,3.654-6.16,5.461-9.252
	c0.328-0.561,0.656-1.01,1.387-1.193c5.798-1.449,11.583-2.953,17.373-4.441C125.162,18.246,125.309,18.178,125.459,18.121z
	 M120.632,24.074c-2.734,0.68-5.367,1.338-8.004,1.982c-0.324,0.08-0.373,0.342-0.501,0.564c-0.883,1.521-1.73,3.066-2.674,4.551
	c-0.391,0.615-0.377,1.066,0.113,1.549c1.186,1.16,2.391,2.301,3.544,3.488c0.432,0.443,0.867,0.563,1.438,0.404
	c2.008-0.557,4.014-1.121,6.033-1.641c0.563-0.145,0.957-0.42,1.24-0.914c1.01-1.76,2.028-3.516,3.049-5.268
	c0.262-0.449,0.396-0.801-0.107-1.244c-1.08-0.947-2.096-1.967-3.118-2.979C121.326,24.25,121.011,23.996,120.632,24.074z"/>
<path fill-rule="evenodd" clip-rule="evenodd" fill="none" d="M271.291,18.324c-2.084,3.561-3.988,6.826-5.902,10.086
	c-1.957,3.326-1.898,3.271,0.633,6.285c1.016,1.211,1.734,1.107,3.297,0.869c3.385-0.516,4.793-2.557,6.189-5.203
	c2.068-3.914,4.426-7.676,6.646-11.512c0.129-0.223,0.127-0.531,0.479-0.535c1.715-0.018,3.441-0.158,5.137,0.014
	c0.799,0.08,0.146,0.756-0.047,1.086c-2.295,3.914-4.623,7.811-6.922,11.723c-1.299,2.207-2.543,4.447-3.85,6.65
	c-0.492,0.828-1.121,1.412-2.195,1.652c-3.947,0.883-7.867,1.891-11.785,2.902c-0.822,0.213-1.398,0.123-1.992-0.525
	c-2.129-2.324-4.297-4.611-6.477-6.889c-0.693-0.725-0.793-1.373-0.252-2.275c2.664-4.439,5.275-8.91,7.893-13.377
	c0.303-0.518,0.529-0.982,1.289-0.969C265.943,18.352,268.459,18.324,271.291,18.324z"/>
<path fill-rule="evenodd" clip-rule="evenodd" fill="none" d="M313.125,22.662c-3.414,0.857-6.557,1.641-9.695,2.443
	c-0.354,0.09-0.881,0.207-0.973,0.447c-0.166,0.43,0.354,0.707,0.635,0.988c2.186,2.193,4.406,4.354,6.582,6.557
	c0.457,0.461,1.4,0.918,1.033,1.611c-0.57,1.078-0.709,2.631-2.141,3.01c-6.092,1.609-12.205,3.141-18.307,4.719
	c-0.543,0.141-0.914-0.016-1.281-0.385c-2.109-2.133-4.209-4.273-6.35-6.373c-0.57-0.559-0.588-1.076-0.213-1.701
	c0.387-0.643,0.766-1.289,1.15-1.934c1.551-2.598,1.551-2.598,3.74-0.396c0.865,0.871,1.83,1.666,2.578,2.629
	c0.896,1.152,1.918,1.363,3.242,0.982c1.693-0.484,3.414-0.877,5.119-1.328c0.762-0.201,1.168-0.398,0.318-1.197
	c-1.748-1.645-3.35-3.443-5.059-5.129c-0.732-0.721-0.656-1.268-0.264-2.215c1.441-3.48,3.734-5.557,7.646-5.904
	c2.049-0.184,4.041-0.977,6.064-1.477c0.619-0.154,1.213-0.285,1.773,0.293C310.098,19.721,311.525,21.084,313.125,22.662z"/>
<path fill-rule="evenodd" clip-rule="evenodd" fill="none" d="M191.181,23.363c-2.537,0-5.092,0.012-7.645-0.012
	c-0.455-0.004-1.068,0.264-1.342-0.229c-0.27-0.482,0.354-0.816,0.494-1.25c1.02-3.107,3.127-3.809,6.314-3.684
	c7.596,0.299,15.209,0.123,22.817,0.141c0.314,0,0.629,0,1.316,0c-1.027,1.713-1.898,3.211-2.816,4.678
	c-0.305,0.486-0.871,0.322-1.338,0.324c-2.412,0.012-4.823,0.043-7.233-0.006c-0.908-0.018-1.453,0.277-1.92,1.082
	c-3.377,5.811-6.822,11.584-10.182,17.404c-0.363,0.629-0.754,0.83-1.363,0.832c-2.25,0.008-4.502-0.053-6.75,0.021
	c-1.383,0.045-1.098-0.508-0.633-1.297c3.279-5.568,6.553-11.143,9.816-16.721C190.925,24.295,191.269,23.986,191.181,23.363z"/>
<path fill-rule="evenodd" clip-rule="evenodd" fill="none" d="M97.863,18.332c-3.842,6.549-7.514,12.805-11.35,19.34
	c3.441,0,6.623-0.006,9.807,0.008c0.521,0.002,1.241-0.266,1.522,0.166c0.373,0.57-0.396,1.01-0.582,1.541
	c-0.973,2.766-2.85,3.541-5.766,3.363c-4.811-0.291-9.65-0.07-14.477-0.086c-0.518,0-1.229,0.26-1.516-0.182
	c-0.383-0.592,0.357-1.031,0.621-1.508c3.383-6.125,7.18-12.014,10.438-18.213c0.693-1.318,1.594-2.525,2.352-3.813
	c0.24-0.406,0.455-0.635,0.969-0.629C92.443,18.348,95.003,18.332,97.863,18.332z"/>
<path fill-rule="evenodd" clip-rule="evenodd" fill="none" d="M217.521,25.672c-1.088,1.826-2.037,3.406-2.979,4.992
	c-2.154,3.635-4.316,7.264-6.451,10.91c-0.441,0.752-0.936,1.137-1.889,1.096c-2.088-0.09-4.18-0.043-6.272-0.021
	c-0.887,0.008-1.203-0.162-0.652-1.08c2.973-4.951,5.92-9.92,8.84-14.904c0.426-0.729,0.865-1.049,1.76-1.02
	C212.324,25.725,214.775,25.672,217.521,25.672z"/>
<path fill-rule="evenodd" clip-rule="evenodd" fill="none" d="M175.849,25.682c1.072-0.002,2.146,0.053,3.215-0.016
	c1.273-0.08,1.172,0.361,0.645,1.246c-2.84,4.766-5.668,9.539-8.43,14.352c-0.574,1-1.207,1.471-2.385,1.42
	c-1.926-0.082-3.857-0.023-5.785-0.01c-0.848,0.006-1.23-0.125-0.66-1.08c3.037-5.086,6.041-10.191,9.014-15.314
	c0.311-0.535,0.689-0.592,1.174-0.596C173.707,25.676,174.779,25.682,175.849,25.682z"/>
<path fill-rule="evenodd" clip-rule="evenodd" fill="none" d="M216.809,23.334c-3.326-0.008-3.338-0.014-1.674-2.857
	c0.445-0.76,0.686-1.955,1.527-2.104c1.5-0.264,3.076-0.154,4.615-0.09c0.641,0.025,0.33,0.502,0.145,0.816
	c-0.67,1.15-1.381,2.277-2.004,3.451C218.762,23.785,217.639,23.174,216.809,23.334z"/>
<path fill-rule="evenodd" clip-rule="evenodd" fill="none" d="M181.57,18.275c-0.967,1.645-1.785,3.008-2.568,4.391
	c-0.27,0.479-0.627,0.678-1.158,0.674c-1.174-0.01-2.35,0.016-3.523,0c-0.736-0.01-0.973-0.24-0.496-0.973
	c0.727-1.115,1.359-2.291,2.014-3.451c0.223-0.395,0.443-0.668,0.975-0.654C178.298,18.299,179.787,18.275,181.57,18.275z"/>
<path fill-rule="evenodd" clip-rule="evenodd" fill="#FFFFFF" d="M18.183,35.736c1.963-3.328,3.828-6.492,5.693-9.656
	c1.734-2.941,3.457-5.891,5.205-8.824c0.902-1.518,2.258-2.066,3.844-1.176c3.303,1.854,6.488,3.914,9.727,5.883
	c0.574,0.348,0.43,0.77,0.168,1.223C41.427,25.592,40.041,28,38.644,30.4c-0.248,0.426-0.59,0.691-1.117,0.82
	c-6.162,1.486-12.316,3.006-18.475,4.51C18.859,35.777,18.644,35.736,18.183,35.736z M23.298,31.842
	c2.934-0.707,5.563-1.34,8.191-1.977c4.863-1.176,4.863-1.176,7.275-5.598c0.025-0.047,0.051-0.096,0.084-0.137
	c0.473-0.582,0.393-0.982-0.285-1.391c-2.152-1.295-4.268-2.648-6.402-3.973c-0.525-0.326-0.969-0.332-1.334,0.291
	C28.378,23.238,25.912,27.408,23.298,31.842z"/>
<path fill-rule="evenodd" clip-rule="evenodd" fill="#FFFFFF" d="M223.875,35.268c1.75-3.035,3.5-6.072,5.254-9.107
	c1.732-2.994,3.463-5.99,5.211-8.977c0.602-1.029,2.76-1.666,3.941-1.006c2.088,1.164,4.092,2.479,6.371,3.877
	c-2.152,1.283-4.102,2.527-6.131,3.625c-1.076,0.584-1.314,0.996-0.352,1.941c1.449,1.422,2.734,3.01,4.172,4.445
	c0.752,0.75,0.76,0.98-0.334,1.23c-3.42,0.773-6.859,1.498-10.213,2.506c-2.533,0.764-5.184,0.857-7.643,1.879
	C224.059,35.545,223.967,35.406,223.875,35.268z M233.027,24.33c-1.422,2.467-2.727,4.729-4.217,7.311
	c3.188-0.777,5.951-1.449,8.955-2.18C236.121,27.678,234.645,26.082,233.027,24.33z M239.096,20.025
	c-0.752-0.436-1.396-0.783-2.014-1.176c-0.486-0.307-0.793-0.133-1.037,0.295c-0.688,1.203-1.367,2.41-2.049,3.617
	c0.074,0.063,0.15,0.127,0.225,0.191C235.791,22.01,237.359,21.068,239.096,20.025z"/>
<path fill-rule="evenodd" clip-rule="evenodd" fill="#FFFFFF" d="M61.974,36.695c-0.6,0.045-0.91-0.223-1.223-0.537
	c-1.125-1.133-2.254-2.266-3.402-3.375c-0.508-0.49-0.545-0.914-0.158-1.533c0.904-1.443,1.742-2.928,2.563-4.42
	c0.262-0.473,0.607-0.672,1.109-0.795c2.326-0.574,4.645-1.18,6.961-1.791c0.426-0.111,0.828-0.248,1.199,0.1
	c1.209,1.129,2.434,2.244,3.613,3.402c0.438,0.43,0.104,0.871-0.15,1.295c-0.604,1.006-1.313,1.979-1.74,3.059
	c-1.113,2.809-3.445,3.561-6.1,3.934C63.703,36.166,62.787,36.488,61.974,36.695z M69.152,28.83
	c-0.037-0.844-1.486-1.846-2.273-1.666c-1.191,0.271-2.359,0.73-3.564,0.844c-2.074,0.197-2.451,1.949-3.318,3.275
	c-0.301,0.459,0.1,0.719,0.34,0.936c0.637,0.578,1.049,1.797,2.072,1.469c1.67-0.535,3.703-0.268,4.938-1.82
	C68.095,30.924,68.597,29.783,69.152,28.83z"/>
<path fill-rule="evenodd" clip-rule="evenodd" fill="#FFFFFF" d="M120.632,24.074c0.379-0.078,0.693,0.176,1.014,0.494
	c1.021,1.012,2.038,2.031,3.118,2.979c0.504,0.443,0.369,0.795,0.107,1.244c-1.021,1.752-2.04,3.508-3.049,5.268
	c-0.283,0.494-0.678,0.77-1.24,0.914c-2.02,0.52-4.025,1.084-6.033,1.641c-0.57,0.158-1.006,0.039-1.438-0.404
	c-1.154-1.188-2.359-2.328-3.544-3.488c-0.49-0.482-0.504-0.934-0.113-1.549c0.943-1.484,1.791-3.029,2.674-4.551
	c0.129-0.223,0.178-0.484,0.501-0.564C115.265,25.412,117.898,24.754,120.632,24.074z M119.376,27.018
	c-1.008,0.271-2.125,0.732-3.275,0.844c-1.84,0.18-2.842,1.203-3.521,2.779c-0.211,0.494-0.656,0.965-0.094,1.418
	c0.713,0.574,1.117,1.834,2.215,1.586c2.551-0.576,5.301-0.881,6.289-4.053C121.359,28.41,120.755,27.027,119.376,27.018z"/>
<path fill-rule="evenodd" clip-rule="evenodd" fill="none" d="M23.298,31.842c2.613-4.434,5.08-8.604,7.529-12.783
	c0.365-0.623,0.809-0.617,1.334-0.291c2.135,1.324,4.25,2.678,6.402,3.973c0.678,0.408,0.758,0.809,0.285,1.391
	c-0.033,0.041-0.059,0.09-0.084,0.137c-2.412,4.422-2.412,4.422-7.275,5.598C28.861,30.502,26.232,31.135,23.298,31.842z
	 M29.38,28.273c1.225-0.291,2.711-0.721,4.225-0.984c1.67-0.293,2.223-1.664,2.641-2.893c0.432-1.268-1.178-1.215-1.797-1.836
	c-0.402-0.402-0.965-0.67-1.494-0.916c-0.484-0.225-1.068-0.408-1.428,0.191c-1.07,1.785-2.133,3.578-3.135,5.404
	C28.044,27.873,28.183,28.406,29.38,28.273z"/>
<path fill-rule="evenodd" clip-rule="evenodd" fill="none" d="M233.027,24.33c1.617,1.752,3.094,3.348,4.738,5.131
	c-3.004,0.73-5.768,1.402-8.955,2.18C230.301,29.059,231.605,26.797,233.027,24.33z"/>
<path fill-rule="evenodd" clip-rule="evenodd" fill="none" d="M239.096,20.025c-1.736,1.043-3.305,1.984-4.875,2.928
	c-0.074-0.064-0.15-0.129-0.225-0.191c0.682-1.207,1.361-2.414,2.049-3.617c0.244-0.428,0.551-0.602,1.037-0.295
	C237.699,19.242,238.344,19.59,239.096,20.025z"/>
<path fill-rule="evenodd" clip-rule="evenodd" fill="none" d="M69.152,28.83c-0.555,0.953-1.057,2.094-1.807,3.037
	c-1.234,1.553-3.268,1.285-4.938,1.82c-1.023,0.328-1.436-0.891-2.072-1.469c-0.24-0.217-0.641-0.477-0.34-0.936
	c0.867-1.326,1.244-3.078,3.318-3.275c1.205-0.113,2.373-0.572,3.564-0.844C67.666,26.984,69.115,27.986,69.152,28.83z"/>
<path fill-rule="evenodd" clip-rule="evenodd" fill="none" d="M119.376,27.018c1.379,0.01,1.982,1.393,1.613,2.574
	c-0.988,3.172-3.738,3.477-6.289,4.053c-1.098,0.248-1.502-1.012-2.215-1.586c-0.562-0.453-0.117-0.924,0.094-1.418
	c0.68-1.576,1.682-2.6,3.521-2.779C117.251,27.75,118.369,27.289,119.376,27.018z"/>
<path fill-rule="evenodd" clip-rule="evenodd" fill="#FFFFFF" d="M29.38,28.273c-1.197,0.133-1.336-0.4-0.988-1.033
	c1.002-1.826,2.064-3.619,3.135-5.404c0.359-0.6,0.943-0.416,1.428-0.191c0.529,0.246,1.092,0.514,1.494,0.916
	c0.619,0.621,2.229,0.568,1.797,1.836c-0.418,1.229-0.971,2.6-2.641,2.893C32.091,27.553,30.605,27.982,29.38,28.273z M29.98,26.889
	c1.492-0.355,2.57-0.609,3.645-0.869c0.744-0.18,0.918-0.885,1.133-1.436c0.199-0.506-0.465-0.598-0.76-0.869
	c-1.156-1.07-1.939-0.871-2.533,0.6C31.15,25.094,30.626,25.787,29.98,26.889z"/>
<path fill-rule="evenodd" clip-rule="evenodd" fill="none" d="M29.98,26.889c0.646-1.102,1.17-1.795,1.484-2.574
	c0.594-1.471,1.377-1.67,2.533-0.6c0.295,0.271,0.959,0.363,0.76,0.869c-0.215,0.551-0.389,1.256-1.133,1.436
	C32.55,26.279,31.472,26.533,29.98,26.889z"/>
</svg>
