<?xml version="1.0" encoding="utf-8"?>
<!-- Generator: Adobe Illustrator 19.0.0, SVG Export Plug-In . SVG Version: 6.00 Build 0)  -->
<svg version="1.1" id="Ebene_1" xmlns="http://www.w3.org/2000/svg" xmlns:xlink="http://www.w3.org/1999/xlink" x="0px" y="0px"
	 viewBox="0 0 520.7 242.4" style="enable-background:new 0 0 520.7 242.4;" xml:space="preserve">
<style type="text/css">
	.st0{fill-rule:evenodd;clip-rule:evenodd;fill:#FFFFFF;}
</style>
<path class="st0" d="M206.3,52.7c25.6,0,50.9,0,76.8,0c-1.8,6.8-3.4,13.4-5.4,19.8c-0.3,1-2.9,1.8-4.5,1.8
	c-11.8,0.1-23.6,0.1-35.5,0.1c-1.8,0-3.6,0-5.6,0c0,12.3,0,24.1,0,36.5c14.9,0,29.8,0,45,0c0,7.5,0,14.4,0,21.7
	c-14.9,0-29.7,0-44.8,0c0,13.3,0,26.1,0,39.4c17.2,0,34.3,0,51.8,0c0,7.4,0,14.4,0,21.7c-25.9,0-51.7,0-77.8,0
	C206.3,146.8,206.3,100,206.3,52.7z"/>
<path class="st0" d="M134,74.4c0,12.9,0,24.6,0,37c15,0,29.7,0,44.6,0c0,7.4,0,14.1,0,21.5c-14.8,0-29.5,0-44.8,0
	c0,20.5,0,40.4,0,60.6c-8.9,0-17.3,0-26,0c0-46.9,0-93.7,0-140.8c25.7,0,51.3,0,77.3,0c-1.8,6.6-3.3,12.9-5.3,19
	c-0.4,1.2-2.9,2.4-4.4,2.4c-12,0.2-24,0.1-36,0.1C137.8,74.4,136,74.4,134,74.4z"/>
<path class="st0" d="M67.5,12.3c6.5,0,12.4,0,18.9,0c-0.9,3.5-1.6,6.7-2.5,9.8C65.5,91.1,47.1,160,28.8,228.9c-1.1,4-2.7,5.4-6.8,5
	c-4.3-0.4-8.6-0.1-13.8-0.1C28,159.8,47.7,86.3,67.5,12.3z"/>
<path class="st0" d="M448.7,233.7c-6.5,0-12.3,0-18.6,0c0.2-1.5,0.3-2.7,0.6-3.9c18.9-71,37.9-142,56.8-213c0.9-3.5,2.2-5,6-4.7
	c4.6,0.4,9.3,0.1,14.4,0.1C488.1,86.2,468.4,159.9,448.7,233.7z"/>
<path class="st0" d="M370.6,128.9c0.1,0,1-0.5,1.8-0.9c16.2-8.6,24.6-24.2,22.3-41.1c-2.3-17-12.8-29.2-31.6-31.9
	c-18.5-2.6-37.4-2.2-56.5-3.1c0,48.1,0,94.8,0,141.7c8.7,0,17,0,25.8,0c0-18.4,0-36.5,0-54.6c9.6-2.7,15.8,0.4,20.3,8.1
	c7.9,13.5,16.5,26.5,24.3,40.1c2.9,5.1,6,7.4,12.1,6.8c7-0.6,14-0.1,22.4-0.1C397.4,171.4,384,150.1,370.6,128.9z M368.6,97.6
	c-1.2,10.5-8.4,18.9-18.3,20.2c-5.7,0.7-11.5,0.1-17.7,0.1c0-14.5,0-28.5,0-43.2c8.1,0.2,16.2-1.2,24,1.9
	C365,80.2,369.7,88.4,368.6,97.6z"/>
</svg>
