<?xml version="1.0" encoding="utf-8"?>
<!-- Generator: Adobe Illustrator 16.0.3, SVG Export Plug-In . SVG Version: 6.00 Build 0)  -->
<!DOCTYPE svg PUBLIC "-//W3C//DTD SVG 1.1//EN" "http://www.w3.org/Graphics/SVG/1.1/DTD/svg11.dtd">
<svg version="1.1" id="Ebene_1" xmlns="http://www.w3.org/2000/svg" xmlns:xlink="http://www.w3.org/1999/xlink" x="0px" y="0px"
	 width="54.333px" height="54.5px" viewBox="0 0 54.333 54.5" enable-background="new 0 0 54.333 54.5" xml:space="preserve">
<path fill-rule="evenodd" clip-rule="evenodd" fill="#FFFFFF" d="M1.395,27.433c0-8.198,0.016-16.396-0.021-24.594
	c-0.004-0.971,0.218-1.277,1.24-1.275c16.396,0.033,32.792,0.037,49.188-0.004c1.158-0.002,1.371,0.374,1.369,1.43
	c-0.03,16.437-0.03,32.872,0.001,49.308c0.002,1.008-0.279,1.263-1.27,1.261C35.466,53.53,19.03,53.528,2.594,53.562
	c-1.048,0.002-1.223-0.352-1.219-1.295C1.41,43.989,1.395,35.711,1.395,27.433z M27.313,49.316c6.837,0,13.675-0.016,20.512,0.019
	c0.876,0.005,1.151-0.205,1.149-1.123c-0.03-13.755-0.031-27.51,0.001-41.265c0.002-0.969-0.292-1.187-1.213-1.185
	c-13.715,0.027-27.43,0.028-41.145,0c-0.895-0.002-1.14,0.23-1.138,1.134C5.508,20.65,5.51,34.406,5.476,48.16
	c-0.002,0.972,0.291,1.18,1.205,1.175C13.558,49.299,20.435,49.315,27.313,49.316z M48.824,49.722
	c0.018-0.039,0.035-0.077,0.053-0.115c-14.364,0-28.729,0-43.093,0c0,0.038,0,0.076,0,0.115
	C20.131,49.722,34.478,49.722,48.824,49.722z M48.64,5.518c0-0.027,0-0.055,0-0.083c-14.286,0-28.571,0-42.856,0
	c0,0.028,0,0.055,0,0.083C20.068,5.518,34.354,5.518,48.64,5.518z M49.356,6.15c-0.039-0.016-0.078-0.033-0.116-0.049
	c0,14.285,0,28.57,0,42.856c0.039-0.001,0.078-0.001,0.116-0.001C49.356,34.688,49.356,20.418,49.356,6.15z"/>
<path fill-rule="evenodd" clip-rule="evenodd" fill="#FFFFFF" d="M48.824,49.722c-14.347,0-28.693,0-43.04,0
	c0-0.039,0-0.077,0-0.115c14.364,0,28.729,0,43.093,0C48.859,49.645,48.842,49.683,48.824,49.722z"/>
<path fill-rule="evenodd" clip-rule="evenodd" fill="#FFFFFF" d="M48.64,5.518c-14.286,0-28.571,0-42.856,0c0-0.027,0-0.055,0-0.083
	c14.286,0,28.571,0,42.856,0C48.639,5.463,48.639,5.491,48.64,5.518z"/>
<path fill-rule="evenodd" clip-rule="evenodd" fill="#FFFFFF" d="M49.418,6.15c0,14.269,0,28.538,0,42.807
	c-0.08,0-0.16,0-0.24,0.001c0-14.286,0-28.571,0-42.856C49.258,6.117,49.338,6.134,49.418,6.15z"/>
<path fill-rule="evenodd" clip-rule="evenodd" fill="#FFFFFF" d="M42.897,9.438c1.459,0.28,2.21,1.146,2.182,2.517
	c-0.029,1.432-1.038,2.639-2.498,2.752c-1.511,0.116-3.036,0.046-4.554,0.079c-2.675,0.059-5.359-0.189-8.025,0.147
	c-3.125,0.394-5.55,1.91-7.129,4.677c-0.164,0.287-0.512,0.625-0.135,0.957c0.317,0.279,0.593-0.054,0.844-0.215
	c2.429-1.562,5.134-2.174,7.968-2.221c3.478-0.058,6.957-0.018,10.435-0.013c1.879,0.003,2.952,1.066,2.91,2.863
	c-0.039,1.685-1.198,2.716-2.979,2.701c-3.638-0.03-7.276-0.063-10.913-0.052c-3.852,0.012-7.461,3.193-7.792,6.816
	c-0.402,4.401,2.343,8.627,6.363,9.125c2.993,0.372,6.066,0.123,9.103,0.087c0.84-0.011,0.784-0.777,0.786-1.37
	c0.011-2.798,0.168-5.609-0.042-8.392c-0.194-2.566,2.64-3.57,4.482-2.52c0.741,0.422,1.151,1.034,1.146,1.949
	c-0.022,4.478-0.004,8.955-0.014,13.434c-0.004,1.642-0.925,2.653-2.58,2.669c-4.438,0.041-8.887,0.206-13.31-0.055
	c-3.038-0.18-5.528-1.95-7.698-4.054c-1.673-1.622-2.895-3.578-4.071-5.824c-0.826,2.737-1.595,5.269-2.353,7.803
	c-0.358,1.197-1.048,2.077-2.313,2.343c-2.21,0.463-3.876-1.391-3.241-3.689c0.626-2.268,1.387-4.499,2.101-6.742
	c1.683-5.287,3.379-10.569,5.059-15.857c1.709-5.382,6.468-9.438,11.649-9.911c0.235,0.299,0.571,0.227,0.88,0.227
	c4.287,0.003,8.574,0.003,12.861,0C42.329,9.671,42.665,9.743,42.897,9.438z"/>
<path fill-rule="evenodd" clip-rule="evenodd" fill="#FFFFFF" d="M42.897,9.438c-0.232,0.304-0.568,0.232-0.877,0.233
	c-4.287,0.003-8.574,0.003-12.861,0c-0.309,0-0.645,0.072-0.88-0.227C33.151,9.442,38.024,9.44,42.897,9.438z"/>
</svg>
