<?xml version="1.0" encoding="utf-8"?>
<!-- Generator: Adobe Illustrator 16.0.3, SVG Export Plug-In . SVG Version: 6.00 Build 0)  -->
<!DOCTYPE svg PUBLIC "-//W3C//DTD SVG 1.1//EN" "http://www.w3.org/Graphics/SVG/1.1/DTD/svg11.dtd">
<svg version="1.1" xmlns="http://www.w3.org/2000/svg" xmlns:xlink="http://www.w3.org/1999/xlink" x="0px" y="0px" width="272.5px"
	 height="41.5px" viewBox="0 0 272.5 41.5" enable-background="new 0 0 272.5 41.5" xml:space="preserve">
<g id="Ebene_1" display="none">
	
		<image display="inline" overflow="visible" width="654" height="103" xlink:href="../../../../../Desktop/logo.png"  transform="matrix(1 0 0 1 -43.5 3)">
	</image>
</g>
<g id="Ebene_3">
	<g>
		<path fill="#FFFFFF" d="M3,21.894V37.75h5.25V21.813H25v-4.625H9.024C7.306,18.201,5.254,19.7,3,21.894z"/>
		<path fill="#FFFFFF" d="M8.25,3H6.438H3v16.595c1.494-1.333,3.315-2.793,5.25-3.976V7.625h18.125V3H8.25z"/>
	</g>
	<g>
		<path fill="#FFFFFF" d="M182.458,21.979V37.75h3.438h1.813h16.75v-4.625h-16.75V21.813h16.75v-4.625h-15.914
			C186.807,18.219,184.734,19.746,182.458,21.979z"/>
		<path fill="#FFFFFF" d="M187.708,3h-1.813h-3.438v16.667c1.483-1.333,3.31-2.804,5.25-4.005V7.625h16.75V3H187.708z"/>
	</g>
	<path fill="#FFFFFF" d="M45.772,23.186c3.573-1.823,6.006-5.383,6.006-9.467c0-5.935-5.134-10.763-11.443-10.763h-7.691
		c-0.319,0-0.632,0.02-0.943,0.044h-2.826v19.458c1.571-1.304,3.379-2.62,5.25-3.605V7.356h6.21c3.884,0,7.043,2.854,7.043,6.362
		s-3.159,6.362-7.043,6.362h-4.686c-1.737,0.794-4.083,2.188-6.774,4.581V37.75h5.25V24.481h6.21c0.021,0,0.042-0.003,0.064-0.003
		l8.346,13.499h6.172L45.772,23.186z"/>
	<path fill="#FFFFFF" d="M75.938,3.195V3.188h-7.179l-8.203,21.799c2.187-1.691,4.708-3.259,7.162-3.944l4.636-12.46l5.92,15.771
		H66.485l0.43-1.157c-1.796,0.732-4.444,2.176-7.551,4.954l-3.697,9.826h5.75l3.348-8.998h15.244l3.377,8.998h5.594L75.938,3.195z"
		/>
	<path fill="#FFFFFF" d="M256.938,3.194V3.188h-7.18l-7.823,20.789c2.115-1.479,4.442-2.737,6.668-3.157l0.112,0.225l4.637-12.462
		l5.92,15.771h-11.787l0.586-1.576c-1.468,0.465-4.044,1.573-7.24,4.132l-4.165,11.067h5.75l3.348-8.998h15.243l3.378,8.998h5.594
		L256.938,3.194z"/>
	<g>
		<path fill="#FFFFFF" d="M103.539,12.54L98.468,3h-2.343h-3.458h-1.792v34.75h5.25V9.745l1.378,2.688
			C98.114,12.387,100.757,12.221,103.539,12.54z"/>
		<path fill="#FFFFFF" d="M113.375,3v28.047l-9.128-17.174c-1.557-0.288-3.583-0.441-6.144-0.269l12.381,24.146h2.891h3.563h1.688V3
			H113.375z"/>
	</g>
	<g>
		<path fill="#FFFFFF" d="M219.59,12.01L214.801,3h-2.343H209h-1.792v34.75h5.25V9.745l1.118,2.181
			C213.812,11.905,216.6,11.683,219.59,12.01z"/>
		<path fill="#FFFFFF" d="M229.708,3v28.047l-9.415-17.713c-1.561-0.276-3.578-0.418-6.118-0.239l12.642,24.656h2.891h3.563h1.688V3
			H229.708z"/>
	</g>
	<g>
		<path fill="#FFFFFF" d="M125.083,22.721v-2.167c-1.126-1.11-2.721-2.377-4.944-3.672c-0.027,0.38-0.056,0.76-0.056,1.147v4.692
			c0,8.39,6.562,15.216,14.628,15.216h9.148v-5h-9.148C129.402,32.938,125.083,28.354,125.083,22.721z"/>
		<path fill="#FFFFFF" d="M134.711,2.813c-7.261,0-13.286,5.537-14.419,12.761c0.563,0.322,2.73,1.603,4.792,3.342v-0.887
			c0-5.633,4.319-10.216,9.628-10.216H144v-5H134.711z"/>
	</g>
	<g>
		<path fill="#FFFFFF" d="M174.25,30.574c0.929,0.547,3.246,1.988,5.25,3.827V17.188h-5.25V30.574z"/>
		<path fill="#FFFFFF" d="M174.25,31.971v0.966h-5.539c-5.309,0-9.628-4.583-9.628-10.216v-4.692c0-5.633,4.319-10.216,9.628-10.216
			H178v-5h-9.289c-8.066,0-14.628,6.826-14.628,15.216v4.692c0,8.39,6.562,15.216,14.628,15.216h9.148V37.75h1.641v-1.595
			C178.423,34.949,176.761,33.483,174.25,31.971z"/>
	</g>
	<g>
		<path fill="#FFFFFF" d="M151.75,9.875V3h-5.25v4.067C147.855,7.641,149.923,8.613,151.75,9.875z"/>
		<path fill="#FFFFFF" d="M146.5,8.361V37.75h5.25V11.445C150.609,10.499,148.925,9.401,146.5,8.361z"/>
	</g>
</g>
</svg>
