<?xml version="1.0" encoding="utf-8"?>
<!-- Generator: Adobe Illustrator 16.0.3, SVG Export Plug-In . SVG Version: 6.00 Build 0)  -->
<!DOCTYPE svg PUBLIC "-//W3C//DTD SVG 1.1//EN" "http://www.w3.org/Graphics/SVG/1.1/DTD/svg11.dtd">
<svg version="1.1" id="Ebene_1" xmlns="http://www.w3.org/2000/svg" xmlns:xlink="http://www.w3.org/1999/xlink" x="0px" y="0px"
	 width="199.641px" height="172.625px" viewBox="0 0 199.641 172.625" enable-background="new 0 0 199.641 172.625"
	 xml:space="preserve">
<path fill="#FFFFFF" d="M93.75,4.375c0,0,59-12.5,60.75,11c0,0,2.5,19.25-23.25,18c0,0-42.875-1.75-56.75,15.875
	c0,0,40-4.375,38.5,12.5c0,0,1.25,13.25-18.5,14H58c0,0-22.25-0.5-25.5,30.625c0,0-3.375,20-4,24.625c0,0-3.833,20.459,8,25.25
	c0,0-0.5,11.5-15.5,11.875c0,0-20-0.5-15.25-23.625c0,0,7.417-32.041,8.5-45.75c0,0,1.5-37.125,23.75-59.875
	C38,38.875,60,11.958,93.75,4.375z"/>
<path fill="#FFFFFF" d="M45.167,101.125c0,0,0.5-17.737,17.833-16.535c0,0,15.333,1.869,10.833,19.202c0,0-10.58,33.001,5.96,34.667
	c0,0,13.874,2.333,13.54-17.667c0,0-2.166-38.57,19-36.202c0,0,6.832,1.702,8.666,4.702c0,0-38.167,26.333-6.5,66.833v8.834H68.167
	c0,0-26.417-3.959-26.833-25.334C41.333,139.625,39.813,130.625,45.167,101.125z"/>
<path fill="#FFFFFF" d="M191.834,107.292c0,0-3.868-22.779-37.268-22.807c0,0-28.898-1.527-39.232,28.473
	c0,0-11.334,37.001,27.333,49.834c0,0,27.666,6.5,41-9.834c0,0,11.083-14.583-6-21.333c0,0-6.501-2.166-12.167,2.167
	c0,0-10.934,8.208-20.333,0.5c0,0-11.354-10.021-0.333-20.5c0,0,10.833-8.833,21.833,1c0,0,12.208,13.646,22.167,2.5
	C188.834,117.292,193.188,113.313,191.834,107.292z"/>
</svg>
