<?xml version="1.0" encoding="utf-8"?>
<!-- Generator: Adobe Illustrator 16.0.3, SVG Export Plug-In . SVG Version: 6.00 Build 0)  -->
<!DOCTYPE svg PUBLIC "-//W3C//DTD SVG 1.1//EN" "http://www.w3.org/Graphics/SVG/1.1/DTD/svg11.dtd">
<svg version="1.1" id="Ebene_1" xmlns="http://www.w3.org/2000/svg" xmlns:xlink="http://www.w3.org/1999/xlink" x="0px" y="0px"
	 width="531.397px" height="184.095px" viewBox="0 0 531.397 184.095" enable-background="new 0 0 531.397 184.095"
	 xml:space="preserve">
<path fill-rule="evenodd" clip-rule="evenodd" fill="#FFFFFF" d="M456.198,7.296c21.647,0,43.294,0.009,64.94-0.024
	c1.284-0.002,1.71,0.092,1.277,1.578c-3.659,12.558-7.242,25.139-10.796,37.727c-0.271,0.962-0.675,1.242-1.624,1.242
	c-5.098-0.002-10.195,0.048-15.293,0.094c-6.243,0.056-12.487,0.153-18.731,0.171c-1.711,0.005-2.679,0.931-3.359,2.296
	c-1.453,2.914-2.117,6.089-2.944,9.207c-2.833,10.683-5.637,21.374-8.496,32.049c-3.274,12.219-6.589,24.428-9.899,36.638
	c-3.788,13.972-7.585,27.94-11.392,41.908c-0.816,2.998-0.842,2.99-3.896,2.99c-16.098,0-32.195,0.001-48.293,0
	c-1.643,0-1.568,0.016-1.118-1.62c1.135-4.136,2.188-8.294,3.292-12.438c1.316-4.943,2.66-9.879,3.979-14.823
	c1.48-5.554,2.94-11.114,4.42-16.669c1.317-4.943,2.658-9.88,3.977-14.823c1.481-5.554,2.938-11.115,4.424-16.668
	c2.018-7.545,4.058-15.085,6.076-22.63c1.684-6.295,3.359-12.592,5.019-18.894c0.411-1.559,1.094-3.043,1.155-4.702
	c0.035-0.939-0.333-1.326-1.201-1.517c-2.661-0.585-5.354-0.247-8.026-0.289c-9.54-0.149-19.082-0.215-28.623-0.283
	c-1.169-0.009-1.581-0.076-1.207-1.55c3.2-12.625,6.281-25.28,9.354-37.937c0.243-1.003,0.802-1.041,1.599-1.039
	c7.549,0.015,15.098,0.009,22.646,0.009C427.703,7.296,441.95,7.296,456.198,7.296z"/>
<path fill-rule="evenodd" clip-rule="evenodd" fill="#FFFFFF" d="M243.679,173.171c1.269-4.717,2.482-9.206,3.683-13.698
	c1.831-6.854,3.658-13.71,5.479-20.568c1.979-7.46,3.945-14.924,5.926-22.384c2.056-7.744,4.121-15.485,6.182-23.227
	c1.64-6.16,3.269-12.322,4.919-18.478c2.104-7.844,4.202-15.688,6.35-23.52c0.646-2.358,0.136-3.111-2.519-3.185
	c-2.099-0.059-4.199-0.019-6.299-0.039c-9.543-0.087-19.086-0.181-28.629-0.271c-1.744-0.017-1.785-0.023-1.351-1.76
	c2.66-10.645,5.339-21.285,8.013-31.926c0.439-1.747,1.014-3.472,1.29-5.244c0.21-1.346,0.813-1.604,2.054-1.601
	c13.35,0.042,26.698,0.026,40.048,0.026c29.898,0,59.796,0,89.694,0c1.769,0,1.802,0.01,1.311,1.727
	c-3.124,10.916-6.264,21.827-9.396,32.74c-0.462,1.606-0.987,3.199-1.343,4.829c-0.215,0.98-0.701,1.222-1.619,1.223
	c-4.999,0.005-9.997,0.051-14.995,0.096c-6.243,0.057-12.487,0.148-18.73,0.175c-1.745,0.007-2.915,0.771-3.656,2.289
	c-1.632,3.345-2.349,6.978-3.293,10.539c-3.004,11.325-5.98,22.657-9.017,33.974c-3.572,13.315-7.196,26.616-10.796,39.923
	c-3.315,12.256-6.641,24.511-9.921,36.777c-0.318,1.191-0.811,1.623-2.116,1.618c-16.549-0.053-33.098-0.035-49.647-0.035
	C244.805,173.171,244.31,173.171,243.679,173.171z"/>
<path fill-rule="evenodd" clip-rule="evenodd" fill="#FFFFFF" d="M6.199,82.01c4.26,0,8.249,0,12.238,0c0.3,0,0.6,0.01,0.899,0.01
	c23.841,0.055,47.682,0.124,71.522,0.161c37.392,0.058,74.784,0.01,112.175,0.188c11.992,0.057,23.984,0.024,35.977,0.105
	c0.962,0.007,1.535-0.111,1.128,1.322c-3.127,11.038-6.143,22.106-9.186,33.168c-2.938,10.679-5.656,21.419-8.888,32.016
	c-0.932,3.056-1.983,6.069-3.286,9.001c-1.093,2.459-3.229,3.503-5.446,4.529c-5.01,2.317-10.032,4.597-15.189,6.584
	c-6.632,2.556-13.427,4.533-20.333,6.175c-4.851,1.153-9.777,1.9-14.691,2.69c-2.321,0.373-4.701,0.36-7.041,0.64
	c-7.076,0.847-14.191,0.668-21.29,0.838c-3.938,0.094-7.909,0.097-11.818-0.311c-4.032-0.42-8.018-1.284-11.944-2.432
	c-4.587-1.341-8.962-3.154-13.166-5.369c-4.266-2.248-8.179-5.019-11.896-8.128c-3.865-3.233-7.087-6.983-9.848-11.122
	c-3.255-4.882-5.479-10.232-6.676-16.02c-0.703-3.401-0.965-6.806-0.975-10.261c-0.002-1.055,0.313-1.331,1.351-1.334
	c9.244-0.034,18.486-0.112,27.729-0.2c7.642-0.073,15.284-0.161,22.925-0.285c1.125-0.019,1.668,0.085,1.867,1.483
	c1.003,7.075,5.196,11.804,11.498,14.775c7.026,3.313,14.544,4.108,22.179,3.822c9.947-0.372,19.451-2.926,28.737-6.359
	c1.538-0.568,2.998-1.351,4.545-1.884c1.925-0.664,2.924-1.936,3.484-3.889c2.289-7.986,3.903-16.134,5.922-24.183
	c0.484-1.931,0.942-3.868,1.475-5.785c0.247-0.891-0.01-1.215-0.908-1.377c-5.065-0.916-10.182-1.396-15.313-1.42
	c-13.446-0.063-26.895-0.102-40.338,0.084c-14.542,0.2-29.083,0.064-43.625,0.19c-8.991,0.078-17.98,0.399-26.972,0.221
	c-4.535-0.09-9.06-0.469-13.588-0.733c-3.976-0.233-7.916-0.733-11.809-1.4c-5.051-0.865-10.072-1.946-15.023-3.368
	c-6.547-1.881-12.895-4.202-18.911-7.392C11.173,85.425,8.63,84.106,6.199,82.01z"/>
<path fill-rule="evenodd" clip-rule="evenodd" fill="#FFFFFF" d="M235.567,7.267c-3.526,13.66-7.024,27.09-10.411,40.547
	c-0.289,1.146-0.848,0.992-1.557,0.992c-9.347,0.005-18.694,0.024-28.041-0.003c-8.038-0.023-16.078-0.236-24.113-0.118
	c-9.725,0.143-18.431,3.341-26.104,9.357c-6.492,5.089-11.596,11.409-16.225,18.151c-0.439,0.64-0.817,0.996-1.628,0.995
	c-16.544-0.023-33.089-0.023-49.634-0.029c-0.047,0-0.095-0.028-0.26-0.079c0.226-1.848,1.125-3.486,1.854-5.148
	c3.493-7.96,7.84-15.415,13.212-22.278c2.276-2.908,4.762-5.622,7.134-8.437c1.933-2.292,4.187-4.22,6.365-6.2
	c5.333-4.847,11.155-9.096,17.441-12.65c6.317-3.572,12.92-6.511,19.852-8.717c5.872-1.868,11.833-3.311,17.92-4.253
	c5.676-0.879,11.375-1.335,17.121-1.575c4.837-0.202,9.672-0.172,14.506-0.324c13.688-0.431,27.38-0.15,41.071-0.23
	C234.514,7.265,234.959,7.267,235.567,7.267z"/>
<path fill-rule="evenodd" clip-rule="evenodd" fill="#FFFFFF" d="M48.247,103.781c8.499,0,17,0.125,25.495-0.031
	c11.045-0.203,22.092,0.007,33.135-0.216c12.044-0.243,24.09-0.329,36.131-0.162c10.43,0.144,20.854,0.716,31.281,1.075
	c5.191,0.178,10.385,0.299,15.577,0.453c2.529,0.075,3.06,0.659,3.031,3.143c-0.025,2.247-0.013,4.492-0.516,6.699
	c-0.754,3.314-2.511,4.758-5.88,4.789c-11.443,0.106-22.89,0.101-34.331,0.338c-7.594,0.158-15.192,0.017-22.779,0.294
	c-12.791,0.467-25.578,0.406-38.368,0.119c-4.404-0.099-8.826-0.11-13.202-0.544c-5.514-0.547-11.041-0.979-16.54-1.726
	c-6.229-0.846-12.416-1.866-18.507-3.398c-6.628-1.667-13.137-3.671-18.812-7.693c-0.924-0.655-1.89-1.255-2.64-2.122
	c-0.212-0.245-0.667-0.414-0.443-0.83c0.156-0.29,0.534-0.176,0.821-0.176c8.849-0.003,17.697-0.003,26.545-0.003
	C48.247,103.787,48.247,103.784,48.247,103.781z"/>
</svg>
