<?xml version="1.0" encoding="utf-8"?>
<!-- Generator: Adobe Illustrator 16.0.3, SVG Export Plug-In . SVG Version: 6.00 Build 0)  -->
<!DOCTYPE svg PUBLIC "-//W3C//DTD SVG 1.1//EN" "http://www.w3.org/Graphics/SVG/1.1/DTD/svg11.dtd">
<svg version="1.1" xmlns="http://www.w3.org/2000/svg" xmlns:xlink="http://www.w3.org/1999/xlink" x="0px" y="0px"
	 width="385.414px" height="205.489px" viewBox="0 0 385.414 205.489" enable-background="new 0 0 385.414 205.489"
	 xml:space="preserve">
<g id="Ebene_1">
</g>
<g id="Ebene_2">
	<path fill="#FFFFFF" d="M141.167,136.237c0,0,19.5-27.665,26.667-32.166c0,0,24,5.334,25.5,6.5c0,0-16.333,17.832-18.5,25.666
		H141.167z"/>
	<path fill="#FFFFFF" d="M195.973,83.404l16.36,8.333c0,0,26-19,31.667-19.667c0,0,5.083,17.348,6.333,28.278
		c0,0,22.25-22.32,30.625-26.82c0,0,22.042,26.209,35.042,64.209c0,0-95.667,39.334-216.667,4L92,159.404c0,0,82.334,35,213.667,3
		c0,0,63.333-20.333,72.333-51.333c0,0,9-26.667-23-46.333c0,0-56.833-41.833-187.75-36l-6.917,8c0,0,150.332-17.333,205.666,48
		c0,0,8.668,11,3.334,19.333c0,0-7.001,10.333-14.334,13.333c0,0-48.666-53.333-67.666-57.333c0,0-21.333,7.667-28,13l-5-13.333
		C254.333,59.738,230.947,62.737,195.973,83.404z"/>
	<path fill="#FFFFFF" d="M123.833,34.654l-9.25,9.75c0,0-55.5,11.75-75,37.75c0,0-13.875,15.875-1.25,27l13.25,11l-11,12.5
		c0,0-15.804-15.875-15.75-34.25c0,0-1-16.875,24-35C48.833,63.404,81.083,40.154,123.833,34.654z"/>
	<path fill="#FFFFFF" d="M161.083,74.154c0,0,36.75-22.75,87.5-27.75v-1.5c0,0-75-1.25-107.5,12.75c0,0,22.5-31.75,40.75-50.25
		h-25.5c0,0-96.667,90.834-152.333,187.667h75c0,0,17-79.11,44-94.722c0,0,58.666-11.279,128.333,35.055l16.334,0.334
		C267.667,135.738,226.833,92.654,161.083,74.154z M161.458,10.904h5.792c-1.852,1.947-3.674,3.908-5.48,5.875h-6.158
		C159.326,12.977,161.458,10.904,161.458,10.904z M153.187,19.279h6.301c-1.86,2.055-3.697,4.117-5.508,6.188h-6.684
		C149.476,23.148,151.45,21.079,153.187,19.279z M145.153,27.756l6.598,0.282c-2.069,2.398-4.105,4.804-6.108,7.215l-7.519,0.154
		C140.619,32.653,142.974,30.094,145.153,27.756z M53.833,187.404H37c2.742-7.33,5.908-14.672,9.394-21.975l17.288-0.35
		C57.119,178.983,53.833,187.404,53.833,187.404z M66.896,158.378l-16.86-0.343c3.036-5.969,6.273-11.896,9.66-17.756h16.391
		C72.618,146.852,69.555,152.927,66.896,158.378z M78.842,135.112l-15.667-0.747c2.57-4.285,5.214-8.524,7.91-12.711h15.22
		C83.657,126.303,81.167,130.802,78.842,135.112z M90.644,114.154H76.008c2.277-3.405,4.581-6.771,6.904-10.083h13.775
		C94.596,107.49,92.582,110.854,90.644,114.154z M101.135,96.904H88.019c2.411-3.333,4.832-6.603,7.249-9.813h12.17
		C105.269,90.398,103.172,93.67,101.135,96.904z M110.545,82.404H98.829c2.69-3.506,5.368-6.925,8.019-10.25h10.702
		C115.146,75.595,112.813,79.013,110.545,82.404z M120.444,68.051l-10.198-0.124c2.17-2.681,4.317-5.298,6.43-7.835h9.534
		C124.249,62.752,122.325,65.406,120.444,68.051z M128.088,57.561h-9.296c2.577-3.068,5.095-6.019,7.541-8.844h8.487
		C132.526,51.667,130.284,54.616,128.088,57.561z M136.827,46.154h-8.267c2.495-2.856,4.896-5.563,7.197-8.125h7.591
		C141.132,40.734,138.96,43.443,136.827,46.154z"/>
</g>
</svg>
