<?xml version="1.0" encoding="utf-8"?>
<!-- Generator: Adobe Illustrator 19.0.0, SVG Export Plug-In . SVG Version: 6.00 Build 0)  -->
<svg version="1.1" xmlns="http://www.w3.org/2000/svg" xmlns:xlink="http://www.w3.org/1999/xlink" x="0px" y="0px"
	 viewBox="0 0 352.6 95" style="enable-background:new 0 0 352.6 95;" xml:space="preserve">
<style type="text/css">
	.st0{fill:#FFFFFF;}
</style>
<g id="Ebene_1">
</g>
<g id="Ebene_2">
	<polygon id="XMLID_4_" class="st0" points="34.1,13.5 58.1,13.5 39.6,67.5 72.1,67.5 66,85.5 10.1,85.5 	"/>
	<polygon id="XMLID_6_" class="st0" points="92.9,31.5 74.9,85.5 95.1,85.5 112.3,31.5 	"/>
	<polygon id="XMLID_5_" class="st0" points="99.4,10.5 95,25.5 114.1,25.5 118.5,10.5 	"/>
	<polygon id="XMLID_8_" class="st0" points="116.1,49.5 109,77.5 140.1,77.5 147.2,49.5 	"/>
	<path id="XMLID_9_" class="st0" d="M164.1,31.5h19l-1.8,5.9c0,0,9.8-12.7,28-6.3c0,0,10,4,4.1,21.6l-10.2,32.8h-20.1l9.3-29.2
		c0,0,3.8-15.6-8.3-10.7c0,0-4.8,1.2-8.7,16.1l-7.6,23.9h-20.7L164.1,31.5z"/>
	<path id="XMLID_14_" class="st0" d="M277.1,64.5c0,0,9.5-22.2-7.7-32.1c0,0-24.7-11.4-41.3,7.8c0,0-22.4,26.4-2.3,42.5
		c0,0,16.4,13.2,38.8-1.1c0,0,6.4-4.2,9.4-10.2h-19.9c0,0-2.5,5.4-11.5,3.3c0,0-5.6-1.3-4.5-10.3H277.1z M255,42.9
		c7.1,2.3,5.2,9.6,5.2,9.6h-18C244.5,40.5,255,42.9,255,42.9z"/>
	<path id="XMLID_17_" class="st0" d="M345.2,47.8c4.8-19.9-21.9-18-21.9-18c-26.9-1.5-32.2,18.7-32.2,18.7h20c1.2-7,8.1-6.5,8.1-6.5
		c7-0.8,6.6,2.5,6.6,2.5c1.3,7.4-6.4,7-6.4,7c-10.4-1-22.1,3.3-22.1,3.3C269.6,69.1,284.7,84,284.7,84c13.5,11.7,30.4-4.5,30.4-4.5
		v5h21.3c-2.9-3-0.5-8-0.5-8L345.2,47.8z M303.1,72.6c-5.8-9.2,18.1-11.5,18.1-11.5C311.8,84.2,303.1,72.6,303.1,72.6z"/>
</g>
</svg>
