<?xml version="1.0" encoding="utf-8"?>
<!-- Generator: Adobe Illustrator 16.0.3, SVG Export Plug-In . SVG Version: 6.00 Build 0)  -->
<!DOCTYPE svg PUBLIC "-//W3C//DTD SVG 1.1//EN" "http://www.w3.org/Graphics/SVG/1.1/DTD/svg11.dtd">
<svg version="1.1" id="Ebene_1" xmlns="http://www.w3.org/2000/svg" xmlns:xlink="http://www.w3.org/1999/xlink" x="0px" y="0px"
	 width="372px" height="116px" viewBox="0 0 372 116" enable-background="new 0 0 372 116" xml:space="preserve">
<path fill-rule="evenodd" clip-rule="evenodd" fill="#FFFFFF" d="M166.536,61.813c8.328,0,16.657-0.093,24.982,0.022
	c11.284,0.156,17.677,6.277,18.007,17.582c0.271,9.318,0.02,18.652,0.079,27.979c0.021,3.291-1.24,4.947-4.735,4.825
	c-4.158-0.146-8.334-0.194-12.488,0.013c-3.945,0.197-5.334-1.53-5.277-5.326c0.131-8.825,0.066-17.654,0.033-26.48
	c-0.025-6.264-2.083-8.346-8.375-8.412c-6.162-0.064-12.329,0.117-18.485-0.074c-2.669-0.083-3.366,0.768-3.331,3.371
	c0.139,10.49-0.085,20.986,0.127,31.476c0.085,4.197-1.499,5.684-5.573,5.452c-4.15-0.236-8.326-0.126-12.488-0.03
	c-2.996,0.069-4.211-1.333-4.206-4.224c0.029-13.99,0.041-27.98-0.008-41.971c-0.011-3.35,1.775-4.25,4.758-4.227
	C148.548,61.857,157.542,61.814,166.536,61.813z"/>
<path fill-rule="evenodd" clip-rule="evenodd" fill="#FFFFFF" d="M269.184,112.195c-7.826,0.002-15.652,0.017-23.479-0.002
	c-8.912-0.02-14.719-4.953-15.85-13.875c-0.985-7.778-0.736-15.638-0.217-23.429c0.504-7.558,5.348-12.529,13.434-12.759
	c16.133-0.456,32.295-0.398,48.432-0.006c6.832,0.165,9.494,3.855,9.504,10.751c0.004,1.999,0.004,3.997,0,5.995
	c-0.014,9.098-2.535,11.695-11.465,11.723c-8.159,0.026-16.318,0.014-24.479,0.001c-2.584-0.004-5.178,0.053-5.087-3.735
	c0.084-3.508,2.644-3.389,4.94-3.426c5.66-0.094,11.327-0.166,16.982,0.014c3.574,0.113,5.092-1.229,5.272-4.865
	c0.483-9.723,0.588-9.718-9.028-9.718c-6.66,0-13.321-0.017-19.982,0.005c-6.681,0.021-7.938,1.248-7.96,7.763
	c-0.021,5.994-0.011,11.989-0.003,17.983c0.012,7.773,1.42,9.165,9.42,9.182c10.99,0.021,21.98,0.006,32.971,0.006
	c1.166,0,2.332-0.025,3.496,0.011c2.732,0.085,4.936,0.687,4.948,4.165c0.013,3.445-2.078,4.201-4.874,4.207
	C287.168,112.202,278.176,112.191,269.184,112.195z"/>
<path fill-rule="evenodd" clip-rule="evenodd" fill="#FFFFFF" d="M42.466,112.187c-8.33,0-16.661,0.05-24.99-0.013
	c-11.368-0.086-14.662-3.379-14.663-14.482c0-10.329,0.106-20.66-0.057-30.986C2.7,63.041,3.972,61.57,7.688,61.762
	c4.32,0.223,8.678,0.295,12.988-0.014c4.68-0.336,6.252,1.787,6.207,6.131c-0.098,9.496-0.043,18.993-0.024,28.489
	c0.012,5.835,1.512,7.406,7.313,7.431c11.495,0.049,22.991,0.06,34.486-0.015c3.18-0.021,5.399,0.265,5.458,4.452
	c0.06,4.223-2.366,3.977-5.16,3.965C60.126,112.162,51.296,112.187,42.466,112.187z"/>
<path fill-rule="evenodd" clip-rule="evenodd" fill="#FFFFFF" d="M116.59,87.025c0,6.652-0.048,13.307,0.019,19.959
	c0.038,3.726-1.439,5.426-5.386,5.268c-5.812-0.234-11.643-0.156-17.461-0.025c-3.422,0.078-4.802-1.4-4.788-4.753
	c0.058-13.639,0.062-27.278-0.003-40.917c-0.016-3.379,1.419-4.833,4.797-4.775c5.82,0.101,11.648,0.182,17.462-0.027
	c3.931-0.141,5.416,1.594,5.379,5.313C116.542,73.719,116.59,80.371,116.59,87.025z"/>
<path fill-rule="evenodd" clip-rule="evenodd" fill="#FFFFFF" d="M224.722,18.16c6.796-0.058,13.591-0.176,20.387-0.14
	c2.188,0.012,3.448-0.476,4.511-2.74c3.386-7.218,9.221-11.171,17.324-11.129c8.05,0.042,13.959,3.854,17.339,11.121
	c1.034,2.225,2.281,2.781,4.496,2.753c6.299-0.081,12.6,0.02,18.901,0.049c0.027,3.471,0.054,6.941,0.08,10.412
	c-6.139,0.069-12.279,0.228-18.417,0.166c-2.528-0.025-4.063,0.524-5.483,3.025c-7.924,13.952-25.866,13.935-33.804-0.021
	c-1.411-2.479-2.96-2.978-5.483-3.018c-6.621-0.104-13.266,0.629-19.865-0.43C224.713,24.859,224.717,21.509,224.722,18.16z
	 M267.137,33.114c5.84-0.078,9.988-4.286,9.978-10.119c-0.011-5.787-4.74-10.29-10.603-10.096
	c-5.629,0.186-9.846,4.732-9.703,10.458C256.952,29.106,261.278,33.193,267.137,33.114z"/>
<path fill-rule="evenodd" clip-rule="evenodd" fill="#FFFFFF" d="M224.722,18.16c-0.005,3.349-0.009,6.699-0.015,10.047
	c-5.458,0.876-10.953,0.303-16.427,0.334c-2.739,0.016-4.412,0.578-5.827,3.33c-3.488,6.782-9.445,10.208-17.075,10.081
	c-7.402-0.123-13.119-3.584-16.513-10.194c-1.257-2.448-2.657-3.258-5.328-3.223c-6.808,0.09-13.62-0.148-20.432-0.255
	c0.006-3.381,0.013-6.762,0.02-10.144c6.804-0.049,13.608-0.171,20.411-0.109c2.366,0.021,3.724-0.433,4.902-2.928
	c3.316-7.018,9.122-10.869,16.998-10.919c8.04-0.051,14.065,3.631,17.486,10.919c1.123,2.393,2.439,2.996,4.875,2.945
	C213.436,17.927,219.08,18.103,224.722,18.16z M185.529,33.143c5.681,0.06,10.281-4.259,10.458-9.819
	c0.183-5.731-4.55-10.502-10.37-10.454c-5.484,0.046-10.272,4.759-10.305,10.145C175.278,28.454,179.949,33.083,185.529,33.143z"/>
<path fill-rule="evenodd" clip-rule="evenodd" fill="#FFFFFF" d="M307.76,28.486c-0.026-3.471-0.053-6.941-0.08-10.412
	c6.664-0.028,13.331-0.129,19.994-0.045c2.344,0.03,3.75-0.346,4.967-2.839c4.256-8.711,12.656-12.653,21.434-10.591
	c8.835,2.075,14.811,9.366,14.933,18.217c0.122,8.83-5.678,16.288-14.468,18.605c-8.577,2.262-17.017-1.561-21.659-10.115
	c-1.124-2.072-2.37-2.774-4.626-2.746C321.424,28.642,314.591,28.525,307.76,28.486z M349.7,33.14
	c5.7,0.076,10.298-4.241,10.432-9.797c0.141-5.841-4.443-10.504-10.298-10.473c-5.617,0.029-10.159,4.521-10.205,10.094
	C339.582,28.548,344.052,33.064,349.7,33.14z"/>
<path fill-rule="evenodd" clip-rule="evenodd" fill="#FFFFFF" d="M143.126,18.137c-0.007,3.382-0.014,6.763-0.02,10.144
	c-5.981,0.108-11.965,0.315-17.946,0.279c-2.528-0.015-4.079,0.436-5.451,3.033c-4.455,8.429-13.191,12.104-21.85,9.743
	c-8.792-2.397-14.196-9.618-14.061-18.791c0.13-8.891,6.125-16.097,15.021-18.058c8.691-1.916,17.007,2.186,21.265,10.936
	c1.113,2.288,2.438,2.611,4.567,2.596C130.809,17.977,136.968,18.087,143.126,18.137z M102.851,33.13
	c5.716-0.052,10.095-4.392,10.139-10.046c0.042-5.505-4.511-10.127-10.051-10.206c-5.847-0.083-10.448,4.531-10.333,10.359
	C92.719,28.948,97.105,33.183,102.851,33.13z"/>
</svg>
