<?xml version="1.0" encoding="utf-8"?>
<!-- Generator: Adobe Illustrator 19.0.0, SVG Export Plug-In . SVG Version: 6.00 Build 0)  -->
<svg version="1.1" id="Ebene_1" xmlns="http://www.w3.org/2000/svg" xmlns:xlink="http://www.w3.org/1999/xlink" x="0px" y="0px"
	 viewBox="0 0 456 236" style="enable-background:new 0 0 456 236;" xml:space="preserve">
<style type="text/css">
	.st0{fill-rule:evenodd;clip-rule:evenodd;fill:#FFFFFF;}
</style>
<g>
	<path class="st0" d="M313.8,90c0-25.1,0-50.2,0-75.4c0-2.1,0.6-2.8,2.7-2.7c5.2,0.1,10.4,0.1,15.6,0c1.4,0,2.4,0.4,3.2,1.6
		c7,9.8,14.1,19.5,21.2,29.2c7.4,10,14.8,20,22.1,30.1c1.2,1.7,1.8,1.2,2.7-0.1C391.5,58.7,401.8,44.9,412,31
		c4.4-5.9,8.7-11.8,13.1-17.7c0.7-0.9,1.6-1.4,2.9-1.3c5.2,0.1,10.4,0.2,15.6,0c2.2-0.1,2.8,0.5,2.8,2.8c-0.1,33.8,0,67.5,0,101.3
		c0,16.6,0,33.3,0,49.9c0,1.8-0.4,2.3-2.3,2.3c-5.8-0.1-11.5-0.1-17.3,0c-2.1,0.1-2.5-0.7-2.5-2.6c0.1-36.6,0-73.3,0-109.9
		c0-1,0.6-2.4-0.6-2.8c-1.1-0.3-1.5,1.2-2.1,2c-7.9,10.6-15.8,21.2-23.7,31.8c-5.7,7.7-11.3,15.4-16.9,23.2c-1,1.4-1.4,1.7-2.6,0.1
		c-8.1-11.1-16.2-22.2-24.4-33.3c-5.4-7.3-10.7-14.7-16.2-22c-0.5-0.6-0.7-1.9-1.8-1.6c-0.8,0.3-0.4,1.4-0.4,2.2
		c0,36.6-0.1,73.3,0,109.9c0,2.5-0.7,3.1-3.1,3c-5.5-0.2-11-0.2-16.6,0c-2.1,0.1-2.5-0.7-2.5-2.6C313.8,140.4,313.8,115.2,313.8,90z
		"/>
	<path class="st0" d="M31.7,52.5c-0.8,0.8-0.6,1.5-0.6,2.1c0,36.9,0,73.8,0,110.6c0,2.2-0.5,3.1-2.9,3c-5.5-0.2-11-0.2-16.6,0
		c-2.1,0.1-2.7-0.4-2.7-2.6C9.1,116,9.1,66.5,9.1,17c0-5,0-5,5.1-5c4.4,0,8.8,0.1,13.2,0c1.4,0,2.2,0.4,3,1.5
		c7.2,9.9,14.3,19.9,21.6,29.8c7.3,10,14.8,19.9,22.1,29.9c1.2,1.7,1.7,0.5,2.4-0.4c7.3-9.8,14.6-19.7,21.8-29.5
		c7.3-9.9,14.6-19.8,21.9-29.7c0.7-1,1.4-1.6,2.7-1.5c5.3,0.1,10.6,0,15.8,0c1.6,0,2.9,0.1,2.9,2.5c-0.1,50.2-0.1,100.3-0.1,150.5
		c0,3.2,0,3.2-3.3,3.2c-5.4,0-10.9-0.1-16.3,0.1c-1.9,0-2.4-0.5-2.4-2.4c0-37,0-73.9,0-110.9c0-0.3,0-0.6,0-1
		c-0.1-0.5,0.3-1.2-0.4-1.5c-0.7-0.3-1,0.4-1.3,0.8c-1.9,3.3-4.5,6.1-6.8,9.2c-11.6,15.9-23.3,31.7-34.9,47.6
		c-0.9,1.2-1.4,1.2-2.3,0C63.3,95.4,52.6,80.7,41.8,66C38.5,61.5,35.1,57.1,31.7,52.5z"/>
	<path class="st0" d="M174.6,32.8c-7.2,0-14,0-20.7,0c-4.5,0-4.4,0.7-4.3-4.4c0-4.6,0.1-9.1,0-13.7c-0.1-2,0.6-2.6,2.6-2.6
		c16.8,0.1,33.6,0,50.4,0c2.2,0,4.5,0.1,6.7,0c1.7-0.1,2.3,0.7,2.3,2.3c0,1.5,0,3,0,4.6c0,16.2,0,32.5,0,48.7c0,4.1,0,4.1-4.1,4.1
		c-3.6,0-7.2,0-10.8,0c-3.2,0-3.3,0-3.3-3.2c0-4.8,0-9.6,0-14.4c0-1,0-2,0-3.4c-2.9,1.3-4.5,3.6-6.1,5.6c-10,12.5-14,26.7-11.4,42.5
		c1.6,9.9,5.8,18.6,12.5,26.2c8.6,9.7,19.3,15.6,31.9,17.5c10.6,1.5,21,0.4,30.8-4.6c1.1-0.6,2.5-1.8,3.5-1c1.1,0.8,0.2,2.4,0,3.6
		c-1,6.9-0.2,13.4,3.4,19.4c0.7,1.2,0.7,1.9-0.8,2.5c-5.8,2.3-11.7,4-18,4.7c-5.2,0.6-10.5,1-15.8,0.7c-7.7-0.5-15.2-2-22.4-4.7
		c-10.6-4-19.9-10-27.9-18c-4.3-4.3-8-9.2-11.4-14.3c-3.5-5.2-6.3-10.7-8.1-16.6c-2.8-9.1-3.9-18.6-3.4-28.1
		c0.7-14.5,5.1-27.7,13.3-39.7c2.7-3.9,6-7.3,9.3-10.7C173.5,34.9,173.9,34.1,174.6,32.8z"/>
	<path class="st0" d="M218.9,24.3c0-3.4,0-6.7,0-10.1c0-1.4,0.5-1.8,1.8-1.8c18.7-0.8,36.2,2.8,51.8,13.7c6.5,4.5,12.1,9.9,17,16.2
		c7,9,11.8,18.8,14.5,29.8c2.6,10.8,2.8,21.6,0.7,32.6c-0.9,4.6-2.3,9.1-3.8,13.6c-0.7,2-1.6,2.2-3.2,1.3c-6.6-3.9-13.6-4.2-20.9-3
		c-0.6,0.1-1.3,0.5-1.8-0.1c-0.5-0.6,0-1.2,0.3-1.8c1.6-3.8,3.3-7.6,4.4-11.6c2-7.6,2.1-15.2,0.7-22.8c-2.1-11.3-7.4-21-15.9-28.8
		c-11.4-10.4-24.9-15.2-40.3-14.3c-5.3,0.3-5.3,0.3-5.3-5C218.9,29.6,218.9,26.9,218.9,24.3C218.9,24.3,218.9,24.3,218.9,24.3z"/>
	<path class="st0" d="M306,145.4c0,12.1-9.9,22.2-21.7,22.3c-12.8,0.1-22.8-9.6-22.9-22c-0.1-12.3,10-22.5,22.4-22.5
		C295.7,123.2,306.1,133.1,306,145.4z"/>
	<path class="st0" d="M281.7,191.7c-0.7,0.7-0.4,1.6-0.4,2.3c0,10.1-0.1,20.1,0,30.2c0,1.5-0.4,1.8-1.8,1.8c-4.3-0.1-4.3,0-4.2-4.2
		c0-12.9,0-25.7,0-38.6c0-1.1-0.9-3,0.9-3.2c2-0.2,4.2-1.1,5.9,1.3c3.6,5.2,7.4,10.2,11.1,15.3c1.7,2.3,1.7,2.3,3.4,0
		c3.7-5,7.4-10,11.1-15c1.1-1.4,4.7-2.4,6.2-1.6c0.8,0.4,0.7,1,0.7,1.6c0,14.4,0,28.8,0,43.2c0,1.2-0.6,1.6-1.5,1.7
		c-0.8,0.1-1.6,0-2.4,0c-1.5,0-2.2-0.5-2.2-2.2c0.1-10.1,0.1-20.1,0-30.2c0-0.7,0.5-1.9-0.4-2.1c-0.9-0.3-1.2,0.9-1.6,1.5
		c-3.5,4.7-7,9.3-10.4,14.1c-1,1.5-1.6,1.3-2.5,0c-3.5-4.9-7-9.7-10.6-14.5C282.6,192.4,282.3,191.9,281.7,191.7z"/>
	<path class="st0" d="M46.3,203.8c0,6.6,0,13.3,0,19.9c0,1.7-0.3,2.5-2.2,2.4c-4-0.2-3.7,0.6-3.7-3.8c0-9,0-18.1,0-27.1
		c0-0.7,0.4-1.7-0.4-2c-1-0.4-1.2,0.8-1.6,1.3c-3.2,4.3-6.5,8.5-9.5,12.9c-1.3,1.8-2,1.7-3.2-0.1c-3-4.3-6.2-8.5-9.3-12.8
		c-0.4-0.6-0.7-1.7-1.6-1.5c-0.9,0.3-0.5,1.4-0.5,2.1c0,9.4-0.1,18.9,0.1,28.3c0,2.1-0.6,2.6-2.6,2.5c-1.8-0.1-3.3,0.3-3.3-2.6
		c0.2-12.9,0.1-25.7,0.1-38.6c0-1.1-0.9-3,0.9-3.2c1.8-0.3,4-0.8,5.5,1.3c1.4,2,2.9,4,4.4,6c2.2,3,4.4,5.9,6.5,8.9
		c1,1.5,1.7,1.8,2.9,0.1c3.6-5.1,7.4-10,11.1-15c0.8-1.1,4.8-1.9,5.9-1.2c0.8,0.5,0.5,1.3,0.5,2C46.3,190.3,46.3,197.1,46.3,203.8
		C46.3,203.8,46.3,203.8,46.3,203.8z"/>
	<path class="st0" d="M257.7,196.2c0-5,0.2-9.4-0.1-13.9c-0.2-2.9,1.5-2.4,3.3-2.6c2.1-0.2,2.8,0.5,2.7,2.6
		c-0.1,8.9,0.1,17.8-0.1,26.6c-0.2,10.1-6.7,17.1-16.3,18.6c-8.7,1.3-17.4-4.6-19.8-13.5c-1.8-6.7-0.2-12.9,4.9-17.8
		c4.9-4.8,10.8-6.4,17.4-4.5C252.6,192.5,255.2,193.8,257.7,196.2z M245.2,221.7c7.6,0.2,12.4-6.6,12.5-12.5
		c0.1-6.6-5.6-12.2-12.4-12.3c-6.9-0.1-12.5,5.5-12.5,12.4C232.8,216.1,238.4,221.7,245.2,221.7z"/>
	<path class="st0" d="M90.4,197.5c0-4.6,0.1-9.3,0-13.9c-0.1-2.3,1.2-2.2,2.7-2.1c1.5,0.1,3.3-0.6,3.1,2.2c-0.2,3.5-0.1,7,0,10.5
		c0,0.7-0.3,1.6,0.4,2c0.8,0.4,1.3-0.4,1.8-0.8c8.5-5.6,19-3.6,24.4,4.7c5.1,7.8,3.4,18.3-4.1,23.7c-5.7,4.1-12,5-18.4,1.8
		c-6.4-3.2-9.8-8.4-9.9-15.7C90.4,205.9,90.4,201.7,90.4,197.5z M119.9,209.9c0-6.6-5.2-11.9-11.8-11.9c-7.1-0.1-12.2,6-12.3,11.8
		c-0.1,6.1,4.7,12.1,12.2,12C114.6,221.7,119.9,216.5,119.9,209.9z"/>
	<path class="st0" d="M352.4,216.4c0,2.8-0.1,5.6,0,8.4c0,1.2-0.4,1.6-1.5,1.5c-1.1-0.1-2.2,0-3.4,0c-0.6,0-1.2,0-1.3-0.9
		c-0.2-1.8-0.3-1.8-1.9-0.7c-6.6,4.3-14.7,4.3-20.9-0.1c-7.7-5.4-10.4-15.1-5.5-24.1c4-7.4,14.2-11.3,22.4-8.1
		c7.5,3,12.5,10.6,12.1,17.9C352.3,212.2,352.4,214.3,352.4,216.4z M333.9,221.8c6.9,0,12.4-5.4,12.5-12.2c0-7-5.5-12.5-12.4-12.5
		c-6.8,0-12.4,5.6-12.3,12.4C321.6,216.3,327.1,221.8,333.9,221.8z"/>
	<path class="st0" d="M446.4,216.4c0,2.7-0.1,5.4,0,8.1c0,1.3-0.3,2-1.7,1.8c-1-0.1-2.1,0-3.1,0c-0.7,0-1.3-0.2-1.3-1.1
		c0-2.4-1.1-1.2-2-0.6c-8.7,5.8-21.5,4-27.1-7.5c-2.6-5.3-2.1-10.8,0.8-16.6c4.6-8.8,16.1-11.3,22.6-8.2c6.8,3.2,11.5,8.3,11.7,16.6
		C446.4,211.4,446.4,213.9,446.4,216.4z M440.3,209.4c0-7-5.6-12.4-12.5-12.3c-6.7,0.1-12.3,5.7-12.3,12.5c0,6.9,5.5,12.2,12.6,12.3
		C434.9,221.8,440.4,216.3,440.3,209.4z"/>
	<path class="st0" d="M224.2,215.6c0,3.3-0.1,5.9,0,8.6c0.1,1.5-0.5,2.1-1.9,1.8c-1.5-0.3-3.6,1.1-4.1-1.9c-0.2-1.1-1.3,0.1-1.8,0.5
		c-6.2,3.8-12.5,4-18.8,0.4c-6.9-4-10.1-12-8-19.8c2.1-7.7,8.9-12.9,17-13c8.1,0,14.9,5.1,17.1,12.8
		C224.7,208.8,224,212.5,224.2,215.6z M206.5,221.8c6.6,0,11.9-5.2,12-11.7c0.1-6.6-5.3-12.1-11.9-12.1c-6.5,0-11.9,5.3-11.9,11.9
		C194.7,216.4,199.9,221.7,206.5,221.8z"/>
	<path class="st0" d="M68.6,192.3c9.8,0.3,17.7,8.4,17.1,18.1c-0.5,9.3-7.7,17.4-18.1,17.2c-9.8-0.2-17.5-8.4-17.2-18.2
		C50.8,199.7,58,192.4,68.6,192.3z M68.1,221.8c6.4,0,11.8-5.3,11.9-11.6c0.1-6.6-5.3-12.1-11.9-12.1c-6.5-0.1-12,5.3-12,11.8
		C56.2,216.5,61.4,221.7,68.1,221.8z"/>
	<path class="st0" d="M390.8,227.8c-11.8-0.1-20.4-10.8-17.9-22.2c2.4-10.8,14-16.7,23.3-13.6c5.4,1.8,9.1,5,11.5,10
		c0.7,1.5,0.4,1.9-1.2,2c-2.6,0-4.6-0.1-6.5-2.7c-3.5-4.7-10.8-5.4-15.7-2.2c-5,3.2-7,9.8-4.7,15.3c2.4,5.6,8.5,8.6,14.4,7.3
		c3.3-0.8,5.7-2.5,7.3-5.4c0.4-0.7,0.8-1,1.7-0.9c0.6,0.1,1.3,0,1.9,0c3.7,0,3.7,0,1.9,3.2C403.2,224.4,397.5,227.8,390.8,227.8z"/>
	<path class="st0" d="M181.4,213c0,3.7-0.1,7.4,0,11c0.1,1.6-0.5,2.2-2.1,2c-0.6-0.1-1.1-0.1-1.7,0c-1.6,0.2-2.1-0.5-2-2
		c0.1-7.3,0-14.5,0-21.8c0-1.5,0.1-3-2.2-2.7c-0.5,0.1-1-0.3-1-0.8c-0.1-1.1,0-2.2-0.1-3.4c-0.1-1.9,1.4-1.3,2.3-1.5
		c1-0.2,0.9-1,0.9-1.7c0-2.8,0.1-5.6,0-8.4c-0.1-1.6,0.3-2.3,2.1-2.3c4.4,0.1,3.6-0.4,3.6,3.7c0,2.3,0.1,4.6,0,7
		c0,1.4,0.5,1.9,1.8,1.8c1-0.1,1.9,0,2.9,0c3.5,0,4.3,1.1,3.5,4.6c-0.2,0.7-0.5,1-1.1,1c-0.4,0-0.8,0-1.2,0
		c-5.9,0.1-5.9,0.1-5.9,5.8C181.4,207.9,181.4,210.5,181.4,213z"/>
	<path class="st0" d="M355.5,209.6c0-4.9,0.1-9.8,0-14.6c0-1.8,0.5-2.5,2.3-2.3c0.5,0.1,1.1,0.1,1.7,0c1.5-0.2,2.2,0.4,2.1,2
		c-0.1,0.7-0.4,1.6,0.3,2c0.9,0.5,1.3-0.6,2-1c2.7-1.7,5.6-2.7,8.7-3.1c1.6-0.2,2.5,0.2,2.3,2.1c-0.1,0.7-0.1,1.4,0,2.2
		c0.1,1.2-0.4,1.6-1.6,1.8c-7.8,1.3-11.6,5.9-11.6,13.8c0,3.9-0.1,7.8,0,11.8c0,1.5-0.3,2.1-2,2.1c-4,0-4,0.1-4-3.8
		C355.6,218.2,355.6,213.9,355.5,209.6C355.6,209.6,355.6,209.6,355.5,209.6z"/>
	<path class="st0" d="M145.3,203.6c0-6.6,0.1-13.3-0.1-19.9c-0.1-3,1.9-2,3.3-2.2c1.7-0.2,2.4,0.3,2.4,2.2
		c-0.1,13.3-0.1,26.5,0,39.8c0,1.9-0.4,2.8-2.5,2.6c-1.8-0.1-3.3,0.2-3.2-2.6C145.5,216.9,145.3,210.2,145.3,203.6z"/>
	<path class="st0" d="M136.6,209.8c0,4.6-0.1,9.3,0.1,13.9c0.1,2-0.7,2.6-2.5,2.3c-1.5-0.2-3.4,0.8-3.3-2.2
		c0.1-9.6,0.3-19.2-0.1-28.7c0-0.7,0.2-1.1,0.9-1.2c1.4-0.1,2.9-0.1,4.3,0c1,0.1,0.7,1.1,0.7,1.7
		C136.6,200.4,136.6,205.1,136.6,209.8C136.6,209.8,136.6,209.8,136.6,209.8z"/>
	<path class="st0" d="M271.2,209.6c0,4.8-0.1,9.6,0,14.4c0,1.7-0.3,2.4-2.2,2.4c-3.8-0.1-3.7,0-3.7-3.6c0-9.3,0.1-18.5,0-27.8
		c0-2,0.7-2.5,2.5-2.3c1.6,0.2,3.6-0.7,3.5,2.3C271,199.9,271.2,204.8,271.2,209.6C271.2,209.6,271.2,209.6,271.2,209.6z"/>
	<path class="st0" d="M165.2,209.8c0,4.7-0.1,9.4,0,14.2c0.1,2.7-1.7,2-3,2c-1.4,0.1-2.8,0.3-2.8-2.1c0.1-9.4,0.1-18.7,0-28.1
		c0-1.7,0.5-2.2,2.1-2c0.6,0.1,1.1,0.1,1.7,0c1.6-0.2,2.1,0.4,2,2C165.1,200.6,165.2,205.2,165.2,209.8z"/>
	<path class="st0" d="M203.6,181.6c2-0.6,3.1,0.5,3.7,2.6c0.5,1.7,1.2,3.3,1.9,4.9c0.5,1.2,0.4,1.7-1,1.8c-4.3,0.3-4.3,0.3-5.9-3.7
		c-0.4-0.9-0.7-1.8-1.1-2.7C200,181.6,200,181.6,203.6,181.6z"/>
	<path class="st0" d="M162.5,188.1c-1.9,0-3.4-1.4-3.4-3.3c0-1.8,1.5-3.3,3.4-3.3c1.8,0,3.2,1.3,3.2,3.1
		C165.8,186.6,164.4,188.1,162.5,188.1z"/>
	<path class="st0" d="M133.9,181.6c1.9,0,3.3,1.5,3.2,3.4c-0.1,1.9-1.2,3.1-3.2,3.1c-1.9,0-3.4-1.4-3.4-3.2
		C130.5,183,132,181.5,133.9,181.6z"/>
	<path class="st0" d="M268.1,179.9c1.8,0,3.3,1.4,3.4,3.2c0.1,2.1-1.2,3.5-3.3,3.5c-2.1,0-3.5-1.3-3.5-3.4
		C264.8,181.6,266.4,180,268.1,179.9z"/>
</g>
</svg>
