<?xml version="1.0" encoding="utf-8"?>
<!-- Generator: Adobe Illustrator 16.0.3, SVG Export Plug-In . SVG Version: 6.00 Build 0)  -->
<!DOCTYPE svg PUBLIC "-//W3C//DTD SVG 1.1//EN" "http://www.w3.org/Graphics/SVG/1.1/DTD/svg11.dtd">
<svg version="1.1" id="Ebene_1" xmlns="http://www.w3.org/2000/svg" xmlns:xlink="http://www.w3.org/1999/xlink" x="0px" y="0px"
	 width="548.973px" height="112.494px" viewBox="0 0 548.973 112.494" enable-background="new 0 0 548.973 112.494"
	 xml:space="preserve">
<polygon fill="#FFFFFF" points="11.271,105.024 22.021,33.024 46.021,33.024 54.521,71.024 63.958,33.024 86.896,33.024 
	97.521,105.024 74.021,105.024 71.646,64.774 61.146,105.024 48.146,105.024 36.896,64.774 33.646,105.024 "/>
<path fill="#FFFFFF" d="M99.021,33.024h23.75v44.375c0,0-0.625,6.125,5.875,6.125c0,0,5.667,0.75,6.167-5.667V33.024h23.792v50.527
	c0,0-0.583,21.224-29,22.307c0,0-30.667,0-30.583-23.167V33.024z"/>
<path fill="#FFFFFF" d="M199.604,29.357c-21.493,0-38.917,18.059-38.917,40.333c0,22.274,17.424,40.333,38.917,40.333
	c21.493,0,38.917-18.059,38.917-40.333C238.521,47.416,221.097,29.357,199.604,29.357z M199.604,84.954
	c-7.778,0-14.083-7.036-14.083-15.714c0-8.679,6.305-15.715,14.083-15.715c7.778,0,14.083,7.036,14.083,15.715
	C213.687,77.917,207.382,84.954,199.604,84.954z"/>
<polygon fill="#FFFFFF" points="230.771,33.024 255.271,33.024 265.021,73.274 276.271,33.024 300.521,33.024 274.521,105.024 
	256.021,105.024 "/>
<polygon fill="#FFFFFF" points="302.271,33.024 302.271,105.857 345.271,105.857 345.271,85.524 324.688,85.524 324.688,77.69 
	343.521,77.69 343.521,60.024 323.771,60.024 323.771,52.357 345.271,52.357 345.271,33.024 "/>
<path fill="#FFFFFF" d="M455.271,53.586l8.417-16.896c0,0-18.499-13.333-36.666-4.833c0,0-15.501,7.5-15.834,24.167
	c0,0-1.5,13,12.167,20.333c0,0,5.604,2.542,11.736,3.222c0,0,1.5,0.068,2.805,0.819c2.063,1.188,2.922,5.148-2.208,6.958
	c0,0-6.833,1.666-12.833-2.667c0,0-6.098-4.4-7-5.333l-6.667,20.167c0,0,12.271,12.813,34.167,7.5c0,0,23.833-7.667,20.333-27.333
	c0,0-1.333-14.333-17.333-20.167c0,0-10.667-2.333-10.5-6c0,0-0.499-5.333,11.667-2.5C447.521,51.024,452.583,52.399,455.271,53.586
	z"/>
<path fill="#FFFFFF" d="M390.896,77.774c17-4.625,14.375-22.25,14.375-22.25c-2-22.125-21.875-22.5-21.875-22.5h-32.625v72.833h22
	V81.399l12,24.458h27.875L390.896,77.774z M382.896,60.399c-1.875,8.215-9.75,6.875-9.75,6.875V52.149
	C383.271,51.774,382.896,60.399,382.896,60.399z"/>
<circle fill="none" stroke="#FFFFFF" stroke-width="3" stroke-miterlimit="10" cx="505.777" cy="69.024" r="39.507"/>
<g>
	<path fill-rule="evenodd" clip-rule="evenodd" fill="#FFFFFF" d="M493.48,101.083c-1.409-0.198-2.853-0.262-4.22-0.623
		c-3.389-0.896-5.595-3.472-5.411-6.97c0.176-3.29,0.526-6.696,1.574-9.789c2.681-7.913,5.762-15.691,8.742-23.5
		c1.711-4.489,3.558-8.928,5.306-13.403c0.48-1.233,1.205-2.654-0.1-3.714c-1.343-1.094-2.717-0.168-3.782,0.652
		c-1.564,1.205-3.009,2.587-4.382,4.014c-1.535,1.596-2.905,3.35-4.4,4.99c-0.647,0.71-1.341,1.462-2.171,1.898
		c-0.537,0.282-1.581,0.293-1.992-0.055c-0.531-0.448-0.867-1.369-0.896-2.102c-0.025-0.616,0.398-1.333,0.803-1.873
		c5.367-7.174,11.593-13.326,20.241-16.445c3.644-1.314,7.409-2.009,11.298-1.329c4.626,0.808,7.38,3.826,7.248,8.53
		c-0.076,2.725-0.563,5.554-1.471,8.121c-3.654,10.321-7.552,20.555-11.337,30.831c-0.605,1.644-1.143,3.316-1.616,5.003
		c-0.276,0.986-0.479,2.287,0.604,2.721c0.771,0.308,2.05,0.075,2.778-0.407c1.487-0.983,2.838-2.215,4.097-3.492
		c2.073-2.106,4.007-4.35,6.044-6.495c0.79-0.833,1.659-1.764,2.98-0.937c1.028,0.644,1.372,2.087,0.548,3.471
		c-1.104,1.854-2.313,3.688-3.734,5.303c-4.785,5.437-10.408,9.822-16.996,12.898C500.154,99.818,496.942,100.806,493.48,101.083z"
		/>
	<path fill-rule="evenodd" clip-rule="evenodd" fill="none" stroke="#FFFFFF" stroke-width="3" stroke-miterlimit="10" d="
		M507.576,15.783c0.081-7.945,8.261-13.695,15.773-11.09c5.77,2.002,8.179,8.903,5.137,14.721
		c-2.663,5.094-8.927,7.669-14.416,5.926C509.931,24.025,507.527,20.487,507.576,15.783z"/>
</g>
</svg>
