<?xml version="1.0" encoding="utf-8"?>
<!-- Generator: Adobe Illustrator 16.0.3, SVG Export Plug-In . SVG Version: 6.00 Build 0)  -->
<!DOCTYPE svg PUBLIC "-//W3C//DTD SVG 1.1//EN" "http://www.w3.org/Graphics/SVG/1.1/DTD/svg11.dtd">
<svg version="1.1" id="Ebene_1" xmlns="http://www.w3.org/2000/svg" xmlns:xlink="http://www.w3.org/1999/xlink" x="0px" y="0px"
	 width="99.25px" height="56.75px" viewBox="0 0 99.25 56.75" enable-background="new 0 0 99.25 56.75" xml:space="preserve">
<image display="none" overflow="visible" width="109" height="120" xlink:href="../../../../../Desktop/logo_romano.png"  transform="matrix(1 0 0 1 -5.25 -18.75)">
</image>
<path fill="#FFFFFF" d="M1.5,1.25h36.167c0,0,16.958-0.5,18.417,15c0,0,1.999,13.667-10.334,19.25L66.5,55.417
	c0,0-16.917,0.583-34.417-17.833c0,0-12.583,1.104-12.958-12.208h18.813c0,0,6.313,0.5,6.688-6.042c0,0,0.417-6.167-5.75-6.417H10
	C10,12.917,1.875,12.875,1.5,1.25z"/>
<path fill="#FFFFFF" d="M9,13.438c0,0,0.063,9.531,8.875,11.281h20.906c0,0,5.406-0.813,5.063-5.969c0,0,0-4.563-5.188-5.313H9z"/>
<path fill="#FFFFFF" d="M47.375,35.875c0,0,6.75-3.938,8.563-9.563h24.75c0,0-1.375,6.938-8.125,9.563H47.375z"/>
<path fill="#FFFFFF" d="M56.75,13.438c0,0,1.417,4.479-0.292,11.281h26.479c0,0,7.75-1.594,7.813-11.281H56.75z"/>
<path fill="#FFFFFF" d="M51.157,4.532c0,0,3.78,2.843,5.155,7.593h33.875c0,0,6.563-0.441,7.813-10.877H58.938
	C58.938,1.248,54.97,0.657,51.157,4.532z"/>
</svg>
