<?xml version="1.0" encoding="utf-8"?>
<!-- Generator: Adobe Illustrator 16.0.3, SVG Export Plug-In . SVG Version: 6.00 Build 0)  -->
<!DOCTYPE svg PUBLIC "-//W3C//DTD SVG 1.1//EN" "http://www.w3.org/Graphics/SVG/1.1/DTD/svg11.dtd">
<svg version="1.1" id="Ebene_1" xmlns="http://www.w3.org/2000/svg" xmlns:xlink="http://www.w3.org/1999/xlink" x="0px" y="0px"
	 width="467.977px" height="103.495px" viewBox="0 0 467.977 103.495" enable-background="new 0 0 467.977 103.495"
	 xml:space="preserve">
<g>
	<path fill-rule="evenodd" clip-rule="evenodd" fill="#FFFFFF" d="M413.637,6.186c2.874,1.424,6.01,2.493,6.94,6.183
		c0.277,1.095,1.644,1.056,2.565,1.43c5.063,2.053,9.574,4.673,10.956,10.548c0.047,0.198,0.152,0.388,0.17,0.587
		c0.15,1.699,0.896,3.781-0.435,4.944c-1.319,1.152-2.775-0.584-4.091-1.178c-3.565-1.607-7.198-2.875-11.159-2.868
		c-3.549,0.006-4.758,1.872-3.307,5.179c2.376,5.414,4.869,10.776,7.192,16.211c0.304,0.709,1.993,1.859-0.063,2.583
		c-1.424,0.501-2.595,0.642-3.408-1.276c-2.507-5.912-5.309-11.698-7.866-17.589c-1.886-4.344,0.572-8.191,5.332-8.819
		c4.856-0.641,9.236,1.052,13.678,2.526c0.132,0.076,0.265,0.153,0.396,0.23c-0.062-0.149-0.124-0.297-0.187-0.446
		c-1.456-4.21-5.4-5.279-8.863-6.847c-2.021-0.915-3.962-1.35-4.713-4.054c-0.634-2.278-2.879-3.173-5.415-3.14
		c-6.637,0.086-13.279-0.109-19.912,0.074c-4.832,0.133-9.521,0.148-13.226-3.617c0.668-0.036,1.585-0.126,2.502-0.127
		c8.271-0.011,16.543,0.013,24.814-0.03c1.063-0.005,2.256,0.456,3.19-0.505C410.366,6.186,412.001,6.186,413.637,6.186z"/>
	<path fill-rule="evenodd" clip-rule="evenodd" fill="#FFFFFF" d="M360.276,6.186c1.696,1.281,4.126,1.617,5.152,3.915
		c-1.034,0.595-2.06,0.301-3.027,0.302c-20.594,0.021-41.189-0.063-61.783,0.088c-3.785,0.027-5.925-2.277-8.422-4.305
		C314.89,6.186,337.583,6.186,360.276,6.186z"/>
	<path fill-rule="evenodd" clip-rule="evenodd" fill="#FFFFFF" d="M163.591,21.38c-1.577,3.516-3.008,6.641-4.379,9.791
		c-0.685,1.574-2.044,1.087-3.181,1.091c-12.059,0.03-24.119,0.095-36.177-0.012c-6.596-0.059-10.996,2.273-13.734,8.809
		C100.448,54.59,94.25,67.912,87.913,81.149c-4.558,9.521-12.269,14.853-23.075,14.896c-18.497,0.075-36.995-0.011-55.492,0.062
		c-2.385,0.01-2.432-0.661-1.612-2.603c3.593-8.512,3.544-8.532,12.699-8.532c7.255,0,14.522-0.239,21.765,0.07
		c6.736,0.288,10.935-2.731,13.768-8.576c6.182-12.75,11.691-25.809,17.793-38.589c4.971-10.412,12.68-16.784,25.111-16.585
		c20.332,0.326,40.672,0.088,61.009,0.088C160.975,21.38,162.069,21.38,163.591,21.38z"/>
	<path fill-rule="evenodd" clip-rule="evenodd" fill="#FFFFFF" d="M223.073,95.973c-10.958,0-21.243,0-32.011,0
		c2.876-6.032,5.634-11.781,8.361-17.544c7.239-15.299,14.313-30.672,21.092-46.183c1.591-3.643,1.926-7.021-0.949-10.829
		c3.193,0,5.873,0,8.552,0c6.747,0,13.495,0.083,20.239-0.042c2.527-0.046,3.206,0.289,1.987,2.937
		c-9.549,20.753-18.918,41.588-28.459,62.345C220.375,89.942,219.974,92.841,223.073,95.973z"/>
	<path fill-rule="evenodd" clip-rule="evenodd" fill="#FFFFFF" d="M113.309,52.833c1.494-3.411,2.824-6.46,4.167-9.504
		c0.482-1.094,1.486-0.897,2.385-0.897c12.464-0.005,24.929-0.085,37.392,0.026c8.292,0.074,13.486,8,10.205,15.757
		c-4.048,9.569-8.348,19.036-12.738,28.455c-1.516,3.251-2.07,6.146,1.188,9.458c-2.538,0-4.422,0-6.306,0
		c-7.764,0-15.53-0.067-23.292,0.04c-2.349,0.033-3.07-0.159-1.856-2.727c4.968-10.502,9.712-21.109,14.54-31.679
		c0.338-0.74,0.723-1.462,1.015-2.22c1.572-4.078-0.063-6.608-4.511-6.682c-6.23-0.103-12.463-0.027-18.695-0.027
		C115.802,52.832,114.802,52.833,113.309,52.833z"/>
	<path fill-rule="evenodd" clip-rule="evenodd" fill="#FFFFFF" d="M279.986,42.556c-3.742,7.389-7.273,14.269-10.714,21.193
		c-2.223,4.473-4.464,8.948-6.424,13.538c-2.359,5.523-0.882,7.646,5.014,7.658c7.151,0.015,14.304,0.055,21.454-0.029
		c1.952-0.023,2.438,0.487,1.382,2.18c-0.054,0.087-0.12,0.173-0.146,0.27c-1.903,7.134-6.183,9.603-13.77,8.92
		c-10.445-0.938-21.03,0.277-31.529-0.508c-10.285-0.768-14.365-8.719-9.642-17.88c3.314-6.427,6.512-12.948,9.221-19.646
		c3.702-9.155,10.725-13.51,19.961-15.082C269.63,42.347,274.517,42.329,279.986,42.556z"/>
	<path fill-rule="evenodd" clip-rule="evenodd" fill="#FFFFFF" d="M373.499,42.473c8.118,0,15.546-0.262,22.944,0.078
		c6.715,0.309,10.739,6.533,8.816,13.226c-1.837,6.391-5.063,12.218-7.865,18.212c-1.77,3.783-3.385,7.656-5.421,11.291
		c-2.004,3.576-2.339,6.885,0.199,10.162c-0.417,0.839-1.097,0.638-1.67,0.639c-9.495,0.013-18.991-0.049-28.485,0.051
		c-2.373,0.024-2.498-0.543-1.51-2.528c5.308-10.67,10.399-21.448,15.766-32.089C379.685,54.75,379.539,48.61,373.499,42.473z"/>
	<path fill-rule="evenodd" clip-rule="evenodd" fill="#FFFFFF" d="M309.681,42.47c7.913,0,15.242-0.146,22.562,0.056
		c4.254,0.118,8.096,4.758,8.39,9.549c0.153,2.488-0.319,4.902-1.323,7.157c-5.181,11.634-10.44,23.232-15.598,34.875
		c-0.687,1.551-1.572,2.045-3.246,2.023c-7.352-0.095-14.706-0.117-22.058,0.003c-2.362,0.039-2.789-0.453-1.777-2.665
		c4.916-10.747,9.646-21.579,14.567-32.324C314.087,54.836,314.363,48.797,309.681,42.47z"/>
	<path fill-rule="evenodd" clip-rule="evenodd" fill="#FFFFFF" d="M341.438,42.466c7.535,0,14.565-0.171,21.583,0.047
		c7.306,0.227,12.126,7.482,9.742,14.73c-1.847,5.615-4.975,10.695-7.525,16.016c-3.258,6.795-6.624,13.537-9.82,20.359
		c-0.841,1.794-1.806,2.575-3.904,2.528c-6.835-0.153-13.677-0.143-20.513-0.014c-2.599,0.049-3.208-0.472-2.022-3.01
		c4.953-10.607,9.714-21.306,14.622-31.934C346.591,54.715,346.462,48.614,341.438,42.466z"/>
	<path fill-rule="evenodd" clip-rule="evenodd" fill="#FFFFFF" d="M200.851,42.463c2.687,0,4.738,0.124,6.767-0.032
		c2.438-0.187,2.76,0.547,1.745,2.688c-4.925,10.397-9.747,20.843-14.607,31.271c-2.624,5.63-5.359,11.211-7.819,16.911
		c-0.898,2.081-1.951,3.086-4.282,2.828c-1.815-0.2-3.67-0.034-5.508-0.041c-10.049-0.037-15.101-7.819-10.817-16.891
		c4.174-8.839,8.507-17.604,12.86-26.356c2.772-5.574,7.364-8.79,13.455-10.025C195.598,42.218,198.551,42.672,200.851,42.463z"/>
	<path fill-rule="evenodd" clip-rule="evenodd" fill="#FFFFFF" d="M111.952,96.088c-1.631-0.001-3.267,0.072-4.894-0.014
		c-6.62-0.349-11.397-6.776-10.118-13.31c1.849-9.438,10.427-19.57,23.271-18.864c3.558,0.195,7.136,0.069,10.704,0.013
		c1.633-0.026,2.269,0.28,1.454,2.068c-4.343,9.534-8.625,19.096-12.867,28.675c-0.507,1.146-1.223,1.471-2.352,1.443
		C115.419,96.057,113.685,96.088,111.952,96.088z"/>
	<path fill-rule="evenodd" clip-rule="evenodd" fill="#FFFFFF" d="M270.056,72.946c3.179-6.485,6.164-12.577,9.147-18.669
		c1.567-3.199,3.231-6.356,4.653-9.619c0.777-1.784,1.86-2.377,3.745-2.23c2.637,0.205,5.314-0.026,7.938,0.266
		c7.06,0.788,11.014,6.145,9.349,12.952c-1.437,5.871-5.026,10.87-7.301,16.417c-0.312,0.762-1.012,0.891-1.778,0.89
		C287.381,72.942,278.952,72.946,270.056,72.946z"/>
	<path fill-rule="evenodd" clip-rule="evenodd" fill="#FFFFFF" d="M447.45,70.57c-0.003,3.473,0.053,6.947-0.018,10.419
		c-0.088,4.392-2.958,8.294-7.009,9.912c-1.044,0.417-1.67,0.413-2.22-0.649c-1.5-2.899-3.047-5.775-4.594-8.65
		c-0.448-0.834-0.557-1.702,0.44-2.04c2.708-0.919,2.618-3.059,2.426-5.233c-0.175-1.98,0.986-4.763-0.57-5.718
		c-1.279-0.785-3.27,1.471-4.913,2.427c-10.76,6.261-21.501,12.553-32.246,18.839c-1.233,0.722-2.321,1.719-3.499-0.279
		c-1.152-1.956,0.374-2.245,1.431-2.873c12.81-7.606,25.622-15.205,38.446-22.786c1.292-0.764,2.622-1.964,4.224-1.148
		c1.698,0.864,1.182,2.655,1.201,4.133c0.043,3.166-0.035,6.334,0.033,9.499c0.037,1.713-0.239,3.249-1.523,4.478
		c-0.615,0.589-1.221,1.241-0.576,2.104c0.725,0.969,0.614,3.174,2.327,2.655c1.737-0.524,2.967-2.057,2.952-4.216
		c-0.039-5.821-0.012-11.644-0.01-17.465c0-0.102-0.007-0.205,0.001-0.306c0.719-9.438-3.692-8.911-9.808-8.245
		c-7.393,0.806-14.751,1.923-22.14,2.775c-1.138,0.131-3.12,1.051-3.417-0.551c-0.319-1.714,0.815-2.947,3.111-3.191
		c8.711-0.928,17.381-2.231,26.082-3.253c5.215-0.613,9.825,3.668,9.865,8.944C447.475,63.624,447.453,67.097,447.45,70.57z"/>
	<path fill-rule="evenodd" clip-rule="evenodd" fill="#FFFFFF" d="M376.38,31.886c-6.383,0-12.064,0.009-17.746-0.002
		c-13.791-0.027-27.583-0.044-41.374-0.107c-5.406-0.024-11.114,1.148-15.316-3.993c0.289-0.636,1.222-0.111,1.885-0.112
		c21.659-0.035,43.319,0.002,64.978-0.063C371.915,27.6,373.931,29.18,376.38,31.886z"/>
	<path fill-rule="evenodd" clip-rule="evenodd" fill="#FFFFFF" d="M295.379,13.608c7.859,0,15.804,0,23.747,0
		c14.105,0,28.212,0.02,42.317-0.016c2.912-0.008,5.304,0.943,7.28,3.111c-0.695,0.961-1.582,0.58-2.313,0.586
		c-18.694,0.148-37.389,0.292-56.083,0.374C305.027,17.687,299.417,18.79,295.379,13.608z"/>
	<path fill-rule="evenodd" clip-rule="evenodd" fill="#FFFFFF" d="M449.004,53.579c4.577-0.122,14.747,8.446,14.935,12.795
		c0.212,4.89,0.161,9.799,0.029,14.694c-0.092,3.418-3.701,7.16-7.161,7.938c-1.271,0.286-1.882-0.275-2.44-1.249
		c-1.064-1.857-2.142-3.71-3.287-5.518c-1.297-2.046-2.691-3.845,0.957-5.186c1.627-0.599,1.712-7.838-0.009-9.045
		c-2.681-1.882-2.175-4.299-2.025-6.825c3.107,1.131,6.887,5.827,6.654,8.802c-0.261,3.337,0.995,6.86-1.583,10.017
		c-0.871,1.067,0.542,3.06,1.694,3.814c1.196,0.784,2.138-0.585,2.81-1.607c0.521-0.794,0.607-1.705,0.595-2.645
		c-0.026-2.041-0.322-4.142,0.05-6.112c1.264-6.678-2.229-10.811-7.209-14.23C451.039,57.868,449.28,56.405,449.004,53.579z"/>
	<path fill-rule="evenodd" clip-rule="evenodd" fill="#FFFFFF" d="M299.036,20.824c22.358,0,44.737-0.011,67.116,0.015
		c2.586,0.003,4.557,1.264,6.518,3.757c-1.654,0-2.731,0-3.809,0c-18.499,0-36.997-0.016-55.496,0.01
		C308.267,24.613,303.015,25.382,299.036,20.824z"/>
	<path fill-rule="evenodd" clip-rule="evenodd" fill="#FFFFFF" d="M400.645,12.917c2.906,0,5.813-0.003,8.72,0.001
		c1.03,0.001,1.759,0.484,2.083,1.463c0.253,0.759-0.093,1.442-0.604,1.932c-0.657,0.629-1.636,0.704-2.262,0.169
		C406.273,14.511,403.45,13.867,400.645,12.917z"/>
	<path fill-rule="evenodd" clip-rule="evenodd" fill="#FFFFFF" d="M430.353,24.431c0.063,0.149,0.125,0.297,0.187,0.446
		c-0.132-0.077-0.265-0.154-0.396-0.23C430.143,24.648,430.353,24.431,430.353,24.431z"/>
</g>
</svg>
