<?xml version="1.0" encoding="utf-8"?>
<!-- Generator: Adobe Illustrator 16.0.3, SVG Export Plug-In . SVG Version: 6.00 Build 0)  -->
<!DOCTYPE svg PUBLIC "-//W3C//DTD SVG 1.1//EN" "http://www.w3.org/Graphics/SVG/1.1/DTD/svg11.dtd">
<svg version="1.1" id="Ebene_1" xmlns="http://www.w3.org/2000/svg" xmlns:xlink="http://www.w3.org/1999/xlink" x="0px" y="0px"
	 width="545px" height="123px" viewBox="0 0 545 123" enable-background="new 0 0 545 123" xml:space="preserve">
<polygon fill="#FFFFFF" points="270.343,108.703 380.365,11.446 422.609,11.446 386.139,108.703 345.413,108.703 351.795,96.544 
	329.306,96.544 348.148,73.447 363.344,73.447 378.238,43.661 309.854,108.703 "/>
<polygon fill="#FFFFFF" points="394.8,108.703 470.934,11.446 540,11.446 519.257,39.939 484.382,39.256 478.42,47.551 
	434.462,108.703 "/>
<polygon fill="#FFFFFF" points="476.554,46.717 506.87,46.717 486.241,76.467 463.219,76.467 "/>
<path fill="#FFFFFF" stroke="#FFFFFF" stroke-miterlimit="10" d="M301.115,45.41l30.316-24.618c0,0-18.919-20.743-62-7.066
	c0,0-43.005,12.537-42.549,41.183c0,0,0.151,9.648,10.865,17.285c0,0,17.894,11.169,0.798,14.93c0,0-14.703,2.508-23.592-14.132
	l-33.963,28.721c0,0,36.015,23.479,80.843,0c0,0,38.455-19.479,36.32-38.75c0,0,0.912-16.185-24.162-17.552
	c0,0-12.005-1.254,7.75-11.512C281.74,33.898,295.112,27.705,301.115,45.41z"/>
<path fill="#FFFFFF" d="M70.513,57.491l56.833-50.604v50.604c0,0,0,34.95-30.468,47.109c0,0-31.684,13.751-51.775-8.812
	c0,0-14.1-13.794-11.933-39.1h20.399c0,0-9.485,36.859,13.918,43.697c0,0,30.073,8.313,32.961-26.484c0,0,1.215-10.787,0.456-16.258
	L70.513,57.491z"/>
<path fill="#FFFFFF" d="M160.474,56.633h31.912l-58.81-49.745l0.456,49.745c0,0,1.14,42.134-33.736,52.117
	c0,0-31.912,11.811-56.758-5.745c0,0-20.894-11.774-17.552-46.315H8.436c0,0-2.495,63.871,72.714,61.588
	C81.15,118.277,153.18,115.57,160.474,56.633z"/>
<path fill="#FFFFFF" d="M5.941,56.689"/>
</svg>
