<?xml version="1.0" encoding="utf-8"?>
<!-- Generator: Adobe Illustrator 16.0.3, SVG Export Plug-In . SVG Version: 6.00 Build 0)  -->
<!DOCTYPE svg PUBLIC "-//W3C//DTD SVG 1.1//EN" "http://www.w3.org/Graphics/SVG/1.1/DTD/svg11.dtd">
<svg version="1.1" id="Ebene_1" xmlns="http://www.w3.org/2000/svg" xmlns:xlink="http://www.w3.org/1999/xlink" x="0px" y="0px"
	 width="511px" height="115px" viewBox="0 0 511 115" enable-background="new 0 0 511 115" xml:space="preserve">
<path fill-rule="evenodd" clip-rule="evenodd" fill="#FFFFFF" d="M5.667,57.334l20,16.666H481l20.667-17.333H396
	c0,0-8.333,12.834-19.666,13.5c0,0-10.166,2.166-24.333-13.167h-43.167v14h-17.999V57h-44.334l-7.167,13.667h-19L226.668,57h-19
	v13.667h-17v-14h-45.167c0,0-8.751,13.396-20.438,13.646c0,0-14.25,0.188-23.5-12.938L5.667,57.334z"/>
<polygon fill-rule="evenodd" clip-rule="evenodd" fill="#FFFFFF" points="30,78.001 45.333,91.667 82.167,91.667 100.167,107.334 
	406.333,107.334 425.5,90.334 462.333,90.334 479.5,77.334 "/>
<rect x="293.729" y="8.063" fill-rule="evenodd" clip-rule="evenodd" fill="#FFFFFF" width="12.166" height="60.5"/>
<path fill-rule="evenodd" clip-rule="evenodd" fill="#FFFFFF" d="M248.646,29.646c-16.938-15.125-28.521-22.345-28.521-22.345H207
	h-2.083v-0.01H192.75v61.167h12.167v-20h28.391l-9.224,19.5h12.5l14.25-27.625C253.708,33.146,248.646,29.646,248.646,29.646z
	 M207,38.791V18.263l11.083-0.116c0,0,18.438,14.75,19.938,16.5s0.313,3.188,0.313,3.188l-0.453,0.957H207z"/>
<path fill-rule="evenodd" clip-rule="evenodd" fill="#FFFFFF" d="M135.813,26.333l8.25-7.75l-15.5-11.125
	c0,0-5.438-4.25-14.063,2.75l-13.917,13.875c0,0-11.167,10.416,1.792,13.563l27.75,4.938c0,0,9.438,0.75,4.125,6.125l-7.75,6.625
	c0,0-3,2.125-7.813-2.313l-8.438-6.625l-9,7.438c0,0,11.5,8.125,17.188,11.313c0,0,7.438,3.479,12.563-0.313l18-17.25
	c0,0,5.667-6.667-8.333-10.25c-12.897-3.302-25.979-7.5-25.979-7.5s-5.25-1.875,0.188-6l6.563-5.688c0,0,2.313-3,6.313,1.438
	L135.813,26.333z"/>
<path fill-rule="evenodd" clip-rule="evenodd" fill="#FFFFFF" d="M386.479,26.333l8.25-7.75l-15.5-11.125
	c0,0-5.438-4.25-14.063,2.75L351.25,24.083c0,0-11.166,10.416,1.792,13.563l27.75,4.938c0,0,9.438,0.75,4.125,6.125l-7.75,6.625
	c0,0-3,2.125-7.813-2.313l-8.438-6.625l-9,7.438c0,0,11.5,8.125,17.188,11.313c0,0,7.438,3.479,12.563-0.313l18-17.25
	c0,0,5.667-6.667-8.333-10.25c-12.896-3.302-25.979-7.5-25.979-7.5s-5.25-1.875,0.188-6l6.563-5.688c0,0,2.313-3,6.313,1.438
	L386.479,26.333z"/>
</svg>
