<?xml version="1.0" encoding="utf-8"?>
<!-- Generator: Adobe Illustrator 16.0.3, SVG Export Plug-In . SVG Version: 6.00 Build 0)  -->
<!DOCTYPE svg PUBLIC "-//W3C//DTD SVG 1.1//EN" "http://www.w3.org/Graphics/SVG/1.1/DTD/svg11.dtd">
<svg version="1.1" id="Ebene_1" xmlns="http://www.w3.org/2000/svg" xmlns:xlink="http://www.w3.org/1999/xlink" x="0px" y="0px"
	 width="262.833px" height="60.5px" viewBox="0 0 262.833 60.5" enable-background="new 0 0 262.833 60.5" xml:space="preserve">
<g>
	<path fill="#FFFFFF" d="M243.469,52.449l-2.287-7.115h-15.44l-2.922,6.861h-15.93l18.182-46.103h16.815l18.18,46.356H243.469z
		 M237.687,33.249l-4.264-13.419l-4.128,13.419H237.687z"/>
	<path fill="#FFFFFF" d="M241.546,6.592l17.787,45.356h-15.5l-2.287-7.115h-16.135l-2.922,6.861h-14.865l17.787-45.103H241.546
		 M228.619,33.749h9.752l-4.955-15.595L228.619,33.749 M242.228,5.592h-0.682h-16.135h-0.681l-0.25,0.633l-17.787,45.103
		l-0.539,1.367h1.47h14.865h0.661l0.259-0.608l2.663-6.252h14.745l2.063,6.421l0.224,0.694h0.729h15.5h1.467l-0.536-1.365
		L242.477,6.227L242.228,5.592L242.228,5.592z M229.972,32.749l3.459-11.244l3.572,11.244H229.972L229.972,32.749z"/>
</g>
<g>
	<path fill="#FFFFFF" d="M145.802,52.449l-2.287-7.115h-15.44l-2.922,6.861h-15.931l18.182-46.103h16.816l18.18,46.356H145.802z
		 M140.02,33.249l-4.264-13.419l-4.128,13.419H140.02z"/>
	<path fill="#FFFFFF" d="M143.879,6.592l17.787,45.356h-15.5l-2.287-7.115h-16.135l-2.922,6.861h-14.865l17.787-45.103H143.879
		 M130.952,33.749h9.752l-4.955-15.595L130.952,33.749 M144.561,5.592h-0.682h-16.135h-0.681l-0.25,0.633l-17.787,45.103
		l-0.539,1.367h1.469h14.865h0.661l0.259-0.608l2.663-6.252h14.745l2.063,6.421l0.224,0.694h0.729h15.5h1.466l-0.535-1.365
		L144.81,6.227L144.561,5.592L144.561,5.592z M132.306,32.749l3.458-11.244l3.572,11.244H132.306L132.306,32.749z"/>
</g>
<path fill="#FFFFFF" stroke="#FFFFFF" stroke-miterlimit="10" d="M203.652,22.656c0,0,0.177-4.563-0.413-6.219
	c0,0-1.003-4.531-5.045-7.875c0,0-4.632-4.063-12.656-4.281c0,0-7.229-0.281-11.565,1.844c0,0-4.809,1.688-7.7,6.625
	c0,0-3.157,5-1.357,11.125c0,0,1.21,4.375,6.55,6.938c0,0,2.606,1.313,5.871,2.146l8.813,2.104c0,0,5.408,1.292,5.88,2.021
	c0,0,1.731,1.292-0.472,3.604c0,0-0.886,1.084-4.504,1.667c0,0-3.088,0.5-6.885-0.313c0,0-2.772-0.5-3.992-2.708
	c0,0-0.825-1.25-1.023-5.521l-12.193,0.042c0,0,0.021,5.062,1.121,8.146c0,0,0.847,3.354,4.445,7.063c0,0,2.518,2.354,4.937,3.063
	c0,0,3.501,1.438,8.752,1.625c0,0,2.656,0.334,7.495-0.333c0,0,3.027-0.401,4.989-1.308c0,0,3.039-1.172,5.045-3.016
	c0,0,2.508-2.188,4.219-5.734c0,0,0.944-1.453,1.195-5.453c0,0,0.147-2.219-0.531-4.422c0,0-0.634-2.172-1.682-3.531
	c0,0-1.563-2.609-5.62-4.25c0,0-3.851-1.516-7.272-2.234l-9.102-2.156c0,0-2.228-0.625-3.143-1.484c0,0-1.445-1.141-0.191-2.703
	c0,0,0.546-0.906,2.862-1.313c0,0,3.422-0.531,5.871,0.016c0,0,2.876,0.297,3.775,1.438c0,0,1.106,1.234,1.299,2.578l0.235,2.797
	L203.652,22.656z"/>
<path fill="#FFFFFF" stroke="#FFFFFF" stroke-miterlimit="10" d="M106.152,22.656c0,0,0.177-4.563-0.413-6.219
	c0,0-1.003-4.531-5.045-7.875c0,0-4.632-4.063-12.656-4.281c0,0-7.229-0.281-11.565,1.844c0,0-4.809,1.688-7.7,6.625
	c0,0-3.157,5-1.357,11.125c0,0,1.21,4.375,6.55,6.938c0,0,2.606,1.313,5.871,2.146l8.813,2.104c0,0,5.408,1.292,5.88,2.021
	c0,0,1.731,1.292-0.472,3.604c0,0-0.886,1.084-4.504,1.667c0,0-3.088,0.5-6.885-0.313c0,0-2.772-0.5-3.992-2.708
	c0,0-0.825-1.25-1.023-5.521l-12.193,0.042c0,0,0.021,5.062,1.121,8.146c0,0,0.847,3.354,4.445,7.063c0,0,2.518,2.354,4.937,3.063
	c0,0,3.501,1.438,8.752,1.625c0,0,2.656,0.334,7.495-0.333c0,0,3.027-0.401,4.989-1.308c0,0,3.039-1.172,5.045-3.016
	c0,0,2.508-2.188,4.219-5.734c0,0,0.944-1.453,1.195-5.453c0,0,0.147-2.219-0.531-4.422c0,0-0.634-2.172-1.682-3.531
	c0,0-1.563-2.609-5.62-4.25c0,0-3.851-1.516-7.272-2.234l-9.102-2.156c0,0-2.228-0.625-3.143-1.484c0,0-1.445-1.141-0.191-2.703
	c0,0,0.546-0.906,2.862-1.313c0,0,3.422-0.531,5.871,0.016c0,0,2.876,0.297,3.775,1.438c0,0,1.106,1.234,1.299,2.578l0.235,2.797
	L106.152,22.656z"/>
<path fill-rule="evenodd" clip-rule="evenodd" fill="#FFFFFF" d="M40.096,52.379c1.93-1.255,3.831-2.285,5.497-3.61
	c9.721-7.737,7.388-23.409-4.147-28.082c-5.186-2.101-10.194-1.66-15.017,1.143c-2.653,1.541-5.315,3.068-8.096,4.672
	c1.056,1.859,2.079,3.658,3.164,5.565c-2.725-0.917-4.826-3.981-4.927-7.057c-0.107-3.261,1.159-5.841,3.933-7.608
	c1.161-0.74,2.377-1.394,3.648-2.133c-0.469,2.037-0.462,2.007,1.5,2.488c1.9,0.465,3.782,1,5.889,1.562
	c1.38-5.103,2.75-10.169,4.165-15.405c-3.504-0.949-6.939-1.878-10.375-2.808c2.558-0.579,5.088-0.74,7.648-0.45
	c8.651,0.982,15.683,4.852,20.945,11.805c3.191,4.216,5.164,8.981,5.689,14.253c1.1,11.011-2.709,20.022-11.248,27.055
	c-0.594,0.49-1.125,0.586-1.845,0.348c-1.049-0.349-2.133-0.593-3.203-0.879C42.285,52.962,41.252,52.688,40.096,52.379z"/>
<path fill-rule="evenodd" clip-rule="evenodd" fill="#FFFFFF" d="M19.86,8.154c-1.94,1.272-3.915,2.332-5.617,3.724
	c-9.446,7.724-7.125,23.162,4.119,27.899c5.255,2.214,10.302,1.779,15.204-0.998c2.551-1.444,5.077-2.928,7.612-4.4
	c0.181-0.104,0.334-0.255,0.565-0.435c-1.038-1.81-2.756-4.562-3.817-6.413c2.827,0.965,5.549,5.155,5.501,8.557
	c-0.066,4.791-3.047,6.943-7.45,8.926c0.127-0.534,0.248-1.039,0.377-1.586c-0.238-0.126-0.441-0.285-0.67-0.348
	c-2.34-0.635-4.684-1.254-7.179-1.918c-0.43,1.532-0.851,2.991-1.245,4.457c-0.89,3.305-1.734,6.623-2.672,9.915
	c-0.252,0.888-0.009,1.208,0.818,1.42c2.965,0.761,5.918,1.568,8.877,2.359c0.233,0.063,0.463,0.138,0.787,0.234
	c-5.905,0.975-11.51,0.284-16.872-2.088c-7.752-3.429-13.102-9.17-16.015-17.119c-2.468-6.733-2.391-13.52,0.017-20.247
	C4.151,14.64,7.47,10.138,12.103,6.64c0.298-0.225,0.802-0.398,1.139-0.313C15.454,6.892,17.646,7.533,19.86,8.154z"/>
<path fill-rule="evenodd" clip-rule="evenodd" fill="#FFFFFF" d="M35.632,28.585l-7.878,3.805c-2.988,1.415-5.943,0.067-5.943,0.067
	l9.252-4.803c0,0,4.396-1.716,6.864-0.123"/>
</svg>
