<?xml version="1.0" encoding="utf-8"?>
<!-- Generator: Adobe Illustrator 16.0.3, SVG Export Plug-In . SVG Version: 6.00 Build 0)  -->
<!DOCTYPE svg PUBLIC "-//W3C//DTD SVG 1.1//EN" "http://www.w3.org/Graphics/SVG/1.1/DTD/svg11.dtd">
<svg version="1.1" id="Ebene_1" xmlns="http://www.w3.org/2000/svg" xmlns:xlink="http://www.w3.org/1999/xlink" x="0px" y="0px"
	 width="268px" height="69px" viewBox="0 0 268 69" enable-background="new 0 0 268 69" xml:space="preserve">
<g>
	<path fill-rule="evenodd" clip-rule="evenodd" fill="#FFFFFF" d="M73.613,27.137c-9.105-2.655-14.907,2.234-17.926,12.261
		c-1.33,4.416-3.875,8.458-5.768,12.714c-2.871,6.457-7.59,9.774-14.843,9.616c-8.657-0.189-17.323,0.019-25.982-0.106
		c-1.459-0.021-4.286,1.179-3.947-1.883c0.235-2.121,1.055-4.617,4.309-4.51c4.326,0.144,8.676-0.175,12.985,0.13
		c4.689,0.333,7.522-1.661,9.358-5.81c2.828-6.391,5.861-12.689,8.754-19.051c3.057-6.72,7.866-10.277,15.617-10.019
		c9.982,0.333,19.985,0.033,29.979,0.134c1.4,0.014,4.063-1.044,3.908,1.439c-0.137,2.194-0.783,5.144-4.302,5.095
		C82.257,27.099,78.758,27.137,73.613,27.137z"/>
	<path fill-rule="evenodd" clip-rule="evenodd" fill="#FFFFFF" d="M168.404,20.563c8.923-0.055,8.925-0.054,5.242,7.958
		c-4.09,8.9-9.104,17.515-11.96,26.794c-1.95,6.334-5.179,6.622-10.297,6.443c-8.177-0.286-8.107-0.04-4.717-7.227
		c4.196-8.895,8.249-17.858,12.365-26.791c0.208-0.452,0.659-0.925,0.611-1.344C158.789,18.821,164.082,20.419,168.404,20.563z"/>
	<path fill-rule="evenodd" clip-rule="evenodd" fill="#FFFFFF" d="M63.253,38.304c0.616-5.449,3.37-6.761,7.919-6.4
		c4.948,0.393,9.953,0.022,14.93,0.107c6.26,0.107,8.944,4.159,6.521,10.03c-1.96,4.749-5.494,9.225-6.058,14.085
		c-0.841,7.248-5.32,5.676-9.548,5.69c-8.589,0.029-8.592,0.008-5.034-7.947c1.624-3.632,3.229-7.273,4.907-10.879
		c1.403-3.015,0.133-4.488-2.814-4.644C70.618,38.165,67.144,38.304,63.253,38.304z"/>
	<path fill-rule="evenodd" clip-rule="evenodd" fill="#FFFFFF" d="M175.941,38.227c0.39-4.531,2.04-6.643,6.634-6.324
		c5.462,0.379,10.973,0.011,16.459,0.105c5.705,0.098,8.218,4.033,6.415,9.448c-2.174,6.529-5.89,12.355-7.821,19.141
		c-0.915,3.215-8.415,0.715-12.905,1.188c-1.071,0.113-2.625,0.393-2.961-1.048c-0.19-0.814,0.494-1.876,0.894-2.777
		c2.158-4.859,4.269-9.741,6.557-14.538c1.69-3.545,0.298-5.036-3.183-5.168C182.732,38.129,179.425,38.227,175.941,38.227z"/>
	<path fill-rule="evenodd" clip-rule="evenodd" fill="#FFFFFF" d="M140.404,27.038c-4.275,3.118-6.413,7.3-8.271,11.802
		c-2.026,4.908-4.304,9.715-6.554,14.528c-3.157,6.754-9.459,9.803-16.833,8.485c-2.029-0.363-2.082-1.227-1.398-2.686
		c4.576-9.775,9.145-19.554,13.771-29.305c1.05-2.214,3.049-2.859,5.391-2.837C131.141,27.068,135.773,27.038,140.404,27.038z"/>
	<path fill-rule="evenodd" clip-rule="evenodd" fill="#FFFFFF" d="M99.117,32.014c3.224,0,6.047-0.161,8.845,0.037
		c4.577,0.324,7.17,4.166,5.402,8.444c-2.655,6.426-5.505,12.795-8.699,18.967c-2.268,4.383-6.438,2.658-9.623,1.487
		c-3.929-1.444-5.218-4.887-3.455-8.797c1.786-3.961,4.085-7.689,5.985-11.603C98.833,37.954,100.802,35.443,99.117,32.014z"/>
	<path fill-rule="evenodd" clip-rule="evenodd" fill="#FFFFFF" d="M147.851,32.094c6.793-0.011,6.8-0.007,4.213,5.486
		c-3.256,6.914-6.506,13.83-9.796,20.728c-1.694,3.551-5.424,4.696-9.542,2.882c-3.675-1.619-4.916-4.558-3.389-8.169
		c2.444-5.781,4.844-11.646,8.009-17.036C139.642,32.076,144.136,31.782,147.851,32.094z"/>
	<path fill-rule="evenodd" clip-rule="evenodd" fill="#FFFFFF" d="M231.475,30.081c1.192,2.71,5.777,0.525,4.426,4.197
		c-1.133,3.08-4.145,1.655-6.404,1.762c-0.671-2.221,1.521-1.456,1.839-2.275c-1.628-1.182-3.416-2.158-4.784-3.546
		c-2.207-2.24-3.892-4.976-1.342-7.913c2.328-2.682,5.023-1.385,7.73-0.15c1.399,0.639,2.94,4.624,4.881-0.166
		c1.146-2.832,0.651-3.349-1.772-3.946c-1.784-0.439-2.825-1.766-4.123-3.118c-3.591-3.74-8.724-2.387-12.948-1.639
		c-2.665,0.471-3.858,0.098-5.095-1.849c-2.985,3.681,0.16,3.931,3.117,4.64c-6.169,1.181-11.534,1.486-17.282,0.534
		c2.787-4.086,6.148-4.992,10.213-4.566c1.933,0.203,1.744-2.188,2.812-3.097c1.782-1.519,3.161-4.627,5.839-0.323
		c2.166,3.483,6.46,2.239,9.972,2.263c2.845,0.02,5.805-0.481,6.305,3.716c0.185,1.548,2.056,1.457,3.241,1.944
		c2.835,1.165,3.85,1.914,2.035,5.694c-2.891,6.019-5.252,5.322-9.094,1.455c-1.063-1.068-2.739-1.186-4.095,0.037
		c-1.06,0.955-0.887,1.999-0.326,3.157c0.813,1.678,1.849,1.47,3.573,1.254c3.771-0.473,7.637-0.175,11.463-0.246
		c1.275-0.024,2.877,0.438,3.577-1.053c0.778-1.655-1.878-1.652-1.786-3.345c2.717-1.108,4.134,0.34,4.412,2.759
		c0.269,2.345-1.293,3.738-3.645,3.792C240.103,30.149,235.988,30.081,231.475,30.081z"/>
	<path fill-rule="evenodd" clip-rule="evenodd" fill="#FFFFFF" d="M186.201,44.209c-2.425,5.497-4.611,10.824-7.128,15.989
		c-1.12,2.298-9.382,2.175-11.936,0.067c-3.028-2.499-2.625-7.641,0.636-11.463C172.693,43.032,179.115,43.588,186.201,44.209z"/>
	<path fill-rule="evenodd" clip-rule="evenodd" fill="#FFFFFF" d="M74.134,44.048c-2.161,4.834-4.261,8.969-5.859,13.289
		c-1.287,3.48-3.252,4.794-7.017,4.592c-3.686-0.197-6.732-1.441-7.993-4.676c-1.27-3.258,0.374-6.411,2.684-8.961
		C60.825,42.906,67.174,43.583,74.134,44.048z"/>
	<path fill-rule="evenodd" clip-rule="evenodd" fill="#FFFFFF" d="M248.104,51.317c3.753-2.01,6.91-1.665,9.766-0.823
		c1.757,0.518,4.072,2.737,3.704,4.26c-0.709,2.93-2.063,6.189-4.69,7.912c-1.908,1.252-4.459,0.568-6.454-1.101
		c-1.22-1.021-1.604-3.688-4.2-2.382c-0.037,0.019-0.685-0.752-0.617-1.058c0.09-0.402,0.569-0.952,0.949-1.013
		c1.654-0.265,3.082-0.223,4.311,1.48c0.979,1.357,3.107,4.658,3.381-0.68c0.053-1.045,1.355-2.702,2.116-3.485
		c2.315-2.384,0.392-2.093-1.036-2.278C253.232,51.876,251.049,52.57,248.104,51.317z"/>
	<path fill-rule="evenodd" clip-rule="evenodd" fill="#FFFFFF" d="M243.724,52.248c-3.513,0-5.509,2.855-8.383,4.047
		c-2.918,1.21-5.704,2.091-4.661-3.696c-3.342,3.98-4.996,9.145-11.102,8.806c3.805-2.405,6.541-5.674,8.768-9.458
		c0.902-1.532,3.068-1.627,3.856-0.286c2.815,4.787,5.028,1.405,6.632-0.602C241.091,48.235,242.33,49.159,243.724,52.248z"/>
	<path fill-rule="evenodd" clip-rule="evenodd" fill="#FFFFFF" d="M257.074,27.056c-4.51,1.179-6.268,6.043-10.381,7.755
		c-0.322-0.356-0.645-0.713-0.967-1.07c3.716-3.396,6.384-8.16,11.724-9.414c1.121-0.263,2.976-0.929,3.683,1.305
		c0.706,2.234,1.744,4.41,1.605,6.777c-0.055,0.917-1.333,0.733-2.111,0.696c-1.084-0.051-2.677,0.273-2.559-1.468
		c0.118-1.731-1.818-2.864-1.096-4.652c0.102-0.067,0.221-0.12,0.297-0.209c0.026-0.031-0.055-0.153-0.087-0.233
		C257.146,26.714,257.111,26.885,257.074,27.056z"/>
	<path fill-rule="evenodd" clip-rule="evenodd" fill="#FFFFFF" d="M198.058,18.712c6.096,0,11.758,0,18.055,0
		C212.063,21.579,201.911,21.427,198.058,18.712z"/>
	<path fill-rule="evenodd" clip-rule="evenodd" fill="#FFFFFF" d="M260.988,35.838c-0.35,0.507-0.545,1.002-0.705,0.991
		c-3.888-0.268-6.255,2.022-8.195,4.919c-0.365,0.544-0.449,1.281-1.273,1.084c-1.131-0.271-1.029-1.492-0.769-2.002
		c1.374-2.692,1.678-6.837,6.415-5.58C257.869,35.625,259.356,34.464,260.988,35.838z"/>
	<path fill-rule="evenodd" clip-rule="evenodd" fill="#FFFFFF" d="M197.34,25.169c6.277,0,12.281,0,18.774,0
		C212.645,27.801,200.712,27.686,197.34,25.169z"/>
	<path fill-rule="evenodd" clip-rule="evenodd" fill="#FFFFFF" d="M216.825,30.15c-5.791,0.012-11.593,0.452-17.353-1.521
		c5.763,0,11.525,0,17.287,0C216.782,29.135,216.804,29.643,216.825,30.15z"/>
	<path fill-rule="evenodd" clip-rule="evenodd" fill="#FFFFFF" d="M214.875,23.609c-5.743,0.753-11.482,0.87-17.203-1.331
		c5.738,0,11.477,0,17.215,0C214.883,22.722,214.879,23.166,214.875,23.609z"/>
	<path fill-rule="evenodd" clip-rule="evenodd" fill="#FFFFFF" d="M246.693,34.811c-2.33,2.987-4.66,5.975-7.129,9.14
		c-1.453-3.178-4.686-3.599-6.95-5.37c0.172-0.967,1.179-0.83,1.437-0.665c5.729,3.666,8.687-0.281,11.676-4.175
		C246.049,34.098,246.371,34.455,246.693,34.811z"/>
	<path fill-rule="evenodd" clip-rule="evenodd" fill="#FFFFFF" d="M251.207,44.315c-1.005,3.074-3.358,3.59-5.256,5.13
		C245.883,45.444,245.883,45.444,251.207,44.315z"/>
	<path fill-rule="evenodd" clip-rule="evenodd" fill="#FFFFFF" d="M222.461,41.941c-4.559,0-9.117,0-13.676,0
		C213.318,40.554,217.881,40.685,222.461,41.941z"/>
	<path fill-rule="evenodd" clip-rule="evenodd" fill="#FFFFFF" d="M257.074,27.056c0.037-0.171,0.072-0.342,0.108-0.514
		c0.032,0.081,0.113,0.203,0.087,0.233c-0.076,0.089-0.195,0.142-0.297,0.209C256.973,26.986,257.074,27.056,257.074,27.056z"/>
</g>
</svg>
