<?xml version="1.0" encoding="utf-8"?>
<!-- Generator: Adobe Illustrator 16.0.3, SVG Export Plug-In . SVG Version: 6.00 Build 0)  -->
<!DOCTYPE svg PUBLIC "-//W3C//DTD SVG 1.1//EN" "http://www.w3.org/Graphics/SVG/1.1/DTD/svg11.dtd">
<svg version="1.1" xmlns="http://www.w3.org/2000/svg" xmlns:xlink="http://www.w3.org/1999/xlink" x="0px" y="0px" width="225px"
	 height="118px" viewBox="0 0 225 118" enable-background="new 0 0 225 118" xml:space="preserve">
<g id="Ebene_1" display="none">
	
		<image display="inline" overflow="visible" width="247" height="138" xlink:href="../../../../../Desktop/Logo_Scat_converted.jpg"  transform="matrix(1 0 0 1 -1 -25)">
	</image>
</g>
<g id="Ebene_2">
	<circle fill="#FFFFFF" cx="164.625" cy="100.375" r="12.625"/>
	<circle fill="#FFFFFF" cx="38.375" cy="100.375" r="12.625"/>
	<path fill="#FFFFFF" d="M157.75,95.75H21.5c0,0-10.583,1.416-8.333-8L25.75,34.333c0,0,1.5-7.833,8-7.583h127.917l1.666-6.083H37
		c0,0-14.5-1.333-17.417,9.583L7,87.75c0,0-1.688,6.688,2.625,10.688c0,0,3.188,3.563,14.5,3.063h133.5L157.75,95.75z"/>
	<path fill="#FFFFFF" d="M42.25,61.875h33.875c0,0-7.625,23.375-36.5,10.875L42.25,61.875z"/>
	<path fill="#FFFFFF" d="M81.625,61.875c0,0,5.125,19.75,28.375,13.25l2.75-13.25H81.625z"/>
	<polygon fill="#FFFFFF" points="112.75,74.75 118.167,61.875 159.917,61.875 161.25,74.75 144.25,74.75 143.75,65.5 134.167,65.5 
		131,74.75 	"/>
	<polygon fill="#FFFFFF" points="170.25,61.875 188.416,61.875 185.916,74.75 168.083,74.75 	"/>
	<polygon fill="#FFFFFF" points="180.417,8.75 178.417,19.083 216.583,19.083 218.417,8.75 	"/>
	<polyline fill="#FFFFFF" points="144.417,19.083 148.417,8.75 169.25,8.75 170.167,19.083 144.417,19.083 	"/>
	<path fill="#FFFFFF" d="M100.833,19.083c0,0,8.417-17.917,32.667-9.5l-1.667,9.5H100.833z"/>
	<path fill="#FFFFFF" d="M59.5,18.667c0,0,6.75-19.667,34.167-7.417l-1.417,7.833H59.5V18.667z"/>
	<polygon fill="#FFFFFF" points="171.583,20.615 170.167,26.917 181.333,26.917 175.75,60.667 193.416,60.667 198.417,26.917 
		209.583,26.917 211.167,20.615 	"/>
	<path fill="#FFFFFF" d="M163.333,20.641H138.25l-15.61,40h43.735L163.333,20.641z M150.583,51.75h-8l8-22.917V51.75z"/>
	<path fill="#FFFFFF" d="M92.167,22.667c0,0-11.333,17-5,38H118V57.75c0,0-13.75,4.688-14.188-8.625c0,0-0.938-18.5,11.688-25.188
		L92.167,22.667z"/>
	<path fill="#FFFFFF" d="M47.25,54.719l-1.625,6.363h36.25c0,0,4.313-14.395-5.75-21.957c0,0-12.813-9.25-5.188-13.625h7.375
		c0,0,5.188,2,6,4.625V23.25l-31.188-0.583c0,0-6.188,9.896,0.75,16.896c0,0,11.938,10.063,11.094,14.688
		c0,0-0.219,8.063-10.969,3.688L47.25,54.719z"/>
</g>
</svg>
