<?xml version="1.0" encoding="utf-8"?>
<!-- Generator: Adobe Illustrator 19.0.0, SVG Export Plug-In . SVG Version: 6.00 Build 0)  -->
<svg version="1.1" xmlns="http://www.w3.org/2000/svg" xmlns:xlink="http://www.w3.org/1999/xlink" x="0px" y="0px"
	 viewBox="0 0 162 67" style="enable-background:new 0 0 162 67;" xml:space="preserve">
<style type="text/css">
	.st0{fill:#FFFFFF;}
</style>
<g id="Ebene_1">
</g>
<g id="Ebene_2">
	<polygon id="XMLID_4_" class="st0" points="53.3,12 75.3,12 74.7,23 61.3,23 60.5,31 72.3,31 71.8,42 59.3,42 58.3,51 71.3,51 
		70.6,63 47.3,63 	"/>
	<path id="XMLID_10_" class="st0" d="M109.2,11h-9.9l-15,52h11l1.2-8h8.8l1.2,8h8.8L109.2,11z M99.3,43l4.1-16l1.9,16H99.3z"/>
	<path id="XMLID_5_" class="st0" d="M130,39.4c-0.1-28.3,15.8-28.6,15.8-28.6c12.5-0.4,13.6,18.2,13.6,18.2h-10c0-9-5.2-5.1-5.2-5.1
		s-6.2,6.7-4.4,22.3c0,0,0.4,3.6,3,4.4c0,0,6.2,2.3,6.4-9.7l9.2,4.7c0,0-1.8,14.2-11.3,16.8c0,0-8.2,3.2-13.8-6.9
		C133.1,55.6,130,50.8,130,39.4z"/>
	<path id="XMLID_2_" class="st0" d="M19.9,25.4c0,0-0.6-4.3,4.2-4.8c0,0,4.6-0.7,2.3,7.3h9c0,0,2.1-11.5-7.8-15.2c0,0-11-3.4-15,8.1
		c0,0-3.1,10.4,3.5,17.1c0,0,0.6,0.5,1,0.9c0,0,7.2,4.3,7.3,7.9c0,0,0.7,4.2-4.1,4.7c0,0-4.5,0.6-2.2-7.4H9c0,0-2.1,11.6,7.8,15.4
		c0,0,11,3.3,15-8.2c0,0,1.9-6.4-0.5-12.5c0,0-1.6-4.2-5.8-5.7C25.5,33,20,31.3,19.9,25.4z"/>
</g>
</svg>
