<?xml version="1.0" encoding="utf-8"?>
<!-- Generator: Adobe Illustrator 16.0.3, SVG Export Plug-In . SVG Version: 6.00 Build 0)  -->
<!DOCTYPE svg PUBLIC "-//W3C//DTD SVG 1.1//EN" "http://www.w3.org/Graphics/SVG/1.1/DTD/svg11.dtd">
<svg version="1.1" id="Ebene_1" xmlns="http://www.w3.org/2000/svg" xmlns:xlink="http://www.w3.org/1999/xlink" x="0px" y="0px"
	 width="595.28px" height="226.488px" viewBox="0 0 595.28 226.488" enable-background="new 0 0 595.28 226.488"
	 xml:space="preserve">
<path fill-rule="evenodd" clip-rule="evenodd" fill="#FFFFFF" d="M9.875,43.95c0-10.481,0-20.962,0-31.443
	c0.215-0.277,0.43-0.553,0.646-0.83c54.28,0,108.56,0,162.84,0c0,60.212,0,120.424,0,180.636c-0.125,0.642-0.238,1.287-0.374,1.926
	c-1.665,7.803-8.555,14.026-17.131,13.939c-6.208-0.063-12.417-0.02-18.625-0.021c-11.188-0.002-22.375-0.004-33.563,0.005
	c-0.627,0.001-1.261,0.048-1.878,0.154c-2.903,0.497-4.979,2.191-6.528,4.61c-1.129,1.763-1.836,3.704-2.358,5.721
	c-0.338,1.305-0.276,1.024-1.372,1.042c-0.834,0.016-0.854-0.005-1.052-0.808c-0.414-1.673-0.958-3.299-1.763-4.828
	c-2.052-3.899-5.138-5.944-9.691-5.926c-17.226,0.07-34.453,0.042-51.68,0.021c-5.543-0.007-10.056-2.259-13.511-6.568
	c-2.727-3.401-3.911-7.335-3.91-11.682C9.937,141.476,9.933,93.053,9.93,44.631C9.93,44.403,9.895,44.177,9.875,43.95z
	 M38.21,13.727c44.384,57.135,88.703,114.188,133.083,171.319c0-57.185,0-114.246,0-171.319
	C126.945,13.727,82.634,13.727,38.21,13.727z M91.706,215.462c0.25-0.571,0.493-1.165,0.768-1.744
	c0.967-2.037,2.24-3.845,4.029-5.254c2.235-1.758,4.812-2.407,7.617-2.402c10.343,0.016,20.685,0.006,31.027,0.006
	c0.19,0,0.38,0,0.671,0c-0.569-0.736-1.063-1.377-1.559-2.017c-8.924-11.488-17.848-22.976-26.772-34.464
	c-2.479-3.191-4.954-6.384-7.442-9.567c-0.121-0.155-0.364-0.324-0.538-0.311c-1.739,0.135-3.431,0.513-5.032,1.21
	c-3.722,1.624-6.857,3.975-9.157,7.384c-0.745,1.102-1.597,2.138-2.466,3.148c-0.499,0.579-1.176,0.922-1.997,0.882
	c-2.604-0.126-5.185,0.165-7.765,0.456c-0.125,0.014-0.292,0.194-0.332,0.329c-0.107,0.366-0.138,0.754-0.229,1.126
	c-1.308,5.362-3.039,10.582-5.329,15.608c-1.493,3.277-3.2,6.435-5.423,9.285c-1.244,1.595-2.609,3.075-4.377,4.106
	c-2.038,1.188-4.067,1.407-6.055-0.144c-0.122-0.095-0.345-0.104-0.516-0.09c-1.584,0.122-2.886-0.449-3.955-1.594
	c-1.052-1.124-1.678-2.485-2.148-3.926c-1.041-3.189-1.313-6.491-1.356-9.816c-0.06-4.59,0.382-9.145,1.206-13.655
	c0.168-0.92,0.02-1.429-0.82-1.88c-1.366-0.734-2.201-1.923-2.516-3.461c-0.074-0.36-0.198-0.709-0.292-1.065
	c-0.71-2.657-1.485-5.271-3.037-7.611c-1.153-1.738-2.504-3.208-4.272-4.312c-1.068-0.666-2.115-1.366-3.149-2.083
	c-1.034-0.716-1.426-1.752-1.429-2.986c-0.001-0.333-0.088-0.704-0.252-0.99c-1.67-2.919-3.685-5.588-5.975-8.047
	c-2.461-2.641-5.181-4.929-8.58-6.307c-0.479-0.194-0.93-0.557-1.282-0.943c-0.66-0.721-0.612-1.688,0.104-2.35
	c0.363-0.334,0.813-0.622,1.274-0.793c1.75-0.649,3.498-0.463,5.23,0.125c0.167,0.057,0.366,0.134,0.522,0.095
	c2.34-0.586,4.515-0.102,6.563,1.047c1.351,0.758,2.648,1.613,3.977,2.411c0.17,0.102,0.402,0.186,0.588,0.161
	c1.892-0.262,3.668,0.11,5.356,0.952c1.815,0.905,3.279,2.269,4.677,3.701c3.037,3.11,5.641,6.569,8.077,10.16
	c0.522,0.769,1.023,1.553,1.575,2.393c0.206-0.446,0.382-0.832,0.56-1.216c1.595-3.436,3.393-6.751,5.809-9.692
	c1.295-1.577,2.725-3.015,4.605-3.897c1.858-0.872,3.649-0.832,5.325,0.479c0.124,0.097,0.336,0.131,0.5,0.116
	c1.38-0.118,2.579,0.271,3.582,1.234c0.699,0.671,1.178,1.49,1.557,2.372c0.804,1.867,1.147,3.844,1.382,5.846
	c0.068,0.583,0.119,1.168,0.188,1.851c3.439-3.211,7.544-5.196,11.536-7.453C61.327,110.167,36.71,78.479,12.095,46.792
	c-0.033,0.013-0.064,0.025-0.097,0.038c0,0.208,0,0.417,0,0.626c0,47.578-0.001,95.156,0.007,142.733
	c0,0.796,0.062,1.598,0.165,2.387c0.993,7.582,7.505,13.576,15.401,13.526c17.226-0.11,34.454-0.043,51.681-0.017
	c1.201,0.002,2.434,0.135,3.598,0.422c3.103,0.764,5.36,2.722,6.998,5.399C90.539,213.04,91.084,214.261,91.706,215.462z
	 M68.854,173.528c-1.771,0.258-3.185,1.037-4.543,1.958c-0.582,0.395-1.201,0.74-1.827,1.062c-0.471,0.241-0.982,0.274-1.451-0.034
	c-0.508-0.335-0.719-0.871-0.703-1.432c0.031-1.098,0.033-2.221,0.267-3.285c0.206-0.94,0.705-1.818,1.082-2.72
	c0.77-1.839,1.505-3.693,2.325-5.509c1.777-3.934,3.88-7.669,6.801-10.894c0.126-0.139,0.204-0.385,0.194-0.574
	c-0.077-1.364-0.135-2.731-0.292-4.087c-0.127-1.096-0.367-2.183-0.974-3.14c-0.464-0.733-1.09-0.987-1.893-0.689
	c-0.453,0.168-0.896,0.414-1.277,0.71c-1.505,1.17-2.564,2.721-3.542,4.323c-2.354,3.859-4.051,8.018-5.472,12.291
	c-2.538,7.627-4.267,15.425-4.824,23.462c-0.21,3.042-0.233,6.078,0.305,9.093c0.229,1.289,0.541,2.558,1.348,3.633
	c0.632,0.842,1.424,1.073,2.346,0.566c0.648-0.357,1.266-0.823,1.789-1.349c1.706-1.718,2.917-3.789,4.024-5.919
	c2.551-4.909,4.345-10.105,5.808-15.425C68.523,174.91,68.676,174.243,68.854,173.528z M71.362,173.078
	c-0.98,0.031-0.981,0.031-1.141,0.819c-0.06,0.301-0.101,0.606-0.179,0.902c-1.132,4.307-2.487,8.54-4.237,12.639
	c-1.383,3.239-2.933,6.392-5.112,9.188c-0.95,1.218-1.995,2.345-3.442,2.994c-1.517,0.679-2.972,0.325-3.976-1
	c-0.348-0.459-0.641-0.978-0.871-1.508c-0.714-1.655-0.973-3.419-1.116-5.197c-0.281-3.489-0.105-6.971,0.289-10.441
	c0.539-4.733,1.451-9.398,2.678-14c1.524-5.718,3.415-11.304,6.156-16.57c1.166-2.24,2.46-4.398,4.233-6.227
	c0.742-0.766,1.555-1.441,2.575-1.816c1.477-0.543,2.799-0.143,3.669,1.159c0.278,0.416,0.542,0.88,0.655,1.359
	c0.298,1.249,0.533,2.515,0.746,3.782c0.104,0.625,0.103,1.268,0.154,1.961c0.304-0.232,0.634-0.341,0.581-0.76
	c-0.247-1.932-0.423-3.875-0.755-5.792c-0.247-1.422-0.744-2.789-1.673-3.945c-0.698-0.868-1.607-1.295-2.713-1.136
	c-0.536,0.077-1.076,0.257-1.565,0.493c-1.408,0.679-2.511,1.752-3.523,2.917c-2.254,2.591-3.948,5.54-5.441,8.611
	c-2.649,5.446-4.541,11.161-5.991,17.03c-1.078,4.363-1.889,8.776-2.272,13.253c-0.214,2.504-0.273,5.028-0.292,7.544
	c-0.02,2.472,0.249,4.93,0.823,7.342c0.371,1.555,0.871,3.068,1.827,4.382c1.041,1.431,2.273,1.955,3.769,1.565
	c1.3-0.338,2.343-1.126,3.3-2.029c2.206-2.079,3.836-4.588,5.292-7.216c2.682-4.841,4.633-9.982,6.186-15.281
	C70.477,176.455,70.897,174.792,71.362,173.078z M49.901,201.541c-0.388-0.888-0.81-1.709-1.114-2.573
	c-1.119-3.166-1.393-6.468-1.464-9.793c-0.091-4.219,0.288-8.408,0.937-12.572c1.033-6.626,2.691-13.095,5.058-19.373
	c1.732-4.593,3.776-9.035,6.626-13.059c1.527-2.156,3.228-4.15,5.595-5.451c0.032-0.018,0.042-0.075,0.069-0.126
	c-0.108-0.047-0.203-0.096-0.304-0.131c-1.102-0.388-2.122-0.11-3.097,0.411c-1.461,0.781-2.612,1.931-3.661,3.188
	c-2.53,3.035-4.375,6.481-5.987,10.061c-2.664,5.912-4.538,12.08-5.878,18.415c-1.115,5.268-1.827,10.587-1.866,15.983
	c-0.024,3.265,0.165,6.508,1.023,9.678c0.392,1.446,0.919,2.835,1.887,4.01C48.293,200.898,48.984,201.404,49.901,201.541z
	 M96.597,154.04c0.049,0.005,0.124,0.024,0.197,0.021c1.583-0.079,3.122,0.109,4.597,0.73c0.128,0.054,0.339,0.023,0.466-0.049
	c0.798-0.453,1.598-0.905,2.37-1.403c1.48-0.955,2.894-2.026,4.423-2.894c3.346-1.899,6.994-3.042,10.712-3.949
	c3.172-0.774,6.361-1.477,9.54-2.222c0.332-0.077,0.645-0.229,0.967-0.346c0.014-0.062,0.028-0.124,0.042-0.185
	c-0.502-0.334-0.982-0.707-1.51-0.995c-2.175-1.188-4.565-1.457-6.984-1.576c-0.105-0.005-0.263,0.092-0.316,0.187
	c-0.255,0.453-0.662,0.695-1.139,0.784c-0.708,0.133-1.428,0.195-2.139,0.311c-5.257,0.853-10.221,2.567-14.884,5.136
	c-2.175,1.198-4.207,2.596-5.857,4.485c-0.118,0.135-0.255,0.292-0.286,0.458C96.705,153.022,96.662,153.524,96.597,154.04z
	 M61.858,175.318c0.62-0.386,1.207-0.716,1.757-1.1c1.44-1.004,2.981-1.798,4.721-2.08c2.573-0.415,5.153-0.805,7.742-1.094
	c1.505-0.168,3.035-0.139,4.553-0.15c0.394-0.003,0.753-0.02,1.016-0.305c0.58-0.629,1.214-1.233,1.675-1.945
	c1.516-2.342,3.28-4.436,5.525-6.119c2.927-2.193,6.12-3.728,9.786-4.183c0.865-0.107,1.732-0.246,2.576-0.457
	c0.337-0.083,0.615-0.401,0.92-0.613c-0.244-0.279-0.442-0.627-0.739-0.824c-0.945-0.624-2.027-0.853-3.141-0.933
	c-2.407-0.175-4.622,0.533-6.73,1.581c-5.056,2.512-8.88,6.295-11.466,11.32c-0.125,0.244-0.225,0.425-0.565,0.413
	c-2.917-0.105-5.834-0.196-8.751-0.278c-1.873-0.052-3.747-0.092-5.62-0.114c-0.311-0.002-0.678,0.026-0.923,0.188
	C62.42,169.784,61.237,173.132,61.858,175.318z M107.955,138.674c-0.01-0.06-0.021-0.119-0.031-0.179
	c-1.15-0.322-2.331-0.459-3.523-0.492c-3.076-0.088-6.042,0.514-8.955,1.438c-4.485,1.423-8.652,3.541-12.716,5.874
	c-2.277,1.307-4.561,2.607-6.536,4.367c-0.118,0.105-0.23,0.215-0.259,0.242c0.497,0.455,0.958,0.877,1.444,1.323
	c0.131-0.113,0.312-0.303,0.524-0.449c0.743-0.509,1.45-1.104,2.257-1.479c1.154-0.537,2.128,0.087,2.285,1.353
	c0.057,0.46,0.048,0.928,0.07,1.424c0.118-0.078,0.22-0.14,0.317-0.21c1.392-1.009,2.768-2.043,4.389-2.676
	c0.096-0.038,0.174-0.121,0.258-0.187c1.002-0.783,1.947-1.657,3.015-2.335c4.509-2.867,9.268-5.224,14.378-6.841
	C105.918,139.512,106.928,139.067,107.955,138.674z M36.465,151.518c0-0.327,0.103-0.697-0.016-0.973
	c-1.471-3.416-3.289-6.617-5.829-9.375c-3.072-3.336-6.677-5.961-10.651-8.104c-0.988-0.532-2.057-0.844-3.176-0.818
	c-0.694,0.016-1.396,0.164-2.069,0.348c-0.284,0.078-0.502,0.4-0.75,0.612c0.22,0.222,0.408,0.496,0.667,0.652
	c0.405,0.243,0.86,0.403,1.29,0.603c2.643,1.225,4.872,3.021,6.913,5.061c2.741,2.737,5.083,5.787,7.074,9.108
	c0.086,0.144,0.281,0.332,0.413,0.323c1.054-0.068,2.011,0.265,2.913,0.729C34.317,150.236,35.347,150.875,36.465,151.518z
	 M95.991,150.944c6.657-6.155,14.738-8.873,23.541-10.234c-0.426-0.192-0.744-0.385-1.088-0.485c-2.635-0.77-5.323-1.047-8.06-0.81
	c-0.456,0.04-0.931,0.082-1.351,0.244c-1.599,0.618-3.148,1.374-4.77,1.918c-4.907,1.649-9.447,4.018-13.771,6.829
	c-0.395,0.256-0.76,0.56-1.155,0.854c0.428,0.416,0.75,0.86,0.623,1.413c-0.115,0.501-0.369,0.97-0.59,1.526
	c0.215-0.108,0.347-0.188,0.489-0.243c1.184-0.458,2.353-0.966,3.561-1.347C94.315,150.326,95.246,150.331,95.991,150.944z
	 M30.588,150.3c-0.156,1.059,0.017,1.612,0.734,2.122c0.974,0.694,1.985,1.335,2.988,1.989c1.292,0.842,2.539,1.739,3.49,2.972
	c1.748,2.266,3.143,4.717,3.89,7.508c0.392,1.465,0.817,2.922,1.274,4.368c0.32,1.015,1.241,1.44,2.075,2.022
	c0.251-1.142,0.494-2.186,0.702-3.237c0.043-0.216,0.008-0.482-0.082-0.685c-0.877-1.99-1.774-3.973-2.665-5.957
	c-0.17-0.378-0.313-0.771-0.513-1.131c-2.374-4.284-5.914-7.313-10.256-9.459C31.731,150.568,31.162,150.475,30.588,150.3z
	 M76.508,167.379c0.753,0,1.423-0.016,2.092,0.008c0.275,0.01,0.409-0.091,0.533-0.323c1.172-2.197,2.651-4.172,4.407-5.934
	c3.094-3.107,6.632-5.496,10.914-6.665c0.111-0.03,0.262-0.089,0.302-0.177c0.212-0.472,0.462-0.942,0.571-1.44
	c0.122-0.555-0.269-0.95-0.84-0.929c-0.349,0.013-0.706,0.06-1.042,0.154c-1.954,0.552-3.699,1.535-5.419,2.588
	c-4.97,3.041-8.66,7.244-11.354,12.368C76.631,167.107,76.598,167.188,76.508,167.379z M41.85,150.831
	c-1.137-2.913-2.544-5.618-4.514-8.012c-2.969-3.61-6.613-6.388-10.639-8.705c-0.989-0.568-1.992-1.096-3.121-1.324
	c-0.404-0.083-0.816-0.118-1.225-0.175c-0.01,0.038-0.02,0.077-0.029,0.115c3.274,1.95,6.289,4.226,8.922,6.993
	c2.649,2.785,4.654,5.991,6.177,9.459C39.501,148.254,40.579,149.739,41.85,150.831z M80.917,150.536
	c-1.813,0.738-3.02,2.198-4.361,3.441c-3.833,3.556-6.169,8-7.447,13.061c0.662,0.033,1.32,0.052,1.975,0.103
	c0.292,0.023,0.428-0.082,0.551-0.344c0.768-1.638,1.538-3.275,2.342-4.895c1.543-3.104,3.631-5.793,6.276-8.036
	c0.398-0.338,0.666-0.681,0.694-1.212C80.982,151.975,81.195,151.296,80.917,150.536z M49.725,155.029
	c0.396-0.657,0.536-1.21,0.04-1.902c-1.351-1.883-2.575-3.856-3.935-5.731c-2.095-2.888-4.357-5.643-7.004-8.054
	c-1.411-1.285-2.939-2.376-4.858-2.773c-0.344-0.072-0.695-0.108-1.043-0.161c-0.015,0.037-0.029,0.074-0.044,0.111
	c4.699,3.625,8.248,8.114,10.287,13.778c0.836-0.768,1.686-0.813,2.53-0.292c0.489,0.301,0.967,0.673,1.335,1.11
	c0.609,0.727,1.137,1.524,1.677,2.308C49.062,153.937,49.378,154.477,49.725,155.029z M88.525,150.512
	c-0.026-0.045-0.054-0.09-0.081-0.135c-0.41,0.133-0.864,0.193-1.22,0.413c-1.279,0.786-2.54,1.603-3.78,2.449
	c-2.483,1.693-4.634,3.737-6.344,6.219c-1.626,2.36-2.805,4.96-3.985,7.558c-0.023,0.05-0.015,0.113-0.028,0.233
	c0.456,0,0.888-0.032,1.313,0.009c0.377,0.037,0.57-0.094,0.747-0.426c1.285-2.398,2.715-4.706,4.439-6.817
	c2-2.45,4.434-4.408,7.047-6.159c0.177-0.119,0.403-0.231,0.49-0.405C87.611,152.48,88.062,151.493,88.525,150.512z M64.072,167.053
	c0.429-0.026,0.822-0.058,1.214-0.071c0.399-0.013,0.798-0.009,1.197-0.007c1.093,0.009,1.084,0.007,1.412-1.048
	c0.931-2.996,2.031-5.916,3.85-8.513c1.14-1.626,2.396-3.15,3.828-4.53c0.341-0.328,0.461-0.861,0.248-1.166
	c-0.274-0.393-0.698-0.433-1.069-0.24c-0.606,0.315-1.221,0.653-1.741,1.09c-1.408,1.183-2.512,2.646-3.564,4.142
	c-2.202,3.13-3.789,6.584-5.304,10.077C64.115,166.854,64.105,166.929,64.072,167.053z M46.252,165.433
	c0.044-0.004,0.087-0.009,0.131-0.013c0.241-0.885,0.485-1.768,0.716-2.655c0.028-0.108,0.006-0.247-0.037-0.353
	c-0.389-0.966-0.707-1.971-1.199-2.881c-1.308-2.418-2.794-4.731-4.492-6.896c-0.544-0.694-1.167-1.35-1.848-1.909
	c-0.919-0.756-1.406-0.542-1.584,0.639c-0.112,0.738-0.074,1.424,0.651,1.958c0.687,0.506,1.282,1.145,1.878,1.762
	c1.866,1.933,3.313,4.125,4.213,6.681C45.124,163.017,45.724,164.212,46.252,165.433z M47.872,160.313
	c0.381-1.097,0.74-2.086,1.06-3.089c0.064-0.202,0.055-0.5-0.052-0.674c-0.86-1.396-1.718-2.796-2.652-4.142
	c-0.329-0.476-0.85-0.828-1.318-1.191c-0.297-0.231-0.628-0.131-0.743,0.225c-0.187,0.578-0.31,1.176-0.438,1.771
	c-0.022,0.1,0.049,0.239,0.113,0.335C45.287,155.7,46.729,157.853,47.872,160.313z"/>
<path fill-rule="evenodd" clip-rule="evenodd" fill="#FFFFFF" d="M10.521,11.677c-0.215,0.277-0.431,0.553-0.646,0.83
	c0-0.277,0-0.553,0-0.83C10.09,11.677,10.306,11.677,10.521,11.677z"/>
<path fill-rule="evenodd" clip-rule="evenodd" fill="#FFFFFF" d="M147.95,48.204c0.032-0.039,0.063-0.078,0.095-0.116
	c-0.117-0.205-0.227-0.416-0.354-0.614c-0.314-0.491-0.668-0.959-0.946-1.47c-0.346-0.635-0.269-0.912,0.33-1.319
	c0.622-0.422,1.259-0.824,1.908-1.204c0.803-0.471,1.377-1.084,1.586-2.031c0.135-0.611,0.049-0.818-0.58-0.902
	c-0.273-0.037-0.55-0.055-0.823-0.099c-0.757-0.123-1.346-0.505-1.723-1.177c-0.397-0.705-0.226-1.366,0.465-1.777
	c0.327-0.195,0.678-0.358,1.029-0.51c0.575-0.249,1.146-0.173,1.594,0.239c0.494,0.453,0.936,0.968,1.36,1.488
	c0.661,0.807,0.939,1.688,0.368,2.675c-0.03,0.052-0.046,0.114-0.063,0.173c-0.15,0.529,0.126,1.188,0.632,1.516
	c0.459,0.298,0.994,0.309,1.372-0.171c0.638-0.809,1.271-0.785,2.097-0.322c0.573,0.323,1.242,0.453,1.918,0.282
	c0.618-0.157,0.924-0.578,0.77-1.198c-0.092-0.37-0.313-0.722-0.535-1.041c-0.19-0.273-0.505-0.461-0.691-0.736
	c-0.162-0.24-0.32-0.552-0.312-0.828c0.041-1.462,0.711-2.598,1.881-3.47c0.551-0.41,1.118-0.554,1.769-0.338
	c0.612,0.201,1.212,0.439,1.833,0.606c1.051,0.284,2.059,0.213,2.861-0.623c0.615-0.641,0.427-1.196-0.428-1.379
	c-0.119-0.026-0.242-0.041-0.364-0.051c-1.256-0.104-2.491-0.277-3.706-0.657c-1.607-0.501-3.274-0.565-4.925-0.273
	c-1.25,0.221-2.476,0.573-3.709,0.877c-1.397,0.345-2.114,0.083-2.922-1.09c-0.096-0.139-0.197-0.275-0.284-0.42
	c-0.567-0.96-1.392-1.543-2.465-1.865c-2.566-0.769-5.058-1.763-7.31-3.216c-2.275-1.468-4.724-2.537-7.207-3.561
	c-1.577-0.651-3.001-1.545-4.208-2.764c-0.584-0.589-1.185-1.164-1.743-1.777c-0.68-0.745-1.488-1.059-2.481-0.86
	c-0.541,0.108-1.084,0.212-1.613,0.367c-1.076,0.314-2.156,0.491-3.265,0.198c-0.593-0.156-1.186-0.314-1.774-0.49
	c-1.458-0.434-2.909-0.402-4.35,0.071c-2.097,0.689-4.178,1.432-6.292,2.062c-1.111,0.331-1.773,0.941-2.104,2.058
	c-0.641,2.156-1.71,4.097-3.139,5.843c-0.583,0.713-1.106,1.475-1.666,2.208c-1.579,2.068-3.232,4.065-5.322,5.654
	c-0.255,0.193-0.487,0.425-0.696,0.668c-0.495,0.573-0.523,0.987-0.115,1.629c0.313,0.492,0.676,0.954,0.979,1.451
	c0.238,0.39,0.493,0.797,0.598,1.231c0.073,0.301,0.021,0.786-0.177,0.971c-0.749,0.699-1.544,1.362-2.393,1.935
	c-0.683,0.459-1.175,0.22-1.428-0.587c-0.416-1.325-0.472-2.684-0.301-4.056c0.155-1.247,0.598-2.368,1.421-3.338
	c1.649-1.945,3.296-3.892,4.915-5.862c1.238-1.507,2.446-3.037,3.631-4.586c0.301-0.394,0.487-0.885,0.673-1.352
	c0.075-0.188,0.005-0.435,0.002-0.654c-0.229,0.035-0.469,0.039-0.682,0.114c-0.182,0.064-0.342,0.203-0.499,0.325
	c-3.107,2.396-6.031,4.99-8.754,7.823c-3.008,3.13-4.717,6.922-5.862,11.016c-0.44,1.574-0.188,3.082,0.865,4.393
	c1.217,1.514,2.723,2.596,4.628,3.086c1.191,0.307,1.26,0.38,0.668,1.471c-0.637,1.174-0.563,2.295-0.133,3.498
	c0.785,2.193,1.565,4.391,2.248,6.618c1.112,3.623,2.162,7.263,2.415,11.081c0.104,1.578-0.092,3.055-0.922,4.427
	c-0.333,0.551-0.625,1.129-0.888,1.716c-0.503,1.124-0.393,2.193,0.424,3.138c2.355,2.728,4.928,5.232,7.731,7.5
	c0.19,0.154,0.382,0.309,0.561,0.477c0.529,0.496,0.491,0.736-0.155,1.041c-0.278,0.131-0.571,0.236-0.83,0.397
	c-0.271,0.168-0.567,0.348-0.741,0.6c-0.132,0.192-0.19,0.544-0.106,0.756c0.354,0.893,1.389,1.379,2.313,1.105
	c0.542-0.16,1.078-0.361,1.588-0.603c0.97-0.459,1.148-0.982,0.733-1.978c-0.041-0.099-0.083-0.2-0.136-0.292
	c-0.746-1.293-1.135-2.7-1.414-4.158c-0.416-2.167-0.417-4.2,1.424-5.803c0.289-0.251,0.212-0.486-0.076-0.72
	c-0.428-0.346-0.854-0.702-1.227-1.104c-0.152-0.165-0.16-0.462-0.234-0.7c0.237-0.072,0.487-0.234,0.708-0.201
	c0.862,0.131,1.724,0.293,2.57,0.504c0.648,0.162,0.806,0.513,0.5,1.105c-0.294,0.57-0.666,1.101-1.013,1.644
	c-0.223,0.349-0.483,0.676-0.689,1.035c-0.233,0.405-0.137,0.583,0.316,0.675c0.09,0.018,0.181,0.037,0.273,0.042
	c1.195,0.068,2.39,0.146,3.586,0.196c0.584,0.025,1.111-0.15,1.408-0.699c0.61-1.129,1.585-1.72,2.808-1.954
	c1.946-0.374,3.78-1.057,5.507-2.017c3.061-1.7,5.484-3.913,6.234-7.551c0.149-0.723,0.572-1.42,0.991-2.048
	c0.395-0.593,1.037-0.637,1.621-0.216c0.308,0.222,0.548,0.535,0.838,0.783c0.405,0.347,0.811,0.7,1.254,0.993
	c0.159,0.104,0.509,0.131,0.624,0.028c0.126-0.114,0.143-0.433,0.093-0.634c-0.063-0.26-0.211-0.513-0.373-0.731
	c-0.264-0.357-0.573-0.681-0.854-1.026c-0.119-0.146-0.216-0.311-0.405-0.584c0.345,0.063,0.548,0.103,0.752,0.134
	c0.862,0.134,1.723,0.288,2.59,0.386c0.36,0.041,0.737-0.014,1.099-0.074c0.158-0.026,0.297-0.175,0.445-0.269
	c-0.089-0.135-0.152-0.303-0.272-0.396c-0.217-0.167-0.459-0.309-0.708-0.426c-1.111-0.521-2.235-1.016-3.342-1.545
	c-1.189-0.569-2.373-1.15-3.543-1.755c-0.688-0.356-1.07-0.88-0.999-1.74c0.08-0.961,0.018-1.934,0.02-2.902
	c0.002-0.47-0.271-0.978-0.581-1c-0.505-0.038-0.536,0.417-0.684,0.732c-0.064,0.137-0.085,0.294-0.115,0.444
	c-0.155,0.783-0.298,1.567-0.459,2.348c-0.603,2.913-1.438,5.744-2.934,8.341c-0.999,1.734-2.25,3.233-4.078,4.142
	c-1.181,0.587-2.376,1.151-3.596,1.652c-2.065,0.848-4.184,1.51-6.45,1.555c-2.631,0.051-4.779-0.868-6.24-3.123
	c-0.542-0.836-1.047-1.703-1.487-2.595c-2.573-5.21-4.421-10.676-5.725-16.333c-0.576-2.499-0.712-5.009-0.299-7.543
	c0.026-0.164,0.103-0.32,0.163-0.5c0.103,0.065,0.15,0.083,0.178,0.116c0.168,0.2,0.32,0.414,0.5,0.603
	c1.208,1.261,2.499,2.304,4.434,2.061c1.165-0.146,1.271,0.069,1.182,1.246c-0.122,1.623-0.206,3.25-0.221,4.876
	c-0.006,0.658,0.073,1.385,0.355,1.962c0.618,1.261,1.964,1.881,3.367,1.631c1.039-0.185,2.052-0.512,3.086-0.724
	c0.306-0.063,0.657,0.012,0.972,0.09c0.312,0.078,0.558,0.046,0.582-0.293c0.04-0.553,0.011-1.11,0.011-1.785
	c-0.784,0.154-1.466,0.249-2.125,0.427c-0.901,0.243-1.779,0.579-2.682,0.818c-1.06,0.28-1.699-0.121-1.939-1.192
	c-0.109-0.491-0.173-1-0.191-1.503c-0.108-2.994-0.194-5.989-0.295-8.983c-0.034-0.984-0.736-1.938-1.66-2.064
	c-0.732-0.101-1.518-0.113-2.233,0.046c-0.812,0.181-1.569,0.598-2.354,0.905c-0.213,0.083-0.437,0.141-0.656,0.21
	c-0.027-0.039-0.055-0.077-0.083-0.115c0.082-0.171,0.136-0.364,0.25-0.511c0.755-0.968,1.512-1.936,2.291-2.883
	c0.392-0.476,0.52-0.954,0.237-1.524c-0.428-0.864-0.833-1.74-1.268-2.6c-0.228-0.451-0.205-0.691,0.187-0.997
	c0.438-0.344,0.941-0.52,1.498-0.507c0.583,0.013,1.169,0.101,1.747,0.057c0.278-0.021,0.625-0.204,0.789-0.426
	c0.224-0.306,0.027-0.647-0.228-0.901c-0.229-0.228-0.478-0.433-0.707-0.662c-0.313-0.313-0.263-0.442,0.059-0.743
	c0.317-0.294,0.578-0.654,0.832-1.008c0.132-0.183,0.186-0.419,0.289-0.625c0.149-0.297,0.378-0.387,0.686-0.235
	c0.137,0.068,0.275,0.135,0.415,0.2c0.236,0.108,0.403,0.044,0.419-0.223c0.059-0.912,0.708-1.216,1.445-1.447
	c0.637-0.199,0.904-0.091,1.304,0.434c0.321,0.422,0.687,0.814,1.063,1.189c0.298,0.297,0.315,0.441-0.042,0.679
	c-0.629,0.417-1.309,0.671-2.083,0.598c-0.352-0.034-0.705-0.056-1.057-0.07c-0.523-0.022-0.805,0.146-0.819,0.591
	c-0.014,0.436,0.071,0.879,0.149,1.312c0.054,0.299,0.241,0.325,0.517,0.206c0.449-0.193,0.906-0.41,1.38-0.487
	c0.845-0.136,1.71-0.15,2.561-0.262c0.9-0.119,1.667,0.097,2.324,0.728c0.153,0.147,0.334,0.289,0.53,0.362
	c0.285,0.106,0.594,0.149,0.893,0.219c0.008-0.293,0.113-0.63,0.004-0.871c-0.292-0.65-0.684-1.254-1.018-1.886
	c-0.276-0.524-0.566-1.048-0.773-1.601c-0.124-0.329,0.138-0.535,0.433-0.345c0.311,0.202,0.602,0.482,0.809,0.79
	c0.471,0.699,0.907,1.424,1.317,2.161c0.311,0.56,0.735,0.918,1.362,1.069c1.714,0.412,3.411,0.919,5.142,1.241
	c1.585,0.295,2.507,1.085,2.706,2.711c0.037,0.309,0.263,0.595,0.403,0.891c0.242-0.238,0.518-0.449,0.717-0.718
	c0.492-0.666,0.911-1.387,1.431-2.028c0.397-0.488,0.795-0.449,1.108,0.091c0.336,0.579,0.632,1.194,0.843,1.828
	c0.229,0.689,0.622,1.146,1.319,1.336c0.901,0.246,1.794,0.533,2.707,0.721c1.501,0.309,3.026,0.505,4.413,1.233
	c1.073,0.563,2.171,1.078,3.26,1.612c0.969,0.477,1.474,0.343,2.071-0.543c0.103-0.153,0.218-0.3,0.302-0.462
	c0.499-0.961,1.336-1.451,2.347-1.696c0.387-0.094,0.779-0.173,1.174-0.233c0.691-0.105,1.387-0.191,2.074-0.285
	c-0.05-0.975-0.348-1.211-1.222-1.044c-0.717,0.137-1.437,0.242-2.087-0.221c-0.324-0.231-0.625-0.495-0.944-0.732
	c-0.577-0.429-1.114-0.939-1.751-1.248c-0.795-0.387-1.12-0.935-1.074-1.784c0.02-0.366-0.003-0.738-0.057-1.102
	c-0.07-0.481-0.353-0.599-0.742-0.302c-0.278,0.212-0.52,0.476-0.756,0.737c-0.409,0.453-0.799,0.922-1.205,1.393
	c-1.433-0.883-2.616-1.909-3.021-3.597c-0.06-0.251-0.139-0.516-0.284-0.722c-0.103-0.146-0.375-0.323-0.499-0.279
	c-0.836,0.293-1.589,0.733-2.085,1.504c-0.152,0.239-0.072,0.463,0.171,0.579c0.204,0.096,0.435,0.142,0.658,0.189
	c0.375,0.078,0.762,0.109,1.128,0.216c0.349,0.102,0.602,0.342,0.54,0.749c-0.099,0.647-0.207,1.294-0.345,1.934
	c-0.126,0.591-0.03,0.707,0.552,0.554c0.223-0.058,0.437-0.145,0.658-0.205c0.384-0.104,0.766-0.244,1.158-0.285
	c0.633-0.065,0.922,0.277,0.787,0.903c-0.177,0.816-0.621,1.5-1.178,2.104c-0.29,0.315-0.653,0.37-1.043,0.136
	c-0.236-0.142-0.498-0.244-0.729-0.392c-1.216-0.773-2.458-1.511-3.626-2.351c-0.735-0.529-0.701-0.981-0.108-1.656
	c0.273-0.31,0.558-0.619,0.778-0.966c0.375-0.593,0.149-1.123-0.545-1.13c-0.525-0.006-1.059,0.215-1.574,0.382
	c-0.115,0.037-0.226,0.265-0.235,0.413c-0.029,0.457-0.308,0.656-0.695,0.738c-1.236,0.26-2.446,0.194-3.587-0.39
	c-0.595-0.305-0.782-0.839-0.495-1.437c0.403-0.838,1.022-1.504,1.866-1.903c0.284-0.134,0.652-0.127,0.98-0.118
	c0.318,0.008,0.632,0.135,0.951,0.151c0.908,0.047,1.699-0.825,1.57-1.7c-0.104-0.705-0.896-1.559-1.584-1.708
	c-0.805-0.175-1.165,0.11-1.195,0.923c-0.014,0.368-0.031,0.74-0.105,1.098c-0.08,0.385-0.257,0.743-0.706,0.817
	c-0.455,0.075-0.808-0.12-1.07-0.486c-0.345-0.479-0.372-1.036-0.186-1.544c0.269-0.728,0.631-1.424,0.985-2.117
	c0.243-0.477,0.559-0.916,0.807-1.39c0.195-0.373,0.066-0.684-0.295-0.897c-0.371-0.217-0.744-0.431-1.112-0.654
	c-1.266-0.767-1.395-1.156-0.839-2.515c0.211-0.517,0.446-0.631,0.988-0.625c0.702,0.009,1.405-0.044,2.106-0.066
	c0.212-0.007,0.437-0.042,0.637,0.01c0.461,0.12,0.527,0.443,0.172,0.758c-0.241,0.214-0.504,0.404-0.737,0.625
	c-0.246,0.233-0.33,0.521-0.153,0.834c0.874,1.55,1.722,3.115,2.641,4.637c0.453,0.749,0.73,0.718,1.289,0.06
	c0.288-0.339,0.556-0.704,0.89-0.99c0.489-0.419,1.041-0.211,1.174,0.415c0.063,0.298,0.073,0.607,0.114,0.912
	c0.066,0.488,0.338,0.754,0.833,0.84c0.553,0.095,1.004-0.077,1.481-0.342c0.472-0.263,0.995-0.486,1.522-0.583
	c0.737-0.135,1.497-0.154,2.249-0.189c0.704-0.033,1.412-0.042,2.117-0.019c0.206,0.006,0.405,0.157,0.607,0.241
	c-0.124,0.196-0.204,0.48-0.381,0.572c-0.509,0.264-1.042,0.546-1.596,0.642c-0.719,0.123-1.468,0.071-2.204,0.096
	c-0.366,0.012-0.574,0.192-0.582,0.569c-0.018,0.813-0.044,1.626-0.04,2.44c0.002,0.356,0.063,0.795,0.456,0.865
	c0.276,0.05,0.637-0.123,0.897-0.292c0.475-0.307,0.883-0.716,1.356-1.027c0.525-0.345,0.844-0.249,1.196,0.274
	c0.377,0.561,0.722,1.146,1.134,1.679c0.591,0.765,1.412,0.631,1.777-0.275c0.113-0.281,0.154-0.592,0.226-0.89
	c0.143-0.594,0.293-0.7,0.894-0.68c0.445,0.015,0.896,0.046,1.335-0.003c1.567-0.177,2.6,0.583,3.38,1.842
	c0.47,0.757,0.47,1.503,0.014,2.256c-0.302,0.5-0.613,0.992-0.917,1.49c-0.518,0.845-0.5,1.658,0.053,2.502
	c0.333,0.508,0.615,1.069,0.809,1.644c0.264,0.779-0.079,1.169-0.905,1.153c-0.123-0.002-0.247-0.01-0.366-0.032
	c-0.754-0.138-1.507-0.29-2.262-0.419c-1.056-0.182-1.504,0.353-1.174,1.389c0.227,0.716,0.682,1.281,1.281,1.702
	c1.279,0.898,2.707,1.498,4.195,1.955C147.484,48.216,147.723,48.188,147.95,48.204z M146.41,64.775
	c-0.853,0.643-1.687,1.288-2.54,1.905c-0.258,0.187-0.313,0.35-0.189,0.645c0.505,1.202,0.95,2.43,1.489,3.616
	c0.552,1.212,1.156,2.405,1.804,3.569c0.375,0.673,0.662,0.649,1.136,0.052c0.54-0.68,0.631-0.72,1.43-0.355
	c0.656,0.301,1.295,0.319,1.963,0.067c0.56-0.21,1.125-0.405,1.694-0.59c0.231-0.076,0.479-0.149,0.715-0.14
	c0.115,0.004,0.316,0.203,0.317,0.314c0.013,1.125-0.902,2.068-2.037,2.079c-0.518,0.004-1.038-0.088-1.555-0.15
	c-0.356-0.044-0.625,0.063-0.703,0.426c-0.132,0.61-0.279,1.222-0.333,1.841c-0.058,0.655,0,1.32-0.021,1.98
	c-0.035,1.124-0.298,1.387-1.398,1.458c-0.727,0.046-1.091,0.416-1.009,1.13c0.048,0.417,0.165,0.849,0.35,1.227
	c0.863,1.758,2.083,3.243,3.518,4.572c2.244,2.077,6.296,1.916,8.386-0.009c1.274-1.173,2.613-2.276,3.917-3.417
	c0.38-0.333,0.376-0.634,0.001-0.967c-0.779-0.692-1.668-0.938-2.69-0.656c-1.527,0.421-2.789,1.319-4.058,2.216
	c-0.641,0.453-1.133,0.979-1.273,1.779c-0.065,0.37-0.319,0.559-0.665,0.458c-0.492-0.144-1.008-0.294-1.431-0.57
	c-0.613-0.399-0.676-0.991-0.276-1.606c0.25-0.386,0.53-0.754,0.781-1.14c0.44-0.675,0.429-0.899-0.041-1.528
	c-0.355-0.475-0.355-0.786,0.114-1.146c0.46-0.352,0.972-0.642,1.476-0.93c0.561-0.32,1.065-0.237,1.545,0.223
	c2.235,2.142,5.495,0.896,6.677-1.316c0.317-0.593,0.365-1.181-0.036-1.781c-0.437-0.653-0.361-1.318,0.106-1.925
	c0.242-0.314,0.53-0.595,0.817-0.872c0.254-0.245,0.558-0.439,0.798-0.696c0.186-0.199,0.308-0.458,0.458-0.691
	c-0.268-0.081-0.537-0.24-0.8-0.23c-0.719,0.028-1.435,0.127-2.152,0.2c-0.593,0.06-1.03,0.373-1.357,0.853
	c-0.4,0.585-0.594,1.237-0.615,1.945c-0.016,0.541,0.067,0.978,0.684,1.194c0.477,0.167,0.571,0.551,0.251,0.916
	c-0.853,0.973-1.938,1.537-3.233,1.646c-0.172,0.014-0.452-0.125-0.515-0.268c-0.066-0.147,0.032-0.408,0.132-0.577
	c0.115-0.192,0.315-0.332,0.472-0.501c0.285-0.309,0.256-0.503-0.139-0.65c-1.398-0.521-2.758-0.563-4.025,0.375
	c-0.444,0.329-0.88,0.672-1.343,0.972c-0.592,0.384-1.152,0.309-1.626-0.172c-0.324-0.329-0.358-0.659-0.004-0.954
	c0.348-0.292,0.745-0.549,1.159-0.732c0.968-0.427,1.967-0.78,2.937-1.201c0.88-0.381,1.704-0.871,2.29-1.654
	c0.147-0.196,0.274-0.553,0.19-0.734c-0.084-0.184-0.431-0.275-0.681-0.349c-0.379-0.112-0.799-0.114-1.154-0.271
	c-0.741-0.328-0.794-1.194-0.129-1.661c0.173-0.122,0.379-0.199,0.572-0.294c0.677-0.329,0.89-0.827,0.562-1.509
	c-0.189-0.395-0.458-0.762-0.739-1.102c-0.338-0.41-0.807-0.536-1.286-0.296c-0.435,0.218-0.826,0.522-1.237,0.787
	c-0.182,0.118-0.366,0.235-0.549,0.352c-0.045-0.025-0.09-0.052-0.135-0.077c0.047-0.417,0.116-0.833,0.135-1.252
	c0.01-0.215-0.068-0.434-0.106-0.65c-0.208,0.07-0.457,0.089-0.617,0.218c-0.539,0.432-1.051,0.896-1.564,1.359
	c-0.928,0.836-1.09,0.805-1.601-0.333c-0.37-0.825-0.254-1.18,0.549-1.6c0.707-0.37,1.429-0.71,2.132-1.087
	c2.285-1.227,4.561-2.472,6.85-3.691c0.839-0.447,1.762-0.712,2.643-0.228c0.978,0.537,1.88,1.211,2.807,1.837
	c0.227,0.153,0.268,0.364,0.055,0.583c-0.106,0.11-0.193,0.242-0.307,0.343c-0.452,0.406-0.496,0.899-0.296,1.429
	c0.113,0.3,0.221,0.623,0.42,0.864c0.71,0.865,0.724,1.782,0.306,2.759c-0.055,0.127-0.095,0.259-0.138,0.39
	c-0.32,0.983-0.087,1.309,0.967,1.358c0.138,0.006,0.277,0.01,0.415-0.001c0.591-0.047,0.745-0.191,0.819-0.776
	c0.036-0.273,0.074-0.55,0.075-0.825c0.001-1.782,0.018-3.565-0.02-5.346c-0.026-1.217-0.181-2.431-0.719-3.54
	c-0.5-1.031-0.604-2.01,0.065-3.004c0.234-0.349,0.11-0.64-0.237-0.851c-0.636-0.387-1.293-0.308-1.881,0.044
	c-0.827,0.496-1.643,1.025-2.39,1.63c-0.7,0.565-1.456,0.686-2.289,0.575c-0.409-0.054-0.818-0.14-1.214-0.255
	c-1.273-0.371-2.496-0.861-3.568-1.661c-0.128-0.095-0.25-0.296-0.244-0.442c0.005-0.093,0.244-0.187,0.389-0.26
	c0.079-0.04,0.178-0.046,0.269-0.051c1.165-0.06,2.33-0.136,3.496-0.171c1.55-0.048,3.103-0.048,4.653-0.097
	c0.68-0.022,1.384-0.19,1.694-0.841c0.356-0.75,0.593-1.567,0.788-2.377c0.11-0.46-0.133-0.652-0.622-0.576
	c-0.498,0.078-1.003,0.176-1.473,0.352c-1.406,0.529-2.788,1.118-4.196,1.644c-0.481,0.179-1.003,0.294-1.515,0.338
	c-0.601,0.052-0.915-0.269-0.852-0.861c0.049-0.463,0.109-0.995,0.364-1.355c0.884-1.251,1.843-2.451,2.8-3.648
	c0.282-0.354,0.692-0.375,1.086-0.149c0.32,0.183,0.629,0.383,0.938,0.585c0.438,0.286,0.947,0.422,1.408,0.232
	c1.114-0.461,2.231-0.94,3.273-1.541c0.729-0.42,0.675-1.016-0.047-1.478c-1.06-0.677-2.125-1.358-3.238-1.938
	c-0.566-0.296-1.242-0.39-1.875-0.545c-0.121-0.029-0.377,0.063-0.393,0.136c-0.028,0.134,0.035,0.334,0.133,0.441
	c0.255,0.285,0.532,0.555,0.831,0.793c0.498,0.398,1.02,0.768,1.561,1.171c-0.397,0.301-0.738,0.625-1.137,0.842
	c-0.277,0.15-0.667,0.276-0.948,0.198c-1.02-0.286-2.044-0.349-3.095-0.341c-0.796,0.006-1.005-0.389-0.565-1.064
	c0.409-0.627,0.924-1.184,1.386-1.775c0.235-0.302,0.479-0.6,0.68-0.923c0.169-0.272,0.054-0.476-0.259-0.538
	c-0.148-0.029-0.308-0.049-0.456-0.028c-2.081,0.288-4.182,0.491-6.175,1.209c-0.693,0.25-1.34,0.242-2.009-0.044
	c-0.379-0.164-0.772-0.308-1.172-0.402c-0.205-0.049-0.52-0.047-0.635,0.074c-0.113,0.118-0.046,0.417-0.038,0.637
	c0.003,0.087,0.06,0.172,0.093,0.258c0.24,0.615,0.699,1.013,1.405,1.269c-0.329,0.146-0.554,0.233-0.768,0.341
	c-0.611,0.31-0.68,0.675-0.233,1.204c0.069,0.082,0.137,0.17,0.222,0.233c0.774,0.58,0.814,1.301,0.452,2.129
	c-0.381,0.871-0.741,1.751-1.094,2.633c-0.43,1.076-0.762,1.217-1.819,0.742c-0.084-0.037-0.167-0.079-0.247-0.125
	c-0.936-0.526-1.869-1.06-2.809-1.578c-0.618-0.34-1.231-0.698-1.876-0.975c-0.581-0.25-1.098-0.024-1.323,0.473
	c-0.234,0.517-0.051,1.06,0.489,1.37c0.373,0.213,0.763,0.396,1.147,0.588c1.372,0.686,2.766,1.331,4.108,2.071
	c0.691,0.381,1.314,0.902,1.919,1.417c0.391,0.332,0.375,0.654,0.035,0.941c-0.703,0.593-1.456,1.084-2.441,1.008
	c-0.214-0.017-0.431-0.006-0.645,0.007c-0.693,0.044-0.939,0.362-0.668,1.004c0.236,0.558,0.535,1.112,0.914,1.58
	c0.603,0.743,1.384,1.206,2.406,1.101c0.685-0.07,1.202-0.459,1.677-0.893c1.303-1.188,2.841-1.352,4.48-1.063
	c0.648,0.114,0.82,0.484,0.537,1.072c-0.419,0.87-1.037,1.551-1.935,1.956c-1.715,0.774-3.511,1.288-5.362,1.604
	C146.991,65.878,146.737,65.7,146.41,64.775z M134.36,76.669c-0.493,0.094-0.943,0.171-1.391,0.268
	c-0.584,0.125-1.163,0.28-1.749,0.393c-1.325,0.252-2.653,0.488-3.98,0.725c-0.354,0.063-0.517,0.272-0.583,0.614
	c-0.147,0.772,0.221,1.396,1.063,1.762c0.572,0.249,0.652,0.493,0.261,0.968c-0.253,0.306-0.536,0.598-0.847,0.843
	c-1.146,0.9-1.668,2.096-1.707,3.52c-0.019,0.721-0.363,1.197-1.013,1.441c-0.558,0.21-1.132,0.381-1.707,0.545
	c-1.067,0.303-2.139,0.604-2.925,1.455c-0.2,0.218-0.299,0.529-0.444,0.797c0.287,0.074,0.578,0.225,0.859,0.21
	c1.398-0.077,2.777-0.264,4.086-0.811c3.444-1.437,6.636-3.322,9.691-5.446c1.619-1.126,3.151-2.349,4.325-3.967
	c0.195-0.27,0.462-0.493,0.718-0.71c0.328-0.279,0.682-0.259,1.073-0.084c0.766,0.34,1.53,0.703,2.329,0.943
	c1.069,0.322,2.159,0.6,3.259,0.779c0.867,0.142,1.135-0.057,1.291-0.916c0.174-0.945,0.198-1.917,0.298-2.876
	c0.045-0.427-0.1-0.747-0.396-1.065c-1.298-1.393-2.563-2.818-3.857-4.214c-0.237-0.255-0.294-0.478-0.133-0.77
	c0.179-0.322,0.351-0.647,0.537-0.964c0.299-0.509,0.243-0.735-0.338-0.845c-0.567-0.107-1.158-0.158-1.733-0.127
	c-1.168,0.063-1.81,0.704-1.988,1.855c-0.06,0.388,0.072,0.561,0.469,0.607c1.087,0.124,1.992,1.079,1.937,2.141
	c-0.032,0.632-0.203,1.271-0.408,1.875c-0.208,0.611-0.707,0.828-1.335,0.657c-0.352-0.095-0.707-0.225-1.018-0.41
	c-1.002-0.596-1.97-1.25-2.98-1.83c-0.416-0.239-0.896-0.397-1.368-0.502c-0.461-0.104-0.744,0.146-0.768,0.618
	c-0.017,0.317,0.014,0.646,0.079,0.957C134.084,75.667,134.245,76.222,134.36,76.669z M144.257,119.486c0-0.009,0-0.017,0.001-0.025
	c0.477,0,0.954-0.021,1.429,0.003c1.596,0.079,2.822-0.589,3.75-1.846c0.198-0.268,0.396-0.567,0.479-0.882
	c0.256-0.977,0.015-1.351-0.979-1.185c-0.524,0.087-1.076,0.079-1.606,0.025c-0.715-0.074-0.871-0.488-0.403-1.027
	c0.258-0.298,0.584-0.54,0.892-0.792c0.273-0.223,0.592-0.397,0.833-0.649c0.112-0.116,0.176-0.408,0.108-0.543
	c-0.214-0.426-0.692-0.571-1.145-0.391c-0.269,0.107-0.536,0.235-0.78,0.39c-1.119,0.709-2.342,1.131-3.66,1.056
	c-1.455-0.083-2.671,0.423-3.82,1.219c-0.114,0.079-0.242,0.136-0.351,0.22c-0.436,0.332-0.857,0.356-1.291-0.015
	c-0.515-0.442-1.125-0.628-1.796-0.551c-1.124,0.13-2.104-0.222-3.035-0.811c-1.375-0.871-2.776-1.698-4.137-2.588
	c-0.875-0.573-1.787-0.842-2.831-0.735c-0.625,0.064-1.258,0.068-1.886,0.059c-0.802-0.012-1.574-0.148-2.318-0.5
	c-0.928-0.439-1.886-0.818-2.843-1.19c-1.2-0.467-2.388-0.988-3.699-1.063c-0.245-0.015-0.496,0.062-0.744,0.097
	c0.111,0.237,0.178,0.51,0.341,0.705c1.695,2.028,3.108,4.229,4.143,6.666c0.102,0.24,0.222,0.473,0.334,0.708
	c0.118,0.245,0.279,0.273,0.558,0.228c0.583-0.094,1.184-0.164,1.77-0.13c1.091,0.064,2.066,0.538,3.043,0.993
	c1.278,0.595,2.562,1.18,3.861,1.727c0.875,0.368,1.728,0.247,2.558-0.231c0.501-0.288,1.052-0.491,1.583-0.726
	c0.344-0.152,0.559-0.02,0.759,0.29c0.248,0.383,0.529,0.757,0.857,1.071c0.726,0.695,1.022,0.704,1.823,0.112
	c0.255-0.188,0.463-0.207,0.695,0.002c0.126,0.113,0.245,0.237,0.386,0.328c0.59,0.38,1.173,0.777,1.792,1.105
	c0.168,0.088,0.536,0.035,0.659-0.097c0.1-0.107,0.033-0.462-0.069-0.646c-0.207-0.375-0.492-0.704-0.734-1.06
	c-0.33-0.486-0.328-0.782,0.016-1.263c0.125-0.173,0.265-0.342,0.427-0.48c0.991-0.848,2.103-1.492,3.342-1.896
	c0.718-0.234,1.457-0.217,2.182-0.015c0.452,0.126,0.553,0.424,0.266,0.798c-0.176,0.228-0.383,0.447-0.616,0.616
	c-0.559,0.405-1.144,0.772-1.711,1.165c-0.301,0.208-0.62,0.407-0.868,0.67c-0.151,0.16-0.293,0.473-0.232,0.643
	c0.057,0.159,0.38,0.286,0.599,0.31C142.875,119.427,143.566,119.445,144.257,119.486z M150.485,102.153
	c-0.014,0.026-0.027,0.051-0.041,0.077c-0.269,0.052-0.576,0.038-0.799,0.167c-0.899,0.524-1.794,1.063-2.65,1.655
	c-0.593,0.411-0.59,0.703-0.117,1.249c0.462,0.533,0.947,1.047,1.395,1.591c0.488,0.593,0.891,0.591,1.357-0.042
	c0.236-0.321,0.465-0.649,0.723-0.952c0.27-0.317,0.598-0.253,0.916-0.067c0.308,0.181,0.418,0.461,0.294,0.788
	c-0.133,0.357-0.307,0.7-0.479,1.042c-0.315,0.627-0.242,0.965,0.34,1.37c0.403,0.279,0.831,0.526,1.229,0.812
	c0.48,0.345,0.561,0.677,0.253,1.187c-0.212,0.352-0.476,0.678-0.75,0.986c-0.476,0.534-0.392,1.098-0.122,1.669
	c0.259,0.548,0.775,0.644,1.292,0.582c0.745-0.089,1.483-0.235,2.216-0.395c0.573-0.125,1.048-0.425,1.348-0.957
	c0.195-0.348,0.411-0.685,0.591-1.04c0.355-0.702,0.291-0.979-0.302-1.477c-1.221-1.025-1.466-1.878-0.894-3.373
	c0.317-0.829,0.716-1.626,1.074-2.44c0.177-0.406,0.364-0.812,0.509-1.229c0.122-0.352-0.034-0.61-0.414-0.571
	c-0.618,0.064-1.256,0.116-1.836,0.314c-1.232,0.422-2.35,0.352-3.473-0.354C151.661,102.439,151.042,102.344,150.485,102.153z
	 M117.692,97.63c-0.044-0.481-0.029-0.857-0.122-1.205c-0.104-0.389-0.245-0.798-0.481-1.113c-0.312-0.416-0.716-0.317-0.913,0.167
	c-0.08,0.197-0.136,0.408-0.167,0.619c-0.251,1.7-0.505,3.399-0.734,5.102c-0.1,0.738-0.426,1.298-1.076,1.67
	c-0.586,0.336-1.15,0.712-1.751,1.018c-0.676,0.344-0.504,0.652-0.153,1.071c0.157,0.186,0.413,0.325,0.65,0.401
	c1.039,0.333,1.97-0.023,2.609-1.022c0.447-0.697,0.834-1.432,1.254-2.146c0.726-1.237,1.679-2.208,3.045-2.757
	c0.923-0.373,1.827-0.806,2.703-1.277c1.606-0.864,3.225-1.716,4.766-2.686c1.556-0.978,2.165-2.566,2.368-4.326
	c0.013-0.12-0.124-0.359-0.216-0.374c-0.757-0.115-1.541-0.235-2.221,0.232c-0.999,0.688-1.961,1.427-2.948,2.134
	c-1.873,1.34-3.747,2.677-5.63,4C118.4,97.333,118.068,97.445,117.692,97.63z M132.846,52.444c-0.729,0.648-1.373,1.192-1.98,1.771
	c-0.383,0.365-0.346,0.602,0.056,0.902c0.897,0.67,0.897,0.67,0.554,1.743c-0.166,0.519-0.001,0.807,0.516,0.903
	c1.204,0.222,2.705-0.438,3.353-1.456c0.477-0.75,0.968-1.491,1.465-2.227c0.396-0.586,0.526-1.207,0.28-1.877
	c-0.201-0.546-0.441-1.078-0.646-1.622c-0.225-0.596-0.656-0.939-1.257-1.105c-1.155-0.32-2.317-0.156-3.475-0.042
	c-0.381,0.038-0.658,0.439-0.527,0.828c0.153,0.449,0.395,0.886,0.683,1.265C132.129,51.873,132.505,52.132,132.846,52.444z
	 M103.771,63.704c-0.007-0.042-0.014-0.084-0.02-0.126c-0.354,0-0.707-0.011-1.06,0.001c-1.307,0.046-1.953,1.07-1.327,2.23
	c1.027,1.901,2.515,2.869,4.854,1.826c1.356-0.605,2.652-1.35,3.958-2.06c0.647-0.353,0.725-0.937,0.162-1.407
	c-0.951-0.791-2.002-1.258-3.309-0.971C105.958,63.433,104.858,63.54,103.771,63.704z M125.018,103.717
	c-0.003,0.046-0.006,0.094-0.009,0.141c-1.123-0.141-2.087,0.091-2.746,1.08c-0.09,0.135-0.245,0.231-0.379,0.334
	c-0.333,0.253-0.342,0.493-0.034,0.79c1.037,0.993,2.132,1.901,3.489,2.429c0.137,0.053,0.333,0.041,0.474-0.013
	c1.746-0.663,3.489-1.335,5.228-2.017c0.162-0.063,0.356-0.171,0.429-0.313c0.366-0.707-0.352-1.865-1.134-1.792
	c-0.461,0.043-0.923,0.214-1.354,0.398c-0.648,0.278-1.246,0.268-1.837-0.122c-0.23-0.151-0.458-0.321-0.711-0.423
	C125.971,104.022,125.49,103.878,125.018,103.717z M143.85,88.604c-0.193-0.246-0.378-0.58-0.653-0.807
	c-0.435-0.36-0.939-0.635-1.397-0.97c-0.774-0.567-1.591-0.619-2.421-0.185c-0.554,0.29-1.072,0.652-1.6,0.99
	c-0.744,0.477-0.979,0.454-1.698-0.048c-0.319-0.223-0.688-0.401-1.061-0.515c-0.458-0.141-0.729,0.095-0.766,0.582
	c-0.045,0.593,0.236,1.069,0.663,1.402c1.343,1.048,2.87,1.699,4.571,1.879c0.63,0.067,0.817-0.156,0.87-0.782
	c0.039-0.456,0.076-0.919,0.187-1.361c0.09-0.359,0.341-0.399,0.628-0.158c0.363,0.304,0.42,0.725,0.458,1.161
	c0.031,0.364,0.047,0.74,0.154,1.084c0.121,0.394,0.596,0.522,0.846,0.225C143.208,90.414,143.563,89.603,143.85,88.604z
	 M115.513,44.315c-0.987-0.708-2.029-1.048-3.142-1.075c-2.796-0.068-4.709,1.51-6.28,3.582c-0.537,0.709-0.178,1.305,0.739,1.455
	c1.284,0.21,2.359-0.313,3.408-0.966c1.104-0.686,2.223-1.348,3.35-1.997C114.193,44.965,114.827,44.668,115.513,44.315z
	 M165.683,106.533c0.024-0.008,0.049-0.016,0.073-0.024c-0.142-0.496-0.236-1.013-0.435-1.486c-0.556-1.33-1.414-2.477-2.325-3.577
	c-0.56-0.676-1.798-0.746-2.479-0.195c-0.716,0.578-0.806,1.343-0.242,2.076c0.093,0.122,0.188,0.245,0.294,0.353
	c1.157,1.167,2.309,2.338,3.479,3.492c0.248,0.245,0.546,0.451,0.849,0.627c0.354,0.207,0.594,0.094,0.676-0.306
	C165.637,107.179,165.648,106.854,165.683,106.533z M152.858,94.491c-0.623-0.134-1.158-0.014-1.608,0.393
	c-0.348,0.314-0.696,0.335-1.089,0.105c-0.702-0.409-1.409-0.808-2.113-1.213c-0.94-0.542-1.974-0.736-3.037-0.798
	c-0.161-0.009-0.329,0.108-0.494,0.166c0.077,0.158,0.116,0.358,0.238,0.463c0.299,0.26,0.627,0.49,0.961,0.706
	c1.054,0.685,2.122,1.347,3.171,2.039c0.696,0.459,1.156,1.059,1.198,1.953c0.031,0.665,0.174,0.726,0.822,0.596
	c1.598-0.318,2.407-1.448,2.175-3.045C153.018,95.417,152.938,94.979,152.858,94.491z M157.521,95.737
	c-0.278,1.234,0.649,2.298,1.735,3.256c0.75,0.662,1.479,0.392,1.501-0.605c0.019-0.837-0.075-1.752-0.408-2.504
	c-0.675-1.521-1.547-2.955-2.335-4.427c-0.302-0.564-0.824-0.708-1.396-0.712c-0.455-0.003-0.646,0.288-0.462,0.706
	c0.148,0.333,0.318,0.678,0.561,0.944C157.494,93.246,157.664,94.252,157.521,95.737z M149.107,110.996
	c0.458-0.093,0.872-0.135,0.994-0.624c0.123-0.492-0.228-0.721-0.588-0.922c-0.134-0.076-0.273-0.141-0.415-0.198
	c-0.884-0.349-1.773-0.683-2.651-1.046c-1.073-0.443-2.048-0.286-2.911,0.472c-0.726,0.637-1.425,1.306-2.128,1.969
	c-0.132,0.125-0.243,0.279-0.34,0.434c-0.274,0.437-0.187,0.671,0.303,0.821c0.719,0.221,1.378,0.093,2.023-0.294
	c0.812-0.489,1.625-0.992,2.487-1.378c0.892-0.4,1.764-0.241,2.537,0.399C148.615,110.791,148.875,110.876,149.107,110.996z
	 M146.691,98.974c-0.119-0.257-0.17-0.605-0.37-0.753c-0.606-0.447-1.268-0.821-1.915-1.214c-0.07-0.043-0.18-0.032-0.272-0.029
	c-0.706,0.025-1.415,0.024-2.115,0.096c-0.305,0.032-0.669,0.142-0.877,0.347c-0.63,0.625-1.222,1.294-1.771,1.991
	c-0.126,0.16-0.133,0.613-0.006,0.735c0.401,0.387,0.857,0.753,1.357,0.992c0.608,0.292,0.996,0.097,1.238-0.533
	c0.169-0.44,0.263-0.911,0.369-1.373c0.102-0.445,0.24-0.561,0.661-0.389c0.366,0.149,0.7,0.377,1.051,0.564
	c0.404,0.215,0.792,0.48,1.221,0.622C146.014,100.278,146.607,99.802,146.691,98.974z M122.421,41.713
	c-0.737-0.022-1.045,0.126-1.097,0.662c-0.045,0.469-0.034,1.007,0.157,1.42c0.402,0.875,0.913,1.702,1.428,2.519
	c0.275,0.436,0.634,0.825,0.989,1.204c0.18,0.191,0.464,0.331,0.682,0.05c0.428-0.553,0.902-1.092,1.209-1.71
	c0.384-0.774,0.195-1.305-0.434-1.891c-0.641-0.596-1.284-1.19-1.909-1.802C123.132,41.857,122.797,41.651,122.421,41.713z
	 M140.027,57.722c-0.177,0.065-0.476,0.08-0.593,0.233c-0.574,0.753-1.138,1.521-1.623,2.332c-0.197,0.33-0.289,0.795-0.249,1.181
	c0.09,0.869,0.483,1.645,1.038,2.317c0.208,0.253,0.485,0.472,0.772,0.631c0.364,0.202,0.824,0.061,1.07-0.267
	c0.265-0.352,0.252-0.715-0.018-1.056c-0.18-0.228-0.392-0.43-0.582-0.651c-0.511-0.593-0.507-1.101,0.053-1.656
	c0.369-0.367,0.787-0.684,1.17-1.036c0.36-0.331,0.734-0.654,1.05-1.025c0.293-0.344,0.224-0.549-0.214-0.655
	C141.309,57.927,140.701,57.845,140.027,57.722z M137.255,105.677c-0.022,0.55,0.182,0.689,0.56,0.433
	c0.558-0.377,1.066-0.826,1.614-1.217c0.474-0.339,0.57-0.265,0.76,0.271c0.171,0.481,0.408,0.945,0.666,1.387
	c0.157,0.267,0.35,0.207,0.517-0.065c0.311-0.508,0.643-1.003,0.984-1.491c0.408-0.585,0.112-2.152-0.495-2.536
	c-0.077-0.048-0.167-0.106-0.251-0.108c-1.025-0.022-2.051-0.058-3.075-0.024c-0.169,0.005-0.406,0.3-0.476,0.507
	c-0.239,0.707-0.417,1.435-0.618,2.154C137.367,105.252,137.298,105.518,137.255,105.677z M111.639,91.272
	c-0.602,0.123-1.109,0.178-1.581,0.338c-0.513,0.174-0.719,0.606-0.551,1.105c0.339,1.008,0.956,1.81,1.902,2.329
	c0.39,0.214,0.806,0.257,1.173-0.022c0.84-0.64,1.688-1.276,2.48-1.973c0.524-0.461,0.404-0.936-0.273-1.107
	C113.724,91.674,112.64,91.481,111.639,91.272z M133.936,94.115c-0.007,0.024-0.015,0.05-0.022,0.075
	c-0.489,0.041-0.979,0.076-1.468,0.123c-0.658,0.063-1.438,0.916-1.45,1.576c-0.011,0.549,0.281,0.791,0.817,0.675
	c0.255-0.055,0.508-0.119,0.763-0.165c0.857-0.15,1.626,0.217,2.426,0.413c1.363,0.334,2.622,0.229,3.639-0.885
	c0.283-0.309,0.278-0.433-0.1-0.602c-0.195-0.087-0.405-0.142-0.611-0.202c-0.706-0.205-1.41-0.421-2.121-0.603
	C135.19,94.364,134.56,94.248,133.936,94.115z M106.416,72.688c0,0.033,0,0.065,0,0.099c0.767,0,1.534-0.01,2.301,0.004
	c0.33,0.006,0.467-0.113,0.475-0.451c0.019-0.82-0.367-1.436-1.164-1.816c-0.967-0.46-1.958-0.42-2.968-0.176
	c-1.326,0.32-1.517,0.588-1.407,1.938c0.023,0.289,0.121,0.409,0.415,0.405C104.85,72.682,105.632,72.688,106.416,72.688z
	 M112.177,50.186c0.005-0.021,0.01-0.043,0.016-0.065c0.321-0.026,0.643-0.049,0.963-0.082c0.167-0.017,0.334-0.045,0.5-0.075
	c0.95-0.168,1.185-0.412,1.325-1.355c0.067-0.457-0.091-0.822-0.53-0.95c-1.536-0.449-3.047-0.784-4.347,0.626
	c-0.578,0.627-0.539,1.254,0.284,1.535C110.959,50.015,111.58,50.069,112.177,50.186z M127.978,62.744
	c0.201-0.151,0.345-0.25,0.475-0.362c0.244-0.21,0.462-0.453,0.722-0.638c0.656-0.466,1.189-0.371,1.72,0.234
	c0.271,0.309,0.564,0.609,0.891,0.856c0.467,0.353,0.883,0.328,1.344-0.038c0.323-0.257,0.641-0.528,0.926-0.826
	c0.166-0.173,0.261-0.414,0.388-0.625c-0.238-0.08-0.482-0.245-0.712-0.227c-1.188,0.093-2.194-0.184-3.109-1.025
	c-0.698-0.642-1.467-0.459-2.183,0.182C127.677,60.958,127.723,61.762,127.978,62.744z M133.762,110.05
	c-0.076-0.255-0.127-0.563-0.257-0.833c-0.319-0.66-0.681-1.298-1.013-1.953c-0.272-0.536-0.523-0.616-0.927-0.181
	c-0.499,0.537-0.941,1.126-1.396,1.703c-0.067,0.084-0.129,0.261-0.086,0.329c0.273,0.436,0.49,0.986,0.89,1.247
	c0.629,0.41,1.383,0.631,2.097,0.902c0.103,0.039,0.356-0.058,0.394-0.151C133.593,110.791,133.658,110.442,133.762,110.05z
	 M153.125,115.897c-0.003,0.023-0.006,0.046-0.01,0.07c-0.291,0-0.582,0.001-0.873,0c-0.414-0.003-0.723,0.193-0.868,0.562
	c-0.171,0.438-0.319,0.896-0.392,1.359c-0.032,0.2,0.096,0.484,0.246,0.64c0.382,0.398,1.453,0.541,1.896,0.217
	c0.726-0.532,1.426-1.105,2.089-1.714c0.411-0.376,0.31-0.731-0.238-0.86C154.372,116.027,153.743,115.984,153.125,115.897z
	 M159.802,72.736c-0.034,0.974,0.253,1.204,0.99,0.899c0.505-0.208,1.016-0.445,1.451-0.769c0.339-0.253,0.645-0.623,0.822-1.007
	c0.197-0.434,0.186-0.936-0.226-1.312c-0.316-0.289-1.15-0.464-1.423-0.25C160.563,70.964,159.715,71.65,159.802,72.736z
	 M140.68,47.103c-0.016-0.229-0.018-0.568-0.066-0.899c-0.054-0.374-0.254-0.616-0.678-0.597c-0.398,0.018-0.8-0.002-1.196,0.036
	c-0.138,0.014-0.349,0.129-0.38,0.24c-0.211,0.733-0.293,1.49-0.007,2.214c0.093,0.235,0.358,0.492,0.596,0.559
	c0.374,0.104,0.793,0.095,1.185,0.052c0.15-0.016,0.354-0.237,0.397-0.401C140.623,47.954,140.627,47.579,140.68,47.103z
	 M153.947,99.585c-0.202,0.083-0.306,0.109-0.389,0.165c-0.316,0.215-0.629,0.436-0.937,0.663c-0.396,0.294-0.411,0.503-0.002,0.773
	c0.612,0.405,1.248,0.774,1.877,1.151c0.28,0.167,0.49,0.102,0.618-0.214c0.177-0.439,0.395-0.865,0.535-1.315
	c0.047-0.154-0.027-0.469-0.142-0.529C154.989,100.004,154.435,99.795,153.947,99.585z M133.864,100.455
	c0.182,0.287,0.36,0.583,0.556,0.868c0.127,0.185,0.269,0.491,0.426,0.505c0.649,0.058,1.321,0.103,1.954-0.013
	c0.268-0.049,0.525-0.479,0.652-0.791c0.042-0.101-0.333-0.399-0.546-0.568c-0.309-0.246-0.635-0.472-0.973-0.675
	c-0.119-0.073-0.319-0.112-0.44-0.063C134.972,99.928,134.467,100.177,133.864,100.455z M127.761,48.177
	c-0.763,0.037-1.421,0.203-1.968,0.667c-0.535,0.453-0.532,1.011,0.069,1.35c0.469,0.265,1.011,0.422,1.538,0.553
	c0.392,0.097,0.56-0.19,0.536-0.551C127.894,49.542,127.824,48.889,127.761,48.177z M128.11,53.042c0-0.021,0-0.042,0-0.063
	c0.368,0,0.736,0.013,1.104-0.004c0.338-0.017,0.501-0.204,0.428-0.552c-0.069-0.329-0.135-0.66-0.221-0.985
	c-0.11-0.418-0.385-0.59-0.801-0.443c-0.805,0.284-1.435,0.81-1.897,1.527c-0.212,0.33-0.041,0.494,0.287,0.515
	C127.374,53.059,127.743,53.042,128.11,53.042z M131.283,76.584c0.546,0,1.25-0.937,1.126-1.32
	c-0.014-0.043-0.038-0.084-0.063-0.121c-0.344-0.498-0.854-0.697-1.451-0.569c-0.121,0.026-0.244,0.046-0.357,0.088
	c-0.192,0.071-0.495,0.112-0.546,0.245c-0.122,0.318-0.139,0.68-0.167,1.027c-0.006,0.075,0.104,0.206,0.189,0.236
	C130.474,76.334,130.941,76.475,131.283,76.584z M131.242,46.747c0.012-0.402-0.443-0.809-0.904-0.808
	c-0.37,0.001-1.124,0.668-1.146,1.015c-0.023,0.354,0.476,0.831,0.89,0.85C130.601,47.827,131.227,47.256,131.242,46.747z
	 M137.056,109.134c-0.24-0.498-0.862-1.072-1.281-1.183c-0.588-0.156-0.97,0.189-0.848,0.767c0.061,0.284,0.084,0.585,0.201,0.844
	c0.052,0.116,0.324,0.243,0.439,0.203C136.066,109.592,136.543,109.358,137.056,109.134z M139.033,107.431
	c-0.3,0.496-0.642,0.911-0.806,1.387c-0.099,0.287,0.057,0.673,0.144,1.003c0.016,0.061,0.273,0.125,0.379,0.083
	c0.348-0.135,0.679-0.319,1.023-0.488C139.547,108.811,139.309,108.173,139.033,107.431z M141.564,61.957
	c0.05,0.071,0.1,0.143,0.149,0.214c0.434-0.094,0.903-0.114,1.293-0.299c0.574-0.272,0.568-0.68,0.051-1.041
	c-0.209-0.146-0.44-0.264-0.721-0.431C142.066,60.947,141.815,61.451,141.564,61.957z"/>
<path fill-rule="evenodd" clip-rule="evenodd" fill="#FFFFFF" d="M147.95,48.204c-0.227-0.015-0.466,0.013-0.677-0.052
	c-1.488-0.457-2.916-1.057-4.195-1.955c-0.599-0.421-1.054-0.986-1.281-1.702c-0.33-1.036,0.119-1.57,1.174-1.389
	c0.755,0.129,1.508,0.281,2.262,0.419c0.119,0.022,0.244,0.03,0.366,0.032c0.826,0.016,1.169-0.374,0.905-1.153
	c-0.194-0.575-0.477-1.136-0.809-1.644c-0.553-0.844-0.571-1.657-0.053-2.502c0.305-0.498,0.616-0.991,0.917-1.49
	c0.456-0.753,0.456-1.499-0.014-2.256c-0.781-1.259-1.813-2.019-3.38-1.842c-0.44,0.049-0.891,0.018-1.335,0.003
	c-0.6-0.02-0.75,0.086-0.894,0.68c-0.072,0.298-0.112,0.609-0.226,0.89c-0.365,0.906-1.186,1.04-1.777,0.275
	c-0.412-0.533-0.757-1.119-1.134-1.679c-0.352-0.523-0.671-0.62-1.196-0.274c-0.473,0.311-0.881,0.72-1.356,1.027
	c-0.26,0.169-0.621,0.342-0.897,0.292c-0.392-0.07-0.453-0.509-0.456-0.865c-0.004-0.814,0.022-1.627,0.04-2.44
	c0.008-0.376,0.216-0.557,0.582-0.569c0.736-0.025,1.485,0.027,2.204-0.096c0.554-0.095,1.087-0.378,1.596-0.642
	c0.178-0.092,0.257-0.376,0.381-0.572c-0.202-0.084-0.401-0.235-0.607-0.241c-0.705-0.022-1.413-0.014-2.117,0.019
	c-0.752,0.035-1.512,0.055-2.249,0.189c-0.527,0.097-1.05,0.321-1.522,0.583c-0.477,0.265-0.929,0.437-1.481,0.342
	c-0.495-0.085-0.767-0.352-0.833-0.84c-0.041-0.304-0.051-0.613-0.114-0.912c-0.133-0.626-0.686-0.834-1.174-0.415
	c-0.334,0.287-0.603,0.651-0.89,0.99c-0.559,0.659-0.836,0.689-1.289-0.06c-0.918-1.522-1.767-3.087-2.641-4.637
	c-0.177-0.313-0.093-0.602,0.153-0.834c0.233-0.221,0.497-0.41,0.737-0.625c0.355-0.315,0.289-0.639-0.172-0.758
	c-0.2-0.052-0.424-0.017-0.637-0.01c-0.702,0.022-1.404,0.075-2.106,0.066c-0.542-0.006-0.777,0.108-0.988,0.625
	c-0.556,1.359-0.427,1.749,0.839,2.515c0.368,0.223,0.741,0.437,1.112,0.654c0.361,0.213,0.49,0.524,0.295,0.897
	c-0.248,0.475-0.564,0.914-0.807,1.39c-0.354,0.693-0.717,1.389-0.985,2.117c-0.187,0.508-0.159,1.064,0.186,1.544
	c0.263,0.366,0.615,0.561,1.07,0.486c0.449-0.075,0.626-0.432,0.706-0.817c0.075-0.358,0.091-0.73,0.105-1.098
	c0.03-0.813,0.391-1.098,1.195-0.923c0.688,0.15,1.48,1.003,1.584,1.708c0.129,0.875-0.662,1.747-1.57,1.7
	c-0.319-0.016-0.633-0.143-0.951-0.151c-0.328-0.009-0.697-0.016-0.98,0.118c-0.844,0.399-1.463,1.064-1.866,1.903
	c-0.287,0.598-0.1,1.132,0.495,1.437c1.141,0.584,2.351,0.649,3.587,0.39c0.387-0.082,0.666-0.281,0.695-0.738
	c0.01-0.148,0.121-0.376,0.235-0.413c0.515-0.167,1.049-0.389,1.574-0.382c0.695,0.007,0.92,0.537,0.545,1.13
	c-0.22,0.347-0.505,0.656-0.778,0.966c-0.593,0.674-0.627,1.126,0.108,1.656c1.168,0.84,2.411,1.578,3.626,2.351
	c0.232,0.148,0.493,0.25,0.729,0.392c0.39,0.234,0.753,0.179,1.043-0.136c0.557-0.604,1.001-1.287,1.178-2.104
	c0.135-0.626-0.153-0.969-0.787-0.903c-0.392,0.042-0.773,0.181-1.158,0.285c-0.222,0.06-0.436,0.147-0.658,0.205
	c-0.582,0.152-0.678,0.037-0.552-0.554c0.138-0.64,0.246-1.287,0.345-1.934c0.063-0.407-0.191-0.647-0.54-0.749
	c-0.366-0.106-0.753-0.138-1.128-0.216c-0.223-0.047-0.454-0.093-0.658-0.189c-0.243-0.115-0.324-0.34-0.171-0.579
	c0.496-0.771,1.249-1.211,2.085-1.504c0.124-0.043,0.396,0.133,0.499,0.279c0.145,0.206,0.224,0.471,0.284,0.722
	c0.406,1.688,1.589,2.714,3.021,3.597c0.406-0.471,0.796-0.94,1.205-1.393c0.236-0.262,0.478-0.525,0.756-0.737
	c0.389-0.297,0.672-0.179,0.742,0.302c0.053,0.363,0.076,0.736,0.057,1.102c-0.046,0.849,0.279,1.397,1.074,1.784
	c0.637,0.309,1.174,0.819,1.751,1.248c0.319,0.237,0.62,0.5,0.944,0.732c0.65,0.462,1.37,0.357,2.087,0.221
	c0.875-0.167,1.172,0.069,1.222,1.044c-0.688,0.093-1.383,0.179-2.074,0.285c-0.395,0.061-0.787,0.139-1.174,0.233
	c-1.011,0.245-1.848,0.734-2.347,1.696c-0.084,0.163-0.199,0.31-0.302,0.462c-0.597,0.886-1.102,1.02-2.071,0.543
	c-1.089-0.535-2.187-1.049-3.26-1.612c-1.387-0.728-2.912-0.925-4.413-1.233c-0.913-0.188-1.806-0.475-2.707-0.721
	c-0.698-0.19-1.09-0.647-1.319-1.336c-0.211-0.634-0.507-1.25-0.843-1.828c-0.313-0.54-0.711-0.58-1.108-0.091
	c-0.52,0.641-0.939,1.362-1.431,2.028c-0.199,0.269-0.475,0.48-0.717,0.718c-0.14-0.296-0.366-0.582-0.403-0.891
	c-0.198-1.625-1.121-2.416-2.706-2.711c-1.731-0.322-3.428-0.829-5.142-1.241c-0.627-0.15-1.051-0.509-1.362-1.069
	c-0.41-0.737-0.846-1.462-1.317-2.161c-0.207-0.308-0.498-0.588-0.809-0.79c-0.295-0.19-0.557,0.016-0.433,0.345
	c0.207,0.553,0.497,1.076,0.773,1.601c0.334,0.632,0.727,1.236,1.018,1.886c0.109,0.241,0.004,0.578-0.004,0.871
	c-0.298-0.07-0.608-0.112-0.893-0.219c-0.195-0.073-0.377-0.215-0.53-0.362c-0.657-0.63-1.424-0.847-2.324-0.728
	c-0.85,0.112-1.715,0.126-2.561,0.262c-0.475,0.077-0.932,0.294-1.38,0.487c-0.276,0.119-0.463,0.093-0.517-0.206
	c-0.078-0.433-0.163-0.876-0.149-1.312c0.014-0.446,0.295-0.613,0.819-0.591c0.353,0.015,0.706,0.037,1.057,0.07
	c0.774,0.073,1.453-0.181,2.083-0.598c0.358-0.238,0.34-0.382,0.042-0.679c-0.376-0.375-0.742-0.768-1.063-1.189
	c-0.4-0.525-0.667-0.633-1.304-0.434c-0.737,0.23-1.387,0.535-1.445,1.447c-0.017,0.267-0.184,0.331-0.419,0.223
	c-0.139-0.064-0.277-0.132-0.415-0.2c-0.308-0.151-0.537-0.062-0.686,0.235c-0.103,0.206-0.157,0.442-0.289,0.625
	c-0.254,0.354-0.515,0.714-0.832,1.008c-0.322,0.3-0.373,0.43-0.059,0.743c0.229,0.229,0.478,0.434,0.707,0.662
	c0.255,0.254,0.452,0.596,0.228,0.901c-0.164,0.222-0.51,0.405-0.789,0.426c-0.578,0.043-1.164-0.044-1.747-0.057
	c-0.556-0.013-1.059,0.163-1.498,0.507c-0.392,0.306-0.415,0.546-0.187,0.997c0.436,0.86,0.84,1.736,1.268,2.6
	c0.283,0.57,0.155,1.048-0.237,1.524c-0.779,0.947-1.536,1.915-2.291,2.883c-0.114,0.147-0.168,0.34-0.25,0.511
	c0.027,0.038,0.055,0.076,0.083,0.115c0.219-0.07,0.443-0.127,0.656-0.21c0.785-0.307,1.542-0.724,2.354-0.905
	c0.715-0.159,1.501-0.146,2.233-0.046c0.924,0.126,1.626,1.08,1.66,2.064c0.101,2.994,0.187,5.989,0.295,8.983
	c0.018,0.502,0.082,1.012,0.191,1.503c0.24,1.071,0.88,1.472,1.939,1.192c0.903-0.239,1.781-0.576,2.682-0.818
	c0.659-0.178,1.341-0.273,2.125-0.427c0,0.675,0.029,1.232-0.011,1.785c-0.024,0.339-0.27,0.371-0.582,0.293
	c-0.314-0.078-0.666-0.152-0.972-0.09c-1.034,0.212-2.047,0.54-3.086,0.724c-1.403,0.25-2.749-0.371-3.367-1.631
	c-0.283-0.577-0.361-1.305-0.355-1.962c0.015-1.626,0.099-3.253,0.221-4.876c0.088-1.177-0.018-1.392-1.182-1.246
	c-1.935,0.243-3.226-0.8-4.434-2.061c-0.18-0.188-0.332-0.403-0.5-0.603c-0.028-0.033-0.075-0.051-0.178-0.116
	c-0.06,0.18-0.137,0.335-0.163,0.5c-0.413,2.534-0.277,5.045,0.299,7.543c1.304,5.657,3.152,11.123,5.725,16.333
	c0.44,0.893,0.946,1.759,1.487,2.595c1.461,2.255,3.609,3.174,6.24,3.123c2.266-0.044,4.385-0.707,6.45-1.555
	c1.22-0.5,2.416-1.064,3.596-1.652c1.828-0.909,3.079-2.408,4.078-4.142c1.496-2.597,2.331-5.429,2.934-8.341
	c0.161-0.781,0.305-1.565,0.459-2.348c0.03-0.15,0.051-0.308,0.115-0.444c0.148-0.314,0.178-0.77,0.684-0.732
	c0.31,0.023,0.583,0.531,0.581,1c-0.002,0.968,0.06,1.94-0.02,2.902c-0.071,0.859,0.31,1.384,0.999,1.74
	c1.171,0.605,2.354,1.187,3.543,1.755c1.107,0.53,2.231,1.024,3.342,1.545c0.249,0.117,0.491,0.259,0.708,0.426
	c0.12,0.093,0.183,0.262,0.272,0.396c-0.148,0.093-0.287,0.242-0.445,0.269c-0.362,0.06-0.739,0.115-1.099,0.074
	c-0.867-0.098-1.728-0.252-2.59-0.386c-0.204-0.031-0.407-0.072-0.752-0.134c0.188,0.273,0.286,0.438,0.405,0.584
	c0.281,0.345,0.59,0.669,0.854,1.026c0.162,0.219,0.31,0.472,0.373,0.731c0.049,0.201,0.033,0.52-0.093,0.634
	c-0.114,0.103-0.465,0.077-0.624-0.028c-0.443-0.292-0.849-0.646-1.254-0.993c-0.29-0.249-0.53-0.562-0.838-0.783
	c-0.584-0.421-1.226-0.377-1.621,0.216c-0.418,0.627-0.842,1.325-0.991,2.048c-0.75,3.638-3.173,5.851-6.234,7.551
	c-1.728,0.96-3.561,1.643-5.507,2.017c-1.223,0.234-2.198,0.825-2.808,1.954c-0.297,0.549-0.823,0.725-1.408,0.699
	c-1.196-0.05-2.391-0.127-3.586-0.196c-0.092-0.005-0.183-0.023-0.273-0.042c-0.453-0.093-0.549-0.27-0.316-0.675
	c0.206-0.358,0.466-0.686,0.689-1.035c0.347-0.543,0.719-1.074,1.013-1.644c0.306-0.593,0.148-0.944-0.5-1.105
	c-0.846-0.211-1.708-0.373-2.57-0.504c-0.221-0.033-0.472,0.129-0.708,0.201c0.074,0.237,0.082,0.535,0.234,0.7
	c0.373,0.402,0.799,0.758,1.227,1.104c0.288,0.234,0.365,0.468,0.076,0.72c-1.84,1.604-1.84,3.637-1.424,5.803
	c0.279,1.458,0.668,2.865,1.414,4.158c0.053,0.092,0.095,0.193,0.136,0.292c0.415,0.996,0.237,1.519-0.733,1.978
	c-0.511,0.242-1.046,0.443-1.588,0.603c-0.924,0.274-1.959-0.212-2.313-1.105c-0.083-0.211-0.025-0.564,0.106-0.756
	c0.173-0.252,0.47-0.432,0.741-0.6c0.258-0.161,0.552-0.266,0.83-0.397c0.646-0.305,0.684-0.545,0.155-1.041
	c-0.179-0.168-0.371-0.323-0.561-0.477c-2.803-2.268-5.376-4.772-7.731-7.5c-0.817-0.945-0.927-2.015-0.424-3.138
	c0.263-0.587,0.555-1.166,0.888-1.716c0.83-1.373,1.026-2.85,0.922-4.427c-0.252-3.818-1.302-7.458-2.415-11.081
	c-0.683-2.227-1.463-4.425-2.248-6.618c-0.43-1.203-0.504-2.324,0.133-3.498c0.592-1.091,0.522-1.165-0.668-1.471
	c-1.906-0.49-3.412-1.572-4.628-3.086c-1.053-1.311-1.305-2.818-0.865-4.393c1.145-4.094,2.854-7.886,5.862-11.016
	c2.723-2.833,5.647-5.427,8.754-7.823c0.157-0.122,0.317-0.261,0.499-0.325c0.213-0.076,0.453-0.079,0.682-0.114
	c0.003,0.219,0.073,0.465-0.002,0.654c-0.186,0.467-0.372,0.958-0.673,1.352c-1.185,1.549-2.393,3.079-3.631,4.586
	c-1.619,1.97-3.266,3.917-4.915,5.862c-0.823,0.971-1.266,2.091-1.421,3.338c-0.17,1.372-0.115,2.73,0.301,4.056
	c0.253,0.808,0.745,1.047,1.428,0.587c0.848-0.572,1.644-1.236,2.393-1.935c0.198-0.185,0.25-0.67,0.177-0.971
	c-0.105-0.434-0.36-0.841-0.598-1.231c-0.303-0.498-0.666-0.959-0.979-1.451c-0.409-0.642-0.38-1.056,0.115-1.629
	c0.209-0.243,0.441-0.475,0.696-0.668c2.09-1.589,3.744-3.586,5.322-5.654c0.56-0.732,1.082-1.495,1.666-2.208
	c1.428-1.746,2.498-3.687,3.139-5.843c0.331-1.117,0.993-1.727,2.104-2.058c2.114-0.63,4.194-1.373,6.292-2.062
	c1.441-0.474,2.892-0.505,4.35-0.071c0.588,0.175,1.181,0.333,1.774,0.49c1.109,0.293,2.188,0.116,3.265-0.198
	c0.528-0.154,1.072-0.258,1.613-0.367c0.993-0.199,1.801,0.115,2.481,0.86c0.559,0.613,1.159,1.188,1.743,1.777
	c1.207,1.218,2.631,2.112,4.208,2.764c2.482,1.024,4.931,2.093,7.207,3.561c2.252,1.453,4.743,2.448,7.31,3.216
	c1.074,0.322,1.898,0.905,2.465,1.865c0.086,0.145,0.188,0.281,0.284,0.42c0.808,1.172,1.524,1.435,2.922,1.09
	c1.234-0.304,2.46-0.657,3.709-0.877c1.651-0.292,3.318-0.229,4.925,0.273c1.215,0.379,2.45,0.552,3.706,0.657
	c0.122,0.01,0.245,0.025,0.364,0.051c0.855,0.183,1.043,0.738,0.428,1.379c-0.802,0.835-1.81,0.906-2.861,0.623
	c-0.621-0.167-1.221-0.405-1.833-0.606c-0.651-0.215-1.218-0.072-1.769,0.338c-1.17,0.872-1.84,2.008-1.881,3.47
	c-0.008,0.276,0.15,0.587,0.312,0.828c0.186,0.275,0.5,0.463,0.691,0.736c0.222,0.319,0.443,0.671,0.535,1.041
	c0.154,0.62-0.151,1.041-0.77,1.198c-0.676,0.17-1.345,0.041-1.918-0.282c-0.825-0.463-1.458-0.487-2.097,0.322
	c-0.378,0.48-0.913,0.469-1.372,0.171c-0.506-0.328-0.782-0.987-0.632-1.516c0.017-0.059,0.032-0.121,0.063-0.173
	c0.571-0.987,0.293-1.868-0.368-2.675c-0.424-0.52-0.867-1.035-1.36-1.488c-0.449-0.412-1.019-0.488-1.594-0.239
	c-0.351,0.152-0.702,0.315-1.029,0.51c-0.691,0.411-0.862,1.072-0.465,1.777c0.377,0.672,0.966,1.055,1.723,1.177
	c0.272,0.044,0.549,0.062,0.823,0.099c0.628,0.083,0.715,0.291,0.58,0.902c-0.209,0.947-0.784,1.561-1.586,2.031
	c-0.648,0.38-1.286,0.782-1.908,1.204c-0.599,0.407-0.676,0.684-0.33,1.319c0.278,0.51,0.632,0.979,0.946,1.47
	c0.127,0.199,0.237,0.409,0.354,0.614C148.014,48.126,147.982,48.165,147.95,48.204z M110.974,27.101
	c-0.015,1.087,0.071,1.154,1.057,0.926c0.045-0.01,0.092-0.013,0.136-0.026c0.528-0.162,0.989-0.04,1.421,0.296
	c0.314,0.244,0.651,0.46,0.993,0.663c0.383,0.226,0.766,0.197,1.11-0.096c0.94-0.802,1.633-1.786,2.098-2.925
	c0.176-0.434,0.006-0.703-0.465-0.8c-0.254-0.053-0.516-0.071-0.775-0.094c-0.557-0.049-0.696-0.177-0.747-0.722
	c-0.027-0.291-0.029-0.584-0.064-0.873c-0.073-0.595-0.374-0.757-0.88-0.434c-0.278,0.177-0.495,0.452-0.743,0.679
	c-0.315,0.29-0.302,0.496,0.091,0.735c0.596,0.363,0.682,0.817,0.36,1.463c-0.29,0.58-0.589,0.694-1.296,0.453
	c-0.317-0.108-0.63-0.244-0.926-0.403c-0.837-0.451-1.664-0.92-2.496-1.382c-1.12-0.623-2.014-0.148-2.134,1.133
	c-0.015,0.168-0.018,0.338-0.011,0.507c0.025,0.611,0.321,0.8,0.877,0.517c0.366-0.186,0.702-0.435,1.04-0.672
	c0.252-0.176,0.471-0.183,0.766-0.059C110.964,26.231,110.994,26.693,110.974,27.101z M120.266,34.547
	c0.058-0.479-0.026-1.021-0.5-1.332c-0.529-0.347-1.104-0.702-1.708-0.837c-1.497-0.336-2.338,0.351-2.211,1.734
	c0.03,0.323,0.192,0.715,0.427,0.923c0.475,0.42,1.007,0.808,1.579,1.078C119.124,36.716,120.22,36.009,120.266,34.547z
	 M129.514,26.52c0.193-0.082,0.649-0.135,0.771-0.367c0.137-0.257-0.016-0.678-0.069-1.024c-0.018-0.112-0.102-0.23-0.189-0.31
	c-0.572-0.521-1.104-1.107-1.743-1.528c-0.895-0.59-1.472-0.479-2.282,0.226c-0.511,0.445-0.547,0.719-0.133,1.25
	C126.751,25.903,128.008,26.286,129.514,26.52z M99.005,78.605c0.037,0,0.075,0,0.111,0c0-0.077,0.004-0.153,0-0.23
	c-0.037-0.591-0.221-0.717-0.759-0.484c-0.267,0.115-0.561,0.229-0.755,0.429c-0.326,0.334-0.675,0.697-0.851,1.116
	c-0.527,1.261,0.146,2.023,1.575,2.134c0.455,0.035,0.666-0.165,0.674-0.618C99.017,80.17,99.005,79.388,99.005,78.605z
	 M115.086,32.068c-0.009-0.826-0.624-1.496-1.374-1.496c-0.768,0.001-1.399,0.701-1.387,1.537c0.013,0.813,0.643,1.501,1.381,1.506
	C114.459,33.62,115.095,32.908,115.086,32.068z M126.144,69.789c0.01-0.001,0.02-0.003,0.03-0.005
	c-0.038-0.302-0.039-0.614-0.122-0.903c-0.081-0.282-0.29-0.507-0.618-0.334c-0.997,0.525-1.496,1.357-1.469,2.493
	c0.008,0.361,0.172,0.558,0.543,0.608c0.776,0.106,1.525-0.458,1.588-1.219C126.115,70.216,126.128,70.002,126.144,69.789z
	 M155.23,35.747c-0.068,0.003-0.222,0.004-0.375,0.018c-1.354,0.129-1.654,0.71-0.982,1.901c0.351,0.621,0.977,0.698,1.415,0.133
	c0.259-0.334,0.454-0.726,0.635-1.112C156.273,35.942,156.125,35.727,155.23,35.747z M100.42,84.44
	c0.269,0.369,0.52,0.765,0.829,1.108c0.135,0.15,0.423,0.299,0.583,0.251c0.153-0.046,0.275-0.333,0.333-0.537
	c0.135-0.485,0.205-0.989,0.336-1.476c0.107-0.397,0.034-0.693-0.345-0.887c-0.368-0.189-0.955-0.173-1.112,0.107
	C100.805,83.428,100.651,83.896,100.42,84.44z M120.272,28.106c0.301-0.177,0.771-0.29,0.865-0.542
	c0.183-0.49,0.161-1.06,0.204-1.598c0.004-0.056-0.115-0.135-0.189-0.184c-0.428-0.278-0.971-0.125-1.187,0.369
	c-0.153,0.348-0.27,0.717-0.355,1.088C119.485,27.79,119.648,27.975,120.272,28.106z"/>
<path fill-rule="evenodd" clip-rule="evenodd" fill="#FFFFFF" d="M146.41,64.775c0.327,0.925,0.581,1.103,1.52,0.942
	c1.851-0.315,3.647-0.829,5.362-1.604c0.897-0.405,1.516-1.086,1.935-1.956c0.283-0.588,0.112-0.958-0.537-1.072
	c-1.639-0.289-3.177-0.125-4.48,1.063c-0.476,0.434-0.993,0.823-1.677,0.893c-1.022,0.105-1.803-0.357-2.406-1.101
	c-0.378-0.468-0.678-1.022-0.914-1.58c-0.271-0.643-0.024-0.96,0.668-1.004c0.214-0.013,0.431-0.024,0.645-0.007
	c0.985,0.076,1.738-0.416,2.441-1.008c0.341-0.287,0.356-0.609-0.035-0.941c-0.605-0.514-1.229-1.035-1.919-1.417
	c-1.342-0.74-2.736-1.385-4.108-2.071c-0.385-0.192-0.774-0.375-1.147-0.588c-0.54-0.31-0.723-0.853-0.489-1.37
	c0.226-0.497,0.743-0.723,1.323-0.473c0.645,0.277,1.258,0.635,1.876,0.975c0.94,0.519,1.873,1.052,2.809,1.578
	c0.08,0.046,0.163,0.088,0.247,0.125c1.058,0.475,1.39,0.333,1.819-0.742c0.353-0.882,0.713-1.762,1.094-2.633
	c0.362-0.828,0.322-1.55-0.452-2.129c-0.085-0.063-0.153-0.151-0.222-0.233c-0.447-0.528-0.378-0.894,0.233-1.204
	c0.214-0.108,0.439-0.196,0.768-0.341c-0.707-0.256-1.165-0.654-1.405-1.269c-0.033-0.085-0.09-0.171-0.093-0.258
	c-0.008-0.22-0.075-0.52,0.038-0.637c0.116-0.121,0.431-0.123,0.635-0.074c0.4,0.095,0.793,0.239,1.172,0.402
	c0.669,0.287,1.316,0.294,2.009,0.044c1.993-0.719,4.094-0.922,6.175-1.209c0.148-0.021,0.308-0.001,0.456,0.028
	c0.313,0.062,0.428,0.265,0.259,0.538c-0.202,0.324-0.445,0.622-0.68,0.923c-0.462,0.592-0.978,1.148-1.386,1.775
	c-0.44,0.675-0.231,1.07,0.565,1.064c1.05-0.008,2.075,0.056,3.095,0.341c0.28,0.079,0.671-0.048,0.948-0.198
	c0.399-0.217,0.74-0.541,1.137-0.842c-0.541-0.403-1.063-0.773-1.561-1.171c-0.298-0.238-0.576-0.508-0.831-0.793
	c-0.098-0.107-0.161-0.307-0.133-0.441c0.016-0.074,0.272-0.166,0.393-0.136c0.633,0.155,1.309,0.249,1.875,0.545
	c1.113,0.58,2.178,1.261,3.238,1.938c0.722,0.461,0.776,1.057,0.047,1.478c-1.042,0.601-2.159,1.08-3.273,1.541
	c-0.461,0.19-0.971,0.054-1.408-0.232c-0.309-0.202-0.618-0.402-0.938-0.585c-0.394-0.226-0.805-0.204-1.086,0.149
	c-0.957,1.197-1.916,2.397-2.8,3.648c-0.254,0.36-0.314,0.892-0.364,1.355c-0.063,0.593,0.25,0.914,0.852,0.861
	c0.512-0.044,1.034-0.159,1.515-0.338c1.408-0.525,2.79-1.115,4.196-1.644c0.47-0.176,0.976-0.274,1.473-0.352
	c0.489-0.076,0.732,0.116,0.622,0.576c-0.194,0.811-0.431,1.628-0.788,2.377c-0.31,0.651-1.015,0.819-1.694,0.841
	c-1.551,0.049-3.103,0.049-4.653,0.097c-1.166,0.035-2.331,0.111-3.496,0.171c-0.091,0.005-0.19,0.011-0.269,0.051
	c-0.145,0.073-0.384,0.167-0.389,0.26c-0.005,0.146,0.116,0.347,0.244,0.442c1.073,0.799,2.295,1.29,3.568,1.661
	c0.396,0.115,0.806,0.201,1.214,0.255c0.833,0.111,1.589-0.01,2.289-0.575c0.748-0.604,1.563-1.134,2.39-1.63
	c0.588-0.352,1.245-0.431,1.881-0.044c0.347,0.211,0.471,0.502,0.237,0.851c-0.669,0.994-0.565,1.973-0.065,3.004
	c0.538,1.109,0.692,2.323,0.719,3.54c0.038,1.781,0.021,3.564,0.02,5.346c0,0.275-0.039,0.551-0.075,0.825
	c-0.074,0.585-0.228,0.729-0.819,0.776c-0.138,0.011-0.276,0.008-0.415,0.001c-1.054-0.049-1.287-0.375-0.967-1.358
	c0.042-0.131,0.083-0.263,0.138-0.39c0.418-0.978,0.405-1.895-0.306-2.759c-0.199-0.241-0.307-0.564-0.42-0.864
	c-0.2-0.53-0.155-1.023,0.296-1.429c0.113-0.102,0.2-0.233,0.307-0.343c0.212-0.218,0.172-0.43-0.055-0.583
	c-0.927-0.626-1.829-1.3-2.807-1.837c-0.881-0.485-1.804-0.22-2.643,0.228c-2.289,1.219-4.564,2.465-6.85,3.691
	c-0.703,0.377-1.425,0.718-2.132,1.087c-0.803,0.419-0.919,0.775-0.549,1.6c0.51,1.138,0.672,1.169,1.601,0.333
	c0.513-0.463,1.025-0.927,1.564-1.359c0.161-0.128,0.409-0.148,0.617-0.218c0.038,0.217,0.116,0.436,0.106,0.65
	c-0.019,0.419-0.087,0.834-0.135,1.252c0.045,0.025,0.09,0.052,0.135,0.077c0.183-0.117,0.367-0.234,0.549-0.352
	c0.411-0.265,0.803-0.569,1.237-0.787c0.479-0.239,0.948-0.114,1.286,0.296c0.281,0.34,0.549,0.707,0.739,1.102
	c0.328,0.683,0.115,1.18-0.562,1.509c-0.193,0.095-0.399,0.172-0.572,0.294c-0.665,0.467-0.611,1.333,0.129,1.661
	c0.355,0.157,0.775,0.159,1.154,0.271c0.25,0.074,0.596,0.165,0.681,0.349c0.084,0.181-0.042,0.538-0.19,0.734
	c-0.585,0.783-1.409,1.273-2.29,1.654c-0.969,0.42-1.969,0.773-2.937,1.201c-0.415,0.183-0.811,0.44-1.159,0.732
	c-0.354,0.295-0.32,0.625,0.004,0.954c0.474,0.481,1.035,0.556,1.626,0.172c0.463-0.3,0.898-0.643,1.343-0.972
	c1.267-0.938,2.627-0.896,4.025-0.375c0.395,0.146,0.424,0.341,0.139,0.65c-0.156,0.17-0.356,0.31-0.472,0.501
	c-0.1,0.168-0.198,0.43-0.132,0.577c0.063,0.143,0.343,0.282,0.515,0.268c1.295-0.109,2.381-0.673,3.233-1.646
	c0.32-0.365,0.226-0.749-0.251-0.916c-0.617-0.217-0.7-0.653-0.684-1.194c0.021-0.708,0.215-1.36,0.615-1.945
	c0.328-0.48,0.765-0.793,1.357-0.853c0.717-0.073,1.433-0.171,2.152-0.2c0.263-0.01,0.533,0.149,0.8,0.23
	c-0.15,0.233-0.272,0.493-0.458,0.691c-0.24,0.257-0.544,0.451-0.798,0.696c-0.287,0.276-0.576,0.557-0.817,0.872
	c-0.467,0.607-0.542,1.271-0.106,1.925c0.401,0.6,0.354,1.188,0.036,1.781c-1.183,2.212-4.442,3.458-6.677,1.316
	c-0.48-0.46-0.984-0.543-1.545-0.223c-0.504,0.289-1.016,0.578-1.476,0.93c-0.469,0.36-0.469,0.67-0.114,1.146
	c0.47,0.629,0.481,0.854,0.041,1.528c-0.251,0.386-0.53,0.754-0.781,1.14c-0.4,0.615-0.337,1.207,0.276,1.606
	c0.423,0.275,0.939,0.426,1.431,0.57c0.345,0.101,0.599-0.088,0.665-0.458c0.14-0.799,0.632-1.326,1.273-1.779
	c1.269-0.897,2.531-1.795,4.058-2.216c1.021-0.282,1.911-0.036,2.69,0.656c0.375,0.333,0.379,0.634-0.001,0.967
	c-1.304,1.142-2.643,2.244-3.917,3.417c-2.09,1.925-6.143,2.086-8.386,0.009c-1.436-1.329-2.655-2.814-3.518-4.572
	c-0.185-0.377-0.302-0.809-0.35-1.227c-0.082-0.715,0.282-1.084,1.009-1.13c1.101-0.071,1.363-0.334,1.398-1.458
	c0.021-0.66-0.037-1.325,0.021-1.98c0.055-0.619,0.202-1.231,0.333-1.841c0.079-0.362,0.347-0.47,0.703-0.426
	c0.518,0.063,1.037,0.154,1.555,0.15c1.135-0.011,2.05-0.954,2.037-2.079c-0.001-0.112-0.202-0.31-0.317-0.314
	c-0.237-0.01-0.484,0.064-0.715,0.14c-0.568,0.185-1.134,0.379-1.694,0.59c-0.667,0.251-1.307,0.233-1.963-0.067
	c-0.799-0.365-0.89-0.324-1.43,0.355c-0.474,0.597-0.761,0.621-1.136-0.052c-0.647-1.165-1.251-2.357-1.804-3.569
	c-0.54-1.186-0.984-2.414-1.489-3.616c-0.124-0.295-0.069-0.458,0.189-0.645C144.724,66.063,145.557,65.418,146.41,64.775z"/>
<path fill-rule="evenodd" clip-rule="evenodd" fill="#FFFFFF" d="M134.36,76.669c-0.115-0.447-0.275-1.001-0.395-1.565
	c-0.065-0.312-0.095-0.64-0.079-0.957c0.023-0.473,0.306-0.722,0.768-0.618c0.472,0.105,0.952,0.263,1.368,0.502
	c1.011,0.58,1.979,1.233,2.98,1.83c0.311,0.185,0.666,0.314,1.018,0.41c0.628,0.171,1.127-0.045,1.335-0.657
	c0.205-0.603,0.376-1.243,0.408-1.875c0.055-1.063-0.85-2.017-1.937-2.141c-0.397-0.046-0.528-0.219-0.469-0.607
	c0.179-1.151,0.82-1.792,1.988-1.855c0.575-0.03,1.166,0.021,1.733,0.127c0.582,0.11,0.638,0.336,0.338,0.845
	c-0.186,0.316-0.358,0.642-0.537,0.964c-0.161,0.292-0.104,0.515,0.133,0.77c1.295,1.396,2.56,2.821,3.857,4.214
	c0.296,0.318,0.441,0.638,0.396,1.065c-0.1,0.959-0.124,1.931-0.298,2.876c-0.156,0.859-0.424,1.057-1.291,0.916
	c-1.1-0.179-2.19-0.457-3.259-0.779c-0.799-0.241-1.563-0.603-2.329-0.943c-0.391-0.174-0.745-0.194-1.073,0.084
	c-0.256,0.217-0.522,0.441-0.718,0.71c-1.173,1.618-2.706,2.841-4.325,3.967c-3.056,2.124-6.248,4.009-9.691,5.446
	c-1.31,0.547-2.688,0.734-4.086,0.811c-0.281,0.015-0.572-0.136-0.859-0.21c0.146-0.268,0.244-0.58,0.444-0.797
	c0.786-0.851,1.857-1.151,2.925-1.455c0.574-0.164,1.148-0.335,1.707-0.545c0.65-0.244,0.994-0.721,1.013-1.441
	c0.039-1.424,0.561-2.62,1.707-3.52c0.312-0.245,0.594-0.537,0.847-0.843c0.391-0.475,0.312-0.719-0.261-0.968
	c-0.842-0.367-1.21-0.99-1.063-1.762c0.065-0.342,0.229-0.551,0.583-0.614c1.328-0.237,2.655-0.473,3.98-0.725
	c0.586-0.112,1.165-0.268,1.749-0.393C133.417,76.84,133.867,76.763,134.36,76.669z"/>
<path fill-rule="evenodd" clip-rule="evenodd" fill="#FFFFFF" d="M144.257,119.486c-0.69-0.041-1.382-0.059-2.069-0.133
	c-0.219-0.024-0.542-0.151-0.599-0.31c-0.061-0.17,0.081-0.483,0.232-0.643c0.249-0.263,0.567-0.461,0.868-0.67
	c0.568-0.393,1.153-0.76,1.711-1.165c0.233-0.169,0.44-0.388,0.616-0.616c0.287-0.374,0.186-0.672-0.266-0.798
	c-0.725-0.203-1.464-0.219-2.182,0.015c-1.24,0.404-2.351,1.048-3.342,1.896c-0.162,0.138-0.303,0.307-0.427,0.48
	c-0.343,0.481-0.346,0.777-0.016,1.263c0.242,0.356,0.527,0.685,0.734,1.06c0.102,0.185,0.168,0.54,0.069,0.646
	c-0.123,0.131-0.491,0.185-0.659,0.097c-0.619-0.328-1.202-0.725-1.792-1.105c-0.141-0.091-0.26-0.215-0.386-0.328
	c-0.232-0.209-0.44-0.19-0.695-0.002c-0.8,0.592-1.097,0.583-1.823-0.112c-0.328-0.314-0.609-0.688-0.857-1.071
	c-0.201-0.309-0.416-0.441-0.759-0.29c-0.532,0.235-1.083,0.438-1.583,0.726c-0.83,0.478-1.683,0.6-2.558,0.231
	c-1.299-0.547-2.583-1.132-3.861-1.727c-0.977-0.455-1.952-0.929-3.043-0.993c-0.586-0.034-1.187,0.036-1.77,0.13
	c-0.279,0.045-0.44,0.017-0.558-0.228c-0.113-0.235-0.232-0.467-0.334-0.708c-1.035-2.437-2.448-4.637-4.143-6.666
	c-0.163-0.194-0.23-0.468-0.341-0.705c0.248-0.035,0.499-0.111,0.744-0.097c1.312,0.075,2.5,0.596,3.699,1.063
	c0.957,0.373,1.915,0.751,2.843,1.19c0.744,0.351,1.516,0.487,2.318,0.5c0.628,0.009,1.262,0.005,1.886-0.059
	c1.044-0.107,1.957,0.162,2.831,0.735c1.36,0.89,2.762,1.717,4.137,2.588c0.932,0.589,1.911,0.941,3.035,0.811
	c0.67-0.077,1.281,0.109,1.796,0.551c0.434,0.371,0.855,0.347,1.291,0.015c0.109-0.083,0.237-0.141,0.351-0.22
	c1.149-0.795,2.366-1.302,3.82-1.219c1.317,0.075,2.541-0.347,3.66-1.056c0.245-0.155,0.511-0.283,0.78-0.39
	c0.452-0.18,0.93-0.036,1.145,0.391c0.068,0.135,0.004,0.427-0.108,0.543c-0.241,0.252-0.56,0.426-0.833,0.649
	c-0.308,0.252-0.634,0.494-0.892,0.792c-0.468,0.539-0.312,0.953,0.403,1.027c0.53,0.054,1.083,0.062,1.606-0.025
	c0.994-0.166,1.235,0.208,0.979,1.185c-0.083,0.315-0.281,0.614-0.479,0.882c-0.928,1.257-2.154,1.925-3.75,1.846
	c-0.475-0.023-0.952-0.003-1.429-0.003C144.257,119.469,144.257,119.477,144.257,119.486z M120.382,112.748
	c0.111,0.296,0.186,0.613,0.341,0.884c0.233,0.409,0.649,0.548,1.068,0.348c0.772-0.37,1.344-0.96,1.667-1.755
	c0.203-0.5,0.002-0.835-0.527-0.955c-0.296-0.067-0.604-0.1-0.908-0.112C121.098,111.123,120.435,111.788,120.382,112.748z
	 M130.766,116.129c0.018-0.03,0.037-0.059,0.055-0.089c0.259-0.027,0.519-0.052,0.777-0.083c0.614-0.073,0.718-0.302,0.369-0.808
	c-0.34-0.491-0.691-0.974-1.018-1.475c-0.219-0.336-0.44-0.583-0.895-0.393c-0.489,0.206-0.8,0.589-0.665,1.015
	c0.146,0.46,0.347,0.921,0.617,1.318C130.166,115.85,130.506,115.962,130.766,116.129z"/>
<path fill-rule="evenodd" clip-rule="evenodd" fill="#FFFFFF" d="M150.485,102.153c0.558,0.191,1.176,0.287,1.662,0.592
	c1.123,0.705,2.241,0.776,3.473,0.354c0.58-0.199,1.219-0.25,1.836-0.314c0.38-0.039,0.536,0.219,0.414,0.571
	c-0.146,0.418-0.332,0.823-0.509,1.229c-0.357,0.814-0.756,1.611-1.074,2.44c-0.573,1.495-0.327,2.348,0.894,3.373
	c0.593,0.498,0.657,0.775,0.302,1.477c-0.181,0.355-0.396,0.692-0.591,1.04c-0.3,0.532-0.775,0.832-1.348,0.957
	c-0.733,0.16-1.472,0.306-2.216,0.395c-0.517,0.063-1.033-0.034-1.292-0.582c-0.271-0.571-0.354-1.135,0.122-1.669
	c0.274-0.309,0.538-0.634,0.75-0.986c0.307-0.51,0.227-0.841-0.253-1.187c-0.398-0.286-0.825-0.533-1.229-0.812
	c-0.583-0.405-0.656-0.743-0.34-1.37c0.172-0.341,0.346-0.684,0.479-1.042c0.124-0.326,0.013-0.607-0.294-0.788
	c-0.318-0.186-0.646-0.25-0.916,0.067c-0.258,0.303-0.486,0.631-0.723,0.952c-0.466,0.633-0.869,0.634-1.357,0.042
	c-0.447-0.544-0.933-1.059-1.395-1.591c-0.473-0.546-0.477-0.838,0.117-1.249c0.855-0.591,1.75-1.131,2.65-1.655
	c0.223-0.13,0.531-0.116,0.799-0.167C150.458,102.204,150.471,102.179,150.485,102.153z"/>
<path fill-rule="evenodd" clip-rule="evenodd" fill="#FFFFFF" d="M117.692,97.63c0.376-0.185,0.708-0.297,0.984-0.491
	c1.883-1.323,3.757-2.66,5.63-4c0.986-0.707,1.949-1.446,2.948-2.134c0.68-0.468,1.464-0.348,2.221-0.232
	c0.092,0.015,0.229,0.254,0.216,0.374c-0.204,1.759-0.812,3.348-2.368,4.326c-1.542,0.97-3.16,1.822-4.766,2.686
	c-0.876,0.472-1.78,0.905-2.703,1.277c-1.366,0.549-2.319,1.52-3.045,2.757c-0.42,0.715-0.807,1.449-1.254,2.146
	c-0.639,0.999-1.57,1.355-2.609,1.022c-0.237-0.077-0.494-0.215-0.65-0.401c-0.351-0.419-0.523-0.728,0.153-1.071
	c0.601-0.305,1.166-0.682,1.751-1.018c0.65-0.372,0.977-0.933,1.076-1.67c0.229-1.703,0.483-3.402,0.734-5.102
	c0.031-0.211,0.087-0.422,0.167-0.619c0.196-0.484,0.601-0.583,0.913-0.167c0.237,0.315,0.377,0.724,0.481,1.113
	C117.663,96.772,117.648,97.148,117.692,97.63z"/>
<path fill-rule="evenodd" clip-rule="evenodd" fill="#FFFFFF" d="M132.846,52.444c-0.341-0.312-0.717-0.572-0.98-0.917
	c-0.288-0.378-0.53-0.816-0.683-1.265c-0.131-0.388,0.146-0.79,0.527-0.828c1.157-0.115,2.319-0.278,3.475,0.042
	c0.601,0.167,1.032,0.509,1.257,1.105c0.205,0.544,0.446,1.076,0.646,1.622c0.247,0.67,0.116,1.292-0.28,1.877
	c-0.497,0.736-0.988,1.477-1.465,2.227c-0.648,1.018-2.149,1.678-3.353,1.456c-0.517-0.096-0.682-0.384-0.516-0.903
	c0.344-1.073,0.344-1.073-0.554-1.743c-0.401-0.301-0.439-0.537-0.056-0.902C131.474,53.636,132.117,53.092,132.846,52.444z"/>
<path fill-rule="evenodd" clip-rule="evenodd" fill="#FFFFFF" d="M103.771,63.704c1.087-0.164,2.187-0.271,3.258-0.506
	c1.307-0.287,2.358,0.18,3.309,0.971c0.563,0.47,0.485,1.054-0.162,1.407c-1.307,0.71-2.603,1.455-3.958,2.06
	c-2.338,1.042-3.827,0.075-4.854-1.826c-0.626-1.161,0.02-2.185,1.327-2.23c0.353-0.012,0.706-0.001,1.06-0.001
	C103.758,63.62,103.764,63.663,103.771,63.704z"/>
<path fill-rule="evenodd" clip-rule="evenodd" fill="#FFFFFF" d="M125.018,103.717c0.473,0.162,0.953,0.305,1.416,0.493
	c0.252,0.102,0.48,0.271,0.711,0.423c0.591,0.389,1.188,0.399,1.837,0.122c0.431-0.185,0.893-0.355,1.354-0.398
	c0.783-0.073,1.5,1.085,1.134,1.792c-0.073,0.142-0.267,0.25-0.429,0.313c-1.739,0.681-3.482,1.354-5.228,2.017
	c-0.141,0.053-0.336,0.066-0.474,0.013c-1.357-0.528-2.452-1.436-3.489-2.429c-0.309-0.297-0.3-0.537,0.034-0.79
	c0.134-0.103,0.289-0.199,0.379-0.334c0.659-0.989,1.623-1.22,2.746-1.08C125.011,103.811,125.015,103.763,125.018,103.717z"/>
<path fill-rule="evenodd" clip-rule="evenodd" fill="#FFFFFF" d="M143.85,88.604c-0.287,0.999-0.643,1.81-1.22,2.497
	c-0.25,0.297-0.725,0.169-0.846-0.225c-0.106-0.344-0.123-0.72-0.154-1.084c-0.037-0.436-0.095-0.857-0.458-1.161
	c-0.287-0.241-0.538-0.202-0.628,0.158c-0.11,0.442-0.148,0.905-0.187,1.361c-0.053,0.626-0.239,0.849-0.87,0.782
	c-1.701-0.18-3.229-0.832-4.571-1.879c-0.427-0.333-0.708-0.809-0.663-1.402c0.037-0.487,0.307-0.723,0.766-0.582
	c0.373,0.114,0.742,0.292,1.061,0.515c0.718,0.501,0.954,0.524,1.698,0.048c0.528-0.338,1.046-0.7,1.6-0.99
	c0.83-0.434,1.647-0.382,2.421,0.185c0.458,0.335,0.962,0.61,1.397,0.97C143.472,88.024,143.657,88.358,143.85,88.604z"/>
<path fill-rule="evenodd" clip-rule="evenodd" fill="#FFFFFF" d="M115.513,44.315c-0.686,0.353-1.32,0.65-1.925,0.999
	c-1.126,0.648-2.246,1.311-3.35,1.997c-1.049,0.653-2.125,1.177-3.408,0.966c-0.917-0.15-1.276-0.746-0.739-1.455
	c1.571-2.071,3.483-3.65,6.28-3.582C113.484,43.267,114.526,43.607,115.513,44.315z"/>
<path fill-rule="evenodd" clip-rule="evenodd" fill="#FFFFFF" d="M165.683,106.533c-0.035,0.32-0.045,0.646-0.11,0.96
	c-0.082,0.399-0.323,0.512-0.676,0.306c-0.303-0.176-0.601-0.382-0.849-0.627c-1.17-1.154-2.322-2.325-3.479-3.492
	c-0.106-0.108-0.201-0.231-0.294-0.353c-0.564-0.732-0.474-1.498,0.242-2.076c0.682-0.551,1.92-0.481,2.479,0.195
	c0.912,1.1,1.77,2.247,2.325,3.577c0.199,0.474,0.293,0.99,0.435,1.486C165.732,106.517,165.707,106.525,165.683,106.533z"/>
<path fill-rule="evenodd" clip-rule="evenodd" fill="#FFFFFF" d="M152.858,94.491c0.081,0.488,0.16,0.925,0.224,1.364
	c0.231,1.598-0.578,2.728-2.175,3.045c-0.648,0.129-0.791,0.069-0.822-0.596c-0.042-0.894-0.502-1.494-1.198-1.953
	c-1.049-0.691-2.117-1.354-3.171-2.039c-0.333-0.216-0.662-0.446-0.961-0.706c-0.122-0.105-0.161-0.306-0.238-0.463
	c0.165-0.058,0.333-0.175,0.494-0.166c1.063,0.062,2.096,0.256,3.037,0.798c0.704,0.406,1.411,0.804,2.113,1.213
	c0.394,0.229,0.742,0.209,1.089-0.105C151.7,94.477,152.235,94.357,152.858,94.491z"/>
<path fill-rule="evenodd" clip-rule="evenodd" fill="#FFFFFF" d="M157.521,95.737c0.142-1.484-0.028-2.491-0.804-3.343
	c-0.242-0.266-0.413-0.612-0.561-0.944c-0.184-0.418,0.007-0.708,0.462-0.706c0.572,0.004,1.094,0.148,1.396,0.712
	c0.788,1.472,1.66,2.906,2.335,4.427c0.333,0.752,0.427,1.667,0.408,2.504c-0.022,0.997-0.751,1.268-1.501,0.605
	C158.171,98.035,157.243,96.971,157.521,95.737z"/>
<path fill-rule="evenodd" clip-rule="evenodd" fill="#FFFFFF" d="M149.107,110.996c-0.231-0.12-0.492-0.206-0.688-0.368
	c-0.773-0.64-1.646-0.8-2.537-0.399c-0.862,0.387-1.675,0.889-2.487,1.378c-0.645,0.387-1.304,0.516-2.023,0.294
	c-0.49-0.15-0.577-0.385-0.303-0.821c0.097-0.154,0.208-0.309,0.34-0.434c0.703-0.663,1.402-1.332,2.128-1.969
	c0.863-0.758,1.837-0.916,2.911-0.472c0.878,0.363,1.767,0.697,2.651,1.046c0.142,0.057,0.281,0.122,0.415,0.198
	c0.36,0.202,0.711,0.431,0.588,0.922C149.979,110.861,149.564,110.903,149.107,110.996z"/>
<path fill-rule="evenodd" clip-rule="evenodd" fill="#FFFFFF" d="M146.691,98.974c-0.083,0.828-0.677,1.304-1.429,1.056
	c-0.429-0.142-0.817-0.407-1.221-0.622c-0.352-0.187-0.685-0.415-1.051-0.564c-0.421-0.172-0.56-0.056-0.661,0.389
	c-0.106,0.462-0.2,0.933-0.369,1.373c-0.242,0.63-0.63,0.825-1.238,0.533c-0.5-0.239-0.956-0.605-1.357-0.992
	c-0.127-0.122-0.12-0.576,0.006-0.735c0.55-0.697,1.141-1.366,1.771-1.991c0.208-0.205,0.572-0.315,0.877-0.347
	c0.7-0.072,1.409-0.071,2.115-0.096c0.092-0.003,0.202-0.014,0.272,0.029c0.646,0.393,1.308,0.767,1.915,1.214
	C146.521,98.369,146.572,98.717,146.691,98.974z"/>
<path fill-rule="evenodd" clip-rule="evenodd" fill="#FFFFFF" d="M122.421,41.713c0.376-0.062,0.71,0.144,1.025,0.451
	c0.625,0.612,1.268,1.206,1.909,1.802c0.629,0.585,0.818,1.117,0.434,1.891c-0.307,0.619-0.782,1.157-1.209,1.71
	c-0.217,0.281-0.501,0.141-0.682-0.05c-0.355-0.379-0.714-0.768-0.989-1.204c-0.515-0.817-1.025-1.645-1.428-2.519
	c-0.19-0.414-0.202-0.952-0.157-1.42C121.376,41.839,121.684,41.691,122.421,41.713z"/>
<path fill-rule="evenodd" clip-rule="evenodd" fill="#FFFFFF" d="M140.027,57.722c0.673,0.123,1.281,0.205,1.875,0.348
	c0.438,0.105,0.508,0.311,0.214,0.655c-0.316,0.371-0.689,0.694-1.05,1.025c-0.384,0.352-0.801,0.669-1.17,1.036
	c-0.56,0.556-0.564,1.063-0.053,1.656c0.19,0.221,0.402,0.423,0.582,0.651c0.27,0.341,0.283,0.704,0.018,1.056
	c-0.246,0.328-0.706,0.469-1.07,0.267c-0.287-0.159-0.564-0.378-0.772-0.631c-0.555-0.672-0.948-1.448-1.038-2.317
	c-0.04-0.385,0.051-0.851,0.249-1.181c0.485-0.811,1.049-1.578,1.623-2.332C139.551,57.802,139.851,57.788,140.027,57.722z"/>
<path fill-rule="evenodd" clip-rule="evenodd" fill="#FFFFFF" d="M137.255,105.677c0.042-0.159,0.112-0.425,0.186-0.69
	c0.2-0.719,0.379-1.447,0.618-2.154c0.07-0.207,0.307-0.501,0.476-0.507c1.023-0.034,2.05,0.002,3.075,0.024
	c0.085,0.002,0.174,0.06,0.251,0.108c0.607,0.384,0.903,1.951,0.495,2.536c-0.341,0.488-0.674,0.983-0.984,1.491
	c-0.167,0.272-0.359,0.332-0.517,0.065c-0.258-0.441-0.495-0.905-0.666-1.387c-0.189-0.536-0.286-0.61-0.76-0.271
	c-0.548,0.391-1.056,0.84-1.614,1.217C137.438,106.366,137.233,106.227,137.255,105.677z"/>
<path fill-rule="evenodd" clip-rule="evenodd" fill="#FFFFFF" d="M111.639,91.272c1.001,0.208,2.085,0.401,3.151,0.67
	c0.677,0.171,0.797,0.646,0.273,1.107c-0.793,0.697-1.64,1.333-2.48,1.973c-0.367,0.28-0.783,0.236-1.173,0.022
	c-0.946-0.519-1.563-1.321-1.902-2.329c-0.168-0.499,0.038-0.931,0.551-1.105C110.53,91.45,111.037,91.396,111.639,91.272z"/>
<path fill-rule="evenodd" clip-rule="evenodd" fill="#FFFFFF" d="M133.936,94.115c0.625,0.133,1.255,0.249,1.874,0.407
	c0.711,0.181,1.415,0.397,2.121,0.603c0.206,0.06,0.416,0.114,0.611,0.202c0.378,0.169,0.382,0.293,0.1,0.602
	c-1.017,1.114-2.276,1.219-3.639,0.885c-0.8-0.196-1.569-0.563-2.426-0.413c-0.255,0.046-0.508,0.11-0.763,0.165
	c-0.536,0.115-0.828-0.126-0.817-0.675c0.012-0.661,0.792-1.513,1.45-1.576c0.489-0.046,0.979-0.082,1.468-0.123
	C133.921,94.165,133.928,94.139,133.936,94.115z"/>
<path fill-rule="evenodd" clip-rule="evenodd" fill="#FFFFFF" d="M106.416,72.688c-0.783,0-1.565-0.007-2.348,0.003
	c-0.294,0.004-0.392-0.117-0.415-0.405c-0.11-1.351,0.081-1.618,1.407-1.938c1.009-0.244,2.001-0.284,2.968,0.176
	c0.797,0.38,1.183,0.996,1.164,1.816c-0.008,0.338-0.145,0.458-0.475,0.451c-0.767-0.014-1.534-0.004-2.301-0.004
	C106.416,72.754,106.416,72.721,106.416,72.688z"/>
<path fill-rule="evenodd" clip-rule="evenodd" fill="#FFFFFF" d="M112.177,50.186c-0.597-0.117-1.217-0.171-1.789-0.366
	c-0.823-0.28-0.862-0.907-0.284-1.535c1.299-1.41,2.811-1.075,4.347-0.626c0.439,0.128,0.598,0.493,0.53,0.95
	c-0.141,0.943-0.375,1.187-1.325,1.355c-0.167,0.029-0.333,0.058-0.5,0.075c-0.32,0.032-0.642,0.055-0.963,0.082
	C112.187,50.143,112.182,50.165,112.177,50.186z"/>
<path fill-rule="evenodd" clip-rule="evenodd" fill="#FFFFFF" d="M127.978,62.744c-0.255-0.982-0.301-1.786,0.461-2.467
	c0.716-0.642,1.485-0.824,2.183-0.182c0.916,0.842,1.921,1.119,3.109,1.025c0.23-0.018,0.475,0.146,0.712,0.227
	c-0.127,0.211-0.222,0.451-0.388,0.625c-0.285,0.298-0.603,0.568-0.926,0.826c-0.461,0.366-0.877,0.391-1.344,0.038
	c-0.326-0.248-0.62-0.548-0.891-0.856c-0.53-0.605-1.063-0.7-1.72-0.234c-0.26,0.185-0.479,0.428-0.722,0.638
	C128.322,62.495,128.178,62.593,127.978,62.744z"/>
<path fill-rule="evenodd" clip-rule="evenodd" fill="#FFFFFF" d="M133.762,110.05c-0.104,0.392-0.169,0.74-0.299,1.063
	c-0.038,0.093-0.291,0.19-0.394,0.151c-0.713-0.271-1.468-0.492-2.097-0.902c-0.4-0.26-0.617-0.811-0.89-1.247
	c-0.043-0.067,0.019-0.244,0.086-0.329c0.455-0.576,0.896-1.166,1.396-1.703c0.404-0.436,0.655-0.355,0.927,0.181
	c0.332,0.654,0.694,1.293,1.013,1.953C133.635,109.487,133.686,109.795,133.762,110.05z"/>
<path fill-rule="evenodd" clip-rule="evenodd" fill="#FFFFFF" d="M153.125,115.897c0.618,0.087,1.247,0.13,1.851,0.273
	c0.547,0.129,0.648,0.484,0.238,0.86c-0.663,0.608-1.363,1.182-2.089,1.714c-0.443,0.324-1.513,0.182-1.896-0.217
	c-0.15-0.156-0.278-0.44-0.246-0.64c0.073-0.463,0.221-0.92,0.392-1.359c0.145-0.369,0.454-0.565,0.868-0.562
	c0.291,0.001,0.582,0,0.873,0C153.119,115.944,153.122,115.92,153.125,115.897z"/>
<path fill-rule="evenodd" clip-rule="evenodd" fill="#FFFFFF" d="M159.802,72.736c-0.086-1.085,0.761-1.771,1.614-2.438
	c0.273-0.214,1.106-0.039,1.423,0.25c0.411,0.375,0.423,0.877,0.226,1.312c-0.177,0.384-0.482,0.754-0.822,1.007
	c-0.435,0.324-0.946,0.56-1.451,0.769C160.055,73.939,159.768,73.71,159.802,72.736z"/>
<path fill-rule="evenodd" clip-rule="evenodd" fill="#FFFFFF" d="M140.68,47.103c-0.052,0.476-0.057,0.851-0.15,1.203
	c-0.043,0.164-0.247,0.385-0.397,0.401c-0.392,0.043-0.812,0.052-1.185-0.052c-0.237-0.067-0.503-0.324-0.596-0.559
	c-0.286-0.724-0.204-1.481,0.007-2.214c0.032-0.11,0.243-0.226,0.38-0.24c0.396-0.038,0.798-0.019,1.196-0.036
	c0.424-0.019,0.624,0.223,0.678,0.597C140.662,46.535,140.664,46.873,140.68,47.103z"/>
<path fill-rule="evenodd" clip-rule="evenodd" fill="#FFFFFF" d="M153.947,99.585c0.488,0.209,1.042,0.418,1.562,0.693
	c0.114,0.061,0.189,0.375,0.142,0.529c-0.141,0.45-0.358,0.875-0.535,1.315c-0.127,0.316-0.337,0.381-0.618,0.214
	c-0.63-0.376-1.266-0.746-1.877-1.151c-0.409-0.27-0.394-0.479,0.002-0.773c0.307-0.228,0.62-0.448,0.937-0.663
	C153.641,99.694,153.746,99.669,153.947,99.585z"/>
<path fill-rule="evenodd" clip-rule="evenodd" fill="#FFFFFF" d="M133.864,100.455c0.603-0.278,1.108-0.527,1.628-0.737
	c0.121-0.049,0.321-0.01,0.44,0.063c0.338,0.203,0.665,0.429,0.973,0.675c0.213,0.169,0.587,0.467,0.546,0.568
	c-0.126,0.313-0.384,0.742-0.652,0.791c-0.633,0.116-1.305,0.07-1.954,0.013c-0.157-0.014-0.298-0.32-0.426-0.505
	C134.224,101.039,134.045,100.742,133.864,100.455z"/>
<path fill-rule="evenodd" clip-rule="evenodd" fill="#FFFFFF" d="M127.761,48.177c0.063,0.712,0.132,1.365,0.175,2.019
	c0.023,0.36-0.144,0.648-0.536,0.551c-0.527-0.13-1.069-0.288-1.538-0.553c-0.602-0.339-0.604-0.897-0.069-1.35
	C126.34,48.379,126.998,48.214,127.761,48.177z"/>
<path fill-rule="evenodd" clip-rule="evenodd" fill="#FFFFFF" d="M128.11,53.042c-0.367,0-0.736,0.018-1.102-0.005
	c-0.328-0.021-0.499-0.185-0.287-0.515c0.462-0.717,1.092-1.243,1.897-1.527c0.416-0.147,0.691,0.024,0.801,0.443
	c0.086,0.325,0.152,0.656,0.221,0.985c0.073,0.349-0.089,0.536-0.428,0.552c-0.367,0.017-0.735,0.004-1.104,0.004
	C128.11,52.999,128.11,53.02,128.11,53.042z"/>
<path fill-rule="evenodd" clip-rule="evenodd" fill="#FFFFFF" d="M131.283,76.584c-0.342-0.109-0.81-0.25-1.27-0.414
	c-0.084-0.03-0.195-0.161-0.189-0.236c0.028-0.347,0.044-0.709,0.167-1.027c0.051-0.132,0.354-0.174,0.546-0.245
	c0.114-0.042,0.237-0.063,0.357-0.088c0.597-0.128,1.107,0.071,1.451,0.569c0.026,0.037,0.05,0.078,0.063,0.121
	C132.533,75.647,131.829,76.584,131.283,76.584z"/>
<path fill-rule="evenodd" clip-rule="evenodd" fill="#FFFFFF" d="M131.242,46.747c-0.015,0.509-0.642,1.08-1.16,1.056
	c-0.414-0.019-0.913-0.495-0.89-0.85c0.022-0.346,0.776-1.014,1.146-1.015C130.799,45.938,131.254,46.345,131.242,46.747z"/>
<path fill-rule="evenodd" clip-rule="evenodd" fill="#FFFFFF" d="M137.056,109.134c-0.513,0.224-0.99,0.458-1.488,0.631
	c-0.115,0.04-0.387-0.086-0.439-0.203c-0.117-0.259-0.14-0.56-0.201-0.844c-0.122-0.578,0.26-0.923,0.848-0.767
	C136.194,108.063,136.816,108.637,137.056,109.134z"/>
<path fill-rule="evenodd" clip-rule="evenodd" fill="#FFFFFF" d="M139.033,107.431c0.276,0.743,0.515,1.38,0.74,1.985
	c-0.344,0.169-0.675,0.353-1.023,0.488c-0.105,0.042-0.363-0.021-0.379-0.083c-0.087-0.33-0.243-0.717-0.144-1.003
	C138.391,108.341,138.732,107.926,139.033,107.431z"/>
<path fill-rule="evenodd" clip-rule="evenodd" fill="#FFFFFF" d="M141.564,61.957c0.251-0.506,0.502-1.01,0.772-1.556
	c0.281,0.167,0.512,0.284,0.721,0.431c0.517,0.361,0.523,0.768-0.051,1.041c-0.39,0.185-0.859,0.205-1.293,0.299
	C141.664,62.1,141.614,62.028,141.564,61.957z"/>
<path fill-rule="evenodd" clip-rule="evenodd" fill="#FFFFFF" d="M110.974,27.101c0.02-0.407-0.01-0.869-0.589-1.114
	c-0.294-0.124-0.514-0.117-0.766,0.059c-0.338,0.238-0.674,0.487-1.04,0.672c-0.556,0.283-0.852,0.094-0.877-0.517
	c-0.006-0.169-0.004-0.339,0.011-0.507c0.12-1.282,1.014-1.756,2.134-1.133c0.832,0.461,1.659,0.931,2.496,1.382
	c0.295,0.159,0.608,0.294,0.926,0.403c0.707,0.241,1.007,0.127,1.296-0.453c0.322-0.646,0.236-1.1-0.36-1.463
	c-0.393-0.239-0.406-0.445-0.091-0.735c0.248-0.228,0.464-0.502,0.743-0.679c0.506-0.324,0.808-0.161,0.88,0.434
	c0.036,0.289,0.038,0.582,0.064,0.873c0.051,0.545,0.19,0.673,0.747,0.722c0.26,0.023,0.521,0.041,0.775,0.094
	c0.471,0.097,0.641,0.366,0.465,0.8c-0.465,1.139-1.158,2.124-2.098,2.925c-0.344,0.293-0.727,0.322-1.11,0.096
	c-0.342-0.203-0.678-0.419-0.993-0.663c-0.433-0.336-0.893-0.458-1.421-0.296c-0.044,0.013-0.091,0.016-0.136,0.026
	C111.045,28.255,110.959,28.188,110.974,27.101z"/>
<path fill-rule="evenodd" clip-rule="evenodd" fill="#FFFFFF" d="M120.266,34.547c-0.046,1.461-1.142,2.168-2.415,1.566
	c-0.572-0.27-1.104-0.658-1.579-1.078c-0.235-0.208-0.397-0.6-0.427-0.923c-0.126-1.383,0.714-2.07,2.211-1.734
	c0.604,0.135,1.179,0.491,1.708,0.837C120.24,33.526,120.324,34.068,120.266,34.547z"/>
<path fill-rule="evenodd" clip-rule="evenodd" fill="#FFFFFF" d="M129.514,26.52c-1.506-0.234-2.762-0.617-3.645-1.753
	c-0.414-0.532-0.378-0.806,0.133-1.25c0.81-0.705,1.387-0.816,2.282-0.226c0.64,0.421,1.171,1.007,1.743,1.528
	c0.087,0.08,0.171,0.198,0.189,0.31c0.053,0.346,0.206,0.767,0.069,1.024C130.163,26.385,129.707,26.438,129.514,26.52z"/>
<path fill-rule="evenodd" clip-rule="evenodd" fill="#FFFFFF" d="M99.005,78.605c0,0.782,0.012,1.565-0.004,2.346
	c-0.009,0.454-0.219,0.653-0.674,0.618c-1.429-0.111-2.102-0.873-1.575-2.134c0.176-0.419,0.525-0.782,0.851-1.116
	c0.194-0.199,0.488-0.314,0.755-0.429c0.538-0.232,0.723-0.106,0.759,0.484c0.004,0.077,0,0.153,0,0.23
	C99.08,78.605,99.042,78.605,99.005,78.605z"/>
<path fill-rule="evenodd" clip-rule="evenodd" fill="#FFFFFF" d="M115.086,32.068c0.009,0.839-0.627,1.552-1.38,1.547
	c-0.738-0.005-1.368-0.693-1.381-1.506c-0.012-0.836,0.619-1.535,1.387-1.537C114.462,30.572,115.077,31.242,115.086,32.068z"/>
<path fill-rule="evenodd" clip-rule="evenodd" fill="#FFFFFF" d="M126.144,69.789c-0.016,0.213-0.029,0.427-0.047,0.641
	c-0.063,0.761-0.812,1.325-1.588,1.219c-0.371-0.051-0.535-0.247-0.543-0.608c-0.027-1.136,0.472-1.968,1.469-2.493
	c0.328-0.173,0.538,0.052,0.618,0.334c0.083,0.289,0.084,0.601,0.122,0.903C126.164,69.786,126.153,69.788,126.144,69.789z"/>
<path fill-rule="evenodd" clip-rule="evenodd" fill="#FFFFFF" d="M155.23,35.747c0.894-0.021,1.042,0.195,0.692,0.94
	c-0.181,0.386-0.375,0.777-0.635,1.112c-0.438,0.564-1.064,0.487-1.415-0.133c-0.672-1.19-0.372-1.772,0.982-1.901
	C155.008,35.751,155.162,35.75,155.23,35.747z"/>
<path fill-rule="evenodd" clip-rule="evenodd" fill="#FFFFFF" d="M100.42,84.44c0.231-0.544,0.385-1.012,0.623-1.433
	c0.157-0.28,0.744-0.296,1.112-0.107c0.379,0.194,0.452,0.49,0.345,0.887c-0.131,0.487-0.202,0.99-0.336,1.476
	c-0.057,0.204-0.179,0.491-0.333,0.537c-0.16,0.047-0.447-0.102-0.583-0.251C100.94,85.206,100.689,84.809,100.42,84.44z"/>
<path fill-rule="evenodd" clip-rule="evenodd" fill="#FFFFFF" d="M120.272,28.106c-0.625-0.131-0.788-0.316-0.662-0.866
	c0.085-0.372,0.202-0.741,0.355-1.088c0.216-0.494,0.759-0.647,1.187-0.369c0.074,0.049,0.194,0.127,0.189,0.184
	c-0.043,0.538-0.021,1.107-0.204,1.598C121.043,27.816,120.574,27.929,120.272,28.106z"/>
<path fill-rule="evenodd" clip-rule="evenodd" fill="#FFFFFF" d="M120.382,112.748c0.053-0.96,0.716-1.625,1.64-1.591
	c0.304,0.012,0.612,0.044,0.908,0.112c0.529,0.12,0.73,0.456,0.527,0.955c-0.322,0.795-0.895,1.386-1.667,1.755
	c-0.418,0.201-0.835,0.062-1.068-0.348C120.568,113.361,120.493,113.044,120.382,112.748z"/>
<path fill-rule="evenodd" clip-rule="evenodd" fill="#FFFFFF" d="M130.766,116.129c-0.259-0.167-0.6-0.279-0.759-0.515
	c-0.271-0.397-0.471-0.858-0.617-1.318c-0.135-0.426,0.176-0.81,0.665-1.015c0.454-0.19,0.675,0.057,0.895,0.393
	c0.327,0.5,0.678,0.984,1.018,1.475c0.349,0.506,0.245,0.735-0.369,0.808c-0.259,0.031-0.519,0.056-0.777,0.083
	C130.803,116.07,130.784,116.1,130.766,116.129z"/>
<g>
	<polygon fill-rule="evenodd" clip-rule="evenodd" fill="#FFFFFF" points="209.346,28.788 209.346,36.916 209.346,64.467 
		209.346,90.212 209.346,126.344 209.346,134.137 209.346,152.088 311.872,152.088 311.872,126.344 235.09,126.344 235.09,90.212 
		305.549,90.212 305.549,64.467 235.09,64.467 235.09,36.916 311.872,36.916 311.872,11.171 209.346,11.171 	"/>
	<polygon fill-rule="evenodd" clip-rule="evenodd" fill="#FFFFFF" points="558.686,12.076 516.657,120.108 474.63,12.076 
		447.006,12.076 501.135,151.215 501.146,151.21 501.146,151.297 532.253,151.297 532.253,151.025 586.309,12.076 	"/>
	<polygon fill-rule="evenodd" clip-rule="evenodd" fill="#FFFFFF" points="325.31,152.154 325.31,152.03 325.268,152.138 	"/>
	<path fill-rule="evenodd" clip-rule="evenodd" fill="#FFFFFF" d="M410.56,12.671v-0.087h-31.108v0.272l-54.009,138.835h27.623
		l12.386-31.839h59.194l12.386,31.839h27.624L410.571,12.667L410.56,12.671z M373.885,98.173l21.164-54.401l21.164,54.401H373.885z"
		/>
</g>
</svg>
