<?xml version="1.0" encoding="utf-8"?>
<!-- Generator: Adobe Illustrator 19.0.0, SVG Export Plug-In . SVG Version: 6.00 Build 0)  -->
<svg version="1.1" id="Ebene_1" xmlns="http://www.w3.org/2000/svg" xmlns:xlink="http://www.w3.org/1999/xlink" x="0px" y="0px"
	 viewBox="0 0 184 86.3" style="enable-background:new 0 0 184 86.3;" xml:space="preserve">
<style type="text/css">
	.st0{clip-path:url(#XMLID_4_);fill:#FFFFFF;}
	.st1{fill:#FFFFFF;}
	.st2{fill-rule:evenodd;clip-rule:evenodd;fill:#FFFFFF;}
</style>
<g id="XMLID_9_">
	<defs>
		<path id="XMLID_10_" d="M25,38.3V27.4c0-2.8,2.8-2.8,2.8-2.8h10.9c2.8,0,2.8,2.8,2.8,2.8v10.9c0,2.8-2.8,2.8-2.8,2.8H27.9
			C25,41.1,25,38.3,25,38.3 M8.5,82.7h49.2V7.6H8.5V82.7z"/>
	</defs>
	<clipPath id="XMLID_4_">
		<use xlink:href="#XMLID_10_"  style="overflow:visible;"/>
	</clipPath>
	<path id="XMLID_13_" class="st0" d="M17.1,7.6c0,0-8.5,0-8.5,8.5v32.9c0,0,0,8.5,8.5,8.5h32.9c0,0,8.5,0,8.5-8.5V16.1
		c0,0,0-8.5-8.5-8.5H17.1z"/>
</g>
<polygon id="XMLID_8_" class="st1" points="42.8,54.5 57.8,83.3 57.8,49 "/>
<path id="XMLID_7_" class="st2" d="M121.1,9.3c0,3.7,0,6.5,0,9.9c-4.2,0-8.1,0-12.5,0c0,2.9,0,5.3,0,8.3c3.2,0,6.5,0,10.1,0
	c0,3.8,0,7,0,10.9c-3.3,0-6.6,0-10.2,0c0,3.4,0,6.2,0,9.4c4.4,0,8.7,0,13.5,0c0,3.6,0,6.6,0,10.1c-8,0-16.3,0-24.9,0
	c0-1.4,0-2.8,0-4.3c0-12,0-24,0-36c0-6.2,2-8.2,8.1-8.4C110.3,9.2,115.5,9.3,121.1,9.3z"/>
<rect id="XMLID_6_" x="123.5" y="9" class="st2" width="29.6" height="10.3"/>
<rect id="XMLID_5_" x="132.1" y="16.5" class="st2" width="12.1" height="41.7"/>
<path id="XMLID_56_" class="st2" d="M172.4,15.9c-1.1-6.4-6.4-6.6-6.4-6.6L157.9,9L149,58h10.2l1-7h7.3l1,7H179L172.4,15.9z
	 M160.6,43l3.4-21.4l3.5,21.4H160.6z"/>
<path id="XMLID_2_" class="st2" d="M84.3,24.2h9.9c0,0,1.2-9.6-6.2-13.9c0,0-8.9-6.1-17.7,1.7c0,0-7.3,7.9-1.6,16.4
	c0,0,3.1,4.5,6.4,7.2c0,0,8.1,6.5,9.1,8.4c0,0,4.1,4.9-4.1,5.8c0,0-6.3,0.7-5-8.1l-8.6-0.1c0,0-4,18.5,16,17.2
	c0,0,10.8-0.6,11.8-11.8c0,0,0.8-8.6-5.2-14c0,0-9.1-7.6-11.1-9.6c0,0-4.5-3.8,1.3-5.9C79.1,17.6,84.7,15.7,84.3,24.2z"/>
</svg>
