<?xml version="1.0" encoding="utf-8"?>
<!-- Generator: Adobe Illustrator 16.0.3, SVG Export Plug-In . SVG Version: 6.00 Build 0)  -->
<!DOCTYPE svg PUBLIC "-//W3C//DTD SVG 1.1//EN" "http://www.w3.org/Graphics/SVG/1.1/DTD/svg11.dtd">
<svg version="1.1" id="Ebene_1" xmlns="http://www.w3.org/2000/svg" xmlns:xlink="http://www.w3.org/1999/xlink" x="0px" y="0px"
	 width="64px" height="19.417px" viewBox="0 0 64 19.417" enable-background="new 0 0 64 19.417" xml:space="preserve">
<path fill-rule="evenodd" clip-rule="evenodd" fill="#FFFFFF" d="M35.708,8.069c0-3.374,2.638-5.987,6.034-5.978
	c3.354,0.009,6.041,2.708,6.005,6.035c-0.035,3.259-2.705,5.91-6.003,5.958C38.439,14.132,35.707,11.41,35.708,8.069z"/>
<path fill-rule="evenodd" clip-rule="evenodd" fill="#FFFFFF" d="M22.29,2.909c0.663-0.444,1.3-0.932,2.144-0.996
	c1.211-0.092,2.063,0.419,2.576,1.599c0.348-0.325,0.617-0.612,0.922-0.855c0.99-0.791,2.1-1.033,3.256-0.463
	c1.165,0.574,1.493,1.664,1.341,2.849c-0.29,2.264-0.672,4.517-1.018,6.773c-0.079,0.515-0.178,1.027-0.242,1.543
	c-0.057,0.461-0.229,0.657-0.752,0.694c-0.904,0.063-1.208-0.164-1.016-1.124c0.423-2.12,0.779-4.256,1.098-6.395
	c0.13-0.873,0.52-1.993-0.611-2.442c-1.158-0.46-1.869,0.458-2.417,1.311c-0.969,1.506-0.861,3.306-1.219,4.978
	c-0.201,0.939-0.365,1.891-0.46,2.846c-0.059,0.597-0.255,0.807-0.875,0.827c-0.814,0.025-1.102-0.092-0.92-1.039
	c0.461-2.398,0.776-4.825,1.156-7.239c0.104-0.661,0.143-1.342-0.538-1.691C24.059,3.75,23.487,4.11,22.97,4.542
	c-1.131,0.943-1.467,2.245-1.672,3.616c-0.25,1.664-0.584,3.317-0.758,4.988c-0.112,1.072-0.794,0.933-1.453,0.873
	c-0.9-0.084-0.382-0.738-0.329-1.097c0.5-3.327,1.052-6.647,1.568-9.972c0.078-0.5,0.204-0.88,0.8-0.77
	c0.38,0.07,1.071-0.341,0.978,0.565c-0.009,0.106-0.064,0.272-0.02,0.306C22.217,3.15,22.246,2.999,22.29,2.909z"/>
<path fill-rule="evenodd" clip-rule="evenodd" fill="#FFFFFF" d="M15.018,13.403c-0.396,0.189-0.667,0.338-0.951,0.453
	c-1.698,0.689-3.329,0.065-4.142-1.578C8.637,9.678,9.4,5.089,11.46,3.044c1.603-1.593,3.417-1.507,5.219,0.243
	c0.455-0.229-0.072-0.974,0.643-1.122c1.04-0.215,1.362,0.059,1.186,1.115c-0.606,3.633-1.194,7.27-1.812,10.901
	c-0.175,1.031-0.505,2.021-1.114,2.892c-0.928,1.327-2.541,1.896-4.259,1.517c-1.527-0.337-2.407-1.281-2.656-2.87
	c-0.051-0.326-0.3-0.815,0.246-0.872c0.492-0.052,1.284-0.388,1.455,0.315c0.293,1.208,1.04,1.498,2.113,1.482
	c1.14-0.017,1.715-0.733,2.126-1.662C14.813,14.52,15.016,14.049,15.018,13.403z M16.063,6.792c-0.013-0.16-0.008-0.607-0.094-1.035
	c-0.166-0.819-0.503-1.528-1.428-1.738c-0.946-0.214-1.646,0.164-2.163,0.928c-1.08,1.598-1.464,3.374-1.159,5.261
	c0.136,0.843,0.521,1.627,1.5,1.829c1.01,0.208,1.7-0.304,2.215-1.092C15.701,9.773,15.999,8.455,16.063,6.792z"/>
<path fill-rule="evenodd" clip-rule="evenodd" fill="#FFFFFF" d="M4.363,14.291c-2.18,0.021-3.473-1.138-3.751-3.388
	c-0.044-0.356-0.238-0.93,0.449-0.805c0.478,0.086,1.214-0.518,1.42,0.523c0.271,1.377,1.351,1.973,2.673,1.578
	c0.576-0.172,0.994-0.529,1.139-1.127c0.15-0.62-0.101-1.125-0.61-1.451c-0.841-0.538-1.75-0.974-2.571-1.539
	c-1.353-0.93-1.771-2.495-1.165-4.047c0.565-1.447,2.055-2.302,3.67-2.105C7.251,2.126,8.372,3.26,8.531,4.935
	c0.034,0.359,0.38,1.004-0.407,0.969c-0.477-0.021-1.259,0.466-1.343-0.62C6.729,4.586,6.263,4.106,5.541,4.01
	C4.763,3.906,3.952,3.903,3.589,4.774C3.228,5.639,3.846,6.114,4.48,6.506C5.092,6.884,5.75,7.189,6.352,7.58
	c1.582,1.025,2.13,2.514,1.607,4.256C7.503,13.355,6.158,14.273,4.363,14.291z"/>
<path fill-rule="evenodd" clip-rule="evenodd" fill="#FFFFFF" d="M22.29,2.909c-0.043,0.089-0.072,0.241-0.205,0.142
	c-0.044-0.034,0.011-0.2,0.02-0.306C22.166,2.8,22.228,2.854,22.29,2.909z"/>
<path fill-rule="evenodd" clip-rule="evenodd" fill="#FFFFFF" d="M48.406,7.991c0,2.417-1.045,4.568-3.061,5.52
	c0.783,0.373,1.347,0.456,2.276,0.458c3.396,0.01,6.034-2.604,6.034-5.978c0.001-3.341-2.731-6.063-6.036-6.015
	c-0.922,0.014-1.648,0.17-2.429,0.546C47.171,3.502,48.407,5.621,48.406,7.991z"/>
<line fill="#FFFFFF" x1="53.042" y1="8.088" x2="64" y2="8.088"/>
<path fill="#FFFFFF" d="M63.024,8.187c0.006-0.031,0.016-0.06,0.016-0.091s-0.01-0.06-0.016-0.091
	c-0.006-0.033-0.009-0.065-0.021-0.097c-0.012-0.028-0.032-0.052-0.049-0.078c-0.017-0.025-0.026-0.054-0.048-0.077l-6.125-6.5
	c-0.189-0.201-0.506-0.211-0.707-0.021c-0.201,0.189-0.211,0.506-0.021,0.707l5.331,5.657h-8.315c-0.276,0-0.5,0.224-0.5,0.5
	s0.224,0.5,0.5,0.5h8.315l-5.331,5.658c-0.189,0.2-0.18,0.517,0.021,0.706c0.097,0.091,0.22,0.136,0.343,0.136
	c0.133,0,0.266-0.053,0.364-0.156l6.125-6.5c0.021-0.023,0.031-0.051,0.048-0.077c0.017-0.026,0.037-0.05,0.049-0.078
	C63.016,8.252,63.019,8.22,63.024,8.187z"/>
</svg>
