<?xml version="1.0" encoding="utf-8"?>
<!-- Generator: Adobe Illustrator 16.0.3, SVG Export Plug-In . SVG Version: 6.00 Build 0)  -->
<!DOCTYPE svg PUBLIC "-//W3C//DTD SVG 1.1//EN" "http://www.w3.org/Graphics/SVG/1.1/DTD/svg11.dtd">
<svg version="1.1" id="Ebene_1" xmlns="http://www.w3.org/2000/svg" xmlns:xlink="http://www.w3.org/1999/xlink" x="0px" y="0px"
	 width="236px" height="63px" viewBox="0 0 236 63" enable-background="new 0 0 236 63" xml:space="preserve">
<g>
	<path fill="#FFFFFF" d="M52.667,41.833h-42.25c-1.412,0.152-2.472,0.647-3.277,1.292h75.899c0.004-0.445-0.006-0.874-0.026-1.292
		H58.333H52.667z"/>
	<path fill="#FFFFFF" d="M18.5,36.167h35.167c4.557-0.061,5.783,1.276,5.843,2.667h23.123c-2.185-10.207-12.465-9.865-12.465-9.865
		H37.125c-6.969-0.094-6.094-5.156-6.094-5.156c0.688-5.094,5.635-4.844,5.635-4.844h40.052C83.438,18.938,83,13.5,83,13.5
		c0.079-6.25-7.25-5.875-7.25-5.875H21.875c-15.708,0-15.708,13.208-15.708,13.208C5.5,35.167,18.5,36.167,18.5,36.167z"/>
	<path fill="#FFFFFF" d="M5.088,46.125c-0.233,0.664-0.339,1.23-0.385,1.563h77.931c0.117-0.574,0.196-1.103,0.25-1.563H5.088z"/>
	<path fill="#FFFFFF" d="M4.754,50.688c0.859,6.179,6.413,6.063,6.413,6.063h61.667c5.084,0,7.625-3.014,8.895-6.063H4.754z"/>
</g>
<g>
	<path fill="#FFFFFF" d="M106.5,38.833H129V11.125c0,0,0.125-3.5-3.375-3.5c0,0-7.875,0-7.875,0h-7.875c-3.5,0-3.375,3.5-3.375,3.5
		L106.5,38.833z"/>
	<rect x="106.5" y="46.125" fill="#FFFFFF" width="22.5" height="1.563"/>
	<rect x="106.5" y="41.833" fill="#FFFFFF" width="22.5" height="1.292"/>
	<path fill="#FFFFFF" d="M129,50.688h-22.5v4.813c0,0-0.126,2.938,2.937,2.938s8.313,0,8.313,0c0,0,5.25,0,8.313,0
		c3.064,0,2.937-2.938,2.937-2.938V50.688z"/>
</g>
<g>
	<rect x="152.667" y="46.125" fill="#FFFFFF" width="24.208" height="1.563"/>
	<rect x="152.667" y="41.833" fill="#FFFFFF" width="24.208" height="1.292"/>
	<path fill="#FFFFFF" d="M177.508,38.833c0.861-1.197,2.856-2.458,7.492-2.458h4.333h4.376h0.166h4.167
		c4.636,0,6.631,1.262,7.492,2.458h24.841V16.5c0,0,0.003-8.879-12.166-8.879h-24.5h-4.376h-24.5
		c-12.166-0.204-12.166,8.879-12.166,8.879v22.333H177.508z M177,24.063c0-5.5,4.813-4.938,4.813-4.938h9.063h9.063
		c0,0,4.813-0.563,4.813,4.938c0,0,0.188,5.125-4.75,5.125c-0.071,0-0.12,0-0.188,0h-2.044h-6.894h-6.894c-0.087,0-0.654,0-2.044,0
		c-0.067,0-0.116,0-0.188,0C176.813,29.188,177,24.063,177,24.063z"/>
	<path fill="#FFFFFF" d="M152.667,50.688v2.646c0,0-0.004,4.38,5.875,4.333h15.083c0,0,3.281,0.047,3.25-4.479v-2.5H152.667z"/>
	<path fill="#FFFFFF" d="M230.375,50.688h-24.208v2.5c0,4.526,3.25,4.479,3.25,4.479H224.5c6.208-0.125,5.875-4.333,5.875-4.333
		V50.688z"/>
	<rect x="206.167" y="46.125" fill="#FFFFFF" width="24.208" height="1.563"/>
	<rect x="206.167" y="41.833" fill="#FFFFFF" width="24.208" height="1.292"/>
</g>
</svg>
