<?xml version="1.0" encoding="utf-8"?>
<!-- Generator: Adobe Illustrator 19.0.0, SVG Export Plug-In . SVG Version: 6.00 Build 0)  -->
<svg version="1.1" id="Ebene_1" xmlns="http://www.w3.org/2000/svg" xmlns:xlink="http://www.w3.org/1999/xlink" x="0px" y="0px"
	 viewBox="0 0 246 73.5" style="enable-background:new 0 0 246 73.5;" xml:space="preserve">
<style type="text/css">
	.st0{fill:#FFFFFF;}
	.st1{fill-rule:evenodd;clip-rule:evenodd;fill:#FFFFFF;}
</style>
<path class="st0" d="M238,57c-4.2,12.1-24.4,6.3-24.4,6.3V48.9c8.3,7.7,12.2,2.7,12.2,2.7c4.5-5.8-2.9-8.1-2.9-8.1
	c-8.9-4.7-10.5-11.7-10.5-11.7c-3.2-13.9,5.8-18.7,5.8-18.7c9-6.2,18,0,18,0v13.3c0,0-8.5-6.5-12-1.4c0,0-3.6,4.6,5.9,8.6
	C230.2,33.7,244.3,38.7,238,57z"/>
<path class="st0" d="M32.7,57c-4.2,12.1-24.4,6.3-24.4,6.3V48.9c8.3,7.7,12.2,2.7,12.2,2.7c4.5-5.8-2.9-8.1-2.9-8.1
	C8.7,38.8,7.2,31.8,7.2,31.8C4,17.9,13,13.1,13,13.1c9-6.2,18,0,18,0v13.3c0,0-8.5-6.5-12-1.4c0,0-3.6,4.6,5.9,8.6
	C24.9,33.7,39.1,38.7,32.7,57z"/>
<rect x="43" y="12.4" class="st1" width="13.9" height="51.1"/>
<polygon class="st1" points="90.7,12.5 83.3,12.5 83.3,12.4 69.4,12.4 69.4,12.5 61.7,12.5 61.7,26.4 69.4,26.4 69.4,63.5 
	83.3,63.5 83.3,26.4 90.7,26.4 "/>
<path class="st1" d="M119.4,12.5h-15.8l-13,52.3l0.6-1.3h14.4l1.1-9.3h10l1.2,9.3h13.4L119.4,12.5z M106.7,45.2l3.5-17.5h2l3.6,17.5
	H106.7z"/>
<path class="st1" d="M159.3,38.5c6.1-4.4,4.6-12.9,4.6-12.9c0-10.8-11.6-12-11.6-12h-18.1v23v3.9v23h18.1c0,0,11.6-1.2,11.6-12
	C163.9,51.4,165.3,42.9,159.3,38.5z M151.9,47c0,6.4-5.9,4.8-5.9,4.8v-9.5C152.2,42.3,151.9,47,151.9,47z M151.9,27.8
	c0,6.4-5.9,4.8-5.9,4.8V23C152.2,23,151.9,27.8,151.9,27.8z"/>
<path class="st1" d="M205.3,12.4l-13,0v31.1c0,0,0.2,8.4-3.9,8.5c-4.1-0.1-3.9-8.5-3.9-8.5V12.5l-13,0L171.3,52
	c0,14.7,17.1,12.8,17.1,12.8s17.1,1.9,17.1-12.8L205.3,12.4z"/>
</svg>
