<?xml version="1.0" encoding="utf-8"?>
<!-- Generator: Adobe Illustrator 16.0.3, SVG Export Plug-In . SVG Version: 6.00 Build 0)  -->
<!DOCTYPE svg PUBLIC "-//W3C//DTD SVG 1.1//EN" "http://www.w3.org/Graphics/SVG/1.1/DTD/svg11.dtd">
<svg version="1.1" id="Ebene_1" xmlns="http://www.w3.org/2000/svg" xmlns:xlink="http://www.w3.org/1999/xlink" x="0px" y="0px"
	 width="384.375px" height="112.5px" viewBox="0 0 384.375 112.5" enable-background="new 0 0 384.375 112.5" xml:space="preserve">
<path fill="#FFFFFF" stroke="#FFFFFF" stroke-miterlimit="10" d="M291.328,26.735v4c0,0-8.563-4.052-22.083-4h-35.667h-31.417v34.5
	l-18.333-34.5h-26.333l-9.632,17.685l-1.177,2.161l-28.857,52.987V46.401l28.857,0.18V26.735H43.495c0,0-34.5-1.167-36.5,20.5
	c0,0-3.583,17.415,13.917,23.249c0,0,18.833,5.084,29.833,6.917c0,0,14.25,2.084,9.667,7.667c0,0-1.25,1.666-8.167,1.666
	s-41.417,0.167-41.417,0.167v19.25h47.5c0,0,25.75,0,29.75-17.667c0,0,4.667-15.666-10.25-23.333c0,0-4.625-3.875-24.875-8
	c0,0-21.083-3.083-18.125-9.125c0,0,0.792-2.333,7.625-2.125h47.5v60.75h53.875l7.25-15h38l8.25,15h49.5v-24.25h12.75l19.5,24.25h33
	l-24.5-27.75c0,0,18.375-5.625,19.375-17.75c0,0,1.375-6.537-0.875-15.269h15v60.769h28.084V45.882h29.5V26.735H291.328z
	 M169.646,72.875h-10.188l5.094-10.062l5.094-10.063l5.094,10.063l5.094,10.062H169.646z"/>
<polygon fill="#849827" stroke="#FFFFFF" stroke-miterlimit="10" points="202.161,61.235 202.161,7.75 280.708,55.5 218.583,92.75 
	"/>
</svg>
