<?xml version="1.0" encoding="utf-8"?>
<!-- Generator: Adobe Illustrator 16.0.3, SVG Export Plug-In . SVG Version: 6.00 Build 0)  -->
<!DOCTYPE svg PUBLIC "-//W3C//DTD SVG 1.1//EN" "http://www.w3.org/Graphics/SVG/1.1/DTD/svg11.dtd">
<svg version="1.1" id="Ebene_1" xmlns="http://www.w3.org/2000/svg" xmlns:xlink="http://www.w3.org/1999/xlink" x="0px" y="0px"
	 width="475px" height="113px" viewBox="0 0 475 113" enable-background="new 0 0 475 113" xml:space="preserve">
<g>
	<path fill-rule="evenodd" clip-rule="evenodd" fill="#FFFFFF" d="M141.9,80.095c0-7.84-0.026-15.68,0.009-23.52
		c0.022-4.96,0.722-9.823,3.009-14.287c5.559-10.849,14.208-17.583,26.494-18.866c14.079-1.471,25.006,4.141,32.543,15.944
		c7.666,12.005,6.569,30.902-7.6,42.185c-6.187,4.927-13.207,7.305-21.061,7.342c-6.08,0.028-12.16,0.028-18.24-0.019
		c-1.006-0.007-1.313,0.28-1.241,1.272c0.361,4.953-1.468,8.966-5.279,12.121c-2.168,1.795-4.671,2.701-7.438,3.007
		c-0.95,0.105-1.22-0.228-1.216-1.181C141.916,96.095,141.9,88.095,141.9,80.095z M155.993,64.364c-0.019,0-0.037,0-0.056,0
		c0,3.399,0.032,6.8-0.021,10.198c-0.014,0.924,0.216,1.204,1.177,1.196c6.079-0.046,12.159-0.009,18.238-0.031
		c2.208-0.008,4.395-0.287,6.459-1.107c7.136-2.838,11.473-8.071,12.491-15.659c1.085-8.094-1.786-14.779-8.552-19.424
		c-5.992-4.113-12.576-4.413-19-1.211c-6.601,3.29-10.235,8.899-10.703,16.324C155.824,57.876,155.993,61.125,155.993,64.364z"/>
	<path fill-rule="evenodd" clip-rule="evenodd" fill="#FFFFFF" d="M15.524,88.504c-3.279,0-6.557-0.03-9.835,0.02
		c-0.871,0.014-1.182-0.173-1.137-1.11c0.286-5.901,5.472-11.336,11.371-11.951c2.547-0.267,5.114,0.117,7.65-0.377
		c6.9-1.345,12.091-7.468,12.184-14.499c0.052-3.998,0.01-7.996,0.011-11.994c0.002-11.585,7.599-21.639,18.75-24.816
		c2.359-0.672,4.779-0.966,7.217-0.983c5.957-0.041,11.915,0.016,17.871-0.037c1.113-0.01,1.349,0.321,1.221,1.371
		c-0.863,7.069-6.197,11.834-13.346,11.809c-3.168-0.011-6.347-0.062-9.241,1.476c-5.536,2.941-8.57,7.529-8.716,13.85
		c-0.101,4.396,0.053,8.798-0.079,13.191c-0.337,11.179-9.475,21.616-20.528,23.561c-1.021,0.18-2.051,0.409-3.08,0.426
		c-3.437,0.053-6.875,0.02-10.313,0.02C15.524,88.474,15.524,88.488,15.524,88.504z"/>
	<path fill-rule="evenodd" clip-rule="evenodd" fill="#FFFFFF" d="M84.936,32.598c0-8.32,0.012-16.639-0.017-24.959
		c-0.003-0.912,0.129-1.204,1.172-1.104c7.568,0.726,12.764,6.652,12.776,14.745c0.019,11.6,0.003,23.199,0.005,34.798
		c0.001,10.787,8.432,19.209,19.224,19.276c3.189,0.021,6.404-0.337,9.563,0.388c5.35,1.229,9.687,6.414,9.904,11.738
		c0.03,0.748-0.063,1.046-0.916,1.041c-6.64-0.035-13.281,0.067-19.919-0.037C101.097,88.24,87.404,76.109,85.241,60.66
		c-0.204-1.46-0.317-2.938-0.314-4.423C84.945,48.358,84.936,40.478,84.936,32.598z"/>
	<path fill-rule="evenodd" clip-rule="evenodd" fill="#FFFFFF" d="M212.132,55.117c0-5.16,0.028-10.32-0.024-15.479
		c-0.01-1.019,0.356-1.197,1.252-1.117c3.748,0.333,7.277,4.013,7.5,7.874c0.138,2.385,0.138,2.379,2.572,2.386
		c3.599,0.009,7.2-0.022,10.798,0.05c10.008,0.201,18.478,7.995,19.784,17.963c1.501,11.462-6.458,20.494-15.431,22.784
		c-9.74,2.486-19.43-1.758-24.213-10.603c-1.505-2.783-2.216-5.813-2.232-8.979C212.113,65.036,212.132,60.076,212.132,55.117z
		 M221.043,64.392c0,1.878-0.012,3.757,0.002,5.635c0.056,7.606,7.412,13.32,14.828,11.595c4.82-1.121,9.661-6.017,9.408-12.839
		c-0.224-6.046-5.322-11.488-11.352-11.664c-3.993-0.116-7.993-0.021-11.989-0.067c-0.784-0.01-0.921,0.302-0.91,0.985
		C221.064,60.154,221.043,62.273,221.043,64.392z"/>
	<path fill-rule="evenodd" clip-rule="evenodd" fill="#FFFFFF" d="M364.612,90.218c-4.372,0-7.971-0.026-11.568,0.019
		c-0.912,0.012-1.239-0.206-1.232-1.188c0.044-6.316,0.052-12.634,0.017-18.951c-0.062-10.916,7.083-17.938,14.44-20.327
		c11.178-3.63,23.347,2.391,26.729,13.525c4.239,13.957-5.688,25.24-16.822,26.688C372.073,90.517,367.949,90.05,364.612,90.218z
		 M360.745,74.21c0,2.531,0.04,4.61-0.02,6.687c-0.024,0.855,0.255,1.072,1.083,1.063c3.716-0.041,7.433-0.014,11.148-0.02
		c1.001-0.002,1.99-0.143,2.957-0.395c6.253-1.631,10.062-7.701,8.965-14.276c-0.954-5.721-6.138-10.157-11.914-10.197
		c-5.84-0.04-10.978,4.28-11.996,10.059C360.527,69.635,360.879,72.154,360.745,74.21z"/>
	<path fill-rule="evenodd" clip-rule="evenodd" fill="#FFFFFF" d="M348.002,78.71c0,3.438-0.045,6.879,0.025,10.316
		c0.022,1.093-0.404,1.255-1.332,1.162c-3.648-0.364-7.082-3.77-7.398-7.415c-0.392-4.509-0.133-9.027-0.173-13.541
		c-0.06-6.842-5.782-12.376-12.625-12.139c-6.334,0.22-11.552,5.547-11.609,11.904c-0.038,4.158,0.012,8.317-0.013,12.477
		c-0.024,4.205-3.008,7.805-7.104,8.634c-1.651,0.335-1.779,0.231-1.779-1.442c0-6.397-0.034-12.796,0.011-19.193
		c0.036-5.046,1.561-9.598,4.946-13.406c5.215-5.868,11.771-8.143,19.503-7.021c8.134,1.18,15.028,7.478,16.952,15.448
		c0.383,1.588,0.615,3.209,0.603,4.859C347.985,72.472,348.002,75.591,348.002,78.71z"/>
	<path fill-rule="evenodd" clip-rule="evenodd" fill="#FFFFFF" d="M417.445,90.218c-2.078,0-4.157-0.031-6.234,0.016
		c-0.839,0.02-1.146-0.226-1.043-1.094c0.48-4.005,3.955-7.191,8.001-7.185c2.706,0.005,5.362-0.059,7.646-1.796
		c2.532-1.927,3.959-4.422,4.021-7.654c0.061-3.112-0.123-6.226,0.149-9.34c0.589-6.718,6.112-12.952,12.813-14.027
		c4.861-0.78,9.793-0.531,14.702-0.365c0.796,0.027,0.758,0.495,0.736,1.048c-0.141,3.684-3.817,7.171-7.655,7.244
		c-1.594,0.03-3.194-0.094-4.769,0.298c-4.197,1.044-7.231,5.008-7.275,9.568c-0.023,2.478,0.004,4.956-0.005,7.435
		c-0.03,8.388-6.959,15.549-15.334,15.818c-1.916,0.062-3.836,0.009-5.755,0.009C417.445,90.201,417.445,90.21,417.445,90.218z"/>
	<path fill-rule="evenodd" clip-rule="evenodd" fill="#FFFFFF" d="M258.212,78.39c-0.001-2.96,0.057-5.921-0.011-8.88
		c-0.239-10.48,7.845-18.624,16.531-20.333c2.511-0.494,5.074-0.548,7.636-0.518c2.52,0.03,5.04-0.008,7.56,0.013
		c1.46,0.012,1.619,0.212,1.445,1.581c-0.451,3.558-4.003,6.73-7.603,6.817c-2.155,0.053-4.321-0.192-6.464,0.18
		c-6.148,1.067-10.312,6.009-10.327,12.253c-0.01,3.999,0.036,8-0.014,11.999c-0.054,4.262-2.613,7.459-6.72,8.521
		c-0.27,0.069-0.547,0.104-0.82,0.157c-0.907,0.179-1.254-0.11-1.237-1.111C258.248,85.51,258.212,81.949,258.212,78.39z"/>
	<path fill-rule="evenodd" clip-rule="evenodd" fill="#FFFFFF" d="M301.777,72.754c0,5.354,0.001,10.709,0,16.063
		c-0.001,1.464-0.138,1.574-1.581,1.312c-4.098-0.746-7.145-4.34-7.154-8.56c-0.023-10.55,0.008-21.099-0.03-31.648
		c-0.004-1.06,0.43-1.16,1.282-1.087c3.889,0.334,7.45,4.19,7.476,8.215C301.802,62.284,301.777,67.519,301.777,72.754z"/>
	<path fill-rule="evenodd" clip-rule="evenodd" fill="#FFFFFF" d="M460.458,66.206c0-5.395,0.027-10.789-0.023-16.183
		c-0.01-1.056,0.344-1.279,1.315-1.188c3.761,0.352,7.421,4.329,7.437,8.329c0.042,10.668,0.006,21.337,0.031,32.006
		c0.002,0.862-0.275,1.077-1.104,1.03c-4-0.229-7.625-4.096-7.648-8.291C460.435,76.675,460.457,71.44,460.458,66.206z"/>
	<path fill-rule="evenodd" clip-rule="evenodd" fill="#FFFFFF" d="M405.938,72.818c0,5.356,0.001,10.714-0.001,16.071
		c-0.001,1.376-0.148,1.492-1.534,1.252c-3.999-0.694-7.171-4.193-7.198-8.275c-0.071-10.713-0.023-21.428-0.047-32.142
		c-0.001-0.751,0.25-0.936,0.972-0.915c3.774,0.107,7.683,3.886,7.764,7.818c0.111,5.395,0.027,10.793,0.027,16.19
		C405.926,72.818,405.932,72.818,405.938,72.818z"/>
	<path fill-rule="evenodd" clip-rule="evenodd" fill="#FFFFFF" d="M123.265,42.373c-0.334,1.052-0.929,1.315-1.855,1.305
		c-3.959-0.044-7.919-0.027-11.879-0.005c-0.355,0.002-1.002-0.294-0.983,0.437c0.015,0.57,0.47,0.729,1.03,0.726
		c3.32-0.019,6.64-0.009,9.959-0.008c0.43,0,0.86,0,1.488,0c-0.591,1.01-1.255,1.453-2.256,1.447
		c-2.863-0.018-5.727-0.006-8.698-0.006c0.835,1.136,1.897,1.227,3.042,1.179c1.104-0.046,2.211-0.01,3.647-0.01
		c-1.622,0.941-3.132,0.73-4.551,0.911c-1.307,0.166-2.636,0.022-3.939-0.184c-3.054-0.482-5.235-3.494-5.096-6.988
		c0.12-2.986,2.79-5.926,5.697-5.981c5.278-0.101,10.559-0.045,15.838-0.046c0.333,0,0.828-0.094,0.751,0.475
		c-0.069,0.519-0.559,0.348-0.882,0.349c-4.04,0.012-8.08,0.025-12.119-0.005c-0.904-0.007-1.633,0.226-2.243,0.976
		c0.39,0.347,0.843,0.196,1.244,0.198c4.12,0.013,8.24-0.013,12.359,0.035c0.494,0.006,1.453-0.525,1.441,0.616
		c-0.011,1.102-0.938,0.76-1.543,0.763c-4.479,0.021-8.959,0.011-13.439,0.011c-0.24,0-0.482,0.022-0.72-0.003
		c-0.637-0.067-1.07,0.216-1.032,0.838c0.038,0.619,0.626,0.342,0.961,0.344c4.56,0.02,9.119,0,13.679,0.034
		c0.457,0.003,1.292-0.408,1.333,0.43c0.04,0.85-0.69,0.982-1.459,0.979c-4.64-0.025-9.279-0.018-13.919-0.002
		c-0.454,0.001-1.128-0.259-1.093,0.646c0.033,0.839,0.671,0.53,1.067,0.531C113.774,42.38,118.451,42.373,123.265,42.373z"/>
</g>
</svg>
