<?xml version="1.0" encoding="utf-8"?>
<!-- Generator: Adobe Illustrator 16.0.3, SVG Export Plug-In . SVG Version: 6.00 Build 0)  -->
<!DOCTYPE svg PUBLIC "-//W3C//DTD SVG 1.1//EN" "http://www.w3.org/Graphics/SVG/1.1/DTD/svg11.dtd">
<svg version="1.1" id="Ebene_1" xmlns="http://www.w3.org/2000/svg" xmlns:xlink="http://www.w3.org/1999/xlink" x="0px" y="0px"
	 width="202px" height="216px" viewBox="0 0 202 216" enable-background="new 0 0 202 216" xml:space="preserve">
<path fill-rule="evenodd" clip-rule="evenodd" fill="#FFFFFF" d="M40.56,184.955c10.134,0,19.017,0,28.999,0
	c-3.876,7.41-7.087,13.737-10.533,19.932c-0.512,0.92-2.133,1.709-3.252,1.727c-9.299,0.137-18.6,0.076-29.229,0.076
	c17.433-33.704,34.232-66.187,51.507-99.587c-10.064,0-19.233,0-29.696,0c4.449-8.481,8.277-15.946,12.34-23.281
	c0.454-0.82,2.246-1.268,3.419-1.269c28.482-0.02,56.965,0.042,85.447,0.11c0.464,0.001,0.927,0.25,2.258,0.634
	c-3.985,7.627-7.77,15.097-11.854,22.4c-0.493,0.882-2.594,1.185-3.958,1.205c-7.161,0.107-14.335,0.264-21.483-0.068
	c-3.622-0.168-5.324,1.28-6.854,4.319c-6.503,12.915-13.325,25.67-19.813,38.593c-1.621,3.228-3.505,4.677-7.259,4.485
	c-6.813-0.349-13.657-0.285-20.48-0.102c-1.564,0.042-3.877,0.84-4.521,2.016C50.652,165.16,46.035,174.353,40.56,184.955z"/>
<path fill-rule="evenodd" clip-rule="evenodd" fill="#FFFFFF" d="M105.015,181.841c4.153-7.98,7.773-15.241,11.762-22.293
	c0.664-1.174,2.876-1.793,4.477-2.068c16.092-2.77,29.016-10.33,37.31-24.73c6.827-11.854,1.968-23.692-11.338-25.412
	c-0.93-0.12-1.828-0.474-3.158-0.831c3.833-7.37,7.404-14.477,11.272-21.417c0.609-1.093,2.637-2.112,3.898-1.995
	c4.271,0.398,8.664,0.804,12.702,2.138c16.768,5.539,23.707,19.757,18.4,37.302c-5.041,16.665-16.23,28.733-29.718,38.961
	c-14.592,11.064-31.019,17.811-49.161,20.312C109.674,182.054,107.826,181.841,105.015,181.841z"/>
<path fill-rule="evenodd" clip-rule="evenodd" fill="#FFFFFF" d="M95.718,7.893c-4.201,8.02-7.845,15.242-11.816,22.28
	c-0.597,1.059-2.667,1.564-4.143,1.81c-14.026,2.341-25.77,8.691-34.553,19.953c-2.201,2.824-3.942,6.21-5.097,9.609
	c-3.342,9.845,1.072,17.488,11.169,20.047c1.595,0.404,3.192,0.807,5.312,1.343c-3.872,7.491-7.6,14.87-11.549,22.129
	c-0.473,0.871-2.168,1.586-3.261,1.538C15.062,105.422,1.73,86.666,12.007,62.114c7.852-18.756,22.322-31.598,39.6-41.474
	C64.88,13.053,79.008,8.086,95.718,7.893z"/>
<polygon fill-rule="evenodd" clip-rule="evenodd" fill="#FFFFFF" points="87.333,30.667 100.333,30.667 112.983,7.554 99.833,7.554 
	"/>
<polygon fill-rule="evenodd" clip-rule="evenodd" fill="#FFFFFF" points="103.083,30.667 113.125,30.667 125.375,7.554 
	115.522,7.554 "/>
<polygon fill-rule="evenodd" clip-rule="evenodd" fill="#FFFFFF" points="116.208,30.667 123.75,30.667 136,7.554 128.647,7.554 "/>
<polygon fill-rule="evenodd" clip-rule="evenodd" fill="#FFFFFF" points="126.333,30.667 131.125,30.667 143.5,7.554 138.772,7.554 
	"/>
<polygon fill-rule="evenodd" clip-rule="evenodd" fill="#FFFFFF" points="133.458,30.667 135.688,30.667 147.875,7.554 
	145.897,7.554 "/>
<polygon fill-rule="evenodd" clip-rule="evenodd" fill="#FFFFFF" points="112.042,158.638 99.042,158.638 86.393,181.75 
	99.542,181.75 "/>
<polygon fill-rule="evenodd" clip-rule="evenodd" fill="#FFFFFF" points="96.292,158.638 86.251,158.638 74.001,181.75 
	83.854,181.75 "/>
<polygon fill-rule="evenodd" clip-rule="evenodd" fill="#FFFFFF" points="83.167,158.638 75.626,158.638 63.376,181.75 
	70.729,181.75 "/>
<polygon fill-rule="evenodd" clip-rule="evenodd" fill="#FFFFFF" points="73.042,158.638 68.251,158.638 55.876,181.75 
	60.604,181.75 "/>
<polygon fill-rule="evenodd" clip-rule="evenodd" fill="#FFFFFF" points="65.917,158.638 63.688,158.638 51.501,181.75 
	53.479,181.75 "/>
</svg>
