<?xml version="1.0" encoding="utf-8"?>
<!-- Generator: Adobe Illustrator 16.0.3, SVG Export Plug-In . SVG Version: 6.00 Build 0)  -->
<!DOCTYPE svg PUBLIC "-//W3C//DTD SVG 1.1//EN" "http://www.w3.org/Graphics/SVG/1.1/DTD/svg11.dtd">
<svg version="1.1" xmlns="http://www.w3.org/2000/svg" xmlns:xlink="http://www.w3.org/1999/xlink" x="0px" y="0px"
	 width="121.25px" height="68.75px" viewBox="0 0 121.25 68.75" enable-background="new 0 0 121.25 68.75" xml:space="preserve">
<g id="Ebene_1" display="none">
	
		<image display="inline" overflow="visible" width="155" height="110" xlink:href="../../../../../Desktop/stp.png"  transform="matrix(1 0 0 1 -20.5 -21.75)">
	</image>
</g>
<g id="Ebene_2">
	<path fill="#FFFFFF" d="M50,16.083c0,0-23.333-1-22.167,10c0,0,0.25,4,6.104,8.354c0,0,4.688,3.063-1.938,5.625
		c0,0-3.542,1.479-7.938,0l-7.5,7c0,0,14.313,1.104,22.313-2.563c0,0,7.813-3.5,5.625-11.25c0,0-1.167-4.333-5.938-6.625
		c0,0-3.729-1.75,0.604-4.917C39.167,21.708,45.688,17.229,50,16.083z"/>
	<path fill="#FFFFFF" d="M89.625,16.06H52.563c-4.375,1.748-6.688,4.877-6.688,4.877H57v1.854
		c-1.917,5.25-11.625,21.333-11.625,21.333C44,46.5,46.792,46,46.792,46c15.125-1.042,18.792-22.583,18.792-22.583v-2.323
		l8.166,0.031v2.313l-9.583,17.333c-1.646,2.375-0.042,2.354-0.042,2.354c12.313,0,13.25-9.875,13.25-9.875
		c2.25,0.313,9.563-0.055,9.563-0.055c12.563-1.055,12.688-10.32,12.688-10.32C99.625,15.813,89.625,16.06,89.625,16.06z
		 M80.396,27.845c0,0,2.292-5.15,1.872-7.57c0,0,6.774-1.692,8.778,3.645C91.046,23.92,93.459,29.583,80.396,27.845z"/>
	<path fill="#FFFFFF" d="M100.167,11.167c0,0,10.249,6.167,4.333,15.333c0,0-7.165,16.083-37.416,23.75
		c0,0-3.501,1.297-18.334,3.875c-4.356,0.757-9,1-16.25,0.625c0,0-19.5-0.25-22.5-13.75c0,0-2-9.234,8.25-16.833
		c0,0-17.063,10.201-10.625,21.877c0,0,4.042,10.789,23.875,12.081c0,0,3.714,0.608,10.125,0c3.169-0.301,6.69-0.637,11.333-1.333
		c3.784-0.567,8.066-1.988,12.792-2.917c0,0,28.375-6.25,41.125-24.625C106.875,29.25,114.709,17.208,100.167,11.167z"/>
	<path fill="#FFFFFF" d="M12.652,28.636c0,0-19.486,16.25-7.652,28.932c0,0,10.167,12.016,43,9.516c0,0,28-0.712,51.625-16
		c0,0,20.958-12.334,19.875-28c0,0-0.667-11.917-11.667-15.167c0,0,18.542,13.458-0.208,33.083c0,0-17.75,20-61,23.125
		c0,0-29.375,4-41.375-11.708C5.25,52.417-2,43.917,12.652,28.636z"/>
	<path fill="#FFFFFF" d="M14.5,27.208c0,0,9.146-14.625,18.781-19.625h-5.698c0,0,0.739-5.5,17.411-4.917
		c0,0,13.588-1.417,18.588,10.333H46.667c0,0-0.85,2.179-2.425,3.214l-4.076,0.451c0,0,0.917-0.219,1.25-2.858
		C41.417,13.807,15.954,23.8,14.5,27.208z"/>
</g>
</svg>
