<?xml version="1.0" encoding="utf-8"?>
<!-- Generator: Adobe Illustrator 16.0.3, SVG Export Plug-In . SVG Version: 6.00 Build 0)  -->
<!DOCTYPE svg PUBLIC "-//W3C//DTD SVG 1.1//EN" "http://www.w3.org/Graphics/SVG/1.1/DTD/svg11.dtd">
<svg version="1.1" id="Ebene_1" xmlns="http://www.w3.org/2000/svg" xmlns:xlink="http://www.w3.org/1999/xlink" x="0px" y="0px"
	 width="217.489px" height="110.258px" viewBox="0 0 217.489 110.258" enable-background="new 0 0 217.489 110.258"
	 xml:space="preserve">
<g>
	<path fill-rule="evenodd" clip-rule="evenodd" fill="#FFFFFF" d="M150.396,27.761c-1.229,4.759-1.943,8.535-3.284,12.073
		c-0.378,0.999-2.583,1.831-3.959,1.845c-13.196,0.137-26.397,0.21-39.592-0.003c-3.406-0.055-5.096,0.867-5.49,4.302
		c-0.239,2.083-0.929,4.113-1.558,6.764c15.796,0,31.059,0,46.951,0c-1.006,4.417-1.672,8.284-2.884,11.974
		c-0.283,0.861-2.41,1.57-3.696,1.582c-13.077,0.115-26.16,0.26-39.231-0.043c-3.973-0.092-5.707,1.158-6.156,4.929
		c-0.221,1.854-0.843,3.661-1.345,5.741c1.152,0.184,1.934,0.418,2.716,0.418c27.236,0.003,54.473,0.121,81.707-0.18
		c4.124-0.045,8.57-1.383,12.266-3.291c7.099-3.664,9.855-12.156,7.559-20.624c-1.949-7.182-7.649-11.354-15.89-11.452
		c-7.078-0.085-14.158-0.005-21.236-0.033c-1.407-0.005-2.814-0.165-4.868-0.294c1.089-4.417,2.014-8.442,3.136-12.413
		c0.159-0.564,1.292-1.238,1.953-1.217c9.789,0.307,19.729-1.592,29.339,1.319c18.76,5.682,25.188,22.297,21.159,39.582
		c-3.39,14.538-16.14,24.016-31.807,24.199c-6.719,0.078-13.44,0.097-20.155-0.073c-2.403-0.061-3.414,0.787-3.897,3.07
		c-0.819,3.861-1.811,7.696-2.963,11.471c-0.324,1.064-1.413,2.633-2.233,2.686c-4.261,0.271-8.548,0.126-13.327,0.126
		c1.42-6.004,2.7-11.416,4.104-17.352c-22.156,0-43.812,0-66.326,0c3.944-17.287,7.751-33.974,11.613-50.895
		c-1.368-0.089-2.305-0.202-3.242-0.203c-14.039-0.011-28.077,0.057-42.114-0.069c-2.499-0.022-3.674,0.685-4.207,3.155
		c-1.186,5.496-2.61,10.938-3.93,16.405c-2.12,8.778,3.38,15.936,12.457,16.043C50,77.399,58.04,77.323,66.079,77.323
		c1.284,0,2.567,0,4.638,0c-1.328,5.183-2.432,9.784-3.761,14.32c-0.175,0.599-1.508,1.232-2.293,1.22
		c-8.857-0.146-17.848,0.467-26.536-0.866c-11.578-1.777-20.285-8.354-22.901-20.422c-1.671-7.709-0.05-15.491,2.062-23.06
		c0.573-2.056,1.008-4.15,1.632-6.746c-2.987,0-5.591-0.098-8.183,0.026c-2.911,0.14-4.368-0.557-3.325-3.901
		c0.742-2.381,1.017-4.914,1.423-7.392c0.327-1.999,1.395-2.858,3.438-2.786c2.636,0.094,5.282-0.07,7.917,0.044
		c2.102,0.09,3.237-0.457,3.633-2.808c0.694-4.127,1.875-8.169,2.698-12.278c0.426-2.129,1.438-3.064,3.656-2.993
		c3.561,0.115,7.128,0.031,11.218,0.031c-1.317,6.202-2.498,11.757-3.834,18.048C75.213,27.761,112.413,27.761,150.396,27.761z"/>
</g>
</svg>
