<?xml version="1.0" encoding="utf-8"?>
<!-- Generator: Adobe Illustrator 16.0.3, SVG Export Plug-In . SVG Version: 6.00 Build 0)  -->
<!DOCTYPE svg PUBLIC "-//W3C//DTD SVG 1.1//EN" "http://www.w3.org/Graphics/SVG/1.1/DTD/svg11.dtd">
<svg version="1.1" id="Ebene_1" xmlns="http://www.w3.org/2000/svg" xmlns:xlink="http://www.w3.org/1999/xlink" x="0px" y="0px"
	 width="488.889px" height="195.959px" viewBox="0 0 488.889 195.959" enable-background="new 0 0 488.889 195.959"
	 xml:space="preserve">
<g>
	<path fill-rule="evenodd" clip-rule="evenodd" fill="#FFFFFF" d="M332.544,188.567c-16.391,0-32.781,0-49.173-0.001
		c-1.011,0-2.023,0.028-3.03-0.025c-8.246-0.438-12.566-6.334-10.421-14.342c0.489-1.826,1.263-3.593,2.063-5.314
		c10.723-23.063,21.348-46.172,32.265-69.142c6.047-12.725,15.935-19.736,30.559-19.661c32.22,0.166,64.441,0.051,96.662,0.052
		c1.123,0,2.246-0.016,3.368,0.012c8.842,0.214,13.303,6.243,10.792,14.728c-0.632,2.135-1.579,4.192-2.523,6.218
		c-10.457,22.443-20.883,44.902-31.441,67.299c-6.272,13.304-16.532,20.42-31.631,20.223
		C364.206,188.407,348.374,188.567,332.544,188.567z M338.888,175.45c12.047,0.051,20.529-5.781,25.616-16.347
		c7.918-16.444,15.462-33.067,23.146-49.623c0.611-1.316,1.205-2.666,1.586-4.06c1.744-6.382-1.152-11.119-7.408-12.25
		c-11.868-2.145-24.634,3.873-29.886,14.774c-8.408,17.45-16.41,35.096-24.585,52.658c-3.19,6.854-1.284,15.423,9.849,14.851
		C337.765,175.424,338.327,175.45,338.888,175.45z"/>
	<path fill-rule="evenodd" clip-rule="evenodd" fill="#FFFFFF" d="M226.754,55.762c5.265-13.162,4.83-25.587-0.804-37.958
		c85.52,0,170.672,0,256.688,0c-4.519,8.802-8.047,17.648-13.278,25.336c-5.798,8.521-14.512,12.846-25.337,12.821
		c-70.853-0.167-141.703-0.154-212.555-0.199C230.134,55.761,228.8,55.762,226.754,55.762z"/>
	<path fill-rule="evenodd" clip-rule="evenodd" fill="#FFFFFF" d="M5.048,188.567c4.74-10.171,9.181-19.696,13.618-29.223
		c7.57-16.253,15.137-32.506,22.706-48.759c0.237-0.509,0.476-1.016,0.706-1.527c4.521-10.063,0.722-16.057-10.19-16.066
		c-5.946-0.005-11.893-0.001-18.459-0.001c1.957-4.218,3.66-8.15,5.651-11.93c0.339-0.644,1.914-0.881,2.921-0.889
		c9.094-0.065,18.189-0.039,27.284-0.039c28.856,0,57.712,0,86.568,0c1.34,0,2.679,0,4.745,0c-2.03,4.315-3.782,8.247-5.775,12.052
		c-0.3,0.572-1.727,0.758-2.637,0.771c-5.052,0.072-10.105,0.098-15.157,0.022c-12.642-0.189-21.383,5.885-26.636,17.016
		c-11.811,25.03-23.458,50.138-35.048,75.271c-1.146,2.486-2.426,3.405-5.211,3.374c-13.809-0.16-27.62-0.073-41.431-0.073
		C7.706,188.567,6.71,188.567,5.048,188.567z"/>
	<path fill-rule="evenodd" clip-rule="evenodd" fill="#FFFFFF" d="M264.699,175.451c-2.029,4.393-3.645,8.076-5.462,11.657
		c-0.352,0.691-1.497,1.399-2.271,1.394c-17.948-0.136-35.898-0.193-53.835-0.726c-3.778-0.112-7.691-1.609-11.215-3.196
		c-9.378-4.225-13.041-12.247-13.15-22.03c-0.104-9.236,2.513-17.945,6.349-26.256c8.262-17.899,16.659-35.735,24.967-53.613
		c0.687-1.476,1.216-2.613,3.286-2.599c14.927,0.101,29.855,0.055,44.782,0.066c0.42,0,0.839,0.125,1.562,0.24
		c-0.509,1.182-0.916,2.195-1.376,3.184c-11.628,24.982-23.27,49.958-34.876,74.95c-0.796,1.715-1.515,3.506-1.957,5.338
		c-1.558,6.457,1.914,11.316,8.542,11.47c10.096,0.233,20.2,0.1,30.301,0.121C261.548,175.453,262.751,175.451,264.699,175.451z"/>
	<path fill-rule="evenodd" clip-rule="evenodd" fill="#FFFFFF" d="M100.643,188.567c0.525-1.373,0.853-2.417,1.311-3.399
		c15.866-34.02,31.773-68.021,47.56-102.079c1.078-2.324,2.303-3.305,4.784-2.89c3.967,0.664,8.061,0.845,11.905,1.929
		c12.143,3.425,18.225,13.023,16.781,25.555c-0.922,8.004-3.318,15.536-6.711,22.783c-8.598,18.37-17.276,36.701-25.787,55.11
		c-1.055,2.282-2.252,3.075-4.756,3.052c-13.922-0.126-27.845-0.061-41.768-0.061C102.978,188.567,101.994,188.567,100.643,188.567z
		"/>
	<path fill-rule="evenodd" clip-rule="evenodd" fill="#FFFFFF" d="M145.224,17.647c-5.642,12.493-6.074,24.914-1.056,37.601
		c-37.835,0-75.346,0-113.637,0c5.291-9.44,7.895-19.564,14.935-27.21c6.35-6.896,14.229-10.523,23.889-10.45
		c23.918,0.182,47.838,0.06,71.757,0.06C142.336,17.647,143.561,17.647,145.224,17.647z"/>
	<path fill-rule="evenodd" clip-rule="evenodd" fill="#FFFFFF" d="M185.531,70.209c-18.149-0.017-32.578-14.562-32.528-32.789
		c0.049-17.87,14.79-32.546,32.621-32.475c17.983,0.071,32.72,14.938,32.618,32.906C218.14,55.729,203.484,70.227,185.531,70.209z"
		/>
</g>
</svg>
