<?xml version="1.0" encoding="utf-8"?>
<!-- Generator: Adobe Illustrator 19.0.0, SVG Export Plug-In . SVG Version: 6.00 Build 0)  -->
<svg version="1.1" id="Ebene_1" xmlns="http://www.w3.org/2000/svg" xmlns:xlink="http://www.w3.org/1999/xlink" x="0px" y="0px"
	 viewBox="0 0 199 63" style="enable-background:new 0 0 199 63;" xml:space="preserve">
<style type="text/css">
	.st0{fill:#FFFFFF;}
</style>
<polygon class="st0" points="54.9,24.6 8.1,24.6 12,8.2 58.8,8.2 "/>
<polygon class="st0" points="33.9,55.6 15.6,55.6 22,24.4 40.4,24.4 "/>
<polygon class="st0" points="87.2,30.4 78.7,33.1 61.2,8.3 70.9,8.3 "/>
<polygon class="st0" points="87.2,30.4 77.7,30.4 68,54.9 77.4,54.9 "/>
<g>
	<path class="st0" d="M162.4,48.3V15h11.4v3.8c1-1.1,1.9-1.9,3-2.5c1.1-0.6,2.2-1.1,3.4-1.4c1.2-0.3,2.3-0.5,3.5-0.6
		c1.2-0.1,2.4-0.1,3.6-0.1h1.6v8.6c-1.1-0.1-2.2-0.2-3.4-0.2c-7.4,0-11,2.5-11,7.7v18.1H162.4z"/>
	<path class="st0" d="M137.8,34.1c0.1,2.5,0.9,4.5,2.4,6c1.4,1.5,3.3,2.2,5.6,2.2c1.6,0,2.9-0.3,4.1-1c1.2-0.6,2-1.6,2.3-2.7h9.8
		c-1.1,3.4-3.1,6-5.8,7.9c-2.8,1.8-6.1,2.8-9.9,2.8c-11.9,0-17.9-6-17.9-18c0-2.6,0.4-4.9,1.2-6.9c0.8-2.1,1.9-3.8,3.4-5.3
		c1.5-1.5,3.3-2.6,5.4-3.4c2.1-0.8,4.6-1.2,7.3-1.2c5.5,0,9.7,1.6,12.6,4.9c2.8,3.3,4.3,8.2,4.3,14.8H137.8z M152.7,28.6
		c0-1.2-0.3-2.3-0.7-3.2c-0.4-0.9-1-1.7-1.6-2.3c-0.7-0.6-1.5-1.1-2.3-1.3c-0.9-0.3-1.8-0.4-2.7-0.4c-1.9,0-3.5,0.6-4.9,1.9
		c-1.4,1.3-2.2,3.1-2.4,5.3H152.7z"/>
</g>
<path class="st0" d="M112,13.7c-2.2,0-4.3,0.4-6.3,1.1v-1h-13v40.9h13v-7.3c2,0.7,4.1,1.1,6.3,1.1c9.8,0,17.8-7.8,17.8-17.4
	C129.8,21.5,121.8,13.7,112,13.7z M111.5,40.1c-3.7,0-6.6-3.9-6.6-8.8c0-4.9,3-8.8,6.6-8.8s6.6,3.9,6.6,8.8
	C118.1,36.2,115.1,40.1,111.5,40.1z"/>
</svg>
