<?xml version="1.0" encoding="utf-8"?>
<!-- Generator: Adobe Illustrator 16.0.3, SVG Export Plug-In . SVG Version: 6.00 Build 0)  -->
<!DOCTYPE svg PUBLIC "-//W3C//DTD SVG 1.1//EN" "http://www.w3.org/Graphics/SVG/1.1/DTD/svg11.dtd">
<svg version="1.1" id="Ebene_1" xmlns="http://www.w3.org/2000/svg" xmlns:xlink="http://www.w3.org/1999/xlink" x="0px" y="0px"
	 width="524px" height="217px" viewBox="0 0 524 217" enable-background="new 0 0 524 217" xml:space="preserve">
<path fill-rule="evenodd" clip-rule="evenodd" fill="#FFFFFF" d="M419.807,64c1.339,2.747,3.384,3.765,6.57,3.752
	c29.771-0.123,59.544-0.005,89.314-0.165c3.429-0.018,4.382,0.953,3.984,4.156c-0.439,3.549,1.557,8.329-0.816,10.371
	c-2.041,1.756-6.668,0.565-10.151,0.573c-12.379,0.028-24.758,0.011-37.577,0.011c2.419,5.202,4.271,10.248,4.256,15.841
	c-0.061,22.247-23.147,36.77-42.995,26.753c-3.005-1.516-4.149-0.901-5.959,1.404c-14.206,18.095-28.504,36.117-42.871,54.084
	c-1.347,1.685-1.308,2.749-0.279,4.555c3.898,6.852,3.631,13.751-1.136,20.024c-4.567,6.014-10.894,8.252-18.298,6.503
	c-7.578-1.791-12.162-6.812-13.524-14.376c-1.318-7.323,1.413-13.394,7.436-17.623c6.191-4.349,12.97-4.592,19.368-0.587
	c2.65,1.659,3.594,0.937,5.181-1.079c14.079-17.875,28.215-35.708,42.433-53.473c1.62-2.024,1.834-3.094-0.216-5.098
	c-8.662-8.471-11.042-21.309-6.372-32.543c0.521-1.252,1.098-2.48,1.759-3.969c-1.612-0.732-3.217-0.4-4.742-0.401
	c-134.848-0.017-269.696-0.016-404.544-0.016c-5.171,0-5.171,0-5.172-5.087c0-2.126,0.218-4.281-0.051-6.373
	C5,68.116,6.364,67.619,9.157,67.623c65.047,0.073,130.095,0.057,195.142,0.057c69.926,0,139.852,0,209.777,0
	c1.374,0,2.747,0,4.49,0c-0.781-1.818-2.074-2.838-3.362-3.861c-1.965-3.26-5.728-4.944-7.409-8.452
	c-3.043-3.126-6.211-6.144-9.083-9.42c-1.8-2.052-2.995-2.715-5.776-1.039c-8.988,5.416-20.55,1.567-24.992-7.904
	c-4.442-9.472,0.12-20.69,9.906-24.358c9.836-3.686,20.563,1.627,23.458,11.777c1.468,5.146,0.783,10.122-2.102,14.725
	c-0.543,0.867-1.721,1.653-0.491,2.881c4.563,4.552,8.328,9.897,13.666,13.673C413.797,59.415,416.711,61.788,419.807,64z
	 M445.491,122.586c13.367,0.062,23.996-10.478,24.104-23.896c0.103-12.969-10.619-23.84-23.699-24.03
	c-13.129-0.19-24.178,10.611-24.368,23.822C421.338,111.646,432.155,122.525,445.491,122.586z M384.039,43.657
	c8.291,0.007,14.547-6.153,14.524-14.303c-0.022-8.06-6.536-14.534-14.538-14.446c-7.983,0.087-14.53,6.742-14.424,14.658
	C369.708,37.47,376.04,43.65,384.039,43.657z M367.765,180.281c-8.041,0.032-14.22,6.155-14.278,14.149
	c-0.06,8.104,6.32,14.592,14.349,14.589c8.111-0.003,14.436-6.348,14.434-14.479C382.266,186.354,376.057,180.249,367.765,180.281z"
	/>
<path fill-rule="evenodd" clip-rule="evenodd" fill="#FFFFFF" d="M407.795,55.365c1.682,3.508,5.444,5.192,7.409,8.452
	c-2.123,0.037-4.247,0.107-6.371,0.107C275.865,63.93,142.896,63.931,9.928,63.9c-1.435,0-3.748,0.788-4.155-0.531
	c-0.669-2.17-0.308-4.681-0.234-7.044c0.023-0.738,0.873-0.716,1.493-0.719c1-0.005,2.001-0.007,3.002-0.007
	c130.967,0,261.934,0,392.903-0.011C404.556,55.588,406.175,55.443,407.795,55.365z"/>
<path fill-rule="evenodd" clip-rule="evenodd" fill="#FFFFFF" d="M419.807,64c-3.096-2.212-6.01-4.585-7.426-8.3
	c34.967-0.034,69.934-0.051,104.9-0.144c2.037-0.006,2.667,0.674,2.451,2.576c-0.111,0.986-0.145,2.015,0.004,2.991
	c0.361,2.373-0.627,2.877-2.894,2.861c-14.736-0.106-29.474-0.063-44.211-0.052C455.023,63.946,437.415,63.977,419.807,64z"/>
<path fill-rule="evenodd" clip-rule="evenodd" fill="#FFFFFF" d="M154.271,29.969c0-5.121,0.038-10.242-0.017-15.362
	c-0.024-2.294,0.722-3.307,3.267-3.26c8.24,0.15,16.5-0.248,24.723,0.157c6.038,0.297,8.956,3.608,8.794,8.713
	c-0.024,0.749,0,1.499-0.001,2.248c-0.01,6.278-3.067,9.664-9.346,9.883c-5.613,0.196-11.239,0.04-16.859,0.061
	c-1.681,0.006-3.152-0.432-3.1-2.379c0.053-1.989,1.617-2.159,3.246-2.147c5.246,0.038,10.491,0.053,15.736-0.009
	c4.232-0.05,5.598-1.572,5.6-6c0.002-4.869-0.967-6.041-5.388-6.089c-6.244-0.069-12.492,0.086-18.732-0.073
	c-2.437-0.062-3.187,0.649-3.146,3.121c0.144,8.74,0.071,17.484,0.05,26.227c-0.004,1.707,0.347,3.782-2.292,3.877
	c-2.966,0.106-2.503-2.184-2.52-3.98C154.242,39.961,154.272,34.965,154.271,29.969z"/>
<path fill-rule="evenodd" clip-rule="evenodd" fill="#FFFFFF" d="M132.776,11.402c4.872-0.001,9.744-0.037,14.614,0.022
	c1.305,0.016,3.026-0.745,3.068,1.912c0.042,2.667-1.637,2.376-3.209,2.411c-2.747,0.062-5.515,0.221-8.239-0.035
	c-3.165-0.297-4.323,0.531-4.203,4.01c0.292,8.484,0.115,16.985,0.073,25.479c-0.007,1.431,0.327,3.276-1.693,3.675
	c-2.639,0.521-3.147-1.174-3.139-3.358c0.032-8.619-0.193-17.246,0.114-25.854c0.125-3.502-1.05-4.229-4.174-3.956
	c-2.975,0.259-5.992,0.092-8.988,0.033c-1.448-0.029-2.757-0.367-2.765-2.273c-0.009-2.011,1.33-2.076,2.803-2.071
	C122.283,11.412,127.53,11.403,132.776,11.402z"/>
<path fill-rule="evenodd" clip-rule="evenodd" fill="#FFFFFF" d="M196.593,27.333c0-4.125-0.057-8.251,0.03-12.374
	c0.03-1.453-0.665-3.483,2.006-3.568c2.602-0.083,2.665,1.666,2.664,3.525c-0.006,8-0.018,16,0.005,24
	c0.012,4.45,1.054,5.476,5.556,5.49c7.125,0.021,14.25,0,21.375,0.014c0.997,0.001,2.003,0.024,2.986,0.17
	c1.275,0.189,1.974,0.96,1.929,2.317c-0.045,1.366-0.717,2.065-2.099,2.061c-8.999-0.029-18.005,0.154-26.993-0.175
	c-4.436-0.162-7.384-3.885-7.445-8.334C196.547,36.084,196.594,31.708,196.593,27.333z"/>
<path fill-rule="evenodd" clip-rule="evenodd" fill="#FFFFFF" d="M336.724,30.831c0.624-0.003,1.247-0.003,1.87-0.003
	c8.83,0.001,11.946,3.875,9.986,12.483c-0.366,1.607-1.198,2.994-2.52,4.048c-2.483,1.979-12.989,2.32-15.482,0.478
	c-1.995-1.475-2.125-3.589-1.727-5.743c0.358-1.939,1.75-3.051,3.672-3.154c3.48-0.186,6.977-0.095,10.453-0.324
	c1.247-0.083,3.451,1.017,3.52-1.32c0.054-1.875-1.067-3.736-3.218-4.061c-2.077-0.313-4.219-0.226-6.333-0.267
	c-2.119-0.041-4.239,0.01-6.358-0.047c-0.739-0.02-1.631-0.208-1.573-1.175c0.061-1.027,1.021-0.892,1.726-0.903
	C332.733,30.813,334.729,30.834,336.724,30.831z M339.299,40.885c-1.869,0-3.739-0.027-5.607,0.008
	c-1.694,0.031-3.004,0.745-2.996,2.588c0.006,1.612,0.804,2.923,2.598,3.138c3.349,0.401,6.716,0.448,10.054-0.049
	c2.434-0.362,3.326-2.422,3.253-4.376c-0.088-2.354-2.309-1.041-3.57-1.267C341.822,40.712,340.546,40.882,339.299,40.885z"/>
<path fill-rule="evenodd" clip-rule="evenodd" fill="#FFFFFF" d="M309.719,31.496c3.89-1.295,7.898-0.87,11.79-0.359
	c2.831,0.372,4.047,2.681,3.76,5.561c-0.286,2.857-2.056,4.133-4.783,4.182c-3.113,0.056-6.234-0.094-9.339,0.077
	c-1.293,0.071-3.418-1.032-3.729,1.118c-0.249,1.711,0.901,3.322,2.558,4.23c0.53,0.291,1.181,0.362,1.775,0.534
	c4.195,1.077,8.433,0.491,12.66,0.318c0.737,1.31,0.262,1.781-1.139,1.771c-3.959-0.028-7.935,0.215-11.871-0.076
	c-3.425-0.253-5.732-2.339-6.124-5.868c-0.297-2.68-0.515-5.439,0.686-8.022c0.628,0.141,1.26,0.274,1.892,0.408
	c-1.216,2.666-0.53,3.821,2.553,3.604c2.822-0.199,5.668-0.021,8.504-0.052c1.471-0.016,3.148,0.089,3.907-1.466
	c0.791-1.623,0.165-3.106-1.188-4.262c-1.821-1.525-3.977-0.412-5.949-0.755C313.698,32.097,311.478,33.255,309.719,31.496z"/>
<path fill-rule="evenodd" clip-rule="evenodd" fill="#FFFFFF" d="M302.028,42.298c-0.001,1.498,0.041,2.997-0.019,4.493
	c-0.031,0.789,0.34,2.012-0.937,2.048c-1.365,0.038-1.37-1.154-1.37-2.181c0.001-2.746-0.088-5.496,0.021-8.237
	c0.145-3.677-1.869-5.158-5.196-5.442c-0.495-0.042-0.997-0.007-1.497-0.014c-8.375-0.108-9.014,0.514-9.019,8.755
	c-0.002,1.996-0.013,3.993-0.063,5.988c-0.018,0.699-0.411,1.18-1.174,1.089c-0.593-0.071-0.748-0.579-0.777-1.093
	c-0.227-3.972-0.924-7.989,0.152-11.897c1.257-4.568,5.786-6.107,13.764-4.949c3.792,0.55,6.049,3.385,6.111,7.697
	C302.045,39.801,302.028,41.05,302.028,42.298z"/>
<path fill-rule="evenodd" clip-rule="evenodd" fill="#FFFFFF" d="M274.053,47.339c0.563,1.633-0.57,1.569-1.594,1.572
	c-4.119,0.012-8.251,0.203-12.354-0.052c-3.08-0.191-5.027-2.49-5.373-5.287c-0.456-3.689-0.134-7.475-0.123-11.22
	c0.002-0.586-0.056-1.377,0.815-1.375c1.105,0.003,0.955,0.957,0.966,1.646c0.04,2.621,0.048,5.242,0.026,7.863
	c-0.03,3.44,1.314,5.776,4.956,6.327C265.557,48.025,269.828,47.117,274.053,47.339z"/>
<path fill-rule="evenodd" clip-rule="evenodd" fill="#FFFFFF" d="M279.567,40.05c-0.001,2.23,0.015,4.461-0.009,6.691
	c-0.008,0.703,0.164,1.675-0.86,1.741c-1.046,0.067-0.997-0.876-0.998-1.602c-0.012-4.708-0.017-9.417,0.008-14.125
	c0.003-0.688-0.173-1.736,0.836-1.743c1.287-0.009,0.993,1.185,1.009,1.976C279.597,35.341,279.568,37.696,279.567,40.05z"/>
<path fill-rule="evenodd" clip-rule="evenodd" fill="#FFFFFF" d="M309.719,31.496c1.759,1.759,3.979,0.601,5.961,0.945
	c1.973,0.343,4.128-0.77,5.953,0.756c-3.176-0.035-6.357-0.038-9.537-0.12c-1.887-0.048-3.342,0.579-4.242,2.294
	c-0.632-0.134-1.264-0.268-1.892-0.408C306.647,33.185,307.647,31.759,309.719,31.496z"/>
<path fill-rule="evenodd" clip-rule="evenodd" fill="#FFFFFF" d="M274.053,47.339c-4.225-0.222-8.496,0.686-12.68-0.525
	C265.598,46.996,269.873,46.009,274.053,47.339z"/>
<path fill-rule="evenodd" clip-rule="evenodd" fill="#FFFFFF" d="M324.41,47.158c-4.228,0.172-8.465,0.758-12.66-0.318
	C315.973,46.854,320.21,46.26,324.41,47.158z"/>
<path fill-rule="evenodd" clip-rule="evenodd" fill="#FFFFFF" d="M445.491,122.586c-13.336-0.061-24.153-10.94-23.964-24.104
	c0.19-13.21,11.239-24.012,24.368-23.822c13.08,0.19,23.802,11.061,23.699,24.03C469.487,112.108,458.858,122.647,445.491,122.586z
	 M445.481,77.23c-12.176,0.057-21.298,9.434-21.245,21.837c0.048,11.665,9.577,21.174,21.244,21.202
	c12.11,0.028,22.145-9.829,21.554-22.076C466.36,84.214,457.141,78.179,445.481,77.23z"/>
<path fill-rule="evenodd" clip-rule="evenodd" fill="#FFFFFF" d="M384.039,43.657c-7.999-0.007-14.331-6.187-14.438-14.092
	c-0.106-7.916,6.44-14.57,14.424-14.658c8.002-0.087,14.516,6.386,14.538,14.446C398.586,37.504,392.33,43.665,384.039,43.657z
	 M383.518,42.266c7.572,0.194,13.225-5.037,13.462-12.459c0.213-6.665-5.369-13.281-11.166-13.236
	c-8.644,0.067-14.249,4.82-14.564,12.352C370.95,36.033,376.516,42.086,383.518,42.266z"/>
<path fill-rule="evenodd" clip-rule="evenodd" fill="#FFFFFF" d="M367.765,180.281c8.292-0.032,14.501,6.072,14.504,14.26
	c0.002,8.131-6.322,14.476-14.434,14.479c-8.028,0.003-14.408-6.484-14.349-14.589C353.545,186.437,359.724,180.313,367.765,180.281
	z M368.037,182.424c-8.2,0.123-13.089,4.771-12.983,12.344c0.101,7.179,5.817,12.752,12.961,12.637
	c7.381-0.119,13.009-5.911,12.825-13.199C380.658,187.014,375.548,182.311,368.037,182.424z"/>
</svg>
