<?xml version="1.0" encoding="utf-8"?>
<!-- Generator: Adobe Illustrator 16.0.3, SVG Export Plug-In . SVG Version: 6.00 Build 0)  -->
<!DOCTYPE svg PUBLIC "-//W3C//DTD SVG 1.1//EN" "http://www.w3.org/Graphics/SVG/1.1/DTD/svg11.dtd">
<svg version="1.1" id="Ebene_1" xmlns="http://www.w3.org/2000/svg" xmlns:xlink="http://www.w3.org/1999/xlink" x="0px" y="0px"
	 width="283px" height="56px" viewBox="0 0 283 56" enable-background="new 0 0 283 56" xml:space="preserve">
<image display="none" overflow="visible" width="346" height="113" xlink:href="../../../../../Desktop/trasfer.png"  transform="matrix(1 0 0 1 -31.208 30.541)">
</image>
<path fill="#FFFFFF" stroke="#000000" stroke-miterlimit="10" d="M6.333,52.333"/>
<path fill="none" d="M170.573,52.333l10.219-44h105.333h6c0,0,14.209-0.708,10.667,14.333l-7,29.667H170.573z"/>
<g>
	<path fill="#FFFFFF" d="M70.042,19.625h-5.833l-2.167,9l6.917-0.042c5,0,4.521-4.354,4.521-4.354
		C73.313,19.813,70.042,19.625,70.042,19.625z"/>
	<polygon fill="#FFFFFF" points="100,34.917 108.25,34.917 107.125,22.094 	"/>
	<path fill="#FFFFFF" d="M16.333,8.333l-10.667,44H170.5l10.25-44H16.333z M32.583,49.167H21.75l7.346-28.083H17.917l1.75-8h32.5
		l-2,8H39.296L32.583,49.167z M109.5,49.125l-0.75-7.875H96.5L92.125,49l-10.938,0.031L81.207,49h-9.082l-7.25-13h-4.5l-2.917,12.75
		H47.5L56,13h17.063c0,0,11.188-0.708,11.271,10.792c0,0-0.021,8.771-10.271,10.396l8.101,13.24L103.25,12.75h11.25l5,36.375H109.5z
		 M158.313,24.563c0,0-4.688-5.438-16.063-4.75c0,0-1.871,0.053-2.916,1.063c-1.022,0.987-1.5,2.979,0.604,4
		c0,0,3.063,1.646,9.813,3.438c0,0,9.208,2.083,8.125,10.625c0,0-1.25,9.438-14.813,10.625c0,0-11.688,1.188-18.938-3l3-9.625
		c0,0,6.563,7,18.25,4.75c0,0,2.531-0.344,2.688-2.5c0,0,0.375-1.938-2.813-3.125c0,0-9.938-3-13.875-6.313
		c0,0-4.563-3.813-1.625-9.938c0,0,3.125-7.5,15.063-7.375c0,0,10.125,0,16,2.375L158.313,24.563z"/>
</g>
<path fill="#FFFFFF" d="M279,24.292c-0.084-11.5-11.271-10.792-11.271-10.792h-17.063l-8.5,35.75h9.959l2.916-12.75h4.5l7.25,13h11
	l-9.063-14.813C278.979,33.063,279,24.292,279,24.292z M263.625,29.083l-6.916,0.042l2.166-9h5.834c0,0,3.27,0.188,3.437,4.604
	C268.146,24.729,268.625,29.083,263.625,29.083z"/>
<polygon fill="#FFFFFF" points="209.25,21 211.417,13.833 185.424,13.833 185.313,13.813 177.188,49.625 187.594,49.597 190.688,34 
	205.471,34 207.501,26.833 192.108,26.833 193.266,21 "/>
<polygon fill="#FFFFFF" points="241.583,21 243.75,13.833 217.757,13.833 217.646,13.813 209.521,49.625 219.927,49.597 
	219.93,49.583 235.078,49.583 237.245,42.417 221.351,42.417 223.021,34 237.804,34 239.834,26.833 224.441,26.833 225.599,21 "/>
</svg>
