<?xml version="1.0" encoding="utf-8"?>
<!-- Generator: Adobe Illustrator 16.0.3, SVG Export Plug-In . SVG Version: 6.00 Build 0)  -->
<!DOCTYPE svg PUBLIC "-//W3C//DTD SVG 1.1//EN" "http://www.w3.org/Graphics/SVG/1.1/DTD/svg11.dtd">
<svg version="1.1" id="Ebene_1" xmlns="http://www.w3.org/2000/svg" xmlns:xlink="http://www.w3.org/1999/xlink" x="0px" y="0px"
	 width="400px" height="98.313px" viewBox="0 0 400 98.313" enable-background="new 0 0 400 98.313" xml:space="preserve">
<path fill-rule="evenodd" clip-rule="evenodd" fill="#FFFFFF" d="M128.351,36.379c-0.755,1.491-1.392,2.848-2.137,4.144
	c-0.163,0.283-0.704,0.458-1.085,0.486c-2.565,0.188-5.134,0.325-7.702,0.476c-9.123,0.536-15.583,6.279-17.04,15.316
	c-0.396,2.461-0.48,4.98-0.593,7.479c-0.419,9.268-3.46,17.362-10.531,23.647c-5.07,4.507-11.1,7.079-17.656,8.516
	c-5.933,1.302-11.947,1.688-18.012,1.671c-17.145-0.046-34.29-0.016-51.434-0.016c-0.432,0-0.864,0-1.497,0
	c0.774-1.604,1.458-3.102,2.239-4.546c0.119-0.22,0.695-0.265,1.06-0.266c6.717-0.015,13.435-0.027,20.152-0.007
	c6.732,0.021,13.31-0.841,19.642-3.249c6.169-2.346,11.022-6.347,15.134-11.462c5.919-7.363,10.56-15.487,14.82-23.866
	c2.133-4.194,4.351-8.345,6.505-12.529c0.322-0.625,0.719-0.935,1.441-1.008c10.597-1.072,21.192-2.167,31.786-3.265
	c4.782-0.496,9.561-1.014,14.342-1.52C127.916,36.367,128.048,36.379,128.351,36.379z"/>
<path fill-rule="evenodd" clip-rule="evenodd" fill="#FFFFFF" d="M33.968,32.388c0.104-0.262,0.179-0.51,0.295-0.739
	c1.724-3.392,3.461-6.776,5.181-10.17c5.532-10.92,14.49-17.176,26.402-19.422c4.942-0.932,9.931-1.234,14.952-1.23
	c21.427,0.017,42.853,0.007,64.28,0.007c0.36,0,0.721,0,1.268,0c-0.806,1.593-1.505,3.058-2.304,4.466
	c-0.128,0.227-0.696,0.285-1.061,0.286c-7.521,0.016-15.043-0.033-22.563,0.025c-7.186,0.055-14.357,0.391-21.463,1.573
	c-5.554,0.924-10.947,2.363-15.998,4.931c-6.842,3.479-11.974,8.765-16.054,15.158c-0.952,1.491-1.784,3.058-2.729,4.552
	c-0.19,0.301-0.642,0.622-0.974,0.623c-9.626,0.032-19.253,0.025-28.88,0.021C34.227,32.467,34.132,32.426,33.968,32.388z"/>
<path fill-rule="evenodd" clip-rule="evenodd" fill="#FFFFFF" d="M4.871,89.779c0.535-1.063,0.996-1.98,1.459-2.898
	c6.584-13.011,13.175-26.02,19.741-39.04c0.357-0.708,0.78-1.006,1.587-1.083c5.648-0.537,11.291-1.138,16.935-1.714
	c4.117-0.421,8.235-0.838,12.354-1.25c0.322-0.032,0.65-0.004,1.074-0.004c-0.107,0.269-0.162,0.454-0.25,0.622
	c-5.44,10.353-11.237,20.494-17.978,30.065c-3.243,4.604-7.102,8.6-12.137,11.305c-3.975,2.136-8.27,3.196-12.719,3.601
	c-3.056,0.277-6.133,0.314-9.201,0.452C5.507,89.846,5.277,89.808,4.871,89.779z"/>
<path fill-rule="evenodd" clip-rule="evenodd" fill="#FFFFFF" d="M85.524,32.413c3.983-7.179,8.421-13.697,15.956-17.396
	c4.297-2.11,8.864-3.322,13.548-4.102c8.688-1.447,17.462-1.788,26.252-1.858c0.228-0.002,0.457,0.029,0.781,0.051
	c-0.109,0.295-0.174,0.542-0.287,0.766c-3.695,7.293-7.402,14.581-11.081,21.883c-0.283,0.562-0.617,0.751-1.231,0.75
	c-14.37-0.019-28.74-0.019-43.11-0.025C86.127,32.481,85.903,32.445,85.524,32.413z"/>
<path fill-rule="evenodd" clip-rule="evenodd" fill="#FFFFFF" d="M149.324,98.016c0.303-0.646,0.52-1.122,0.749-1.592
	c3.954-8.13,7.92-16.254,11.847-24.396c0.389-0.808,0.541-1.729,0.848-2.749c0.036-0.002,0.327-0.032,0.619-0.032
	c4.978-0.003,9.957-0.015,14.935,0.01c0.896,0.004,1.811,0.071,2.684,0.261c3.618,0.785,4.958,3.328,4.661,6.965
	c-0.384,4.714-3.306,7.57-7.506,9.245c-0.759,0.303-0.852,0.562-0.682,1.287c0.671,2.854,1.242,5.733,1.917,8.587
	c0.187,0.789,0.601,1.525,0.93,2.332c-2.397,0-4.873,0-7.458,0c-0.475-2.352-0.956-4.728-1.435-7.104
	c-0.27-1.34-0.57-2.675-0.79-4.022c-0.104-0.641-0.402-0.811-1.005-0.803c-2.105,0.026-4.21,0.035-6.314-0.005
	c-0.643-0.012-0.948,0.252-1.208,0.796c-1.657,3.46-3.355,6.901-5.002,10.366c-0.296,0.623-0.633,0.892-1.354,0.873
	C153.69,97.98,151.621,98.016,149.324,98.016z M164.749,81.435c3.073,0,5.991,0.247,8.846-0.074c2.491-0.28,4.326-1.836,4.92-4.473
	c0.41-1.817-0.454-3.051-2.305-3.162c-1.496-0.09-3.026,0.129-4.494-0.096c-2.488-0.381-3.844,0.576-4.635,2.919
	C166.514,78.229,165.556,79.778,164.749,81.435z"/>
<path fill-rule="evenodd" clip-rule="evenodd" fill="#FFFFFF" d="M244.651,89.388c0.273-0.523,0.448-0.839,0.606-1.163
	c2.542-5.22,5.099-10.432,7.606-15.667c0.474-0.99,0.748-2.076,1.162-3.253c1.604,0,3.488,0,5.488,0
	c-0.186,0.407-0.327,0.736-0.483,1.059c-4.351,8.94-8.711,17.876-13.035,26.828c-0.331,0.685-0.712,0.915-1.444,0.873
	c-1.1-0.063-2.208-0.069-3.307,0.002c-0.767,0.05-1.098-0.219-1.346-0.942c-2.209-6.434-4.457-12.854-6.697-19.276
	c-0.129-0.37-0.28-0.732-0.501-1.306c-0.271,0.523-0.453,0.857-0.619,1.199c-3.125,6.42-6.268,12.831-9.349,19.271
	c-0.398,0.831-0.854,1.11-1.739,1.055c-1.227-0.076-2.462-0.019-3.836-0.019c0.211-0.465,0.362-0.823,0.532-1.172
	c4.028-8.281,8.068-16.557,12.07-24.851c0.391-0.808,0.551-1.728,0.87-2.765c1.995,0,4.261-0.028,6.523,0.04
	c0.257,0.008,0.605,0.527,0.728,0.874c1.915,5.406,3.798,10.823,5.692,16.236C243.9,87.343,244.245,88.268,244.651,89.388z"/>
<path fill-rule="evenodd" clip-rule="evenodd" fill="#FFFFFF" d="M200.252,80.669c4.989,0,9.713,0,14.612,0
	c-0.896,1.85-1.718,3.548-2.594,5.357c-0.792-0.952-1.801-0.96-2.841-0.953c-3.441,0.021-6.884,0.028-10.324-0.008
	c-0.737-0.008-1.145,0.227-1.459,0.9c-1.028,2.207-2.12,4.385-3.182,6.576c-0.127,0.264-0.221,0.542-0.419,1.034
	c6.977-0.236,13.818,0.314,20.676-0.335c-0.666,1.363-1.387,2.92-2.201,4.426c-0.127,0.233-0.678,0.333-1.032,0.334
	c-6.916,0.02-13.833,0.015-20.749,0.015c-2.036,0-4.071,0-6.293,0c0.205-0.463,0.347-0.813,0.511-1.149
	c4.045-8.309,8.103-16.61,12.125-24.93c0.378-0.783,0.542-1.672,0.852-2.66c7.925,0,16.089,0,24.438,0
	c-0.857,1.768-1.678,3.457-2.589,5.333c-0.75-1.168-1.843-1.028-2.902-1.027c-4.076,0.005-8.152,0.018-12.229-0.014
	c-0.695-0.005-1.084,0.202-1.381,0.844C202.337,76.431,201.342,78.422,200.252,80.669z"/>
<path fill-rule="evenodd" clip-rule="evenodd" fill="#FFFFFF" d="M390.324,69.303c2.224,0,4.687,0,7.259,0
	c0.125,2.06,0.267,4.08,0.368,6.104c0.36,7.138,0.689,14.276,1.079,21.412c0.055,0.997-0.162,1.359-1.223,1.307
	c-1.794-0.088-3.595-0.024-5.594-0.024c0-1.829,0.015-3.554-0.004-5.278c-0.015-1.297-0.034-1.301-1.363-1.302
	c-3.976-0.002-7.951,0.011-11.927-0.011c-0.658-0.004-1.117,0.184-1.538,0.712c-1.396,1.749-2.814,3.482-4.292,5.162
	c-0.322,0.366-0.917,0.662-1.4,0.685c-1.759,0.081-3.522,0.032-5.552,0.032c0.441-0.528,0.724-0.877,1.017-1.217
	c7.091-8.221,14.192-16.434,21.26-24.675C389.11,71.397,389.604,70.412,390.324,69.303z M391.868,86.882c0-3.962,0-7.831,0-11.699
	c-0.099-0.028-0.198-0.057-0.297-0.086c-3.208,3.873-6.416,7.746-9.762,11.785C385.355,86.882,388.616,86.882,391.868,86.882z"/>
<path fill-rule="evenodd" clip-rule="evenodd" fill="#FFFFFF" d="M318.094,69.304c2.236,0,4.699,0,7.265,0
	c0.492,9.558,0.982,19.077,1.476,28.668c-2.281,0-4.439,0-6.818,0c0-2.116,0-4.265,0-6.536c-0.578,0-0.937,0-1.295,0
	c-3.976,0-7.951,0.02-11.927-0.019c-0.753-0.007-1.231,0.241-1.686,0.817c-1.198,1.522-2.528,2.944-3.661,4.512
	c-0.755,1.043-1.604,1.41-2.858,1.316c-1.456-0.107-2.927-0.024-4.577-0.024c0.282-0.375,0.456-0.637,0.66-0.873
	c7.177-8.324,14.364-16.639,21.521-24.98C316.887,71.375,317.383,70.394,318.094,69.304z M319.642,75.215
	c-0.104-0.046-0.208-0.091-0.313-0.136c-3.206,3.87-6.411,7.739-9.793,11.821c3.33,0,6.303-0.031,9.273,0.02
	c0.874,0.015,1.06-0.302,1.034-1.103c-0.1-3.072-0.141-6.147-0.201-9.221C319.634,76.136,319.642,75.675,319.642,75.215z"/>
<path fill-rule="evenodd" clip-rule="evenodd" fill="#FFFFFF" d="M157.553,69.375c-0.837,1.735-1.656,3.434-2.565,5.321
	c-0.725-1.165-1.798-0.971-2.814-0.974c-1.838-0.006-3.676,0.03-5.513-0.018c-0.732-0.019-1.12,0.211-1.45,0.891
	c-3.633,7.508-7.315,14.991-10.947,22.5c-0.343,0.709-0.728,0.963-1.513,0.94c-2.033-0.061-4.069-0.021-6.332-0.021
	c3.956-8.116,7.842-16.092,11.806-24.223c-0.501-0.03-0.846-0.068-1.191-0.069c-2.272-0.005-4.545-0.051-6.815,0.016
	c-1.33,0.038-2.654,0.257-3.949,0.392c0.663-1.358,1.416-2.941,2.219-4.498c0.103-0.198,0.469-0.371,0.714-0.371
	c9.321-0.016,18.643-0.01,27.965-0.004C157.256,69.258,157.345,69.31,157.553,69.375z"/>
<path fill-rule="evenodd" clip-rule="evenodd" fill="#FFFFFF" d="M289.933,73.647c-4.187,0.379-8.162-0.509-12.102,0.636
	c0.732-1.502,1.484-3.081,2.285-4.635c0.104-0.202,0.464-0.386,0.705-0.386c9.355-0.015,18.711-0.007,28.066,0.002
	c0.057,0,0.112,0.051,0.29,0.137c-0.818,1.698-1.638,3.395-2.538,5.262c-0.803-1.159-1.938-0.935-3.012-0.939
	c-1.804-0.01-3.609,0.032-5.412-0.02c-0.717-0.021-1.055,0.247-1.359,0.875c-3.639,7.505-7.317,14.99-10.953,22.497
	c-0.337,0.696-0.697,0.993-1.5,0.961c-1.734-0.07-3.475-0.02-5.212-0.024c-0.32-0.001-0.641-0.031-1.108-0.056
	C282.022,89.877,285.902,81.918,289.933,73.647z"/>
<path fill-rule="evenodd" clip-rule="evenodd" fill="#FFFFFF" d="M339.767,93.601c4.823-0.312,9.397,0.392,14.051-0.493
	c-0.547,1.125-1.202,2.26-1.655,3.47c-0.428,1.143-1.068,1.488-2.298,1.473c-6.112-0.075-12.227-0.034-18.341-0.034
	c-0.363,0-0.727,0-1.266,0c0.205-0.47,0.345-0.822,0.511-1.162c4.046-8.306,8.105-16.605,12.129-24.922
	c0.379-0.784,0.538-1.675,0.845-2.658c2.382,0,5,0,7.814,0C347.644,77.348,343.772,85.336,339.767,93.601z"/>
<path fill-rule="evenodd" clip-rule="evenodd" fill="#FFFFFF" d="M355.155,98.016c1.004-2.077,1.911-3.965,2.828-5.849
	c3.139-6.451,6.293-12.894,9.407-19.356c0.522-1.083,0.874-2.249,1.368-3.542c2.346,0,4.969,0,7.728,0
	c-0.156,0.37-0.276,0.698-0.429,1.012c-4.34,8.91-8.693,17.813-13.006,26.736c-0.378,0.782-0.813,1.05-1.671,1.021
	C359.38,97.969,357.376,98.016,355.155,98.016z"/>
<path fill-rule="evenodd" clip-rule="evenodd" fill="#FFFFFF" d="M274.7,69.269c-0.192,0.435-0.315,0.736-0.457,1.028
	c-4.338,8.904-8.689,17.802-12.995,26.723c-0.382,0.791-0.816,1.044-1.667,1.017c-1.996-0.064-3.996-0.021-6.201-0.021
	c0.236-0.517,0.399-0.895,0.58-1.265c4.027-8.275,8.067-16.546,12.068-24.834c0.375-0.776,0.512-1.669,0.8-2.648
	C269.239,69.269,271.89,69.269,274.7,69.269z"/>
</svg>
