<?xml version="1.0" encoding="utf-8"?>
<!-- Generator: Adobe Illustrator 16.0.3, SVG Export Plug-In . SVG Version: 6.00 Build 0)  -->
<!DOCTYPE svg PUBLIC "-//W3C//DTD SVG 1.1//EN" "http://www.w3.org/Graphics/SVG/1.1/DTD/svg11.dtd">
<svg version="1.1" id="Ebene_1" xmlns="http://www.w3.org/2000/svg" xmlns:xlink="http://www.w3.org/1999/xlink" x="0px" y="0px"
	 width="480.5px" height="52.333px" viewBox="0 0 480.5 52.333" enable-background="new 0 0 480.5 52.333" xml:space="preserve">
<g>
	<path fill-rule="evenodd" clip-rule="evenodd" fill="#FFFFFF" d="M407.777,45.815c-0.349,1.922-0.349,1.922-2.063,1.922
		c-3.791,0.001-7.582,0.024-11.372-0.022c-0.641-0.008-1.354-0.188-1.907-0.508c-9.79-5.681-19.555-11.406-29.347-17.084
		c-0.815-0.473-0.977-0.918-0.713-1.793c0.541-1.791,1.017-3.606,1.399-5.436c0.202-0.964,0.603-1.274,1.594-1.269
		c7.581,0.04,15.162,0.022,22.743,0.021c4.669,0,9.338,0.016,14.006-0.008c3.239-0.016,4.336-0.807,5.286-3.904
		c0.359-1.167,0.62-2.399,0.684-3.615c0.08-1.523-0.732-2.364-2.232-2.613c-0.508-0.084-1.033-0.09-1.55-0.09
		c-16.121-0.009-32.241-0.013-48.361-0.018c-0.389,0-0.777,0-0.97,0c0.291,2.751,0.967,5.418,0.781,8.024
		c-0.774,10.875-5.063,19.773-15.18,25.01c-4.4,2.277-9.202,3.18-14.1,3.237c-5.097,0.06-10.2-0.146-15.293-0.388
		c-1.524-0.072-3.065-0.537-4.529-1.03c-6.062-2.043-9.242-6.427-9.054-12.836c0.2-6.805,2.213-13.105,6.146-18.699
		c4.331-6.16,10.476-9.435,17.773-10.615c2.743-0.443,5.551-0.672,8.33-0.677c24.819-0.051,49.639-0.044,74.457-0.002
		c2.016,0.003,4.078,0.196,6.036,0.655c4.825,1.132,7.045,4.466,6.085,9.32c-0.631,3.188-1.583,6.33-2.62,9.417
		c-1.419,4.222-4.629,6.322-8.964,6.513c-4.898,0.217-9.808,0.199-14.712,0.249c-3.223,0.033-6.446,0.007-9.67,0.007
		c-0.04,0.1-0.079,0.199-0.119,0.299C389.5,35.201,398.657,40.518,407.777,45.815z M323.309,39.984
		c0.006-0.079,0.012-0.158,0.017-0.237c1.755,0,3.514,0.068,5.265-0.012c7.045-0.323,12.315-3.435,14.995-10.117
		c1.011-2.521,1.669-5.236,2.101-7.924c0.836-5.209-1.731-8.93-6.924-9.784c-5.804-0.955-11.695-0.959-17.491,0.085
		c-4.841,0.873-8.361,3.775-10.602,8.161c-1.538,3.008-2.455,6.202-2.799,9.574c-0.517,5.052,1.823,8.577,6.771,9.502
		C317.478,39.761,320.416,39.751,323.309,39.984z"/>
	<path fill-rule="evenodd" clip-rule="evenodd" fill="#FFFFFF" d="M89.269,47.737c3.252-12.188,6.448-24.167,9.686-36.301
		c-10.101,0-20.053,0-30.193,0c0.7-2.649,1.347-5.138,2.036-7.615c0.051-0.183,0.39-0.35,0.623-0.404
		c0.303-0.07,0.634-0.022,0.954-0.022c30.762,0,61.525-0.018,92.288,0.037c2.244,0.004,4.56,0.271,6.713,0.877
		c4.252,1.197,6.275,4.479,5.399,8.787c-0.672,3.302-1.635,6.564-2.721,9.758c-1.432,4.21-4.658,6.326-8.995,6.475
		c-6.176,0.211-12.361,0.185-18.542,0.248c-1.901,0.02-3.803,0.003-5.801,0.259c0.412,0.259,0.817,0.53,1.238,0.773
		c8.412,4.882,16.823,9.763,25.241,14.634c0.62,0.358,1.06,0.62,0.802,1.553c-0.256,0.922-0.756,0.951-1.481,0.949
		c-3.95-0.016-7.9,0.013-11.85-0.029c-0.603-0.006-1.274-0.175-1.794-0.477c-9.826-5.7-19.628-11.438-29.452-17.142
		c-0.727-0.422-0.997-0.788-0.723-1.671c0.567-1.822,1.037-3.68,1.435-5.547c0.205-0.965,0.625-1.259,1.605-1.254
		c8.299,0.039,16.598,0.022,24.897,0.021c3.91,0,7.82,0.017,11.73-0.007c3.308-0.021,4.474-0.862,5.451-4.057
		c0.345-1.128,0.557-2.33,0.608-3.507c0.064-1.463-0.711-2.282-2.167-2.542c-0.584-0.104-1.19-0.116-1.786-0.117
		c-18.075-0.011-36.149-0.003-54.224-0.047c-1.104-0.003-1.484,0.381-1.749,1.381c-2.984,11.277-6.025,22.54-9.001,33.82
		c-0.243,0.92-0.605,1.21-1.53,1.187c-2.432-0.06-4.867-0.021-7.301-0.021C90.281,47.737,89.896,47.737,89.269,47.737z"/>
	<path fill-rule="evenodd" clip-rule="evenodd" fill="#FFFFFF" d="M234.435,47.657c3.254-12.124,6.47-24.102,9.74-36.278
		c-19.537,0-38.931,0-58.502,0c0.715-2.609,1.357-5.017,2.057-7.408c0.071-0.244,0.471-0.434,0.758-0.556
		c0.203-0.087,0.472-0.02,0.711-0.02c28.09,0,56.181,0.003,84.271-0.003c3.815-0.001,7.489,0.601,10.727,2.744
		c5.486,3.63,7.966,8.903,7.009,15.293c-0.774,5.171-2.416,10.214-3.712,15.304c-0.845,3.318-1.778,6.614-2.625,9.932
		c-0.198,0.774-0.495,1.113-1.363,1.096c-2.862-0.059-5.728-0.022-8.768-0.022c0.715-2.682,1.395-5.202,2.058-7.726
		c1.52-5.775,3.081-11.54,4.508-17.338c0.346-1.406,0.438-2.946,0.293-4.388c-0.382-3.787-2.798-6.025-7.021-6.605
		c-1.73-0.238-3.494-0.306-5.245-0.322c-4.588-0.043-9.178,0.022-13.765-0.041c-1.098-0.015-1.576,0.258-1.873,1.385
		c-2.952,11.204-5.992,22.385-8.947,33.588c-0.301,1.141-0.756,1.525-1.934,1.477c-2.35-0.098-4.707-0.025-7.061-0.032
		C235.369,47.733,234.987,47.691,234.435,47.657z"/>
	<path fill-rule="evenodd" clip-rule="evenodd" fill="#FFFFFF" d="M415.644,47.696c0.814-3.044,1.553-5.807,2.295-8.567
		c3.107-11.573,6.222-23.145,9.314-34.722c0.174-0.649,0.355-1.02,1.153-1.031c8.184-0.11,16.253,0.616,24.034,3.334
		c8.697,3.038,16.109,7.837,21.103,15.82c4.11,6.571,4.938,13.687,3.35,21.163c-0.278,1.309-0.342,3.002-1.186,3.748
		c-0.733,0.649-2.43,0.247-3.7,0.248c-18.153,0.008-36.307,0.006-54.461,0.006C416.997,47.696,416.448,47.696,415.644,47.696z
		 M427.769,39.677c0.347,0.05,0.499,0.091,0.651,0.091c12.919,0.004,25.838-0.001,38.756,0.02c0.801,0.002,0.998-0.32,1.06-1.048
		c0.703-8.396-2.568-15.04-9.118-20.067c-6.591-5.059-14.284-6.974-22.465-7.294c-0.969-0.038-1.368,0.23-1.62,1.2
		c-1.539,5.93-3.156,11.84-4.748,17.756C429.459,33.404,428.632,36.472,427.769,39.677z"/>
	<path fill-rule="evenodd" clip-rule="evenodd" fill="#FFFFFF" d="M37.134,47.787c1.705-1.318,2.935-2.696,3.464-4.566
		c0.64-2.264,0.079-4.435-0.635-6.556c-2.951-8.76-8.634-15.418-16.073-20.698c-3.728-2.646-7.81-4.613-12.079-6.211
		c-0.294-0.11-0.583-0.232-0.867-0.347c0.854-3.431,3.87-6.003,7.342-6.019c11.885-0.054,23.77-0.066,35.655-0.003
		c4.44,0.023,7.523,4.305,6.342,8.859c-2.556,9.862-5.207,19.701-7.909,29.524c-1.039,3.777-4.202,6.008-8.101,6.016
		C41.979,47.791,39.685,47.787,37.134,47.787z"/>
	<path fill-rule="evenodd" clip-rule="evenodd" fill="#FFFFFF" d="M7.53,21.875c3.671,0.298,7.115,0.721,10.566,0.798
		c1.744,0.039,3.5-0.564,5.256-0.837c0.3-0.046,0.717,0.01,0.938,0.191c4.08,3.356,7.998,6.898,10.657,11.531
		c0.888,1.546,1.449,3.369,1.758,5.136c0.441,2.524-0.753,4.497-3.076,5.503c-1.583,0.687-3.324,1.27-5.027,1.38
		c-9.011,0.584-17.477-1.464-25.44-5.675c-0.103-0.054-0.189-0.14-0.376-0.281C4.377,33.668,5.977,27.685,7.53,21.875z"/>
	<path fill-rule="evenodd" clip-rule="evenodd" fill="#FFFFFF" d="M180.775,29.553c0.726-2.66,1.372-5.073,2.063-7.472
		c0.063-0.216,0.409-0.408,0.664-0.494c0.25-0.085,0.552-0.021,0.831-0.021c15.83,0,31.66,0,47.49,0c0.393,0,0.786,0,1.361,0
		c-0.602,2.273-1.243,4.397-1.705,6.56c-0.25,1.169-0.772,1.458-1.924,1.454c-15.71-0.04-31.42-0.026-47.13-0.026
		C181.953,29.553,181.481,29.553,180.775,29.553z"/>
	<path fill-rule="evenodd" clip-rule="evenodd" fill="#FFFFFF" d="M228.354,39.775c-0.734,2.652-1.387,5.066-2.09,7.465
		c-0.063,0.214-0.438,0.401-0.703,0.476c-0.296,0.082-0.633,0.021-0.952,0.021c-15.641,0-31.282,0-46.923,0
		c-0.502,0-1.005,0-1.712,0c0.431-1.7,0.791-3.195,1.192-4.68c0.29-1.071,0.328-2.532,1.043-3.076
		c0.72-0.548,2.139-0.202,3.251-0.202c15.083-0.006,30.165-0.004,45.248-0.004C227.18,39.775,227.652,39.775,228.354,39.775z"/>
</g>
</svg>
