<?xml version="1.0" encoding="utf-8"?>
<!-- Generator: Adobe Illustrator 16.0.3, SVG Export Plug-In . SVG Version: 6.00 Build 0)  -->
<!DOCTYPE svg PUBLIC "-//W3C//DTD SVG 1.1//EN" "http://www.w3.org/Graphics/SVG/1.1/DTD/svg11.dtd">
<svg version="1.1" id="Ebene_1" xmlns="http://www.w3.org/2000/svg" xmlns:xlink="http://www.w3.org/1999/xlink" x="0px" y="0px"
	 width="348.958px" height="143.713px" viewBox="0 0 348.958 143.713" enable-background="new 0 0 348.958 143.713"
	 xml:space="preserve">
<g>
	<polygon fill="#FFFFFF" points="3.825,106.646 3.825,112.628 14.61,112.628 14.61,135.125 19.88,135.125 19.88,112.368 
		28.95,112.368 28.95,106.646 	"/>
	<path fill="#FFFFFF" d="M20.135,135.38h-5.78v-22.498H3.57v-6.491h25.635v6.231h-9.069V135.38z M14.865,134.871h4.761v-22.758
		h9.069v-5.212H4.08v5.472h10.785V134.871z"/>
</g>
<polygon fill="#FFFFFF" points="176.514,111.441 176.514,116.357 185.146,116.357 185.146,134.845 189.365,134.845 189.365,116.144 
	196.623,116.144 196.623,111.441 "/>
<polygon fill="#FFFFFF" points="316.264,111.441 316.264,116.357 324.896,116.357 324.896,134.845 329.115,134.845 329.115,116.144 
	336.373,116.144 336.373,111.441 "/>
<g>
	<path fill="#FFFFFF" d="M34.943,115.271v19.854h-4.531v-23.604c0,0,10.844-0.813,12.719,2.75c0,0,2.063,2.313,0.563,6.125
		c0,0-1.271,2.729-3.208,3.479l6.917,8.333l-3.583,2.583l-8.688-11.364c0,0,4.219-0.906,4.625-4.813
		C39.755,118.615,39.943,114.677,34.943,115.271z"/>
	<path fill="#FFFFFF" d="M35.193,135.375h-5.031v-24.087l0.231-0.018c0.011,0,1.091-0.08,2.602-0.08
		c4.013,0,9.068,0.515,10.357,2.964c0.054,0.049,2.113,2.422,0.574,6.333c-0.056,0.122-1.209,2.563-3.038,3.482l6.877,8.285
		l-3.998,2.881l-8.574-11.216V135.375z M30.662,134.875h4.031v-19.827l0.221-0.025c1.851-0.223,3.252,0.142,4.133,1.066
		c1.016,1.064,0.961,2.478,0.958,2.537c-0.348,3.351-3.384,4.603-4.452,4.941l8.316,10.879l3.169-2.285l-6.967-8.395l0.324-0.125
		c1.823-0.705,3.06-3.325,3.072-3.352c1.421-3.613-0.503-5.831-0.522-5.854c-1.27-2.396-6.776-2.746-9.949-2.746
		c-1.083,0-1.941,0.041-2.333,0.064V134.875z M35.193,115.496v7.659c0.675-0.175,3.963-1.198,4.314-4.565l0,0
		c0,0,0.042-1.253-0.826-2.159C37.947,115.664,36.772,115.348,35.193,115.496z"/>
</g>
<path fill="#FFFFFF" d="M204.193,115.271v19.854h-4.531v-23.604c0,0,10.844-0.813,12.719,2.75c0,0,2.063,2.313,0.563,6.125
	c0,0-1.271,2.729-3.208,3.479l6.917,8.333l-3.584,2.583l-8.688-11.364c0,0,4.219-0.906,4.625-4.813
	C209.005,118.615,209.193,114.677,204.193,115.271z"/>
<path fill="#FFFFFF" d="M305.193,115.271v19.854h-4.531v-23.604c0,0,10.844-0.813,12.719,2.75c0,0,2.063,2.313,0.563,6.125
	c0,0-1.271,2.729-3.208,3.479l6.917,8.333l-3.584,2.583l-8.688-11.364c0,0,4.219-0.906,4.625-4.813
	C310.005,118.615,310.193,114.677,305.193,115.271z"/>
<g>
	<polygon fill="#FFFFFF" points="61.735,111.441 61.735,115.842 55.068,115.842 55.068,121.772 61.735,121.772 61.735,125.553 
		55.068,125.553 55.068,130.71 61.735,130.71 61.735,134.792 50.651,134.792 50.651,111.441 	"/>
	<path fill="#FFFFFF" d="M61.989,135.045H50.397v-23.858h11.591v4.909h-6.667v5.422h6.667v4.289h-6.667v4.649h6.667V135.045z
		 M50.905,134.538h10.576v-3.573h-6.667v-5.665h6.667v-3.273h-6.667v-6.438h6.667v-3.894H50.905V134.538z"/>
</g>
<g>
	<path fill="#FFFFFF" d="M82.881,112.719c-2.926,3.377-4.573,6.01-5.993,8.192l6.07,5.844L82.881,112.719z"/>
	<path fill="#FFFFFF" d="M268.617,74.685l-1.33-0.821C215.652,48.75,169.585,63.01,169.585,63.01
		c-49.283,14.728-74.436,35.725-86.311,49.258h3.492v23.575h-1.605L74.234,124.92c-0.232,0.449-0.338,0.688-0.338,0.688
		c-5.83,16.913,6.97,18.048,6.97,18.048c7.73,0.631,11.279-4.164,11.279-4.164c1.918-2.57,3.261-5.389,5.268-8.346l0.008-13.854
		l-8.469,0.023v-4.961h20.894v4.838l-7.341-0.016l-0.007,9.49c32.059-36.832,63.235-46.661,63.235-46.661
		c32.951-15.65,82.88-2.945,82.88-2.945s10.541,3.576,12.378,4.838c0,0,6.548,4.081,9.59,0.736
		C270.582,82.635,274.383,78.849,268.617,74.685z"/>
</g>
<g>
	<polygon fill="#FFFFFF" points="123.93,134.938 123.93,110.679 140.347,126.388 140.347,111.496 144.18,111.496 144.18,134.845 
		142.597,134.845 127.513,119.707 127.513,134.979 	"/>
	<path fill="#FFFFFF" d="M127.763,135.232l-4.083-0.047v-25.092l16.417,15.709v-14.557h4.333v23.85h-1.937l-14.729-14.783V135.232z
		 M124.18,134.691l3.083,0.035v-15.625l15.438,15.494h1.229v-22.85h-3.333v15.229l-16.417-15.709V134.691z"/>
</g>
<g>
	<rect x="112.651" y="111.441" fill="#FFFFFF" width="4.917" height="23.685"/>
	<path fill="#FFFFFF" d="M117.779,135.336h-5.338V111.23h5.338V135.336z M112.862,134.915h4.495v-23.263h-4.495V134.915z"/>
</g>
<rect x="339.818" y="111.441" fill="#FFFFFF" width="4.916" height="23.685"/>
<g>
	<path fill="#FFFFFF" d="M159.136,135.075c-6.257,0-11.348-5.466-11.348-12.185s5.091-12.185,11.348-12.185
		s11.348,5.466,11.348,12.185S165.394,135.075,159.136,135.075z M159.136,114.272c-4.291,0-7.782,3.866-7.782,8.618
		s3.491,8.618,7.782,8.618s7.782-3.866,7.782-8.618S163.427,114.272,159.136,114.272z"/>
</g>
<ellipse fill="none" stroke="#FFFFFF" stroke-width="3.5668" stroke-miterlimit="10" cx="285.329" cy="122.89" rx="9.565" ry="10.401"/>
<path fill="#FFFFFF" d="M258.485,111.441v23.685h4.5v-7.583c8.667-1.166,8.75-7.167,8.75-7.167
	C272.735,109.542,258.485,111.441,258.485,111.441z M267.401,120.042c-0.584,3.5-4.583,4-4.583,4v-8
	C268.318,116.042,267.401,120.042,267.401,120.042z"/>
<path fill="#FFFFFF" d="M228.736,110.458l-11.584,21.834l3.917,2.833l2.833-6.25l10.071-0.036l3.429,6.286l4.083-2.833
	L228.736,110.458z M224.902,126.042l3.834-8l3.833,8H224.902z"/>
<path fill="#FFFFFF" stroke="#FFFFFF" stroke-width="0.4216" stroke-miterlimit="10" d="M252.193,110.458l1.563,3.25
	c0,0-5.328,2.406-6.563,4.063c0,0-2.042,2.105,4.625,5.021c0,0,3.563,1.291,2.063,5.791c0,0-2.414,5.487-10,5l-0.438-3.188
	c0,0,6.203,0.25,6.771-3.563c0,0,0.4-1.688-5.896-4.791c0,0-5.125-2.584,0.188-7.146
	C244.505,114.896,248.255,111.458,252.193,110.458z"/>
<g>
	<polygon fill="#FFFFFF" points="276.318,81.021 276.318,92.708 296.755,97.146 	"/>
	<path fill="#FFFFFF" d="M297.602,97.545l-21.495-4.667V80.586L297.602,97.545z M276.529,92.539l19.38,4.208l-19.38-15.291V92.539z"
		/>
</g>
<g>
	<polygon fill="#FFFFFF" points="300.755,73.083 300.755,86.021 320.318,91.396 	"/>
	<path fill="#FFFFFF" d="M321.085,91.826l-20.541-5.644V72.597L321.085,91.826z M300.966,85.86l18.584,5.106L300.966,73.57V85.86z"
		/>
</g>
<g>
	<polygon fill="#FFFFFF" points="309.38,55.396 309.38,66.271 330.193,73.833 	"/>
	<path fill="#FFFFFF" d="M331.162,74.41l-21.992-7.991V54.928L331.162,74.41z M309.591,66.124l19.633,7.134l-19.633-17.393V66.124z"
		/>
</g>
<g>
	<path fill="#FFFFFF" d="M222.818,6.208c0,0,69.875,3.25,73.938,44.25c0,0-40.188-35.5-114.938-25c0,0-31.276,4.75-47.763,15
		c0,0-11.32,6.917-1.32-7.167C132.734,33.292,158.901,3.375,222.818,6.208z"/>
	<path fill="#FFFFFF" d="M297.018,50.972l-0.402-0.355c-0.076-0.067-7.782-6.8-22.376-13.445
		c-13.468-6.133-35.723-13.444-65.264-13.444c-8.838,0-17.965,0.652-27.129,1.94c-0.31,0.047-31.42,4.86-47.681,14.97
		c-0.117,0.071-2.851,1.73-4.479,1.73c-0.564,0-0.951-0.194-1.149-0.578c-0.594-1.15,0.723-3.97,4.024-8.62
		c0.073-0.085,6.155-6.943,19.226-13.702c12.053-6.231,32.696-13.66,62.59-13.66c2.77,0,5.612,0.063,8.449,0.189
		c0.175,0.008,17.703,0.882,35.502,6.76c16.461,5.437,36.525,16.387,38.636,37.679L297.018,50.972z M208.976,23.306
		c29.626,0,51.947,7.336,65.456,13.49c12.77,5.817,20.291,11.706,22.058,13.164c-2.359-20.727-22.085-31.448-38.293-36.801
		c-17.743-5.861-35.214-6.731-35.389-6.74c-2.83-0.125-5.666-0.189-8.43-0.189c-29.795,0-50.364,7.396-62.373,13.601
		c-13.01,6.722-19.053,13.532-19.112,13.6c-3.919,5.522-4.329,7.49-3.98,8.165c0.122,0.236,0.375,0.351,0.774,0.351
		c1.511,0,4.23-1.651,4.258-1.667c16.333-10.155,47.528-14.981,47.841-15.029C190.972,23.96,200.119,23.306,208.976,23.306z"/>
</g>
<g>
	<path fill="#FFFFFF" d="M97.414,131.146l0.014,4.844h5.106v-9.363C101.016,128.109,99.132,129.503,97.414,131.146z"/>
</g>
<g>
	<g>
		<path fill="#FFFFFF" d="M76.888,120.912l-10.375-9.902v24.012h4.083v-13.793l3.638,3.692
			C74.605,124.198,75.777,122.627,76.888,120.912z"/>
	</g>
</g>
<g>
	<path fill="none" d="M117.373,111.23c-1.718,1.643-3.415,3.318-4.932,4.8v-4.8H117.373z"/>
</g>
</svg>
