<?xml version="1.0" encoding="utf-8"?>
<!-- Generator: Adobe Illustrator 16.0.3, SVG Export Plug-In . SVG Version: 6.00 Build 0)  -->
<!DOCTYPE svg PUBLIC "-//W3C//DTD SVG 1.1//EN" "http://www.w3.org/Graphics/SVG/1.1/DTD/svg11.dtd">
<svg version="1.1" id="Ebene_1" xmlns="http://www.w3.org/2000/svg" xmlns:xlink="http://www.w3.org/1999/xlink" x="0px" y="0px"
	 width="302px" height="300.5px" viewBox="0 0 302 300.5" enable-background="new 0 0 302 300.5" xml:space="preserve">
<circle fill="none" stroke="#FFFFFF" stroke-width="4" stroke-miterlimit="10" cx="151.955" cy="150.01" r="142.708"/>
<line fill="none" stroke="#FFFFFF" stroke-width="4" stroke-miterlimit="10" x1="101.413" y1="40.314" x2="101.413" y2="259.421"/>
<line fill="none" stroke="#FFFFFF" stroke-width="4" stroke-miterlimit="10" x1="60.458" y1="40.314" x2="135.051" y2="40.314"/>
<line fill="none" stroke="#FFFFFF" stroke-width="4" stroke-miterlimit="10" x1="60.458" y1="259.421" x2="142.368" y2="259.421"/>
<g>
	<path fill="none" stroke="#FFFFFF" stroke-width="4" stroke-miterlimit="10" d="M195.884,15.431
		c-36.674-4.947-70.557,21.802-75.677,59.744c-5.119,37.944,20.461,72.716,57.14,77.665c2.926,0.395,5.818,0.518,8.695,0.517
		l18.366-136.118C201.633,16.475,198.813,15.826,195.884,15.431z"/>
	<path fill="none" stroke="#FFFFFF" stroke-width="4" stroke-miterlimit="10" d="M150.287,288.443
		c2.772,0.76,5.596,1.409,8.519,1.801c36.681,4.95,70.561-21.798,75.679-59.745c5.119-37.938-20.459-72.711-57.138-77.659
		c-2.926-0.395-5.819-0.518-8.693-0.518L150.287,288.443z"/>
</g>
</svg>
