<?xml version="1.0" encoding="utf-8"?>
<!-- Generator: Adobe Illustrator 16.0.3, SVG Export Plug-In . SVG Version: 6.00 Build 0)  -->
<!DOCTYPE svg PUBLIC "-//W3C//DTD SVG 1.1//EN" "http://www.w3.org/Graphics/SVG/1.1/DTD/svg11.dtd">
<svg version="1.1" id="Ebene_1" xmlns="http://www.w3.org/2000/svg" xmlns:xlink="http://www.w3.org/1999/xlink" x="0px" y="0px"
	 width="455.246px" height="214.489px" viewBox="0 0 455.246 214.489" enable-background="new 0 0 455.246 214.489"
	 xml:space="preserve">
<path fill-rule="evenodd" clip-rule="evenodd" fill="#FFFFFF" d="M446.78,138.212c-2.248,0-4.496-0.022-6.744,0.014
	c-0.619,0.01-0.796-0.158-0.795-0.788c0.02-9.986,0.014-19.973,0.013-29.959c0-0.403-0.091-0.796,0.575-0.779
	c2.316,0.06,4.634,0.067,6.951,0.096C446.78,117.267,446.78,127.741,446.78,138.212z"/>
<path fill-rule="evenodd" clip-rule="evenodd" fill="#FFFFFF" d="M171.071,107.04c-0.194,21.536-5.574,41.557-17.486,59.653
	c-4.031,6.123-8.741,11.681-14.114,16.674c-0.524,0.487-1.037,0.851-1.833,0.829c-13.027-0.347-25.066-3.775-35.715-11.479
	c-8.514-6.158-14.604-14.27-18.837-23.82c-3.641-8.214-5.652-16.855-6.709-25.754c-1.157-9.741-1.094-19.494-0.366-29.252
	c0.592-7.938,1.726-15.81,3.093-23.649c0.128-0.738,0.392-1.094,1.219-1.184c5.381-0.583,10.755-1.229,16.131-1.856
	c6.73-0.786,13.459-1.578,20.19-2.362c5.926-0.69,11.853-1.368,17.779-2.06c6.767-0.789,13.532-1.589,20.298-2.379
	c1.609-0.188,3.233-0.285,4.828-0.557c0.891-0.152,1.213,0.192,1.547,0.922c3.35,7.326,5.869,14.926,7.531,22.805
	C170.26,91.306,170.996,99.139,171.071,107.04z"/>
<path fill-rule="evenodd" clip-rule="evenodd" fill="#FFFFFF" d="M135.548,186.611c-3.154,2.756-6.529,5.114-10.081,7.222
	c-9.319,5.528-19.351,8.991-30.14,10.033c-17.17,1.658-32.996-2.385-47.413-11.784c-15.067-9.823-25.79-23.36-33.2-39.617
	c-4.786-10.502-7.693-21.528-8.927-33.003c-1.493-13.884-0.521-27.583,2.949-41.112c0.257-1.002,0.742-1.322,1.708-1.411
	c6.86-0.628,13.716-1.301,20.572-1.963c1.456-0.141,1.471-0.098,1.278,1.343c-1.075,8.042-1.924,16.104-1.675,24.234
	c0.104,3.401,0.653,6.742,1.866,9.943c2.848,7.519,8.487,11.403,16.282,12.447c3.542,0.475,7.061,0.222,10.558-0.443
	c1.179-0.225,1.342-0.305,2.25-1.116c-0.759-0.078-1.381,0.027-2.01,0.128c-4.938,0.79-9.851,0.943-14.58-1.011
	c-5.76-2.379-8.948-6.805-9.711-12.923c-0.647-5.187-0.172-10.385,0.283-15.561c0.5-5.687,1.245-11.346,2.09-16.992
	c0.12-0.802,0.411-1.052,1.135-1.129c4.249-0.45,8.495-0.921,12.74-1.395c6.259-0.698,12.517-1.403,18.775-2.106
	c0.878-0.099,1.757-0.198,2.634-0.305c0.521-0.063,0.776-0.038,0.658,0.672c-1.048,6.323-1.869,12.68-2.419,19.065
	c-0.767,8.896-1.106,17.805-0.581,26.732c0.509,8.641,1.921,17.114,4.697,25.332c5.054,14.963,13.928,26.932,27.638,35.061
	c8.351,4.952,17.417,7.83,27.022,9.08C131.797,186.273,133.652,186.467,135.548,186.611z"/>
<path fill-rule="evenodd" clip-rule="evenodd" fill="#FFFFFF" d="M91.987,9.899c8.188,0.422,16.53,2.333,24.517,5.76
	c8.199,3.518,15.553,8.344,22.177,14.315c8.081,7.285,14.536,15.822,19.71,25.36c0.632,1.164,0.619,1.118-0.676,1.243
	c-4.063,0.395-8.12,0.838-12.182,1.248c-3.256,0.328-6.516,0.628-9.773,0.952c-4.098,0.408-8.195,0.831-12.293,1.24
	c-3.293,0.329-6.588,0.644-9.881,0.974c-4.098,0.41-8.195,0.832-12.293,1.243c-3.256,0.326-6.514,0.642-9.771,0.965
	c-3.439,0.342-6.88,0.664-10.315,1.048c-0.822,0.092-1.134,0.009-0.968-0.937c1.626-9.262,3.211-18.53,4.819-27.795
	c1.369-7.889,2.748-15.776,4.135-23.662C89.542,9.87,89.564,9.874,91.987,9.899z"/>
<path fill-rule="evenodd" clip-rule="evenodd" fill="#FFFFFF" d="M39.75,68.702c-0.993,0.248-1.048-0.292-0.917-1.032
	c1.743-9.836,3.482-19.672,5.217-29.509c0.326-1.845,0.611-3.696,0.955-5.537c0.127-0.681-0.021-0.927-0.752-0.823
	c-1.273,0.179-2.553,0.313-3.834,0.419c-0.5,0.042-0.679,0.234-0.763,0.727c-1.086,6.372-2.197,12.74-3.301,19.109
	c-0.959,5.536-1.926,11.072-2.859,16.613c-0.096,0.567-0.338,0.702-0.856,0.753c-4.281,0.422-8.559,0.863-12.837,1.313
	c-2.485,0.262-4.968,0.552-7.452,0.825c-0.256,0.028-0.518,0.013-0.772,0.051c-0.703,0.104-0.8-0.152-0.575-0.784
	c1.482-4.163,3.131-8.255,5.084-12.221c5.283-10.723,12.194-20.246,21.035-28.313c10.438-9.524,22.482-16.034,36.355-19.005
	c3.238-0.693,6.529-1.05,9.824-1.369c0.703-0.068,0.872,0.112,0.74,0.854c-1.912,10.776-3.786,21.56-5.679,32.34
	c-1.239,7.053-2.499,14.103-3.729,21.158c-0.099,0.563-0.319,0.848-0.899,0.904c-4.463,0.442-8.926,0.888-13.386,1.356
	c-4.533,0.476-9.063,0.987-13.595,1.47C44.415,68.251,42.072,68.471,39.75,68.702z"/>
<path fill-rule="evenodd" clip-rule="evenodd" fill="#FFFFFF" d="M356.3,138.668c-7.237-0.256-13.031-2.998-16.134-9.89
	c-4.116-9.146,1.494-19.842,11.448-21.953c5.503-1.167,10.841-0.686,15.479,2.767c5.301,3.945,7.64,9.364,6.349,15.883
	c-1.293,6.53-5.528,10.619-11.89,12.484C359.852,138.458,358.093,138.665,356.3,138.668z M365.886,122.506
	c0.021-5.769-3.717-9.544-9.49-9.585c-5.852-0.042-9.656,3.693-9.681,9.503c-0.024,5.752,3.761,9.583,9.488,9.605
	C362.048,132.052,365.866,128.297,365.886,122.506z"/>
<path fill-rule="evenodd" clip-rule="evenodd" fill="#FFFFFF" d="M237.165,123.506c1.363,0.808,2.256,1.925,2.946,3.201
	c1.991,3.679,3.455,7.598,5.316,11.502c-2.756,0-5.357-0.017-7.958,0.013c-0.577,0.006-0.646-0.409-0.799-0.751
	c-0.994-2.246-1.959-4.506-2.955-6.751c-0.597-1.344-1.276-2.637-2.226-3.784c-1.301-1.574-3.053-1.61-4.844-1.491
	c-0.643,0.043-0.373,0.631-0.375,0.974c-0.021,3.611-0.036,7.223,0.006,10.833c0.009,0.761-0.171,1.003-0.959,0.978
	c-1.915-0.06-3.833-0.044-5.748-0.006c-0.669,0.014-0.942-0.097-0.94-0.874c0.03-9.911,0.022-19.824,0.012-29.736
	c0-0.574-0.007-0.943,0.782-0.933c4.642,0.064,9.287-0.028,13.926,0.123c4.718,0.155,8.193,3.322,8.853,7.976
	c0.443,3.136-0.712,5.704-3.275,7.596C238.397,122.765,237.818,123.089,237.165,123.506z M226.259,115.9
	c0,1.157,0.015,2.113-0.007,3.069c-0.01,0.437,0.066,0.684,0.591,0.671c1.323-0.034,2.653,0.054,3.971-0.04
	c2.416-0.171,3.661-1.557,3.577-3.843c-0.072-1.996-1.451-3.154-3.83-3.216c-0.258-0.006-0.516-0.011-0.772-0.006
	c-1.135,0.021-2.666-0.39-3.301,0.186C225.758,113.382,226.351,114.938,226.259,115.9z"/>
<path fill-rule="evenodd" clip-rule="evenodd" fill="#FFFFFF" d="M397.769,123.488c1.879,1.126,2.883,2.879,3.736,4.72
	c1.51,3.257,2.965,6.538,4.529,10.002c-2.016,0-3.889-0.177-5.714,0.046c-2.157,0.264-3.19-0.559-3.896-2.551
	c-0.879-2.481-1.937-4.915-3.225-7.231c-1.203-2.163-2.916-3.322-5.492-3.074c-0.675,0.064-0.865,0.214-0.859,0.887
	c0.031,3.612-0.008,7.226,0.031,10.838c0.009,0.808-0.12,1.152-1.048,1.111c-1.914-0.084-3.833-0.042-5.75-0.015
	c-0.565,0.009-0.841-0.062-0.839-0.75c0.022-9.99,0.021-19.981,0.003-29.972c-0.001-0.621,0.161-0.819,0.799-0.813
	c4.645,0.05,9.292-0.035,13.933,0.118c4.759,0.157,8.27,3.411,8.849,8.105c0.413,3.346-0.962,5.945-3.758,7.8
	C398.671,122.972,398.251,123.2,397.769,123.488z M386.863,116.012c0,0.994-0.002,1.988,0.002,2.981
	c0.001,0.283-0.078,0.651,0.384,0.63c1.862-0.088,3.76,0.297,5.583-0.34c1.537-0.537,2.269-1.758,2.182-3.547
	c-0.076-1.555-0.909-2.593-2.458-2.984c-1.739-0.439-3.517-0.136-5.275-0.214c-0.442-0.02-0.418,0.302-0.418,0.603
	C386.865,114.098,386.863,115.055,386.863,116.012z"/>
<path fill-rule="evenodd" clip-rule="evenodd" fill="#FFFFFF" d="M280.257,138.21c-2.577,0-5.046-0.023-7.514,0.018
	c-0.568,0.009-0.758-0.256-0.929-0.693c-0.611-1.573-1.261-3.132-1.85-4.713c-0.221-0.595-0.508-0.843-1.191-0.836
	c-3.981,0.039-7.964,0.039-11.945,0.001c-0.685-0.007-0.964,0.237-1.169,0.844c-0.541,1.599-1.159,3.171-1.706,4.768
	c-0.154,0.452-0.352,0.631-0.852,0.625c-2.432-0.028-4.864-0.013-7.472-0.013c0.396-1.014,0.758-1.942,1.121-2.87
	c3.604-9.224,7.217-18.443,10.797-27.677c0.278-0.717,0.6-1.01,1.406-0.987c2.321,0.063,4.646,0.041,6.968,0.009
	c0.587-0.009,0.929,0.131,1.175,0.706c4.323,10.085,8.667,20.163,13.003,30.243C280.156,137.764,280.176,137.91,280.257,138.21z
	 M258.024,126.457c3.167,0,6.184,0,9.324,0c-1.608-3.996-3.193-7.935-4.882-12.133C260.927,118.527,259.498,122.433,258.024,126.457
	z"/>
<path fill-rule="evenodd" clip-rule="evenodd" fill="#FFFFFF" d="M304.306,114.894c-2.336-0.985-4.473-1.96-6.779-2.45
	c-1.82-0.388-3.636-0.561-5.443,0.072c-0.96,0.335-1.75,0.874-1.866,1.955c-0.112,1.029,0.51,1.729,1.317,2.258
	c1.55,1.016,3.32,1.542,5.021,2.222c1.5,0.6,2.987,1.22,4.378,2.051c3.689,2.205,5.296,5.462,4.635,9.685
	c-0.612,3.914-3.173,6.233-6.846,7.268c-5.377,1.515-10.478,0.604-15.303-2.119c-0.33-0.187-0.489-0.377-0.487-0.762
	c0.013-2.02,0.006-4.04,0.006-6.143c0.576,0.051,0.907,0.42,1.282,0.66c2.657,1.702,5.408,3.133,8.666,3.214
	c1.074,0.027,2.145-0.02,3.154-0.401c2.077-0.785,2.444-3.061,0.724-4.47c-1.127-0.923-2.504-1.37-3.838-1.882
	c-1.986-0.764-3.987-1.479-5.844-2.547c-4.975-2.859-5.563-8.056-4.034-11.58c1.394-3.214,4.178-4.67,7.403-5.289
	c4.626-0.888,9.058-0.018,13.329,1.864c0.413,0.183,0.536,0.402,0.532,0.823C304.296,111.127,304.306,112.931,304.306,114.894z"/>
<path fill-rule="evenodd" clip-rule="evenodd" fill="#FFFFFF" d="M311.124,122.398c0-4.866,0.017-9.733-0.016-14.601
	c-0.006-0.808,0.122-1.139,1.052-1.122c4.533,0.078,9.071-0.021,13.602,0.126c4.955,0.162,8.858,3.953,9.057,8.56
	c0.23,5.345-2.944,9.245-8.167,10.05c-2.313,0.356-4.637,0.132-6.954,0.156c-0.763,0.007-0.991,0.19-0.981,0.974
	c0.043,3.575-0.007,7.152,0.039,10.729c0.01,0.787-0.213,0.982-0.977,0.959c-1.879-0.057-3.762-0.062-5.641,0.002
	c-0.809,0.027-1.044-0.161-1.036-1.011C311.148,132.28,311.124,127.338,311.124,122.398z M318.735,116.087
	c0,0.992,0.018,1.984-0.008,2.976c-0.014,0.493,0.104,0.74,0.665,0.729c1.505-0.033,3.012,0.044,4.511-0.156
	c1.998-0.269,2.996-1.371,3.054-3.369c0.062-2.105-0.843-3.201-2.943-3.522c-0.687-0.104-1.383-0.182-2.076-0.194
	c-1.023-0.019-2.394-0.362-2.982,0.154c-0.684,0.601-0.143,2.003-0.219,3.054C318.727,115.867,318.734,115.978,318.735,116.087z"/>
<path fill-rule="evenodd" clip-rule="evenodd" fill="#FFFFFF" d="M199.223,106.71c4.609,0,9.218,0.022,13.827-0.021
	c0.827-0.008,1.076,0.193,1.028,1.028c-0.076,1.322-0.06,2.655-0.004,3.979c0.029,0.693-0.19,0.86-0.866,0.853
	c-3.06-0.038-6.121,0.016-9.181-0.038c-0.833-0.015-1.036,0.205-1.032,1.034c0.034,7.854,0.002,15.707,0.044,23.561
	c0.005,0.933-0.232,1.169-1.145,1.129c-1.803-0.078-3.614-0.067-5.418-0.004c-0.842,0.03-1.098-0.173-1.093-1.063
	c0.039-7.817,0.004-15.634,0.046-23.45c0.005-0.952-0.189-1.239-1.189-1.213c-2.947,0.077-5.899-0.017-8.848,0.053
	c-0.93,0.022-1.09-0.307-1.048-1.117c0.061-1.177,0.076-2.362-0.004-3.537c-0.064-0.927,0.145-1.238,1.168-1.223
	C190.078,106.749,194.651,106.71,199.223,106.71z"/>
<path fill-rule="evenodd" clip-rule="evenodd" fill="#FFFFFF" d="M419.56,106.71c4.646,0,9.293,0.017,13.938-0.018
	c0.723-0.005,0.939,0.186,0.908,0.91c-0.059,1.361-0.055,2.729-0.001,4.091c0.028,0.683-0.165,0.866-0.854,0.856
	c-2.986-0.041-5.975,0.02-8.96-0.039c-0.956-0.02-1.285,0.166-1.278,1.224c0.053,7.78,0.014,15.561,0.049,23.341
	c0.004,0.875-0.134,1.211-1.107,1.162c-1.839-0.092-3.688-0.077-5.528-0.004c-0.848,0.034-1.022-0.218-1.019-1.033
	c0.033-7.854,0.002-15.708,0.043-23.562c0.006-0.946-0.27-1.146-1.165-1.129c-2.948,0.059-5.899-0.019-8.849,0.047
	c-0.912,0.021-1.107-0.281-1.063-1.111c0.065-1.214,0.093-2.439-0.007-3.647c-0.081-0.99,0.312-1.116,1.177-1.108
	C410.416,106.733,414.989,106.71,419.56,106.71z"/>
<path fill-rule="evenodd" clip-rule="evenodd" fill="#FFFFFF" d="M244.134,81.583c2.121,1.57,3.554,3.481,4.807,5.532
	c1.915,3.135,3.794,6.292,6.161,9.447c-1.822,0-3.415,0.003-5.008-0.001c-0.518-0.002-0.62-0.476-0.824-0.795
	c-1.998-3.128-3.82-6.37-6.052-9.347c-0.686-0.915-1.46-1.748-2.352-2.479c-1.373-1.127-2.986-1.108-4.615-1.047
	c-0.633,0.024-0.377,0.537-0.379,0.836c-0.017,3.87-0.054,7.74,0.017,11.609c0.021,1.062-0.32,1.334-1.299,1.243
	c-0.841-0.077-1.694-0.036-2.542-0.008c-0.475,0.016-0.685-0.154-0.647-0.631c0.015-0.184,0.002-0.369,0.002-0.553
	c0-9.767,0.01-19.533-0.017-29.3c-0.002-0.821,0.136-1.161,1.064-1.117c3.015,0.142,6.048-0.219,9.05,0.244
	c3.17,0.488,5.759,1.951,6.977,5.056c1.215,3.094,0.999,6.134-1.071,8.882C246.596,80.23,245.467,80.916,244.134,81.583z
	 M235.862,73.806c0,1.397-0.009,2.794,0.007,4.191c0.004,0.284-0.177,0.747,0.372,0.737c1.934-0.037,3.905,0.258,5.756-0.585
	c1.885-0.858,2.724-2.506,2.565-5.014c-0.12-1.911-1.181-3.203-3.105-3.816c-1.686-0.538-3.422-0.319-5.142-0.373
	c-0.536-0.017-0.451,0.35-0.452,0.668C235.86,71.012,235.862,72.41,235.862,73.806z"/>
<path fill-rule="evenodd" clip-rule="evenodd" fill="#FFFFFF" d="M305.232,80.74c0-4.902,0.019-9.805-0.019-14.707
	c-0.007-0.811,0.18-1.062,1.029-1.054c5.161,0.042,10.321,0.034,15.482,0.005c0.714-0.004,0.988,0.172,0.927,0.914
	c-0.063,0.769-0.07,1.553,0.002,2.319c0.077,0.822-0.271,0.96-1.006,0.953c-3.687-0.034-7.373,0.003-11.059-0.032
	c-0.719-0.007-0.932,0.183-0.918,0.914c0.046,2.506,0.059,5.014-0.004,7.519c-0.022,0.872,0.285,1.026,1.071,1.018
	c3.464-0.038,6.93,0.003,10.395-0.031c0.758-0.008,1.188,0.092,1.074,0.998c-0.128,1.01,0.429,2.37-0.227,2.953
	c-0.563,0.502-1.889,0.165-2.878,0.168c-2.838,0.01-5.677,0.026-8.515-0.013c-0.708-0.01-0.931,0.162-0.918,0.901
	c0.048,2.653,0.045,5.309,0.002,7.961c-0.013,0.722,0.183,0.922,0.909,0.915c3.833-0.036,7.667,0.004,11.5-0.035
	c0.769-0.007,1.055,0.189,0.982,0.977c-0.066,0.731-0.063,1.478-0.001,2.21c0.065,0.771-0.192,1.004-0.978,0.996
	c-4.165-0.037-8.33-0.018-12.496-0.018c-1.068,0-2.142-0.059-3.205,0.019c-0.905,0.065-1.186-0.199-1.176-1.142
	C305.258,90.545,305.232,85.643,305.232,80.74z"/>
<path fill-rule="evenodd" clip-rule="evenodd" fill="#FFFFFF" d="M428.727,80.734c0-4.902,0.019-9.806-0.019-14.708
	c-0.006-0.814,0.19-1.055,1.036-1.048c5.124,0.043,10.248,0.045,15.372-0.001c0.868-0.008,1.093,0.262,0.999,1.058
	c-0.119,1.01,0.443,2.366-0.236,2.949c-0.581,0.499-1.894,0.164-2.883,0.167c-2.985,0.01-5.972,0.024-8.957-0.013
	c-0.674-0.008-0.875,0.16-0.863,0.852c0.042,2.58,0.042,5.161,0,7.741c-0.012,0.701,0.218,0.86,0.88,0.854
	c3.502-0.029,7.004,0.009,10.506-0.03c0.815-0.009,1.222,0.125,1.118,1.064c-0.107,0.977,0.295,2.285-0.204,2.869
	c-0.524,0.614-1.867,0.175-2.851,0.183c-2.838,0.023-5.677,0.027-8.515-0.005c-0.675-0.009-0.953,0.109-0.938,0.88
	c0.053,2.653,0.058,5.309-0.002,7.962c-0.019,0.83,0.281,0.938,1.005,0.932c3.797-0.035,7.594,0.005,11.391-0.034
	c0.769-0.008,1.048,0.185,0.979,0.974c-0.069,0.805-0.043,1.621-0.006,2.431c0.026,0.564-0.147,0.774-0.743,0.772
	c-5.455-0.02-10.911-0.025-16.366,0.002c-0.878,0.005-0.699-0.548-0.7-1.031C428.725,90.614,428.727,85.673,428.727,80.734z"/>
<path fill-rule="evenodd" clip-rule="evenodd" fill="#FFFFFF" d="M360.044,71.975c-0.946-0.783-1.706-1.465-2.599-1.965
	c-1.994-1.117-4.09-1.646-6.357-1.055c-3.089,0.805-4.002,3.855-1.869,6.244c0.97,1.086,2.224,1.807,3.457,2.54
	c1.834,1.089,3.711,2.112,5.319,3.537c4.433,3.927,4.342,10.942-0.228,14.116c-3.021,2.099-6.309,1.828-9.629,0.84
	c-0.141-0.042-0.278-0.094-0.416-0.147c-3.448-1.336-3.599-1.555-3.599-5.206c0-0.77,0-1.539,0-2.545
	c0.381,0.41,0.635,0.682,0.886,0.956c1.996,2.179,4.364,3.603,7.415,3.558c2.355-0.035,4.123-1.287,4.602-3.228
	c0.392-1.589-0.27-2.884-1.273-4.03c-1.055-1.204-2.407-2.045-3.744-2.895c-1.646-1.046-3.321-2.047-4.819-3.308
	c-2.648-2.228-3.815-5.01-3.025-8.445c0.719-3.121,2.762-5.047,5.789-5.905c2.832-0.802,5.593-0.501,8.279,0.725
	c1.27,0.58,2.125,1.253,1.844,2.867C359.903,69.63,360.044,70.687,360.044,71.975z"/>
<path fill-rule="evenodd" clip-rule="evenodd" fill="#FFFFFF" d="M396.291,82.901c0,4.202-0.019,8.405,0.017,12.607
	c0.006,0.773-0.112,1.178-1.007,1.075c-1.118-0.127-2.589,0.466-3.28-0.239c-0.642-0.654-0.172-2.107-0.174-3.207
	c-0.014-7.557-0.028-15.114,0.018-22.671c0.006-1.02-0.168-1.38-1.285-1.343c-2.799,0.094-5.604,0.003-8.403,0.049
	c-0.747,0.013-0.954-0.22-0.9-0.93c0.059-0.77,0.073-1.553-0.003-2.319c-0.082-0.826,0.265-0.942,0.996-0.939
	c7.853,0.025,15.704,0.025,23.556,0c0.741-0.003,1.06,0.146,0.991,0.951c-0.086,1.022,0.315,2.355-0.194,3
	c-0.535,0.677-1.924,0.19-2.937,0.208c-2.101,0.037-4.205,0.07-6.303-0.015c-0.97-0.04-1.122,0.286-1.112,1.165
	C396.317,74.496,396.291,78.699,396.291,82.901z"/>
<path fill-rule="evenodd" clip-rule="evenodd" fill="#FFFFFF" d="M198.812,82.79c0,4.275-0.02,8.552,0.018,12.827
	c0.007,0.787-0.229,1.043-0.993,0.963c-1.123-0.116-2.588,0.476-3.287-0.25c-0.641-0.665-0.172-2.106-0.174-3.205
	c-0.013-7.63-0.019-15.261,0.011-22.891c0.003-0.822-0.146-1.125-1.056-1.104c-2.874,0.067-5.75,0.003-8.625,0.041
	c-0.683,0.01-0.923-0.177-0.865-0.86c0.089-1.06-0.431-2.439,0.191-3.104c0.625-0.668,2.017-0.194,3.069-0.197
	c7.041-0.019,14.081,0.005,21.121-0.029c0.861-0.004,1.296,0.113,1.17,1.104c-0.124,0.977,0.393,2.268-0.191,2.876
	c-0.59,0.614-1.882,0.173-2.865,0.186c-2.211,0.027-4.424,0.043-6.635-0.011c-0.757-0.018-0.91,0.237-0.904,0.938
	C198.826,74.311,198.812,78.55,198.812,82.79z"/>
<path fill-rule="evenodd" clip-rule="evenodd" fill="#FFFFFF" d="M280.645,80.761c0,4.937-0.022,9.873,0.021,14.81
	c0.008,0.853-0.238,1.08-1.05,1.017c-0.915-0.072-1.841-0.034-2.762-0.01c-0.473,0.012-0.688-0.152-0.642-0.637
	c0.021-0.22,0.003-0.442,0.003-0.663c0-9.652,0.025-19.304-0.033-28.956c-0.007-1.177,0.347-1.46,1.409-1.337
	c0.69,0.081,1.403,0.069,2.097,0.001c0.778-0.076,0.98,0.19,0.975,0.966C280.627,70.888,280.645,75.825,280.645,80.761z"/>
</svg>
