<?xml version="1.0" encoding="utf-8"?>
<!-- Generator: Adobe Illustrator 16.0.3, SVG Export Plug-In . SVG Version: 6.00 Build 0)  -->
<!DOCTYPE svg PUBLIC "-//W3C//DTD SVG 1.1//EN" "http://www.w3.org/Graphics/SVG/1.1/DTD/svg11.dtd">
<svg version="1.1" id="Ebene_1" xmlns="http://www.w3.org/2000/svg" xmlns:xlink="http://www.w3.org/1999/xlink" x="0px" y="0px"
	 width="335.064px" height="110.907px" viewBox="0 0 335.064 110.907" enable-background="new 0 0 335.064 110.907"
	 xml:space="preserve">
<polygon fill="#FFFFFF" stroke="#FFFFFF" stroke-miterlimit="10" points="88.397,11.162 8.147,11.162 8.147,34.662 33.647,34.662 
	33.647,104.412 63.147,104.412 63.147,34.662 88.397,34.662 "/>
<path fill="#FFFFFF" stroke="#FFFFFF" stroke-miterlimit="10" d="M301.397,12.579H275.73l-34.693,90.333h28.027l5-12.333h27.666
	l5.667,12.333h27.667L301.397,12.579z M279.73,71.246l8.32-28.167l8.347,28.167H279.73z"/>
<path fill="#FFFFFF" stroke="#FFFFFF" stroke-miterlimit="10" d="M186.239,11.634v43.342c0,8.436-0.533,14.297-1.599,17.576
	c-1.066,3.281-2.779,5.83-5.141,7.649c-2.053,1.584-4.524,2.475-7.406,2.681l1.933,1.854l9.094,8.725l-9.094,8.724l-1.791,1.718
	c8.478-0.201,15.399-2.378,20.728-6.578c5.597-4.41,9.535-10.559,11.814-18.445c1.623-5.459,2.431-15.383,2.431-29.775V11.634
	H186.239z"/>
<path fill="#FFFFFF" stroke="#FFFFFF" stroke-miterlimit="10" d="M168.221,84.735l-9.094-8.725v6.907
	c-3.283-0.066-6.068-0.965-8.339-2.717c-2.362-1.819-4.075-4.368-5.141-7.649c-1.066-3.279-1.599-9.141-1.599-17.576V11.634h-20.969
	v37.469c0,14.393,0.809,24.316,2.431,29.775c2.279,7.887,6.217,14.035,11.814,18.445c5.555,4.379,12.825,6.579,21.803,6.611v6.973
	l9.094-8.724l9.094-8.724L168.221,84.735z"/>
</svg>
