<?xml version="1.0" encoding="utf-8"?>
<!-- Generator: Adobe Illustrator 16.0.3, SVG Export Plug-In . SVG Version: 6.00 Build 0)  -->
<!DOCTYPE svg PUBLIC "-//W3C//DTD SVG 1.1//EN" "http://www.w3.org/Graphics/SVG/1.1/DTD/svg11.dtd">
<svg version="1.1" id="Ebene_1" xmlns="http://www.w3.org/2000/svg" xmlns:xlink="http://www.w3.org/1999/xlink" x="0px" y="0px"
	 width="215.333px" height="62px" viewBox="0 0 215.333 62" enable-background="new 0 0 215.333 62" xml:space="preserve">
<g>
	<path fill-rule="evenodd" clip-rule="evenodd" fill="#FFFFFF" d="M3.644,25.68c0.074-3.826,1.901-6.975,5.107-9.432
		c0.714-0.547,1.189-0.479,1.858,0.055c3.841,3.066,7.731,6.072,11.565,9.149c0.699,0.561,1.122,0.524,1.802-0.019
		c3.841-3.066,7.74-6.06,11.581-9.126c0.735-0.587,1.222-0.554,1.956-0.005c6.69,5.007,6.769,14.167,0.159,19.292
		c-4.61,3.575-9.2,7.178-13.772,10.801c-0.588,0.467-0.95,0.581-1.601,0.062c-4.715-3.765-9.498-7.446-14.2-11.227
		C5.164,32.87,3.649,29.755,3.644,25.68z"/>
	<path fill-rule="evenodd" clip-rule="evenodd" fill="#FFFFFF" d="M106.108,45.987c0,1.68,0.029,3.36-0.006,5.039
		c-0.083,4.002-2.023,6.29-5.972,7.04c-2.447,0.464-4.864,0.359-7.152-0.704c-2.169-1.009-3.479-2.766-3.566-5.146
		c-0.14-3.834-0.177-7.678-0.068-11.512c0.112-3.939,1.914-5.979,5.797-6.777c2.596-0.533,5.19-0.421,7.588,0.839
		c2.462,1.293,3.339,3.533,3.375,6.182C106.127,42.627,106.108,44.307,106.108,45.987z M102.404,46.121c-0.008,0-0.016,0-0.024,0
		c0-1.918,0.026-3.836-0.009-5.754c-0.026-1.425-0.761-2.452-2.084-2.929c-1.744-0.628-3.546-0.614-5.281,0.032
		c-1.219,0.453-1.964,1.438-1.981,2.75c-0.048,3.835-0.045,7.671-0.002,11.506c0.015,1.314,0.748,2.248,1.961,2.767
		c1.496,0.64,3.063,0.573,4.593,0.265c1.871-0.377,2.771-1.541,2.818-3.481C102.436,49.558,102.404,47.839,102.404,46.121z"/>
	<path fill-rule="evenodd" clip-rule="evenodd" fill="#FFFFFF" d="M118.059,26.713c-1.599,0-3.198-0.025-4.796,0.011
		c-0.73,0.016-1.082-0.136-1.048-0.988c0.068-1.755,0.047-3.517,0.008-5.274c-0.015-0.67,0.184-0.878,0.873-0.896
		c2.895-0.073,2.926-0.098,2.914,2.778c-0.004,0.828,0.209,1.104,1.062,1.071c1.716-0.066,3.437,0.011,5.154-0.031
		c1.416-0.035,2.307-0.737,2.673-1.981c0.411-1.395,0.163-2.682-1.122-3.177c-2.085-0.804-2.119-2.289-2.024-4.072
		c0.052-0.979,0.13-1.661,1.186-2.14c1.394-0.633,1.739-1.805,1.254-3.208c-0.367-1.059-1.091-1.639-2.234-1.641
		c-1.718-0.003-3.438,0.029-5.154-0.016c-0.667-0.018-0.84,0.246-0.776,0.837c0.029,0.277,0.025,0.561,0,0.838
		c-0.071,0.784,0.386,1.92-0.199,2.275c-0.84,0.509-2.018,0.138-3.05,0.165c-0.477,0.012-0.458-0.352-0.459-0.672
		c-0.003-2.039,0.006-4.077-0.004-6.115c-0.003-0.514,0.217-0.691,0.723-0.688c3.197,0.018,6.398-0.086,9.59,0.051
		c2.558,0.11,4.333,1.533,5.143,3.986c0.797,2.414,0.176,4.514-1.744,6.155c-0.726,0.62-0.783,0.916,0.056,1.474
		c2.338,1.553,3.187,4.096,2.428,6.944c-0.679,2.546-2.591,4.11-5.417,4.272c-1.672,0.096-3.355,0.018-5.033,0.018
		C118.059,26.697,118.059,26.705,118.059,26.713z"/>
	<path fill-rule="evenodd" clip-rule="evenodd" fill="#FFFFFF" d="M117.779,57.354c-1.639,0-3.278-0.028-4.917,0.014
		c-0.687,0.018-0.896-0.213-0.882-0.891c0.04-1.799,0.041-3.599,0-5.396c-0.016-0.688,0.229-0.876,0.893-0.901
		c2.811-0.108,2.849-0.129,2.819,2.653c-0.009,0.888,0.214,1.183,1.129,1.143c1.716-0.074,3.438-0.006,5.156-0.027
		c1.416-0.018,2.328-0.707,2.668-1.954c0.39-1.425,0.05-2.697-1.28-3.246c-1.678-0.692-1.969-1.789-1.904-3.429
		c0.051-1.327,0.172-2.282,1.544-2.927c1.084-0.508,1.31-1.624,0.963-2.802c-0.332-1.134-1.077-1.785-2.24-1.819
		c-1.757-0.053-3.518-0.001-5.275-0.024c-0.595-0.009-0.76,0.269-0.744,0.801c0.02,0.719,0.006,1.439,0.004,2.159
		c-0.001,0.239,0.089,0.551-0.027,0.707c-0.803,1.085-1.957,0.263-2.931,0.488c-0.549,0.127-0.775-0.168-0.769-0.741
		c0.022-1.999,0.027-3.998-0.001-5.997c-0.009-0.603,0.245-0.739,0.787-0.736c3.158,0.02,6.318-0.062,9.474,0.045
		c2.504,0.084,4.281,1.36,5.156,3.776c0.864,2.385,0.363,4.595-1.58,6.291c-0.778,0.679-0.883,0.972,0.078,1.603
		c2.313,1.52,3.105,4.159,2.27,6.982c-0.767,2.592-2.66,4.08-5.474,4.194c-1.636,0.066-3.277,0.012-4.916,0.012
		C117.779,57.338,117.779,57.346,117.779,57.354z"/>
	<path fill-rule="evenodd" clip-rule="evenodd" fill="#FFFFFF" d="M176.369,4.246c0.998,0,1.951,0.033,2.9-0.012
		c0.593-0.028,0.809,0.188,0.964,0.761c1.868,6.89,3.764,13.773,5.673,20.651c0.205,0.738,0.151,1.026-0.742,1.025
		c-2.644-0.004-2.642,0.035-3.359-2.547c-0.395-1.422-0.838-2.833-1.181-4.267c-0.159-0.663-0.428-0.917-1.128-0.903
		c-2.159,0.042-4.32,0.045-6.479-0.002c-0.696-0.015-0.982,0.231-1.151,0.88c-0.5,1.931-1.091,3.838-1.575,5.772
		c-0.195,0.779-0.495,1.088-1.363,1.069c-2.591-0.056-2.607-0.013-1.92-2.533c1.722-6.311,3.464-12.617,5.183-18.929
		c0.185-0.676,0.315-1.22,1.261-0.988c0.824,0.202,2.02-0.375,2.453,0.262c0.312,0.458-0.295,1.553-0.514,2.358
		c-0.721,2.655-1.439,5.312-2.186,7.959c-0.19,0.676-0.178,1.01,0.698,0.966c1.477-0.074,2.96-0.062,4.438-0.006
		c0.883,0.033,1.189-0.078,0.89-1.1C178.216,11.219,177.319,7.741,176.369,4.246z"/>
	<path fill-rule="evenodd" clip-rule="evenodd" fill="#FFFFFF" d="M62.018,12.833c0-2.639,0.024-5.279-0.015-7.917
		c-0.011-0.781,0.134-1.125,1.032-1.12c2.619,0.016,2.619-0.026,2.619,2.624c0,4.479-0.005,8.958,0.001,13.437
		c0.003,2.244,0.878,3.29,3.083,3.708c0.951,0.18,1.913,0.185,2.862,0.019c2.264-0.396,3.165-1.471,3.168-3.767
		c0.008-4.958,0.025-9.917-0.018-14.876c-0.008-0.884,0.199-1.161,1.12-1.145c2.537,0.046,2.538,0,2.538,2.479
		c0,4.399-0.118,8.802,0.032,13.196c0.16,4.689-2.664,7.042-6.402,7.455c-2.07,0.229-4.072,0.126-6.015-0.588
		c-2.481-0.913-3.971-3.061-3.996-5.706c-0.025-2.599-0.005-5.198-0.005-7.798C62.021,12.833,62.02,12.833,62.018,12.833z"/>
	<path fill-rule="evenodd" clip-rule="evenodd" fill="#FFFFFF" d="M192.129,57.334c1.35-4.483,2.658-8.832,3.967-13.18
		c0.391-1.298,0.826-2.586,1.151-3.899c0.18-0.73,0.535-0.964,1.254-0.92c0.873,0.054,1.753,0.013,2.774,0.013
		c-0.71,2.33-1.391,4.562-2.116,6.94c1.979,0,3.846,0.005,5.712-0.002c0.719-0.002,0.474-0.472,0.363-0.831
		c-0.504-1.64-0.995-3.285-1.549-4.908c-0.289-0.845-0.319-1.257,0.822-1.226c2.524,0.067,2.548,0.001,3.309,2.477
		c1.5,4.877,2.971,9.764,4.462,14.644c0.188,0.615,0.155,0.897-0.641,0.912c-2.704,0.051-2.711,0.088-3.533-2.496
		c-0.46-1.443-0.917-2.889-1.314-4.351c-0.174-0.638-0.436-0.904-1.142-0.888c-2.198,0.049-4.399,0.053-6.597-0.003
		c-0.757-0.019-1.016,0.262-1.209,0.952c-0.557,1.996-1.238,3.958-1.797,5.954c-0.175,0.627-0.444,0.85-1.072,0.821
		C194.065,57.304,193.153,57.334,192.129,57.334z"/>
	<path fill-rule="evenodd" clip-rule="evenodd" fill="#FFFFFF" d="M23.185,3.966c6.114,0,12.228,0.018,18.342-0.02
		c0.934-0.006,1.341,0.148,1.309,1.216c-0.07,2.382-0.01,2.384-2.389,2.384c-11.908,0-23.816-0.018-35.725,0.028
		C3.619,7.579,3.397,7.25,3.428,6.234c0.069-2.267,0.018-2.269,2.254-2.269C11.517,3.966,17.351,3.966,23.185,3.966z"/>
	<path fill-rule="evenodd" clip-rule="evenodd" fill="#FFFFFF" d="M22.93,57.047c-6.037,0-12.075-0.017-18.111,0.02
		c-0.894,0.005-1.246-0.163-1.22-1.156c0.061-2.413,0.007-2.413,2.379-2.413c11.754,0.001,23.509,0.015,35.263-0.023
		c1.036-0.003,1.378,0.219,1.336,1.308c-0.087,2.264-0.022,2.266-2.255,2.266C34.524,57.046,28.727,57.047,22.93,57.047z"/>
	<path fill-rule="evenodd" clip-rule="evenodd" fill="#FFFFFF" d="M134.746,15.215c0-3.438,0.022-6.876-0.018-10.313
		c-0.009-0.806,0.174-1.109,1.047-1.093c2.877,0.054,5.758-0.047,8.633,0.036c4.117,0.119,6.428,2.984,6.045,7.373
		c-0.031,0.351-0.17,0.499-0.512,0.498c-0.799-0.004-1.599-0.02-2.397,0.006c-0.534,0.017-0.563-0.297-0.552-0.694
		c0.013-0.477,0.044-0.959-0.008-1.431c-0.169-1.559-1.135-2.438-2.706-2.457c-1.639-0.02-3.279,0.04-4.916-0.023
		c-0.815-0.032-0.984,0.26-0.98,1.017c0.028,5.796-0.009,11.592,0.038,17.388c0.007,0.982-0.23,1.292-1.245,1.263
		c-2.433-0.07-2.432-0.017-2.43-2.456C134.748,21.291,134.746,18.252,134.746,15.215z"/>
	<path fill-rule="evenodd" clip-rule="evenodd" fill="#FFFFFF" d="M184.404,47.623c0,2.918-0.021,5.836,0.014,8.753
		c0.009,0.712-0.175,0.96-0.93,0.97c-2.739,0.038-2.74,0.068-2.741-2.612c-0.001-5.236-0.029-10.472,0.022-15.707
		c0.01-1.021-0.302-1.297-1.281-1.246c-1.515,0.079-3.037-0.006-4.555,0.032c-0.637,0.017-0.796-0.213-0.817-0.826
		c-0.085-2.523-0.107-2.523,2.45-2.522c4.437,0,8.873,0.03,13.309-0.022c0.927-0.011,1.128,0.27,1.11,1.142
		c-0.045,2.217-0.002,2.218-2.188,2.219c-1.159,0-2.32,0.045-3.476-0.016c-0.767-0.041-0.938,0.255-0.931,0.965
		C184.424,41.708,184.405,44.666,184.404,47.623z"/>
	<path fill-rule="evenodd" clip-rule="evenodd" fill="#FFFFFF" d="M79.42,41.657c-0.795,2.104-1.694,4.177-2.344,6.325
		c-0.377,1.249-1.014,1.584-2.212,1.528c-1.97-0.093-1.985-0.044-1.32-1.836c1.538-4.146,3.097-8.284,4.622-12.435
		c0.207-0.563,0.466-0.884,1.104-0.781c0.233,0.038,0.479,0.005,0.718,0.005c2.851-0.001,2.811,0,2.898,2.908
		c0.188,6.261,0.406,12.521,0.656,18.779c0.038,0.94-0.217,1.226-1.177,1.202c-2.385-0.057-2.346-0.009-2.398-2.408
		c-0.097-4.415-0.246-8.83-0.373-13.245C79.536,41.686,79.478,41.671,79.42,41.657z"/>
	<path fill-rule="evenodd" clip-rule="evenodd" fill="#FFFFFF" d="M65.373,41.729c0,4.627,0.001,9.254-0.001,13.881
		c-0.001,1.722-0.006,1.722-1.676,1.719c-1.903-0.003-1.938-0.004-1.878-1.857c0.214-6.74,0.462-13.479,0.669-20.22
		c0.02-0.633,0.222-0.782,0.833-0.803c3.498-0.117,3.48-0.128,4.696,3.197c1.313,3.591,2.643,7.177,4.012,10.747
		c0.304,0.794,0.313,1.09-0.687,1.079c-2.479-0.026-2.486,0.021-3.393-2.335c-0.696-1.811-1.373-3.63-2.058-5.444
		C65.718,41.705,65.545,41.717,65.373,41.729z"/>
	<path fill-rule="evenodd" clip-rule="evenodd" fill="#FFFFFF" d="M95.101,18.778c-3.393,0.265-3.39,0.263-4.503-2.729
		c-0.554-1.489-1.124-2.972-1.686-4.458c-0.139,0.002-0.278,0.004-0.417,0.006c0,1.262,0.021,2.523-0.004,3.785
		c-0.072,3.513-0.19,7.025-0.226,10.538c-0.008,0.771-0.26,0.909-0.962,0.912c-2.495,0.009-2.512,0.036-2.448-2.138
		c0.195-6.624,0.418-13.248,0.591-19.873c0.02-0.776,0.226-1.009,1.02-1.012c3.008-0.012,3.006-0.042,4.07,2.775
		c1.352,3.58,2.708,7.158,4.058,10.738C94.761,17.766,94.906,18.218,95.101,18.778z"/>
	<path fill-rule="evenodd" clip-rule="evenodd" fill="#FFFFFF" d="M101.961,11.568c-0.75,2.008-1.548,4.001-2.228,6.033
		c-0.311,0.928-0.72,1.325-1.766,1.28c-2.241-0.096-2.253-0.035-1.479-2.092c1.458-3.879,2.97-7.74,4.366-11.642
		c0.373-1.042,0.857-1.388,1.963-1.349c2.557,0.091,2.592,0.025,2.668,2.552c0.19,6.346,0.324,12.693,0.541,19.037
		c0.038,1.106-0.174,1.529-1.392,1.459c-2.041-0.116-2.014-0.031-2.056-2.121c-0.084-4.191-0.207-8.381-0.317-12.572
		c-0.005-0.192-0.043-0.384-0.066-0.576C102.116,11.575,102.039,11.571,101.961,11.568z"/>
	<path fill-rule="evenodd" clip-rule="evenodd" fill="#FFFFFF" d="M146.091,45.772c0-3.437,0.02-6.872-0.015-10.307
		c-0.007-0.755,0.168-1.032,0.988-1.034c2.713-0.006,2.714-0.043,2.713,2.648c0,5.233,0.02,10.467-0.021,15.7
		c-0.008,0.917,0.216,1.24,1.184,1.213c2.475-0.068,4.954,0.011,7.43-0.04c0.799-0.017,1.017,0.24,1.022,1.013
		c0.019,2.369,0.049,2.369-2.266,2.368c-3.276,0-6.553-0.043-9.827,0.026c-1.034,0.021-1.247-0.314-1.231-1.282
		C146.127,52.643,146.092,49.208,146.091,45.772z"/>
	<path fill-rule="evenodd" clip-rule="evenodd" fill="#FFFFFF" d="M168.583,46.013c0,3.44-0.02,6.881,0.016,10.32
		c0.008,0.763-0.181,1.027-0.994,1.029c-2.719,0.007-2.72,0.043-2.72-2.648c-0.001-6.359,0.017-12.72-0.018-19.079
		c-0.005-0.906,0.19-1.24,1.176-1.217c2.538,0.06,2.539,0.007,2.539,2.595C168.583,40.013,168.583,43.013,168.583,46.013z"/>
	<path fill-rule="evenodd" clip-rule="evenodd" fill="#FFFFFF" d="M157.378,15.3c-0.001-3.474,0.024-6.949-0.02-10.422
		c-0.01-0.834,0.223-1.084,1.069-1.078c2.579,0.018,2.58-0.02,2.58,2.552c-0.001,6.349-0.022,12.699,0.021,19.048
		c0.007,0.987-0.242,1.3-1.254,1.273c-2.396-0.063-2.396-0.012-2.397-2.387C157.378,21.291,157.378,18.295,157.378,15.3z"/>
	<path fill-rule="evenodd" clip-rule="evenodd" fill="#FFFFFF" d="M138.387,45.915c0.001,3.438-0.032,6.877,0.023,10.313
		c0.015,0.915-0.257,1.136-1.142,1.121c-2.523-0.041-2.523,0-2.523-2.478c0-6.396,0.024-12.792-0.024-19.188
		c-0.007-1.018,0.286-1.269,1.269-1.243c2.396,0.061,2.397,0.011,2.397,2.359C138.387,39.838,138.387,42.876,138.387,45.915z"/>
	<path fill-rule="evenodd" clip-rule="evenodd" fill="#FFFFFF" d="M152.916,26.616c-1.341,0-2.456-0.031-3.568,0.012
		c-0.575,0.022-0.732-0.344-0.939-0.738c-1.093-2.083-2.271-4.125-3.268-6.253c-0.548-1.171-1.211-1.753-2.537-1.542
		c-0.416,0.066-1.158,0.281-1.276-0.233c-0.212-0.915-0.178-1.897,0.022-2.839c0.018-0.085,0.348-0.145,0.533-0.146
		c1.358-0.013,2.717,0,4.076-0.014c0.399-0.004,0.665,0.122,0.864,0.493C148.803,19.035,150.798,22.708,152.916,26.616z"/>
	<path fill-rule="evenodd" clip-rule="evenodd" fill="#FFFFFF" d="M208.217,34.599c-3.125,2.765-7.829,2.992-11.155,0.573
		c-0.552-0.402-0.788-0.625-0.077-1.184c1.014-0.795,1.821-1.295,3.208-0.537c1.431,0.783,3.135,0.658,4.608-0.123
		c0.91-0.482,1.572-0.485,2.272,0.263C207.417,33.96,207.963,34.117,208.217,34.599z"/>
</g>
</svg>
