<?xml version="1.0" encoding="utf-8"?>
<!-- Generator: Adobe Illustrator 16.0.3, SVG Export Plug-In . SVG Version: 6.00 Build 0)  -->
<!DOCTYPE svg PUBLIC "-//W3C//DTD SVG 1.1//EN" "http://www.w3.org/Graphics/SVG/1.1/DTD/svg11.dtd">
<svg version="1.1" id="Ebene_1" xmlns="http://www.w3.org/2000/svg" xmlns:xlink="http://www.w3.org/1999/xlink" x="0px" y="0px"
	 width="595.28px" height="161.992px" viewBox="0 0 595.28 161.992" enable-background="new 0 0 595.28 161.992"
	 xml:space="preserve">
<path fill="#EEEFED" d="M20.892,147.498c4.866,3.627,13.203,1.579,19.725,1.588c7.869,0.011,15.635-0.014,23.51-0.014
	c14.806,0,29.611,0,44.417,0c18.9,0,37.563-1.334,56.457-1.334c34.944,0,69.612-2,104.647-2c92.208,0,184.519,2.222,276.455,1.397
	c7.185-0.064,22.26,5.223,25.53-4.146c2.94-8.423,0.295-21.675,0.106-30.52c-0.225-10.563-0.366-21.159,0.739-31.683
	c0.621-5.906,2.572-11.473,3.031-17.405c0.646-8.336,0.885-16.678,1.627-25.025c0.641-7.193-1.374-13.813-2.93-20.735
	c-1.113-4.953-0.388-4.824-4.912-5.815c-3.719-0.815-8.525-0.036-12.348-0.063c-16.892-0.115-33.784-0.339-50.677-0.339
	c-18.973,0-38.709-1.167-57.381,1.01c-19.878,2.318-41.31,0.49-61.362,0.49c-7.82,0-15.949,1.868-23.623,0.963
	c-8.193-0.965-16.947-3.899-25.232-3.379c-6.786,0.426-13.318,0.979-20.271,0.787c-19.846-0.548-39.612-2.871-59.478-2.871
	c-25.494,0-50.811,1.5-76.198,1.5c-12.782,0-25.565,0.025-38.347,0c-15.537-0.03-30.481,3.462-46.058,3.498
	c-13.758,0.032-27.236-1.998-41.093-1.998c-6.451,0-12.902,0-19.353,0c-3.574,0-14.244-1.866-17.067,0.248
	c-3.777,2.829-1.895,18.98-1.978,23.222c-0.222,11.399-0.324,22.8-0.404,34.201c-0.12,16.988-0.15,33.975-0.17,50.963
	c-0.009,7.135-2.831,15.837-0.56,22.783C18.396,144.964,19.502,146.463,20.892,147.498z"/>
</svg>
