<?xml version="1.0" encoding="utf-8"?>
<!-- Generator: Adobe Illustrator 16.0.3, SVG Export Plug-In . SVG Version: 6.00 Build 0)  -->
<!DOCTYPE svg PUBLIC "-//W3C//DTD SVG 1.1//EN" "http://www.w3.org/Graphics/SVG/1.1/DTD/svg11.dtd">
<svg version="1.1" id="Ebene_1" xmlns="http://www.w3.org/2000/svg" xmlns:xlink="http://www.w3.org/1999/xlink" x="0px" y="0px"
	 width="104.167px" height="100px" viewBox="0 0 104.167 100" enable-background="new 0 0 104.167 100" xml:space="preserve">
<path stroke="#000000" stroke-miterlimit="10" d="M100.337,51.808c1.265,6.78-0.236,13.646-2.21,20.175
	c-2.111,6.987-6.924,13.224-13.098,17.104c-8.264,5.194-17.085,9.996-27.384,9.954c-10.448-0.043-21.273-1.806-30.616-6.677
	c-4.61-2.403-8.818-5.606-12.113-9.65c-2.21-2.711-4.75-5.954-6.296-9.082c-1.711-3.461-1.741-7.585-2.566-11.294
	c-1.89-8.496-2.115-16.461,0.684-24.812c1.268-3.783,3.475-8.353,5.861-11.566c2.225-2.998,5.17-5.499,7.505-8.457
	c2.204-2.793,4.294-5.851,7.152-8.025c3.619-2.753,8.02-3.595,12.231-5.048c5.098-1.758,10.999-1.294,16.292-0.885
	c6.441,0.497,14.68,0.688,19.79,5.156c2.822,2.468,4.556,4.929,7.53,7.113c7.068,5.188,11.931,16.185,14.272,24.535
	C98.353,43.846,99.591,47.806,100.337,51.808z"/>
</svg>
