<?xml version="1.0" encoding="utf-8"?>
<!-- Generator: Adobe Illustrator 16.0.3, SVG Export Plug-In . SVG Version: 6.00 Build 0)  -->
<!DOCTYPE svg PUBLIC "-//W3C//DTD SVG 1.1//EN" "http://www.w3.org/Graphics/SVG/1.1/DTD/svg11.dtd">
<svg version="1.1" id="Ebene_1" xmlns="http://www.w3.org/2000/svg" xmlns:xlink="http://www.w3.org/1999/xlink" x="0px" y="0px"
	 width="104.167px" height="100px" viewBox="0 0 104.167 100" enable-background="new 0 0 104.167 100" xml:space="preserve">
<path stroke="#000000" stroke-miterlimit="10" d="M99.824,52.334c0.346,4.078,0.264,8.137-0.762,11.832
	c-2.441,8.787-7.004,19.504-14.957,24.504c-8.092,5.086-16.729,9.787-26.813,9.746c-10.23-0.043-20.83-1.768-29.978-6.537
	c-4.514-2.354-8.634-5.49-11.86-9.449c-2.597-3.186-5.608-6.668-6.882-10.648c-1.018-3.18-0.791-6.816-1.528-10.135
	c-0.934-4.203-0.702-8.482-0.857-12.75c-0.203-5.569,2.075-11.952,3.922-17.177c1.734-4.909,3.929-7.314,7.13-11.343
	c3.177-3.998,6.706-9.469,10.883-12.457c3.937-2.816,11.499-4.476,16.295-5.495c4.262-0.906,8.655-0.809,12.985-0.683
	c3.784,0.11,7.741-0.445,11.159,1.419c2.047,1.116,4.244,1.939,6.516,2.959c4.799,2.154,9.254,5.469,12.691,9.452
	c5.656,6.555,8.527,15.21,10.025,23.589C98.529,43.258,99.439,47.808,99.824,52.334z"/>
</svg>
