<?xml version="1.0" encoding="utf-8"?>
<!-- Generator: Adobe Illustrator 16.0.3, SVG Export Plug-In . SVG Version: 6.00 Build 0)  -->
<!DOCTYPE svg PUBLIC "-//W3C//DTD SVG 1.1//EN" "http://www.w3.org/Graphics/SVG/1.1/DTD/svg11.dtd">
<svg version="1.1" id="Ebene_1" xmlns="http://www.w3.org/2000/svg" xmlns:xlink="http://www.w3.org/1999/xlink" x="0px" y="0px"
	 width="104.167px" height="100px" viewBox="0 0 104.167 100" enable-background="new 0 0 104.167 100" xml:space="preserve">
<path stroke="#000000" stroke-miterlimit="10" d="M45.298,96.7c-6.737,0.449-13.24-1.801-19.362-4.473
	c-6.552-2.857-12.061-8.256-15.123-14.707c-4.099-8.633-7.752-17.762-6.524-27.772c1.246-10.153,4.207-20.478,10.019-29.001
	c2.868-4.206,6.469-7.926,10.78-10.665c2.891-1.837,6.337-3.933,9.556-5.078c3.563-1.264,7.576-0.819,11.276-1.193
	c8.479-0.86,16.251-0.161,24.049,3.523c3.532,1.668,7.721,4.342,10.571,7.032c2.657,2.508,4.75,5.661,7.358,8.271
	c2.462,2.465,5.193,4.85,6.979,7.879c2.259,3.836,2.571,8.211,3.499,12.474c1.122,5.159-0.009,10.844-1.017,15.944
	c-1.225,6.205-2.358,14.193-7.293,18.648c-2.725,2.461-5.317,3.861-7.784,6.502c-5.857,6.275-17.11,9.736-25.501,11.051
	C53.268,95.686,49.275,96.436,45.298,96.7z"/>
</svg>
