<?xml version="1.0" encoding="utf-8"?>
<!-- Generator: Adobe Illustrator 19.0.0, SVG Export Plug-In . SVG Version: 6.00 Build 0)  -->
<svg version="1.1" id="Ebene_1" xmlns="http://www.w3.org/2000/svg" xmlns:xlink="http://www.w3.org/1999/xlink" x="0px" y="0px"
	 viewBox="0 0 151.7 150.7" style="enable-background:new 0 0 151.7 150.7;" xml:space="preserve">
<style type="text/css">
	.st0{fill:#A6C613;stroke:#A6C613;stroke-width:2.169;stroke-miterlimit:10;}
</style>
<path id="XMLID_13_" class="st0" d="M148.3,80.4c0.1-1.2,0.1-2.5,0.1-3.7c0-25.9-14.4-50.3-37.1-62.8c-11.6-6.4-23-10-35.6-9.8
	C64,4.4,58.7,3,46.3,8.2c-9.9,4.2-15.7,10.5-20.8,18.4C19.2,33.1,14.2,40.7,10.7,49c-3.5,5.4-5.9,11.3-5.4,20.2
	c0,0.4,0.1,0.7,0.1,1.1c-0.2,2.1-0.3,4.3-0.3,6.5c0,15.8,5.1,30.4,13.7,42.2l-0.8-0.5c-3.1,5-4.6,10.6-7.7,15.6
	c-1.9,3.1-3.3,5.5-4.1,9.1c9.4-1.9,18.7-5.5,27.6-9c10.2,7.6,22.4,12.6,35.8,13.9c5.2,1.1,10.6,1.3,15.8,0.2
	c1.1-0.2,2.3-0.5,3.4-0.9c14.1-2.4,26.7-8.9,36.8-18.2c4.7-2.9,8.9-6.2,12.5-11C147.1,106.2,149.6,93.4,148.3,80.4z M87.6,127.1
	c-1,1.9-2.9,3.2-5.6,3.7c-0.8,0.2-1.7,0.3-2.4,0.3c-3.2,0-5.8-1.6-7.1-4.3l-0.8-1.7c-1.2-2.5-0.6-4.5-0.1-5.5c1-1.9,2.9-3.2,5.6-3.7
	c0.8-0.2,1.6-0.3,2.4-0.3c3.2,0,5.8,1.6,7.1,4.3l0.8,1.8C88.7,124.1,88.1,126.1,87.6,127.1z M97.4,58.4c-1,1.3-2.5,3-4.5,5.1
	c-1.8,1.9-3.2,3.5-4.2,4.9c-0.8,1.1-1.4,2.3-1.8,3.4c-0.8,2.6-1.4,5.3-1.7,8.3c-0.3,3.1-0.5,6.9-0.5,11.2c0,4.6-0.1,7.9-0.3,10.2
	c-0.1,1.3-0.6,3.4-3.1,5c-1.4,0.9-3,1.4-4.7,1.4c-0.2,0-0.4,0-0.6,0c-1.8-0.1-3.4-0.6-4.7-1.5c-2.1-1.4-3.2-3.6-2.8-5.9
	c0-1.8,0.1-4.9,0.1-9.1c0.1-4.7,0.3-8.9,0.7-12.6c0.4-3.9,1.1-7.5,2.1-10.7c0.7-2.3,1.9-4.6,3.6-6.8c1.4-1.9,3.3-4.1,5.5-6.4
	c2.6-2.8,3.5-3.8,3.7-4.2l0-0.1l0-0.1c2.2-2.8,4.2-6.1,1.7-10c-0.9-1.3-2.6-2.5-5.1-3.3c-2.4-0.8-4.8-1.2-7.3-1.2c-0.5,0-1,0-1.5,0
	c-3.2,0.2-6.2,0.9-9,1.9c-2.3,0.9-3.9,2.2-4.9,4.1c-0.9,1.6-0.9,3.6-0.1,6.1c0.7,1.9,0.5,3.8-0.4,5.3c-1.1,1.8-3,2.9-5.8,3.4
	c-0.7,0.1-1.3,0.2-1.9,0.2c-3.5,0-6.2-1.8-7.3-4.8c-2.1-5.9-1.7-11.3,1-16.2c2.6-4.6,6.6-8,12-10c4.8-1.8,9.9-3,15.4-3.4
	c1.1-0.1,2.3-0.1,3.4-0.1c4.5,0,8.9,0.8,13.1,2.3c5.5,2,9.7,5.1,12.5,9.2C103.5,39.2,106.1,47.9,97.4,58.4z"/>
</svg>
