<?xml version="1.0" encoding="utf-8"?>
<!-- Generator: Adobe Illustrator 16.0.3, SVG Export Plug-In . SVG Version: 6.00 Build 0)  -->
<!DOCTYPE svg PUBLIC "-//W3C//DTD SVG 1.1//EN" "http://www.w3.org/Graphics/SVG/1.1/DTD/svg11.dtd">
<svg version="1.1" id="Ebene_1" xmlns="http://www.w3.org/2000/svg" xmlns:xlink="http://www.w3.org/1999/xlink" x="0px" y="0px"
	 width="48px" height="48px" viewBox="0 0 48 48" enable-background="new 0 0 48 48" xml:space="preserve">
<path fill="#A8C813" stroke="#A8C813" stroke-width="0.6913" stroke-miterlimit="10" d="M47.061,25.256
	c-0.146-3.293-0.444-6.671-1.78-9.728c-0.771-1.763-1.444-3.604-2.359-5.287c-1.232-2.263-4.53-4.516-6.784-5.607
	c-1.46-0.706-3.068-1.16-4.6-1.701c-1.47-0.518-3.259-1.553-4.784-1.76C19.41,0.186,12.112,1.657,7.887,8.118
	c-2.01,2.062-3.599,4.485-4.706,7.115c-1.115,1.737-1.888,3.593-1.727,6.452c0.006,0.114,0.019,0.226,0.027,0.339
	c-0.063,0.682-0.101,1.367-0.101,2.057c0,5.028,1.63,9.674,4.382,13.445l-0.248-0.166c-0.989,1.596-1.48,3.388-2.454,4.981
	c-0.611,1.002-1.063,1.763-1.318,2.911c2.981-0.619,5.945-1.743,8.808-2.873c3.243,2.426,7.152,4.009,11.403,4.428
	c1.67,0.35,3.375,0.423,5.03,0.078c0.355-0.075,0.721-0.174,1.095-0.297c4.486-0.762,8.527-2.833,11.715-5.807
	c1.488-0.909,2.834-1.988,3.988-3.514c2.451-3.237,3.474-7.064,3.318-11.089C47.087,25.871,47.076,25.564,47.061,25.256z"/>
<g>
	<path fill="#FFFFFF" d="M25.792,40.25c-0.755,0-1.334-0.344-1.63-0.969l-0.265-0.578c-0.237-0.502-0.145-0.895-0.024-1.134
		c0.209-0.415,0.638-0.683,1.312-0.816c0.227-0.046,0.436-0.067,0.627-0.067c0.755,0,1.334,0.344,1.63,0.967l0.266,0.58
		c0.237,0.506,0.144,0.897,0.023,1.137c-0.208,0.413-0.637,0.679-1.31,0.813C26.194,40.229,25.984,40.25,25.792,40.25z
		 M24.692,32.837c-0.439-0.025-0.835-0.15-1.173-0.371c-0.451-0.292-0.664-0.746-0.58-1.229c0.001-0.552,0.016-1.533,0.045-2.943
		c0.027-1.463,0.102-2.8,0.221-3.971c0.12-1.183,0.335-2.286,0.641-3.278c0.198-0.647,0.545-1.298,1.032-1.934
		c0.448-0.585,1.022-1.255,1.708-1.994c0.813-0.877,1.117-1.234,1.229-1.379c1.226-1.5,1.407-2.781,0.582-4.048
		c-0.371-0.544-1.036-0.993-1.968-1.322c-0.823-0.29-1.685-0.436-2.56-0.436c-0.177,0-0.355,0.006-0.534,0.018
		c-1.091,0.072-2.125,0.296-3.073,0.667c-0.877,0.344-1.507,0.87-1.924,1.607c-0.397,0.7-0.423,1.521-0.08,2.512
		c0.178,0.503,0.055,0.876-0.08,1.1c-0.237,0.395-0.68,0.635-1.354,0.736c-0.18,0.027-0.347,0.04-0.501,0.04
		c-1.116,0-1.521-0.668-1.664-1.067c-0.593-1.682-0.501-3.222,0.27-4.582c0.75-1.32,1.917-2.289,3.468-2.881
		c1.456-0.553,3.038-0.905,4.701-1.044c0.339-0.028,0.676-0.042,1.009-0.042c1.343,0,2.664,0.229,3.927,0.681
		c1.627,0.583,2.851,1.483,3.635,2.675c1.048,1.516,1.778,3.975-0.749,7.005c-0.29,0.38-0.762,0.918-1.386,1.577
		c-0.595,0.628-1.063,1.172-1.39,1.619c-0.31,0.42-0.542,0.849-0.692,1.275c-0.271,0.847-0.468,1.791-0.578,2.788
		c-0.115,1.017-0.172,2.24-0.172,3.639c0,1.463-0.03,2.521-0.09,3.232c0.002,0.245-0.114,0.683-0.667,1.041
		c-0.324,0.21-0.697,0.316-1.107,0.316L24.692,32.837z"/>
	<path fill="#FFFFFF" d="M24.107,7.693c1.269,0,2.5,0.214,3.691,0.64c1.489,0.533,2.584,1.334,3.286,2.4
		c1.343,1.943,1.109,4.001-0.701,6.172c-0.292,0.382-0.744,0.897-1.356,1.544c-0.615,0.649-1.097,1.21-1.446,1.686
		c-0.352,0.477-0.614,0.962-0.788,1.457c-0.293,0.915-0.498,1.896-0.613,2.943c-0.118,1.048-0.177,2.286-0.177,3.715
		c0,1.431-0.029,2.487-0.088,3.173c0,0.19-0.117,0.362-0.35,0.514c-0.207,0.134-0.45,0.203-0.727,0.203
		c-0.034,0-0.069-0.001-0.104-0.003c-0.322-0.019-0.601-0.106-0.833-0.258c-0.234-0.151-0.322-0.343-0.263-0.571
		c0-0.533,0.014-1.534,0.045-3.001c0.027-1.465,0.101-2.771,0.218-3.914c0.116-1.144,0.32-2.191,0.613-3.144
		c0.175-0.571,0.482-1.143,0.919-1.715c0.438-0.571,0.993-1.219,1.665-1.942c0.67-0.724,1.094-1.201,1.27-1.429
		c1.401-1.714,1.605-3.333,0.614-4.857c-0.468-0.687-1.241-1.219-2.321-1.601c-0.901-0.316-1.833-0.476-2.793-0.476
		c-0.192,0-0.385,0.006-0.58,0.019c-1.168,0.077-2.262,0.315-3.283,0.714c-1.022,0.4-1.783,1.039-2.278,1.915
		c-0.497,0.876-0.541,1.905-0.132,3.085c0.175,0.496-0.117,0.801-0.875,0.915c-0.143,0.021-0.275,0.032-0.397,0.032
		c-0.527,0-0.861-0.201-1.005-0.603c-0.524-1.487-0.45-2.82,0.22-4.001c0.671-1.181,1.708-2.038,3.109-2.572
		c1.401-0.533,2.905-0.866,4.51-1.001C23.476,7.707,23.793,7.693,24.107,7.693 M25.813,37.386c0.486,0,0.819,0.189,0.998,0.567
		l0.262,0.571c0.233,0.498-0.031,0.82-0.788,0.972c-0.179,0.036-0.344,0.054-0.493,0.054c-0.486,0-0.817-0.189-0.997-0.568
		l-0.261-0.57c-0.233-0.493,0.029-0.82,0.789-0.972C25.5,37.403,25.664,37.386,25.813,37.386 M24.107,6.293
		c-0.352,0-0.71,0.015-1.065,0.044c-1.731,0.146-3.376,0.511-4.893,1.088c-1.709,0.652-2.997,1.725-3.829,3.189
		c-0.876,1.545-0.985,3.28-0.323,5.158c0.345,0.965,1.213,1.538,2.325,1.538c0.191,0,0.395-0.016,0.606-0.048
		c0.88-0.132,1.502-0.491,1.849-1.067c0.3-0.499,0.349-1.102,0.138-1.698c-0.271-0.781-0.262-1.414,0.029-1.928
		c0.336-0.594,0.849-1.02,1.571-1.302c0.88-0.345,1.844-0.554,2.864-0.621c0.163-0.011,0.326-0.016,0.488-0.016
		c0.795,0,1.58,0.134,2.33,0.397c0.786,0.278,1.335,0.638,1.628,1.068c0.443,0.682,0.74,1.615-0.541,3.182
		c-0.11,0.142-0.376,0.46-1.213,1.364c-0.699,0.753-1.288,1.441-1.749,2.043c-0.538,0.704-0.923,1.429-1.146,2.156
		c-0.319,1.036-0.543,2.184-0.668,3.413c-0.121,1.189-0.197,2.544-0.225,4.029c-0.029,1.368-0.043,2.336-0.045,2.899
		c-0.103,0.736,0.23,1.439,0.902,1.875c0.437,0.285,0.947,0.447,1.513,0.479c0.06,0.004,0.123,0.006,0.185,0.006
		c0.54,0,1.055-0.148,1.487-0.428c0.806-0.522,0.97-1.204,0.988-1.609c0.06-0.731,0.089-1.796,0.089-3.253
		c0-1.373,0.057-2.569,0.168-3.558c0.105-0.955,0.292-1.853,0.555-2.673c0.115-0.325,0.314-0.691,0.582-1.054
		c0.312-0.426,0.761-0.947,1.335-1.554c0.638-0.674,1.107-1.208,1.434-1.633c2.786-3.357,1.951-6.117,0.759-7.842
		c-0.852-1.295-2.192-2.288-3.965-2.923C26.932,6.536,25.531,6.293,24.107,6.293L24.107,6.293z M25.813,35.985L25.813,35.985
		c-0.241,0-0.499,0.027-0.766,0.081c-0.885,0.177-1.49,0.576-1.798,1.188c-0.27,0.535-0.263,1.159,0.02,1.755l0.254,0.555
		c0.419,0.887,1.244,1.386,2.27,1.386c0.241,0,0.5-0.027,0.768-0.081c0.885-0.177,1.489-0.575,1.797-1.185
		c0.156-0.31,0.361-0.948-0.017-1.754l-0.257-0.562C27.663,36.483,26.838,35.985,25.813,35.985L25.813,35.985z"/>
</g>
</svg>
